<svg width="130" height="42" viewBox="0 0 130 42" fill="none" xmlns="http://www.w3.org/2000/svg">
<g id="Logo_w" clip-path="url(#clip0_4389_3228)">
<g id="Group">
<path id="Subtract" fill-rule="evenodd" clip-rule="evenodd" d="M1.49071 0.5H42.6469H42.649C43.4719 0.5 44.1397 1.16212 44.1397 1.97903V17.4959C44.1397 18.3128 43.4719 18.9749 42.649 18.9749H27.3843C27.1603 18.9749 26.9405 19.0244 26.738 19.1211L22.7161 21.0408C22.309 21.2365 21.8329 21.2365 21.4236 21.0408L17.4017 19.1211C17.1992 19.0244 16.9795 18.9749 16.7554 18.9749H1.49071C0.667805 18.9749 0 18.3128 0 17.4959V10.8123V1.97903C0 1.16212 0.667805 0.5 1.49071 0.5ZM37.0485 12.6138L37.1972 12.4397V12.4376L38.4703 13.4006L38.3174 13.5963C37.7336 14.3379 36.9925 14.9205 36.1179 15.3268C35.2476 15.7331 34.261 15.9373 33.1882 15.9373C31.1438 15.9373 29.5066 15.2473 28.3197 13.8822C27.3266 12.7299 26.8225 11.324 26.8225 9.70092C26.8225 7.98972 27.4343 6.5279 28.6385 5.35628C29.8427 4.18897 31.3679 3.59564 33.1731 3.59564C34.261 3.59564 35.2605 3.81276 36.1416 4.24486C37.0248 4.67696 37.7594 5.29394 38.3238 6.0743L38.4617 6.26563L37.1885 7.24161L37.0399 7.04813C36.5746 6.44191 36.0059 5.97756 35.3553 5.66585C34.7026 5.35413 33.9723 5.19505 33.1882 5.19505C32.333 5.19505 31.5294 5.40143 30.8013 5.81203C30.0732 6.22048 29.5023 6.77512 29.1038 7.46304C28.7053 8.15311 28.5028 8.93991 28.5028 9.80196C28.5028 11.1219 28.9422 12.1925 29.847 13.0739C30.741 13.9445 31.8892 14.3852 33.2571 14.3852C34.7801 14.3852 36.021 13.8069 37.0485 12.6138ZM25.4998 10.8317C25.3081 10.4189 25.0388 10.0621 24.6963 9.77401C24.4464 9.56334 24.1211 9.37201 23.7226 9.20218C24.0328 8.97001 24.2827 8.69484 24.4701 8.38098C24.7372 7.93383 24.8729 7.43079 24.8729 6.8869C24.8729 6.30647 24.72 5.76903 24.4162 5.28964C24.1125 4.81024 23.6903 4.45124 23.1668 4.21906C22.6498 3.99119 21.9411 3.8794 20.9997 3.8794H14.4229L15.1661 5.47237H21.1849C21.9152 5.47237 22.4451 5.6035 22.7618 5.85932C23.0677 6.10869 23.2142 6.44405 23.2142 6.8869C23.2142 7.22226 23.1216 7.52108 22.9342 7.79624C22.7446 8.07141 22.4947 8.26919 22.1673 8.39817C21.8269 8.53146 21.2733 8.60025 20.5214 8.60025H16.6266L17.3871 10.2233H20.515C21.4478 10.2233 22.1048 10.2663 22.4688 10.3544C22.9902 10.4813 23.4038 10.7135 23.6989 11.0467C23.9897 11.3777 24.1319 11.7539 24.1319 12.1989C24.1319 12.5515 24.0306 12.8697 23.8238 13.1749C23.6149 13.4802 23.3478 13.6995 23.0031 13.8435C22.6498 13.9918 22.0703 14.0671 21.2797 14.0671H19.1837L19.9269 15.66H21.8764C23.0526 15.66 24.0091 15.3204 24.7157 14.6539C25.4266 13.9832 25.7885 13.1491 25.7885 12.1796C25.7885 11.7002 25.6915 11.2487 25.502 10.8381L25.4998 10.8317ZM11.3723 3.74612H12.1327L17.7617 15.7912H15.7044L13.8216 11.8614L11.745 7.41359L7.77044 15.7912H5.66793L11.3723 3.74612Z" fill="url(#paint0_linear_4389_3228)"/>
</g>
<path id="Vector" d="M12.7062 38.3677C12.4283 39.0169 12.0427 39.563 11.5473 40.0058C11.0518 40.4487 10.4616 40.7819 9.77652 41.0055C9.09148 41.2312 8.33966 41.343 7.52321 41.343H0.0244141V22.8401H7.2367C8.973 22.8401 10.3388 23.2915 11.3383 24.1923C12.3357 25.093 12.8355 26.3313 12.8355 27.9092C12.8355 28.4122 12.7622 28.8744 12.6136 29.3001C12.465 29.7257 12.2754 30.1062 12.0406 30.4437C11.8058 30.7813 11.5408 31.0672 11.2457 31.3015C10.9506 31.5358 10.6468 31.7121 10.3345 31.8346C10.6985 31.9744 11.0453 32.1678 11.3771 32.4194C11.7067 32.6709 12.0018 32.9697 12.2625 33.3158C12.5231 33.6619 12.7321 34.0704 12.8872 34.5369C13.0444 35.0055 13.122 35.5344 13.122 36.1212C13.122 36.9704 12.982 37.7185 12.7062 38.3699V38.3677ZM9.19057 26.0368C8.63478 25.5875 7.90666 25.3617 7.00405 25.3617H2.83566V30.663H7.0019C7.90451 30.663 8.63263 30.4373 9.18842 29.988C9.7442 29.5387 10.0221 28.8787 10.0221 28.0124C10.0221 27.146 9.7442 26.4882 9.18842 26.0368H9.19057ZM9.52878 33.9629C9.00746 33.4426 8.25349 33.1825 7.26255 33.1825H2.83566V38.8213H7.26255C8.25134 38.8213 9.00746 38.5569 9.52878 38.0281C10.0501 37.4992 10.3108 36.8199 10.3108 35.9879C10.3108 35.156 10.0501 34.481 9.52878 33.9607V33.9629Z" fill="#1A1A1A"/>
<path id="Vector_2" d="M28.6173 34.4962C28.6001 35.2142 28.5397 35.8699 28.4342 36.4589C28.3308 37.048 28.1563 37.594 27.9129 38.097C27.6694 38.6001 27.3226 39.0752 26.8702 39.5266C26.2283 40.1673 25.498 40.6574 24.6837 40.9949C23.8673 41.3324 22.9647 41.5022 21.9759 41.5022C20.9871 41.5022 20.0888 41.3324 19.281 40.9949C18.4731 40.6574 17.7493 40.1673 17.1074 39.5266C16.655 39.0773 16.3081 38.6001 16.0647 38.097C15.8213 37.594 15.6425 37.0501 15.5305 36.4589C15.4185 35.8699 15.3517 35.2164 15.3344 34.4962C15.3172 33.7782 15.3086 32.9763 15.3086 32.0928C15.3086 31.2093 15.3172 30.4074 15.3344 29.6894C15.3517 28.9714 15.4163 28.3157 15.5305 27.7267C15.6425 27.1376 15.8213 26.5916 16.0647 26.0886C16.3081 25.5855 16.655 25.1104 17.1074 24.659C17.7493 24.0183 18.4753 23.5282 19.281 23.1907C20.0888 22.8532 20.9871 22.6833 21.9759 22.6833C22.9647 22.6833 23.8673 22.8532 24.6837 23.1907C25.5002 23.5282 26.2283 24.0183 26.8702 24.659C27.3205 25.1104 27.6694 25.5855 27.9129 26.0886C28.1563 26.5916 28.3286 27.1376 28.4342 27.7267C28.5376 28.3157 28.5979 28.9692 28.6173 29.6894C28.6345 30.4074 28.6431 31.2093 28.6431 32.0928C28.6431 32.9763 28.6345 33.7782 28.6173 34.4962ZM25.791 29.7668C25.7651 29.1519 25.7134 28.6317 25.6337 28.2082C25.5562 27.7847 25.442 27.4278 25.2955 27.1419C25.1469 26.856 24.9616 26.5916 24.7354 26.3487C24.4058 26.0026 24.0008 25.7252 23.5247 25.5167C23.0465 25.3082 22.5317 25.205 21.9759 25.205C21.4201 25.205 20.9031 25.3082 20.427 25.5167C19.9488 25.7252 19.5459 26.0026 19.2163 26.3487C18.9901 26.5916 18.8027 26.856 18.6562 27.1419C18.5076 27.4278 18.3956 27.7826 18.318 28.2082C18.2405 28.6339 18.1888 29.1519 18.1608 29.7668C18.1349 30.3816 18.122 31.1577 18.122 32.0928C18.122 33.0279 18.1349 33.804 18.1608 34.4188C18.1866 35.0337 18.2383 35.5539 18.318 35.9774C18.3956 36.403 18.5097 36.7578 18.6562 37.0437C18.8027 37.3296 18.9901 37.594 19.2163 37.8369C19.5459 38.183 19.9488 38.4604 20.427 38.6689C20.9052 38.8774 21.4201 38.9806 21.9759 38.9806C22.5317 38.9806 23.0465 38.8774 23.5247 38.6689C24.003 38.4604 24.4058 38.183 24.7354 37.8369C24.9616 37.594 25.1469 37.3296 25.2955 37.0437C25.442 36.7578 25.5562 36.403 25.6337 35.9774C25.7113 35.5539 25.763 35.0337 25.791 34.4188C25.8168 33.804 25.8297 33.0279 25.8297 32.0928C25.8297 31.1577 25.8168 30.3816 25.791 29.7668Z" fill="#1A1A1A"/>
<path id="Vector_3" d="M44.1358 34.4962C44.1186 35.2142 44.0583 35.8699 43.9527 36.4589C43.8493 37.048 43.6748 37.594 43.4314 38.097C43.188 38.6001 42.8412 39.0752 42.3888 39.5266C41.7468 40.1673 41.0166 40.6574 40.2023 40.9949C39.3858 41.3324 38.4832 41.5022 37.4944 41.5022C36.5056 41.5022 35.6073 41.3324 34.7995 40.9949C33.9917 40.6574 33.2679 40.1673 32.6259 39.5266C32.1735 39.0773 31.8267 38.6001 31.5833 38.097C31.3398 37.594 31.1632 37.0501 31.049 36.4589C30.9349 35.8699 30.8702 35.2164 30.853 34.4962C30.8358 33.7782 30.8271 32.9763 30.8271 32.0928C30.8271 31.2093 30.8358 30.4074 30.853 29.6894C30.8702 28.9714 30.9349 28.3157 31.049 27.7267C31.1611 27.1376 31.3398 26.5916 31.5833 26.0886C31.8267 25.5855 32.1735 25.1104 32.6259 24.659C33.2679 24.0183 33.9938 23.5282 34.7995 23.1907C35.6073 22.8532 36.5056 22.6833 37.4944 22.6833C38.4832 22.6833 39.3858 22.8532 40.2023 23.1907C41.0187 23.5282 41.7468 24.0183 42.3888 24.659C42.839 25.1104 43.188 25.5855 43.4314 26.0886C43.6748 26.5916 43.8472 27.1376 43.9527 27.7267C44.0561 28.3157 44.1165 28.9692 44.1358 29.6894C44.1531 30.4074 44.1617 31.2093 44.1617 32.0928C44.1617 32.9763 44.1531 33.7782 44.1358 34.4962ZM41.3095 29.7668C41.2837 29.1519 41.232 28.6317 41.1523 28.2082C41.0747 27.7847 40.9605 27.4278 40.8141 27.1419C40.6654 26.856 40.4802 26.5916 40.254 26.3487C39.9244 26.0026 39.5194 25.7252 39.0433 25.5167C38.5651 25.3082 38.0502 25.205 37.4944 25.205C36.9386 25.205 36.4216 25.3082 35.9455 25.5167C35.4673 25.7252 35.0645 26.0026 34.7349 26.3487C34.5087 26.5916 34.3213 26.856 34.1748 27.1419C34.0261 27.4278 33.9141 27.7826 33.8366 28.2082C33.759 28.6339 33.7073 29.1519 33.6793 29.7668C33.6535 30.3816 33.6405 31.1577 33.6405 32.0928C33.6405 33.0279 33.6535 33.804 33.6793 34.4188C33.7052 35.0337 33.7569 35.5539 33.8366 35.9774C33.9141 36.403 34.0283 36.7578 34.1748 37.0437C34.3213 37.3296 34.5087 37.594 34.7349 37.8369C35.0645 38.183 35.4673 38.4604 35.9455 38.6689C36.4238 38.8774 36.9386 38.9806 37.4944 38.9806C38.0502 38.9806 38.5672 38.8774 39.0433 38.6689C39.5215 38.4604 39.9244 38.183 40.254 37.8369C40.4802 37.594 40.6654 37.3296 40.8141 37.0437C40.9605 36.7578 41.0747 36.403 41.1523 35.9774C41.2298 35.5539 41.2815 35.0337 41.3095 34.4188C41.3354 33.804 41.3483 33.0279 41.3483 32.0928C41.3483 31.1577 41.3354 30.3816 41.3095 29.7668Z" fill="#1A1A1A"/>
<path id="Vector_4" d="M52.7798 25.3617V41.343H49.9686V25.3617H44.8652V22.8401H57.8853V25.3617H52.782H52.7798Z" fill="#1A1A1A"/>
<path id="Vector_5" d="M71.049 38.2518C70.6591 38.9633 70.1723 39.561 69.5906 40.0447C69.009 40.5305 68.3498 40.8938 67.6109 41.1367C66.872 41.3797 66.0879 41.5 65.2542 41.5C64.2826 41.5 63.3886 41.3302 62.5722 40.9927C61.7558 40.6552 61.0276 40.1651 60.3857 39.5244C59.9333 39.0751 59.5865 38.5979 59.343 38.0948C59.0996 37.5918 58.9208 37.0479 58.8088 36.4567C58.6968 35.8677 58.63 35.2142 58.6128 34.494C58.5955 33.776 58.5869 32.9741 58.5869 32.0906C58.5869 31.2071 58.5955 30.4052 58.6128 29.6872C58.63 28.9692 58.6946 28.3135 58.8088 27.7245C58.9208 27.1354 59.0996 26.5894 59.343 26.0864C59.5865 25.5833 59.9333 25.1082 60.3857 24.6568C61.0276 24.0161 61.7579 23.526 62.5722 23.1885C63.3886 22.851 64.2826 22.6812 65.2542 22.6812C66.9733 22.6812 68.423 23.167 69.6035 24.1365C70.784 25.1061 71.538 26.5185 71.8698 28.3715H69.0047C68.7785 27.4364 68.3584 26.6732 67.7423 26.0842C67.1262 25.4952 66.2968 25.2007 65.2564 25.2007C64.7006 25.2007 64.1879 25.2995 63.7204 25.4995C63.2508 25.6994 62.8523 25.9724 62.5227 26.3185C62.2965 26.5614 62.109 26.8259 61.9626 27.1118C61.8139 27.3977 61.7019 27.7524 61.6244 28.1781C61.5468 28.6037 61.4886 29.1261 61.4542 29.7495C61.4197 30.373 61.4025 31.1533 61.4025 32.0885C61.4025 33.0236 61.4197 33.804 61.4542 34.4274C61.4886 35.0508 61.5446 35.5753 61.6244 35.9988C61.7019 36.4245 61.8161 36.7792 61.9626 37.0651C62.109 37.351 62.2965 37.6155 62.5227 37.8584C62.8523 38.2045 63.2508 38.4775 63.7204 38.6774C64.19 38.8774 64.7006 38.9762 65.2564 38.9762C66.299 38.9762 67.1305 38.6817 67.7552 38.0927C68.3799 37.5037 68.8043 36.7405 69.0305 35.8054H71.8698C71.7125 36.7233 71.4411 37.5381 71.049 38.2475V38.2518Z" fill="#1A1A1A"/>
<path id="Vector_6" d="M110.702 41.343V28.9733L106.433 37.9915H104.35L99.9745 28.9733V41.343H97.1611V22.8401H99.9745L105.39 34.352L110.702 22.8401H113.516V41.343H110.702Z" fill="#1A1A1A"/>
<path id="Vector_7" d="M129.582 30.7017C129.304 31.3853 128.905 31.9744 128.384 32.4688C127.863 32.9633 127.238 33.3524 126.51 33.6383C125.782 33.9242 124.965 34.0661 124.063 34.0661H119.845V41.343H117.031V22.8401H124.063C124.965 22.8401 125.782 22.982 126.51 23.2679C127.238 23.5538 127.865 23.9429 128.384 24.4374C128.905 24.9318 129.304 25.5251 129.582 26.2173C129.86 26.9096 129.997 27.6555 129.997 28.4531C129.997 29.2506 129.857 30.0159 129.582 30.7017ZM126.288 26.1679C125.689 25.6305 124.894 25.3617 123.905 25.3617H119.842V31.5208H123.905C124.894 31.5208 125.689 31.2564 126.288 30.7275C126.887 30.1987 127.186 29.442 127.186 28.4531C127.186 27.4642 126.887 26.7032 126.288 26.1657V26.1679Z" fill="#1A1A1A"/>
<path id="Vector_8" d="M84.5978 17.8326L86.8123 13.3525L85.6899 12.8L83.8976 16.4224L82.142 12.8688L81.0175 13.4235L83.1997 17.8348L71.582 41.2864H76.5389L83.8998 26.4338L91.2586 41.2864H96.2176L84.5978 17.8326Z" fill="#0844FF"/>
</g>
<defs>
<linearGradient id="paint0_linear_4389_3228" x1="0" y1="10.8438" x2="72.5" y2="21" gradientUnits="userSpaceOnUse">
<stop stop-color="#0844FF"/>
<stop offset="1" stop-color="#052999"/>
</linearGradient>
<clipPath id="clip0_4389_3228">
<rect width="130" height="41" fill="white" transform="translate(0 0.5)"/>
</clipPath>
</defs>
</svg>
