<svg width="23" height="23" viewBox="0 0 23 23" fill="none" xmlns="http://www.w3.org/2000/svg">
<path d="M11.9717 2.23017C14.9086 2.23017 15.2554 2.24052 16.4146 2.29486C17.4859 2.34402 18.0681 2.52257 18.4563 2.67265C18.9686 2.8719 19.3361 3.10996 19.7216 3.49552C20.1072 3.88107 20.3452 4.24593 20.5445 4.76087C20.6946 5.14901 20.8731 5.73123 20.9223 6.8025C20.974 7.96176 20.987 8.31109 20.987 11.2455C20.987 14.1798 20.9766 14.5292 20.9223 15.6884C20.8731 16.7597 20.6946 17.3419 20.5445 17.73C20.3452 18.2424 20.1072 18.6098 19.7216 18.9954C19.3361 19.381 18.9712 19.619 18.4563 19.8183C18.0681 19.9683 17.4859 20.1469 16.4146 20.1961C15.2554 20.2478 14.9086 20.2607 11.9717 20.2607C9.03472 20.2607 8.68798 20.2504 7.52872 20.1961C6.45745 20.1469 5.87523 19.9683 5.48709 19.8183C4.97474 19.619 4.60729 19.381 4.22174 18.9954C3.83618 18.6098 3.59812 18.245 3.39887 17.73C3.24879 17.3419 3.07024 16.7597 3.02108 15.6884C2.96933 14.5292 2.95639 14.1798 2.95639 11.2455C2.95639 8.31109 2.96674 7.96176 3.02108 6.8025C3.07024 5.73123 3.24879 5.14901 3.39887 4.76087C3.59812 4.24852 3.83618 3.88107 4.22174 3.49552C4.60729 3.10996 4.97215 2.8719 5.48709 2.67265C5.87523 2.52257 6.45745 2.34402 7.52872 2.29486C8.68798 2.24311 9.03731 2.23017 11.9717 2.23017ZM11.9717 0.248047C8.98556 0.248047 8.61035 0.260985 7.43816 0.315325C6.26855 0.369665 5.46897 0.553387 4.76773 0.827675C4.04578 1.10973 3.43251 1.48493 2.81924 2.09561C2.20857 2.70629 1.83077 3.31956 1.55131 4.04409C1.27961 4.74275 1.0933 5.54233 1.03896 6.71452C0.984618 7.88672 0.97168 8.26192 0.97168 11.248C0.97168 14.2342 0.984618 14.6094 1.03896 15.7816C1.0933 16.9512 1.27702 17.7507 1.55131 18.452C1.83336 19.1739 2.20857 19.7872 2.81924 20.4005C3.42992 21.0112 4.04319 21.389 4.76773 21.6684C5.46639 21.9401 6.26596 22.1264 7.43816 22.1808C8.61035 22.2351 8.98556 22.248 11.9717 22.248C14.9578 22.248 15.333 22.2351 16.5052 22.1808C17.6748 22.1264 18.4744 21.9427 19.1756 21.6684C19.8976 21.3864 20.5108 21.0112 21.1241 20.4005C21.7348 19.7898 22.1126 19.1765 22.392 18.452C22.6638 17.7533 22.8501 16.9538 22.9044 15.7816C22.9587 14.6094 22.9717 14.2342 22.9717 11.248C22.9717 8.26192 22.9587 7.88672 22.9044 6.71452C22.8501 5.54492 22.6663 4.74534 22.392 4.04409C22.11 3.32215 21.7348 2.70888 21.1241 2.09561C20.5134 1.48493 19.9002 1.10714 19.1756 0.827675C18.477 0.555974 17.6774 0.369665 16.5052 0.315325C15.333 0.260985 14.9578 0.248047 11.9717 0.248047Z" fill="#909090"/>
<path d="M11.9724 5.59863C8.85428 5.59863 6.32617 8.12674 6.32617 11.2448C6.32617 14.3629 8.85428 16.891 11.9724 16.891C15.0905 16.891 17.6186 14.3629 17.6186 11.2448C17.6186 8.12674 15.0905 5.59863 11.9724 5.59863ZM11.9724 14.9115C9.94885 14.9115 8.30571 13.2709 8.30571 11.2448C8.30571 9.21872 9.94626 7.57817 11.9724 7.57817C13.9985 7.57817 15.639 9.21872 15.639 11.2448C15.639 13.2709 13.9985 14.9115 11.9724 14.9115Z" fill="#909090"/>
<path d="M17.8382 6.69309C18.5671 6.69309 19.1579 6.10224 19.1579 5.3734C19.1579 4.64456 18.5671 4.05371 17.8382 4.05371C17.1094 4.05371 16.5186 4.64456 16.5186 5.3734C16.5186 6.10224 17.1094 6.69309 17.8382 6.69309Z" fill="#909090"/>
</svg>
