<svg width="23" height="22" viewBox="0 0 23 22" fill="none" xmlns="http://www.w3.org/2000/svg">
<path d="M11.6471 18.7141C10.9618 18.7191 10.2813 18.6869 9.60316 18.588C9.50013 18.5731 9.41866 18.5929 9.33239 18.6572C7.98575 19.6318 6.64151 20.6089 5.25173 21.5192C5.084 21.6305 4.90669 21.7269 4.73177 21.8308C4.66947 21.8679 4.60477 21.8902 4.53289 21.9001C4.31004 21.9322 4.18065 21.7962 4.22857 21.5686C4.31004 21.1679 4.42746 20.7771 4.53528 20.3838C4.80844 19.3919 5.084 18.4 5.35956 17.4081C5.38352 17.3215 5.37633 17.2795 5.28768 17.2349C3.97698 16.5498 2.81963 15.6568 1.87794 14.4868C0.945835 13.3292 0.315645 12.0232 0.0904058 10.5291C-0.165983 8.8199 0.126348 7.20466 0.924269 5.68837C1.70542 4.20423 2.83401 3.05403 4.19503 2.13881C5.6495 1.16423 7.24534 0.555729 8.94422 0.239114C10.2118 -0.000821689 11.4889 -0.0601872 12.7709 0.0610173C15.1838 0.286111 17.4098 1.05539 19.3723 2.54942C20.6758 3.54132 21.7229 4.76326 22.3603 6.31418C23.3811 8.79516 23.1678 11.197 21.8092 13.485C20.9394 14.9519 19.7174 16.0526 18.2844 16.9084C16.9162 17.7272 15.4426 18.2442 13.8827 18.5138C13.1423 18.6424 12.3947 18.7092 11.6423 18.7141H11.6471Z" fill="#909090"/>
<path d="M16.9816 8.71443C17.0055 8.67733 17.0271 8.63775 17.0583 8.6056C17.6238 8.01936 18.1916 7.43313 18.7595 6.84937C18.9728 6.62922 19.234 6.59707 19.488 6.75537C19.742 6.91368 19.869 7.22288 19.7923 7.49497C19.7635 7.59886 19.7012 7.68049 19.6269 7.75717C19.1621 8.23456 18.6996 8.71691 18.2324 9.19183C18.1677 9.25862 18.1701 9.29572 18.2228 9.36745C18.7404 10.0699 19.2555 10.7774 19.7707 11.4823C19.9959 11.7915 19.9648 12.1848 19.7012 12.4272C19.4065 12.6969 18.9704 12.6548 18.7236 12.3209C18.2611 11.6951 17.8035 11.0668 17.3458 10.4385C17.3338 10.4212 17.3242 10.4039 17.3099 10.389C17.2547 10.3346 17.2404 10.2307 17.1565 10.2258C17.0918 10.2208 16.9408 10.4657 16.9408 10.5449C16.9408 11.0148 16.9432 11.4873 16.9384 11.9573C16.9337 12.2863 16.7108 12.546 16.3921 12.6103C16.1046 12.6672 15.8027 12.5039 15.6781 12.2195C15.6373 12.1255 15.6182 12.029 15.6182 11.9251C15.6182 10.3717 15.6182 8.81832 15.6182 7.26245C15.6182 6.87163 15.9105 6.56986 16.2771 6.56738C16.6437 6.56738 16.9361 6.86668 16.9408 7.25751C16.9456 7.70275 16.9408 8.15046 16.9408 8.5957V8.6897C16.9552 8.69959 16.9672 8.70949 16.9816 8.71691V8.71443Z" fill="#1A1A1A"/>
<path d="M9.07128 11.4278C8.76457 11.4278 8.45786 11.4278 8.15116 11.4278C8.08167 11.4278 8.04812 11.4476 8.02416 11.5169C7.94509 11.742 7.86122 11.9621 7.77736 12.1872C7.65036 12.5311 7.41793 12.6696 7.05851 12.6152C6.59365 12.5434 6.43551 12.301 6.53375 11.8088C6.59605 11.5021 6.72544 11.2176 6.83087 10.9282C7.27895 9.70625 7.72704 8.48431 8.17751 7.26237C8.3093 6.90371 8.55371 6.66377 8.92032 6.58709C9.33726 6.50052 9.77575 6.77755 9.94348 7.22527C10.1927 7.89313 10.4371 8.56347 10.6839 9.2338C10.9619 9.98576 11.2398 10.7377 11.5154 11.4922C11.592 11.7024 11.64 11.9176 11.6208 12.1452C11.604 12.3406 11.513 12.4791 11.3309 12.5484C11.1967 12.5978 11.0601 12.63 10.9163 12.6201C10.6527 12.6028 10.4539 12.4989 10.3676 12.2144C10.2981 11.9844 10.1999 11.7618 10.1208 11.5317C10.0944 11.4551 10.0633 11.4254 9.97943 11.4278C9.67751 11.4353 9.3732 11.4303 9.07128 11.4303V11.4278Z" fill="#1A1A1A"/>
<path d="M4.47456 9.98086C4.47456 9.33279 4.47456 8.68224 4.47456 8.03417C4.47456 7.93275 4.45778 7.89318 4.34756 7.89812C4.05283 7.90802 3.7581 7.90307 3.46338 7.9006C3.07759 7.9006 2.79245 7.61861 2.79005 7.24263C2.78766 6.85923 3.0704 6.5624 3.45858 6.5624C4.57759 6.55993 5.6966 6.55993 6.818 6.5624C7.17024 6.5624 7.44819 6.81718 7.48413 7.15606C7.52008 7.48999 7.3164 7.79176 7.00011 7.88081C6.93541 7.9006 6.86832 7.9006 6.80123 7.9006C6.5065 7.9006 6.21177 7.90555 5.91704 7.9006C5.8212 7.9006 5.80203 7.93275 5.80203 8.02428C5.80442 9.31795 5.80203 10.6116 5.80203 11.9053C5.80203 12.2516 5.63669 12.4989 5.34676 12.5929C4.90586 12.7364 4.47695 12.4198 4.47456 11.9424C4.46976 11.2894 4.47456 10.6364 4.47456 9.98333V9.98086Z" fill="#1A1A1A"/>
<path d="M11.9721 9.56355C11.9721 8.7918 11.9721 8.02252 11.9721 7.25077C11.9721 6.88963 12.2237 6.61259 12.5807 6.56559C12.8994 6.52354 13.2157 6.74864 13.302 7.08009C13.3236 7.16419 13.3212 7.24829 13.3212 7.3324C13.3212 8.60133 13.3212 9.87027 13.3212 11.1417C13.3212 11.2505 13.3475 11.2777 13.4506 11.2753C13.8819 11.2678 14.3156 11.2678 14.7469 11.2753C15.0847 11.2802 15.3531 11.5424 15.3675 11.864C15.3819 12.2053 15.1231 12.5145 14.7876 12.5195C14.0424 12.5293 13.2948 12.5293 12.5472 12.5195C12.2237 12.5145 11.9697 12.2276 11.9697 11.8887C11.9697 11.1145 11.9697 10.3402 11.9697 9.56355H11.9721Z" fill="#1A1A1A"/>
<path d="M9.06888 8.26855C9.29412 8.93147 9.50977 9.5647 9.73022 10.2103H8.89396C8.76457 10.2103 8.63518 10.2054 8.50578 10.2103C8.42192 10.2152 8.40994 10.193 8.43629 10.1114C8.60642 9.62159 8.77415 9.12688 8.94188 8.63464C8.98022 8.52333 9.01617 8.41449 9.06649 8.26855H9.06888Z" fill="#909090"/>
</svg>
