<svg width="79" height="79" viewBox="0 0 79 79" fill="none" xmlns="http://www.w3.org/2000/svg">
<g id="fi_9817030">
<g id="Group">
<g id="Group_2">
<g id="Group_3">
<path id="Vector" d="M39.5 79L5.29211 59.25L39.5 31.9863L46.2288 57.7906L39.5 79Z" fill="#BBBDFF"/>
</g>
<path id="Vector_2" d="M73.7079 59.25L39.5 79V31.9863L73.7079 59.25Z" fill="#A7A9FF"/>
<path id="Vector_3" d="M5.29211 59.25V19.75L39.5 0L46.8983 18.9605L39.5 39.5L5.29211 59.25Z" fill="#A7A9FF"/>
<path id="Vector_4" d="M39.5 39.5V0L73.7079 19.75V59.25L39.5 39.5Z" fill="#9698FF"/>
</g>
<g id="Group_4">
<g id="Group_5">
<path id="Vector_5" d="M39.5 18.4258L21.2491 28.9629L39.5 43.5087L43.09 29.7415L39.5 18.4258Z" fill="#D3D4FF"/>
</g>
<path id="Vector_6" d="M57.7509 28.9629L39.5 18.4258V43.5087L57.7509 28.9629Z" fill="#E5E6FF"/>
<path id="Vector_7" d="M21.2491 28.9629V50.0371L39.5 60.5742L43.4471 50.4583L39.5 39.5L21.2491 28.9629Z" fill="#E5E6FF"/>
<path id="Vector_8" d="M39.5 39.5V60.5742L57.7509 50.0371V28.9629L39.5 39.5Z" fill="#BBBDFF"/>
</g>
</g>
</g>
</svg>
