<svg width="234" height="234" viewBox="0 0 234 234" fill="none" xmlns="http://www.w3.org/2000/svg">
<g clip-path="url(#clip0_2001_126)">
<path d="M117 234.42C181.617 234.42 234 181.943 234 117.21C234 52.4767 181.617 0 117 0C52.3827 0 0 52.4767 0 117.21C0 181.943 52.3827 234.42 117 234.42Z" fill="#008854"/>
<mask id="mask0_2001_126" style="mask-type:luminance" maskUnits="userSpaceOnUse" x="0" y="0" width="234" height="235">
<path d="M117 234.42C181.617 234.42 234 181.943 234 117.21C234 52.4767 181.617 0 117 0C52.3827 0 0 52.4767 0 117.21C0 181.943 52.3827 234.42 117 234.42Z" fill="white"/>
</mask>
<g mask="url(#mask0_2001_126)">
<path d="M180.489 212.765L158.739 218.104C158.739 218.104 163.139 228.399 159.885 235.385C159.885 235.385 169.548 243.053 178.032 233.539C178.032 233.539 184.191 228.482 180.489 212.781V212.765Z" fill="#008854"/>
<path d="M65.2324 212.765L86.9821 218.104C86.9821 218.104 85.2886 227.867 88.5593 234.853C88.5593 234.853 76.1902 243.053 67.6896 233.539C67.6896 233.539 61.5299 228.482 65.2324 212.781V212.765Z" fill="#008854"/>
<path d="M152.048 194.319C154.771 199.375 156.847 204.864 158.291 210.552C159.47 215.193 160.25 219.966 160.599 224.773C160.914 229.347 161.18 234.72 159.686 239.027C158.407 242.687 155.917 245.514 152.779 247.144V274.156C152.779 279.661 148.097 283.636 142.303 283.636H133.088C127.31 283.636 122.612 279.844 122.612 274.355C122.612 279.861 117.93 283.636 112.135 283.636H102.921C97.143 283.636 92.4444 279.644 92.4444 274.156V268.218C92.4444 260.45 92.4444 254.912 92.4444 247.144C89.3064 245.514 86.816 242.687 85.5376 239.027C84.0433 234.72 84.2924 229.347 84.6244 224.773C84.9565 219.966 85.7534 215.176 86.9322 210.552C88.3767 204.864 90.452 199.375 93.1749 194.319" fill="#008854"/>
<path d="M142.303 285H133.088C128.423 285 124.571 282.821 122.612 279.461C120.669 282.804 116.801 285 112.135 285H102.921C96.2796 285 91.0995 280.226 91.0995 274.156V247.942C87.945 246.08 85.5376 243.086 84.2758 239.476C82.7151 234.986 82.9475 229.48 83.2796 224.69C83.6283 219.85 84.4086 214.977 85.6206 210.22C87.1314 204.282 89.2732 198.71 91.9795 193.67C92.3281 193.005 93.1583 192.755 93.8224 193.121C94.4865 193.471 94.7355 194.302 94.3703 194.968C91.7636 199.808 89.7049 205.163 88.2438 210.885C87.065 215.492 86.3013 220.183 85.9859 224.873C85.6704 229.397 85.438 234.57 86.8326 238.578C87.9616 241.822 90.1864 244.433 93.0753 245.93C93.5235 246.163 93.8058 246.629 93.8058 247.144V274.156C93.8058 278.796 97.724 282.289 102.921 282.289H112.135C117.415 282.289 121.25 278.962 121.25 274.372V247.161C121.25 246.412 121.865 245.797 122.612 245.797C123.359 245.797 123.973 246.412 123.973 247.161V274.372C123.973 278.962 127.808 282.289 133.088 282.289H142.303C147.499 282.289 151.418 278.796 151.418 274.156V247.144C151.418 246.629 151.7 246.163 152.148 245.93C155.054 244.416 157.262 241.805 158.391 238.578C159.785 234.57 159.553 229.414 159.237 224.873C158.905 220.199 158.142 215.492 156.979 210.885C155.518 205.163 153.46 199.808 150.853 194.968C150.504 194.302 150.737 193.487 151.401 193.121C152.065 192.772 152.879 193.005 153.244 193.67C155.95 198.71 158.092 204.282 159.603 210.22C160.815 214.977 161.612 219.85 161.944 224.69C162.276 229.497 162.508 234.986 160.948 239.476C159.686 243.102 157.278 246.08 154.124 247.942V274.156C154.124 280.243 148.927 285 142.303 285Z" fill="#231F20"/>
<path d="M82.682 183.84C82.682 183.84 67.8059 200.09 65.2324 213.912L85.3882 218.037C85.3882 218.037 83.4291 228.066 84.5581 232.74H160.665C160.665 232.74 160.782 222.96 159.802 217.871L180.074 213.313C180.074 213.313 175.691 194.319 160.981 182.027L82.682 183.824V183.84Z" fill="#C7A892"/>
<path d="M68.5696 205.114L87.4304 209.837L85.3882 218.037L65.2324 213.896L68.5696 205.114Z" fill="#754C29"/>
<path d="M87.1149 211.201C87.0153 211.201 86.9157 211.201 86.7994 211.168L68.0715 206.744C67.3409 206.577 66.8927 205.845 67.0587 205.114C67.2247 204.382 67.9718 203.916 68.6858 204.099L87.4137 208.523C88.1443 208.69 88.5925 209.421 88.4265 210.153C88.2771 210.785 87.7292 211.201 87.0983 211.201H87.1149Z" fill="#231F20"/>
<path d="M85.4048 219.401C85.3051 219.401 85.1889 219.401 85.0893 219.368L65.3818 214.644C64.6512 214.461 64.203 213.729 64.369 212.997C64.5516 212.265 65.2821 211.816 66.0127 211.983L85.7202 216.706C86.4507 216.889 86.899 217.621 86.733 218.353C86.5836 218.985 86.0191 219.401 85.4048 219.401Z" fill="#231F20"/>
<path d="M176.886 205.812L158.158 209.837L159.852 218.104L180.074 213.313L176.886 205.812Z" fill="#754C29"/>
<path d="M159.802 219.235C159.188 219.235 158.623 218.802 158.474 218.17C158.308 217.438 158.773 216.706 159.503 216.54L179.775 211.983C180.506 211.816 181.236 212.282 181.402 213.014C181.568 213.746 181.103 214.478 180.373 214.644L160.101 219.201C160.001 219.218 159.902 219.235 159.802 219.235Z" fill="#231F20"/>
<path d="M141.439 232.94C141.439 232.94 137.753 238.961 122.18 238.961H123.774C108.2 238.961 104.515 232.94 104.515 232.94" fill="#70B276"/>
<path d="M123.774 240.341H122.18C122.08 240.341 121.981 240.341 121.898 240.308C107.304 239.842 103.502 233.921 103.352 233.655C102.954 233.006 103.17 232.175 103.801 231.792C104.448 231.393 105.278 231.593 105.66 232.241C105.677 232.275 109.213 237.414 122.977 237.614C136.741 237.414 140.261 232.275 140.294 232.225C140.692 231.593 141.539 231.41 142.17 231.809C142.801 232.208 143 233.023 142.602 233.655C142.436 233.921 138.65 239.826 124.056 240.308C123.973 240.325 123.874 240.341 123.774 240.341Z" fill="black"/>
<path d="M115.174 219.916H85.4048C84.6576 219.916 84.0433 219.301 84.0433 218.553C84.0433 217.804 84.6576 217.189 85.4048 217.189H115.174C115.921 217.189 116.535 217.804 116.535 218.553C116.535 219.301 115.921 219.916 115.174 219.916Z" fill="#231F20"/>
<path d="M159.42 219.916H130.614C129.867 219.916 129.253 219.301 129.253 218.553C129.253 217.804 129.867 217.189 130.614 217.189H159.42C160.167 217.189 160.782 217.804 160.782 218.553C160.782 219.301 160.167 219.916 159.42 219.916Z" fill="#231F20"/>
<path d="M158.158 211.201C157.544 211.201 156.979 210.785 156.83 210.153C156.664 209.421 157.112 208.69 157.843 208.523L176.571 204.099C177.301 203.916 178.032 204.382 178.198 205.114C178.364 205.845 177.916 206.577 177.185 206.744L158.457 211.168C158.358 211.201 158.241 211.201 158.142 211.201H158.158Z" fill="#231F20"/>
<path d="M102.456 186.169C102.456 186.169 105.428 198.843 113.796 202.752L122.745 194.535C122.745 194.535 111.986 194.369 112.6 187.184L102.456 186.152V186.169Z" fill="white"/>
<path d="M143.033 186.169C143.033 186.169 140.061 198.843 131.693 202.752L122.745 194.535C122.745 194.535 133.503 194.369 132.889 187.184L143.033 186.152V186.169Z" fill="white"/>
<path d="M113.796 204.132C113.596 204.132 113.397 204.082 113.198 203.999C104.913 199.957 101.294 187.267 101.144 186.718C100.945 186.003 101.36 185.238 102.091 185.038C102.821 184.838 103.568 185.254 103.768 185.986C103.801 186.102 106.972 197.18 113.613 201.138L121.848 194.086C122.413 193.604 123.276 193.67 123.757 194.236C124.239 194.801 124.172 195.666 123.608 196.149L114.659 203.8C114.41 204.016 114.094 204.132 113.779 204.132H113.796Z" fill="black"/>
<path d="M122.744 233.738C121.997 233.738 121.383 233.123 121.383 232.374V195.101C121.383 194.568 121.699 194.086 122.18 193.87C122.661 193.654 123.226 193.72 123.624 194.069L131.859 201.122C138.534 197.163 141.672 186.086 141.705 185.969C141.904 185.254 142.651 184.822 143.382 185.021C144.112 185.221 144.527 185.969 144.328 186.701C144.179 187.233 140.559 199.924 132.274 203.982C131.793 204.215 131.212 204.149 130.797 203.8L124.089 198.061V232.374C124.089 233.123 123.475 233.738 122.728 233.738H122.744Z" fill="black"/>
<path d="M132.607 187.217C132.789 187.666 132.889 188.132 132.889 188.614C132.889 191.907 128.34 194.568 122.745 194.568C117.149 194.568 112.6 191.907 112.6 188.614C112.6 188.215 112.667 187.816 112.799 187.433" fill="#008854"/>
<path d="M122.745 195.916C116.286 195.916 111.239 192.706 111.239 188.597C111.239 188.048 111.338 187.5 111.521 186.967C111.77 186.252 112.534 185.886 113.248 186.119C113.962 186.369 114.327 187.134 114.094 187.849C114.011 188.098 113.962 188.348 113.962 188.597C113.962 190.776 117.564 193.188 122.761 193.188C127.958 193.188 131.561 190.76 131.561 188.597C131.561 188.298 131.494 188.015 131.378 187.716C131.096 187.017 131.428 186.219 132.125 185.936C132.822 185.653 133.619 185.986 133.902 186.685C134.151 187.3 134.283 187.949 134.283 188.581C134.283 192.689 129.236 195.899 122.778 195.899L122.745 195.916Z" fill="black"/>
<path d="M128.473 215.476H117.349C116.157 215.476 115.19 216.444 115.19 217.638V219.451C115.19 220.645 116.157 221.613 117.349 221.613H128.473C129.665 221.613 130.631 220.645 130.631 219.451V217.638C130.631 216.444 129.665 215.476 128.473 215.476Z" fill="#A7A9AC"/>
<path d="M128.473 222.977H117.349C115.406 222.977 113.829 221.397 113.829 219.451V217.638C113.829 215.692 115.406 214.112 117.349 214.112H128.473C130.415 214.112 131.992 215.692 131.992 217.638V219.451C131.992 221.397 130.415 222.977 128.473 222.977ZM117.349 216.839C116.9 216.839 116.552 217.205 116.552 217.638V219.451C116.552 219.9 116.917 220.249 117.349 220.249H128.473C128.921 220.249 129.269 219.883 129.269 219.451V217.638C129.269 217.189 128.904 216.839 128.473 216.839H117.349Z" fill="#231F20"/>
<path d="M159.868 234.087H85.6206C84.8735 234.087 84.2592 233.472 84.2592 232.724C84.2592 231.975 84.8735 231.36 85.6206 231.36H159.868C160.615 231.36 161.23 231.975 161.23 232.724C161.23 233.472 160.615 234.087 159.868 234.087Z" fill="#231F20"/>
<path d="M142.303 285H133.088C128.423 285 124.571 282.821 122.612 279.461C120.669 282.804 116.801 285 112.135 285H102.921C96.2796 285 91.0995 280.226 91.0995 274.156V247.942C87.945 246.08 85.5376 243.086 84.2758 239.476C82.7151 234.986 82.9475 229.48 83.2796 224.69C83.6283 219.85 84.4086 214.977 85.6206 210.22C87.1314 204.282 89.2732 198.71 91.9795 193.67C92.3281 193.005 93.1583 192.755 93.8224 193.121C94.4865 193.471 94.7355 194.302 94.3703 194.968C91.7636 199.808 89.7049 205.163 88.2438 210.885C87.065 215.492 86.3013 220.183 85.9859 224.873C85.6704 229.397 85.438 234.57 86.8326 238.578C87.9616 241.822 90.1864 244.433 93.0753 245.93C93.5235 246.163 93.8058 246.629 93.8058 247.144V274.156C93.8058 278.796 97.724 282.289 102.921 282.289H112.135C117.415 282.289 121.25 278.962 121.25 274.372V247.161C121.25 246.412 121.865 245.797 122.612 245.797C123.359 245.797 123.973 246.412 123.973 247.161V274.372C123.973 278.962 127.808 282.289 133.088 282.289H142.303C147.499 282.289 151.418 278.796 151.418 274.156V247.144C151.418 246.629 151.7 246.163 152.148 245.93C155.054 244.416 157.262 241.805 158.391 238.578C159.785 234.57 159.553 229.414 159.237 224.873C158.905 220.199 158.142 215.492 156.979 210.885C155.518 205.163 153.46 199.808 150.853 194.968C150.504 194.302 150.737 193.487 151.401 193.121C152.065 192.772 152.879 193.005 153.244 193.67C155.95 198.71 158.092 204.282 159.603 210.22C160.815 214.977 161.612 219.85 161.944 224.69C162.276 229.497 162.508 234.986 160.948 239.476C159.686 243.102 157.278 246.08 154.124 247.942V274.156C154.124 280.243 148.927 285 142.303 285Z" fill="#231F20"/>
<path d="M167.871 239.41C165.48 239.41 162.957 238.911 160.367 237.896C159.669 237.63 159.321 236.832 159.586 236.133C159.852 235.435 160.649 235.085 161.346 235.352C164.301 236.499 171.756 238.545 177.069 232.607C183.976 224.873 179.111 211.683 175.608 204.515C173.748 200.706 171.358 196.747 168.103 192.09C164.932 187.549 159.819 181.878 154.888 179.433L89.4725 180.514C84.5083 182.959 80.7229 187.716 77.6845 192.09C74.4304 196.747 72.0396 200.706 70.1801 204.515C66.6769 211.683 61.8289 224.873 68.719 232.607C73.8991 238.412 81.1877 236.549 84.0932 235.485C84.7905 235.235 85.5709 235.584 85.8365 236.283C86.1022 236.982 85.7369 237.763 85.0396 238.029C77.8174 240.691 71.143 239.377 66.7101 234.42C58.7573 225.505 63.954 211.101 67.7561 203.317C69.682 199.375 72.1392 195.3 75.4764 190.527C78.7803 185.803 82.931 180.597 88.5926 177.936C88.7586 177.853 88.9578 177.803 89.1405 177.803L155.186 176.705C155.402 176.722 155.602 176.755 155.784 176.838C161.28 179.433 166.908 185.603 170.345 190.527C173.682 195.3 176.139 199.375 178.065 203.317C181.867 211.101 187.064 225.505 179.111 234.42C176.172 237.713 172.271 239.393 167.888 239.393L167.871 239.41Z" fill="#231F20"/>
<path d="M180.954 93.0927C182.515 81.0673 178.58 67.7945 165.845 62.8047C157.71 59.6112 149.292 61.1747 143.515 66.1811C140.045 69.1916 134.964 69.175 131.478 66.1645C124.554 60.1933 113.978 58.8461 105.179 64.3681C101.011 66.9795 97.558 70.805 95.9475 75.3457C94.5529 79.3042 93.839 83.6786 93.8058 87.9698C93.7892 90.7641 91.7802 93.1426 89.0076 93.5085C84.3754 94.0906 78.1991 95.0387 77.6346 95.1551C66.793 97.0845 55.8518 100.028 46.1557 105.318C40.9258 108.162 36.2771 112.004 32.8237 116.728C26.8301 124.944 24.5389 140.096 28.0255 149.644C31.9603 160.422 39.9795 168.987 50.3728 174.626C59.4712 179.549 69.5823 181.828 79.7432 183.391C91.7138 185.237 103.817 186.335 115.937 186.485C130.515 186.651 145.291 185.487 159.403 181.695C174.031 177.753 190.75 168.488 197.656 155.016C202.953 144.704 204.447 132.895 200.994 121.767C199.466 116.811 197.059 112.137 194.137 107.846C192.377 105.251 190.418 102.789 188.309 100.461C187.147 99.1802 185.951 97.9161 184.723 96.702C184.241 96.2362 180.854 93.6249 180.921 93.1426L180.954 93.0927Z" fill="#008854"/>
<path d="M118.693 187.832C117.78 187.832 116.884 187.832 115.954 187.832C104.249 187.699 92.0127 186.651 79.5772 184.722C70.3461 183.291 59.5708 181.129 49.7586 175.807C38.6679 169.802 30.7317 160.904 26.7803 150.093C23.1775 140.213 25.4521 124.562 31.7445 115.913C35.1481 111.239 39.9131 107.164 45.5248 104.104C54.1251 99.4298 64.2528 96.1531 77.4188 93.7913C78.0664 93.6749 84.2426 92.7268 88.8582 92.1447C90.9335 91.8786 92.461 90.1155 92.461 87.9533C92.4942 83.4458 93.2579 78.9217 94.6858 74.88C96.2962 70.306 99.7828 66.1479 104.465 63.2039C113.364 57.632 124.571 58.3971 132.374 65.1167C135.363 67.6947 139.679 67.7113 142.635 65.1333C148.944 59.6445 158.042 58.264 166.343 61.5074C180.24 66.9462 183.727 81.1172 182.365 92.7434C182.88 93.2757 184.142 94.3235 184.723 94.7893C185.204 95.1884 185.586 95.5045 185.736 95.6542C187.014 96.9182 188.243 98.1989 189.372 99.463C191.596 101.941 193.589 104.469 195.299 106.998C198.47 111.655 200.844 116.462 202.338 121.285C205.775 132.379 204.563 144.554 198.918 155.565C191.53 169.969 173.865 179.15 159.802 182.942C147.682 186.202 134.217 187.799 118.71 187.799L118.693 187.832ZM117.216 62.2392C113.331 62.2392 109.412 63.3203 105.909 65.5325C101.725 68.1604 98.6538 71.803 97.2426 75.7948C95.9144 79.5538 95.2005 83.7618 95.1839 87.9699C95.1673 91.4627 92.5938 94.4067 89.2068 94.8392C84.5581 95.4379 78.3818 96.386 77.9003 96.4692C65.0331 98.7645 55.1545 101.941 46.8199 106.482C41.5734 109.343 37.1072 113.152 33.9361 117.493C28.1915 125.36 26.0498 140.146 29.3205 149.128C33.0395 159.307 40.544 167.69 51.037 173.378C60.484 178.501 70.9604 180.614 79.9757 181.994C92.2784 183.89 104.398 184.921 115.971 185.071C132.391 185.287 146.487 183.707 159.071 180.314C172.57 176.672 189.488 167.94 196.478 154.334C201.79 143.972 202.953 132.512 199.732 122.1C198.321 117.543 196.063 112.985 193.057 108.544C191.414 106.116 189.488 103.688 187.346 101.293C186.25 100.062 185.055 98.831 183.826 97.6002C183.71 97.4837 183.395 97.2343 182.996 96.9016C180.14 94.5398 179.493 93.8911 179.626 92.8931C181.02 82.1984 177.999 68.9921 165.364 64.0522C157.992 61.1747 149.973 62.3723 144.428 67.1957C140.443 70.6553 134.632 70.6553 130.614 67.1957C126.796 63.9025 122.064 62.2226 117.249 62.2226L117.216 62.2392Z" fill="black"/>
<path d="M98.4546 142.508C79.4112 142.508 66.8429 136.587 63.4227 134.757L56.8314 141.078C55.3869 142.458 53.0791 142.492 51.6015 141.161L45.226 135.423L39.166 141.211C37.7215 142.591 35.4304 142.625 33.9361 141.294L26.6143 134.708C26.0498 134.209 26.0166 133.344 26.5146 132.778C27.0127 132.213 27.8761 132.179 28.4406 132.678L35.7624 139.265C36.1941 139.647 36.8914 139.647 37.3065 139.248L44.263 132.579C44.7777 132.08 45.5747 132.08 46.106 132.545L53.4278 139.132C53.8595 139.514 54.5568 139.514 54.9719 139.115L62.2937 132.096C62.742 131.664 63.4227 131.597 63.954 131.93C64.2694 132.129 96.6449 151.656 144.793 128.454C145.474 128.121 146.287 128.404 146.603 129.086C146.935 129.768 146.636 130.583 145.972 130.899C127.676 139.731 111.538 142.508 98.4712 142.508H98.4546Z" fill="black"/>
<path d="M150.421 134.807C150.239 134.807 150.056 134.774 149.89 134.691C148.728 134.192 147.632 133.56 146.619 132.828C145.955 132.346 144.992 131.581 144.345 130.516C143.017 128.287 143.531 125.61 143.88 123.83C144.029 123.098 144.743 122.616 145.474 122.749C146.204 122.898 146.686 123.614 146.553 124.345C146.204 126.158 145.955 127.888 146.686 129.119C146.968 129.601 147.466 130.084 148.213 130.616C149.077 131.231 150.006 131.764 150.969 132.179C151.65 132.479 151.982 133.277 151.683 133.976C151.467 134.491 150.969 134.791 150.438 134.791L150.421 134.807Z" fill="black"/>
<path d="M40.8594 117.559C40.0127 117.975 39.1328 118.408 38.4852 119.106C37.8211 119.805 37.4227 120.869 37.7049 121.817C38.037 122.965 39.3486 123.597 40.461 123.331C41.5734 123.065 42.4367 122.067 42.8518 120.952C43.134 120.171 43.2336 119.273 42.9016 118.507C42.5695 117.759 41.6896 117.243 40.9591 117.526" fill="#020100"/>
<path d="M56.1838 117.559C57.0306 117.975 57.8939 118.408 58.558 119.106C59.2221 119.805 59.6206 120.869 59.3384 121.817C59.0063 122.965 57.6947 123.597 56.5823 123.331C55.4699 123.065 54.6066 122.067 54.1915 120.952C53.9092 120.171 53.8096 119.273 54.1417 118.507C54.4737 117.759 55.3537 117.243 56.0842 117.526" fill="#020100"/>
<path d="M116.651 86.3732C116.651 89.6499 114.46 92.2945 111.77 92.2945C109.08 92.2945 106.889 89.6499 106.889 86.3732C106.889 83.0966 109.08 80.452 111.77 80.452C114.46 80.452 116.651 83.0966 116.651 86.3732Z" fill="#020100"/>
<path d="M155.917 86.3732C155.917 89.6499 153.725 92.2945 151.036 92.2945C148.346 92.2945 146.154 89.6499 146.154 86.3732C146.154 83.0966 148.346 80.452 151.036 80.452C153.725 80.452 155.917 83.0966 155.917 86.3732Z" fill="#020100"/>
<path d="M164.086 132.861C163.903 132.861 163.737 132.861 163.554 132.861C160.367 132.745 157.494 131.597 155.436 129.635C152.862 127.156 151.55 123.165 152.132 119.489C152.713 115.796 155.153 112.47 158.358 111.039C159.038 110.74 159.852 111.039 160.151 111.721C160.45 112.403 160.151 113.218 159.47 113.518C157.079 114.582 155.253 117.094 154.821 119.905C154.39 122.732 155.369 125.776 157.328 127.672C158.889 129.169 161.13 130.05 163.654 130.15C164.65 130.184 165.48 130.1 166.211 129.901C168.269 129.319 170.013 127.539 170.627 125.343C171.275 123.098 170.693 120.52 169.199 118.94C167.738 117.393 165.464 116.894 163.654 117.726C162.309 118.341 161.446 120.853 161.994 122.516C162.226 123.231 162.874 123.797 163.554 123.896C164.235 123.996 164.999 123.68 165.497 123.065C165.978 122.483 166.825 122.399 167.406 122.882C167.987 123.364 168.07 124.212 167.589 124.795C166.476 126.142 164.766 126.824 163.123 126.574C161.413 126.308 159.951 125.044 159.387 123.348C158.507 120.67 159.669 116.545 162.492 115.231C165.347 113.917 168.917 114.665 171.158 117.06C173.284 119.322 174.114 122.948 173.217 126.075C172.337 129.136 169.88 131.664 166.925 132.495C166.061 132.745 165.115 132.861 164.069 132.861H164.086Z" fill="#70B276"/>
<path d="M177.965 61.4907C178.397 61.6903 178.812 61.9065 179.211 62.1228C180.174 62.655 181.12 63.2538 181.983 63.9025C183.062 64.7008 184.059 65.6156 184.856 66.6302C185.669 67.6947 186.25 68.8923 186.366 70.1064C186.466 71.2707 186.217 72.4849 185.304 73.3165C184.905 73.6658 184.457 73.9818 183.992 74.248C183.312 74.6305 182.581 74.9465 181.801 75.196C180.771 75.5287 179.692 75.7449 178.58 75.878C177.135 76.0443 175.658 76.0775 174.18 76.011C172.254 75.9279 170.328 75.6617 168.435 75.3124C166.227 74.8966 164.052 74.3478 161.894 73.7157C159.736 73.0837 157.61 72.3518 155.535 71.5036C153.742 70.7717 151.982 69.9401 150.322 68.9754C149.043 68.2269 147.815 67.412 146.686 66.4805C145.822 65.7653 145.042 65.0002 144.345 64.1686C143.83 63.5366 143.382 62.8879 143.016 62.1893C142.767 61.707 142.552 61.208 142.419 60.6924C142.087 59.5115 142.535 58.3305 143.249 57.4157C144.013 56.4511 145.142 55.7525 146.403 55.3034C147.615 54.871 148.944 54.6547 150.289 54.5716C151.384 54.4884 152.48 54.505 153.592 54.5716C154.057 54.6048 154.522 54.6381 154.987 54.7046" fill="#C7A892"/>
<path d="M175.674 77.4082C175.176 77.4082 174.645 77.4082 174.114 77.3749C172.254 77.2917 170.312 77.0423 168.17 76.6597C166.045 76.2605 163.87 75.7283 161.495 75.0297C159.121 74.3311 156.996 73.5827 155.004 72.7677C152.995 71.9527 151.235 71.0878 149.624 70.1563C148.197 69.3247 146.918 68.4432 145.806 67.5284C144.843 66.73 143.979 65.8818 143.282 65.0335C142.684 64.3017 142.186 63.5532 141.805 62.8214C141.489 62.2226 141.257 61.6238 141.107 61.0583C140.692 59.578 141.074 57.9979 142.186 56.5841C143.05 55.4864 144.361 54.6048 145.955 54.0393C147.184 53.6069 148.578 53.3408 150.206 53.2243C151.318 53.1578 152.497 53.1578 153.692 53.2243C154.19 53.2576 154.688 53.3075 155.186 53.374C155.933 53.4905 156.448 54.1724 156.332 54.9209C156.216 55.6693 155.535 56.1849 154.788 56.0685C154.356 56.002 153.925 55.9687 153.493 55.9355C152.414 55.8689 151.368 55.8523 150.388 55.9355C149.01 56.0353 147.865 56.2515 146.868 56.6008C145.756 56.9999 144.876 57.5654 144.328 58.264C144.013 58.6798 143.498 59.4948 143.73 60.3265C143.847 60.7257 144.013 61.1415 144.229 61.5573C144.527 62.1394 144.926 62.7216 145.391 63.3037C145.988 64.0189 146.702 64.7341 147.549 65.4327C148.529 66.2477 149.691 67.046 151.002 67.7945C152.513 68.676 154.157 69.4744 156.05 70.2395C157.959 71.0212 159.985 71.7364 162.276 72.4017C164.55 73.0671 166.642 73.5827 168.684 73.9652C170.693 74.3478 172.52 74.564 174.246 74.6472C175.774 74.7137 177.135 74.6804 178.43 74.5307C179.509 74.3977 180.506 74.1981 181.386 73.9153C182.1 73.6825 182.747 73.3997 183.312 73.0837C183.727 72.8508 184.092 72.5847 184.391 72.3186C185.038 71.7364 185.055 70.7718 185.005 70.2561C184.922 69.3746 184.49 68.4099 183.776 67.4785C183.129 66.6469 182.249 65.8152 181.17 65.0002C180.373 64.4015 179.493 63.8359 178.547 63.3203C178.165 63.1207 177.783 62.9045 177.384 62.7216C176.704 62.4055 176.405 61.6072 176.72 60.9252C177.036 60.2433 177.833 59.9439 178.513 60.2599C178.962 60.4762 179.41 60.709 179.842 60.9419C180.904 61.524 181.884 62.1561 182.78 62.8214C184.075 63.7861 185.105 64.7674 185.902 65.7986C186.964 67.1625 187.562 68.5762 187.695 69.99C187.861 71.7697 187.329 73.3165 186.184 74.3311C185.736 74.7303 185.221 75.0962 184.64 75.4289C183.909 75.8447 183.096 76.194 182.199 76.4934C181.153 76.826 179.991 77.0755 178.729 77.2252C177.75 77.3416 176.737 77.3915 175.658 77.3915L175.674 77.4082Z" fill="black"/>
<path d="M167.821 53.557L170.859 52.3429C171.806 51.9936 172.902 51.9603 173.914 52.3928C177.285 53.8232 178.048 57.6819 178.829 60.4097C178.962 60.8754 179.094 61.3577 179.211 61.8235C179.211 61.8235 175.226 67.5617 164.55 64.7009C154.041 61.3245 153.792 54.3221 153.792 54.3221C154.14 53.9895 154.506 53.6568 154.888 53.3408C157.029 51.4613 159.752 48.6338 163.355 49.2658C164.434 49.4488 165.331 50.0808 165.945 50.8958L167.838 53.5737" fill="#C7A892"/>
<path d="M170.179 66.8631C168.435 66.8631 166.46 66.6136 164.185 66.0148C152.829 62.3723 152.43 54.7046 152.414 54.372C152.414 53.9728 152.547 53.6069 152.845 53.3408C153.211 52.9915 153.592 52.6588 153.974 52.3262L154.589 51.7773C156.73 49.8645 159.653 47.2366 163.571 47.9352C164.932 48.168 166.161 48.9331 167.008 50.0808L168.303 51.9104L170.345 51.0954C171.723 50.5798 173.151 50.613 174.429 51.1453C178.098 52.6921 179.144 56.4843 179.908 59.262L180.124 60.0437C180.257 60.5261 180.389 61.025 180.522 61.5074C180.622 61.8899 180.539 62.2891 180.323 62.6218C180.174 62.838 177.251 66.8964 170.179 66.8964V66.8631ZM155.22 54.8377C155.552 56.4178 157.179 60.892 164.965 63.4035C172.802 65.5158 176.571 62.6384 177.716 61.4741C177.65 61.2413 177.584 61.0084 177.517 60.7756L177.285 59.9606C176.604 57.4823 175.824 54.6714 173.366 53.6402C172.736 53.374 172.005 53.3574 171.308 53.6235L168.303 54.8377C167.721 55.0706 167.057 54.871 166.692 54.3554L164.799 51.6775C164.384 51.112 163.753 50.7294 163.073 50.613C160.449 50.1639 158.274 52.0933 156.365 53.8065L155.734 54.372C155.552 54.5383 155.369 54.688 155.186 54.8543L155.22 54.8377Z" fill="black"/>
<path d="M155.867 52.3428C155.867 52.3428 156.349 58.3139 165.48 61.5406C165.48 61.5406 172.271 64.1852 178.713 59.4948L179.26 61.6238C179.26 61.6238 174.728 67.6947 164.683 64.7341C164.683 64.7341 153.559 60.2433 153.825 54.1225L155.851 52.3262L155.867 52.3428Z" fill="#754C29"/>
<path d="M170.063 63.154C168.635 63.154 167.008 62.9544 165.165 62.4388C154.937 59.2121 155.851 51.6276 155.867 51.5444C155.967 50.796 156.647 50.2804 157.395 50.3801C158.142 50.4799 158.656 51.1619 158.557 51.9103C158.54 52.1099 158.026 57.316 165.928 59.8275C173.914 62.0064 176.488 57.5322 176.587 57.3492C176.936 56.7005 177.766 56.4511 178.43 56.8003C179.078 57.1496 179.344 57.9646 178.995 58.6299C178.879 58.8462 176.538 63.1706 170.063 63.1706V63.154Z" fill="black"/>
<path d="M169.963 67.6449C168.22 67.6449 166.244 67.3954 163.969 66.7966C152.613 63.154 152.214 55.4864 152.198 55.1538C152.198 54.7546 152.347 54.3887 152.63 54.1059C152.746 53.9895 152.879 53.74 153.045 53.5071C153.343 53.0414 153.642 52.609 153.974 52.3096L154.589 51.7607C156.73 49.8479 159.653 47.22 163.571 47.9186C164.932 48.1514 166.161 48.9165 167.008 50.0642L168.303 51.8938L170.345 51.0788C171.723 50.5631 173.151 50.5964 174.429 51.1287C178.098 52.6755 179.144 56.4677 179.908 59.2454L180.124 60.0271C180.24 60.4429 180.257 60.9585 180.273 61.5241C180.273 61.8234 180.273 62.1062 180.306 62.2892C180.373 62.6551 180.306 63.0875 180.107 63.3869C179.958 63.6031 177.036 67.6615 169.963 67.6615V67.6449ZM154.987 55.503C155.269 56.9667 156.764 61.6072 164.75 64.1853C172.769 66.3309 176.538 63.2705 177.584 62.1727C177.584 61.9898 177.584 61.7902 177.567 61.5906C177.567 61.2746 177.567 60.9585 177.517 60.7589L177.301 59.9606C176.621 57.4823 175.84 54.6714 173.383 53.6402C172.752 53.3741 172.022 53.3574 171.324 53.6236L169.764 54.2556L170.411 55.4032C170.776 56.0519 170.561 56.8835 169.896 57.2661C169.249 57.632 168.419 57.3992 168.037 56.7505L166.642 54.3055L164.799 51.6942C164.384 51.1287 163.753 50.7461 163.073 50.6297C160.449 50.1806 158.275 52.11 156.365 53.8231L155.734 54.3887C155.618 54.5051 155.452 54.7712 155.303 55.0207C155.186 55.187 155.07 55.37 154.971 55.5197L154.987 55.503Z" fill="black"/>
</g>
</g>
<defs>
<clipPath id="clip0_2001_126">
<rect width="234" height="234" fill="white"/>
</clipPath>
</defs>
</svg>
