<svg width="234" height="233" viewBox="0 0 234 233" fill="none" xmlns="http://www.w3.org/2000/svg">
<g clip-path="url(#clip0_2001_51)">
<path d="M117 234.109C181.617 234.109 234 181.702 234 117.054C234 52.407 181.617 0 117 0C52.3827 0 0 52.407 0 117.054C0 181.702 52.3827 234.109 117 234.109Z" fill="#F3E1C5"/>
<mask id="mask0_2001_51" style="mask-type:luminance" maskUnits="userSpaceOnUse" x="0" y="0" width="234" height="235">
<path d="M117 234.109C181.617 234.109 234 181.702 234 117.054C234 52.407 181.617 0 117 0C52.3827 0 0 52.407 0 117.054C0 181.702 52.3827 234.109 117 234.109Z" fill="white"/>
</mask>
<g mask="url(#mask0_2001_51)">
<path d="M60.0192 225.305L81.6526 230.737C81.6526 230.737 79.9757 240.67 83.2133 247.779C83.2133 247.779 70.9106 256.118 62.4764 246.434C62.4764 246.434 56.3665 241.285 60.0192 225.305Z" fill="#9D7561"/>
<path d="M174.579 225.305L152.945 230.737C152.945 230.737 154.622 240.67 151.384 247.779C151.384 247.779 163.687 256.118 172.121 246.434C172.121 246.434 178.231 241.285 174.579 225.305Z" fill="#9D7561"/>
<path d="M155.502 194.061C155.502 194.061 170.943 210.837 174.662 226.053L153.46 230.787L152.978 240.172H81.2044V230.787L60.0026 226.053C63.7216 210.821 79.1622 194.061 79.1622 194.061H155.502Z" fill="#C7A892"/>
<path d="M135.579 286H126.928C122.595 286 118.976 284.106 117.1 281.2C115.223 284.106 111.604 286 107.271 286H98.6207C92.3282 286 87.4138 281.731 87.4138 276.299V253.46C84.4585 251.799 82.2005 249.174 81.0217 245.985C79.5441 241.999 79.7599 237.148 80.0754 232.913C80.3908 228.66 81.1379 224.375 82.2835 220.189C83.7114 214.973 85.7203 210.073 88.2771 205.638C88.659 204.974 89.5058 204.741 90.1699 205.123C90.834 205.505 91.0664 206.353 90.6845 207.017C88.2439 211.253 86.318 215.92 84.9566 220.92C83.8608 224.94 83.1469 229.043 82.8314 233.129C82.5326 237.082 82.3167 241.567 83.6118 245.022C84.6577 247.812 86.7165 250.071 89.4061 251.367C89.8876 251.6 90.1865 252.081 90.1865 252.613V276.299C90.1865 280.253 93.8225 283.226 98.6373 283.226H107.287C112.102 283.226 115.738 280.319 115.738 276.466V252.613C115.738 251.849 116.352 251.234 117.116 251.234C117.88 251.234 118.494 251.849 118.494 252.613V276.466C118.494 280.319 122.13 283.226 126.945 283.226H135.595C140.41 283.226 144.046 280.253 144.046 276.299V252.613C144.046 252.081 144.345 251.6 144.826 251.367C147.516 250.055 149.575 247.812 150.621 245.022C151.916 241.567 151.7 237.065 151.401 233.129C151.086 229.043 150.372 224.94 149.276 220.92C147.914 215.92 145.989 211.253 143.548 207.017C143.166 206.353 143.398 205.505 144.063 205.123C144.727 204.741 145.573 204.974 145.955 205.638C148.512 210.073 150.521 214.973 151.949 220.189C153.095 224.375 153.842 228.66 154.157 232.913C154.473 237.148 154.705 241.999 153.211 245.985C152.015 249.174 149.774 251.799 146.819 253.46V276.299C146.819 281.748 141.888 286 135.612 286H135.579Z" fill="#231F20"/>
<path d="M162.11 252.397C157.909 252.397 153.692 250.819 150.388 248.726C149.741 248.311 149.558 247.464 149.957 246.816C150.372 246.168 151.218 245.985 151.866 246.384C157.361 249.872 165.713 251.733 171.142 245.504C177.999 237.63 173.184 224.209 169.697 216.9C167.838 213.013 165.464 208.994 162.226 204.243C159.072 199.625 154.008 193.862 149.11 191.387L84.1098 192.483C79.1788 194.974 75.4432 199.808 72.4048 204.243C69.1673 208.977 66.7931 212.997 64.9336 216.9C61.447 224.209 56.6156 237.63 63.4891 245.504C68.802 251.6 76.7714 250.055 82.4661 246.567C83.1137 246.168 83.977 246.367 84.3755 247.032C84.7739 247.68 84.5747 248.543 83.9106 248.942C77.5683 252.829 67.8723 254.739 61.4138 247.331C53.5108 238.261 58.6743 223.628 62.4432 215.704C64.3691 211.685 66.8097 207.549 70.1137 202.682C73.401 197.865 77.5185 192.583 83.1635 189.858C83.3461 189.775 83.5453 189.726 83.7446 189.726L149.392 188.613C149.591 188.563 149.824 188.662 150.023 188.745C155.485 191.387 161.097 197.682 164.517 202.682C167.838 207.549 170.278 211.685 172.188 215.704C175.973 223.628 181.137 238.261 173.217 247.331C170.029 251.002 166.061 252.397 162.093 252.397H162.11Z" fill="#231F20"/>
<path d="M109.645 232.581H81.9847C81.2209 232.581 80.6066 231.966 80.6066 231.202C80.6066 230.438 81.2209 229.823 81.9847 229.823H109.645C110.409 229.823 111.023 230.438 111.023 231.202C111.023 231.966 110.409 232.581 109.645 232.581Z" fill="#231F20"/>
<path d="M152.414 232.581H125.003C124.239 232.581 123.625 231.966 123.625 231.202C123.625 230.438 124.239 229.823 125.003 229.823H152.414C153.178 229.823 153.792 230.438 153.792 231.202C153.792 231.966 153.178 232.581 152.414 232.581Z" fill="#231F20"/>
<path d="M63.3397 217.515L83.0307 223.03L81.2209 231.185L60.0192 226.451L63.3397 217.515Z" fill="#754C29"/>
<path d="M171.009 218.229L151.052 223.03L152.962 230.737L174.163 225.853L171.009 218.229Z" fill="#754C29"/>
<path d="M83.0306 224.01C82.931 224.01 82.8148 224.01 82.6986 223.976L62.8084 219.176C62.0613 218.993 61.613 218.246 61.779 217.498C61.9617 216.751 62.7088 216.302 63.4559 216.468L83.3461 221.269C84.0932 221.452 84.5415 222.199 84.3755 222.947C84.226 223.578 83.6615 224.01 83.0306 224.01Z" fill="#231F20"/>
<path d="M81.6526 232.116C81.553 232.116 81.4534 232.116 81.3372 232.082L60.152 227.199C59.4048 227.033 58.94 226.285 59.106 225.538C59.272 224.79 60.0192 224.325 60.7663 224.491L81.9515 229.375C82.6986 229.541 83.1635 230.288 82.9974 231.036C82.848 231.684 82.2835 232.116 81.6526 232.116Z" fill="#231F20"/>
<path d="M162.11 252.397C157.909 252.397 153.692 250.819 150.388 248.726C149.741 248.311 149.558 247.464 149.957 246.816C150.372 246.168 151.218 245.985 151.866 246.384C157.361 249.872 165.713 251.733 171.142 245.504C177.999 237.63 173.184 224.209 169.697 216.9C167.838 213.013 165.464 208.994 162.226 204.243C159.072 199.625 154.008 193.862 149.11 191.387L84.1098 192.483C79.1788 194.974 75.4432 199.808 72.4048 204.243C69.1673 208.977 66.7931 212.997 64.9336 216.9C61.447 224.209 56.6156 237.63 63.4891 245.504C68.802 251.6 76.7714 250.055 82.4661 246.567C83.1137 246.168 83.977 246.367 84.3755 247.032C84.7739 247.68 84.5747 248.543 83.9106 248.942C77.5683 252.829 67.8723 254.739 61.4138 247.331C53.5108 238.261 58.6743 223.628 62.4432 215.704C64.3691 211.685 66.8097 207.549 70.1137 202.682C73.401 197.865 77.5185 192.583 83.1635 189.858C83.3461 189.775 83.5453 189.726 83.7446 189.726L149.392 188.613C149.591 188.563 149.824 188.662 150.023 188.745C155.485 191.387 161.097 197.682 164.517 202.682C167.838 207.549 170.278 211.685 172.188 215.704C175.973 223.628 181.137 238.261 173.217 247.331C170.029 251.002 166.061 252.397 162.093 252.397H162.11Z" fill="#231F20"/>
<path d="M151.401 223.943C150.77 223.943 150.206 223.511 150.056 222.88C149.874 222.133 150.338 221.385 151.086 221.202L170.693 216.468C171.441 216.286 172.188 216.751 172.37 217.498C172.553 218.246 172.088 218.993 171.341 219.176L151.733 223.91C151.617 223.943 151.517 223.943 151.401 223.943Z" fill="#231F20"/>
<path d="M152.978 232.116C152.347 232.116 151.783 231.684 151.633 231.036C151.467 230.288 151.932 229.541 152.679 229.375L173.865 224.491C174.612 224.309 175.359 224.79 175.525 225.538C175.691 226.285 175.226 227.033 174.479 227.199L153.294 232.082C153.194 232.099 153.078 232.116 152.978 232.116Z" fill="#231F20"/>
<path d="M135.579 285.801H126.928C122.595 285.801 118.976 283.907 117.1 281C115.223 283.907 111.604 285.801 107.271 285.801H98.6207C92.3282 285.801 87.4138 281.532 87.4138 276.1V253.261C84.4585 251.6 82.2005 248.975 81.0217 245.786C79.5441 241.799 79.7599 236.949 80.0754 232.714C80.3908 228.461 81.1379 224.176 82.2835 219.99C83.7114 214.774 85.7203 209.874 88.2771 205.439C88.659 204.775 89.5058 204.542 90.1699 204.924C90.834 205.306 91.0664 206.153 90.6845 206.818C88.2439 211.053 86.318 215.721 84.9566 220.721C83.8608 224.74 83.1469 228.843 82.8314 232.929C82.5326 236.883 82.3167 241.368 83.6118 244.823C84.6577 247.613 86.7165 249.872 89.4061 251.168C89.8876 251.4 90.1865 251.882 90.1865 252.414V276.1C90.1865 280.054 93.8225 283.027 98.6373 283.027H107.287C112.102 283.027 115.738 280.12 115.738 276.266V252.414C115.738 251.65 116.352 251.035 117.116 251.035C117.88 251.035 118.494 251.65 118.494 252.414V276.266C118.494 280.12 122.13 283.027 126.945 283.027H135.595C140.41 283.027 144.046 280.054 144.046 276.1V252.414C144.046 251.882 144.345 251.4 144.826 251.168C147.516 249.856 149.575 247.613 150.621 244.823C151.916 241.368 151.7 236.866 151.401 232.929C151.086 228.843 150.372 224.74 149.276 220.721C147.914 215.721 145.989 211.053 143.548 206.818C143.166 206.153 143.398 205.306 144.063 204.924C144.727 204.542 145.573 204.775 145.955 205.439C148.512 209.874 150.521 214.774 151.949 219.99C153.095 224.176 153.842 228.461 154.157 232.714C154.473 236.949 154.705 241.799 153.211 245.786C152.015 248.975 149.774 251.6 146.819 253.261V276.1C146.819 281.532 141.888 285.801 135.612 285.801H135.579Z" fill="#231F20"/>
<path d="M97.0103 198.247C97.0103 198.247 99.9656 211.153 108.284 215.123L117.183 206.768C117.183 206.768 106.49 206.585 107.105 199.293L97.0269 198.247H97.0103Z" fill="white"/>
<path d="M137.355 198.247C137.355 198.247 134.4 211.153 126.082 215.123L117.183 206.768C117.183 206.768 127.875 206.585 127.261 199.293L137.338 198.247H137.355Z" fill="white"/>
<path d="M108.284 216.518C108.068 216.518 107.868 216.468 107.669 216.369C99.4176 212.249 95.8314 199.343 95.682 198.795C95.4828 198.064 95.9144 197.3 96.645 197.1C97.3755 196.901 98.1392 197.333 98.3385 198.064C98.3717 198.18 101.51 209.425 108.084 213.445L116.236 206.303C116.817 205.804 117.681 205.854 118.195 206.436C118.694 207.017 118.644 207.881 118.063 208.396L109.18 216.186C108.914 216.419 108.599 216.535 108.267 216.535L108.284 216.518Z" fill="black"/>
<path d="M117.183 241.035C116.419 241.035 115.805 240.421 115.805 239.657V207.349C115.805 206.801 116.12 206.319 116.618 206.087C117.116 205.854 117.697 205.954 118.096 206.303L126.248 213.445C132.839 209.409 135.977 198.18 135.994 198.064C136.193 197.333 136.957 196.885 137.687 197.101C138.418 197.3 138.866 198.064 138.65 198.795C138.501 199.343 134.914 212.249 126.663 216.369C126.165 216.618 125.55 216.535 125.135 216.169L118.544 210.389V239.64C118.544 240.404 117.93 241.019 117.166 241.019L117.183 241.035Z" fill="black"/>
<path d="M126.995 199.293C127.178 199.742 127.277 200.223 127.277 200.705C127.277 204.06 122.761 206.768 117.183 206.768C111.604 206.768 107.088 204.06 107.088 200.705C107.088 200.29 107.155 199.891 107.287 199.492" fill="#9D7561"/>
<path d="M117.183 208.163C110.741 208.163 105.71 204.891 105.71 200.722C105.71 200.157 105.81 199.609 105.976 199.077C106.225 198.346 107.005 197.964 107.736 198.213C108.466 198.463 108.848 199.243 108.599 199.974C108.516 200.223 108.466 200.489 108.466 200.738C108.466 203.23 112.534 205.422 117.166 205.422C121.798 205.422 125.866 203.23 125.866 200.738C125.866 200.439 125.799 200.14 125.683 199.841C125.401 199.127 125.75 198.33 126.464 198.047C127.178 197.765 127.974 198.114 128.257 198.828C128.506 199.459 128.639 200.107 128.639 200.755C128.639 204.924 123.591 208.196 117.166 208.196L117.183 208.163Z" fill="black"/>
<path d="M90.2695 62.9373C90.2695 62.9373 77.6679 58.1368 72.8531 54.7317C69.682 52.5059 64.5019 50.795 61.1482 53.1038C57.6948 55.4792 57.1967 59.7979 57.0805 63.6017C56.9476 68.4021 57.728 72.8372 60.4508 76.8735C60.6335 77.1393 62.6092 80.0461 62.9247 79.7139C62.9247 79.7139 74.447 67.854 90.2695 62.9207V62.9373Z" fill="#9D7561"/>
<path d="M63.4725 81.1591L62.742 81.1258C62.2107 81.076 61.5964 81.0262 59.3218 77.6542C56.6986 73.7674 55.553 69.2825 55.719 63.5685C55.8352 59.3328 56.4828 54.6487 60.3844 51.9744C64.2031 49.3499 69.9476 50.9943 73.6667 53.6188C78.2988 56.8911 90.6679 61.6085 90.7842 61.6583L94.5198 63.0868L90.7011 64.2828C75.5594 69.0002 64.4687 80.179 63.9374 80.7106L63.4891 81.1923L63.4725 81.1591ZM61.9617 78.7505C61.9617 78.7505 61.9451 78.7671 61.9285 78.7837C61.9285 78.7837 61.9451 78.7671 61.9617 78.7505ZM65.0332 53.4029C63.871 53.4029 62.8084 53.6686 61.9451 54.25C59.0894 56.2267 58.5913 59.9308 58.4751 63.6516C58.3257 68.7676 59.3218 72.7209 61.613 76.1095C62.0779 76.8071 62.5262 77.4217 62.8748 77.8536C65.7139 75.1793 74.5798 67.4055 86.318 62.8543C82.1673 61.16 75.41 58.2365 72.0562 55.8612C70.014 54.4161 67.3576 53.3863 65.0332 53.3863V53.4029Z" fill="black"/>
<path d="M144.013 62.9373C144.013 62.9373 156.614 58.1368 161.429 54.7317C164.6 52.5059 169.78 50.795 173.134 53.1038C176.587 55.4792 177.086 59.7979 177.202 63.6017C177.335 68.4021 176.554 72.8372 173.831 76.8735C173.649 77.1393 171.673 80.0461 171.358 79.7139C171.358 79.7139 159.835 67.854 144.013 62.9207V62.9373Z" fill="#9D7561"/>
<path d="M170.876 81.1923L170.361 80.694C169.897 80.2123 158.723 68.9835 143.598 64.2662L139.779 63.0702L143.515 61.6417C143.631 61.5919 156 56.8745 160.632 53.6022C164.351 50.9777 170.096 49.3333 173.914 51.9578C177.799 54.6321 178.464 59.3162 178.58 63.5519C178.746 69.2659 177.6 73.7508 174.977 77.6376C172.702 81.0096 172.088 81.0594 171.557 81.1092L170.893 81.1591L170.876 81.1923ZM172.304 78.7173L172.337 78.7505C172.337 78.7505 172.321 78.7173 172.304 78.7173ZM147.964 62.8543C159.686 67.3889 168.585 75.1959 171.407 77.8536C171.756 77.4217 172.204 76.8071 172.669 76.1095C174.96 72.7209 175.957 68.751 175.807 63.6516C175.691 59.9308 175.209 56.2267 172.337 54.25C169.747 52.4561 165.281 53.7185 162.226 55.8778C158.872 58.2365 152.115 61.1766 147.964 62.8709V62.8543Z" fill="black"/>
<path d="M153.294 68.2361C157.909 67.472 161.413 63.3194 165.962 62.1898C167.738 61.7414 169.863 61.9075 171.026 63.3526C171.723 64.2163 171.955 65.3957 172.038 66.5418C172.304 70.5616 170.76 74.6644 167.954 77.4383" fill="#4F3323"/>
<path d="M80.2746 67.2395C75.659 66.4754 72.1558 62.3228 67.6066 61.1933C65.8301 60.7448 63.705 60.9109 62.5428 62.356C61.8455 63.2198 61.613 64.3991 61.53 65.5452C61.2644 69.565 62.8084 73.6678 65.6143 76.4417" fill="#4F3323"/>
<path d="M188.093 110.742C173.732 56.509 117.017 57.6718 117.017 57.6718C117.017 57.6718 60.3014 56.5256 45.94 110.742C45.94 110.742 19.2759 136.123 38.3857 164.577C38.3857 164.577 59.7535 199.775 117.033 199.775C174.313 199.775 195.681 164.577 195.681 164.577C214.774 136.123 188.126 110.742 188.126 110.742H188.093Z" fill="#9D7561"/>
<path d="M117 201.153C59.6041 201.153 37.3895 165.657 37.1737 165.291C18.7778 137.884 41.8059 112.952 44.6782 110.012C59.3053 55.7283 116.452 56.21 117.033 56.2765C117.531 56.1934 174.695 55.7283 189.322 110.012C192.194 112.952 215.206 137.884 196.793 165.341C196.61 165.64 174.396 201.137 117 201.137V201.153ZM116.884 59.0504C113.679 59.0504 60.8161 59.8809 47.2516 111.091C47.1852 111.34 47.0524 111.556 46.8697 111.739C45.8238 112.752 21.3014 136.671 39.4981 163.813C39.7471 164.212 61.2312 198.396 117 198.396C172.769 198.396 194.253 164.212 194.469 163.879C212.732 136.655 187.396 112.005 187.13 111.756C186.948 111.573 186.815 111.357 186.748 111.108C172.835 58.5853 117.598 59.0836 117.033 59.067H116.884V59.0504Z" fill="#000200"/>
<path d="M99.6999 111.756C99.6999 111.756 108.151 106.091 117.631 106.091C117.631 106.091 126.347 105.842 135.628 111.756C137.903 109.796 147.632 101.889 162.342 102.055C176.438 102.221 185.719 109.713 188.093 111.756H188.077C188.077 111.756 214.741 136.854 195.631 164.976C195.631 164.976 174.263 199.758 116.983 199.758C59.7037 199.758 38.3359 164.976 38.3359 164.976C19.2427 136.838 45.8902 111.756 45.8902 111.756C48.2312 109.796 58.1929 101.889 73.2682 102.055C87.7127 102.221 97.2261 109.713 99.6667 111.756" fill="#F3E1C5"/>
<path d="M117 201.153C59.6041 201.153 37.3895 165.657 37.1737 165.291C18.7778 137.884 41.8059 112.952 44.6782 110.012C59.3053 55.7283 116.452 56.21 117.033 56.2765C117.531 56.1934 174.695 55.7283 189.322 110.012C192.194 112.952 215.206 137.884 196.793 165.341C196.61 165.64 174.396 201.137 117 201.137V201.153ZM116.884 59.0504C113.679 59.0504 60.8161 59.8809 47.2516 111.091C47.1852 111.34 47.0524 111.556 46.8697 111.739C45.8238 112.752 21.3014 136.671 39.4981 163.813C39.7471 164.212 61.2312 198.396 117 198.396C172.769 198.396 194.253 164.212 194.469 163.879C212.715 136.688 188.193 112.769 187.13 111.756C186.948 111.573 186.815 111.357 186.748 111.108C172.835 58.5853 117.598 59.0836 117.033 59.067H116.884V59.0504Z" fill="black"/>
<path d="M129.518 54.8148C129.983 54.8979 130.448 54.9975 130.913 55.0972C132.009 55.363 133.088 55.6952 134.117 56.0938C135.396 56.5922 136.624 57.2067 137.67 58.004C138.766 58.818 139.646 59.8478 140.094 61.0105C140.51 62.1235 140.593 63.3859 139.912 64.4489C139.613 64.8974 139.264 65.3293 138.866 65.7279C138.301 66.2927 137.67 66.791 136.973 67.2395C136.06 67.8375 135.047 68.3358 134.001 68.7677C132.623 69.3324 131.179 69.7477 129.718 70.0799C127.808 70.5118 125.849 70.7775 123.874 70.9436C121.599 71.1264 119.308 71.1762 117.017 71.143C114.725 71.1098 112.434 70.9603 110.176 70.6945C108.217 70.4619 106.275 70.1131 104.365 69.6148C102.904 69.2328 101.476 68.7511 100.132 68.1365C99.1021 67.6714 98.106 67.1232 97.2094 66.492C96.5287 66.0103 95.9144 65.4954 95.3665 64.914C94.9846 64.4988 94.6526 64.0669 94.3703 63.6018C93.7228 62.5221 93.8557 61.2597 94.3039 60.1634C94.7854 59.0007 95.7152 58.0207 96.8442 57.24C97.9233 56.4925 99.1686 55.9111 100.464 55.4626C101.51 55.0972 102.605 54.7982 103.701 54.5823C104.166 54.4826 104.631 54.3996 105.112 54.3497" fill="#C7A892"/>
<path d="M118.527 72.5382C118.029 72.5382 117.515 72.5382 117 72.5382C114.493 72.4884 112.202 72.3389 110.01 72.0731C107.819 71.8073 105.86 71.4419 104.017 70.9602C102.373 70.5283 100.912 70.0134 99.567 69.4154C98.4048 68.9005 97.3423 68.3025 96.4125 67.6381C95.6322 67.09 94.9349 66.492 94.3538 65.8608C93.8889 65.3625 93.4904 64.8475 93.1916 64.316C92.3946 62.9705 92.3448 61.3095 93.0421 59.6318C93.6066 58.303 94.6194 57.1236 96.0638 56.1104C97.1596 55.3463 98.4547 54.7151 100.015 54.167C101.095 53.7849 102.24 53.4859 103.435 53.2368C103.934 53.1371 104.432 53.0541 104.946 52.9876C105.71 52.8713 106.391 53.4361 106.49 54.2002C106.59 54.9643 106.042 55.6453 105.278 55.745C104.847 55.7948 104.398 55.8778 103.983 55.9609C102.904 56.1768 101.875 56.4592 100.912 56.7914C99.6002 57.2399 98.5045 57.7881 97.6245 58.4026C96.6283 59.0837 95.931 59.8976 95.5824 60.7115C95.3831 61.2098 95.1009 62.14 95.5492 62.9041C95.765 63.2529 96.0306 63.6184 96.3627 63.9838C96.811 64.4655 97.3589 64.9472 97.9898 65.3791C98.7701 65.9272 99.6667 66.4421 100.679 66.8906C101.891 67.4388 103.203 67.8873 104.697 68.2859C106.407 68.7344 108.25 69.0832 110.309 69.3324C112.401 69.5815 114.593 69.731 117.017 69.7809C119.457 69.8141 121.649 69.7642 123.724 69.5815C125.799 69.4154 127.642 69.133 129.369 68.751C130.863 68.4188 132.241 68.0035 133.437 67.5052C134.466 67.0899 135.379 66.6249 136.176 66.0933C136.807 65.6781 137.372 65.2296 137.837 64.7645C138.185 64.4157 138.467 64.0668 138.7 63.718C139.181 62.9705 138.932 62.0237 138.75 61.5254C138.434 60.6783 137.754 59.8644 136.791 59.1335C135.927 58.4857 134.865 57.9209 133.57 57.406C132.623 57.0406 131.61 56.725 130.548 56.4592C130.116 56.3596 129.685 56.2599 129.253 56.1934C128.506 56.0772 127.991 55.3629 128.107 54.5988C128.223 53.8348 128.937 53.3364 129.701 53.4527C130.199 53.5358 130.697 53.652 131.195 53.7683C132.374 54.0507 133.52 54.3995 134.582 54.8314C136.126 55.4294 137.388 56.127 138.467 56.9243C139.845 57.9708 140.858 59.2166 141.356 60.562C142.004 62.2729 141.888 63.9173 141.041 65.2296C140.709 65.7445 140.294 66.2428 139.812 66.7245C139.215 67.3225 138.501 67.9039 137.704 68.4188C136.757 69.0334 135.678 69.5981 134.499 70.0798C133.138 70.6446 131.66 71.0931 129.983 71.4585C128.124 71.8738 126.165 72.1728 123.957 72.3555C122.23 72.505 120.437 72.5714 118.494 72.5714L118.527 72.5382Z" fill="black"/>
<path d="M117.415 49.7652L120.072 47.7553C120.918 47.1574 121.981 46.8251 123.093 46.9746C126.796 47.4563 128.572 51.0442 130.083 53.5192C130.349 53.9511 130.598 54.3663 130.847 54.7982C130.847 54.7982 128.473 61.5088 117.216 61.5753C105.976 61.0936 103.851 54.2999 103.851 54.2999C104.116 53.8846 104.382 53.4527 104.648 53.0375C106.241 50.629 108.151 47.1075 111.87 46.7587C112.982 46.659 114.028 47.0245 114.858 47.6557L117.432 49.7652" fill="#C7A892"/>
<path d="M117.199 62.9539C105.063 62.439 102.605 55.0141 102.506 54.6985C102.39 54.3165 102.439 53.9012 102.639 53.569C102.904 53.1371 103.186 52.7052 103.469 52.2734L103.917 51.5757C105.511 49.1174 107.686 45.762 111.72 45.38C113.115 45.2471 114.526 45.6624 115.688 46.5593L117.448 48.0045L119.225 46.6424C120.437 45.7786 121.848 45.3966 123.259 45.5959C127.277 46.1275 129.319 49.5658 130.814 52.074L131.245 52.7883C131.511 53.2202 131.777 53.6686 132.026 54.1171C132.225 54.466 132.258 54.8812 132.125 55.2633C132.009 55.5789 129.286 62.8875 117.199 62.9539ZM105.378 54.4161C106.125 55.8778 108.931 59.8312 117.249 60.1966C125.517 60.1468 128.439 56.3097 129.253 54.8646C129.137 54.6487 129.004 54.4493 128.871 54.2334L128.423 53.5025C127.078 51.2435 125.567 48.7021 122.877 48.3533C122.18 48.2536 121.466 48.4529 120.852 48.8848L118.229 50.8781C117.714 51.2601 117.017 51.2601 116.519 50.8449L113.945 48.7353C113.381 48.3034 112.667 48.0709 111.969 48.154C109.263 48.4031 107.653 50.8947 106.241 53.1039L105.777 53.8181C105.644 54.0175 105.511 54.2334 105.378 54.4327V54.4161Z" fill="black"/>
<path d="M105.345 51.7916C105.345 51.7916 107.42 57.5223 117.266 58.2199C117.266 58.2199 124.654 58.984 129.718 52.6388L130.83 54.5822C130.83 54.5822 128.008 61.758 117.349 61.5586C117.349 61.5586 105.212 60.1467 103.834 54.0673L105.345 51.7584V51.7916Z" fill="#754C29"/>
<path d="M117.199 59.1833C106.275 58.7681 105.146 51.0774 105.129 50.9944C105.029 50.2303 105.561 49.5326 106.324 49.433C107.072 49.3499 107.785 49.8648 107.885 50.6289C107.918 50.8449 108.815 56.0772 117.266 56.4094C125.716 56.4094 127.028 51.31 127.078 51.094C127.261 50.3465 127.991 49.8981 128.738 50.0642C129.485 50.2303 129.95 50.9611 129.784 51.7086C129.718 52.0076 128.041 59.1833 117.216 59.1833H117.199Z" fill="black"/>
<path d="M117.199 63.7845C105.063 63.2695 102.605 55.8446 102.506 55.529C102.39 55.147 102.439 54.7317 102.639 54.3995C102.722 54.25 102.788 53.9676 102.888 53.7019C103.054 53.1537 103.22 52.6554 103.469 52.2734L103.917 51.5757C105.511 49.1174 107.686 45.762 111.72 45.38C113.115 45.2471 114.526 45.6624 115.688 46.5593L117.448 48.0045L119.225 46.6424C120.437 45.7786 121.848 45.3966 123.259 45.5959C127.277 46.1275 129.319 49.5658 130.814 52.074L131.245 52.7883C131.478 53.1537 131.627 53.6686 131.793 54.2168C131.876 54.4992 131.959 54.7982 132.042 54.9643C132.208 55.2965 132.258 55.745 132.142 56.0938C132.026 56.4094 129.303 63.718 117.216 63.7845H117.199ZM105.328 55.1304C105.992 56.4924 108.715 60.6451 117.249 61.0105C125.717 60.9607 128.589 56.9409 129.319 55.5789C129.253 55.3961 129.203 55.2134 129.137 55.0141C129.037 54.7151 128.971 54.3995 128.871 54.2168L128.439 53.5025C127.095 51.2435 125.584 48.7021 122.894 48.3533C122.197 48.2536 121.483 48.4529 120.868 48.8848L119.507 49.9147L120.453 50.8615C121.001 51.4096 120.985 52.2734 120.453 52.8215C119.906 53.3697 119.042 53.3697 118.494 52.8215L116.469 50.795L113.945 48.7187C113.381 48.2868 112.667 48.0543 111.969 48.1373C109.263 48.3865 107.653 50.8781 106.241 53.0873L105.777 53.8015C105.694 53.951 105.61 54.25 105.511 54.549C105.444 54.7483 105.378 54.9477 105.312 55.1304H105.328Z" fill="black"/>
<path d="M124.471 115.543C121.582 115.543 119.042 116.988 117.548 119.181C116.054 116.988 113.513 115.543 110.625 115.543C106.026 115.543 102.29 119.23 102.29 123.765C102.29 128.3 106.026 131.987 110.625 131.987C113.513 131.987 116.054 130.542 117.548 128.35C119.042 130.542 121.582 131.987 124.471 131.987C129.07 131.987 132.806 128.3 132.806 123.765C132.806 119.23 129.07 115.543 124.471 115.543Z" fill="#4F3323"/>
<path d="M112.451 131.007C112.335 131.041 112.65 133.15 112.667 133.283C112.899 134.778 113.298 136.306 114.078 137.635C114.759 138.798 116.004 139.894 117.398 140.11C118.312 140.259 119.192 139.844 119.822 139.213C120.852 138.2 121.466 136.755 121.881 135.393C121.997 135.027 122.877 131.024 122.645 130.974C122.645 130.974 117.631 129.894 117.631 126.041C117.631 126.041 118.063 129.712 112.451 131.024V131.007Z" fill="#C8514F"/>
<path d="M117.747 141.522C117.548 141.522 117.365 141.522 117.166 141.472C115.174 141.156 113.646 139.645 112.866 138.333C112.102 137.037 111.587 135.459 111.272 133.499C110.923 131.223 110.741 129.977 112.119 129.662C115.805 128.815 116.203 126.938 116.236 126.34C116.236 126.24 116.236 126.14 116.236 126.041L118.992 125.875C118.992 126.008 119.009 126.157 119.009 126.307C119.258 128.781 122.877 129.612 122.911 129.629L123.492 129.762L123.824 130.293C124.455 131.356 123.193 135.741 123.176 135.791C122.595 137.735 121.815 139.18 120.769 140.21C119.889 141.073 118.81 141.538 117.731 141.538L117.747 141.522ZM113.879 132.054C113.928 132.403 113.978 132.801 114.028 133.084C114.277 134.695 114.692 135.957 115.273 136.937C115.838 137.884 116.784 138.615 117.614 138.748C118.162 138.831 118.66 138.416 118.86 138.216C119.557 137.519 120.121 136.472 120.553 134.994C120.653 134.662 121.001 133.034 121.184 131.971C120.171 131.605 118.727 130.908 117.648 129.695C116.851 130.609 115.655 131.456 113.879 132.037V132.054Z" fill="black"/>
<path d="M107.204 111.407C107.204 113.649 105.395 115.46 103.153 115.46C100.912 115.46 99.1022 113.649 99.1022 111.407C99.1022 109.164 100.912 107.354 103.153 107.354C105.395 107.354 107.204 109.164 107.204 111.407Z" fill="#020100"/>
<path d="M137.588 111.407C137.588 113.649 135.778 115.46 133.536 115.46C131.295 115.46 129.485 113.649 129.485 111.407C129.485 109.164 131.295 107.354 133.536 107.354C135.778 107.354 137.588 109.164 137.588 111.407Z" fill="#020100"/>
<path d="M124.571 115.543C124.571 117.885 121.466 119.795 117.631 119.795C113.796 119.795 110.691 117.885 110.691 115.543C110.691 113.201 113.796 111.291 117.631 111.291C121.466 111.291 124.571 113.201 124.571 115.543Z" fill="#020100"/>
<path d="M124.521 132.469C124.056 132.469 123.575 132.436 123.077 132.386C122.828 132.353 119.49 131.805 117.548 129.662C115.605 131.821 112.285 132.353 112.086 132.386C104.448 133.183 101.46 127.752 100.929 124.762C100.796 124.014 101.294 123.283 102.058 123.15C102.805 123.018 103.535 123.516 103.668 124.263C103.784 124.878 105.013 130.31 111.737 129.612C111.737 129.612 116.17 128.881 116.17 126.008C116.17 125.243 116.784 124.629 117.548 124.629C118.312 124.629 118.926 125.243 118.926 126.008C118.926 128.865 123.376 129.612 123.425 129.612C130.1 130.293 131.312 124.861 131.428 124.247C131.561 123.499 132.275 123.001 133.038 123.134C133.785 123.267 134.284 123.981 134.151 124.728C133.653 127.519 131.013 132.436 124.521 132.436V132.469Z" fill="black"/>
<path d="M91.8965 121.573C91.7471 121.573 91.5977 121.556 91.4649 121.506L84.9234 119.313C84.1928 119.064 83.811 118.284 84.0434 117.569C84.2924 116.838 85.0728 116.456 85.8033 116.689L92.3448 118.882C93.0753 119.131 93.4572 119.911 93.2248 120.626C93.0255 121.207 92.4942 121.573 91.9131 121.573H91.8965Z" fill="black"/>
<path d="M85.3551 129.928C84.774 129.928 84.2427 129.562 84.0434 128.981C83.7944 128.25 84.1929 127.469 84.9234 127.237L91.4649 125.044C92.1788 124.795 92.9757 125.194 93.2248 125.924C93.4738 126.655 93.0754 127.436 92.3448 127.668L85.8033 129.861C85.6539 129.911 85.5045 129.928 85.3717 129.928H85.3551Z" fill="black"/>
<path d="M142.718 121.573C142.137 121.573 141.605 121.207 141.406 120.626C141.157 119.895 141.556 119.114 142.286 118.882L148.828 116.689C149.542 116.44 150.338 116.839 150.588 117.569C150.837 118.3 150.438 119.081 149.708 119.314L143.166 121.506C143.017 121.556 142.867 121.573 142.734 121.573H142.718Z" fill="black"/>
<path d="M149.259 129.928C149.11 129.928 148.96 129.911 148.828 129.861L142.286 127.669C141.556 127.419 141.174 126.639 141.406 125.924C141.655 125.194 142.436 124.812 143.166 125.044L149.708 127.237C150.438 127.486 150.82 128.267 150.587 128.981C150.388 129.562 149.857 129.928 149.276 129.928H149.259Z" fill="black"/>
<path d="M122.844 228.062H111.87C110.659 228.062 109.678 229.044 109.678 230.255V232.115C109.678 233.326 110.659 234.308 111.87 234.308H122.844C124.055 234.308 125.036 233.326 125.036 232.115V230.255C125.036 229.044 124.055 228.062 122.844 228.062Z" fill="#A7A9AC"/>
<path d="M122.828 235.703H111.87C109.894 235.703 108.284 234.092 108.284 232.115V230.272C108.284 228.295 109.894 226.684 111.87 226.684H122.828C124.803 226.684 126.414 228.295 126.414 230.272V232.115C126.414 234.092 124.803 235.703 122.828 235.703ZM111.87 229.441C111.421 229.441 111.056 229.807 111.056 230.255V232.099C111.056 232.547 111.421 232.913 111.87 232.913H122.828C123.276 232.913 123.641 232.547 123.641 232.099V230.255C123.641 229.807 123.276 229.441 122.828 229.441H111.87Z" fill="#231F20"/>
</g>
</g>
<defs>
<clipPath id="clip0_2001_51">
<rect width="234" height="233" fill="white"/>
</clipPath>
</defs>
</svg>
