<svg width="80" height="80" viewBox="0 0 80 80" fill="none" xmlns="http://www.w3.org/2000/svg">
<g id="fi_1083636">
<path id="Vector" d="M31.1547 37.9547L2.33271 52.9126C-0.800836 54.5386 -0.770929 59.032 2.38336 60.6159L31.3818 75.1801C36.8047 77.9035 43.1951 77.9035 48.6181 75.1801L77.6158 60.6159C80.7707 59.0314 80.8006 54.5386 77.6671 52.9126L48.8445 37.9547C43.2995 35.0769 36.7003 35.0769 31.1547 37.9547Z" fill="#9698FF"/>
<path id="Vector_2" d="M31.1547 21.3844L2.33271 36.3429C-0.800836 37.9689 -0.770929 42.4617 2.38336 44.0461L31.3818 58.6103C36.8047 61.3337 43.1951 61.3337 48.6181 58.6103L77.6158 44.0461C80.7707 42.4617 80.8006 37.9689 77.6671 36.3429L48.8445 21.385C43.2995 18.5072 36.7003 18.5072 31.1547 21.3844Z" fill="#BBBDFF"/>
<path id="Vector_3" d="M48.6181 58.6103L68.9599 48.3936L48.8446 37.9547C43.2995 35.0769 36.7004 35.0769 31.1554 37.9547L11.04 48.3936L31.3818 58.6103C36.8048 61.3336 43.1952 61.3336 48.6181 58.6103Z" fill="#A7A9FF"/>
<path id="Vector_4" d="M31.1547 4.81461L2.33271 19.7725C-0.800836 21.3991 -0.770929 25.8919 2.38336 27.4763L31.3818 42.0406C36.8047 44.7639 43.1951 44.7639 48.6181 42.0406L77.6158 27.4763C80.7708 25.8919 80.8007 21.3991 77.6671 19.7725L48.8445 4.81461C43.2995 1.9368 36.7004 1.9368 31.1547 4.81461Z" fill="#E5E6FF"/>
<path id="Vector_5" d="M48.6181 42.0406L68.9599 31.8239L48.8446 21.3844C43.2995 18.5066 36.7004 18.5066 31.1554 21.3844L11.04 31.8239L31.3818 42.0406C36.8048 44.7639 43.1952 44.7639 48.6181 42.0406Z" fill="#D3D4FF"/>
<path id="Vector_6" d="M48.6181 42.0404L52.7344 39.9732L48.8446 37.9547C43.2995 35.0769 36.7004 35.0769 31.1548 37.9547L27.2656 39.9732L31.3818 42.0404C36.8042 44.7638 43.1952 44.7638 48.6181 42.0404Z" fill="#BBBDFF"/>
</g>
</svg>
