<svg width="484" height="426" viewBox="0 0 484 426" fill="none" xmlns="http://www.w3.org/2000/svg">
<g clip-path="url(#clip0_2001_204)">
<path d="M469.986 306.358C462.071 288.348 446.868 273.319 428.607 265.924C409.588 258.22 387.747 261.023 367.713 258.444C350.313 256.203 337.76 248.434 327.369 234.62C317.414 221.384 308.487 206.725 292.214 200.602C279.352 195.763 264.731 197.106 251.948 202.146C228.396 211.436 210.605 231.187 195.622 250.865C181.943 268.831 170.787 288.503 145.484 289.144C120.166 289.784 96.0624 275.339 70.573 279.166C36.8827 284.226 8.82165 312.281 2.94276 345.678C-2.56829 376.979 11.2586 407.34 35.0139 425.175H443.324C473.257 393.411 488.963 349.535 469.986 306.358Z" fill="#F7F0E3"/>
<path d="M100.88 425.179H102.004C109.804 416.601 115.916 406.197 119.798 394.646C126.084 375.951 125.821 356.328 119.052 339.397C115.634 330.839 110.694 322.866 105.915 315.152C101.071 307.33 96.0624 299.242 92.6632 290.576C91.2575 286.992 90.2197 283.145 89.5956 279.219C89.3132 279.183 89.0308 279.153 88.7516 279.117C89.3789 283.184 90.4463 287.169 91.9012 290.875C95.3267 299.61 100.358 307.731 105.222 315.582C109.981 323.263 114.901 331.21 118.294 339.699C124.99 356.45 125.25 375.872 119.023 394.384C115.092 406.079 108.851 416.581 100.884 425.179H100.88Z" fill="white"/>
<path d="M441.35 389.558C449.765 391.351 457.87 392.958 465.71 393.97C465.844 393.71 465.976 393.451 466.107 393.191C458.202 392.186 450.017 390.566 441.521 388.753C428.581 385.997 414.577 383.01 400.684 383.01C392.083 383.01 383.527 384.154 375.296 387.206C372.18 388.362 369.175 389.827 366.311 391.575C358.878 388.408 351.407 384.949 344.007 381.151C349.377 377.104 354.806 373.142 360.291 369.311C401.009 340.872 438.588 324.748 474.893 320.172C474.82 319.906 474.745 319.64 474.669 319.374C438.266 323.986 400.609 340.152 359.824 368.638C354.221 372.55 348.681 376.601 343.199 380.734C334.877 376.434 326.653 371.706 318.692 366.489C304.254 357.028 287.084 343.523 272.088 325.576C330.203 319.055 389.37 310.839 437.688 278.536C439.524 277.31 441.557 275.862 443.662 274.222C443.429 274.058 443.193 273.894 442.96 273.73C440.943 275.293 438.995 276.673 437.235 277.852C388.93 310.146 329.651 318.299 271.463 324.82C260.865 311.998 251.396 296.939 244.818 279.505C234.568 252.346 235.11 225.697 246.303 206.384C246.789 205.546 247.301 204.718 247.83 203.903C247.363 204.117 246.9 204.34 246.437 204.564C246.148 205.03 245.866 205.5 245.593 205.973C234.275 225.5 233.714 252.406 244.049 279.794C250.595 297.133 259.978 312.133 270.488 324.929C267.118 325.307 263.749 325.678 260.392 326.049C248.276 327.386 235.743 328.769 223.578 330.336C219.138 330.908 214.622 331.575 210.126 332.412C200.493 312.074 189.911 292.235 176.232 275.218C176.035 275.412 175.838 275.602 175.641 275.796C189.202 292.682 199.718 312.376 209.295 332.57C189.694 336.309 170.662 343.339 160.5 359.699C151.009 374.978 151.019 396.098 160.527 422.472C160.855 423.385 161.193 424.282 161.538 425.175H162.418C162.041 424.2 161.666 423.211 161.302 422.193C151.882 396.066 151.849 375.185 161.2 360.129C171.24 343.963 190.171 337.028 209.663 333.335C213.065 340.53 216.35 347.787 219.614 354.998L219.969 355.783C231.31 380.822 243.038 404.985 258.392 425.179H259.417C243.921 404.949 232.127 380.642 220.715 355.445L220.36 354.659C217.122 347.511 213.864 340.316 210.494 333.181C214.901 332.366 219.332 331.713 223.687 331.154C235.845 329.587 248.372 328.204 260.487 326.867C264.025 326.476 267.572 326.085 271.119 325.688C286.259 343.914 303.65 357.606 318.252 367.176C326.124 372.337 334.256 377.018 342.483 381.282C328.515 391.851 314.931 402.968 301.666 413.822C297.071 417.58 292.427 421.378 287.744 425.175H289.044C293.462 421.591 297.846 418.007 302.185 414.459C315.542 403.53 329.224 392.33 343.291 381.703C350.651 385.491 358.08 388.943 365.473 392.107C355.361 398.539 347.117 408.503 342.135 420.599C341.511 422.114 340.966 423.645 340.463 425.179H341.327C341.803 423.75 342.312 422.324 342.894 420.911C347.889 408.783 356.202 398.828 366.393 392.498C387.058 401.279 407.364 407.797 424.817 412.961L425.474 413.155C432.827 415.33 440.349 417.56 447.003 421.138C447.19 420.924 447.377 420.714 447.561 420.501C440.798 416.831 433.169 414.571 425.707 412.367L425.05 412.173C407.778 407.061 387.701 400.622 367.26 391.972C369.923 390.386 372.712 389.049 375.595 387.978C396.897 380.08 420.521 385.116 441.363 389.558H441.35Z" fill="white"/>
<path d="M37.0732 336.361C40.699 351.21 39.0831 367.245 32.6328 380.356C28.4092 388.943 22.3103 396.719 14.7991 403.395C14.9469 403.628 15.1012 403.858 15.2523 404.088C22.885 397.324 29.0825 389.436 33.3685 380.717C39.9009 367.435 41.5398 351.197 37.868 336.164C35.0008 324.42 29.2335 314.472 21.2626 307.274C21.0852 307.485 20.9079 307.695 20.7338 307.905C28.5701 314.991 34.2421 324.791 37.0699 336.361H37.0732Z" fill="white"/>
<path d="M222.905 148.266C230.058 155.575 233.264 167.895 229.319 179.248C225.5 190.244 217.128 199.35 207.072 205.208C198.979 209.919 188.423 212.517 180.465 207.583C174.518 203.897 171.434 196.663 171.263 189.669C171.092 182.671 173.444 175.855 176.35 169.488C180.449 160.516 185.963 151.814 194.181 146.357C205.505 138.834 216.028 141.239 222.905 148.266Z" fill="#F7F0E3"/>
<path d="M465.089 73.5909C461.253 60.8346 454.507 49.123 444.851 38.4167C435.176 27.7103 421.979 18.87 405.262 11.8791C388.545 4.88833 367.306 1.39291 341.544 1.39291C320.991 1.39291 300.047 4.16559 278.709 9.71094C257.351 15.276 238.824 23.19 223.112 33.4758L243.567 89.6455L232.604 98.5286L248.503 103.203C264.195 94.9872 278.495 89.0213 291.396 85.3058C304.277 81.61 317.966 79.7604 332.479 79.7604C346.992 79.7604 357.949 83.2558 365.401 90.2467C372.853 97.2572 376.571 105.674 376.571 115.559C376.571 127.491 372.735 138.079 365.105 147.339C357.436 156.6 348.979 165.96 339.714 175.421C333.284 181.991 327.03 188.779 320.991 195.769C314.954 202.78 309.604 210.273 304.983 218.309C300.342 226.325 296.624 234.961 293.813 244.222C290.982 253.483 289.586 263.867 289.586 275.379C289.586 279.094 289.665 283.513 289.882 288.657C289.918 289.607 289.967 290.53 290.023 291.443H274.994L291.396 302.537H371.145C370.731 300.067 370.534 297.192 370.534 293.9V286.489C370.534 279.498 371.95 272.609 374.761 265.819C377.572 259.028 381.113 252.56 385.343 246.374C389.57 240.208 394.293 234.34 399.541 228.798C404.773 223.233 409.808 217.99 414.646 213.049C421.076 206.479 427.724 199.491 434.568 192.077C441.413 184.665 447.469 176.87 452.701 168.634C457.933 160.398 462.258 151.459 465.68 141.778C469.102 132.116 470.833 121.528 470.833 109.997C470.833 98.4661 468.905 86.3538 465.089 73.5975V73.5909Z" fill="#E49B31"/>
<path d="M315.594 75.838C301.252 75.838 287.724 77.6251 274.994 81.2026C262.244 84.7999 248.115 90.5719 232.604 98.5253L207.512 31.0448C223.04 21.0907 241.35 13.4297 262.458 8.04536C283.546 2.68398 304.244 0 324.554 0C350.014 0 371.007 3.38372 387.527 10.1479C404.047 16.912 417.089 25.4666 426.653 35.828C436.197 46.1894 442.861 57.5232 446.651 69.8688C450.421 82.2144 452.326 93.9556 452.326 105.096C452.326 116.236 450.615 126.502 447.236 135.851C443.853 145.221 439.577 153.874 434.407 161.843C429.238 169.813 423.25 177.356 416.488 184.531C409.726 191.706 403.154 198.47 396.799 204.827C392.017 209.61 387.041 214.682 381.871 220.07C376.682 225.434 372.019 231.111 367.838 237.08C363.66 243.069 360.159 249.327 357.381 255.898C354.602 262.468 353.203 269.137 353.203 275.901V283.076C353.203 286.266 353.397 289.045 353.804 291.437H274.991C274.173 287.452 273.69 282.98 273.493 278.003C273.28 273.026 273.201 268.749 273.201 265.152C273.201 254.012 274.58 243.963 277.378 234.997C280.157 226.036 283.832 217.675 288.417 209.919C292.985 202.143 298.27 194.892 304.237 188.105C310.205 181.341 316.386 174.767 322.741 168.411C331.894 159.255 340.253 150.194 347.833 141.232C355.374 132.27 359.164 122.024 359.164 110.477C359.164 100.91 355.492 92.7664 348.125 85.9825C340.759 79.2184 329.914 75.8347 315.591 75.8347L315.594 75.838Z" fill="#FBC343"/>
<path d="M376.6 379.965C376.6 394.347 371.946 405.445 362.635 413.273C353.328 421.118 342.805 425.024 331.057 425.024C319.309 425.024 308.773 421.118 299.465 413.273C290.171 405.445 285.517 394.347 285.517 379.965C285.517 365.583 290.171 354.502 299.465 346.657C313.795 334.561 334.995 331.867 351.771 340.356C366.659 347.889 376.6 363.188 376.6 379.965Z" fill="#E49B31"/>
<path d="M361 379.965C361 394.347 356.346 405.445 347.035 413.273C337.727 421.118 327.204 425.024 315.457 425.024C303.709 425.024 293.173 421.118 283.865 413.273C274.57 405.445 269.917 394.347 269.917 379.965C269.917 365.583 274.57 354.502 283.865 346.657C293.173 338.828 303.695 334.906 315.457 334.906C327.218 334.906 337.724 338.828 347.035 346.657C356.343 354.502 361 365.599 361 379.965Z" fill="#FBC343"/>
<path d="M124.918 176.093C125.792 171.43 122.721 166.941 118.059 166.066C113.397 165.192 108.909 168.263 108.035 172.927C107.161 177.59 110.231 182.079 114.893 182.953C119.555 183.828 124.043 180.756 124.918 176.093Z" fill="#D3DFFF"/>
<path d="M129.006 192.199C129.497 189.576 127.755 187.048 125.115 186.553C122.474 186.058 119.935 187.784 119.444 190.407C118.953 193.03 120.695 195.558 123.336 196.053C125.976 196.548 128.515 194.822 129.006 192.199Z" fill="#D3DFFF"/>
<path d="M119.186 155.161C132.392 141.952 132.392 120.536 119.186 107.326C105.981 94.1174 84.5701 94.1174 71.3645 107.326C58.1589 120.536 58.1589 141.952 71.3645 155.161C84.5701 168.37 105.981 168.37 119.186 155.161Z" fill="#D3DFFF"/>
<path d="M82.2913 135.503C84.6439 135.503 86.5511 133.595 86.5511 131.242C86.5511 128.889 84.6439 126.981 82.2913 126.981C79.9388 126.981 78.0316 128.889 78.0316 131.242C78.0316 133.595 79.9388 135.503 82.2913 135.503Z" fill="white"/>
<path d="M95.2741 135.503C97.6267 135.503 99.5339 133.595 99.5339 131.242C99.5339 128.889 97.6267 126.981 95.2741 126.981C92.9216 126.981 91.0144 128.889 91.0144 131.242C91.0144 133.595 92.9216 135.503 95.2741 135.503Z" fill="white"/>
<path d="M108.26 135.503C110.613 135.503 112.52 133.595 112.52 131.242C112.52 128.889 110.613 126.981 108.26 126.981C105.908 126.981 104 128.889 104 131.242C104 133.595 105.908 135.503 108.26 135.503Z" fill="white"/>
<path d="M71.0492 408.089L74.2086 420.274C75.033 423.451 78.1038 425.599 81.5031 425.366C91.8617 424.663 113.387 422.123 125.743 413.014L122.232 395.455C105.245 394.495 89.3624 395.441 75.6045 400.07C72.1592 401.23 70.169 404.683 71.0524 408.086L71.0492 408.089Z" fill="#102048"/>
<path d="M90.8468 417.787C90.6662 417.787 90.502 417.669 90.4527 417.488L86.2094 402.294C86.147 402.077 86.2751 401.851 86.4951 401.788C86.7152 401.729 86.9418 401.854 87.0009 402.074L91.2442 417.268C91.3066 417.488 91.1785 417.712 90.9585 417.774C90.9224 417.784 90.8829 417.79 90.8468 417.79V417.787Z" fill="white"/>
<path d="M100.017 415.734C99.836 415.734 99.6718 415.616 99.6225 415.435L95.3792 400.241C95.3168 400.024 95.4449 399.798 95.6649 399.735C95.885 399.673 96.1116 399.801 96.1707 400.021L100.414 415.215C100.476 415.435 100.348 415.658 100.128 415.721C100.092 415.731 100.053 415.737 100.017 415.737V415.734Z" fill="white"/>
<path d="M110.664 342.228L71.1871 353.95L100.506 394.131L142.598 397.482L200.651 372.925L178.59 339.719L110.664 342.228Z" fill="#FBC343"/>
<path d="M159.334 347.81C246.033 322.14 259.965 398.782 124.695 412.735C119.916 407.357 114.333 398.027 112.116 390.225L183.549 357.205L159.334 347.81Z" fill="#FBC343"/>
<path d="M163.019 402.741C158.963 401.443 155.078 398.878 155.078 398.878L141.146 403.25L144.338 418.411L158.812 421.351C163.223 413.283 163.479 406.66 163.019 402.741Z" fill="#F9B384"/>
<path d="M112.425 390.757L111.807 389.692C126.711 381.029 164.881 360.218 197.406 354.078L197.636 355.29C165.302 361.394 127.276 382.127 112.428 390.757H112.425Z" fill="#E49B31"/>
<path d="M110.664 342.228C29.9659 326.88 9.06468 404.456 144.338 418.408C149.117 413.03 152.861 406.677 155.078 398.874C134.298 384.968 111.065 371.749 85.6052 359.157L110.668 342.228H110.664Z" fill="#FBC343"/>
<path d="M154.746 399.393C150.907 396.949 146.907 394.367 142.673 391.631C121.414 377.902 97.3203 362.34 76.8492 353.467L77.3386 352.337C97.9016 361.249 122.041 376.841 143.34 390.596C147.573 393.329 151.57 395.911 155.406 398.355L154.746 399.393Z" fill="#E49B31"/>
<path d="M51.4584 380.691L50.3811 380.096C53.4092 374.61 58.2634 370.911 64.8024 369.101L65.1309 370.287C58.8349 372.031 54.3617 375.435 51.4584 380.691Z" fill="#E49B31"/>
<path d="M219.887 376.023C216.984 370.767 212.51 367.363 206.214 365.619L206.543 364.433C213.082 366.243 217.936 369.945 220.964 375.428L219.887 376.023Z" fill="#E49B31"/>
<path d="M136.781 417.728L135.881 416.887C142.338 409.972 146.302 402.672 148.003 394.568L149.209 394.82C147.462 403.148 143.396 410.642 136.784 417.728H136.781Z" fill="#E49B31"/>
<path d="M203.265 398.224C192.926 391.834 172.882 402.876 167.851 403.434C166.382 403.599 164.688 403.277 163.019 402.741C163.479 406.66 163.223 413.283 158.812 421.352L161.272 421.851C161.272 421.851 178.268 428.083 196.299 424.456C212.941 421.108 211.394 403.25 203.265 398.227V398.224Z" fill="#102048"/>
<path d="M189.172 419.124C189.133 419.124 189.09 419.118 189.047 419.104C188.831 419.036 188.712 418.806 188.778 418.589C190.006 414.699 190.542 407.045 186.985 401.903C186.857 401.716 186.903 401.46 187.09 401.332C187.277 401.204 187.533 401.25 187.661 401.437C191.386 406.821 190.841 414.791 189.563 418.835C189.507 419.009 189.346 419.121 189.172 419.121V419.124Z" fill="white"/>
<path d="M181.063 420.662C181.024 420.662 180.981 420.655 180.938 420.642C180.722 420.573 180.603 420.343 180.669 420.126C181.897 416.237 182.433 408.582 178.876 403.441C178.748 403.254 178.794 402.997 178.981 402.869C179.168 402.741 179.424 402.787 179.552 402.974C183.277 408.359 182.732 416.328 181.454 420.373C181.398 420.547 181.237 420.658 181.063 420.658V420.662Z" fill="white"/>
<path d="M96.3875 242.208C96.3875 242.208 116.711 224.922 115.959 221.637C115.42 219.288 109.663 222.731 109.663 222.731C109.663 222.731 117.735 213.148 117.325 211.985C116.592 209.905 111.006 213.782 111.006 213.782C111.006 213.782 114.78 208.348 112.976 207.461C111.173 206.574 107.239 209.925 107.239 209.925C107.239 209.925 109.538 206.909 108.457 206.118C107.377 205.326 102.72 208.581 102.72 208.581C102.72 208.581 104.391 204.777 100.841 206.219C97.2907 207.662 72.3892 230.52 72.3892 230.52L96.3875 242.208Z" fill="#F9B384"/>
<path d="M104.703 221.706C104.605 221.706 104.506 221.669 104.427 221.597C100.939 218.411 99.3991 217.635 95.5532 216.449C95.3365 216.384 95.2149 216.154 95.2806 215.937C95.3463 215.72 95.5762 215.599 95.793 215.664C99.7801 216.89 101.373 217.691 104.982 220.989C105.15 221.144 105.163 221.403 105.009 221.571C104.927 221.66 104.818 221.706 104.707 221.706H104.703Z" fill="#E28B6D"/>
<path d="M98.5814 231.081C98.5617 231.081 98.542 231.082 98.5256 231.078C98.3022 231.045 98.1446 230.838 98.1774 230.615C98.5781 227.757 99.478 225.97 100.926 225.155C102.168 224.459 103.78 224.528 105.725 225.369C105.932 225.457 106.03 225.7 105.938 225.907C105.85 226.114 105.607 226.213 105.4 226.121C103.705 225.388 102.335 225.303 101.33 225.871C100.135 226.545 99.3466 228.177 98.9919 230.73C98.9624 230.934 98.7883 231.085 98.5847 231.085L98.5814 231.081Z" fill="#E28B6D"/>
<path d="M97.6223 213.802C97.5139 213.802 97.4056 213.759 97.3234 213.673C97.1691 213.509 97.1757 213.25 97.3399 213.092L102.44 208.286C102.605 208.128 102.864 208.138 103.022 208.302C103.176 208.466 103.169 208.726 103.005 208.884L97.9048 213.69C97.8259 213.765 97.7241 213.802 97.6223 213.802Z" fill="#E28B6D"/>
<path d="M102.342 215.444C102.24 215.444 102.138 215.405 102.056 215.329C101.892 215.171 101.889 214.912 102.043 214.748L106.943 209.643C107.101 209.478 107.36 209.472 107.525 209.629C107.689 209.787 107.692 210.047 107.538 210.211L102.637 215.316C102.555 215.401 102.45 215.441 102.342 215.441V215.444Z" fill="#E28B6D"/>
<path d="M107.167 218.319C107.065 218.319 106.966 218.282 106.887 218.207C106.723 218.053 106.713 217.793 106.868 217.625L110.71 213.503C110.865 213.338 111.124 213.328 111.292 213.483C111.456 213.637 111.466 213.897 111.311 214.064L107.469 218.187C107.387 218.273 107.278 218.319 107.167 218.319Z" fill="#E28B6D"/>
<path d="M173.161 357.833L98.854 360.707L90.6433 292.951C90.6433 292.951 115.519 269.35 125.089 260.658L141.248 259.83C191.376 282.622 183.168 311.088 173.161 357.833Z" fill="#3A6BEA"/>
<path d="M141.248 259.83C141.248 259.83 198.598 264.735 216.678 304.038C234.371 342.498 161.666 356.19 161.666 356.19L141.248 259.83Z" fill="#3A6BEA"/>
<path d="M75.6899 268.25L99.3893 239.403L77.2269 225.97C67.9816 232.399 50.1052 246.962 34.9547 263.453C31.6113 267.093 28.997 271.344 27.6833 276.026C26.5601 280.021 26.3565 283.966 26.987 287.829C28.6325 297.902 36.5509 305.671 47.1231 306.91C56.1516 307.967 90.64 305.267 118.556 297.054L126.767 265.356C122.547 262.961 91.1917 262.543 75.6899 268.25Z" fill="#3A6BEA"/>
<g opacity="0.8">
<path d="M189.106 275.425C189.231 275.395 189.353 275.369 189.478 275.339C189.218 275.185 188.959 275.037 188.699 274.886C184.495 275.855 180.16 276.844 175.884 277.36C173.316 277.668 164.73 278.237 162.224 272.517C160.976 269.672 161.922 266.505 163.331 264.285C163.124 264.225 162.921 264.166 162.717 264.107C161.272 266.459 160.343 269.761 161.66 272.764C164.336 278.874 173.283 278.296 175.959 277.971C180.357 277.442 184.807 276.417 189.106 275.425Z" fill="white"/>
<path d="M215.873 319.755C213.134 318.697 210.303 317.599 207.328 317.882C202.109 318.375 197.642 323.539 197.37 329.39C197.186 333.381 198.71 337.563 201.613 341.24C201.787 341.131 201.961 341.019 202.135 340.911C199.294 337.337 197.803 333.28 197.984 329.42C198.24 323.861 202.457 318.96 207.384 318.496C210.211 318.234 212.855 319.252 215.65 320.329C216.649 320.714 217.663 321.105 218.695 321.433C218.747 321.236 218.8 321.036 218.846 320.835C217.841 320.513 216.849 320.132 215.87 319.755H215.873Z" fill="white"/>
<path d="M71.1182 300.162C67.5383 297.199 61.9747 296.407 55.8561 297.99C50.4041 299.4 45.7273 302.195 42.5153 305.891C42.7255 305.96 42.9324 306.036 43.1458 306.098C46.2725 302.59 50.7753 299.938 56.0104 298.585C61.932 297.051 67.2985 297.8 70.7241 300.635C72.3531 301.982 73.5059 303.733 74.3434 305.619C74.5536 305.596 74.767 305.569 74.9805 305.546C74.1036 303.516 72.8818 301.62 71.1182 300.159V300.162Z" fill="white"/>
<path d="M38.7482 259.426C45.458 257.757 52.0036 255.415 58.0434 251.936C60.326 250.622 62.9009 248.946 64.7138 246.486C66.6417 243.867 67.2821 240.75 66.4282 238.148C66.0932 237.126 65.4987 236.229 64.7565 235.513C64.5989 235.641 64.4412 235.773 64.2836 235.901C64.9765 236.561 65.5316 237.392 65.8436 238.342C66.6351 240.756 66.0308 243.664 64.2212 246.121C62.4772 248.49 59.9647 250.122 57.738 251.404C52.043 254.685 45.8817 256.955 39.5528 258.595C39.2835 258.871 39.0175 259.15 38.7515 259.426H38.7482Z" fill="white"/>
</g>
<path d="M146.496 244.764L146.486 245.815L146.319 262.153L146.299 263.923C146.269 266.693 145.133 269.203 143.3 271.026C141.478 272.836 138.968 273.973 136.19 273.992C130.59 274.022 126.009 269.524 125.956 263.913L125.759 243.723L146.496 244.764Z" fill="#F9B384"/>
<path d="M146.486 245.815L146.319 262.153C137.241 258.457 133.503 248.628 133.503 248.628L146.483 245.815H146.486Z" fill="#102048"/>
<path d="M150.076 217.307C153.327 221.213 162.829 243.338 153.199 250.888C142.364 259.383 125.874 245.421 125.874 245.421L123.66 219.649L137.973 215.874L150.076 217.307Z" fill="#F9B384"/>
<path d="M116.369 215.888C116.369 215.888 84.6198 232.451 110.507 280.195C113.83 286.328 121.197 289.002 127.496 286.013C134.255 282.803 136.814 274.544 133.142 268.023C128.909 260.5 124.82 250.809 126.567 243.601L116.369 215.891V215.888Z" fill="#102048"/>
<path d="M125.44 229.805C128.794 226.45 128.794 221.011 125.44 217.656C122.086 214.301 116.648 214.301 113.294 217.656C109.94 221.011 109.94 226.45 113.294 229.805C116.648 233.16 122.086 233.16 125.44 229.805Z" fill="#FBC343"/>
<path d="M129.933 234.048C129.004 228.69 128.439 225.014 133.855 222.251C133.855 222.251 152.94 225.723 156.582 218.519C160.224 211.318 154.674 199.951 143.051 207.846C113.295 202.031 109.305 229.886 118.327 239.17L127.23 237.803C129.024 237.527 130.242 235.832 129.933 234.045V234.048Z" fill="#102048"/>
<path d="M144.709 235.332C145.409 235.332 145.977 234.765 145.977 234.064C145.977 233.364 145.409 232.796 144.709 232.796C144.009 232.796 143.442 233.364 143.442 234.064C143.442 234.765 144.009 235.332 144.709 235.332Z" fill="#102048"/>
<path d="M153.298 231.101C153.998 231.101 154.565 230.533 154.565 229.833C154.565 229.133 153.998 228.565 153.298 228.565C152.597 228.565 152.03 229.133 152.03 229.833C152.03 230.533 152.597 231.101 153.298 231.101Z" fill="#102048"/>
<path d="M152.418 237.97C152.329 237.97 152.24 237.938 152.171 237.872C152.027 237.734 152.02 237.507 152.158 237.363C152.667 236.827 153.225 236.075 152.989 235.526C152.746 234.958 151.718 234.715 151.245 234.715C150.233 234.715 149.747 232.915 149.659 232.553C149.613 232.359 149.731 232.166 149.925 232.12C150.119 232.07 150.312 232.192 150.358 232.386C150.542 233.148 150.963 233.999 151.245 233.999C151.731 233.999 153.212 234.229 153.649 235.247C153.961 235.973 153.636 236.854 152.677 237.862C152.608 237.938 152.513 237.974 152.418 237.974V237.97Z" fill="#102048"/>
<path d="M147.278 241.206C147.347 241.206 147.416 241.226 147.478 241.269C149.866 242.882 152.28 241.528 152.303 241.515C152.473 241.417 152.693 241.476 152.792 241.647C152.89 241.817 152.831 242.038 152.661 242.136C152.546 242.202 149.833 243.723 147.074 241.863C146.91 241.752 146.867 241.528 146.979 241.364C147.048 241.262 147.163 241.206 147.278 241.206Z" fill="#102048"/>
<path d="M144.154 228.568C144.877 229.928 143.619 230.201 142.144 230.983C140.67 231.765 139.162 232.054 138.817 231.403C138.472 230.756 139.389 229.597 140.863 228.811C142.338 228.026 143.596 227.514 144.154 228.565V228.568Z" fill="#102048"/>
<path d="M149.527 226.114C149.846 227.327 150.749 226.798 152.063 226.453C153.377 226.108 154.441 225.447 154.29 224.869C154.138 224.291 152.95 224.101 151.633 224.445C150.316 224.79 149.278 225.178 149.524 226.118L149.527 226.114Z" fill="#102048"/>
<path opacity="0.4" d="M141.397 242.718C142.916 241.316 143.011 238.949 141.61 237.43C140.21 235.911 137.843 235.816 136.324 237.217C134.806 238.618 134.71 240.985 136.111 242.504C137.512 244.023 139.879 244.119 141.397 242.718Z" fill="#EB5D60"/>
<path d="M129.202 243.531C130.912 241.315 130.257 237.943 127.74 236C125.223 234.057 121.796 234.278 120.086 236.494C118.376 238.71 119.03 242.082 121.548 244.026C124.065 245.969 127.492 245.747 129.202 243.531Z" fill="#F9B384"/>
<path d="M126.872 241.877C126.675 241.877 126.514 241.716 126.514 241.518C126.514 240.457 125.999 239.478 125.132 238.894C124.393 238.394 123.509 238.279 122.77 238.578C122.586 238.65 122.376 238.565 122.301 238.381C122.225 238.197 122.314 237.987 122.498 237.911C123.457 237.52 124.59 237.662 125.529 238.296C126.593 239.012 127.23 240.214 127.23 241.515C127.23 241.712 127.069 241.873 126.872 241.873V241.877Z" fill="#102048"/>
<path d="M75.3912 267.966L62.4296 281.991L63.0325 282.549L75.9941 268.523L75.3912 267.966Z" fill="#102048"/>
<path d="M166.711 328.25L166.471 327.465C175.907 324.587 185.067 321.147 193.366 310.766L194.007 311.279C185.559 321.844 176.275 325.336 166.711 328.253V328.25Z" fill="#102048"/>
<path d="M172.449 296.446H92.1738C89.2869 296.446 86.9452 298.979 86.9452 302.103V359.433C86.9452 362.557 89.2869 365.09 92.1738 365.09H172.449C175.335 365.09 177.677 362.557 177.677 359.433V302.103C177.677 298.979 175.335 296.446 172.449 296.446Z" fill="#D3DFFF"/>
<path d="M136.551 327.143C136.857 327.143 137.103 327.409 137.103 327.741V333.792C137.103 334.121 136.857 334.39 136.551 334.39H128.074C127.769 334.39 127.523 334.124 127.523 333.792V327.741C127.523 327.412 127.769 327.143 128.074 327.143H136.551ZM136.551 325.5H128.074C126.866 325.5 125.88 326.506 125.88 327.741V333.792C125.88 335.027 126.866 336.033 128.074 336.033H136.551C137.76 336.033 138.745 335.027 138.745 333.792V327.741C138.745 326.506 137.76 325.5 136.551 325.5Z" fill="#1F3C88"/>
<path d="M484 424.357H0V426H484V424.357Z" fill="#102048"/>
</g>
<defs>
<clipPath id="clip0_2001_204">
<rect width="484" height="426" fill="white"/>
</clipPath>
</defs>
</svg>
