<svg width="80" height="80" viewBox="0 0 80 80" fill="none" xmlns="http://www.w3.org/2000/svg">
<g id="fi_6313483" clip-path="url(#clip0_194_385)">
<g id="Group">
<g id="Group_2">
<path id="Vector" d="M23.4836 39.9955L14.0457 45.8156L4.60767 47.074V31.9058L13.6524 32.9957L23.4836 39.9955Z" fill="#9698FF"/>
<path id="Vector_2" d="M40.0001 47.0741L42.3596 53.1039L40.0001 61.2311L26.2364 63.04L4.60767 47.0741L23.4836 39.9956L33.2362 41.3327L40.0001 47.0741Z" fill="#ABACFF"/>
<path id="Vector_3" d="M40.0001 47.0741V61.2311L54.996 58.2424L75.3926 47.0741L67.6849 42.5627L56.5166 39.9956L48.704 40.8345L40.0001 47.0741Z" fill="#9DA0FA"/>
<path id="Vector_4" d="M56.5166 39.9955L75.3926 47.074V31.9058H65.0632L56.5166 39.9955Z" fill="#9698FF"/>
<path id="Vector_5" d="M4.60767 14.831L23.4836 26.6252L40.0001 30.5577L44.0899 16.4007L40.0001 0L4.60767 14.831Z" fill="#E5E6FF"/>
<path id="Vector_6" d="M40.0001 0V30.5577L53.8425 29.509L75.3926 14.831L40.0001 0Z" fill="#BBBDFF"/>
<path id="Vector_7" d="M40.0001 30.5577L4.60767 14.8311V31.9059L40.0001 47.0742L44.0899 37.5837L40.0001 30.5577Z" fill="#BBBDFF"/>
<path id="Vector_8" d="M40.0001 47.0742L56.5166 39.9957L75.3926 31.9059V14.8311L40.0001 30.5577V47.0742Z" fill="#A7A9FF"/>
<path id="Vector_9" d="M4.60767 47.0742V64.8318L40.0001 80.0001L45.1385 69.0436L40.0001 61.2312L4.60767 47.0742Z" fill="#E5E6FF"/>
<path id="Vector_10" d="M40.0001 80.0001L75.3926 64.8318V47.0742L40.0001 61.2312V80.0001Z" fill="#BBBDFF"/>
</g>
</g>
</g>
<defs>
<clipPath id="clip0_194_385">
<rect width="80" height="80" fill="white"/>
</clipPath>
</defs>
</svg>
