<svg width="24" height="48" viewBox="0 0 24 48" fill="none" xmlns="http://www.w3.org/2000/svg">
<g id="Layer_1" clip-path="url(#clip0_194_1714)">
<path id="Vector" d="M18.3095 22.4817V27.5742H5.6757V22.4817H18.3095ZM19.0989 21.6982H4.88721V28.3586H19.0989V21.6982Z" fill="#FEBE29"/>
<path id="Vector_2" d="M18.3115 23.3295L22.2736 17.1595V0.655273H1.71191V17.1595L5.67317 23.3295H18.3115Z" fill="#E54F30"/>
<path id="Vector_3" d="M23.9265 36.077C23.9265 36.9591 23.8282 37.8163 23.6449 38.6424C22.5587 43.5395 18.4232 47.3004 13.3131 47.8547C12.8804 47.9018 12.4424 47.9267 11.999 47.9267C5.41206 47.9267 0.0722656 42.6219 0.0722656 36.077C0.0722656 29.5322 5.41206 24.2256 11.9981 24.2256C18.5841 24.2256 23.9257 29.5331 23.9257 36.077H23.9265Z" fill="#FB9F0E"/>
<path id="Vector_4" d="M11.9991 24.1533C5.3827 24.1533 0 29.5025 0 36.0776C0 42.6526 5.3827 48.0001 11.9991 48.0001C12.4336 48.0001 12.8779 47.9761 13.3204 47.9281C18.4322 47.373 22.6107 43.6475 23.7166 38.658C23.9043 37.8133 24 36.9454 24 36.0785C24 29.5034 18.6155 24.1542 11.9991 24.1542V24.1533ZM11.9991 46.3736C6.28474 46.3736 1.63689 41.7546 1.63689 36.0776C1.63689 30.4006 6.28563 25.7789 11.9991 25.7789C17.7126 25.7789 22.364 30.3988 22.364 36.0776C22.364 36.8273 22.2818 37.577 22.119 38.3072C21.1634 42.6153 17.5561 45.8318 13.1434 46.3115C12.7608 46.3523 12.3755 46.3745 12 46.3745L11.9991 46.3736Z" fill="#FFC935"/>
<path id="Vector_5" d="M21.1 35.9C21.1 35.9649 21.1 36.0262 21.0973 36.0866C21.0928 36.2953 21.0821 36.4996 21.0642 36.7039C21.0499 36.8656 21.0311 37.0282 21.0088 37.188C20.3866 41.6108 16.6032 45.0307 12.0001 45.1168C11.9402 45.1168 11.8812 45.1186 11.8204 45.1186C11.4217 45.1186 11.0274 45.0928 10.6412 45.044C10.5286 45.0307 10.4159 45.0138 10.3051 44.996C5.90127 44.2792 2.54346 40.4791 2.54346 35.9C2.54346 30.8075 6.69782 26.6797 11.8213 26.6797C16.9447 26.6797 21.1018 30.8075 21.1018 35.9H21.1Z" fill="white"/>
<path id="Vector_6" d="M21.2787 36.0778C21.2787 36.1426 21.2787 36.2039 21.276 36.2643C21.2715 36.4731 21.2608 36.6774 21.2429 36.8817C21.2286 37.0433 21.2098 37.2059 21.1875 37.3658C20.5653 41.7885 16.7819 45.2084 12.1788 45.2946C12.1189 45.2946 12.0599 45.2963 11.9991 45.2963C11.6004 45.2963 11.2061 45.2706 10.8199 45.2217C10.7073 45.2084 10.5946 45.1915 10.4838 45.1738C6.07999 44.4569 2.72217 40.6569 2.72217 36.0778C2.72217 30.9853 6.87653 26.8574 12 26.8574C17.1234 26.8574 21.2805 30.9853 21.2805 36.0778H21.2787Z" fill="#FEBE29"/>
<path id="Vector_7" opacity="0.2" d="M0.0722656 36.0779C0.0722656 42.6201 5.40848 47.924 11.9927 47.9276V24.2256C5.40848 24.2291 0.0722656 29.5348 0.0722656 36.077V36.0779Z" fill="white"/>
<path id="Vector_8" d="M18.3097 0.655273H5.70361V23.3295H18.3097V0.655273Z" fill="white"/>
<path id="Vector_9" d="M15.4041 0.655273H8.60889V23.3295H15.4041V0.655273Z" fill="#0D2038"/>
<path id="Vector_10" d="M23.361 0H0.652832V1.3111H23.361V0Z" fill="#FEBE29"/>
<path id="Vector_11" d="M16.5667 42.2278L12.3417 40.0071L8.10599 42.2065L8.92578 37.528L5.51074 34.2049L10.2426 33.5334L12.3685 29.2803L14.473 33.544L19.2013 34.2387L15.7701 37.5448L16.5667 42.2278Z" fill="#F39C12"/>
<path id="Vector_12" d="M16.1194 41.7835L11.8944 39.5628L7.65872 41.7622L8.47851 37.0836L5.06348 33.7606L9.79535 33.089L11.9213 28.8359L14.0257 33.0997L18.754 33.7943L15.3229 37.1005L16.1194 41.7835Z" fill="white"/>
<path id="Vector_13" d="M16.2088 41.8724L11.9838 39.6517L7.74808 41.8511L8.56787 37.1725L5.15283 33.8494L9.88471 33.1779L12.0106 28.9248L14.1151 33.1885L18.8434 33.8832L15.4122 37.1894L16.2088 41.8724Z" fill="#FEBE29"/>
</g>
<defs>
<clipPath id="clip0_194_1714">
<rect width="24" height="48" fill="white"/>
</clipPath>
</defs>
</svg>
