<svg width="284" height="230" viewBox="0 0 284 230" fill="none" xmlns="http://www.w3.org/2000/svg">
<circle cx="169" cy="115" r="115" fill="#00C064"/>
<path d="M87.6827 196.317C98.3615 206.996 111.039 215.467 124.991 221.246C138.944 227.025 153.898 230 169 230C184.102 230 199.056 227.025 213.009 221.246C226.961 215.467 239.639 206.996 250.317 196.317L242.069 188.069C232.473 197.664 221.082 205.276 208.545 210.469C196.007 215.662 182.57 218.335 169 218.335C155.43 218.335 141.993 215.662 129.455 210.469C116.918 205.276 105.527 197.665 95.9311 188.069L87.6827 196.317Z" fill="#00EAA4"/>
<circle cx="4.5" cy="115.5" r="4.5" transform="rotate(90 4.5 115.5)" fill="#454545"/>
<line x1="6" y1="115.5" x2="55" y2="115.5" stroke="#454545"/>
</svg>
