<svg width="230" height="285" viewBox="0 0 230 285" fill="none" xmlns="http://www.w3.org/2000/svg">
<circle cx="115" cy="170" r="115" fill="#00C064"/>
<path d="M33.6827 251.317C44.3615 261.996 57.039 270.467 70.9914 276.246C84.9439 282.025 99.898 285 115 285C130.102 285 145.056 282.025 159.009 276.246C172.961 270.467 185.639 261.996 196.317 251.317L188.069 243.069C178.473 252.664 167.082 260.276 154.545 265.469C142.007 270.662 128.57 273.335 115 273.335C101.43 273.335 87.9926 270.662 75.4554 265.469C62.9182 260.276 51.5266 252.665 41.9311 243.069L33.6827 251.317Z" fill="#00EAA4"/>
<circle cx="115.5" cy="4.5" r="4.5" transform="rotate(-180 115.5 4.5)" fill="#454545"/>
<line x1="115.5" y1="4" x2="115.5" y2="55" stroke="#454545"/>
</svg>
