<svg width="20" height="20" viewBox="0 0 20 20" fill="none" xmlns="http://www.w3.org/2000/svg">
<circle cx="10" cy="10" r="10" fill="#3FAEFF"/>
<path d="M9.8291 2.93555C9.92596 2.88608 10.0537 2.88386 10.1572 2.96582L10.1582 2.96484C10.2034 2.99675 10.6384 3.33008 11.0195 3.83398C11.3762 4.30558 11.7005 4.94621 11.5859 5.6377L11.5566 5.77637C11.4692 6.12586 11.3317 6.56472 11.2441 6.97559C11.2008 7.17884 11.1724 7.36732 11.1689 7.52441C11.1654 7.68551 11.1894 7.79508 11.2334 7.85645L11.2715 7.89746C11.3183 7.93684 11.3902 7.96934 11.4873 7.98633C11.6142 8.00853 11.7729 8.00153 11.9424 7.9541C12.2802 7.85952 12.6523 7.60828 12.8887 7.13867L12.8926 7.13184L12.9375 7.07227C13.0564 6.94687 13.262 6.92436 13.3994 7.05957V7.06055L13.6348 7.30664C15.9656 9.89013 15.3747 13.5585 12.8555 15.2236L12.8564 15.2246C12.0269 15.8257 10.8042 16.0995 9.78223 16.0996H9.77734L9.26758 16.0791H9.2627C7.31572 15.903 5.9847 14.7319 5.34277 13.1748C4.74223 11.7179 4.7439 9.92309 5.39844 8.28223L5.53809 7.95605C5.65362 7.70165 6.01639 7.71884 6.11426 7.95703L6.13086 8.00684V8.00977L6.18457 8.20703C6.25863 8.42649 6.39295 8.69828 6.58594 8.89453C6.71298 9.02369 6.86117 9.11594 7.03027 9.14453C7.19828 9.17285 7.40008 9.13984 7.63867 8.99805C7.81551 8.89112 7.8764 8.77832 7.88867 8.65918C7.90205 8.5287 7.85929 8.3744 7.78809 8.18262C7.65094 7.81332 7.41552 7.33009 7.50586 6.78027C7.55048 6.49056 7.66253 6.15508 7.90918 5.84766C8.15313 5.54362 8.52441 5.27237 9.08008 5.09961C9.21474 4.97199 9.70985 4.421 9.66016 3.21777L9.66113 3.2168C9.65425 3.08776 9.73238 2.98507 9.8291 2.93555ZM9.79199 10.1533C9.35487 10.7536 8.7851 11.5499 8.29297 12.3604C7.78266 13.2008 7.36632 14.043 7.25781 14.6924C8.66927 15.7506 10.8356 15.7078 12.3486 14.8076C12.3113 14.5019 12.197 14.1389 12.0234 13.7441C11.8384 13.3232 11.5925 12.8719 11.3223 12.4229C10.8143 11.5787 10.2228 10.7488 9.79199 10.1533ZM10.2529 3.89453C10.1858 4.44012 10.0143 4.85097 9.83496 5.13867C9.73408 5.30042 9.63065 5.42348 9.54297 5.50977C9.49934 5.55268 9.45889 5.58753 9.42383 5.61328C9.40732 5.62539 9.38977 5.63683 9.37305 5.64648L9.32422 5.66992L9.32031 5.6709C8.96122 5.77183 8.68576 5.92663 8.48828 6.12695C8.29163 6.32654 8.16716 6.57615 8.11719 6.87598C8.08398 7.08493 8.12588 7.29354 8.19727 7.50879C8.23296 7.61639 8.27548 7.72308 8.31836 7.83203C8.3609 7.94012 8.40413 8.05117 8.43945 8.16113C8.50984 8.38039 8.55265 8.61082 8.49316 8.84375C8.43297 9.07935 8.27269 9.3012 7.96973 9.51172L7.96875 9.51074C7.77079 9.65326 7.52253 9.73124 7.27832 9.75195C7.03412 9.77262 6.78589 9.7373 6.58691 9.64551V9.64648C6.24095 9.49417 5.99482 9.20206 5.83105 8.92188C5.2253 10.7982 5.50092 12.8921 6.72656 14.2168C6.93916 13.4686 7.40601 12.5979 7.92383 11.7744C8.48353 10.8844 9.10702 10.0382 9.54199 9.44336C9.60151 9.35537 9.70067 9.31653 9.79199 9.31641C9.88329 9.31641 9.98235 9.35552 10.042 9.44336H10.043C10.5046 10.0748 11.1576 10.9633 11.7295 11.8877C12.2611 12.747 12.7257 13.6492 12.9014 14.4102C14.7581 12.8621 15.097 9.94082 13.2158 7.78027C12.924 8.1503 12.3483 8.6903 11.4932 8.60938H11.4922C11.1208 8.57331 10.8688 8.43514 10.7178 8.21484C10.5699 7.99899 10.5312 7.72131 10.5449 7.43066C10.5587 7.13869 10.626 6.81909 10.7061 6.50879C10.7462 6.35328 10.7901 6.19865 10.832 6.0498C10.8741 5.90054 10.9141 5.75732 10.9482 5.62305H10.9492L10.9746 5.48828C11.0146 5.17449 10.9183 4.85873 10.7578 4.56738C10.6161 4.31005 10.4274 4.07888 10.2529 3.89453Z" fill="white" stroke="white" stroke-width="0.2"/>
</svg>
