<svg width="20" height="20" viewBox="0 0 20 20" fill="none" xmlns="http://www.w3.org/2000/svg">
<circle cx="10" cy="10" r="10" fill="#3FAEFF"/>
<path d="M10.0178 10.9866C9.9497 10.9867 9.88228 10.9733 9.81945 10.9471L3.31396 8.21287C3.2239 8.17505 3.14653 8.11228 3.09097 8.03195C3.03541 7.95163 3.00397 7.85709 3.00035 7.75948C2.99674 7.66188 3.0211 7.56527 3.07057 7.48105C3.12004 7.39683 3.19255 7.32851 3.27956 7.28414L9.78432 3.95638C9.85667 3.91926 9.93683 3.8999 10.0181 3.8999C10.0995 3.8999 10.1796 3.91926 10.252 3.95638L16.7223 7.28414C16.8089 7.32874 16.881 7.39709 16.9301 7.48119C16.9792 7.56528 17.0033 7.66163 16.9996 7.75894C16.9959 7.85626 16.9646 7.9505 16.9093 8.03064C16.8539 8.11077 16.7769 8.17348 16.6872 8.2114L10.2198 10.9464C10.1559 10.9735 10.0872 10.9872 10.0178 10.9866ZM4.72644 7.69325L10.0171 9.91737L15.2791 7.69325L10.0171 4.98537L4.72644 7.69325Z" fill="white"/>
<path d="M10.0001 15.2532C7.08729 15.2532 4.71826 13.1571 4.71826 10.581C4.72064 9.82076 4.92714 9.07513 5.31619 8.422C5.37922 8.31537 5.47875 8.2352 5.59635 8.19631C5.71396 8.15743 5.84166 8.16246 5.95583 8.21049L10.0184 9.91865L14.0495 8.21488C14.1637 8.16665 14.2916 8.16151 14.4094 8.2004C14.5271 8.2393 14.6268 8.31959 14.6898 8.42639C15.0763 9.07825 15.2813 9.82169 15.2834 10.5795C15.2819 13.1557 12.9129 15.2532 10.0001 15.2532ZM5.99609 9.34048C5.82832 9.7325 5.74216 10.1546 5.74286 10.581C5.74286 12.5921 7.65228 14.2286 10.0001 14.2286C12.3479 14.2286 14.2573 12.5921 14.2573 10.581C14.2579 10.1565 14.1727 9.73636 14.007 9.3456L10.2196 10.9462C10.1567 10.9726 10.0892 10.9863 10.0209 10.9863C9.9527 10.9863 9.88514 10.9726 9.82224 10.9462L5.99609 9.34048Z" fill="white"/>
<path d="M16.4874 11.2842C16.3515 11.2842 16.2212 11.2303 16.1251 11.1342C16.0291 11.0381 15.9751 10.9078 15.9751 10.7719V7.73984C15.9751 7.60397 16.0291 7.47366 16.1251 7.37759C16.2212 7.28151 16.3515 7.22754 16.4874 7.22754C16.6233 7.22754 16.7536 7.28151 16.8496 7.37759C16.9457 7.47366 16.9997 7.60397 16.9997 7.73984V10.7719C16.9997 10.9078 16.9457 11.0381 16.8496 11.1342C16.7536 11.2303 16.6233 11.2842 16.4874 11.2842Z" fill="white"/>
</svg>
