<svg width="20" height="20" viewBox="0 0 20 20" fill="none" xmlns="http://www.w3.org/2000/svg">
<circle cx="10" cy="10" r="10" fill="#3FAEFF"/>
<path d="M7.25 13.0833V9.58325C7.25 9.42854 7.18854 9.28017 7.07915 9.17077C6.96975 9.06138 6.82138 8.99992 6.66667 8.99992H4.33333C4.17862 8.99992 4.03025 9.06138 3.92085 9.17077C3.81146 9.28017 3.75 9.42854 3.75 9.58325V13.0833C3.75 13.238 3.81146 13.3863 3.92085 13.4957C4.03025 13.6051 4.17862 13.6666 4.33333 13.6666M7.25 13.0833C7.25 13.238 7.18854 13.3863 7.07915 13.4957C6.96975 13.6051 6.82138 13.6666 6.66667 13.6666H4.33333M7.25 13.0833C7.25 13.238 7.31146 13.3863 7.42085 13.4957C7.53025 13.6051 7.67862 13.6666 7.83333 13.6666H10.1667C10.3214 13.6666 10.4697 13.6051 10.5791 13.4957C10.6885 13.3863 10.75 13.238 10.75 13.0833M7.25 13.0833V7.24992C7.25 7.09521 7.31146 6.94684 7.42085 6.83744C7.53025 6.72804 7.67862 6.66659 7.83333 6.66659H10.1667C10.3214 6.66659 10.4697 6.72804 10.5791 6.83744C10.6885 6.94684 10.75 7.09521 10.75 7.24992V13.0833M4.33333 13.6666H12.5M10.75 13.0833C10.75 13.238 10.8115 13.3863 10.9209 13.4957C11.0303 13.6051 11.1786 13.6666 11.3333 13.6666H13.6667C13.8214 13.6666 13.9697 13.6051 14.0791 13.4957C14.1885 13.3863 14.25 13.238 14.25 13.0833V4.91659C14.25 4.76188 14.1885 4.6135 14.0791 4.50411C13.9697 4.39471 13.8214 4.33325 13.6667 4.33325H11.3333C11.1786 4.33325 11.0303 4.39471 10.9209 4.50411C10.8115 4.6135 10.75 4.76188 10.75 4.91659V13.0833Z" stroke="white" stroke-linecap="round" stroke-linejoin="round"/>
</svg>
