<svg width="160" height="160" viewBox="0 0 160 160" fill="none" xmlns="http://www.w3.org/2000/svg">
<g id="studying 1" clip-path="url(#clip0_194_1221)">
<g id="Clip path group">
<mask id="mask0_194_1221" style="mask-type:luminance" maskUnits="userSpaceOnUse" x="56" y="50" width="15" height="29">
<g id="a">
<path id="Vector" d="M56.6719 50.4971H70.9031V78.9846H56.6719V50.4971Z" fill="white"/>
</g>
</mask>
<g mask="url(#mask0_194_1221)">
<g id="Group">
<path id="Vector_2" d="M56.6719 50.4971H70.9031V78.9846H56.6719V50.4971Z" fill="#F9CCB4"/>
<path id="Vector_3" d="M55.0874 61.3848C55.5749 61.8629 60.2093 66.2504 66.4312 65.0941C68.9604 64.595 71.2727 63.3242 73.0499 61.4566C73.0249 58.1379 73.0009 54.8171 72.978 51.4941H54.228L55.0874 61.3848Z" fill="#E8A88A"/>
</g>
</g>
</g>
<path id="Vector_4" d="M67.3377 69.1377C71.2471 68.4877 77.3814 68.1159 83.5877 70.8909C85.7252 71.8471 91.3189 74.7159 101.435 93.8377C109.291 108.685 114.781 119.341 110.519 124.594C110.019 125.219 108.925 126.319 102.081 127.941C95.4497 129.511 88.6591 130.312 81.8439 130.328L80.7283 123L93.7939 114.713L78.1252 91.8752C69.6877 87.3752 65.9033 78.4159 67.3377 69.1377Z" fill="#F9CCB4"/>
<path id="Vector_5" d="M81.2229 35.8072C81.32 37.0978 81.191 38.3954 80.8417 39.6416C80.6854 40.1822 79.7636 43.7416 78.6292 47.4104C77.5761 50.8229 73.8792 62.0541 64.6917 62.601C57.1167 62.976 51.5479 54.2291 49.3792 47.1041C49.0104 44.8416 47.2948 38.2291 47.1917 35.3854C47.1763 34.8071 47.2034 34.2284 47.2729 33.6541C47.2729 33.6541 47.4917 23.4635 53.5229 17.801C54.852 16.5579 56.4218 15.6007 58.1354 14.9885C58.6261 14.8947 63.6729 12.276 70.6198 14.9478L70.9011 14.9885C81.4667 18.7447 81.7792 33.6541 81.7792 33.6541C81.5979 34.3197 81.4104 35.051 81.2229 35.8072Z" fill="#F9CCB4"/>
<path id="Vector_6" d="M59.375 51.1438L68.8813 50.625C68.8127 51.8002 68.3139 52.909 67.4799 53.7399C66.6459 54.5708 65.5352 55.0655 64.3598 55.1296C63.1843 55.1937 62.0264 54.8228 61.107 54.0877C60.1876 53.3525 59.571 52.3045 59.375 51.1438Z" fill="#2D1929"/>
<g id="Group_2">
<path id="Vector_7" d="M63.9717 47.3783C62.6279 47.0346 61.8435 46.5033 61.6373 45.7908C61.1779 44.2096 63.8498 43.2908 63.456 38.3533C63.4544 38.3328 63.4568 38.3122 63.4631 38.2926C63.4695 38.273 63.4796 38.2549 63.493 38.2392C63.5063 38.2235 63.5226 38.2106 63.5409 38.2013C63.5593 38.1919 63.5793 38.1862 63.5998 38.1846C63.6203 38.1829 63.6409 38.1854 63.6605 38.1917C63.6801 38.198 63.6983 38.2082 63.7139 38.2215C63.7296 38.2349 63.7425 38.2512 63.7519 38.2695C63.7612 38.2878 63.7669 38.3078 63.7685 38.3283C64.1685 43.3533 61.5342 44.319 61.9373 45.7033C62.1092 46.3002 62.8217 46.7627 64.0498 47.0752C64.09 47.0856 64.1244 47.1115 64.1455 47.1472C64.1666 47.183 64.1726 47.2256 64.1623 47.2658C64.1519 47.306 64.126 47.3405 64.0903 47.3616C64.0545 47.3827 64.0119 47.3887 63.9717 47.3783Z" fill="#2D1929"/>
<path id="Vector_8" d="M58.5342 39.3906C58.5342 40.6 57.9092 41.5781 57.1217 41.5781C56.3342 41.5781 55.7092 40.6031 55.7061 39.3906C55.7029 38.1781 56.3311 37.2031 57.1186 37.2031C57.9061 37.2031 58.5342 38.1844 58.5342 39.3906Z" fill="#2D1929"/>
<path id="Vector_9" d="M53.5406 33.9067C53.4767 33.9067 53.4143 33.8871 53.3619 33.8506C53.3095 33.8141 53.2695 33.7624 53.2474 33.7024C53.2252 33.6425 53.222 33.5772 53.2381 33.5154C53.2542 33.4536 53.2889 33.3982 53.3374 33.3567C53.3687 33.3317 56.4624 30.716 59.9937 32.7317C60.0658 32.7731 60.1185 32.8415 60.1402 32.9218C60.1618 33.0021 60.1507 33.0877 60.1093 33.1598C60.0679 33.2319 59.9995 33.2846 59.9192 33.3063C59.8389 33.328 59.7533 33.3169 59.6812 33.2754C56.5562 31.4879 53.8531 33.741 53.7437 33.8379C53.6862 33.8841 53.6143 33.9084 53.5406 33.9067Z" fill="#2D1929"/>
<path id="Vector_10" d="M72.3345 39.3936C72.3345 40.6029 71.7095 41.5811 70.9188 41.5811C70.1282 41.5811 69.5063 40.6029 69.5063 39.3936C69.5063 38.1842 70.1314 37.2061 70.9251 37.2061C71.7189 37.2061 72.3376 38.1873 72.3345 39.3936Z" fill="#2D1929"/>
<path id="Vector_11" d="M74.5001 33.9062C74.4256 33.9062 74.3536 33.8796 74.297 33.8312C74.1845 33.7344 71.4845 31.4812 68.3595 33.2687C68.2874 33.3102 68.2018 33.3213 68.1215 33.2996C68.0412 33.2779 67.9728 33.2252 67.9314 33.1531C67.8899 33.081 67.8788 32.9954 67.9005 32.9151C67.9222 32.8348 67.9749 32.7664 68.047 32.725C71.5688 30.7156 74.6751 33.3312 74.7063 33.35C74.7576 33.391 74.7947 33.4472 74.8122 33.5105C74.8297 33.5738 74.8269 33.641 74.804 33.7026C74.7812 33.7641 74.7396 33.817 74.685 33.8535C74.6304 33.8901 74.5657 33.9085 74.5001 33.9062Z" fill="#2D1929"/>
</g>
<path id="Vector_12" d="M40.8125 127.59C40.9594 123.365 41.3469 112 41.875 95.4405C42.25 83.7123 42.3469 80.3811 44.85 76.9561C52.6469 66.2936 76.0125 65.3655 84.1562 75.2561C86.6562 78.2936 86.9125 81.3623 86.7062 103.94C86.625 112.828 86.5094 120.778 86.3937 127.59H40.8125Z" fill="#287EEF"/>
<path id="Vector_13" d="M86.3873 127.591C86.4623 123.491 86.5311 118.975 86.5936 114.097C83.1561 115.972 73.7498 120.828 69.1842 120.375C63.5592 119.819 62.3967 113.444 58.5592 111.725C54.7217 110.006 52.3436 115.516 49.2904 114.081C46.2373 112.647 47.5779 92.1689 47.5779 92.1689C46.5633 98.1981 45.5498 104.227 44.5373 110.256L41.2811 113.297C41.0529 120.231 40.8842 125.128 40.7998 127.591H86.3873Z" fill="#1573D8"/>
<path id="Vector_14" d="M81.7376 122.044C81.7376 122.044 74.6126 122.356 72.5938 123.856C70.5751 125.356 66.772 128 67.2813 129.169C68.1532 131.122 74.8657 130.615 81.8251 130.019C87.4688 129.537 88.7845 128.884 89.7938 128.028C93.4001 124.962 93.9001 118.559 92.0251 117.353C90.6157 116.447 87.5845 118.272 84.6126 120.059C83.6157 120.663 82.6557 121.326 81.7376 122.044Z" fill="#F9CCB4"/>
<path id="Vector_15" d="M105.191 148.209H40.3721L52.0721 128.062H93.4908L105.191 148.209Z" fill="#C6C6C6"/>
<path id="Vector_16" d="M103.616 145.459C93.6785 142.876 83.2003 143.278 73.4905 146.615C63.3474 142.983 52.3286 142.579 41.9468 145.459L53.078 125.312C59.7652 124.407 66.5683 124.933 73.0374 126.853C79.1758 124.2 86.0206 123.659 92.4999 125.312L103.616 145.459Z" fill="#E9FAFF"/>
<path id="Vector_17" d="M105.191 150.056C94.6478 148.545 83.9432 148.545 73.4002 150.056C62.4352 148.659 51.3371 148.659 40.3721 150.056V148.21C51.2884 146.074 62.513 146.052 73.4377 148.144C83.951 146.348 94.6944 146.371 105.2 148.21L105.191 150.056Z" fill="#E73F46"/>
<path id="Vector_18" d="M58.5344 69.1313C58.5344 69.1313 45.6125 69.8876 39.6625 77.3251C33.7125 84.7626 26.2782 118.513 30.1 124.903C36.6625 135.863 54.8188 138.028 54.9063 137.825C54.9344 137.759 53.4719 137.072 51.9844 136.391C52.6948 133.772 53.4032 131.152 54.1094 128.531L43.1719 117.906C44.9594 107.49 46.7479 97.0793 48.5375 86.6751C48.5375 86.6751 64.7125 77.0876 58.5344 69.1313Z" fill="#F9CCB4"/>
<path id="Vector_19" d="M62.5001 68.5284C58.622 68.3971 46.3907 68.469 39.4438 76.6877C37.9126 78.5002 35.3813 82.4971 33.8188 87.5221C32.7407 90.9596 31.0938 100.335 30.3813 105.516C34.771 108.596 39.9519 110.351 45.3095 110.575C47.5407 103.461 49.7709 96.3429 52.0001 89.2221C52.0001 89.2221 72.3876 72.8127 62.5001 68.5284Z" fill="#287EEF"/>
<path id="Vector_20" d="M66.5405 68.3749C66.5405 68.3749 80.403 65.7999 88.4499 73.2874C96.4968 80.7749 103.781 97.9749 103.781 97.9749L89.5343 108.194L82.5812 98.5061L66.5405 68.3749Z" fill="#287EEF"/>
<path id="Vector_21" d="M71.3626 63.8345H56.2126C55.8053 63.8345 55.4751 64.1647 55.4751 64.572V70.7157C55.4751 71.123 55.8053 71.4532 56.2126 71.4532H71.3626C71.7699 71.4532 72.1001 71.123 72.1001 70.7157V64.572C72.1001 64.1647 71.7699 63.8345 71.3626 63.8345Z" fill="#287EEF"/>
<path id="Vector_22" d="M66.8435 136.959C67.081 138.309 67.3196 139.664 67.5592 141.022L64.1904 138.494L52.5185 118.094C52.4105 117.754 52.4223 117.387 52.5519 117.054C52.6815 116.721 52.9211 116.443 53.2309 116.265C53.5406 116.088 53.9018 116.022 54.2544 116.078C54.6069 116.135 54.9295 116.31 55.1685 116.575L66.8435 136.959Z" fill="#2D1929"/>
<path id="Vector_23" d="M54.9061 137.812C54.5458 137.566 54.1616 137.357 53.7592 137.188L53.5029 137.675C53.9639 137.774 54.4346 137.82 54.9061 137.812Z" fill="#834A27"/>
<path id="Vector_24" d="M45.5062 131.46C45.5062 131.46 39.1 132.069 32.9688 128.535C39.3406 134.878 49.75 137.163 53.5031 137.703L53.7594 137.216C53.2469 136.972 52.6188 136.681 51.9844 136.391C52.4135 134.816 52.8406 133.24 53.2656 131.663L50.8438 125.625C50.8438 125.625 48.0562 125.494 45.5062 131.46Z" fill="#E8A88A"/>
<path id="Vector_25" d="M53.497 124.581C53.497 124.581 59.2251 123.859 60.5751 124.581C61.9251 125.303 65.4813 132.884 65.1907 133.994C64.9001 135.103 61.6688 131.622 61.6688 131.622C61.6688 131.622 64.2657 134.747 60.5751 134.797C60.5751 134.797 61.4157 137.565 58.7282 136.672C58.7282 136.672 58.9032 138.6 57.3251 138.644C56.8501 138.659 50.0376 138.662 48.1157 133.512C47.9001 132.937 46.8376 130.075 48.5345 127.456C50.1782 124.922 53.1251 124.615 53.497 124.581Z" fill="#F9CCB4"/>
<path id="Vector_26" d="M76.7468 142.725C75.6843 142.453 76.0781 140.072 76.1218 139.8C76.1293 139.759 76.1529 139.722 76.1875 139.698C76.222 139.674 76.2648 139.665 76.3062 139.672C76.3476 139.68 76.3844 139.703 76.4084 139.738C76.4325 139.772 76.4418 139.815 76.4343 139.856C76.3249 140.481 76.1624 142.253 76.8249 142.422C77.2218 142.522 78.0124 141.463 78.6437 140.613C79.3531 139.675 80.0218 138.76 80.5906 138.641C81.8406 138.385 81.5531 140.203 82.4468 141.01C83.2249 141.703 85.3781 138.313 86.1968 137.885C87.1781 137.369 87.3249 139.344 88.3843 140.25C89.3218 141.044 90.075 138.1 91.5281 137.75C93.0906 137.366 92.4281 139.397 93.4843 140.066C94.2937 140.578 95.4187 138.572 95.7968 137.703C95.805 137.684 95.8168 137.667 95.8316 137.653C95.8464 137.639 95.8639 137.627 95.883 137.62C95.9022 137.612 95.9227 137.609 95.9433 137.609C95.9639 137.609 95.9842 137.614 96.0031 137.622C96.022 137.63 96.0391 137.642 96.0535 137.657C96.0678 137.672 96.0791 137.689 96.0866 137.708C96.0942 137.727 96.0978 137.748 96.0975 137.769C96.0971 137.789 96.0926 137.809 96.0843 137.828C95.5812 138.981 94.3812 141.003 93.3156 140.328C92.7562 139.975 92.5968 139.36 92.4687 138.866C92.2937 138.197 92.1906 137.906 91.6031 138.053C90.4968 138.325 89.7624 140.591 88.7906 140.71C88.0687 140.8 87.4468 139.619 87.1187 138.972C86.9156 138.575 86.725 138.2 86.5281 138.138C85.8687 137.925 83.4468 142.331 82.2343 141.263C81.2968 140.422 81.5281 138.785 80.6499 138.966C79.6249 139.16 77.8656 143.01 76.7468 142.725Z" fill="#2D1929"/>
<path id="Vector_27" d="M49.8344 142.89C48.85 142.65 49.1938 140.75 49.2344 140.531C49.2434 140.49 49.268 140.455 49.3029 140.432C49.3379 140.409 49.3804 140.401 49.4213 140.409C49.4622 140.417 49.4983 140.441 49.5218 140.476C49.5453 140.51 49.5543 140.552 49.5469 140.594C49.4469 141.1 49.3188 142.444 49.9125 142.587C50.6282 142.762 52.4719 139.828 53.5688 139.665C54.8188 139.484 54.4094 141.009 55.1875 141.665C55.8563 142.228 58.3375 139.503 59.1813 139.165C59.2582 139.129 59.3417 139.109 59.4266 139.107C59.5114 139.104 59.596 139.119 59.675 139.15C60.2469 139.397 60.2438 140.6 60.9813 141.237C61.7188 141.875 63.125 139.453 64.6157 139.187C64.7469 139.147 64.8855 139.135 65.0216 139.154C65.1577 139.173 65.2879 139.222 65.4032 139.297C65.9157 139.719 65.3563 140.781 66.0282 141.225C66.6532 141.628 68.2157 140.222 69.0688 139.237C69.0961 139.206 69.1349 139.186 69.1765 139.184C69.2181 139.181 69.2592 139.194 69.2907 139.222C69.3222 139.249 69.3415 139.288 69.3444 139.329C69.3474 139.371 69.3336 139.412 69.3063 139.444C69.0625 139.725 66.8969 142.172 65.8688 141.484C65.375 141.172 65.3625 140.612 65.3532 140.175C65.3532 139.578 65.3063 139.384 64.6844 139.494C63.2219 139.753 61.8532 142.39 60.7907 141.472C60.0282 140.815 59.9313 139.597 59.5625 139.437C58.9375 139.165 56.0688 142.806 55 141.903C54.1313 141.172 54.5219 139.837 53.6282 139.975C52.5969 140.125 50.8469 143.125 49.8344 142.89Z" fill="#2D1929"/>
<path id="Vector_28" d="M75.7529 137.206C74.7591 136.966 75.156 134.916 75.2029 134.684C75.2112 134.643 75.2356 134.607 75.2708 134.583C75.3059 134.56 75.349 134.551 75.3904 134.559C75.4318 134.568 75.4683 134.592 75.4917 134.627C75.5152 134.663 75.5237 134.706 75.5154 134.747C75.4091 135.263 75.2373 136.759 75.8279 136.903C76.5685 137.081 78.3029 133.903 79.3748 133.709C80.5404 133.494 80.2529 135.069 81.0529 135.747C81.7529 136.338 83.8248 133.459 84.581 133.103C85.5185 132.666 85.606 134.353 86.5748 135.147C87.406 135.816 88.2123 133.309 89.5623 133.016C90.4248 132.825 90.5716 133.413 90.6998 133.931C90.7998 134.341 90.906 134.769 91.3248 135.013C92.0591 135.453 93.1591 133.763 93.5498 133.006C93.559 132.988 93.5718 132.972 93.5874 132.959C93.603 132.945 93.6211 132.935 93.6406 132.929C93.6601 132.923 93.6807 132.921 93.701 132.923C93.7214 132.925 93.7411 132.931 93.7591 132.941C93.7954 132.96 93.8226 132.993 93.8349 133.032C93.8472 133.071 93.8435 133.114 93.8248 133.15C93.3154 134.144 92.1341 135.866 91.1623 135.281C90.6466 134.969 90.5154 134.434 90.4091 134.006C90.2654 133.428 90.1841 133.2 89.6404 133.319C88.3904 133.594 87.5654 136.331 86.3904 135.388C85.9912 135.017 85.6721 134.568 85.4529 134.069C84.9216 133.047 84.8935 133.097 83.6498 134.381C82.6685 135.397 81.5591 136.55 80.881 135.978C80.0216 135.253 80.256 133.863 79.4591 134.009C78.4654 134.191 76.7841 137.456 75.7529 137.206Z" fill="#2D1929"/>
<path id="Vector_29" d="M73.0842 131.772C72.7279 131.181 73.0498 129.95 73.0623 129.897C73.0677 129.876 73.077 129.857 73.0898 129.84C73.1025 129.823 73.1185 129.809 73.1368 129.798C73.1551 129.787 73.1753 129.78 73.1963 129.778C73.2173 129.775 73.2387 129.776 73.2592 129.781C73.2797 129.787 73.299 129.796 73.3159 129.809C73.3328 129.821 73.347 129.837 73.3578 129.856C73.3685 129.874 73.3756 129.894 73.3785 129.915C73.3814 129.936 73.3802 129.958 73.3748 129.978C73.2436 130.478 73.0623 131.659 73.5842 131.778C74.2623 131.931 75.9873 129.241 76.9873 129.081C78.0811 128.903 77.7717 130.266 78.4779 130.834C79.1029 131.334 81.1561 128.891 81.8623 128.597C82.7467 128.231 82.7998 129.706 83.6342 130.362C84.3748 130.934 85.2404 128.8 86.5123 128.556C87.3373 128.397 87.4498 128.937 87.5467 129.369C87.5566 129.549 87.6069 129.724 87.694 129.882C87.7812 130.04 87.9028 130.177 88.0498 130.281C88.7217 130.669 89.8498 129.184 90.2373 128.578C90.2468 128.558 90.2605 128.541 90.2773 128.526C90.2941 128.512 90.3138 128.501 90.335 128.495C90.3561 128.489 90.3784 128.488 90.4002 128.491C90.4221 128.494 90.443 128.502 90.4616 128.513C90.4803 128.525 90.4962 128.541 90.5084 128.559C90.5206 128.577 90.5288 128.598 90.5324 128.62C90.536 128.642 90.535 128.664 90.5294 128.685C90.5237 128.707 90.5137 128.727 90.4998 128.744C90.3467 128.994 88.9373 131.156 87.9029 130.55C87.717 130.425 87.5617 130.26 87.4486 130.067C87.3354 129.874 87.2675 129.657 87.2498 129.434C87.153 128.972 87.1061 128.759 86.5811 128.862C85.3998 129.091 84.5061 131.425 83.4561 130.609C83.0946 130.294 82.8084 129.903 82.6186 129.462C82.1811 128.609 82.1654 128.625 80.9373 129.734C79.9842 130.597 78.9029 131.575 78.2936 131.078C77.5123 130.453 77.7998 129.272 77.0436 129.391C75.9967 129.553 73.9373 133.191 73.0842 131.772Z" fill="#2D1929"/>
<path id="Vector_30" d="M43.1687 117.906C43.1687 117.906 38.0968 118.066 35.3062 120.375C35.3062 120.375 38.7437 115.556 43.6374 115.178L43.1687 117.906Z" fill="#E8A88A"/>
<path id="Vector_31" d="M93.7873 114.4C93.7873 114.4 100.975 113.125 105.19 115.025C105.19 115.025 100.55 110.444 92.1904 112.056L93.7873 114.4Z" fill="#E8A88A"/>
<path id="Vector_32" d="M86.6187 82.7437C86.6187 82.7437 87.028 98.1405 86.703 104.259L88.5374 106.809C88.5374 106.809 90.7624 94.7468 86.6187 82.7437Z" fill="#1573D8"/>
<path id="Vector_33" d="M48.9655 36.2502L50.8405 29.3189C50.8405 29.3189 55.9405 29.4002 58.028 23.5033C60.1155 17.6064 65.7749 16.4908 65.7749 16.4908C65.7749 16.4908 66.5124 24.7783 69.5249 27.4064C72.5374 30.0346 77.7124 29.3189 77.7124 29.3189L79.0593 36.7971L83.653 38.3596L85.0437 34.7564C86.1715 34.2542 87.0973 33.3868 87.6718 32.2939C88.5499 30.5221 80.9374 9.48144 72.3593 11.0002C70.1218 10.2064 61.8718 7.58769 54.2155 11.7189C46.7343 15.7533 41.7405 25.1939 43.6186 27.4939C44.0093 27.9752 44.678 28.1189 45.2905 28.1189L45.1311 37.9971L48.9655 36.2502Z" fill="#2D1929"/>
<path id="Vector_34" d="M51.0687 45.5623C48.7437 46.4998 45.9312 44.9717 44.7906 42.1467C43.65 39.3217 44.6093 36.2686 46.9343 35.328C49.2593 34.3873 52.0718 35.9186 53.2156 38.7436C54.3593 41.5686 53.3968 44.6217 51.0687 45.5623Z" fill="#F9CCB4"/>
<path id="Vector_35" d="M48.8688 43.2659C48.832 43.2658 48.7966 43.2525 48.7688 43.2284C48.7282 43.194 47.7813 42.3877 47.8313 41.6659C47.8657 41.0409 48.525 40.7627 48.8125 40.6721C48.7157 39.0534 47.8751 36.6534 46.2719 36.9659C46.252 36.9704 46.2313 36.9708 46.2112 36.9671C46.1911 36.9633 46.172 36.9555 46.155 36.9441C46.138 36.9327 46.1235 36.9179 46.1125 36.9007C46.1014 36.8835 46.094 36.8642 46.0907 36.844C46.0861 36.8239 46.0857 36.803 46.0894 36.7827C46.0931 36.7624 46.1009 36.743 46.1123 36.7258C46.1237 36.7086 46.1384 36.6939 46.1557 36.6825C46.1729 36.6711 46.1922 36.6633 46.2126 36.6596C48.0594 36.2909 49.0626 38.9065 49.1313 40.7846C49.1322 40.8207 49.1205 40.856 49.0983 40.8845C49.0761 40.913 49.0447 40.9329 49.0094 40.9409C49.0094 40.9409 48.1719 41.1346 48.1438 41.6846C48.1157 42.1534 48.7375 42.7815 48.9782 42.9846C49.0059 43.005 49.0261 43.0339 49.0357 43.0669C49.0453 43.0999 49.0437 43.1351 49.0313 43.1672C49.0188 43.1992 48.9962 43.2262 48.9668 43.2441C48.9374 43.2619 48.903 43.2696 48.8688 43.2659Z" fill="#2D1929"/>
<path id="Vector_36" d="M83.2531 42.1471C82.1094 44.9596 79.3 46.5033 76.9719 45.5627C74.6438 44.6221 73.6844 41.5627 74.8281 38.7502C75.9719 35.9377 78.7813 34.394 81.1094 35.3346C83.4375 36.2752 84.3938 39.3189 83.2531 42.1471Z" fill="#F9CCB4"/>
<path id="Vector_37" d="M79.1751 43.2656C79.1431 43.265 79.1121 43.2548 79.086 43.2362C79.0599 43.2177 79.04 43.1917 79.0288 43.1617C79.0177 43.1317 79.0159 43.099 79.0236 43.068C79.0313 43.0369 79.0481 43.0089 79.072 42.9875C79.3158 42.7844 79.9345 42.1563 79.9095 41.6875C79.8783 41.1344 79.0533 40.9469 79.0439 40.9438C79.0083 40.9364 78.9766 40.9166 78.9543 40.888C78.9319 40.8594 78.9205 40.8238 78.922 40.7875C78.9908 38.9125 79.9908 36.2938 81.8408 36.6625C81.8613 36.6666 81.8808 36.6747 81.8982 36.6864C81.9156 36.698 81.9305 36.713 81.9421 36.7304C81.9537 36.7478 81.9618 36.7673 81.9658 36.7878C81.9699 36.8084 81.9699 36.8295 81.9658 36.85C81.9617 36.8705 81.9535 36.89 81.9419 36.9074C81.9303 36.9248 81.9153 36.9397 81.8979 36.9513C81.8805 36.9629 81.861 36.971 81.8404 36.9751C81.8199 36.9791 81.7988 36.9791 81.7783 36.975C80.1939 36.6625 79.3345 39.0625 79.2408 40.6813C79.5251 40.7719 80.1783 41.0469 80.222 41.675C80.2626 42.3938 79.3158 43.2 79.2845 43.2375C79.2527 43.2599 79.2138 43.2699 79.1751 43.2656Z" fill="#2D1929"/>
<path id="Vector_38" d="M101.689 49.7397L111.755 49.6794L111.797 56.6919L101.731 56.7522L101.689 49.7397Z" fill="#EFBD42"/>
<path id="Vector_39" d="M106.663 53.8376C112.614 53.8376 117.438 49.0135 117.438 43.0626C117.438 37.1117 112.614 32.2876 106.663 32.2876C100.712 32.2876 95.8877 37.1117 95.8877 43.0626C95.8877 49.0135 100.712 53.8376 106.663 53.8376Z" fill="#FFD66F"/>
<path id="Vector_40" d="M105.987 53.9721C105.951 53.9721 105.917 53.9597 105.889 53.9369C105.861 53.9141 105.842 53.8824 105.834 53.8471C105.435 51.9313 104.934 50.038 104.334 48.1752C102.272 47.1627 100.775 44.8252 102.147 44.4971C103.256 44.2315 104.191 46.844 104.572 47.9346C105.291 48.2659 106.275 48.4971 107.072 47.8877C106.584 46.3877 106.622 44.4846 107.284 43.7877C107.894 43.1627 108.584 43.4127 108.822 44.2409C109.184 45.4909 108.409 47.0909 107.437 47.9909C107.75 48.8284 108.328 49.7409 109.203 49.5534C109.584 47.8409 110.125 46.1721 110.809 45.8596C112.494 45.094 112.044 48.9252 109.475 49.8034C109.162 51.2502 108.937 52.7721 108.834 53.6409C108.83 53.6823 108.809 53.7202 108.776 53.7463C108.744 53.7724 108.702 53.7845 108.661 53.7799C108.619 53.7754 108.582 53.7545 108.555 53.722C108.529 53.6895 108.517 53.6479 108.522 53.6065C108.562 53.2565 108.769 51.5846 109.128 49.8784C108.166 49.9815 107.528 49.0877 107.178 48.1846C106.512 48.6409 105.656 48.6909 104.7 48.3221C105.269 50.1094 105.744 51.9254 106.122 53.7627C106.13 53.7854 106.133 53.8096 106.13 53.8335C106.128 53.8575 106.12 53.8805 106.107 53.9007C106.094 53.921 106.076 53.938 106.055 53.9504C106.035 53.9628 106.011 53.9702 105.987 53.9721ZM110.956 46.1596C110.416 46.4065 109.941 47.8409 109.572 49.4471C111.562 48.5409 112.05 45.669 110.956 46.1659V46.1596ZM102.231 44.794C101.987 44.8534 101.947 44.9909 101.937 45.0909C101.875 45.7159 102.875 46.9971 104.184 47.7346C103.909 46.969 103.025 44.6159 102.231 44.8002V44.794ZM107.525 44.0096C106.956 44.6096 106.931 46.2971 107.341 47.6659C109.425 45.5002 108.547 42.9409 107.525 44.0159V44.0096Z" fill="white"/>
<path id="Vector_41" d="M108.419 56.8057L105.332 56.8242C105.109 56.8256 104.93 57.0071 104.931 57.2298L104.941 58.9235C104.943 59.1462 105.124 59.3256 105.347 59.3242L108.434 59.3057C108.657 59.3044 108.836 59.1228 108.835 58.9002L108.825 57.2064C108.824 56.9838 108.642 56.8044 108.419 56.8057Z" fill="#E73F46"/>
<path id="Vector_42" d="M110.509 58.0874L103.088 58.128C102.331 58.128 101.713 57.603 101.709 56.9468L101.688 53.2843C105.026 53.7715 108.42 53.7526 111.753 53.228L111.775 56.978C111.753 57.2923 111.607 57.585 111.37 57.7927C111.133 58.0004 110.824 58.1063 110.509 58.0874Z" fill="#E73F46"/>
<path id="Vector_43" d="M100.484 19.4343C101.409 22.8009 102.335 26.1655 103.263 29.528C102.863 26.0072 102.465 22.4853 102.069 18.9624L100.484 19.4343Z" fill="#86EBF9"/>
<path id="Vector_44" d="M113.528 30.5404L119.328 19.8936L120.925 20.9592L113.528 30.5404Z" fill="#86EBF9"/>
<path id="Vector_45" d="M119.847 39.5251L130.294 33.7876L131.387 36.1938L119.847 39.5251Z" fill="#86EBF9"/>
<path id="Vector_46" d="M61.9033 132.097C61.876 132.097 61.8493 132.089 61.8257 132.076C61.8022 132.062 61.7826 132.042 61.7689 132.019L60.3877 129.575C60.37 129.539 60.3668 129.498 60.3786 129.46C60.3904 129.422 60.4163 129.389 60.4512 129.37C60.486 129.35 60.527 129.345 60.5657 129.354C60.6045 129.364 60.6381 129.388 60.6596 129.422L62.0408 131.862C62.0546 131.886 62.0619 131.914 62.0618 131.941C62.0617 131.969 62.0543 131.996 62.0403 132.02C62.0263 132.043 62.0063 132.063 61.9822 132.077C61.9582 132.09 61.9309 132.097 61.9033 132.097Z" fill="#2D1929"/>
<path id="Vector_47" d="M60.4437 134.881L58.4406 131.756C58.4282 131.739 58.4194 131.72 58.4148 131.699C58.4102 131.678 58.4099 131.657 58.4139 131.636C58.4178 131.615 58.426 131.595 58.4379 131.578C58.4497 131.56 58.465 131.545 58.4829 131.534C58.5007 131.522 58.5207 131.514 58.5417 131.511C58.5626 131.507 58.584 131.508 58.6046 131.513C58.6252 131.518 58.6446 131.528 58.6615 131.54C58.6784 131.553 58.6926 131.569 58.7031 131.588L60.7094 134.713C60.7317 134.748 60.7392 134.791 60.7301 134.831C60.721 134.872 60.6961 134.907 60.6609 134.93C60.6257 134.952 60.583 134.96 60.5423 134.951C60.5016 134.941 60.4661 134.917 60.4437 134.881Z" fill="#2D1929"/>
<path id="Vector_48" d="M58.7281 136.841C58.6687 136.841 58.8656 136.937 55.7468 135.209C55.7108 135.189 55.6844 135.155 55.6732 135.115C55.6621 135.075 55.6672 135.033 55.6875 134.997C55.6973 134.979 55.7106 134.963 55.7266 134.95C55.7426 134.937 55.761 134.927 55.7807 134.921C55.8005 134.916 55.8212 134.914 55.8416 134.916C55.8621 134.918 55.8819 134.924 55.9 134.934L58.8062 136.547C58.8372 136.563 58.8616 136.59 58.8755 136.622C58.8895 136.655 58.8921 136.691 58.8831 136.725C58.8741 136.758 58.8539 136.788 58.8257 136.809C58.7976 136.83 58.7632 136.841 58.7281 136.841Z" fill="#2D1929"/>
<path id="Vector_49" d="M44.4971 110.575L48.5877 92.1689L47.5908 109.3L45.9314 113.381L44.8939 112.275L44.4971 110.575Z" fill="#1573D8"/>
</g>
<defs>
<clipPath id="clip0_194_1221">
<rect width="160" height="160" fill="white"/>
</clipPath>
</defs>
</svg>
