<svg width="160" height="160" viewBox="0 0 160 160" fill="none" xmlns="http://www.w3.org/2000/svg">
<g id="online-learning 1">
<path id="Vector" d="M128.653 65.3345C128.653 65.3345 127.244 71.797 119.703 69.9126C119.703 69.9126 116.984 79.1563 104.078 74.5251C104.078 74.5251 80.9001 80.0626 77.4782 65.3345C77.4782 65.3345 66.897 62.4282 74.9782 54.9626L81.5188 29.297L119.644 16.5845C119.644 16.5845 123.313 20.2751 124.041 31.0063C124.769 41.7376 123.522 51.2282 126.166 53.7188C126.166 53.7188 132.309 52.6282 133.206 58.697C134.103 64.7657 128.653 65.3345 128.653 65.3345Z" fill="#2D1929"/>
<g id="Clip path group">
<mask id="mask0_194_1132" style="mask-type:luminance" maskUnits="userSpaceOnUse" x="94" y="50" width="15" height="31">
<g id="a">
<path id="Vector_2" d="M108.219 80.0186H94.1094V50.6498H108.219V80.0186Z" fill="white"/>
</g>
</mask>
<g mask="url(#mask0_194_1132)">
<g id="Group">
<path id="Vector_3" d="M108.219 80.0186H94.1094V50.6498H108.219V80.0186Z" fill="#F9CCB5"/>
<path id="Vector_4" d="M110.756 62.3751C105.081 66.2376 97.6312 66.4845 91.6655 62.3751V51.897H110.8L110.756 62.3751Z" fill="#E8A88A"/>
</g>
</g>
</g>
<path id="Vector_5" d="M44.2189 80.9373L43.6564 74.6873C40.7189 71.5623 39.9564 68.6029 39.7127 67.1279C39.3502 64.9217 39.5189 62.2436 40.5345 61.6498C41.8502 60.8811 42.7814 62.3061 42.7814 62.3061C42.7814 62.3061 44.0314 58.4029 46.397 61.4217C46.397 61.4217 45.147 50.9654 46.397 50.6936C47.647 50.4217 49.3002 61.1561 49.3002 61.1561C49.3002 61.1561 52.697 50.4748 53.847 51.3498C54.997 52.2248 52.0408 62.7436 52.0408 62.7436C52.6893 62.8908 53.2738 63.2412 53.7095 63.7436C54.1804 64.3231 54.458 65.0357 54.5033 65.7811C54.8345 68.4967 53.8564 72.5592 53.6814 73.2623L55.1064 78.4123C53.6187 79.6608 51.8571 80.5403 49.9651 80.9791C48.0732 81.4179 46.1043 81.4036 44.2189 80.9373Z" fill="#F9CCB5"/>
<path id="Vector_6" d="M119.144 35.4658C119.239 36.7819 119.105 38.1044 118.75 39.3752C118.591 39.9221 117.653 43.5408 116.503 47.2689C115.431 50.7377 111.672 62.1533 102.335 62.7096C94.6377 63.0877 88.9783 54.2002 86.7783 46.9564C86.4033 44.6564 84.6596 37.9377 84.5627 35.0471C84.5484 34.4593 84.5766 33.8713 84.6471 33.2877C84.6471 33.2877 84.869 22.9283 91.0158 17.1721C92.3638 15.9013 93.9596 14.9225 95.7033 14.2971C96.2033 14.2002 101.328 11.5377 108.394 14.2533C108.491 14.2689 108.581 14.2783 108.678 14.2971C119.413 18.1346 119.725 33.2846 119.725 33.2877C119.522 33.9533 119.331 34.6877 119.144 35.4658Z" fill="#F9CCB5"/>
<path id="Vector_7" d="M101.512 47.4064C100.147 47.0626 99.3467 46.5189 99.1373 45.797C98.6717 44.1908 101.39 43.247 100.987 38.2376C100.986 38.2171 100.988 38.1964 100.994 38.1768C101.001 38.1572 101.011 38.1391 101.024 38.1234C101.037 38.1077 101.054 38.0948 101.072 38.0854C101.091 38.0761 101.111 38.0705 101.131 38.0689C101.152 38.0672 101.172 38.0696 101.192 38.0759C101.212 38.0822 101.23 38.0923 101.245 38.1057C101.261 38.119 101.274 38.1354 101.283 38.1537C101.293 38.1721 101.298 38.1921 101.3 38.2126C101.706 43.3033 99.0311 44.3126 99.4248 45.7126C99.603 46.322 100.325 46.7908 101.575 47.1064C101.608 47.1206 101.635 47.1458 101.652 47.1778C101.669 47.2098 101.674 47.2467 101.667 47.282C101.659 47.3174 101.64 47.3491 101.612 47.3718C101.584 47.3945 101.548 47.4067 101.512 47.4064Z" fill="#2D1929"/>
<path id="Vector_8" d="M93.125 39.2971C93.125 40.5252 93.7719 41.5189 94.5656 41.5158C95.3594 41.5127 96 40.5221 96 39.2939C96 38.0658 95.3531 37.0752 94.5594 37.0752C93.7656 37.0752 93.125 38.0721 93.125 39.2971Z" fill="#2D1929"/>
<path id="Vector_9" d="M90.9061 33.7126C90.8429 33.7119 90.7815 33.6921 90.7298 33.6557C90.6781 33.6194 90.6387 33.5682 90.6167 33.509C90.5947 33.4497 90.5912 33.3853 90.6066 33.324C90.622 33.2627 90.6556 33.2076 90.703 33.1658C90.7342 33.1376 93.8874 30.4814 97.4655 32.5408C97.5028 32.5603 97.5359 32.5872 97.5625 32.6198C97.5892 32.6524 97.609 32.6901 97.6208 32.7306C97.6325 32.7711 97.6359 32.8135 97.6309 32.8554C97.6258 32.8972 97.6123 32.9376 97.5912 32.9741C97.5701 33.0105 97.5418 33.0424 97.5081 33.0677C97.4744 33.093 97.4359 33.1112 97.395 33.1212C97.3541 33.1312 97.3115 33.1329 97.2699 33.126C97.2283 33.1192 97.1886 33.104 97.153 33.0814C93.9561 31.2564 91.1342 33.6283 91.1092 33.6533C91.0505 33.6961 90.9787 33.7171 90.9061 33.7126Z" fill="#2D1929"/>
<path id="Vector_10" d="M112.212 33.7124C112.138 33.7124 112.066 33.6858 112.009 33.6374C111.894 33.5405 109.153 31.2467 105.965 33.0655C105.93 33.0881 105.89 33.1033 105.849 33.1101C105.807 33.117 105.764 33.1153 105.724 33.1053C105.683 33.0953 105.644 33.0771 105.61 33.0518C105.577 33.0265 105.548 32.9947 105.527 32.9582C105.506 32.9217 105.493 32.8813 105.488 32.8395C105.483 32.7976 105.486 32.7552 105.498 32.7147C105.509 32.6742 105.529 32.6365 105.556 32.6039C105.583 32.5713 105.616 32.5444 105.653 32.5249C109.231 30.4811 112.384 33.1499 112.416 33.1499C112.469 33.19 112.509 33.2463 112.528 33.3105C112.547 33.3747 112.545 33.4434 112.522 33.5064C112.5 33.5695 112.457 33.6235 112.401 33.6606C112.346 33.6977 112.279 33.7158 112.212 33.7124Z" fill="#2D1929"/>
<path id="Vector_11" d="M94.0626 68.9876C83.1095 68.7657 78.047 72.9126 76.1595 74.8001C75.1313 75.8282 73.8657 77.3594 70.0782 85.1532C67.2282 91.0188 65.1157 95.9688 63.7126 99.4188C60.6334 91.6813 57.5605 83.9386 54.4938 76.1907L43.9751 77.9438C44.0501 82.0407 44.9688 119.472 57.5626 127.247C58.572 127.872 61.0001 129.372 64.1251 129.219C69.4813 128.963 73.9407 124.034 78.572 115.853C87.3813 100.313 91.7938 81.8407 94.0626 68.9876Z" fill="#EFBD42"/>
<path id="Vector_12" d="M102.15 69.8877C102.15 69.8877 118.228 70.7658 123.269 79.8314C128.309 88.8971 141.456 122.888 138.169 129.231C134.881 135.575 124.375 137.328 110.778 123.522C97.1813 109.716 102.15 69.8877 102.15 69.8877Z" fill="#EFBD42"/>
<path id="Vector_13" d="M120.738 81.3034C123.941 85.9315 123.919 90.7159 124.341 93.569C125.8 103.438 126.578 120.775 123.847 150.656L74.4346 150.475C74.7471 142.288 75.0814 128.935 74.6689 112.35C74.0064 85.7221 72.1064 78.5221 77.9627 73.4158C87.8752 64.7721 112.188 68.9471 120.738 81.3034Z" fill="#EFBD42"/>
<path id="Vector_14" d="M108.953 70.9656C108.565 72.5344 107.904 74.0227 107 75.3625C105.947 76.925 104.044 79.7375 101.575 79.6781C98.8375 79.6281 96.9375 76.0906 95.8656 74.0875C94.9496 72.364 94.3395 70.4946 94.0625 68.5625C94.5719 68.2 98.5438 65.4812 103.372 66.8875C105.231 67.4344 107.187 68.65 108.953 70.9656Z" fill="#F9CCB5"/>
<path id="Vector_15" d="M81.8937 131.897C84.3594 130.912 113.616 138.8 112.956 136.334C112.297 133.869 91.4281 126.647 90.6062 125.159C89.7844 123.672 101.269 87.853 101.269 87.853C101.269 87.853 104.753 99.4593 104.081 101.947C103.409 104.434 115.122 124.056 120.178 123.353C124.275 122.781 129.725 105.766 131.644 99.328C136.2 111.678 140.141 125.425 138.169 129.231C136.197 133.037 131.522 135.234 125.138 133.259C124.847 138.525 124.425 144.306 123.847 150.656L77.9844 150.487C83.0062 144.666 79.775 132.747 81.8937 131.897Z" fill="#D7981A"/>
<path id="Vector_16" d="M108.191 66.5281C108.659 66.389 109.16 66.4088 109.616 66.5843C111.025 67.1781 110.672 68.8812 113.25 72.2625C112.335 77.575 110.406 81.1562 109.013 83.25C106.919 86.4031 105.856 86.4781 105.478 86.4562C103.825 86.3656 102.297 83.6906 101.575 79.6781C105.938 76.6625 108.16 71.8281 108.191 66.5281Z" fill="#E73F46"/>
<path id="Vector_17" d="M88.7969 69.1718C90.5938 67.6906 91.4594 66.55 91.9219 65.7343C92.1125 65.4218 92.5687 64.5437 93.3281 64.45C93.5768 64.4195 93.8289 64.4664 94.05 64.5843C94.05 64.5843 95.1875 76.1031 101.563 79.6875C100.238 83.0781 98.1094 85.2343 96.1938 85.0687C95.7125 85.0281 94.4031 84.7562 92.2906 80.85C90.3645 77.2269 89.1769 73.2574 88.7969 69.1718Z" fill="#E73F46"/>
<path id="Vector_18" d="M124.543 130.291L93.0084 123.855L102.212 78.7565L133.747 85.1921L124.543 130.291Z" fill="#6D5FDE"/>
<path id="Vector_19" d="M125.622 130.52L94.0875 124.084L103.291 78.986L134.826 85.4216L125.622 130.52Z" fill="#E9FAFF"/>
<path id="Vector_20" d="M127.935 130.714L98.0909 124.526L107.433 79.4737L137.277 85.662L127.935 130.714Z" fill="#917EEC"/>
<path id="Vector_21" d="M119.969 109.722L117.025 105.659C117.025 105.659 115.25 100.4 113.522 98.125C111.794 95.85 111.566 93.5375 110.416 94.3406C109.266 95.1438 111.219 99.5719 110.759 99.8031C110.3 100.034 105.7 96.1531 105.225 95.075C104.75 93.9969 103.631 89.6844 102.853 90.2875C102.075 90.8906 102.562 95.3156 102.987 96.4469C103.412 97.5781 104.753 99.4719 104.753 99.4719C104.753 99.4719 102.253 97.1875 101.734 95.9781C101.216 94.7688 100.353 92.0969 99.4905 92.3563C98.628 92.6156 99.803 97.1 100.066 97.8781C100.328 98.6563 102.166 101.544 102.166 101.544C102.166 101.544 100.034 100.378 99.1811 99.4281C98.328 98.4781 97.6968 96.8844 97.0186 97.1C96.3405 97.3156 97.5937 101.069 98.4124 102.413C99.2312 103.756 101.778 106.338 101.778 106.338C101.778 106.338 99.103 105.216 98.153 104.484C97.203 103.753 96.4061 103.331 96.228 104.172C96.0499 105.013 100.353 109.688 102.597 111.241C104.841 112.794 107.972 114.344 110.069 115.813C112.166 117.281 113.506 119.875 113.506 119.875C113.506 119.875 121.562 115.975 119.969 109.722Z" fill="#E39C76"/>
<path id="Vector_22" d="M117.559 106.425C130.997 119.262 137.984 120.044 138.881 125.119C139.531 128.769 137.034 133.14 133.569 134.609C129.419 136.375 124.991 133.469 121.928 131.459C115.081 126.965 111.894 120.231 110.438 116.122C112.815 112.888 115.189 109.656 117.559 106.425Z" fill="#EFBD42"/>
<path id="Vector_23" d="M74.8311 121.762V89.3311L69.5967 127.203C71.6384 125.7 73.4086 123.861 74.8311 121.762Z" fill="#D7981A"/>
<path id="Vector_24" d="M65 95.8096C65 95.8096 70.3812 109.138 67.9969 117.435C67.9969 117.435 67.1031 104.819 63.6875 99.419L65 95.8096Z" fill="#D7981A"/>
<path id="Vector_25" d="M81.6814 148.084H26.9408C26.7213 148.084 26.5094 148.004 26.3444 147.859C26.1795 147.714 26.0727 147.515 26.0439 147.297L21.2189 109.753C21.2049 109.627 21.2176 109.499 21.2562 109.378C21.2949 109.257 21.3586 109.146 21.4432 109.051C21.5279 108.957 21.6315 108.881 21.7474 108.829C21.8633 108.777 21.9888 108.75 22.1158 108.75H76.5783C76.7975 108.75 77.0094 108.829 77.1744 108.973C77.3395 109.118 77.4464 109.317 77.4752 109.534L82.5783 147.075C82.5933 147.202 82.5813 147.33 82.5431 147.452C82.5049 147.574 82.4413 147.686 82.3566 147.781C82.2718 147.876 82.1679 147.953 82.0515 148.005C81.9351 148.057 81.809 148.084 81.6814 148.084Z" fill="#2D1929"/>
<path id="Vector_26" d="M97.2061 150.625H27.0498C26.9309 150.625 26.8132 150.602 26.7032 150.557C26.5933 150.512 26.4934 150.445 26.4092 150.361C26.325 150.277 26.2582 150.178 26.2126 150.068C26.167 149.958 26.1436 149.841 26.1436 149.722V147.097C26.1435 146.975 26.1679 146.855 26.2154 146.743C26.263 146.631 26.3326 146.53 26.4201 146.446C26.5076 146.361 26.6113 146.295 26.7249 146.252C26.8384 146.209 26.9596 146.189 27.0811 146.194L97.2373 148.053C97.4733 148.059 97.6974 148.158 97.862 148.327C98.0266 148.496 98.1187 148.723 98.1186 148.959V149.722C98.1186 149.841 98.0949 149.959 98.0489 150.069C98.003 150.18 97.9356 150.28 97.8507 150.364C97.7659 150.448 97.6652 150.514 97.5546 150.559C97.4439 150.604 97.3254 150.626 97.2061 150.625Z" fill="#2D1929"/>
<path id="Vector_27" d="M53.722 136.925H45.1345C44.6614 136.91 44.2093 136.726 43.8606 136.406C43.5119 136.086 43.2897 135.651 43.2345 135.181L42.4376 127.784C42.4049 127.562 42.4203 127.336 42.4828 127.121C42.5453 126.905 42.6535 126.706 42.8 126.536C42.9464 126.366 43.1278 126.23 43.3316 126.136C43.5355 126.043 43.7571 125.994 43.9814 125.994H52.7126C53.1929 126.009 53.6508 126.2 54.0002 126.53C54.3496 126.86 54.5663 127.306 54.6095 127.784L55.2751 135.181C55.3007 135.4 55.2796 135.622 55.2132 135.833C55.1469 136.043 55.0367 136.237 54.89 136.402C54.7433 136.566 54.5633 136.698 54.362 136.788C54.1607 136.879 53.9426 136.925 53.722 136.925Z" fill="#86EBF9"/>
<path id="Vector_28" d="M48.125 124.435C49.1031 120.975 51.9844 118.356 55.1937 119.913C55.0094 121.268 54.3373 122.51 53.3031 123.406C51.1125 125.241 48.3656 124.503 48.125 124.435Z" fill="#86EBF9"/>
<path id="Vector_29" d="M110.516 39.3533C110.354 38.9243 110.065 38.5549 109.688 38.2941C109.311 38.0333 108.863 37.8937 108.405 37.8937C107.946 37.8937 107.499 38.0333 107.122 38.2941C106.745 38.5549 106.456 38.9243 106.294 39.3533C106.277 39.3908 106.247 39.4204 106.209 39.4361C106.171 39.4518 106.129 39.4524 106.091 39.4377C106.072 39.4301 106.054 39.4188 106.04 39.4045C106.025 39.3902 106.013 39.3731 106.005 39.3542C105.997 39.3354 105.992 39.3151 105.992 39.2946C105.992 39.274 105.996 39.2536 106.003 39.2345C106.19 38.7486 106.519 38.3306 106.948 38.0357C107.376 37.7409 107.884 37.583 108.405 37.583C108.925 37.583 109.433 37.7409 109.862 38.0357C110.291 38.3306 110.62 38.7486 110.806 39.2345C110.822 39.2731 110.822 39.3163 110.806 39.3547C110.79 39.3931 110.759 39.4235 110.72 39.4392C110.682 39.455 110.639 39.4548 110.6 39.4386C110.562 39.4225 110.532 39.3918 110.516 39.3533Z" fill="#2D1929"/>
<path id="Vector_30" d="M120.556 36.0845C120.556 36.0845 115.197 37.3845 113.64 29.2095C113.181 26.797 112.956 26.4908 112.212 25.7158C110.681 24.1189 108.869 24.7408 107.237 23.7376C105.944 22.9439 104.587 21.0189 104.619 15.9251C104.619 15.9251 102.315 15.0689 100.397 18.4908C99.103 20.7845 98.9217 21.2064 97.1873 22.8126C94.7311 25.1001 92.5436 24.4783 91.3842 26.6533C90.9186 27.5251 91.1936 27.772 90.8936 29.4658C90.7311 30.3845 89.6436 35.972 85.853 37.7189C84.7873 38.2095 83.4436 38.3251 81.6905 37.8845C80.6517 36.9511 79.813 35.8168 79.2248 34.5501C78.9342 33.9251 76.9373 29.3626 79.5373 25.422C81.2498 22.8126 83.9717 21.997 84.8373 21.7783C85.3873 11.7783 95.303 8.06265 104.619 11.0189C104.619 11.0189 113.875 8.76265 118.697 15.0626C123.519 21.3626 120.556 36.0845 120.556 36.0845Z" fill="#2D1929"/>
<path id="Vector_31" d="M88.3969 45.2468C86.0313 46.203 83.1751 44.6499 82.0126 41.7749C80.8501 38.8999 81.8282 35.803 84.2001 34.8468C86.5719 33.8905 89.4219 35.4468 90.5813 38.3155C91.7407 41.1843 90.7594 44.2937 88.3969 45.2468Z" fill="#F9CCB5"/>
<path id="Vector_32" d="M86.0592 43.1907C86.0186 43.1563 85.0561 42.3406 85.0967 41.6094C85.1311 40.9844 85.8061 40.6906 86.0936 40.6C85.9999 38.9594 85.1249 36.5094 83.5124 36.8281C83.4709 36.8364 83.4279 36.8279 83.3927 36.8045C83.3576 36.781 83.3332 36.7446 83.3249 36.7031C83.3166 36.6617 83.3251 36.6187 83.3485 36.5835C83.372 36.5483 83.4084 36.5239 83.4499 36.5156C85.3249 36.1438 86.3436 38.8 86.4124 40.7063C86.4134 40.7428 86.4018 40.7785 86.3797 40.8075C86.3575 40.8366 86.326 40.8571 86.2905 40.8657C86.2905 40.8657 85.4405 41.0625 85.4092 41.6219C85.3811 42.0969 86.0124 42.7375 86.2592 42.9469C86.2916 42.9734 86.312 43.0117 86.3161 43.0533C86.3202 43.0949 86.3076 43.1365 86.2811 43.1688C86.2546 43.2011 86.2163 43.2216 86.1747 43.2257C86.1331 43.2298 86.0916 43.2172 86.0592 43.1907Z" fill="#2D1929"/>
<path id="Vector_33" d="M121.106 41.7749C119.947 44.6499 117.088 46.203 114.725 45.2468C112.363 44.2905 111.384 41.1843 112.538 38.3155C113.691 35.4468 116.556 33.8905 118.922 34.8468C121.288 35.803 122.266 38.903 121.106 41.7749Z" fill="#F9CCB5"/>
<path id="Vector_34" d="M116.875 42.9532C117.122 42.7439 117.753 42.1032 117.725 41.6282C117.697 41.0689 116.853 40.872 116.844 40.872C116.808 40.8634 116.777 40.8429 116.754 40.8139C116.732 40.7849 116.721 40.7491 116.722 40.7126C116.794 38.8064 117.806 36.1501 119.684 36.522C119.725 36.5303 119.761 36.5543 119.784 36.5887C119.808 36.6232 119.817 36.6654 119.809 36.7064C119.805 36.7265 119.797 36.7456 119.786 36.7626C119.774 36.7796 119.759 36.7942 119.742 36.8055C119.725 36.8168 119.706 36.8247 119.686 36.8286C119.666 36.8325 119.645 36.8324 119.625 36.8282C118.009 36.5157 117.125 38.9595 117.04 40.6001C117.331 40.6907 118.003 40.972 118.037 41.6095C118.081 42.3407 117.119 43.1564 117.078 43.1907C116.906 43.322 116.7 43.0845 116.875 42.9532Z" fill="#2D1929"/>
<path id="Vector_35" d="M99.2407 50.6499L107.413 49.3374C107.169 52.603 104.472 54.5905 102.356 54.1874C100.894 53.9061 99.6595 52.4687 99.2407 50.6499Z" fill="#E9FAFF"/>
<g id="Group_2">
<path id="Vector_36" d="M48.0812 70C48.0565 70.0001 48.0322 69.9944 48.0102 69.9834C47.9882 69.9724 47.9691 69.9563 47.9545 69.9365C47.9399 69.9167 47.9302 69.8938 47.9261 69.8695C47.922 69.8452 47.9238 69.8203 47.9312 69.7968C48.3228 68.5962 49.1653 67.5945 50.2812 67.0031C48.8093 67.0406 47.6968 66.6437 47.1812 66.1687C47.0845 66.0907 47.0064 65.9922 46.9523 65.8803C46.8983 65.7685 46.8697 65.646 46.8687 65.5218C46.9124 64.7812 50.7999 63.1125 51.9905 62.6187C52.0291 62.6025 52.0724 62.6024 52.1111 62.6182C52.1498 62.634 52.1806 62.6645 52.1968 62.7031C52.2129 62.7416 52.2131 62.785 52.1973 62.8237C52.1815 62.8624 52.1509 62.8932 52.1124 62.9093C49.7655 63.8812 47.2124 65.1656 47.1812 65.5406C47.1883 65.6189 47.212 65.6949 47.2508 65.7633C47.2896 65.8317 47.3426 65.8911 47.4062 65.9375C47.9624 66.45 49.4124 66.875 51.2749 66.6093C51.2954 66.6054 51.3165 66.6056 51.337 66.6099C51.3574 66.6141 51.3768 66.6224 51.3941 66.6341C51.4114 66.6459 51.4261 66.6609 51.4376 66.6784C51.449 66.6958 51.4569 66.7154 51.4608 66.7359C51.4647 66.7564 51.4646 66.7775 51.4603 66.7979C51.4561 66.8184 51.4478 66.8378 51.4361 66.8551C51.4243 66.8723 51.4093 66.8871 51.3918 66.8986C51.3744 66.91 51.3548 66.9179 51.3343 66.9218C50.6186 67.1358 49.9645 67.5178 49.4263 68.0358C48.8882 68.5538 48.4816 69.193 48.2405 69.9C48.2294 69.9323 48.2075 69.9599 48.1785 69.978C48.1495 69.9962 48.1151 70.004 48.0812 70Z" fill="#2D1929"/>
<path id="Vector_37" d="M43.7251 68.1035C42.4407 68.1035 40.8251 65.3535 40.6313 65.016C40.6137 64.9801 40.6104 64.9389 40.6222 64.9007C40.634 64.8625 40.66 64.8303 40.6948 64.8107C40.7296 64.7911 40.7706 64.7856 40.8094 64.7953C40.8482 64.805 40.8817 64.8292 40.9032 64.8628C41.4345 65.8003 43.0095 68.1128 43.9188 67.7535C44.747 67.4191 43.3407 63.9753 42.9813 63.1535C42.822 62.8097 42.7001 62.5285 42.6313 62.3722C42.6173 62.335 42.6179 62.2938 42.6331 62.2571C42.6484 62.2204 42.677 62.1908 42.7133 62.1745C42.7496 62.1581 42.7907 62.1562 42.8283 62.1692C42.8659 62.1821 42.8972 62.2089 42.9157 62.2441C42.9376 62.2847 43.072 62.5566 43.2532 62.991C44.1751 64.9722 45.4626 67.2035 46.0095 67.0128C46.6345 66.7847 46.5188 63.6222 46.2345 61.4472C46.2291 61.4062 46.2403 61.3648 46.2655 61.3319C46.2907 61.2991 46.3278 61.2777 46.3688 61.2722C46.3892 61.2691 46.41 61.2702 46.4299 61.2754C46.4499 61.2805 46.4686 61.2896 46.4849 61.3022C46.5013 61.3147 46.5149 61.3304 46.525 61.3484C46.5352 61.3663 46.5416 61.3861 46.5438 61.4066C47.1688 66.2722 46.647 69.6285 44.1532 65.4066C44.472 66.4691 44.8376 68.1035 43.7251 68.1035Z" fill="#2D1929"/>
<path id="Vector_38" d="M46.3405 34.3968C46.3405 34.3062 46.3093 34.2156 46.2968 34.125C46.1718 33.3562 45.4061 33.2125 44.6405 33.3062C44.3874 33.3375 44.253 33.6187 44.4999 33.7906C44.6905 33.9406 44.8124 34.7812 45.378 38.6218C45.6905 40.7156 45.6905 42.5625 46.6561 42.9968C46.9337 43.0749 47.2252 43.0899 47.5093 43.0406C48.1313 42.976 48.7339 42.7867 49.2811 42.4838C49.8282 42.181 50.3086 41.7709 50.6936 41.2781C52.453 39.0156 52.4093 35.6687 51.0561 33.9156C49.7686 32.2375 47.3468 32.7125 46.3405 34.3968ZM49.9593 40.2843C49.6792 40.8958 49.257 41.4315 48.728 41.8468C48.5137 42.0551 48.2433 42.1963 47.9499 42.2531C47.253 42.3218 47.2624 40.7125 46.5655 35.8843C46.5622 35.3442 46.7362 34.8178 47.0608 34.386C47.3853 33.9542 47.8426 33.6407 48.3624 33.4937C49.7718 33.7718 50.3655 35.3687 50.5218 36.7812C50.6629 37.9785 50.4682 39.1914 49.9593 40.2843Z" fill="#2D1929"/>
<path id="Vector_39" d="M23.9093 40.5876C23.8296 40.3985 23.7909 40.1945 23.7958 39.9893C23.8006 39.7841 23.8489 39.5822 23.9374 39.397C24.0336 39.1878 24.1726 39.001 24.3454 38.8486C24.5181 38.6963 24.7209 38.5819 24.9405 38.5126C26.0999 38.1408 26.8374 38.9376 27.2468 40.0751C27.2828 40.1843 27.3592 40.2755 27.4603 40.3301C27.5614 40.3847 27.6795 40.3986 27.7905 40.3689C29.2218 39.9126 28.0655 37.9908 26.5093 37.7095C24.2687 37.3251 21.5968 39.2189 22.5562 41.4908C23.5749 43.9064 28.003 42.9126 28.6249 44.747C29.0062 45.8689 27.853 47.2876 26.7499 46.7376C26.1425 46.4059 25.6802 45.8601 25.453 45.2064C25.4192 45.0998 25.3449 45.0107 25.2463 44.9582C25.1476 44.9056 25.0322 44.8938 24.9249 44.9251C23.5843 45.422 24.7999 47.2939 26.2187 47.5564C26.8632 47.6619 27.5243 47.5859 28.1281 47.337C28.7319 47.0881 29.2545 46.6761 29.6374 46.147C29.8693 45.8333 30.0193 45.4667 30.0739 45.0803C30.1284 44.694 30.0858 44.3002 29.9499 43.9345C29.1218 41.3345 24.8499 42.9095 23.9093 40.5876Z" fill="#2D1929"/>
<path id="Vector_40" d="M35.4969 34.6879C35.0907 34.2191 34.3501 34.3285 34.4532 34.6879C34.6063 35.2191 34.1719 35.3504 33.8751 35.4222C33.8438 35.4222 29.9657 36.1035 29.2907 36.3004C28.7688 36.4504 28.1469 36.8035 28.3251 37.3097C28.5594 37.966 29.6157 37.9066 29.4657 37.4629C29.2844 36.9316 29.7251 36.7816 30.0001 36.7035C30.0876 36.6785 30.4313 36.6035 31.0344 36.4941C31.2282 36.7379 31.4282 37.4097 32.4938 41.1191C32.9876 42.9066 33.2032 44.1504 33.7438 44.8691C34.1626 45.4629 34.9001 45.4097 35.4001 44.9535C35.4343 44.9206 35.4593 44.8794 35.4726 44.8339C35.486 44.7884 35.4872 44.7401 35.4761 44.694C35.4651 44.6479 35.4421 44.6055 35.4096 44.5709C35.3771 44.5364 35.3361 44.511 35.2907 44.4972C34.9563 44.391 34.5344 42.9347 34.4438 42.6066C33.5313 39.1504 32.9313 37.1316 32.7532 36.5316C32.7144 36.4053 32.6518 36.2876 32.5688 36.1847C33.8188 35.9691 34.4782 35.8722 34.5532 35.8472C35.2782 35.6941 35.8844 35.3129 35.4969 34.6879Z" fill="#2D1929"/>
<path id="Vector_41" d="M44.8125 42.7095C44.4813 42.5688 44.2125 41.0782 44.1532 40.7188C44.0438 40.0282 43.7282 37.9563 43.0907 34.5188C42.9657 33.8657 42.4094 33.6032 41.4219 33.7563C41.3656 33.7591 41.3117 33.7799 41.2682 33.8156C41.2246 33.8514 41.1937 33.9002 41.1801 33.9549C41.1664 34.0095 41.1707 34.0671 41.1923 34.1192C41.2139 34.1712 41.2517 34.2149 41.3 34.2438C41.4844 34.3813 41.6438 35.2626 42.1938 38.3251C42.4188 39.5376 42.4313 41.2501 41.8813 42.3876C41.8065 42.5942 41.6818 42.7791 41.5182 42.9257C41.3546 43.0724 41.1573 43.1763 40.9438 43.2282C40.6094 43.2907 40.3407 43.0501 40.125 42.5095C39.7438 41.572 39.7657 40.9032 38.4532 35.2751C38.2969 34.6313 37.7344 34.3938 36.7625 34.5907C36.706 34.5956 36.6526 34.6186 36.6103 34.6563C36.5679 34.6941 36.5389 34.7445 36.5277 34.8001C36.5164 34.8557 36.5235 34.9135 36.5478 34.9648C36.5721 35.016 36.6124 35.058 36.6625 35.0845C36.8532 35.2126 37.0282 36.0626 37.3469 37.397C38.4313 41.9532 38.3157 42.4501 38.9094 43.3063C39.3282 43.9063 39.9407 44.122 40.7844 43.972C42.075 43.7376 42.5407 42.7438 42.7657 41.622C42.9094 42.2938 43.1282 43.0938 43.7469 43.372C43.9421 43.4278 44.1475 43.4382 44.3474 43.4025C44.5473 43.3667 44.7363 43.2858 44.9 43.1657C44.9346 43.1344 44.9606 43.0947 44.9754 43.0504C44.9902 43.0062 44.9933 42.9588 44.9845 42.913C44.9758 42.8672 44.9553 42.8244 44.9252 42.7887C44.8951 42.7531 44.8563 42.7258 44.8125 42.7095Z" fill="#2D1929"/>
<path id="Vector_42" d="M58.0282 32.3034C57.8189 32.3471 57.7157 32.4128 57.7157 32.5034C57.7946 32.6701 57.8403 32.8505 57.8501 33.0346C57.9063 34.0971 56.4907 35.5346 55.8876 36.7846C55.5376 36.1846 55.9845 36.9253 54.0501 33.2721C53.622 32.4784 52.897 32.3346 51.9907 32.3846C51.7126 32.3846 51.572 32.5471 51.5876 32.6971C51.594 32.7262 51.6086 32.7528 51.6297 32.7738C51.6507 32.7949 51.6773 32.8095 51.7064 32.8159C52.2345 33.0909 53.5282 35.7034 53.7532 36.2534C53.9683 36.7852 54.3304 37.2447 54.797 37.5784C54.9157 39.7315 54.8345 39.1065 54.8782 39.8753C54.884 40.4681 54.9984 41.0549 55.2157 41.6065C55.5064 42.2815 56.2751 42.4065 56.8907 42.0846C56.9341 42.0628 56.9706 42.0293 56.996 41.9879C57.0215 41.9465 57.035 41.8989 57.035 41.8503C57.035 41.8017 57.0215 41.754 56.996 41.7126C56.9706 41.6713 56.9341 41.6378 56.8907 41.6159C56.8001 41.5628 56.722 41.3909 56.6564 41.1096C56.4407 40.3503 56.4626 39.0378 56.4001 37.4909C56.5251 36.8284 56.9782 36.0409 57.7782 35.1315C58.7157 34.0753 59.2032 33.569 59.2532 32.8096C59.2376 32.3128 58.5251 32.2253 58.0282 32.3034Z" fill="#2D1929"/>
<path id="Vector_43" d="M63.2622 39.9722C62.6372 39.9722 62.3091 40.1909 62.3091 40.644C62.3091 41.244 62.881 41.9472 63.3028 41.9472C63.8591 41.9472 64.9997 39.9722 63.2622 39.9722Z" fill="#2D1929"/>
<path id="Vector_44" d="M63.4625 38.9689C64.0875 38.8251 64.1063 38.3689 63.8125 38.197C63.3688 37.7939 63.9938 30.697 63.9938 29.8782C63.9938 28.9751 63.4125 28.522 62.2406 28.522C62.1679 28.5214 62.0967 28.5426 62.0362 28.583C61.9757 28.6234 61.9288 28.681 61.9015 28.7484C61.8742 28.8158 61.8678 28.8898 61.8832 28.9609C61.8985 29.032 61.9349 29.0968 61.9875 29.147C62.0688 29.2595 62.1094 29.6189 62.1094 30.2407C62.1094 32.1814 61.9781 35.7907 61.9781 35.8251C61.9781 37.2126 62.1188 39.3314 63.4625 38.9689Z" fill="#2D1929"/>
<path id="Vector_45" d="M31.9938 25.8063C32.1011 25.9456 32.1768 26.1066 32.2157 26.2781C33.4657 30.7375 33.4657 31.9625 34.2626 32.2156C34.5501 32.3 34.5063 32.2157 36.6501 31.7813C37.997 31.5125 37.5876 30.5313 36.9626 30.6563C36.9371 30.66 36.9126 30.6689 36.8906 30.6824C36.8687 30.6959 36.8497 30.7137 36.8348 30.7347C36.8199 30.7557 36.8094 30.7796 36.804 30.8047C36.7985 30.8299 36.7983 30.856 36.8032 30.8813C36.8324 30.974 36.8266 31.0742 36.7869 31.1629C36.7471 31.2516 36.6762 31.3226 36.5876 31.3625C36.3876 31.4625 36.3376 31.4344 35.0626 31.7219C34.9688 31.6282 34.9251 31.7438 34.7501 31.3438C34.4978 30.6859 34.3033 30.0073 34.1688 29.3156C34.8751 29.1802 35.5845 29.0573 36.297 28.9469C36.424 28.9198 36.4678 28.8156 36.4282 28.6344C36.3876 28.45 36.3032 28.3688 36.172 28.3844C35.4657 28.5511 34.7636 28.7292 34.0657 28.9188C33.8157 27.9125 33.5532 26.9031 33.2845 25.9C33.2552 25.7827 33.196 25.675 33.1126 25.5875C33.6845 25.4531 34.2563 25.3281 34.8345 25.2094C35.197 25.1344 35.5282 25.15 35.6157 25.5219C35.6688 25.7406 35.9751 25.6938 36.1532 25.5219C36.2123 25.4724 36.2569 25.4078 36.2823 25.3351C36.3077 25.2623 36.313 25.184 36.2977 25.1085C36.2823 25.033 36.2468 24.963 36.195 24.906C36.1432 24.8489 36.0769 24.8069 36.0032 24.7844C35.7013 24.6788 35.3745 24.6668 35.0657 24.75C34.0553 24.9584 33.0553 25.1844 32.0657 25.4282C31.8751 25.4938 31.8032 25.6969 31.9938 25.8063Z" fill="#2D1929"/>
<path id="Vector_46" d="M26.4282 27.5004C26.5782 27.5754 26.7907 28.2191 27.1157 29.091C27.2751 29.5191 27.8563 31.1254 28.097 31.8629C28.3345 32.6785 28.7751 33.9285 29.5751 33.6629C31.5813 32.9972 31.9595 33.0379 32.2657 32.6191C32.3117 32.5609 32.3426 32.4923 32.3559 32.4194C32.3692 32.3464 32.3643 32.2713 32.3418 32.2007C32.3193 32.13 32.2798 32.066 32.2267 32.0142C32.1737 31.9624 32.1087 31.9243 32.0376 31.9035C31.8157 31.8347 31.5501 31.9254 31.6126 32.141C31.722 32.5066 31.472 32.666 31.1532 32.766C30.7595 32.8847 30.3657 33.0066 29.9751 33.1316C29.3751 32.8129 29.3751 31.9941 27.7063 27.4566C27.5407 27.0097 27.1188 26.891 26.4563 27.1222C26.4092 27.1237 26.3644 27.1425 26.3303 27.175C26.2963 27.2076 26.2755 27.2516 26.272 27.2986C26.2685 27.3456 26.2825 27.3922 26.3114 27.4295C26.3402 27.4667 26.3819 27.492 26.4282 27.5004Z" fill="#2D1929"/>
<path id="Vector_47" d="M49.275 29.2999C49.275 30.1687 48.1125 30.8405 47.4656 30.2187C47.1128 29.8576 46.9097 29.3764 46.8969 28.8718C46.8969 28.7889 46.8639 28.7094 46.8053 28.6508C46.7467 28.5922 46.6672 28.5593 46.5844 28.5593C46.4959 28.5525 46.407 28.5659 46.3244 28.5984C46.2418 28.6309 46.1677 28.6817 46.1076 28.7469C46.0474 28.8122 46.0028 28.8902 45.9772 28.9752C45.9515 29.0601 45.9454 29.1498 45.9594 29.2374C46.1094 31.6093 50.4219 31.4999 50.4312 29.0624C50.4312 27.0812 46.9937 27.1874 46.8812 25.3687C46.8437 24.7999 47.2687 24.2155 48.1312 24.1905C49.0344 24.1905 49.3812 24.8999 49.4156 25.7905C49.4201 25.872 49.4545 25.9489 49.5121 26.0065C49.5698 26.0642 49.6467 26.0986 49.7281 26.103C50.3844 26.1187 50.5562 25.5968 50.325 24.9812C49.9625 24.0687 49.0219 23.6624 48.1031 23.6655C46.8094 23.6655 45.6031 24.3468 45.7125 25.653C45.8531 27.553 49.2625 27.8905 49.275 29.2999Z" fill="#2D1929"/>
<path id="Vector_48" d="M38.0219 25.0003C37.9407 24.6034 38.275 24.5346 38.4844 24.5065C38.55 24.5065 38.7969 24.4721 39.2594 24.4503C39.3875 24.6628 39.5282 25.6128 39.8844 27.8878C40.0719 29.1909 40.1157 30.119 40.45 30.7003C40.5076 30.8005 40.5864 30.887 40.6809 30.9535C40.7755 31.02 40.8835 31.065 40.9973 31.0853C41.1111 31.1055 41.228 31.1006 41.3397 31.0708C41.4514 31.041 41.5552 30.987 41.6438 30.9128C41.6723 30.893 41.6949 30.866 41.7094 30.8346C41.7239 30.8031 41.7297 30.7683 41.7262 30.7339C41.7227 30.6994 41.71 30.6665 41.6895 30.6386C41.6689 30.6107 41.6413 30.5888 41.6094 30.5753C41.225 30.4003 41.1313 28.4378 40.5282 24.6378C40.5126 24.5445 40.4786 24.4553 40.4282 24.3753C41.7469 24.319 42.2375 24.3753 42.5938 24.1003C42.6763 24.0416 42.7334 23.9538 42.7537 23.8546C42.774 23.7554 42.7559 23.6523 42.7032 23.5659C42.45 23.1909 41.9 23.2003 41.9407 23.4721C41.9969 23.8659 41.6938 23.9253 41.3157 23.9503C40.2032 23.9846 38.2782 24.1096 38.0219 24.1503C37.6313 24.2096 37.1375 24.4034 37.2219 24.7753C37.3125 25.269 38.0875 25.3128 38.0219 25.0003Z" fill="#2D1929"/>
<path id="Vector_49" d="M43.6906 25.7845C44.0906 25.8158 46.5031 23.2595 44.6656 23.1033C44.4399 23.0524 44.2033 23.0916 44.0062 23.2126C43.7249 23.4939 43.8406 23.8376 44.0843 24.1501C44.1805 24.2896 44.3151 24.3982 44.4718 24.4626C44.2693 24.8586 43.961 25.1907 43.5812 25.422C43.3906 25.5189 43.4749 25.7689 43.6906 25.7845Z" fill="#2D1929"/>
</g>
</g>
</svg>
