<svg width="37" height="37" viewBox="0 0 37 37" fill="none" xmlns="http://www.w3.org/2000/svg">
<path d="M34.9048 4.97751H30.3702V3.14804C31.1443 3.0663 31.7495 2.40991 31.7495 1.61456C31.7496 0.764137 31.0577 0.0722656 30.2073 0.0722656H6.7927C5.94228 0.0722656 5.2504 0.764137 5.2504 1.61456C5.2504 2.40984 5.85563 3.0663 6.62967 3.14804V4.97751H2.09521C1.79589 4.97751 1.55322 5.22011 1.55322 5.5195V10.2925C1.55322 15.6473 5.90968 20.0038 11.2644 20.0038H11.7786C12.3167 20.5427 12.8849 21.0388 13.4802 21.4841C15.3075 22.8514 16.0978 25.1574 15.517 27.3211H14.1187C12.796 27.3211 11.72 28.3972 11.72 29.7199V29.9099H9.89289C8.58554 29.9099 7.522 30.9735 7.522 32.2808V36.3857C7.522 36.6851 7.76467 36.9277 8.06399 36.9277H28.936C29.2354 36.9277 29.478 36.6851 29.478 36.3857V32.2807C29.478 30.9734 28.4144 29.9098 27.1071 29.9098H25.28V29.7198C25.28 28.3971 24.2039 27.321 22.8811 27.321H21.4829C20.9022 25.1573 21.6924 22.8513 23.5197 21.4841C24.1151 21.0387 24.6833 20.5425 25.2214 20.0037H25.7355C31.0904 20.0037 35.4467 15.6472 35.4467 10.2924V5.5195C35.4468 5.22011 35.2041 4.97751 34.9048 4.97751ZM30.3643 8.30159H32.1227V10.2925C32.1227 12.9189 30.4529 15.2751 28.0749 16.2288C28.2153 15.9809 28.3516 15.7298 28.4814 15.474C29.657 13.1571 30.304 10.6856 30.3643 8.30159ZM6.33446 1.61456C6.33446 1.36185 6.54006 1.15625 6.79277 1.15625H30.2073C30.46 1.15625 30.6656 1.36185 30.6656 1.61456C30.6656 1.86727 30.46 2.07287 30.2073 2.07287H6.7927C6.54006 2.07287 6.33446 1.86727 6.33446 1.61456ZM6.63566 8.30159C6.69601 10.6856 7.343 13.157 8.51854 15.4739C8.64833 15.7298 8.7847 15.9808 8.92511 16.2287C6.54699 15.2751 4.8773 12.9189 4.8773 10.2925V8.30159H6.63566ZM2.63721 10.2925V6.0615H6.62974V7.2176H4.3353C4.03598 7.2176 3.79331 7.4602 3.79331 7.75959V10.2925C3.79331 12.0615 4.43091 13.7812 5.58868 15.135C6.6809 16.412 8.16668 17.2858 9.79259 17.6152C10.1025 18.0636 10.4308 18.4939 10.7752 18.9056C6.24492 18.651 2.63721 14.8854 2.63721 10.2925ZM28.394 32.2807V35.8438H8.60599V32.2807C8.60599 31.5711 9.18332 30.9938 9.89289 30.9938H27.1071C27.8168 30.9939 28.394 31.5711 28.394 32.2807ZM24.1961 29.7199V29.9099H12.804V29.7199C12.804 28.9949 13.3939 28.4051 14.1188 28.4051H22.8812C23.6062 28.405 24.1961 28.9949 24.1961 29.7199ZM22.8704 20.6162C20.7637 22.1924 19.8099 24.8137 20.3669 27.321H16.6331C17.1901 24.8138 16.2364 22.1924 14.1296 20.6162C10.292 17.7451 7.71372 12.6493 7.71372 7.93607V3.15685H29.2863V7.93614C29.2863 12.6494 26.7079 17.7452 22.8704 20.6162ZM34.3628 10.2925C34.3628 14.8854 30.7551 18.6511 26.2248 18.9056C26.5691 18.4939 26.8975 18.0636 27.2073 17.6152C28.8333 17.2857 30.319 16.412 31.4113 15.135C32.569 13.7813 33.2066 12.0616 33.2066 10.2925V7.75959C33.2066 7.4602 32.964 7.2176 32.6647 7.2176H30.3702V6.0615H34.3628V10.2925ZM23.9334 9.29704L20.4019 8.96824L18.9977 5.71108C18.912 5.51235 18.7164 5.38364 18.5 5.38364C18.2836 5.38364 18.088 5.51235 18.0023 5.71108L16.5983 8.96809L13.0666 9.29697C12.8512 9.31699 12.6683 9.46333 12.6013 9.66914C12.5345 9.87495 12.5964 10.1008 12.7589 10.2437L15.4227 12.5855L14.6442 16.0459C14.5967 16.257 14.6793 16.4761 14.8544 16.6033C15.0295 16.7306 15.2635 16.7414 15.4495 16.631L18.4999 14.8213L21.5504 16.6311C21.636 16.6818 21.7315 16.7069 21.8269 16.7069C21.9391 16.7069 22.0509 16.6722 22.1455 16.6034C22.3206 16.4762 22.4032 16.2571 22.3557 16.0459L21.5772 12.5856L24.2411 10.2437C24.4036 10.1008 24.4655 9.87495 24.3987 9.66921C24.3317 9.4634 24.1489 9.31713 23.9334 9.29704ZM20.6199 11.984C20.471 12.1149 20.4054 12.3166 20.4489 12.51L21.0221 15.0573L18.7763 13.725C18.691 13.6744 18.5954 13.6491 18.4997 13.6491C18.404 13.6491 18.3084 13.6744 18.2232 13.725L15.9776 15.0573L16.5507 12.5098C16.5943 12.3163 16.5287 12.1146 16.3798 11.9837L14.4188 10.2598L17.0189 10.0176C17.2162 9.99925 17.3878 9.87459 17.4663 9.69248L18.4999 7.29478L19.5337 9.6927C19.6122 9.87481 19.7837 9.99947 19.9812 10.0178L22.5809 10.2598L20.6199 11.984ZM13.1894 35.0498H23.8106C24.1099 35.0498 24.3526 34.8072 24.3526 34.5078V32.3298C24.3526 32.0304 24.1099 31.7878 23.8106 31.7878H13.1894C12.89 31.7878 12.6474 32.0304 12.6474 32.3298V34.5078C12.6474 34.8072 12.89 35.0498 13.1894 35.0498ZM13.7314 32.8718H23.2686V33.9659H13.7314V32.8718Z" fill="#F0CB8B"/>
</svg>
