<svg width="160" height="160" viewBox="0 0 160 160" fill="none" xmlns="http://www.w3.org/2000/svg">
<g id="raise-hand 1">
<path id="Vector" d="M28.603 134.184C28.603 134.184 25.128 133.169 23.8562 134.184C22.5843 135.2 22.1624 150.241 22.1624 150.241H27.6718L28.603 134.184Z" fill="#E73F46"/>
<path id="Vector_2" d="M38.6904 113.388C38.6904 113.388 31.1748 113.388 29.1404 116.891C27.1061 120.394 25.5248 150.241 25.5248 150.241H38.6904V113.388Z" fill="#287EEF"/>
<path id="Vector_3" d="M75.6249 68.6279C75.6249 68.6279 69.1968 69.2373 65.6249 78.8529C62.053 88.4686 49.9187 83.7123 49.9187 83.7123C49.9187 83.7123 47.3624 102.875 62.7655 104.231C78.1687 105.587 80.0562 70.3748 80.0562 70.3748L75.6249 68.6279Z" fill="#64402A"/>
<g id="Clip path group">
<mask id="mask0_194_1186" style="mask-type:luminance" maskUnits="userSpaceOnUse" x="77" y="65" width="14" height="27">
<g id="a">
<path id="Vector_4" d="M90.4814 65.1875H77.9033V91.7219H90.4814V65.1875Z" fill="white"/>
</g>
</mask>
<g mask="url(#mask0_194_1186)">
<g id="Group">
<path id="Vector_5" d="M90.4814 65.1875H77.9033V91.7219H90.4814V65.1875Z" fill="#F9CCB4"/>
<path id="Vector_6" d="M91.4595 82.9781C91.4595 82.9781 79.7157 82.5781 78.1251 70.625L93.0063 73.6219L91.4595 82.9781Z" fill="#E8A88A"/>
</g>
</g>
</g>
<path id="Vector_7" d="M66.4594 99.8248C66.4594 99.8248 44.5125 95.3123 39.3125 101.406C34.1125 107.5 33.8875 150.24 33.8875 150.24H69.2969L66.4594 99.8248Z" fill="#2D1929"/>
<path id="Vector_8" d="M36.2218 140.575C36.2218 140.575 43.2124 137.206 48.2499 117.812C53.2874 98.4186 53.9468 98.7843 49.4187 97.8405C44.8906 96.8968 42.6468 98.1249 41.7812 108.262C40.9156 118.4 31.1125 140.825 36.2218 140.575Z" fill="#E73F46"/>
<path id="Vector_9" d="M35.3438 137.188C35.0292 138.196 34.4909 139.12 33.769 139.891C33.0472 140.662 32.1605 141.26 31.1751 141.641L31.9282 144.291C31.9282 144.291 36.4595 142.291 37.8657 138.409L35.3438 137.188Z" fill="#E73F46"/>
<path id="Vector_10" d="M101.581 47.2375C101.581 47.2375 108.281 65.3625 99.4218 72.2375L92.8406 45L101.581 47.2375Z" fill="#64402A"/>
<path id="Vector_11" d="M69.5689 55.5436C69.6596 65.0561 76.2689 71.4373 79.1533 73.7842C80.7123 75.279 82.463 76.56 84.3596 77.5936C86.4783 78.7186 92.1471 81.7279 96.2346 79.0967C97.3033 78.4092 98.7689 76.6811 100.497 72.6404C102.731 67.4154 103.035 64.6123 102.666 61.6498C102.297 58.6873 101.585 56.8873 101.416 54.9498C100.975 50.1561 101.5 46.5123 98.0814 43.2436C97.0328 42.026 95.814 40.9661 94.4627 40.0967C89.5377 36.4936 81.3658 36.3936 75.8471 40.5342C69.4752 45.3123 69.5502 53.5061 69.5689 55.5436Z" fill="#F9CCB4"/>
<g id="Group_2">
<path id="Vector_12" d="M94.6282 65.9845C95.7189 65.3595 96.2782 64.7345 96.2907 64.0564C96.322 62.5595 93.7907 62.4095 92.9939 58.0408C92.9864 57.9993 92.9628 57.9626 92.9282 57.9385C92.8936 57.9145 92.8509 57.9052 92.8095 57.9127C92.768 57.9201 92.7313 57.9437 92.7072 57.9783C92.6832 58.0129 92.6739 58.0556 92.6814 58.097C93.497 62.5189 96.0001 62.7845 95.9751 64.0502C95.9751 64.6033 95.4595 65.1595 94.472 65.7127C94.4359 65.7334 94.4096 65.7676 94.3987 65.8077C94.3879 65.8479 94.3934 65.8907 94.4142 65.9267C94.4349 65.9628 94.4691 65.9891 94.5092 66C94.5494 66.0108 94.5922 66.0053 94.6282 65.9845Z" fill="#2D1929"/>
<path id="Vector_13" d="M96.606 58.3783C96.6966 59.4533 97.3341 60.2814 98.031 60.2221C98.7279 60.1627 99.2185 59.2439 99.131 58.1658C99.0435 57.0877 98.4029 56.2658 97.706 56.3221C97.0091 56.3783 96.5154 57.3002 96.606 58.3783Z" fill="#2D1929"/>
<path id="Vector_14" d="M85.7593 59.2845C85.85 60.3627 86.4875 61.1877 87.1843 61.1283C87.8812 61.0689 88.3718 60.1502 88.2812 59.0752C88.1906 58.0002 87.5531 57.172 86.8562 57.2283C86.1593 57.2845 85.6687 58.2095 85.7593 59.2845Z" fill="#2D1929"/>
<path id="Vector_15" d="M93.7811 52.7938C93.8556 52.7938 93.9277 52.7672 93.9843 52.7188C94.0843 52.6313 96.4843 50.6282 99.2655 52.2188C99.3376 52.2602 99.4232 52.2713 99.5035 52.2497C99.5838 52.228 99.6522 52.1753 99.6936 52.1032C99.7351 52.0311 99.7462 51.9455 99.7245 51.8652C99.7028 51.7849 99.6501 51.7165 99.578 51.6751C96.4061 49.8657 93.6061 52.2219 93.578 52.2438C93.5295 52.2853 93.4948 52.3407 93.4787 52.4025C93.4626 52.4644 93.4658 52.5296 93.488 52.5896C93.5101 52.6495 93.5501 52.7012 93.6025 52.7377C93.6549 52.7742 93.7173 52.7938 93.7811 52.7938Z" fill="#2D1929"/>
<path id="Vector_16" d="M83.072 53.7503C83.1148 53.7501 83.1572 53.7412 83.1964 53.724C83.2357 53.7068 83.271 53.6817 83.3001 53.6503C85.4876 51.2972 88.4626 52.544 88.4939 52.5597C88.5316 52.5759 88.5722 52.5845 88.6133 52.585C88.6544 52.5855 88.6951 52.578 88.7333 52.5627C88.7715 52.5475 88.8062 52.5249 88.8357 52.4962C88.8651 52.4675 88.8886 52.4333 88.9048 52.3956C88.921 52.3578 88.9296 52.3173 88.9301 52.2762C88.9307 52.2351 88.9231 52.1943 88.9079 52.1561C88.8926 52.118 88.87 52.0832 88.8414 52.0538C88.8127 52.0244 88.7785 52.0009 88.7407 51.9847C88.7095 51.969 85.3345 50.5503 82.8439 53.2347C82.8055 53.2794 82.7806 53.3342 82.772 53.3925C82.7635 53.4509 82.7716 53.5104 82.7954 53.5644C82.8193 53.6183 82.8579 53.6644 82.9069 53.6973C82.9558 53.7302 83.013 53.7485 83.072 53.7503Z" fill="#2D1929"/>
</g>
<path id="Vector_17" d="M135.894 31.2721C135.144 61.1002 122.984 88.4877 102.55 109.085C97.6561 101.453 92.7602 93.8231 87.8623 86.1939C91.4275 86.062 94.9273 85.1972 98.1436 83.6533C103.562 81.0189 106.55 77.0908 108.203 74.9502C118.009 62.1221 125.39 32.2189 125.722 30.8564L135.894 31.2721Z" fill="#EFBD42"/>
<path id="Vector_18" d="M125.587 33.1407C125.587 33.1407 123.675 30.6407 123.344 27.9313C123.012 25.222 120.575 22.3282 118.728 21.8751C116.881 21.422 117.409 19.8313 119.587 19.6345C121.766 19.4376 122.816 20.8845 124.003 21.1501C125.191 21.4157 121.166 12.3157 121.597 11.3251C122.028 10.3345 124.269 13.2376 126.112 16.6001C126.112 16.6001 124.894 11.0626 124.994 10.4188C125.094 9.77509 126.475 10.272 128.653 15.9095C128.653 15.9095 127.662 11.2595 128.156 10.6657C128.65 10.072 130.031 12.447 131.175 15.9563C131.175 15.9563 130.284 12.447 131.175 12.2063C132.066 11.9657 135.672 21.1407 136.662 26.0845C137.653 31.0282 135.178 37.8126 125.587 33.1407Z" fill="#F9CCB4"/>
<path id="Vector_19" d="M101.138 150.122C104.081 131.156 104.716 115.91 104.688 105.194C104.688 100.244 104.534 95.9283 101.638 92.1376C94.2126 82.4283 73.3501 82.2126 65.7001 91.4595C63.8063 93.7501 63.3501 95.8595 62.3095 105.703C59.5813 131.531 58.9938 150.235 58.9188 150.235L101.138 150.122Z" fill="#EFBD42"/>
<path id="Vector_20" d="M83.072 84.6873C79.947 83.6248 74.4313 82.3092 68.9251 84.5092C62.822 86.9467 59.7313 92.5123 56.0407 101.462C47.3251 122.594 39.3376 141.956 47.0532 148.65C48.6157 150 50.2564 150.406 62.7657 150.459C73.2126 150.503 82.0282 150.337 88.6188 150.147C89.3834 146.93 90.148 143.716 90.9126 140.506L62.7657 136.444L71.8063 102.069C79.6813 100.112 84.8657 94.9342 84.8563 89.8248C84.8532 88.781 84.6251 86.9185 83.072 84.6873Z" fill="#EFBD42"/>
<path id="Vector_21" d="M89.7343 140.344C89.7343 140.344 96.8156 140.119 100.206 141.391C103.597 142.663 113.331 149.341 111.819 150.241C110.306 151.141 101.478 150.9 98.3406 150.131C95.2031 149.363 89.3374 150.356 86.9718 150.241C84.6062 150.125 85.3687 141.588 89.7343 140.344Z" fill="#F9CCB4"/>
<path id="Vector_22" d="M136.062 30.7781L135.438 38.9344C131.548 39.624 127.541 39.0775 123.978 37.3719L125.466 30.4688L136.062 30.7781Z" fill="#F9CCB4"/>
<path id="Vector_23" d="M129.578 25.9158C129.601 25.9157 129.623 25.9106 129.644 25.9008C129.665 25.8911 129.683 25.8769 129.698 25.8593C129.712 25.8418 129.723 25.8212 129.729 25.7991C129.734 25.777 129.735 25.7539 129.731 25.7314C129.287 23.097 127.028 22.1689 126.081 21.8908C128.931 20.5314 132.269 21.1564 132.303 21.1658C132.344 21.1736 132.387 21.1647 132.422 21.141C132.457 21.1173 132.481 21.0806 132.489 21.0392C132.497 20.9978 132.488 20.9549 132.464 20.92C132.44 20.8852 132.404 20.8611 132.362 20.8533C132.209 20.8251 128.584 20.1408 125.562 21.7908C125.534 21.8065 125.511 21.8307 125.497 21.8599C125.483 21.8891 125.479 21.9219 125.484 21.9538C125.49 21.9857 125.505 22.0151 125.528 22.038C125.551 22.0609 125.58 22.076 125.612 22.0814C125.644 22.0814 128.9 22.6564 129.425 25.7689C129.427 25.8082 129.444 25.8451 129.473 25.8723C129.501 25.8995 129.539 25.9151 129.578 25.9158Z" fill="#2D1929"/>
<path id="Vector_24" d="M90.4814 85.5313C90.4814 85.5313 90.2033 91.5438 85.9221 92.0938C81.6408 92.6438 77.9033 83.4719 77.9033 83.4719C77.9033 83.4719 86.0564 80.1563 90.4814 85.5313Z" fill="#F9CCB4"/>
<path id="Vector_25" d="M104.687 106.875C104.687 106.875 102.994 100.028 98.7498 94.2656C98.7498 94.2656 104.887 97.1562 107.581 103.678L104.687 106.875Z" fill="#D7981A"/>
<path id="Vector_26" d="M89.7344 140.344L59.9375 135.769C59.9375 135.769 52.5375 136.359 48.8625 141.306C51.05 136.931 55.2813 134.319 60.0531 134.072L70.5625 100.562L62.65 134.312L89.7344 140.344Z" fill="#D7981A"/>
<path id="Vector_27" d="M83.0719 40.2594C83.0719 40.2594 85.1344 39.2969 87.4469 43.0281C89.7594 46.7594 96.4375 51.1094 102.188 50.3125C102.188 50.3125 99.8125 28.8375 81.05 35.625C81.05 35.625 67.3187 32.1219 64.6031 44.6656C61.8875 57.2094 65.1187 67.9688 77.8875 72.7063C77.8875 72.7063 71.6562 63.7469 72.5094 59.1781C73.3625 54.6094 75.8875 58.1688 76.8281 52.6625C77.7687 47.1563 79.4187 38.5219 83.0719 40.2594Z" fill="#64402A"/>
<path id="Vector_28" d="M68.65 61.7908C69.7 64.3908 72.2875 65.8002 74.4281 64.9345C76.5688 64.0689 77.4531 61.2595 76.4031 58.6595C75.3531 56.0595 72.7656 54.6502 70.6219 55.5158C68.4781 56.3814 67.6 59.1908 68.65 61.7908Z" fill="#F9CCB4"/>
<path id="Vector_29" d="M74.669 62.1874C74.619 62.1874 73.4784 62.0061 73.3721 60.878C73.2971 60.1124 74.7065 59.8811 74.7221 59.878C74.7454 59.8747 74.7677 59.866 74.7871 59.8526C74.8065 59.8393 74.8226 59.8217 74.8341 59.8011C74.8455 59.7806 74.8521 59.7576 74.8533 59.7341C74.8545 59.7106 74.8502 59.6871 74.8409 59.6655C74.7909 59.5436 73.5659 56.703 71.6127 56.7936C70.2409 56.8593 69.9284 58.1655 69.9565 58.8436C69.9565 58.8851 69.973 58.9248 70.0023 58.9541C70.0316 58.9834 70.0713 58.9999 70.1127 58.9999C70.1542 58.9999 70.1939 58.9834 70.2232 58.9541C70.2525 58.9248 70.269 58.8851 70.269 58.8436C70.269 58.778 70.2221 57.1874 71.6284 57.1186C73.1252 57.0405 74.1815 59.0186 74.4721 59.6186C74.0221 59.7249 72.9784 60.0655 73.0596 60.9124C73.1909 62.2905 74.6221 62.503 74.6221 62.503C74.664 62.5092 74.7066 62.4985 74.7406 62.4733C74.7746 62.4481 74.7972 62.4105 74.8034 62.3686C74.8096 62.3268 74.7989 62.2842 74.7737 62.2502C74.7485 62.2162 74.7109 62.1936 74.669 62.1874Z" fill="#2D1929"/>
<path id="Vector_30" d="M94.8001 69.25L87.3376 68.125C90.247 71.0094 92.9626 72.2906 94.122 71.4594C94.3751 71.2719 94.8532 70.775 94.8001 69.25Z" fill="#E9FAFF"/>
</g>
</svg>
