<svg width="474" height="317" viewBox="0 0 474 317" fill="none" xmlns="http://www.w3.org/2000/svg">
<g clip-path="url(#clip0_2001_541)">
<path d="M10.8392 260.976H258.111V306.652H10.8392C5.06596 306.652 0.380615 301.957 0.380615 296.177V271.452C0.380615 265.67 5.06769 260.978 10.8392 260.978V260.976Z" fill="#F4EAE2"/>
<path d="M258.113 307.031H10.8391C4.86176 307.031 0 302.16 0 296.175V271.451C0 265.464 4.86349 260.595 10.8391 260.595H258.111C258.32 260.595 258.491 260.764 258.491 260.976V306.652C258.491 306.861 258.322 307.033 258.111 307.033L258.113 307.031ZM10.8391 261.357C5.28204 261.357 0.759272 265.885 0.759272 271.452V296.177C0.759272 301.742 5.28031 306.272 10.8391 306.272H257.73V261.359H10.8391V261.357Z" fill="#3D3D3D"/>
<path d="M258.113 303.029H108.742C103.989 303.029 100.124 299.158 100.124 294.398V273.228C100.124 268.468 103.991 264.596 108.742 264.596H258.113C258.322 264.596 258.493 264.766 258.493 264.977C258.493 265.189 258.324 265.358 258.113 265.358H108.742C104.409 265.358 100.885 268.889 100.885 273.228V294.398C100.885 298.737 104.409 302.267 108.742 302.267H258.113C258.322 302.267 258.493 302.437 258.493 302.648C258.493 302.86 258.324 303.029 258.113 303.029Z" fill="#3D3D3D"/>
<path d="M148.719 274.745H109.916C109.707 274.745 109.536 274.576 109.536 274.364C109.536 274.153 109.705 273.983 109.916 273.983H148.719C148.928 273.983 149.099 274.153 149.099 274.364C149.099 274.576 148.93 274.745 148.719 274.745Z" fill="#3D3D3D"/>
<path d="M176.634 293.691H121.881C121.672 293.691 121.501 293.521 121.501 293.31C121.501 293.098 121.67 292.929 121.881 292.929H176.634C176.843 292.929 177.014 293.098 177.014 293.31C177.014 293.521 176.845 293.691 176.634 293.691Z" fill="#3D3D3D"/>
<path d="M10.8392 219.302H258.111V260.976H10.8392C5.06596 260.976 0.380615 256.282 0.380615 250.501V229.778C0.380615 223.996 5.06769 219.303 10.8392 219.303V219.302Z" fill="#F4EAE2"/>
<path d="M258.113 261.357H10.8391C4.86176 261.357 0 256.488 0 250.501V229.778C0 223.792 4.86349 218.922 10.8391 218.922H258.111C258.32 218.922 258.491 219.092 258.491 219.303V260.978C258.491 261.187 258.322 261.359 258.111 261.359L258.113 261.357ZM10.8391 219.683C5.28204 219.683 0.759272 224.211 0.759272 229.777V250.499C0.759272 256.065 5.28031 260.593 10.8391 260.593H257.73V219.681H10.8391V219.683Z" fill="#3D3D3D"/>
<path d="M258.113 257.356H108.742C103.989 257.356 100.124 253.482 100.124 248.724V231.556C100.124 226.795 103.991 222.922 108.742 222.922H258.113C258.322 222.922 258.493 223.092 258.493 223.303C258.493 223.515 258.324 223.684 258.113 223.684H108.742C104.409 223.684 100.885 227.215 100.885 231.556V248.724C100.885 253.063 104.409 256.595 108.742 256.595H258.113C258.322 256.595 258.493 256.765 258.493 256.976C258.493 257.188 258.324 257.357 258.113 257.357V257.356Z" fill="#3D3D3D"/>
<path d="M80.327 227.814H8.9624V251.527H80.327V227.814Z" fill="#3D3D3D"/>
<path d="M413.998 16.704H204.081V142.155H413.998V16.704Z" fill="#F4EAE2"/>
<path d="M413.998 142.536H204.081C203.872 142.536 203.701 142.366 203.701 142.155V16.704C203.701 16.4944 203.87 16.3229 204.081 16.3229H413.998C414.208 16.3229 414.379 16.4926 414.379 16.704V142.155C414.379 142.364 414.209 142.536 413.998 142.536ZM204.462 141.773H413.618V17.0851H204.462V141.773Z" fill="#3D3D3D"/>
<path d="M253.46 31.2843C253.251 31.2843 253.08 31.1145 253.08 30.9032C253.08 30.6918 253.249 30.5221 253.46 30.5221C261.653 30.5221 268.317 23.846 268.317 15.6421C268.317 7.43824 261.651 0.762186 253.46 0.762186C245.269 0.762186 238.603 7.43824 238.603 15.6421C238.603 15.8517 238.434 16.0232 238.223 16.0232C238.012 16.0232 237.842 15.8535 237.842 15.6421C237.842 7.01731 244.849 0 253.46 0C262.072 0 269.078 7.01731 269.078 15.6421C269.078 24.267 262.072 31.2843 253.46 31.2843Z" fill="#3D3D3D"/>
<path d="M309.041 31.2843C308.832 31.2843 308.66 31.1145 308.66 30.9032C308.66 30.6918 308.83 30.5221 309.041 30.5221C317.234 30.5221 323.898 23.846 323.898 15.6421C323.898 7.43824 317.232 0.762186 309.041 0.762186C300.85 0.762186 294.184 7.43824 294.184 15.6421C294.184 15.8517 294.015 16.0232 293.804 16.0232C293.593 16.0232 293.423 15.8535 293.423 15.6421C293.423 7.01731 300.429 0 309.041 0C317.652 0 324.659 7.01731 324.659 15.6421C324.659 24.267 317.652 31.2843 309.041 31.2843Z" fill="#3D3D3D"/>
<path d="M364.621 31.2843C364.412 31.2843 364.241 31.1145 364.241 30.9032C364.241 30.6918 364.41 30.5221 364.621 30.5221C372.814 30.5221 379.478 23.846 379.478 15.6421C379.478 7.43824 372.813 0.762186 364.621 0.762186C356.43 0.762186 349.765 7.43824 349.765 15.6421C349.765 15.8517 349.595 16.0232 349.384 16.0232C349.173 16.0232 349.004 15.8535 349.004 15.6421C349.004 7.01731 356.01 0 364.621 0C373.233 0 380.239 7.01731 380.239 15.6421C380.239 24.267 373.233 31.2843 364.621 31.2843Z" fill="#3D3D3D"/>
<path d="M260.828 42.7793H227.003V76.6567H260.828V42.7793Z" fill="#3D3D3D"/>
<path d="M302.522 42.7793H268.697V76.6567H302.522V42.7793Z" fill="#F4EAE2"/>
<path d="M302.903 77.0378H268.317V42.3982H302.903V77.0378ZM269.078 76.2756H302.142V43.1604H269.078V76.2756Z" fill="#3D3D3D"/>
<path d="M344.215 42.7793H310.39V76.6567H344.215V42.7793Z" fill="#3D3D3D"/>
<path d="M385.909 42.7793H352.084V76.6567H385.909V42.7793Z" fill="#3D3D3D"/>
<path d="M427.601 42.7793H393.777V76.6567H427.601V42.7793Z" fill="#3D3D3D"/>
<path d="M260.828 82.9136H227.003V116.791H260.828V82.9136Z" fill="#3D3D3D"/>
<path d="M302.522 82.9136H268.697V116.791H302.522V82.9136Z" fill="#3D3D3D"/>
<path d="M344.215 82.9136H310.39V116.791H344.215V82.9136Z" fill="#3D3D3D"/>
<path d="M385.909 82.9136H352.084V116.791H385.909V82.9136Z" fill="#3D3D3D"/>
<path d="M427.601 82.9136H393.777V116.791H427.601V82.9136Z" fill="#3D3D3D"/>
<path d="M260.828 123.048H227.003V156.925H260.828V123.048Z" fill="#3D3D3D"/>
<path d="M302.522 123.048H268.697V156.925H302.522V123.048Z" fill="#3D3D3D"/>
<path d="M344.215 123.048H310.39V156.925H344.215V123.048Z" fill="#3D3D3D"/>
<path d="M160.594 48.2221C156.365 44.4458 150.073 43.72 144.559 45.0313C139.763 46.1711 126.667 55.6083 125.864 65.3695C123.057 64.5276 119.69 64.5883 116.369 65.7575C109.484 68.1809 105.409 74.4412 107.268 79.7384C109.128 85.0356 116.217 87.3638 123.102 84.9403C127.399 83.4281 130.6 80.4227 131.949 77.0898C143.105 85.3561 165.132 82.5308 166.135 66.8384C166.564 60.1433 165.592 52.6895 160.594 48.2238V48.2221Z" fill="#3D3D3D"/>
<path d="M239.104 142.666L181.812 150.623L158.201 161.717C150.992 187.48 215.551 185.942 215.551 185.942L181.876 228.271C178.647 232.331 178.184 237.956 180.749 242.467C187.823 254.903 202.811 274.801 210.495 284.775C212.398 287.245 216.31 286.393 217.021 283.356L221.061 266.096L268.165 186.418C280.59 165.401 263.262 139.31 239.105 142.666H239.104Z" fill="#F4EAE2"/>
<path d="M213.403 286.599C212.157 286.599 210.979 286.029 210.193 285.009C202.081 274.48 187.425 254.977 180.417 242.656C177.763 237.993 178.22 232.254 181.577 228.034L214.752 186.334C211.972 186.358 202.396 186.335 191.954 185.06C175.304 183.027 164.496 178.947 159.832 172.936C157.312 169.69 156.641 165.881 157.834 161.615C157.863 161.507 157.938 161.419 158.038 161.372L181.65 150.279C181.684 150.263 181.721 150.251 181.759 150.246L239.05 142.288C250.37 140.715 261.337 145.659 267.667 155.191C273.997 164.722 274.312 176.763 268.489 186.613L221.414 266.24L217.387 283.443C217.024 284.993 215.834 286.166 214.281 286.504C213.987 286.568 213.691 286.599 213.401 286.599H213.403ZM215.549 185.561C215.692 185.561 215.826 185.642 215.89 185.772C215.955 185.906 215.938 186.063 215.846 186.179L182.172 228.508C179.01 232.484 178.582 237.889 181.077 242.278C188.063 254.558 202.695 274.03 210.794 284.543C211.583 285.567 212.859 286.034 214.12 285.759C215.385 285.485 216.353 284.531 216.647 283.27L220.687 266.01C220.696 265.972 220.712 265.935 220.731 265.902L267.835 186.224C273.508 176.628 273.202 164.899 267.034 155.612C260.867 146.328 250.183 141.51 239.154 143.041L181.92 150.992L158.519 161.987C157.457 165.94 158.1 169.465 160.43 172.469C171.279 186.451 215.098 185.571 215.539 185.561C215.542 185.561 215.545 185.561 215.547 185.561H215.549Z" fill="#3D3D3D"/>
<path d="M217.379 265.39C217.275 265.39 217.17 265.346 217.095 265.263C205.583 252.365 196.495 237.679 190.081 221.614C190.004 221.418 190.099 221.197 190.294 221.119C190.49 221.041 190.711 221.136 190.789 221.332C197.169 237.313 206.211 251.923 217.664 264.756C217.804 264.913 217.79 265.154 217.635 265.294C217.562 265.358 217.472 265.391 217.382 265.391L217.379 265.39Z" fill="#3D3D3D"/>
<path d="M152.424 169.375L201.173 168.145C224.657 167.553 246.169 181.205 255.681 202.717C271.285 238.007 295.634 289.799 312.869 311.008C314.896 313.503 312.843 317.191 309.66 316.773L260.949 310.374C253.082 309.34 246.158 304.66 242.258 297.739L197.466 218.24C197.466 218.24 107.77 222.574 115.709 204.787C123.648 187.001 152.425 169.375 152.425 169.375H152.424Z" fill="#F4EAE2"/>
<path d="M310.152 317.187C309.974 317.187 309.792 317.175 309.61 317.151L260.899 310.752C252.956 309.709 245.864 304.914 241.926 297.926L197.25 218.631C191.913 218.879 123.997 221.786 115.69 209.608C114.668 208.11 114.557 206.435 115.361 204.633C123.257 186.943 151.938 169.228 152.227 169.051C152.284 169.016 152.349 168.997 152.415 168.996L201.164 167.766C224.888 167.166 246.418 180.827 256.031 202.565C272.799 240.487 296.324 290.043 313.165 310.769C314.204 312.048 314.351 313.735 313.55 315.171C312.839 316.446 311.57 317.187 310.153 317.187H310.152ZM197.465 217.859C197.601 217.859 197.728 217.933 197.797 218.053L242.589 297.552C246.409 304.332 253.291 308.985 260.998 309.997L309.709 316.395C311.023 316.569 312.241 315.957 312.884 314.798C313.529 313.639 313.41 312.28 312.573 311.249C295.679 290.457 272.121 240.837 255.334 202.871C245.847 181.416 224.581 167.941 201.183 168.526L152.538 169.754C150.791 170.841 123.642 187.95 116.057 204.945C115.358 206.511 115.443 207.897 116.318 209.18C124.542 221.24 196.719 217.897 197.447 217.86C197.454 217.86 197.46 217.86 197.466 217.86L197.465 217.859Z" fill="#3D3D3D"/>
<path d="M215.549 218.69L199.915 218.631C199.706 218.631 199.535 218.46 199.537 218.248C199.537 218.039 199.715 217.857 199.919 217.869L215.552 217.928C215.762 217.928 215.933 218.099 215.931 218.311C215.931 218.52 215.76 218.69 215.551 218.69H215.549Z" fill="#3D3D3D"/>
<path d="M300.011 300.079C299.991 300.079 299.968 300.079 299.946 300.074L241.184 289.937C240.977 289.901 240.838 289.705 240.875 289.497C240.911 289.289 241.105 289.149 241.314 289.187L300.075 299.324C300.283 299.361 300.421 299.556 300.385 299.764C300.354 299.95 300.193 300.081 300.01 300.081L300.011 300.079Z" fill="#3D3D3D"/>
<path d="M181.811 150.624L166.38 168.956H156.727C156.727 168.956 130.365 193.736 128.477 217.606C128.477 217.606 80.8742 210.308 94.4286 156.284L158.816 150.624H181.812H181.811Z" fill="#3A6BEA"/>
<path d="M117.338 208.039C117.319 208.039 117.3 208.039 117.283 208.035C117.075 208.004 116.932 207.81 116.963 207.602C118.665 196.046 123.745 184.766 131.265 175.84C133.1 173.661 135.376 171.244 138.345 169.846C142.033 168.111 146.277 168.185 150.02 168.251C150.229 168.254 150.397 168.428 150.393 168.639C150.39 168.85 150.2 169.013 150.006 169.013C146.345 168.949 142.195 168.876 138.669 170.536C135.832 171.871 133.627 174.215 131.846 176.33C124.416 185.151 119.398 196.296 117.715 207.713C117.688 207.902 117.525 208.039 117.34 208.039H117.338Z" fill="#3D3D3D"/>
<path d="M100.535 169.494L118.775 88.5954C118.775 88.5954 152.468 87.9077 164.305 90.5892C164.305 90.5892 165.62 139.871 166.227 151.694L100.535 169.496V169.494Z" fill="#3A6BEA"/>
<path d="M166.178 148.122L166.227 149.617H186.151C186.151 149.617 176.241 90.0157 164.305 90.5891L166.178 148.122Z" fill="#F4EAE2"/>
<path d="M186.151 149.998H166.227C166.021 149.998 165.853 149.835 165.846 149.629L165.798 148.134C165.791 147.925 165.955 147.748 166.166 147.741C166.384 147.729 166.552 147.899 166.559 148.11L166.595 149.238H185.7C185.255 146.651 182.875 133.209 179.335 119.984C174.193 100.778 168.999 90.7381 164.323 90.972C164.112 90.9789 163.935 90.8195 163.925 90.6099C163.914 90.4003 164.077 90.2219 164.286 90.2115C176.436 89.6399 186.118 147.11 186.527 149.558C186.546 149.669 186.514 149.782 186.442 149.866C186.369 149.951 186.264 150.002 186.151 150.002V149.998Z" fill="#3D3D3D"/>
<path d="M235.025 151.694H143.694V148.938C143.694 146.515 145.656 144.55 148.075 144.55H241.447L240.698 147.339C240.008 149.908 237.681 151.692 235.027 151.692L235.025 151.694Z" fill="#3D3D3D"/>
<path d="M237.63 148.46H182.528C180.174 148.46 178.446 146.248 179.012 143.96L189.425 101.883C189.827 100.265 191.276 99.1292 192.942 99.1292H248.043C250.397 99.1292 252.125 101.341 251.559 103.63L241.146 145.706C240.745 147.324 239.295 148.46 237.63 148.46Z" fill="#3D3D3D"/>
<path d="M237.63 148.841H182.528C181.288 148.841 180.139 148.28 179.377 147.303C178.612 146.326 178.346 145.073 178.643 143.868L189.057 101.792C189.5 99.9987 191.098 98.748 192.942 98.748H248.043C249.283 98.748 250.432 99.3093 251.196 100.286C251.961 101.263 252.227 102.516 251.93 103.721L241.516 145.797C241.071 147.59 239.475 148.841 237.631 148.841H237.63ZM192.942 99.5102C191.449 99.5102 190.155 100.524 189.795 101.975L179.382 144.051C179.14 145.027 179.356 146.042 179.975 146.833C180.594 147.625 181.525 148.079 182.528 148.079H237.63C239.122 148.079 240.416 147.065 240.776 145.614L251.189 103.538C251.431 102.562 251.215 101.547 250.596 100.756C249.977 99.9641 249.046 99.5102 248.043 99.5102H192.942Z" fill="#F4EAE2"/>
<path d="M220.737 115.592C220.859 114.593 220.151 113.684 219.153 113.561C218.156 113.438 217.248 114.148 217.125 115.147C217.002 116.146 217.711 117.055 218.708 117.178C219.706 117.301 220.614 116.591 220.737 115.592Z" fill="#F4EAE2"/>
<path d="M162.273 144.55C162.273 144.55 152.219 127.299 138.485 132.404C124.751 137.509 105.172 149.77 105.172 149.77C105.172 149.77 123.248 100.593 118.773 88.5972C118.773 88.5972 95.0957 95.7167 84.1442 131.167C73.1927 166.617 89.5283 178.66 101.118 178.869C112.706 179.077 141.764 148.45 146.344 148.462L162.271 144.552L162.273 144.55Z" fill="#F4EAE2"/>
<path d="M92.8647 177.141C92.8059 177.141 92.7471 177.127 92.6917 177.099C88.8833 175.154 83.8434 171.05 81.4601 162.55C79.12 154.211 79.9017 143.615 83.7828 131.054C89.4661 112.654 98.6327 101.998 105.321 96.2986C112.587 90.1076 118.421 88.306 118.666 88.2333C118.867 88.1727 119.079 88.287 119.14 88.4879C119.201 88.6889 119.086 88.9019 118.886 88.9626C118.827 88.9799 112.929 90.8057 105.781 96.9084C99.181 102.542 90.1337 113.079 84.511 131.279C80.6748 143.698 79.8948 154.15 82.1951 162.344C84.5058 170.577 89.3693 174.544 93.0411 176.42C93.2279 176.515 93.3023 176.746 93.2071 176.933C93.1397 177.064 93.0065 177.141 92.8682 177.141H92.8647Z" fill="#3D3D3D"/>
<path d="M149.926 146.364C149.769 146.364 149.622 146.265 149.566 146.108C148.682 143.561 146.685 141.394 144.22 140.31C144.028 140.225 143.94 140 144.025 139.807C144.109 139.615 144.334 139.527 144.526 139.612C147.179 140.779 149.333 143.114 150.284 145.856C150.353 146.056 150.248 146.272 150.05 146.341C150.009 146.355 149.967 146.362 149.926 146.362V146.364Z" fill="#3D3D3D"/>
<path d="M154.933 145.357C154.769 145.357 154.618 145.25 154.568 145.085C153.639 141.973 151.332 139.289 148.397 137.907C148.207 137.817 148.125 137.59 148.215 137.4C148.304 137.209 148.532 137.126 148.722 137.218C151.851 138.69 154.309 141.55 155.298 144.867C155.358 145.068 155.244 145.281 155.042 145.342C155.006 145.352 154.969 145.357 154.933 145.357Z" fill="#3D3D3D"/>
<path d="M143.693 151.694V148.938C143.693 146.514 145.654 144.55 148.074 144.55H166.227L143.694 151.694H143.693Z" fill="#3D3D3D"/>
<path d="M147.83 88.909L152.64 75.1255L139.869 68.6123L131.951 88.7132L147.83 88.909Z" fill="#F4EAE2"/>
<path d="M147.83 89.29C147.788 89.29 147.745 89.283 147.704 89.2692C147.505 89.1999 147.401 88.9834 147.47 88.7841L152.169 75.316L140.069 69.144L132.304 88.8552C132.226 89.0509 132.006 89.1462 131.811 89.07C131.615 88.992 131.52 88.772 131.596 88.5763L139.516 68.4754C139.556 68.3749 139.635 68.2969 139.736 68.2588C139.836 68.2207 139.947 68.2276 140.043 68.2762L152.813 74.7894C152.982 74.876 153.062 75.0752 152.999 75.2553L148.19 89.0371C148.134 89.1947 147.987 89.2917 147.83 89.2917V89.29Z" fill="#3D3D3D"/>
<path d="M131.951 88.7131C131.951 88.7131 136.391 94.5785 146.346 95.9141C156.301 97.2496 147.83 88.9071 147.83 88.9071L131.951 88.7131Z" fill="#F4EAE2"/>
<path d="M162.54 66.9925C162.247 70.0464 161.395 73.109 159.627 75.6138C157.858 78.1204 155.092 80.0137 152.04 80.2857C149.393 80.5213 146.725 79.5252 144.646 77.8675C142.567 76.2097 141.043 73.9353 139.962 71.505C137.19 71.6851 134.419 69.7675 133.606 67.1068C133.137 65.572 133.331 63.7636 134.407 62.5735C135.483 61.3835 137.515 61.0665 138.722 62.1231C139.41 62.7242 139.758 63.6527 140.469 64.2261C141.263 64.8636 142.404 64.945 143.371 64.6297C144.34 64.3144 145.158 63.6527 145.868 62.9217C148.107 60.6213 149.468 57.4859 149.622 54.2778C149.608 54.581 150.995 55.4384 151.237 55.6065C151.848 56.0274 152.496 56.3946 153.171 56.7047C154.501 57.3162 155.933 57.7077 157.387 57.8618C158.126 57.9398 158.871 57.9571 159.611 57.9086C160.2 57.8705 161.037 57.5622 161.609 57.7163C162.804 58.042 162.541 60.3164 162.591 61.2397C162.694 63.1556 162.719 65.0801 162.538 66.9925H162.54Z" fill="#F4EAE2"/>
<path d="M151.277 80.6998C148.921 80.6998 146.458 79.799 144.409 78.1655C142.511 76.6533 140.936 74.5452 139.722 71.8966C136.885 71.9399 134.075 69.9409 133.243 67.2195C132.689 65.4111 133.028 63.5333 134.127 62.319C135.396 60.9142 137.662 60.689 138.974 61.8374C139.341 62.1579 139.611 62.5494 139.872 62.927C140.135 63.3081 140.384 63.6667 140.711 63.93C141.349 64.4427 142.325 64.5727 143.259 64.2678C144.033 64.0149 144.777 63.5021 145.602 62.6551C147.769 60.4274 149.097 57.3665 149.248 54.2606C149.258 54.0493 149.438 53.8917 149.646 53.8969C149.826 53.9055 149.971 54.0372 150.002 54.2087C150.082 54.3213 150.377 54.5828 151.287 55.1787C151.363 55.2289 151.422 55.2671 151.458 55.293C152.045 55.6984 152.678 56.057 153.335 56.3601C154.63 56.956 156.009 57.3336 157.434 57.4843C158.155 57.5605 158.882 57.5761 159.594 57.5294C159.776 57.5172 159.997 57.4739 160.232 57.4272C160.713 57.3336 161.258 57.2262 161.715 57.3492C162.982 57.6939 162.975 59.4747 162.97 60.6543C162.97 60.8709 162.968 61.0649 162.977 61.219C163.1 63.5091 163.081 65.3556 162.922 67.029C162.586 70.5454 161.583 73.5075 159.94 75.8339C157.991 78.5951 155.052 80.4001 152.076 80.6652C151.813 80.6894 151.547 80.6998 151.278 80.6998H151.277ZM139.962 71.124C140.111 71.124 140.247 71.2123 140.31 71.3492C141.487 73.996 143.027 76.0886 144.883 77.5696C147.012 79.2672 149.609 80.1212 152.007 79.9064C154.762 79.6622 157.494 77.975 159.316 75.394C160.881 73.1767 161.837 70.3375 162.161 66.9562C162.316 65.321 162.334 63.5108 162.214 61.2589C162.206 61.0926 162.206 60.883 162.207 60.6491C162.211 59.7605 162.218 58.2742 161.512 58.0837C161.227 58.0057 160.775 58.0958 160.376 58.1738C160.116 58.2257 159.869 58.2725 159.639 58.2881C158.885 58.3366 158.114 58.321 157.351 58.2396C155.843 58.0802 154.385 57.6801 153.015 57.0495C152.318 56.7291 151.647 56.348 151.024 55.9184C150.991 55.8959 150.938 55.8595 150.869 55.8144C150.476 55.5563 150.17 55.3467 149.935 55.1666C149.592 58.1512 148.238 61.0354 146.145 63.1851C145.232 64.124 144.39 64.6974 143.494 64.9901C142.319 65.3729 141.071 65.1945 140.235 64.5224C139.822 64.1898 139.53 63.7672 139.248 63.3583C139.002 63.0032 138.77 62.6672 138.475 62.4091C137.48 61.5395 135.676 61.7387 134.692 62.8283C133.788 63.8295 133.506 65.4648 133.973 66.9943C134.732 69.4784 137.359 71.2903 139.94 71.124C139.948 71.124 139.957 71.124 139.964 71.124H139.962Z" fill="#3D3D3D"/>
<path d="M137.041 65.5913C138.466 65.9204 139.632 67.1676 139.869 68.6123L137.041 65.5913Z" fill="#F4EAE2"/>
<path d="M139.869 68.9933C139.685 68.9933 139.525 68.86 139.493 68.6746C139.281 67.3737 138.238 66.2599 136.956 65.9636C136.752 65.9169 136.624 65.7125 136.671 65.5063C136.717 65.3019 136.923 65.1755 137.127 65.2205C138.703 65.5843 139.985 66.9545 140.246 68.5516C140.28 68.7595 140.138 68.9552 139.933 68.9899C139.912 68.9933 139.891 68.9951 139.87 68.9951L139.869 68.9933Z" fill="#3D3D3D"/>
<path d="M461.831 317H165.874C165.665 317 165.494 316.83 165.494 316.619C165.494 316.408 165.663 316.238 165.874 316.238H461.831C462.04 316.238 462.211 316.408 462.211 316.619C462.211 316.83 462.042 317 461.831 317Z" fill="#3D3D3D"/>
<path d="M333.687 105.315H441.993V240.054H333.687C330.164 240.054 327.303 237.189 327.303 233.66V111.709C327.303 108.18 330.164 105.315 333.687 105.315Z" fill="#F4EAE2"/>
<path d="M442.372 240.437H333.685C329.955 240.437 326.921 237.397 326.921 233.662V111.711C326.921 107.974 329.956 104.936 333.685 104.936H442.372V240.437ZM333.687 105.696C330.377 105.696 327.684 108.393 327.684 111.709V233.66C327.684 236.976 330.377 239.673 333.687 239.673H441.612V105.695H333.687V105.696Z" fill="#3D3D3D"/>
<path d="M344.723 233.707C344.514 233.707 344.343 233.537 344.343 233.326V110.647C344.343 110.437 344.512 110.266 344.723 110.266C344.934 110.266 345.104 110.436 345.104 110.647V233.326C345.104 233.536 344.934 233.707 344.723 233.707Z" fill="#3D3D3D"/>
<path d="M427.473 136.832H361.661V177.518H427.473V136.832Z" fill="#3D3D3D"/>
<path d="M441.991 217.583H365.694C362.167 217.583 359.31 214.72 359.31 211.19V105.315L441.991 217.583Z" fill="#FFC941"/>
<path d="M359.31 105.315V89.2382C359.31 85.7061 362.169 82.8445 365.694 82.8445H474V217.583H441.991L359.31 105.315Z" fill="#FFC941"/>
<path d="M376.732 211.235C376.523 211.235 376.351 211.065 376.351 210.854V88.1745C376.351 87.9649 376.521 87.7935 376.732 87.7935C376.943 87.7935 377.112 87.9632 377.112 88.1745V210.854C377.112 211.063 376.943 211.235 376.732 211.235Z" fill="#3D3D3D"/>
<path d="M459.482 114.361H393.669V155.048H459.482V114.361Z" fill="#3D3D3D"/>
<path d="M332.63 286.296C332.16 286.024 314.449 255.525 317.746 217.677C318.1 213.603 321.639 210.486 325.709 210.824C325.773 210.829 325.837 210.835 325.901 210.841C328.841 211.124 331.321 213.157 332.2 215.983C334.434 223.175 338.365 241.927 339.261 286.296H332.632H332.63Z" fill="#F4EAE2"/>
<path d="M339.647 286.677H332.526L332.438 286.627C331.992 286.369 327.364 278.214 323.412 266.199C319.705 254.929 315.648 237.355 317.363 217.646C317.74 213.324 321.495 210.095 325.736 210.447L325.933 210.464C329.031 210.762 331.63 212.884 332.559 215.87C334.82 223.14 338.744 241.958 339.638 286.289L339.647 286.677ZM332.813 285.915H338.87C337.962 241.956 334.076 223.307 331.834 216.095C330.997 213.404 328.654 211.489 325.862 211.221L325.676 211.204C321.852 210.888 318.463 213.805 318.123 217.71C316.435 237.095 320.378 254.399 323.984 265.499C327.85 277.398 332.135 284.902 332.812 285.913L332.813 285.915Z" fill="#3D3D3D"/>
<path d="M333.538 278.007C333.367 278.007 333.211 277.89 333.168 277.715C329.271 261.459 326.734 244.76 325.629 228.082C325.615 227.873 325.774 227.691 325.983 227.677C326.189 227.663 326.374 227.823 326.388 228.032C327.49 244.669 330.02 261.324 333.908 277.536C333.957 277.741 333.832 277.947 333.628 277.995C333.599 278.002 333.569 278.006 333.538 278.006V278.007Z" fill="#3D3D3D"/>
<path d="M335.915 286.296H348.184C348.184 286.296 351.015 238.161 351.96 220.161C352.904 202.161 345.277 199.282 341.183 200.088C338.322 200.651 326.009 204.431 335.915 286.296Z" fill="#F4EAE2"/>
<path d="M348.544 286.677H335.577L335.537 286.341C329.019 232.467 330.999 201.7 341.11 199.714C342.165 199.506 344.905 199.272 347.544 201.567C350.062 203.757 352.938 208.763 352.34 220.182C351.406 237.975 348.592 285.837 348.564 286.319L348.544 286.677ZM336.252 285.915H347.826C348.087 281.461 350.69 237.116 351.581 220.142C352.164 209.03 349.436 204.219 347.046 202.142C344.659 200.067 342.201 200.277 341.257 200.462C338.004 201.101 335.608 205.245 334.137 212.776C331.387 226.853 332.099 251.459 336.254 285.915H336.252Z" fill="#3D3D3D"/>
<path d="M349.884 286.296H359.841C359.841 286.296 365.151 274.144 368.797 260.416C372.443 246.688 373.928 231.09 368.797 230.333C363.665 229.576 355.341 235.749 349.884 286.296Z" fill="#F4EAE2"/>
<path d="M360.088 286.677H349.458L349.503 286.255C352.904 254.747 357.88 236.252 364.289 231.284C365.728 230.168 367.262 229.721 368.848 229.955C369.718 230.083 370.447 230.584 371.012 231.445C373.899 235.836 372.162 249.207 369.16 260.514C365.548 274.113 360.239 286.326 360.185 286.449L360.085 286.677H360.088ZM350.308 285.915H359.59C360.332 284.181 365.104 272.838 368.428 260.318C371.291 249.538 373.122 236.035 370.379 231.864C369.931 231.183 369.395 230.807 368.739 230.71C367.345 230.504 366.043 230.891 364.756 231.888C358.544 236.702 353.682 254.88 350.306 285.915H350.308Z" fill="#3D3D3D"/>
<path d="M354.699 285.33C354.666 285.33 354.633 285.325 354.599 285.316C354.396 285.26 354.277 285.051 354.331 284.848L363.907 249.529C363.963 249.327 364.17 249.206 364.374 249.261C364.577 249.316 364.696 249.526 364.642 249.729L355.066 285.047C355.019 285.217 354.867 285.328 354.699 285.328V285.33Z" fill="#3D3D3D"/>
<path d="M340.899 285.731H340.897C340.688 285.731 340.519 285.558 340.519 285.349L340.889 214.64C340.889 214.431 341.06 214.261 341.269 214.261H341.271C341.48 214.261 341.65 214.434 341.65 214.644L341.28 285.352C341.28 285.562 341.108 285.731 340.899 285.731Z" fill="#3D3D3D"/>
<path d="M363.068 282.463H328.149C326.101 282.463 324.538 284.299 324.864 286.326L329.737 316.621H361.481L366.353 286.326C366.678 284.301 365.116 282.463 363.068 282.463Z" fill="#3D3D3D"/>
<path d="M104.416 35.3273L53.5952 52.5995L2.77417 35.3273L53.5952 18.0569L104.416 35.3273Z" fill="#3D3D3D"/>
<path d="M80.3583 56.1264H26.8323V40.4894C26.8323 37.5845 28.8541 35.0745 31.6871 34.4491C46.2932 31.2289 60.8992 31.2289 75.5052 34.4491C78.3382 35.0745 80.3583 37.5845 80.3583 40.4894V56.1264Z" fill="#3D3D3D"/>
<path d="M80.3582 56.5074H26.8322C26.7318 56.5074 26.635 56.4675 26.5624 56.3965C26.4897 56.3255 26.4517 56.2285 26.4517 56.1263V40.4894C26.4517 37.4319 28.6188 34.7348 31.604 34.0766C46.1962 30.8581 60.9942 30.8581 75.5847 34.0766C78.5699 34.7348 80.737 37.4319 80.737 40.4894V56.1263C80.737 56.3359 80.5675 56.5074 80.3565 56.5074H80.3582ZM27.2127 55.7452H79.9777V40.4894C79.9777 37.7438 78.1046 35.4122 75.4221 34.8215C60.9389 31.6272 46.2515 31.6272 31.7683 34.8215C29.0858 35.4122 27.2127 37.7438 27.2127 40.4894V55.7452Z" fill="#F4EAE2"/>
<path d="M53.5953 61.0113C68.3761 61.0113 80.3583 58.8242 80.3583 56.1264C80.3583 53.4285 68.3761 51.2415 53.5953 51.2415C38.8145 51.2415 26.8323 53.4285 26.8323 56.1264C26.8323 58.8242 38.8145 61.0113 53.5953 61.0113Z" fill="#3D3D3D"/>
<path d="M53.5952 61.3924C40.4368 61.3924 26.4517 59.5475 26.4517 56.1264C26.4517 52.7052 40.4368 50.8604 53.5952 50.8604C66.7536 50.8604 80.7387 52.7069 80.7387 56.1264C80.7387 59.5458 66.7536 61.3924 53.5952 61.3924ZM53.5952 51.6225C38.0483 51.6225 27.2127 53.9957 27.2127 56.1264C27.2127 58.257 38.0483 60.6302 53.5952 60.6302C69.1421 60.6302 79.9777 58.257 79.9777 56.1264C79.9777 53.9957 69.1421 51.6225 53.5952 51.6225Z" fill="#F4EAE2"/>
<path d="M13.0355 60.275C12.8263 60.275 12.655 60.1052 12.655 59.8939V41.8491C12.655 41.6395 12.8245 41.468 13.0355 41.468C13.2465 41.468 13.416 41.6378 13.416 41.8491V59.8939C13.416 60.1035 13.2465 60.275 13.0355 60.275Z" fill="#3D3D3D"/>
<path d="M16.7075 77.225H9.36206L13.0356 62.1597L16.7075 77.225Z" fill="#3D3D3D"/>
<path d="M77.5098 129.386H53.5953C53.3861 129.386 53.2148 129.216 53.2148 129.005V67.1018C53.2148 66.8922 53.3843 66.7207 53.5953 66.7207C53.8064 66.7207 53.9758 66.8905 53.9758 67.1018V128.624H77.5098C77.7191 128.624 77.8903 128.794 77.8903 129.005C77.8903 129.216 77.7208 129.386 77.5098 129.386Z" fill="#3D3D3D"/>
</g>
<defs>
<clipPath id="clip0_2001_541">
<rect width="474" height="317" fill="white"/>
</clipPath>
</defs>
</svg>
