<svg width="140" height="140" viewBox="0 0 140 140" fill="none" xmlns="http://www.w3.org/2000/svg">
<g id="man (3) 1">
<g id="Group">
<g id="Group_2">
<g id="Group_3">
<g id="Group_4">
<g id="Group_5">
<g id="Group_6">
<g id="Group_7">
<path id="Vector" d="M80.46 50.0509L78.4472 55.6851L80.0153 57.7083C80.0153 57.7083 79.8685 72.3377 72.0282 72.1783C64.1882 72.0186 58.2183 60.2179 58.2183 60.2179L59.1808 43.4507L80.46 50.0509Z" fill="#F9CCB4"/>
</g>
</g>
</g>
</g>
<g id="Group_8">
<g id="Group_9">
<path id="Vector_2" d="M9.45364 136.149H48.4617L77.9719 126.27L104.409 136.149H128.919C130.883 119.197 120.914 91.3041 110.314 80.0464C99.2481 68.2807 85.2768 64.1482 81.6272 63.1879H81.6209C81.1005 63.0517 80.7907 62.9773 80.735 62.9588C80.6483 62.9339 80.0845 63.5907 79.1241 64.4025H79.1179C77.4698 65.7965 74.657 67.649 71.0077 67.3887C67.2777 67.1224 62.6993 64.706 59.8553 62.9711C59.849 62.9711 59.849 62.9648 59.843 62.9588C58.2196 61.9736 57.1666 61.2178 57.1666 61.2178C56.609 61.3851 56.0512 61.5648 55.506 61.7507C35.5557 68.5227 25.1284 86.3106 16.1941 101.558C10.2898 111.639 9.36066 126.694 9.45364 136.149Z" fill="#7091B3"/>
</g>
</g>
<g id="Group_10">
<g id="Group_11">
<path id="Vector_3" d="M111.422 99.6597L112.213 94.7558C112.213 94.7558 87.5359 92.5413 82.6321 102.033C82.6321 102.033 78.361 86.0556 61.9094 83.208L57.7963 91.9082L80.4172 112.789L107.784 107.885L111.422 99.6597Z" fill="#FFE4C8"/>
</g>
</g>
<g id="Group_12">
<g id="Group_13">
<g id="Group_14">
<path id="Vector_4" d="M80.2656 54.3542L65.1407 52.4136C65.1407 52.4136 69.0224 58.1492 73.5793 58.7937C78.1361 59.4382 80.0209 57.7021 80.0209 57.7021L80.2656 54.3542Z" fill="#E8A88A"/>
</g>
</g>
</g>
<g id="Group_15">
<g id="Group_16">
<g id="Group_17">
<g id="Group_18">
<g id="Group_19">
<g id="Group_20">
<path id="Vector_5" d="M52.1712 27.6151C51.8215 33.7041 54.3803 39.9182 59.0659 44.0146C59.0728 44.0206 59.3137 45.9357 59.3197 45.9426C59.7829 49.3496 60.6374 50.3586 61.7418 51.3667C64.6599 54.03 84.7127 56.2736 89.9162 52.2669C93.1748 49.7589 93.058 37.463 93.2338 30.8253C93.2626 30.5409 93.291 30.2628 93.3074 29.9776C93.3654 28.9695 93.3479 27.9769 93.2855 27.0018C93.2847 26.8022 93.285 26.689 93.285 26.689L93.2658 26.6948C92.5719 18.1039 87.2138 10.8419 79.7794 8.01925C77.967 7.3228 76.027 6.8987 74.0005 6.78222C62.643 6.13007 52.8693 15.4573 52.1712 27.6151Z" fill="#F9CCB4"/>
</g>
</g>
</g>
</g>
<g id="Group_21">
<g id="Group_22">
<g id="Group_23">
<g id="Group_24">
<g id="Group_25">
<path id="Vector_6" d="M81.7046 39.9769C81.7437 39.9791 81.7839 39.9714 81.8216 39.9525C82.5055 39.6126 83.0617 39.0458 83.3882 38.3567C84.0414 36.9786 83.7114 35.4252 83.2837 33.8218L82.2857 30.0812C82.2526 29.957 82.1251 29.8813 81.9999 29.9163C81.8755 29.9491 81.8014 30.0771 81.8345 30.202L82.8325 33.9426C83.2372 35.4589 83.5517 36.9217 82.9665 38.1569C82.6846 38.7519 82.2042 39.241 81.6135 39.5347C81.4982 39.5921 81.4511 39.7321 81.5085 39.8473C81.5474 39.9249 81.6234 39.9722 81.7046 39.9769Z" fill="#290100"/>
</g>
</g>
</g>
</g>
<g id="Group_26">
<g id="Group_27">
<g id="Group_28">
<g id="Group_29">
<path id="Vector_7" d="M79.7082 42.6852C80.3836 42.724 81.0666 42.5413 81.6307 42.155C81.7371 42.082 81.7644 41.9368 81.6917 41.8304C81.619 41.7246 81.4738 41.6967 81.3671 41.7694C80.7229 42.2099 79.8605 42.3401 79.1143 42.1063C78.3689 41.8728 77.7332 41.2748 77.4551 40.5455C77.4089 40.4249 77.2735 40.3656 77.154 40.4104C77.0334 40.4564 76.9733 40.5912 77.0192 40.7118C77.3517 41.5849 78.0829 42.2723 78.9751 42.552C79.2144 42.6275 79.4607 42.671 79.7082 42.6852Z" fill="#290100"/>
</g>
</g>
</g>
</g>
</g>
<g id="Group_30">
<g id="Group_31">
<g id="Group_32">
<g id="Group_33">
<g id="Group_34">
<g id="Group_35">
<g id="Group_36">
<path id="Vector_8" d="M86.2631 34.4435C86.2084 35.3967 86.9365 36.2135 87.8895 36.2682C88.8427 36.3229 89.6597 35.5947 89.7144 34.6418C89.7691 33.6888 89.0409 32.8718 88.0877 32.8169C87.1348 32.7622 86.3178 33.4903 86.2631 34.4435Z" fill="#290100"/>
</g>
</g>
</g>
</g>
</g>
<g id="Group_37">
<g id="Group_38">
<g id="Group_39">
<g id="Group_40">
<g id="Group_41">
<path id="Vector_9" d="M70.2543 33.6865C70.1996 34.6397 70.9278 35.4567 71.8807 35.5114C72.8339 35.5661 73.6506 34.8379 73.7056 33.8847C73.7603 32.9318 73.0321 32.1147 72.0792 32.06C71.126 32.0051 70.309 32.7335 70.2543 33.6865Z" fill="#290100"/>
</g>
</g>
</g>
</g>
</g>
<g id="Group_42">
<g id="Group_43">
<g id="Group_44">
<g id="Group_45">
<path id="Vector_10" d="M91.0903 29.5483C91.1275 29.6287 91.1623 29.7148 91.1527 29.8028C91.1431 29.8895 91.092 29.9658 91.037 30.0333C90.6258 30.5403 89.9783 30.7522 89.3146 30.8301C89.1104 30.8542 88.9045 30.8654 88.7035 30.869C87.8088 30.8837 86.8619 30.7733 86.145 30.2379C84.9976 29.3815 86.3787 28.5272 87.2217 28.2691C88.6723 27.8248 90.392 28.0433 91.0903 29.5483Z" fill="#2D1929"/>
</g>
</g>
<g id="Group_46">
<g id="Group_47">
<path id="Vector_11" d="M74.4014 29.2319C74.4386 29.312 74.4733 29.3984 74.4637 29.4864C74.4542 29.5731 74.403 29.6491 74.3481 29.7169C73.9368 30.2239 73.2893 30.4358 72.6259 30.5137C72.4217 30.5378 72.2158 30.549 72.0148 30.5526C71.1201 30.5673 70.1732 30.4569 69.4563 29.9215C68.3089 29.0651 69.6901 28.2108 70.5331 27.9527C71.9836 27.5084 73.703 27.7269 74.4014 29.2319Z" fill="#2D1929"/>
</g>
</g>
</g>
<g id="Group_48">
<g id="Group_49">
<g id="Group_50">
<g id="Group_51">
<g id="Group_52">
<path id="Vector_12" d="M83.2258 33.6099V33.5976C83.2444 33.4489 83.269 33.3064 83.3002 33.1639C83.3436 32.9594 83.3931 32.7549 83.4549 32.5566C83.7275 31.59 84.1675 30.7104 84.7313 29.9669C85.3137 29.1862 86.0386 28.5606 86.8502 28.1393C87.6 27.7491 88.4178 27.5322 89.2789 27.5322C90.8339 27.5322 92.2468 28.2325 93.3309 29.3848C94.6259 30.7541 95.4375 32.7677 95.4375 34.9982C95.4375 37.4826 94.4337 39.6821 92.891 41.0389C91.8749 41.9435 90.6296 42.4701 89.2789 42.4701C86.7137 42.4701 84.5145 40.5618 83.5851 37.8605V37.8542C83.4612 37.5009 83.3559 37.1479 83.2816 36.77V36.7391C83.1826 36.2188 83.1205 35.6796 83.1142 35.122V34.9982C83.1142 34.5207 83.1514 34.0622 83.2258 33.6099ZM89.2789 41.8502C90.6852 41.8502 91.9678 41.1997 92.9468 40.1279V40.1216L92.953 40.1153C94.093 38.8575 94.8179 37.0235 94.8179 34.9976C94.8179 33.17 94.2355 31.4971 93.2875 30.2702V30.2641C92.2777 28.9817 90.8897 28.1699 89.3407 28.1513H89.2786C88.3927 28.1513 87.5499 28.4116 86.8064 28.8702C86.4223 29.1056 86.063 29.3968 85.7409 29.7312C85.5798 29.8923 85.4311 30.0659 85.2886 30.2516C84.322 31.4845 83.7336 33.1637 83.7336 34.9973C83.7338 38.7771 86.2183 41.8502 89.2789 41.8502Z" fill="#290100"/>
</g>
</g>
<g id="Group_53">
<g id="Group_54">
<path id="Vector_13" d="M66.361 33.7025C66.3919 33.4916 66.4291 33.2811 66.4726 33.0766C67.1728 29.8921 69.5766 27.5312 72.4267 27.5312C72.9038 27.5312 73.3621 27.5993 73.8083 27.7232C74.9483 28.0393 75.9584 28.733 76.7637 29.6933V29.6996C77.4637 30.5423 77.9966 31.577 78.3001 32.7356C78.3559 32.9401 78.4054 33.1507 78.4426 33.3675C78.5418 33.8941 78.5913 34.4394 78.5913 34.9969C78.5913 39.1171 75.8279 42.4689 72.4267 42.4689C69.0314 42.4689 66.268 39.1171 66.268 34.9969C66.268 34.5575 66.2992 34.1236 66.361 33.7025ZM72.4267 41.8498C75.4872 41.8498 77.9717 38.7766 77.9717 34.9975C77.9717 31.7695 76.1501 29.0497 73.7091 28.3371H73.7031C73.294 28.2132 72.8666 28.1511 72.4267 28.1511C71.1814 28.1511 70.0226 28.6655 69.0935 29.5328C68.0897 30.4685 67.3585 31.813 67.0427 33.368C67.0427 33.3743 67.0427 33.3743 67.0427 33.3804C66.9434 33.9007 66.8879 34.4399 66.8879 34.9975C66.8876 38.7766 69.3721 41.8498 72.4267 41.8498Z" fill="#290100"/>
</g>
</g>
</g>
<g id="Group_55">
<g id="Group_56">
<path id="Vector_14" d="M78.3593 33.4088C79.8711 32.5224 82.0359 32.4619 83.5065 33.2642L83.8037 32.7209C82.1546 31.8199 79.733 31.8853 78.0459 32.874L78.3593 33.4088Z" fill="#290100"/>
</g>
</g>
</g>
<g id="Group_57">
<g id="Group_58">
<path id="Vector_15" d="M56.1585 33.7859C56.1623 33.7859 57.0671 34.0418 57.0707 34.0418L66.7449 33.6885C66.9161 33.682 67.0495 33.5384 67.0432 33.3672C67.037 33.1961 66.8756 33.0654 66.7225 33.0689L55.8867 33.4646C55.7155 33.4711 55.5821 33.6147 55.5884 33.7859C55.5947 33.9527 55.9928 33.7859 56.1585 33.7859Z" fill="#290100"/>
</g>
</g>
</g>
</g>
</g>
</g>
</g>
<g id="Group_59">
<g id="Group_60">
<g id="Group_61">
<g id="Group_62">
<g id="Group_63">
<path id="Vector_16" d="M52.7147 34.7205C51.2663 35.3825 50.4093 37.0185 50.4115 38.611C50.4137 40.2035 51.1684 41.7263 52.223 42.9196C53.6474 44.5304 55.644 45.6244 57.7683 45.9572C58.2695 46.0356 58.7956 46.0709 59.2736 45.9C60.4199 45.4901 60.8565 44.0869 60.8716 42.8692C60.9189 39.0253 57.5928 32.4912 52.7147 34.7205Z" fill="#F9CCB4"/>
</g>
</g>
</g>
</g>
<g id="Group_64">
<g id="Group_65">
<g id="Group_66">
<g id="Group_67">
<path id="Vector_17" d="M57.9367 44.2036C57.9413 44.2038 57.946 44.2036 57.9509 44.2038C58.08 44.2036 58.1841 44.0988 58.1836 43.9698C58.1762 40.604 56.1558 37.3179 53.1564 35.7924C53.0424 35.7336 52.901 35.7787 52.8425 35.8944C52.784 36.0095 52.8297 36.15 52.9445 36.2083C55.7921 37.6567 57.7097 40.7758 57.7168 43.9709C57.7171 44.0947 57.8144 44.1965 57.9367 44.2036Z" fill="#290100"/>
</g>
</g>
</g>
</g>
</g>
</g>
</g>
<g id="Group_68">
<g id="Group_69">
<path id="Vector_18" d="M104.31 103.696L104.75 108.429L106.417 126.248L107.34 136.149H107.965L106.844 124.135L105.363 108.318L104.93 103.64C104.911 103.467 104.762 103.349 104.589 103.361C104.422 103.374 104.298 103.529 104.31 103.696Z" fill="#290100"/>
</g>
</g>
<g id="Group_70">
<g id="Group_71">
<g id="Group_72">
<path id="Vector_19" d="M50.6239 124.55L72.6187 136.106L72.7056 136.149H104.409L106.416 126.248L106.844 124.135L112.005 98.6028L111.59 98.6274L83.9198 100.232L83.201 100.276L82.8975 100.294L82.6186 100.158L81.8256 99.7737L59.2421 88.8507L57.1667 87.8472L53.5048 108.373L50.6239 124.55Z" fill="#85BF61"/>
</g>
</g>
<g id="Group_73">
<g id="Group_74">
<path id="Vector_20" d="M75.4875 136.149H76.1194L76.485 134.29L77.2779 130.288L77.4204 129.569L78.3435 124.916L78.4923 124.154V124.147L79.5207 118.943L79.6322 118.379L79.6631 118.231L80.7536 112.729L82.9903 101.422V101.415L83.2008 100.35C83.2071 100.325 83.2071 100.3 83.2008 100.275C83.1946 100.133 83.0956 100.015 82.9531 99.9904C82.8167 99.9595 82.6805 100.034 82.6184 100.158C82.6061 100.183 82.5998 100.207 82.5938 100.232L82.3893 101.267L80.1589 112.549L78.9877 118.447V118.454L78.9568 118.602L78.8516 119.16V119.166L77.7983 124.482V124.488L77.6435 125.251L76.739 129.835L76.5965 130.548L75.791 134.625L75.4875 136.149Z" fill="#290100"/>
</g>
</g>
</g>
<g id="Group_75">
<g id="Group_76">
<path id="Vector_21" d="M96.6054 27.8422C96.6054 27.8422 95.5508 29.3188 93.0198 23.6239L93.2307 28.3697C93.2307 28.3697 88.1685 27.4206 85.7431 21.8313C85.7431 21.8313 87.6413 26.577 86.4814 30.6898C86.4814 30.6898 81.5248 29.5296 79.4158 23.5186L81.5251 29.5299C81.5251 29.5299 77.4123 31.6392 73.6156 27.5261C69.8192 23.4131 68.8701 19.3003 68.8701 19.3003C68.8701 19.3003 70.5575 26.3659 67.4991 28.6863C64.4407 31.0065 62.4372 30.7956 62.4372 30.7956C62.4372 30.7956 63.9135 33.9593 61.277 37.6504C61.277 37.6504 58.2186 32.2719 53.262 34.4868C53.262 34.4868 51.2583 35.3303 50.52 37.4396C50.52 37.4396 48.9382 35.9631 48.9382 33.1158C48.9382 30.2684 49.7817 27.8428 49.7817 27.8428C49.7817 27.8428 47.0397 23.3081 49.2545 18.0351C51.4691 12.7622 57.0584 10.6529 57.0584 10.6529C57.0584 10.6529 62.2259 3.69251 70.3464 3.58724C78.4667 3.48169 82.0523 6.43454 82.0523 6.43454C82.0523 6.43454 90.4889 7.17282 94.2856 14.1332C98.0823 21.0935 96.6054 27.8422 96.6054 27.8422Z" fill="#2D1929"/>
</g>
</g>
<g id="Group_77">
<g id="Group_78">
<path id="Vector_22" d="M80.1537 59.5851L70.6624 67.0729L58.5343 55.9995L55.3707 62.0108L59.589 78.2513L70.6624 68.4437L83.001 77.8297L82.2627 64.7528L80.1537 59.5851Z" fill="#FFE4C8"/>
</g>
</g>
<g id="Group_79">
<g id="Group_80">
<g id="Group_81">
<path id="Vector_23" d="M44.3475 119.278C44.3475 119.278 44.3475 119.383 44.3598 119.588C44.4032 120.498 44.5889 123.355 45.4068 127.103C45.9829 129.786 46.8814 132.933 48.2817 136.149H54.4961L48.003 125.356L47.3525 124.272L44.5025 119.538L44.3475 119.278Z" fill="#290100"/>
</g>
</g>
<g id="Group_82">
<g id="Group_83">
<path id="Vector_24" d="M38.2867 118.214C38.418 118.214 38.5399 118.13 38.582 117.998L38.9512 116.838L45.439 94.2083C45.4863 94.0437 45.3912 93.8725 45.2266 93.8252C45.0625 93.7763 44.8905 93.8731 44.8435 94.0377L38.3578 116.659L37.9911 117.811C37.9395 117.973 38.0297 118.148 38.1927 118.2C38.2238 118.209 38.2556 118.214 38.2867 118.214Z" fill="#290100"/>
</g>
</g>
<g id="Group_84">
<g id="Group_85">
<path id="Vector_25" d="M44.3487 119.586C44.4893 119.586 44.617 119.49 44.6501 119.347C44.6889 119.18 44.5853 119.014 44.4187 118.975L24.4359 114.333C24.2688 114.295 24.1026 114.398 24.064 114.564C24.0252 114.732 24.1288 114.898 24.2954 114.937L44.2782 119.579C44.302 119.584 44.3255 119.586 44.3487 119.586Z" fill="#290100"/>
</g>
</g>
<g id="Group_86">
<g id="Group_87">
<g id="Group_88">
<path id="Vector_26" d="M46.0886 128.584C46.5717 130.839 47.3152 133.454 48.4615 136.149H72.5256C72.5565 136.136 72.5877 136.124 72.6186 136.105C73.6841 135.622 74.756 135.12 75.7907 134.624C76.0261 134.513 76.2553 134.401 76.4847 134.29C80.7596 132.233 84.378 130.275 85.2331 129.345C86.7263 127.722 84.6134 127.227 84.1921 127.146C84.1486 127.14 84.124 127.134 84.124 127.134C84.124 127.134 85.9642 125.969 87.2343 124.538C87.2406 124.538 87.2406 124.531 87.2406 124.531C87.6557 124.054 88.015 123.552 88.2195 123.051C88.3248 122.797 88.3929 122.549 88.4055 122.301C88.5107 120.566 84.88 121.638 83.3064 122.177C83.2443 122.202 83.1763 122.22 83.1205 122.245C83.1142 122.251 83.1142 122.245 83.1142 122.245C82.8416 122.344 82.6556 122.412 82.6124 122.431C82.6559 122.4 82.8107 122.27 83.0398 122.078C83.1763 121.96 83.3373 121.818 83.5107 121.657C84.7622 120.517 86.7572 118.404 85.7846 117.332C85.2702 116.768 82.6805 117.381 79.6322 118.379C79.4091 118.453 79.1863 118.528 78.9568 118.602C74.0065 120.269 68.1826 122.753 67.9658 122.846C67.9904 122.809 68.0833 122.654 68.2384 122.406C69.7253 120.015 76.5654 108.813 74.5952 108.069C72.3834 107.245 57.4641 122.394 57.4641 122.394C57.4641 122.394 57.3217 106 55.6674 105.17C55.1716 104.922 54.3724 106.31 53.505 108.373C51.4914 113.181 49.0813 121.657 49.0813 121.657L48.0032 125.355L47.7863 126.111L46.0886 128.584Z" fill="#FFA7BE"/>
</g>
</g>
<g id="Group_89">
<g id="Group_90">
<path id="Vector_27" d="M72.033 127.731C72.0735 127.731 72.1145 127.723 72.1536 127.706C72.5134 127.555 80.9971 123.953 83.3736 122.13C85.2455 120.696 87.2394 118.833 86.0349 117.149C85.1104 115.861 73.01 120.505 67.8508 122.561C67.6916 122.625 67.6143 122.805 67.6777 122.964C67.7411 123.123 67.9232 123.198 68.0799 123.137C76.0211 119.972 84.7273 117.009 85.5498 117.53C85.9646 118.116 86.1741 119.204 82.9965 121.639C80.6821 123.414 71.9994 127.099 71.9119 127.137C71.7544 127.203 71.6808 127.385 71.7473 127.543C71.7976 127.66 71.9127 127.731 72.033 127.731Z" fill="#290100"/>
</g>
</g>
<g id="Group_91">
<g id="Group_92">
<path id="Vector_28" d="M73.5357 131.449C73.5502 131.449 73.565 131.448 73.5797 131.446C73.6722 131.432 75.902 131.094 81.2609 128.572C86.3635 126.171 89.6379 124.428 88.6926 122.182C87.7979 120.056 83.4202 121.682 83.2337 121.753C83.0738 121.814 82.9928 121.993 83.0535 122.153C83.114 122.313 83.2942 122.392 83.4528 122.333C84.564 121.913 87.5693 121.112 88.1214 122.423C88.7892 124.01 86.3561 125.49 80.997 128.011C75.7448 130.483 73.5136 130.829 73.4914 130.832C73.3224 130.857 73.2051 131.014 73.2295 131.183C73.2522 131.338 73.3842 131.449 73.5357 131.449Z" fill="#290100"/>
</g>
</g>
</g>
</g>
</g>
</g>
</g>
</svg>
