<svg width="185" height="160" viewBox="0 0 185 160" fill="none" xmlns="http://www.w3.org/2000/svg">
<mask id="mask0_2001_1063" style="mask-type:alpha" maskUnits="userSpaceOnUse" x="0" y="0" width="185" height="160">
<rect width="185" height="160" fill="#D9D9D9"/>
</mask>
<g mask="url(#mask0_2001_1063)">
<path d="M69.5863 102.85C69.5863 102.85 59.3459 162.358 62.0251 178.042C64.7043 193.725 84.3393 197.129 99.5502 197.965C114.761 198.801 123.795 194.899 126.556 183.011C129.32 171.122 128.121 102.85 128.121 102.85H69.5863Z" fill="#64ACBF"/>
<path d="M116.816 42.0958C118.875 39.5388 119.417 35.6003 118.851 32.0961C118.284 28.5918 116.755 25.4328 115.114 22.4656C112.012 16.8567 108.101 11.3818 102.768 9.40552C97.1479 7.32211 90.2939 8.26373 86.7608 13.9952C85.0566 12.3854 80.2119 15.8404 77.8461 23.0365C77.0109 25.5766 76.3026 28.1745 75.6025 30.7738C75.0981 32.643 74.6101 34.5375 74.454 36.4954C74.0824 41.1669 77.0237 48.0796 80.0477 51.0187" fill="#938173"/>
<path d="M168.924 21.7321C168.924 22.0916 166.962 18.9242 166.021 19.4739C163.252 21.0894 161.604 22.936 161.124 24.7403L162.184 28.5082" fill="#F9CCB4"/>
<path d="M161.871 28.6363L160.774 24.7429L160.808 24.6175C161.332 22.6454 163.084 20.7424 165.877 19.1129C166.735 18.6139 167.896 20.0292 168.666 20.9651C168.811 21.1413 168.99 21.3598 169.044 21.4021C168.996 21.3627 168.875 21.3302 168.76 21.4049L168.904 21.732H169.255L169.04 22.1281C168.792 22.2521 168.655 22.0844 168.198 21.529C167.802 21.0469 166.594 19.5823 166.164 19.8332C163.638 21.3077 161.978 23.0457 161.472 24.7401L162.496 28.3783L161.871 28.6363Z" fill="#F6B390"/>
<path d="M162.445 26.8704C163.829 25.0914 168.84 20.2452 169.552 21.1727C172.216 24.646 173.798 28.5563 175.847 33.1023C177.072 34.5965 172.811 42.7539 171.697 45.4759C171.312 46.4189 170.924 47.3676 170.689 48.3797C170.308 50.0176 170.608 51.5034 170.316 53.1667C169.724 56.5441 169.131 59.9216 168.539 63.2976L160.785 59.7313C161.817 55.5673 162.517 51.2778 163.018 46.9602C161.94 44.4342 160.864 41.9081 159.787 39.3807C159.473 38.6463 159.155 37.8921 159.075 37.0717C158.847 34.7346 160.202 33.1812 159.945 30.8497C159.732 28.9256 157.565 25.09 159.205 24.2119C159.63 23.9835 160.079 24.0117 160.461 24.3359C162.758 26.2812 163.014 28.4322 163.666 31.5644" fill="#F9CCB4"/>
<path d="M168.783 63.8386L160.381 59.9748L160.469 59.6182C161.407 55.8362 162.129 51.7173 162.677 47.0318L159.493 39.565C159.184 38.8419 158.836 38.0229 158.747 37.1194C158.625 35.869 158.919 34.8428 159.203 33.8519C159.478 32.8919 159.738 31.9841 159.619 30.903C159.556 30.3391 159.3 29.5596 159.027 28.735C158.42 26.8926 157.664 24.6006 159.073 23.8464C159.612 23.5589 160.188 23.6167 160.651 24.0086C161.483 24.7119 162.062 25.4534 162.489 26.2484C163.96 24.5188 167.917 20.6565 169.278 20.6565H169.281C169.55 20.6565 169.709 20.7904 169.794 20.9018C172.15 23.9733 173.646 27.331 175.379 31.2173C175.621 31.7572 175.865 32.3084 176.118 32.868C177.095 34.2071 175.299 38.4007 173.035 43.3301C172.601 44.2731 172.227 45.0879 171.996 45.6546C171.623 46.5666 171.237 47.5096 171.009 48.4893C170.818 49.3153 170.809 50.1019 170.8 50.935C170.792 51.675 170.784 52.439 170.642 53.2524L168.785 63.8414L168.783 63.8386ZM161.189 59.4913L168.296 62.7602L169.993 53.0846C170.121 52.3502 170.129 51.6567 170.136 50.9237C170.146 50.0751 170.155 49.1983 170.371 48.2722C170.615 47.2206 171.015 46.2438 171.401 45.2993C171.64 44.7158 172.018 43.894 172.456 42.9425C173.737 40.1543 176.403 34.3509 175.612 33.3867L175.557 33.2965C175.297 32.72 175.045 32.1547 174.797 31.5993C173.086 27.7595 171.608 24.4441 169.309 21.4473C168.698 21.164 164.638 24.7289 162.83 26.9659C163.3 28.0852 163.549 29.3101 163.826 30.6831L163.987 31.4696L163.346 31.6656L163.184 30.8734C162.633 28.1542 162.27 26.3584 160.272 24.6668C159.923 24.3708 159.572 24.4568 159.34 24.5809C158.575 24.9911 159.003 26.505 159.642 28.4418C159.93 29.3143 160.201 30.1375 160.275 30.8001C160.414 32.0701 160.117 33.1104 159.829 34.1169C159.557 35.0656 159.301 35.9607 159.404 37.0291C159.479 37.7875 159.785 38.5064 160.081 39.2014L163.36 46.8936L163.346 47.0191C162.809 51.6511 162.103 55.7361 161.19 59.4927L161.189 59.4913Z" fill="#F6B390"/>
<path d="M165.798 35.6309C164.889 35.6309 164.155 35.0571 163.733 34.014C163.237 32.7848 163.274 31.099 163.817 30.2546C164.2 29.6583 165.35 28.6899 166.568 27.6651C167.807 26.6234 169.21 25.4422 169.499 24.8797C169.595 24.6923 169.799 24.6345 169.955 24.7515C170.11 24.8685 170.157 25.1151 170.061 25.3026C169.7 26.0046 168.362 27.1309 166.946 28.322C165.822 29.2679 164.66 30.2461 164.339 30.7451C163.994 31.2822 163.915 32.6439 164.327 33.6616C164.543 34.1945 164.974 34.8302 165.798 34.8302C165.981 34.8302 166.129 35.0092 166.129 35.2305C166.129 35.4518 165.981 35.6309 165.798 35.6309Z" fill="#F6B390"/>
<path d="M167.171 39.341C167.138 39.341 167.105 39.3354 167.073 39.3227C166.545 39.1239 166.055 38.1372 165.796 37.3535C165.605 36.7755 165.215 35.3152 165.71 34.2382C166.189 33.1993 167.316 32.3522 168.509 31.4557C169.5 30.7114 170.524 29.9417 171.3 28.9987C171.428 28.8422 171.638 28.8422 171.767 28.9987C171.896 29.1552 171.898 29.4075 171.767 29.564C170.938 30.5732 169.88 31.3683 168.856 32.1365C167.737 32.9766 166.68 33.7702 166.285 34.6301C166.037 35.1686 166.083 36.0764 166.408 37.0589C166.698 37.9385 167.094 38.4967 167.267 38.5615C167.442 38.6278 167.539 38.8519 167.485 39.0619C167.441 39.2339 167.31 39.3438 167.169 39.3438L167.171 39.341Z" fill="#F6B390"/>
<path d="M166.36 44.6325C166.227 44.6325 166.103 44.5353 166.051 44.3774C165.509 42.6774 165.833 40.5052 166.902 38.7079C167.321 38.0031 168.014 37.5535 168.686 37.1179C169.546 36.5611 170.288 36.0804 170.288 35.2304C170.288 35.0091 170.436 34.8301 170.619 34.8301C170.802 34.8301 170.95 35.0091 170.95 35.2304C170.95 36.5583 169.958 37.201 168.998 37.8227C168.394 38.2146 167.768 38.6191 167.44 39.1745C166.704 40.4136 166.115 42.3546 166.669 44.0884C166.735 44.2942 166.65 44.5268 166.48 44.6057C166.44 44.6241 166.401 44.6325 166.361 44.6325H166.36Z" fill="#F6B390"/>
<path d="M84.2448 50.866C83.5272 50.1682 82.7689 49.493 81.8894 49.1631C81.0099 48.8333 79.9814 48.9024 79.2603 49.5945C78.41 50.4121 78.184 51.8696 78.2504 53.1819C78.382 55.7855 79.4677 58.2974 81.1602 59.9143C82.8528 61.5311 85.1243 62.2246 87.2466 61.7749" fill="#F9CCB4"/>
<path d="M111.619 44.396C112.076 43.4304 112.581 42.4663 113.3 41.7727C114.019 41.0778 114.998 40.6887 115.877 41.0172C116.915 41.4034 117.565 42.6622 117.897 43.9139C118.558 46.3977 118.303 49.2155 117.212 51.4652C116.122 53.7164 114.215 55.3628 112.102 55.8787" fill="#F9CCB4"/>
<path d="M27.4656 29.2671C27.4656 29.6265 29.4272 26.4591 30.3684 27.0089C33.1373 28.6243 34.7856 30.4709 35.2655 32.2752L34.2055 36.0431" fill="#F9CCB4"/>
<path d="M34.5177 36.1711L33.8922 35.9131L34.9161 32.2735C34.4105 30.5792 32.7506 28.8411 30.2252 27.3681C29.7965 27.1143 28.5874 28.5817 28.1913 29.0638C27.7347 29.6192 27.5972 29.7869 27.3491 29.6629L27.1452 29.5614L27.1348 29.2668H27.7952H27.4644L27.6287 28.9398C27.5122 28.8651 27.3934 28.8975 27.3444 28.937C27.3969 28.8947 27.5774 28.6748 27.7219 28.5C28.4918 27.564 29.652 26.1459 30.5117 26.6477C33.3027 28.2773 35.0559 30.1802 35.5789 32.1523L35.6127 32.2777L34.5177 36.1711Z" fill="#F6B390"/>
<path d="M33.9446 34.4038C32.5607 32.6249 27.5506 27.7786 26.8389 28.7062C24.1748 32.1795 22.593 36.0897 20.544 40.6357C19.3185 42.1299 23.5796 50.2873 24.6932 53.0093C25.0788 53.9523 25.4667 54.901 25.702 55.9131C26.0829 57.5511 25.7824 59.0368 26.0747 60.7001C26.6665 64.0776 27.2594 67.455 27.8512 70.831L35.6057 67.2647C34.5736 63.1007 33.8735 58.8113 33.3726 54.4936C34.4502 51.9676 35.5265 49.4416 36.604 46.9141C36.9173 46.1797 37.2354 45.4256 37.3157 44.6052C37.544 42.2681 36.1881 40.7147 36.4456 38.3832C36.6587 36.459 38.8254 32.6235 37.1853 31.7453C36.7601 31.5169 36.3116 31.5451 35.9295 31.8693C33.6324 33.8146 33.3761 35.9657 32.725 39.0978" fill="#F9CCB4"/>
<path d="M27.6065 71.3734L25.7497 60.7858C25.6076 59.9739 25.5995 59.2085 25.5913 58.4684C25.5832 57.6353 25.5738 56.8488 25.3828 56.0227C25.1545 55.0431 24.7689 54.1 24.3962 53.188C24.1643 52.6213 23.7904 51.8066 23.3571 50.865C21.0914 45.9341 19.2952 41.7405 20.2725 40.4014C20.5241 39.8418 20.7688 39.2935 21.0099 38.7536C22.7432 34.8659 24.2401 31.5068 26.5954 28.4352C26.6805 28.3239 26.8389 28.1914 27.108 28.1899H27.1115C28.472 28.1899 32.4303 32.0537 33.9015 33.7819C34.329 32.9883 34.9079 32.2468 35.7396 31.542C36.2021 31.1501 36.7775 31.0909 37.318 31.3813C38.7264 32.1354 37.9704 34.4275 37.3635 36.2698C37.0909 37.0945 36.8346 37.874 36.7717 38.4378C36.6517 39.519 36.9115 40.4254 37.1864 41.3853C37.4706 42.3777 37.7642 43.4025 37.6419 44.6542C37.5533 45.5564 37.2039 46.3754 36.8964 47.0999L33.7139 54.5666C34.2614 59.2522 34.9836 63.3711 35.9214 67.153L36.0099 67.5097L27.6077 71.3734H27.6065ZM27.1534 28.9793C27.1173 28.9793 27.087 28.985 27.0614 28.9962C24.7817 31.9762 23.3035 35.2916 21.5923 39.1328C21.3454 39.6882 21.0926 40.2534 20.834 40.8285L20.7781 40.9187C19.9871 41.8829 22.6535 47.6863 23.9349 50.4745C24.3729 51.426 24.7503 52.2478 24.9891 52.8328C25.3758 53.7772 25.7754 54.7541 26.02 55.8057C26.2355 56.7332 26.2448 57.61 26.2541 58.4571C26.2623 59.1901 26.2693 59.8837 26.3974 60.6181L28.0934 70.2922L35.2003 67.0234C34.2871 63.2653 33.5811 59.1803 33.0441 54.5497L33.0302 54.4242L36.3093 46.732C36.6063 46.037 36.9127 45.3167 36.9861 44.5598C37.0909 43.4913 36.8346 42.5962 36.562 41.6475C36.2743 40.641 35.9761 39.6008 36.1171 38.3321C36.1904 37.6696 36.4619 36.8464 36.7496 35.9738C37.3879 34.037 37.8154 32.5231 37.0513 32.1129C36.8195 31.9888 36.4689 31.9015 36.1194 32.1975C34.1216 33.889 33.7582 35.6849 33.2072 38.404L33.0453 39.1962L32.4046 39.0003L32.5654 38.2137C32.8438 36.8407 33.0919 35.6158 33.5613 34.4965C31.8245 32.3483 28.0189 28.9779 27.1546 28.9779L27.1534 28.9793Z" fill="#F6B390"/>
<path d="M30.5898 43.1655C30.4069 43.1655 30.259 42.9865 30.259 42.7652C30.259 42.5439 30.4069 42.3649 30.5898 42.3649C31.4157 42.3649 31.8455 41.7291 32.061 41.1963C32.4722 40.1786 32.3942 38.8169 32.0482 38.2798C31.7267 37.7794 30.5654 36.8025 29.4413 35.8567C28.0259 34.6656 26.6875 33.5393 26.3264 32.8373C26.2297 32.6498 26.2775 32.4031 26.4324 32.2861C26.5885 32.1691 26.7912 32.2269 26.8879 32.4144C27.1768 32.9768 28.5804 34.1581 29.8187 35.1998C31.0371 36.2246 32.1869 37.193 32.5689 37.7893C33.1118 38.6336 33.1502 40.3195 32.654 41.5487C32.2323 42.5918 31.4984 43.1655 30.5887 43.1655H30.5898Z" fill="#F6B390"/>
<path d="M29.2186 46.8756C29.0777 46.8756 28.9472 46.7657 28.903 46.5951C28.8482 46.3837 28.9461 46.1595 29.1208 46.0947C29.2944 46.0298 29.6892 45.4716 29.9793 44.5935C30.3043 43.611 30.3497 42.7032 30.1016 42.1633C29.7055 41.3048 28.649 40.5112 27.5307 39.6711C26.5068 38.9028 25.4491 38.1078 24.6197 37.0985C24.4904 36.9421 24.4916 36.6883 24.6197 36.5333C24.749 36.3782 24.9575 36.3782 25.0868 36.5333C25.8626 37.4763 26.8866 38.246 27.8779 38.9902C29.0707 39.8868 30.1983 40.7339 30.677 41.7728C31.1733 42.8512 30.7819 44.3115 30.5908 44.8895C30.3322 45.6732 29.8418 46.6599 29.3142 46.8573C29.2815 46.87 29.2478 46.8756 29.2163 46.8756H29.2186Z" fill="#F6B390"/>
<path d="M30.0295 52.1677C29.9899 52.1677 29.9491 52.1592 29.9107 52.1409C29.7406 52.0606 29.6556 51.8294 29.722 51.6236C30.2753 49.8897 29.6871 47.9473 28.9509 46.7097C28.6212 46.1557 27.9968 45.7497 27.3911 45.3578C26.4324 44.7362 25.4399 44.0934 25.4399 42.7656C25.4399 42.5443 25.5879 42.3652 25.7708 42.3652C25.9536 42.3652 26.1016 42.5443 26.1016 42.7656C26.1016 43.6142 26.8436 44.0962 27.7033 44.653C28.3742 45.0872 29.0685 45.5369 29.4879 46.2431C30.556 48.0403 30.881 50.2125 30.3382 51.9125C30.2881 52.0704 30.1623 52.1677 30.0295 52.1677Z" fill="#F6B390"/>
<path d="M92.5024 66.2811C94.3301 71.1231 94.5992 77.8301 92.5292 80.3349L103.119 88.4275L110.39 78.9225C107.046 75.3054 106.631 68.1009 108.638 64.0342" fill="#F7BD9F"/>
<path d="M164.464 107.002C162.736 109.287 159.905 109.613 157.35 109.789C152.019 110.154 146.689 110.519 141.358 110.884C139.181 111.034 136.607 110.718 134.628 111.844C133.507 112.481 132.324 113.651 131.261 114.8C130.756 132.326 129.907 149.836 128.717 167.312C129.71 173.327 130.53 179.389 130.548 185.512C130.55 185.893 130.539 186.303 130.346 186.603C130.181 186.858 129.917 186.979 129.664 187.086C126.592 188.388 123.362 189.137 120.111 189.311C113.223 193.175 105.273 194.459 97.635 193.815C87.4039 192.95 77.5538 188.953 67.9367 184.608C68.0951 182.893 68.3385 181.189 68.6659 179.508C67.6664 170.756 69.4591 161.931 70.5856 153.194C72.1838 140.799 72.9607 125.106 71.8762 112.629C71.0061 112.219 40.7789 110.054 32.8462 104.788C29.9759 92.5663 27.1045 80.3464 24.2331 68.1264C24.0398 67.3032 24.4917 66.4716 25.1918 66.3475C28.4686 65.7682 32.7262 63.6467 35.5591 61.5717C36.1323 61.1517 36.8778 61.4054 37.1935 62.1215C41.3194 71.4982 43.0225 77.444 47.0436 84.5245C47.3558 85.0742 47.6901 85.6479 48.1852 85.9425C48.8247 86.3231 49.583 86.1568 50.2796 85.9834C61.8223 83.1036 84.8471 76.9154 85.5891 76.3896C86.5012 75.7426 89.517 74.5444 90.9871 74.4894C91.2573 74.4796 91.495 74.691 91.5882 74.9983C95.2377 87.0702 108.454 84.3962 110.383 75.3056C110.473 74.8855 110.827 74.6374 111.17 74.7657C117.362 77.0732 125.312 80.063 131.378 82.3241C136.069 83.6378 140.76 84.953 145.451 86.2667C145.95 86.4063 150.016 85.7226 150.532 85.5648C153.786 75.2436 155.822 67.2327 158.412 54.783C158.528 54.2263 159.019 53.9133 159.46 54.1233C161.76 55.2144 165.738 57.0271 170.5 56.0461C171.025 55.9375 171.49 56.4619 171.42 57.1004C170.576 64.897 166.207 104.695 164.46 107.006L164.464 107.002Z" fill="#F2A78A"/>
<path d="M69.3274 130.351C69.2167 131.127 69.1049 131.874 68.9931 132.585C66.5666 147.944 65.1047 157.878 65.1047 157.878L69.6046 160.225C69.6046 160.225 72.716 149.158 77.0074 132.022C74.3188 132.241 71.6629 131.8 69.3286 130.351H69.3274Z" fill="#438191"/>
<path d="M86.2089 76.7631C86.337 75.3408 85.2397 74.2145 84.0993 74.5908L75.3838 77.4707C74.7256 77.6878 74.2422 78.363 74.1607 79.182C73.4594 86.2512 71.5653 114.639 69.3276 130.351C71.662 131.8 74.3191 132.241 77.0065 132.023C77.3338 130.717 77.6658 129.381 78.0059 128.008C81.4062 114.26 85.4448 85.2715 86.2089 76.7631Z" fill="#77C1DB"/>
<path d="M127.625 131.33C128.57 144.558 129.27 158.805 129.27 158.805L132.089 154.886C132.089 154.886 133.03 143.192 133.324 130.138C131.45 130.933 129.52 131.368 127.626 131.332L127.625 131.33Z" fill="#438191"/>
<path d="M132.826 107.498C131.401 92.4112 127.885 81.8109 126.921 79.1199C126.768 78.6957 126.468 78.3785 126.1 78.2516L117.751 75.3676C116.739 75.018 115.829 76.2105 116.202 77.403C118.73 85.4787 125.701 109.909 126.543 118.303C126.921 122.061 127.288 126.631 127.623 131.331C129.517 131.367 131.448 130.933 133.322 130.137C133.498 122.343 133.444 114.066 132.824 107.5L132.826 107.498Z" fill="#77C1DB"/>
<path d="M98.18 22.9268L84.6594 28.148L80.3447 45.0647C81.5294 49.3048 82.7129 53.5464 83.9873 57.7484C84.565 59.6556 85.1754 61.5854 86.2005 63.1937C87.2326 64.8134 88.6363 66.0271 90.0854 67.0829C92.0983 68.5489 94.449 69.4087 96.7216 70.067C99.3076 70.8169 101.622 70.48 103.81 68.6334C105.824 66.9334 107.82 65.1038 109.338 62.7384C110.375 61.123 111.323 59.3779 111.803 57.4172C112.28 55.4705 112.275 53.404 112.246 51.3727C112.182 46.8972 112.035 43.5973 111.877 39.126" fill="#F9CCB4"/>
<path d="M114.111 39.7701C111.073 38.2449 107.586 33.9018 105.895 30.4934C106.616 36.5364 110.22 40.6497 110.22 40.6497C104.673 39.9773 98.0536 35.1989 96.1665 28.85L95.9656 27.7221C96.6901 32.6149 99.2505 37.065 102.792 39.5854L101.296 40.1704C95.5998 39.1653 89.0996 35.0408 87.3896 28.3903H87.5715C87.9944 35.6667 85.3967 43.1094 80.792 47.8175L82.1083 23.5764L106.822 21.3337L114.111 39.7701Z" fill="#938173"/>
<path d="M92.4944 55.206C92.3173 53.9613 91.0826 53.1804 89.7383 53.4609C88.3929 53.7414 87.447 54.9776 87.6241 56.2223C87.8012 57.467 89.0359 58.2479 90.3802 57.9674C91.7256 57.6869 92.6715 56.4507 92.4944 55.206Z" fill="#FFA69F"/>
<path d="M109.306 53.5222C110.651 53.2415 111.598 52.0053 111.421 50.7609C111.244 49.5165 110.01 48.7352 108.664 49.0158C107.319 49.2964 106.372 50.5327 106.549 51.7771C106.726 53.0215 107.961 53.8028 109.306 53.5222Z" fill="#FFA69F"/>
<path d="M40.8081 100.762C40.765 100.762 40.7207 100.752 40.6799 100.731C40.5658 100.673 40.4877 100.542 40.4784 100.391C40.2571 96.7207 41.281 93.0303 43.2858 90.2633C43.4057 90.0969 43.6154 90.08 43.7517 90.2266C43.8892 90.3718 43.9031 90.6255 43.782 90.7904C42.0417 93.1924 41.0876 96.333 41.1098 99.5174C43.9416 96.4825 46.2655 92.7075 47.8544 88.5562C47.9313 88.3546 48.1281 88.2686 48.2935 88.3617C48.4589 88.4547 48.5312 88.6929 48.4543 88.8931C46.7303 93.3996 44.1594 97.4706 41.0213 100.668C40.9607 100.73 40.885 100.762 40.8081 100.762Z" fill="#E1977A"/>
<path d="M70.694 112.246C70.6639 112.246 70.6338 112.24 70.6048 112.228C68.8223 111.52 67.5397 109.672 66.2753 107.678C63.8004 103.778 62.0136 99.892 60.1214 95.7782C58.8667 93.0486 57.569 90.2274 56.0542 87.4089C55.9585 87.2298 55.9929 86.9841 56.1305 86.8605C56.2703 86.737 56.4595 86.7814 56.5552 86.9591C58.0829 89.8011 59.386 92.6349 60.646 95.3755C62.5264 99.463 64.3014 103.324 66.7473 107.178C67.9503 109.075 69.1652 110.83 70.7843 111.474C70.9456 111.538 71.0359 111.759 70.9865 111.967C70.9456 112.136 70.8252 112.245 70.6951 112.245L70.694 112.246Z" fill="#E1977A"/>
<path d="M133.954 107.649C133.872 107.649 133.789 107.612 133.725 107.536C133.593 107.383 133.59 107.129 133.717 106.971C137.896 101.737 138.983 98.2905 140.955 92.0333C141.192 91.2833 141.441 90.4954 141.708 89.6609C141.774 89.4551 141.967 89.3536 142.135 89.4325C142.305 89.5129 142.389 89.744 142.324 89.9498C142.057 90.7815 141.809 91.5681 141.573 92.318C139.634 98.4639 138.465 102.174 134.191 107.526C134.127 107.608 134.039 107.649 133.953 107.649H133.954Z" fill="#E1977A"/>
<path d="M133.443 112.096C133.345 112.096 133.249 112.044 133.183 111.946C133.07 111.772 133.094 111.521 133.237 111.383C136.715 108.044 140.521 105.202 144.549 102.938C144.715 102.845 144.911 102.932 144.988 103.133C145.065 103.333 144.993 103.571 144.828 103.664C140.848 105.903 137.086 108.71 133.648 112.01C133.587 112.068 133.515 112.098 133.443 112.098V112.096Z" fill="#E1977A"/>
<path d="M160.646 101.226C160.58 101.226 160.512 101.202 160.456 101.152C156.456 97.7497 153.321 93.0768 151.391 87.6399C151.319 87.4369 151.397 87.2015 151.565 87.1141C151.733 87.0267 151.927 87.1212 151.999 87.3242C153.776 92.3297 156.6 96.6699 160.193 99.9318C159.58 96.099 157.735 92.5045 155.155 90.1744C155.008 90.0419 154.979 89.7924 155.087 89.6148C155.196 89.4386 155.403 89.4005 155.55 89.533C158.482 92.1789 160.51 96.3809 160.973 100.773C160.99 100.931 160.928 101.085 160.816 101.167C160.764 101.205 160.704 101.224 160.645 101.224L160.646 101.226Z" fill="#E1977A"/>
<path d="M92.0958 48.2533C92.3521 49.8969 92.2472 51.3009 91.8617 51.3883C91.4761 51.4757 90.9566 50.2155 90.7003 48.5719C90.444 46.9283 90.5489 45.5243 90.9344 45.4369C91.32 45.3495 91.8395 46.6097 92.0958 48.2533Z" fill="black"/>
<path d="M91.8175 51.7933C91.5018 51.7933 91.206 51.4621 90.9357 50.808C90.7027 50.2442 90.5035 49.4759 90.3742 48.6457C90.2449 47.8154 90.1995 47.0133 90.2461 46.3847C90.3067 45.5755 90.5175 45.1245 90.8716 45.0441C91.2258 44.9638 91.5577 45.2908 91.8583 46.0182C92.0913 46.582 92.2904 47.3502 92.4197 48.1805C92.4733 48.5259 92.916 51.5565 91.9212 51.7835C91.8862 51.7919 91.8513 51.7962 91.8163 51.7962L91.8175 51.7933ZM91.0033 45.8786C90.8926 46.1648 90.8052 47.0909 91.0254 48.4977C91.2444 49.9045 91.6043 50.7291 91.793 50.9462C91.9037 50.66 91.9911 49.7353 91.7721 48.3271C91.5531 46.9189 91.1931 46.0957 91.0044 45.8786H91.0033Z" fill="#2D1929"/>
<path d="M104.039 45.529C104.296 47.1726 104.815 48.4343 105.201 48.3454C105.586 48.2581 105.691 46.8541 105.435 45.2105C105.179 43.5669 104.659 42.3053 104.274 42.3941C103.888 42.4815 103.783 43.8854 104.039 45.529Z" fill="#2D1929"/>
<path d="M105.158 48.7514C104.842 48.7514 104.546 48.4201 104.276 47.766C104.044 47.2022 103.844 46.434 103.714 45.6037C103.661 45.2583 103.218 42.2277 104.212 42.0007C105.217 41.771 105.705 44.7918 105.76 45.1357C105.813 45.4811 106.256 48.5117 105.261 48.7387C105.226 48.7471 105.191 48.7514 105.156 48.7514H105.158ZM104.364 45.4557C104.583 46.8625 104.943 47.6857 105.132 47.9042C105.243 47.618 105.33 46.6933 105.111 45.2851C104.892 43.8783 104.532 43.0551 104.343 42.8366C104.233 43.1228 104.145 44.0489 104.366 45.4557H104.364Z" fill="#2D1929"/>
<path d="M84.3304 43.7369C84.2745 43.7369 84.2163 43.7199 84.1639 43.6819C84.0066 43.5705 83.953 43.3253 84.045 43.135C85.6665 39.773 89.6795 38.4818 92.467 40.4285C92.6255 40.5384 92.679 40.7837 92.5882 40.9754C92.4973 41.1671 92.2958 41.2334 92.1362 41.122C89.6481 39.3854 86.0638 40.537 84.6158 43.5395C84.5553 43.6664 84.4434 43.7383 84.3304 43.7383V43.7369Z" fill="#2D1929"/>
<path d="M101.245 38.0001C101.173 38.0001 101.099 37.9719 101.039 37.9127C100.897 37.7746 100.873 37.5236 100.988 37.3503C102.997 34.3111 107.124 33.7445 109.645 36.162C109.788 36.2987 109.811 36.551 109.698 36.7244C109.584 36.8964 109.377 36.9274 109.234 36.7892C106.982 34.6297 103.297 35.1372 101.502 37.8507C101.437 37.9493 101.34 38.0001 101.244 38.0001H101.245Z" fill="#2D1929"/>
<path d="M104.074 56.7187C104.427 56.6384 104.767 56.9499 104.785 57.3826C104.896 60.2244 103.262 62.8026 100.886 63.3439C98.5191 63.8838 96.2313 62.2162 95.4706 59.5394C95.3507 59.1165 95.558 58.6598 95.9214 58.5766L104.074 56.7173V56.7187Z" fill="white"/>
<path d="M108.99 107.224V120.346C108.99 120.812 109.191 121.246 109.519 121.49L115.127 125.667C115.519 125.96 116.021 125.928 116.386 125.588L122.218 120.926C122.492 120.671 122.652 120.278 122.652 119.861L122.567 106.696C122.567 105.934 122.043 105.323 121.413 105.353L110.057 105.882C109.461 105.91 108.989 106.503 108.989 107.225L108.99 107.224Z" fill="#E08669"/>
</g>
</svg>
