<svg width="188" height="33" viewBox="0 0 188 33" fill="none" xmlns="http://www.w3.org/2000/svg">
<g clip-path="url(#clip0_2001_426)">
<path d="M64.5223 14.0487L63.0234 14.0408V14.0095V8.54999H59.9852V18.2766H53.1148L53.131 12.6524L58.4701 12.6289V9.85995H50.2224V21.0848H59.9852V25.6265H63.0234V16.7863V16.7784L64.5223 16.7941V25.6265H67.5281V8.54999H64.5223V14.0487Z" fill="#222222"/>
<path d="M85.9113 10.9268V8.57355H82.865V18.7865H85.9113C85.9113 18.7865 85.9113 13.7349 85.9113 13.7271H89.0791V10.9268C89.0791 10.9268 85.9518 10.9346 85.9113 10.9268Z" fill="#222222"/>
<path d="M124.266 16.0568V8.57355H113.19V11.319H121.284V16.0568H118.684V13.2721H115.629V16.0568H109.861V18.9199H114.754C114.398 19.5866 114.211 20.324 114.211 21.1241C114.211 22.4497 114.706 23.6028 115.694 24.5519C116.674 25.501 117.865 25.9874 119.234 25.9874C120.604 25.9874 121.811 25.501 122.791 24.5519C123.763 23.6028 124.258 22.4497 124.258 21.1241C124.258 20.324 124.079 19.5866 123.723 18.9199H127.685V16.0568H124.258H124.266ZM120.831 22.6693C120.385 23.0929 119.866 23.3047 119.243 23.3047C118.619 23.3047 118.092 23.0929 117.655 22.6693C117.217 22.2379 116.998 21.7359 116.998 21.1319C116.998 20.5279 117.217 20.018 117.655 19.5788C118.1 19.1474 118.619 18.9356 119.243 18.9356C119.866 18.9356 120.385 19.1474 120.831 19.5788C121.276 20.018 121.487 20.5201 121.487 21.1319C121.487 21.7437 121.268 22.2379 120.831 22.6693Z" fill="#222222"/>
<path d="M142.957 12.7309V19.1787H138.209V18.3237C139.076 18.0257 139.797 17.5158 140.364 16.802C140.964 16.049 141.264 15.1626 141.264 14.1899C141.264 13.8134 141.223 13.4526 141.126 13.1153C141.077 12.9192 140.988 12.7388 140.907 12.5505H142.082V9.85215H138.306V7.9931H135.26V9.85215H131.225V12.5505C131.225 12.5505 132.408 12.5505 132.522 12.5505C132.449 12.7388 132.36 12.9113 132.303 13.1074C132.214 13.4447 132.173 13.7977 132.173 14.1821C132.173 15.1783 132.481 16.0647 133.081 16.8177C133.656 17.5393 134.401 18.057 135.276 18.3473V19.1709H130.626V21.9399H142.949V25.6187H145.987V8.57356H142.949C142.949 8.57356 142.933 11.923 142.949 12.7309H142.957ZM136.726 15.8764C136.265 15.8764 135.884 15.7195 135.552 15.3979C135.22 15.0763 135.057 14.7076 135.057 14.2605C135.057 13.8134 135.22 13.4447 135.552 13.1231C135.884 12.8015 136.265 12.6446 136.726 12.6446C137.188 12.6446 137.569 12.8015 137.901 13.1231C138.233 13.4447 138.395 13.8134 138.395 14.2605C138.395 14.7076 138.233 15.0763 137.901 15.3979C137.569 15.7195 137.188 15.8764 136.726 15.8764Z" fill="#222222"/>
<path d="M155.887 18.3865C157.346 18.3865 158.602 17.8766 159.631 16.8726C160.659 15.8686 161.178 14.6527 161.178 13.2643C161.178 11.8759 160.659 10.6366 159.631 9.64037C158.602 8.64417 157.346 8.14215 155.887 8.14215C154.429 8.14215 153.198 8.64417 152.161 9.64037C151.124 10.6366 150.597 11.8524 150.597 13.2643C150.597 14.6763 151.124 15.8686 152.152 16.8726C153.19 17.8766 154.445 18.3787 155.879 18.3787L155.887 18.3865ZM154.21 11.6328C154.672 11.17 155.223 10.9503 155.879 10.9503C156.536 10.9503 157.087 11.17 157.548 11.6328C158.018 12.0956 158.245 12.629 158.245 13.2643C158.245 13.8997 158.018 14.4331 157.556 14.8802C157.095 15.3273 156.544 15.547 155.887 15.547C155.231 15.547 154.68 15.3273 154.21 14.8802C153.749 14.4331 153.522 13.8997 153.522 13.2643C153.522 12.629 153.749 12.0877 154.21 11.6328Z" fill="#222222"/>
<path d="M163.228 19.2022H150.362V22.0653H163.228V25.6814H166.331V8.54999H163.228V19.2022Z" fill="#222222"/>
<path d="M180.46 20.8338V17.8609H177.406V20.8338H169.985V23.6341H187.817V20.8338C187.817 20.8338 180.501 20.8338 180.468 20.8338H180.46Z" fill="#222222"/>
<path d="M78.7979 17.4923C79.681 16.6372 80.1347 15.5783 80.1347 14.3625C80.1347 13.8761 80.0618 13.4212 79.9241 12.9898C79.8269 12.7074 79.6972 12.4407 79.5514 12.1897H80.6047V9.6874H76.9183V7.9068H74.2204C74.2204 7.9068 74.2204 9.66387 74.2204 9.6874C74.1717 9.6874 70.4368 9.6874 70.4368 9.6874V12.2132H71.5791C71.4414 12.4564 71.3199 12.7152 71.2227 12.9898C71.0687 13.4212 70.9958 13.884 70.9958 14.3703C70.9958 15.5861 71.4414 16.6451 72.3326 17.5001C73.2238 18.3629 74.3095 18.7944 75.5653 18.7944C76.8211 18.7944 77.9067 18.3551 78.7979 17.5001V17.4923ZM73.7991 14.3938C73.7991 13.4369 74.6011 12.6525 75.5977 12.6525C76.5942 12.6525 77.3963 13.429 77.3963 14.3938C77.3963 15.3587 76.5942 16.1352 75.5977 16.1352C74.6011 16.1352 73.7991 15.3587 73.7991 14.3938Z" fill="#222222"/>
<path d="M78.3846 22.8341V19.7357H75.4436V25.6266H85.9275V22.8341C85.9275 22.8341 78.417 22.8576 78.3846 22.8341Z" fill="#222222"/>
<path d="M105.639 11.5621V8.57352H102.601V16.3078L102.131 15.9548C102.131 15.9548 100.041 14.2056 99.2794 13.531C98.5178 12.8564 97.8777 12.1583 97.8777 12.1426C97.9263 11.8288 98.0803 11.1542 98.0803 10.3071V8.56567H94.8071V10.3071C94.8071 12.5426 93.13 13.8918 92.4657 14.5193C91.7932 15.1468 89.7839 16.4725 89.7839 16.4725L91.6879 18.5276C91.6879 18.5276 93.2921 17.5471 94.1347 16.849C94.9367 16.1901 95.6335 15.4998 96.2249 14.7939C96.7192 15.2331 97.659 16.0019 98.5178 16.6921C97.9912 16.9275 97.505 17.2491 97.0675 17.6805C96.0872 18.6218 95.5849 19.7827 95.5849 21.124C95.5849 22.4654 96.0791 23.6028 97.0675 24.5519C98.0479 25.501 99.247 25.9874 100.608 25.9874C101.969 25.9874 103.184 25.501 104.165 24.5519C105.137 23.6028 105.631 22.4497 105.631 21.124V14.3389H108.791V11.5543H105.631L105.639 11.5621ZM102.204 22.6693C101.759 23.0929 101.24 23.3047 100.616 23.3047C99.9923 23.3047 99.4657 23.0929 99.0282 22.6693C98.5826 22.2379 98.372 21.7359 98.372 21.1319C98.372 20.5279 98.5907 20.018 99.0282 19.5787C99.4738 19.1473 99.9923 18.9355 100.616 18.9355C101.24 18.9355 101.759 19.1473 102.204 19.5787C102.65 20.018 102.86 20.52 102.86 21.1319C102.86 21.7437 102.642 22.2379 102.204 22.6693Z" fill="#222222"/>
<path d="M178.783 14.1272C180.906 16.2529 184.657 18.1982 184.657 18.1982L186.513 15.9313C182.794 13.9154 181.044 12.2524 180.355 11.4837C180.542 10.9268 180.647 10.3385 180.647 9.73448V8.49512H177.422V9.65604C177.422 10.2051 177.479 12.6995 171.435 15.947L173.444 18.0413C173.444 18.0413 176.645 16.5902 178.783 14.1272Z" fill="#222222"/>
<path d="M47.3462 0.015686H16.802V32.9686H47.3462V0.015686Z" fill="url(#paint0_linear_2001_426)"/>
<path d="M25.9005 2.0552C26.2003 2.0552 26.4515 1.80419 26.4515 1.49827C26.4515 1.19236 26.2084 0.941345 25.9005 0.941345C25.5927 0.941345 25.3496 1.19236 25.3496 1.49827C25.3496 1.80419 25.5927 2.0552 25.9005 2.0552Z" fill="white"/>
<path d="M32.3657 18.6768C32.3657 18.8101 32.471 18.9199 32.6007 18.9199C32.7222 18.9199 32.8356 18.8101 32.8356 18.6768C32.8356 18.5434 32.7303 18.4336 32.6007 18.4336C32.471 18.4336 32.3657 18.5434 32.3657 18.6768Z" fill="white"/>
<path d="M32.6331 23.4852C32.4873 23.4852 32.3577 23.6107 32.3577 23.7676C32.3577 23.9244 32.4792 24.0421 32.6331 24.0421C32.7871 24.0421 32.9086 23.9166 32.9086 23.7676C32.9086 23.6185 32.7871 23.4852 32.6331 23.4852Z" fill="white"/>
<path d="M27.5532 6.14197C27.3344 6.14197 27.1643 6.31454 27.1643 6.53417C27.1643 6.75381 27.3344 6.93422 27.5532 6.93422C27.7476 6.93422 27.9421 6.75381 27.9421 6.53417C27.9421 6.31454 27.7719 6.14197 27.5532 6.14197Z" fill="white"/>
<path d="M31.337 15.0998C31.337 14.8724 31.1587 14.692 30.94 14.692C30.7212 14.692 30.543 14.8724 30.543 15.0998C30.543 15.3273 30.7212 15.5077 30.94 15.5077C31.1344 15.5077 31.337 15.3273 31.337 15.0998Z" fill="white"/>
<path d="M30.9317 19.2651C31.1829 19.2651 31.4259 19.0376 31.4259 18.7552C31.4259 18.4728 31.2072 18.2532 30.9317 18.2532C30.6562 18.2532 30.4375 18.4807 30.4375 18.7552C30.4375 19.0297 30.6562 19.2651 30.9317 19.2651Z" fill="white"/>
<path d="M30.7617 16.9668C30.7617 17.0766 30.8508 17.1707 30.9643 17.1707C31.0615 17.1707 31.1587 17.0766 31.1587 16.9668C31.1587 16.8569 31.0696 16.7628 30.9643 16.7628C30.8589 16.7628 30.7617 16.8569 30.7617 16.9668Z" fill="white"/>
<path d="M29.2061 16.504C28.963 16.504 28.7686 16.7001 28.7686 16.9432C28.7686 17.1864 28.963 17.3903 29.2061 17.3903C29.4248 17.3903 29.6355 17.1864 29.6355 16.9432C29.6355 16.7001 29.441 16.504 29.2061 16.504Z" fill="white"/>
<path d="M32.8196 15.1705C32.8196 15.0685 32.7386 14.9901 32.6414 14.9901C32.5442 14.9901 32.4631 15.0685 32.4631 15.1705C32.4631 15.2724 32.5442 15.3509 32.6414 15.3509C32.7305 15.3509 32.8196 15.2724 32.8196 15.1705Z" fill="white"/>
<path d="M32.5845 10.3777C32.7466 10.3777 32.9005 10.2287 32.9005 10.0561C32.9005 9.88353 32.7547 9.7345 32.5845 9.7345C32.4144 9.7345 32.2686 9.88353 32.2686 10.0561C32.2686 10.2287 32.4144 10.3856 32.5845 10.3777Z" fill="white"/>
<path d="M32.5845 12.2133C32.8114 12.2133 33.0301 12.0015 33.0301 11.7505C33.0301 11.4994 32.8276 11.2877 32.5845 11.2877C32.3415 11.2877 32.1389 11.4916 32.1389 11.7505C32.1389 12.0093 32.3415 12.2133 32.5845 12.2133Z" fill="white"/>
<path d="M32.9816 13.4056C32.9816 13.1859 32.8115 13.0134 32.6008 13.0134C32.3902 13.0134 32.2119 13.1938 32.2119 13.4056C32.2119 13.6174 32.3821 13.8056 32.6008 13.7978C32.7953 13.7978 32.9816 13.6174 32.9816 13.4056Z" fill="white"/>
<path d="M20.7963 1.79634C21.007 1.79634 21.1771 1.62377 21.1771 1.40413C21.1771 1.1845 21.007 1.01978 20.7963 1.01978C20.5857 1.01978 20.4155 1.19234 20.4155 1.40413C20.4155 1.61592 20.5857 1.79634 20.7963 1.79634Z" fill="white"/>
<path d="M22.5867 1.79632C22.765 1.79632 22.9027 1.64728 22.9027 1.46687C22.9027 1.28646 22.765 1.14526 22.5867 1.14526C22.4085 1.14526 22.2708 1.2943 22.2708 1.46687C22.2708 1.63944 22.4166 1.79632 22.5867 1.79632Z" fill="white"/>
<path d="M27.5695 7.99316C27.3831 7.99316 27.2373 8.1422 27.2373 8.33046C27.2373 8.51872 27.3831 8.6756 27.5695 8.66775C27.7315 8.66775 27.9017 8.51872 27.9017 8.33046C27.9017 8.1422 27.7558 7.99316 27.5695 7.99316Z" fill="white"/>
<path d="M29.3195 8.64419C29.4735 8.64419 29.6193 8.50299 29.6193 8.33827C29.6193 8.17354 29.4816 8.03235 29.3195 8.03235C29.1575 8.03235 29.0198 8.1657 29.0198 8.33827C29.0198 8.51084 29.1575 8.64419 29.3195 8.64419Z" fill="white"/>
<path d="M30.9804 8.59712C31.11 8.59712 31.2316 8.47945 31.2316 8.33826C31.2316 8.19707 31.1181 8.07941 30.9804 8.07941C30.8427 8.07941 30.7292 8.19707 30.7292 8.33826C30.7292 8.47945 30.8427 8.59712 30.9804 8.59712Z" fill="white"/>
<path d="M29.2709 3.31805C29.3762 3.31805 29.4653 3.22392 29.4653 3.12194C29.4653 3.01997 29.3762 2.92584 29.2709 2.92584C29.1655 2.92584 29.0764 3.01213 29.0764 3.12194C29.0764 3.23176 29.1574 3.31805 29.2709 3.31805Z" fill="white"/>
<path d="M29.2709 5.02807C29.3762 5.02807 29.4653 4.94178 29.4653 4.83197C29.4653 4.72215 29.3762 4.63586 29.2709 4.63586C29.1655 4.63586 29.0764 4.72215 29.0764 4.83197C29.0764 4.94178 29.1574 5.02807 29.2709 5.02807Z" fill="white"/>
<path d="M27.5694 1.79632C27.7476 1.79632 27.8854 1.64728 27.8854 1.46687C27.8854 1.28646 27.7476 1.14526 27.5694 1.14526C27.3911 1.14526 27.2534 1.2943 27.2534 1.46687C27.2534 1.63944 27.3911 1.79632 27.5694 1.79632Z" fill="white"/>
<path d="M24.2883 2.01598C24.5637 2.01598 24.7987 1.78066 24.7987 1.49827C24.7987 1.21588 24.5718 0.972717 24.2883 0.972717C24.0047 0.972717 23.7778 1.20804 23.7778 1.49827C23.7778 1.7885 24.0047 2.01598 24.2883 2.01598Z" fill="white"/>
<path d="M32.5765 20.8025C32.8034 20.8025 32.9897 20.6142 32.9897 20.3789C32.9897 20.1436 32.8034 19.9553 32.5765 19.9553C32.3497 19.9553 32.1633 20.1436 32.1633 20.3789C32.1633 20.6142 32.3497 20.8025 32.5765 20.8025Z" fill="white"/>
<path d="M32.6008 21.6261C32.3578 21.6261 32.1633 21.8222 32.1633 22.0732C32.1633 22.3242 32.3578 22.5125 32.6008 22.5125C32.8439 22.5125 33.0302 22.3164 33.0302 22.0732C33.0302 21.83 32.8358 21.6261 32.6008 21.6261Z" fill="white"/>
<path d="M20.8369 30.1134C20.5452 30.1134 20.3184 30.3487 20.3184 30.6468C20.3184 30.9449 20.5533 31.1802 20.8369 31.1802C21.1204 31.1802 21.3554 30.9449 21.3554 30.6468C21.3554 30.3487 21.1204 30.1134 20.8369 30.1134Z" fill="white"/>
<path d="M30.94 23.2106C30.6646 23.2106 30.4458 23.4381 30.4458 23.7205C30.4458 24.0029 30.6646 24.2304 30.94 24.2304C31.2155 24.2304 31.4342 24.0029 31.4342 23.7205C31.4342 23.4381 31.2155 23.2106 30.94 23.2106Z" fill="white"/>
<path d="M27.853 25.5089C27.853 25.3364 27.7153 25.1873 27.5452 25.1873C27.375 25.1873 27.2373 25.3285 27.2373 25.5089C27.2373 25.6893 27.375 25.8227 27.5452 25.8227C27.7153 25.8227 27.853 25.6815 27.853 25.5089Z" fill="white"/>
<path d="M27.0916 27.3288C27.0916 27.572 27.286 27.7681 27.521 27.7681C27.7559 27.7681 27.9504 27.572 27.9504 27.3288C27.9504 27.0856 27.7559 26.8895 27.521 26.8895C27.286 26.8895 27.0916 27.0856 27.0916 27.3288Z" fill="white"/>
<path d="M27.5046 30.1605C27.2373 30.1605 27.0266 30.3801 27.0266 30.6546C27.0266 30.9292 27.2373 31.141 27.5046 31.141C27.772 31.141 27.9826 30.9213 27.9826 30.6546C27.9826 30.3879 27.772 30.1605 27.5046 30.1605Z" fill="white"/>
<path d="M29.2628 30.5135C29.1575 30.5135 29.0684 30.5998 29.0684 30.7096C29.0684 30.8194 29.1575 30.9057 29.2628 30.9057C29.3681 30.9057 29.4573 30.8194 29.4573 30.7096C29.4573 30.5998 29.3681 30.5135 29.2628 30.5135Z" fill="white"/>
<path d="M29.2465 28.7878C29.125 28.7878 29.0359 28.8819 29.0359 29.0074C29.0359 29.1329 29.1331 29.227 29.2465 29.227C29.36 29.227 29.4572 29.1329 29.4572 29.0074C29.4572 28.8819 29.36 28.7878 29.2465 28.7878Z" fill="white"/>
<path d="M29.3195 25.2657C29.2061 25.2657 29.1089 25.3599 29.1089 25.4854C29.1089 25.6109 29.2061 25.705 29.3195 25.705C29.433 25.705 29.5302 25.6109 29.5302 25.4854C29.5302 25.3599 29.433 25.2657 29.3195 25.2657Z" fill="white"/>
<path d="M31.0129 25.3129C30.9157 25.3129 30.8428 25.3913 30.8428 25.4854C30.8428 25.5796 30.9157 25.658 31.0129 25.658C31.1101 25.658 31.175 25.5796 31.175 25.4854C31.175 25.3913 31.102 25.3129 31.0129 25.3129Z" fill="white"/>
<path d="M31.1343 10.8954C31.1343 10.8954 31.1343 10.8641 31.1343 10.8484C31.1343 10.5032 31.4179 10.4876 31.4746 10.1346C31.5394 9.75021 31.1587 9.33447 30.6887 9.57764C30.5105 9.67177 30.4133 9.82865 30.4133 10.0483C30.4133 10.4013 30.6968 10.4483 30.6968 10.7856C30.6968 11.068 30.4862 11.3426 30.1945 11.3426C29.8137 11.3426 29.6274 11.0837 29.6274 10.7543C29.6274 10.4719 29.9596 10.3307 29.9596 10.0169C29.9596 9.67177 29.7327 9.43645 29.3762 9.43645C28.9792 9.43645 28.8577 9.94631 28.4526 9.94631C28.0961 9.94631 27.9827 9.45214 27.61 9.45214C27.1806 9.45214 27.2616 9.71883 26.7998 9.85218C26.7512 9.86787 26.6378 9.92278 26.4514 9.8365C26.0707 9.66393 26.0464 9.31094 26.0464 9.17759C26.0464 9.09131 26.1517 8.82461 26.2165 8.77754C26.4271 8.65204 26.5163 8.41672 26.5163 8.26768C26.5163 7.92254 26.2813 7.66369 25.941 7.66369C25.5359 7.66369 25.5602 7.89901 25.2767 7.97745C24.9445 8.06374 24.6204 7.83626 24.6204 7.43621C24.6204 7.13029 24.8797 6.91066 25.1308 6.91066C25.4792 6.91066 25.5035 7.17736 25.86 7.17736C26.0382 7.17736 26.1679 7.13029 26.3137 6.99694C26.5082 6.81653 26.5892 6.51061 26.4433 6.22822C26.3866 6.11056 26.2894 6.00075 26.2165 5.89093C26.1112 5.67914 26.1436 5.42813 26.2165 5.29478C26.2975 5.16143 26.4839 4.9967 26.7674 5.02808C26.889 5.04377 27.0186 5.10652 27.0834 5.16143C27.3265 5.34969 27.6181 5.43597 27.9017 5.20065C28.0394 5.09083 28.088 4.91042 28.0637 4.73785C28.0475 4.58881 27.9665 4.43978 27.8207 4.35349C27.3751 4.09464 27.1887 4.479 26.9214 4.55744C26.7593 4.6045 26.5892 4.57312 26.5082 4.52606C26.257 4.36918 26.1031 4.18092 26.1922 3.81225C26.2975 3.49849 26.6702 3.19257 27.1806 3.52202C27.3021 3.61615 27.4399 3.68674 27.5533 3.68674C27.8126 3.68674 28.0718 3.45142 28.0718 3.15335C28.0718 2.85527 27.8369 2.61995 27.5533 2.61995C27.3832 2.61995 27.2778 2.69055 27.1482 2.80821C27.0186 2.92587 26.8646 3.00431 26.6297 2.93371C26.4514 2.86312 26.3947 2.76899 26.3218 2.65133C26.2327 2.35325 26.095 2.25912 25.9167 2.25912C25.6656 2.25912 25.6088 2.40032 25.4792 2.61995C25.3577 2.78468 25.1713 2.80036 25.0579 2.80036C24.904 2.80036 24.7257 2.72192 24.5313 2.53367C24.4341 2.43954 24.3612 2.3611 24.2558 2.3611C24.0614 2.3611 23.9237 2.5572 23.7859 2.69055C23.6725 2.80036 23.5429 2.89449 23.3484 2.89449C23.2188 2.89449 23.0811 2.83958 23 2.73761C22.7975 2.4866 22.4248 2.46307 22.2466 2.59642C21.8091 2.91803 21.9549 3.31807 22.1493 3.57693C22.2871 3.75734 22.3276 4.02404 22.1412 4.24367C22.0359 4.36918 21.8982 4.43977 21.7523 4.44762C21.5903 4.46331 21.4283 4.39271 21.3067 4.25152C21.1528 4.08679 21.1528 3.76519 21.2581 3.62399C21.3797 3.45142 21.4607 3.32592 21.4121 3.09844C21.3229 2.64348 20.8611 2.47876 20.529 2.67486C20.4722 2.71408 20.4236 2.7533 20.3912 2.80036C20.2859 2.91018 20.1725 2.98862 19.9537 2.98862C19.8079 2.98862 19.6053 2.86312 19.5648 2.81605C19.103 2.14931 19.816 1.92967 19.7593 1.32568C19.735 1.05114 19.5162 0.9021 19.3785 0.666777C19.3623 0.611869 19.3542 0.556961 19.338 0.494208C19.3542 0.321638 19.5486 0.172601 19.6459 -0.0078125H16.4051V7.96176C11.8761 8.00883 8.22217 11.7818 8.22217 16.4334C8.22217 21.0849 11.8761 24.8579 16.4051 24.905V32.9922H19.4838C19.5972 32.8432 19.7431 32.6784 19.7593 32.4902C19.7917 32.0587 19.3866 31.9332 19.3542 31.5959C19.3542 31.5253 19.3704 31.4548 19.4109 31.392C19.5324 31.1881 19.7917 31.0233 19.8403 30.7958C19.9213 30.3723 19.3137 30.1683 19.5729 29.6192C19.6945 29.3604 19.9861 29.2663 20.2292 29.3447C20.6262 29.4859 20.5209 29.8389 20.8854 29.8389C21.25 29.8389 21.2014 29.5643 21.3959 29.431C21.7361 29.2035 22.0926 29.3369 22.2466 29.5957C22.3681 29.7997 22.3357 30.0585 22.2547 30.1762C22.1736 30.3017 22.0602 30.4115 22.0602 30.6233C22.0602 30.9292 22.3033 31.1724 22.5949 31.1724C22.8866 31.1724 23.1297 30.9292 23.1297 30.6233C23.1297 30.4507 23.0486 30.3017 22.9271 30.1997C22.8542 30.1213 22.8218 29.9801 22.8218 29.8467C22.8218 29.5486 23.0405 29.3447 23.3646 29.3055C23.4862 29.2898 23.6644 29.3682 23.7373 29.4467C23.8183 29.533 23.8507 29.6192 23.8831 29.6977C23.9642 29.9565 23.8183 30.1605 23.6887 30.3801C23.6158 30.4821 23.5672 30.5997 23.5672 30.7409C23.5672 31.0704 23.8345 31.3449 24.1586 31.3449C24.2963 31.3449 24.426 31.29 24.5313 31.2037C24.7419 31.0704 24.9526 30.8743 25.2362 30.9527C25.3577 30.9841 25.4306 31.0547 25.5197 31.1331C25.6332 31.2586 25.7952 31.3371 25.9734 31.3371C26.3137 31.3371 26.5892 31.0547 26.5892 30.7096C26.5892 30.6233 26.573 30.537 26.5325 30.4586C26.5244 30.435 26.5163 30.4193 26.5001 30.3958C26.4677 30.333 26.419 30.2781 26.3704 30.2311C26.2975 30.1526 26.2246 30.0663 26.2003 29.9173C26.1598 29.7212 26.2246 29.5643 26.2894 29.4467C26.3947 29.2584 26.7026 29.1643 26.9214 29.2113C26.9943 29.227 27.0591 29.2741 27.1239 29.3212C27.2211 29.4545 27.3751 29.533 27.5452 29.533C27.8369 29.533 28.0718 29.2898 28.0718 28.9917C28.0718 28.6936 27.8369 28.4505 27.5452 28.4505C27.1887 28.4505 27.1968 28.7878 26.7755 28.7878C26.573 28.7878 26.4109 28.7093 26.2894 28.5211C26.1355 28.2857 26.2003 28.0112 26.2732 27.87C26.3299 27.768 26.4109 27.6739 26.4758 27.5719C26.573 27.4543 26.6297 27.3131 26.6297 27.1484C26.6297 26.7875 26.3461 26.4895 25.9896 26.4895C25.8438 26.4895 25.7061 26.5444 25.6007 26.6228C25.5926 26.6228 25.5845 26.6385 25.5764 26.6463C25.5764 26.6463 25.5521 26.6777 25.5359 26.6856C25.5278 26.6856 25.5197 26.7012 25.5116 26.7091C25.4711 26.7483 25.4387 26.7718 25.3577 26.8111C24.9688 26.9915 24.5313 26.5444 24.7257 26.1443C24.7906 26.0031 24.8878 25.8855 25.0336 25.8541C25.4144 25.7756 25.4711 25.9561 25.6251 26.0659C25.7061 26.1208 25.8033 26.1365 25.9005 26.1365C26.2246 26.1365 26.4839 25.8698 26.4839 25.5403C26.4839 25.3207 26.3704 25.1403 26.2084 25.0305C26.1922 25.0148 26.176 25.0069 26.1598 25.0069C26.0869 24.9677 25.9977 24.9442 25.9086 24.9442C25.6089 24.9442 25.5683 25.1246 25.3658 25.1952C25.0822 25.305 24.7987 25.156 24.6933 24.905C24.5151 24.4971 24.8635 24.0107 25.3496 24.1519C25.5359 24.2068 25.6413 24.3559 25.7547 24.4186C25.8519 24.4735 25.9167 24.4892 26.022 24.4892C26.3542 24.4892 26.6297 24.2147 26.6297 23.8695C26.6297 23.8146 26.6216 23.7597 26.6054 23.7127C26.6054 23.7127 26.6054 23.697 26.6054 23.6891C26.5892 23.5401 26.4271 23.4146 26.3461 23.2891C26.1841 23.0302 26.3056 22.7008 26.5649 22.536C26.6864 22.4576 26.889 22.4419 27.0267 22.489C27.2616 22.5674 27.4885 22.9361 27.3508 23.1871C27.213 23.446 27.0996 23.493 27.0996 23.697C27.0996 24.0186 27.4075 24.2382 27.5938 24.2382C27.6991 24.2382 27.8936 24.2147 28.007 24.0813C28.2744 23.7676 28.1609 23.5322 28.007 23.2655C27.9098 23.1008 27.8936 22.889 28.007 22.7008C28.088 22.5674 28.2177 22.4498 28.3797 22.4184C28.72 22.3556 29.0846 22.6459 29.0522 23.0302C29.036 23.242 28.9468 23.2969 28.8496 23.4538C28.6876 23.7127 28.8739 24.0735 29.1251 24.1911C29.4978 24.3637 29.9596 24.0343 29.8705 23.5715C29.8137 23.2969 29.6436 23.2812 29.6031 23.0851C29.5788 22.9439 29.5383 22.842 29.7003 22.5831C29.8704 22.3007 30.2512 22.285 30.5591 22.5125C30.6644 22.591 30.7455 22.6929 30.8589 22.7321C31.0614 22.7949 31.2883 22.7478 31.4341 22.6066C31.6934 22.3635 31.6772 22.0811 31.6124 21.9085C31.5313 21.6889 31.2802 21.5477 31.2721 21.2182C31.264 20.8809 31.5232 20.6848 31.6286 20.4417C31.7015 20.2848 31.7258 20.0965 31.5556 19.8455C31.4746 19.7357 31.3531 19.6573 31.2316 19.6416C31.0533 19.618 30.9075 19.6651 30.7698 19.7436C30.5834 19.8612 30.3728 20.0416 30.1216 19.9789C30.0568 19.9632 29.8948 19.9475 29.8056 19.8377C29.5059 19.4769 29.7003 19.1945 29.838 18.8964C29.9515 18.6532 30.0082 18.3787 29.7408 18.1277C29.5383 17.9394 29.198 17.9708 28.9792 18.1277C28.8739 18.1983 28.7929 18.2375 28.6957 18.3159C28.4202 18.4179 28.2096 18.3552 28.0556 18.2061C27.9503 18.1041 27.8855 17.9159 27.8855 17.7825C27.9017 17.4452 28.2582 17.3511 28.2582 16.8962C28.2582 16.3785 27.8045 16.402 27.8045 15.8294C27.8045 15.7039 27.8936 15.5156 27.9989 15.4215C28.1366 15.3117 28.242 15.2646 28.3311 15.2646C28.9063 15.2646 28.7605 15.6254 29.2466 15.6254C29.4005 15.6254 29.5626 15.5391 29.6679 15.4293C29.911 15.1783 29.8299 14.7861 29.7084 14.6528C29.5626 14.4959 29.4492 14.2213 29.6193 13.9154C29.7489 13.6801 30.0406 13.5624 30.2999 13.6644C30.4862 13.735 30.47 13.837 30.6887 13.9468C31.0209 14.135 31.4017 13.9468 31.5313 13.6644C31.7825 13.1075 31.2721 12.9898 31.2559 12.6133C31.2397 12.2054 31.661 12.0799 31.7015 11.7426C31.7501 11.3818 31.2478 11.1778 31.183 10.8405L31.1343 10.8954ZM25.1065 3.58477C25.301 3.58477 25.4549 3.7495 25.4549 3.9456C25.4549 4.1417 25.2767 4.30643 25.1065 4.30643C24.9121 4.30643 24.75 4.1417 24.75 3.9456C24.75 3.7495 24.9121 3.58477 25.1065 3.58477ZM25.147 5.34969C25.3658 5.34969 25.544 5.5301 25.544 5.74973C25.544 5.96937 25.3496 6.14978 25.147 6.15763C24.9283 6.15763 24.75 5.97721 24.75 5.74973C24.75 5.52226 24.9283 5.34969 25.147 5.34969ZM25.147 27.768C25.3415 27.768 25.4954 27.9249 25.4954 28.1289C25.4954 28.3328 25.3415 28.4897 25.147 28.4897C24.9526 28.4897 24.7987 28.325 24.7987 28.1289C24.7987 27.9328 24.9526 27.768 25.147 27.768ZM25.1065 29.4859C25.3415 29.4859 25.5359 29.682 25.5359 29.9252C25.5359 30.1683 25.3415 30.3644 25.1065 30.3644C24.8716 30.3644 24.6771 30.1683 24.6771 29.9252C24.6771 29.682 24.8716 29.4859 25.1065 29.4859ZM23.3889 7.22442C23.5024 7.22442 23.5915 7.31855 23.5915 7.42837C23.5915 7.53818 23.4943 7.63231 23.3889 7.63231C23.2755 7.63231 23.1864 7.53818 23.1864 7.42837C23.1864 7.31855 23.2755 7.22442 23.3889 7.22442ZM23.1864 5.65561C23.1864 5.54579 23.2755 5.45166 23.3889 5.45166C23.5024 5.45166 23.5915 5.54579 23.5915 5.65561C23.5915 5.76542 23.4943 5.85955 23.3889 5.85955C23.2755 5.85955 23.1864 5.76542 23.1864 5.65561ZM23.3565 3.43573C23.6077 3.43573 23.8021 3.63968 23.8021 3.89069C23.8021 4.1417 23.5753 4.34565 23.3565 4.35349C23.1135 4.35349 22.9109 4.14954 22.9109 3.89069C22.9109 3.63184 23.1135 3.43573 23.3565 3.43573ZM18.1146 3.95344C18.1146 3.79656 18.2442 3.66321 18.3982 3.66321C18.5521 3.66321 18.6817 3.78872 18.6817 3.95344C18.6817 4.11817 18.5602 4.24367 18.3982 4.24367C18.2361 4.24367 18.1146 4.11817 18.1146 3.95344ZM19.7917 5.65561C19.7917 5.51441 19.9051 5.4046 20.0428 5.4046C20.1806 5.4046 20.294 5.51441 20.294 5.65561C20.294 5.7968 20.1725 5.90662 20.0428 5.91446C19.9051 5.91446 19.7917 5.7968 19.7917 5.65561ZM21.728 5.34184C21.8982 5.34184 22.0359 5.48304 22.0359 5.65561C22.0359 5.82818 21.882 5.96937 21.728 5.96937C21.5579 5.96937 21.4202 5.82818 21.4202 5.65561C21.4202 5.48304 21.5579 5.34184 21.728 5.34184ZM20.059 3.38867C20.3426 3.38867 20.5695 3.62399 20.5695 3.90638C20.5695 4.18877 20.3426 4.43193 20.059 4.43193C19.7755 4.43193 19.5486 4.19661 19.5486 3.90638C19.5486 3.61615 19.7755 3.38867 20.059 3.38867ZM18.4468 0.0784723C18.6979 0.0784723 18.9005 0.290262 18.9005 0.541272C18.9005 0.792283 18.6979 1.00407 18.4468 1.00407C18.1956 1.00407 17.9931 0.792283 17.9931 0.541272C17.9931 0.290262 18.1956 0.0784723 18.4468 0.0784723ZM18.4144 1.79632C18.6493 1.79632 18.8357 1.99243 18.8357 2.22775C18.8357 2.46307 18.6412 2.65917 18.4144 2.65917C18.1875 2.65917 17.9931 2.46307 17.9931 2.22775C17.9931 1.99243 18.1794 1.79632 18.4144 1.79632ZM18.4144 29.5643C18.5926 29.5643 18.7384 29.7134 18.7384 29.8938C18.7384 30.0742 18.5926 30.2232 18.4144 30.2232C18.2361 30.2232 18.0903 30.0742 18.0903 29.8938C18.0903 29.7134 18.2361 29.5643 18.4144 29.5643ZM18.1632 28.1602C18.1632 28.0661 18.2361 27.9877 18.3333 27.9877C18.4306 27.9877 18.5035 28.0661 18.5035 28.1602C18.5035 28.2544 18.4306 28.3328 18.3333 28.3328C18.2361 28.3328 18.1632 28.2544 18.1632 28.1602ZM18.463 32.0195C18.228 32.0195 18.0336 31.8234 18.0336 31.5803C18.0336 31.3371 18.228 31.141 18.463 31.141C18.6979 31.141 18.8924 31.3371 18.8924 31.5803C18.8924 31.8234 18.6979 32.0195 18.463 32.0195ZM20.0428 28.4505C19.897 28.4505 19.7836 28.3328 19.7836 28.1838C19.7836 28.0347 19.897 27.9171 20.0428 27.9171C20.1887 27.9171 20.3021 28.0347 20.3021 28.1838C20.3021 28.3328 20.1887 28.4505 20.0428 28.4505ZM21.6794 28.5289C21.5012 28.5289 21.3554 28.3799 21.3554 28.1916C21.3554 28.0034 21.5012 27.8543 21.6794 27.8543C21.8577 27.8543 22.0035 28.0112 22.0035 28.1916C22.0035 28.372 21.8577 28.5289 21.6794 28.5289ZM23.397 28.3799C23.2755 28.3799 23.1864 28.2779 23.1864 28.1602C23.1864 28.0426 23.2836 27.9406 23.397 27.9406C23.5105 27.9406 23.6077 28.0426 23.6077 28.1602C23.6077 28.2779 23.5105 28.3799 23.397 28.3799ZM23.2269 26.3953C23.2269 26.2934 23.3079 26.2071 23.4132 26.2071C23.5186 26.2071 23.5996 26.2934 23.5996 26.3953C23.5996 26.4973 23.5186 26.5836 23.4132 26.5836C23.3079 26.5836 23.2269 26.4973 23.2269 26.3953ZM23.4375 24.9128C23.316 24.9128 23.2269 24.8187 23.2269 24.6932C23.2269 24.5677 23.3241 24.4735 23.4375 24.4735C23.551 24.4735 23.6482 24.5677 23.6482 24.6932C23.6482 24.8187 23.551 24.9128 23.4375 24.9128ZM25.1065 23.3675C24.8959 23.3675 24.7257 23.1949 24.7257 22.9753C24.7257 22.7557 24.8959 22.5831 25.1065 22.5831C25.3172 22.5831 25.4873 22.7557 25.4873 22.9753C25.4873 23.1949 25.3172 23.3675 25.1065 23.3675ZM24.8392 10.8327C24.8392 10.668 24.9769 10.5268 25.1389 10.5268C25.301 10.5268 25.4387 10.6601 25.4387 10.8327C25.4387 11.0053 25.2929 11.1386 25.1389 11.1386C24.9769 11.1386 24.8392 11.0053 24.8392 10.8327ZM25.1551 9.64824C24.8716 9.64824 24.6366 9.41292 24.6366 9.12268C24.6366 8.83245 24.8635 8.59713 25.1551 8.59713C25.4468 8.59713 25.6656 8.83245 25.6656 9.12268C25.6656 9.41292 25.4144 9.64824 25.1551 9.64824ZM26.8079 10.315C27.0672 10.315 27.2778 10.5268 27.2778 10.7935C27.2778 11.0602 27.0429 11.272 26.8079 11.272C26.5487 11.272 26.338 11.0602 26.338 10.7935C26.338 10.5268 26.5487 10.315 26.8079 10.315ZM26.7917 14.0644C26.9619 14.0644 27.0996 14.2056 27.0996 14.3782C27.0996 14.5508 26.9457 14.692 26.7917 14.692C26.6216 14.692 26.4839 14.5508 26.4839 14.3782C26.4839 14.2056 26.6216 14.0644 26.7917 14.0644ZM26.5811 12.5898C26.5811 12.4956 26.654 12.425 26.7431 12.425C26.8322 12.425 26.9052 12.4956 26.9052 12.5898C26.9052 12.6839 26.8241 12.7545 26.7431 12.7545C26.654 12.7545 26.5811 12.6839 26.5811 12.5898ZM26.7755 21.4849C26.654 21.4849 26.5487 21.383 26.5487 21.2575C26.5487 21.132 26.654 21.03 26.7755 21.03C26.8971 21.03 27.0024 21.132 27.0024 21.2575C27.0024 21.383 26.9052 21.4849 26.7755 21.4849ZM26.7755 19.72C26.654 19.72 26.5487 19.618 26.5487 19.4925C26.5487 19.367 26.654 19.2572 26.7755 19.2572C26.8971 19.2572 27.0024 19.3592 27.0024 19.4925C27.0024 19.6259 26.9052 19.72 26.7755 19.72ZM26.8565 18.1669C26.6378 18.1669 26.4514 17.9786 26.4514 17.7512C26.4514 17.5237 26.6378 17.3354 26.8565 17.3354C27.0753 17.3354 27.2616 17.5237 27.2616 17.7512C27.2616 17.9786 27.0753 18.1669 26.8565 18.1669ZM26.8727 16.504C26.6297 16.504 26.4352 16.3 26.4352 16.0568C26.4352 15.8137 26.6297 15.6097 26.8727 15.6097C27.1158 15.6097 27.3102 15.8137 27.3102 16.0568C27.3102 16.3 27.0915 16.504 26.8727 16.504ZM30.1783 20.8025C30.4133 20.8025 30.6077 20.9986 30.6077 21.2418C30.6077 21.4849 30.4133 21.681 30.1783 21.681C29.9434 21.681 29.7489 21.4849 29.7489 21.2418C29.7489 20.9986 29.9434 20.8025 30.1783 20.8025ZM28.4688 21.5163C28.323 21.5163 28.2096 21.3908 28.2096 21.2418C28.2096 21.0927 28.323 20.9751 28.4688 20.9751C28.6147 20.9751 28.7362 21.0927 28.7362 21.2418C28.7362 21.3908 28.6147 21.5163 28.4688 21.5163ZM28.5174 18.9984C28.7443 18.9984 28.9306 19.1866 28.9306 19.4219C28.9306 19.6573 28.7443 19.8455 28.5174 19.8455C28.2906 19.8455 28.1042 19.6573 28.1042 19.4219C28.1042 19.1866 28.2906 18.9984 28.5174 18.9984ZM28.5012 12.3231C28.6471 12.3231 28.7686 12.4486 28.7686 12.5976C28.7686 12.7466 28.639 12.8721 28.5012 12.8721C28.3554 12.8721 28.2339 12.7466 28.2339 12.5976C28.2339 12.4486 28.3554 12.3231 28.5012 12.3231ZM28.5093 14.943C28.2258 14.943 27.9989 14.7077 27.9989 14.4174C27.9989 14.1272 28.2258 13.8919 28.5093 13.8919C28.7929 13.8919 29.0198 14.1272 29.0198 14.4174C29.0198 14.7077 28.7686 14.9351 28.5093 14.943ZM30.1702 13.0918C29.9272 13.0918 29.7327 12.8957 29.7327 12.6447C29.7327 12.3937 29.9272 12.1976 30.1702 12.1976C30.4133 12.1976 30.6077 12.3937 30.6077 12.6447C30.6077 12.8957 30.389 13.0918 30.1702 13.0918Z" fill="white"/>
<path d="M27.5857 32.1136C27.4398 32.1136 27.3264 32.2313 27.3264 32.3803C27.3264 32.5294 27.4398 32.647 27.5857 32.647C27.7315 32.647 27.8449 32.5294 27.8449 32.3803C27.8449 32.2313 27.7315 32.1136 27.5857 32.1136Z" fill="white"/>
<path d="M25.9085 31.9332C25.6817 31.9332 25.5034 32.1215 25.5034 32.349C25.5034 32.5764 25.6817 32.7647 25.9085 32.7647C26.1354 32.7647 26.3136 32.5764 26.3136 32.349C26.3136 32.1215 26.1273 31.9332 25.9085 31.9332Z" fill="white"/>
<path d="M24.2882 31.9332C24.0613 31.9332 23.8831 32.1215 23.8831 32.349C23.8831 32.5764 24.0694 32.7647 24.2882 32.7647C24.5069 32.7647 24.6932 32.5764 24.6932 32.349C24.6932 32.1215 24.515 31.9332 24.2882 31.9332Z" fill="white"/>
<path d="M22.5787 32.1372C22.4491 32.1372 22.3438 32.247 22.3438 32.3804C22.3438 32.5137 22.4491 32.6235 22.5787 32.6235C22.7083 32.6235 22.8218 32.5137 22.8218 32.3804C22.8218 32.247 22.7164 32.1372 22.5787 32.1372Z" fill="white"/>
<path d="M20.8125 32.043C20.618 32.043 20.4641 32.1999 20.4641 32.396C20.4641 32.5921 20.618 32.749 20.8125 32.749C21.0069 32.749 21.1528 32.5921 21.1528 32.396C21.1528 32.1999 20.9988 32.043 20.8125 32.043Z" fill="white"/>
<path d="M11.0011 16.3627C11.0011 13.0133 13.6504 10.2914 16.9236 10.2914V0.015686H15.9676C15.5382 0.015686 15.2222 0.345137 15.1736 0.745184L14.7847 3.11409C14.6875 3.56121 14.1204 3.73377 14.1204 3.73377C13.7558 3.81222 13.3993 3.90634 13.0509 4.02401C12.9699 4.03969 12.4676 4.13382 12.1921 3.8279L10.7014 1.9767C10.4583 1.6551 10.0208 1.52959 9.65621 1.74923L8.05203 2.69836C7.68744 2.91799 7.56592 3.3651 7.71985 3.74162L8.53814 5.99287C8.66777 6.42429 8.26268 6.86356 8.26268 6.86356H8.27078C8.00342 7.11457 7.73606 7.38127 7.493 7.65581C7.493 7.65581 7.0636 8.07154 6.6423 7.9382L4.44668 7.09888C4.0821 6.942 3.63649 7.05966 3.42584 7.43617L2.49412 9.08343C2.28347 9.45994 2.405 9.90706 2.71288 10.1581L4.5196 11.6877C4.81937 11.97 4.72215 12.4878 4.70594 12.5662C4.59252 12.927 4.5034 13.2879 4.42238 13.6644C4.42238 13.6644 4.25224 14.237 3.82284 14.339L1.50569 14.7312C1.1087 14.7861 0.792725 15.1077 0.792725 15.5469V17.4452C0.792725 17.8766 1.1168 18.2061 1.50569 18.261L3.82284 18.661C4.25224 18.763 4.42238 19.3435 4.42238 19.3435C4.5034 19.7043 4.59252 20.073 4.70594 20.4338C4.72215 20.5201 4.81937 21.0299 4.5196 21.3123L2.71288 22.8419C2.3969 23.0929 2.27537 23.54 2.49412 23.9166L3.42584 25.5638C3.63649 25.9403 4.074 26.058 4.44668 25.9011L6.6423 25.0618C7.0636 24.9284 7.493 25.3442 7.493 25.3442C7.74416 25.6109 8.00342 25.8776 8.27078 26.1364H8.26268C8.26268 26.1364 8.66777 26.5679 8.53814 27.0071L7.71985 29.2584C7.56592 29.6349 7.67934 30.082 8.05203 30.3016L9.65621 31.2508C10.0208 31.4704 10.4664 31.3449 10.7014 31.0233L12.1921 29.1721C12.4757 28.8583 12.9942 28.9681 13.059 28.9838C13.4074 29.1015 13.7639 29.1956 14.1285 29.2741H14.1204C14.1204 29.2741 14.6875 29.4466 14.7847 29.8859L15.1736 32.2548C15.2303 32.6549 15.5463 32.9922 15.9676 32.9922H16.9236V22.4576C13.6504 22.4576 11.0011 19.7435 11.0011 16.3941V16.3627Z" fill="url(#paint1_linear_2001_426)"/>
</g>
<defs>
<linearGradient id="paint0_linear_2001_426" x1="45.8859" y1="14.8124" x2="7.27092" y2="14.8124" gradientUnits="userSpaceOnUse">
<stop stop-color="white"/>
<stop offset="0.02" stop-color="#EFFAFE"/>
<stop offset="0.1" stop-color="#B1E6FA"/>
<stop offset="0.19" stop-color="#7BD5F6"/>
<stop offset="0.27" stop-color="#4EC7F3"/>
<stop offset="0.35" stop-color="#2CBCF1"/>
<stop offset="0.42" stop-color="#14B4F0"/>
<stop offset="0.49" stop-color="#05AFEF"/>
<stop offset="0.54" stop-color="#00AEEF"/>
<stop offset="0.62" stop-color="#04A1E5"/>
<stop offset="0.75" stop-color="#117FCC"/>
<stop offset="0.93" stop-color="#2549A3"/>
<stop offset="1" stop-color="#2E3192"/>
</linearGradient>
<linearGradient id="paint1_linear_2001_426" x1="53.6852" y1="14.8127" x2="5.28831" y2="14.8127" gradientUnits="userSpaceOnUse">
<stop stop-color="white"/>
<stop offset="0.02" stop-color="#EFFAFE"/>
<stop offset="0.1" stop-color="#B1E6FA"/>
<stop offset="0.19" stop-color="#7BD5F6"/>
<stop offset="0.27" stop-color="#4EC7F3"/>
<stop offset="0.35" stop-color="#2CBCF1"/>
<stop offset="0.42" stop-color="#14B4F0"/>
<stop offset="0.49" stop-color="#05AFEF"/>
<stop offset="0.54" stop-color="#00AEEF"/>
<stop offset="0.62" stop-color="#04A1E5"/>
<stop offset="0.75" stop-color="#117FCC"/>
<stop offset="0.93" stop-color="#2549A3"/>
<stop offset="1" stop-color="#2E3192"/>
</linearGradient>
<clipPath id="clip0_2001_426">
<rect width="187" height="33" fill="white" transform="translate(0.800781)"/>
</clipPath>
</defs>
</svg>
