<svg width="17" height="16" viewBox="0 0 17 16" fill="none" xmlns="http://www.w3.org/2000/svg">
<path d="M10.2271 7.98771L16.5201 1.69471C16.7022 1.50611 16.803 1.25351 16.8007 0.991311C16.7985 0.729114 16.6933 0.478301 16.5079 0.292893C16.3225 0.107485 16.0717 0.00231622 15.8095 3.78026e-05C15.5473 -0.00224062 15.2947 0.0985537 15.1061 0.280712L8.81307 6.57371L2.52007 0.280712C2.33147 0.0985537 2.07887 -0.00224062 1.81667 3.78026e-05C1.55447 0.00231622 1.30366 0.107485 1.11825 0.292893C0.932843 0.478301 0.827674 0.729114 0.825396 0.991311C0.823117 1.25351 0.923912 1.50611 1.10607 1.69471L7.39907 7.98771L1.10607 14.2807C1.01056 14.373 0.934377 14.4833 0.881968 14.6053C0.829559 14.7273 0.801973 14.8585 0.800819 14.9913C0.799665 15.1241 0.824967 15.2558 0.875248 15.3787C0.925529 15.5016 0.999782 15.6132 1.09367 15.7071C1.18757 15.801 1.29922 15.8753 1.42212 15.9255C1.54501 15.9758 1.67669 16.0011 1.80947 16C1.94225 15.9988 2.07347 15.9712 2.19547 15.9188C2.31748 15.8664 2.42782 15.7902 2.52007 15.6947L8.81307 9.40171L15.1061 15.6947C15.2947 15.8769 15.5473 15.9777 15.8095 15.9754C16.0717 15.9731 16.3225 15.8679 16.5079 15.6825C16.6933 15.4971 16.7985 15.2463 16.8007 14.9841C16.803 14.7219 16.7022 14.4693 16.5201 14.2807L10.2271 7.98771Z" fill="#7B7B7B"/>
</svg>
