<svg width="119" height="33" viewBox="0 0 119 33" fill="none" xmlns="http://www.w3.org/2000/svg">
<g clip-path="url(#clip0_2001_481)">
<path d="M51.0624 21.8936V17.6746H52.8161V21.8936H59.1931V23.3709H45.8899V21.8936H51.0659H51.0624ZM56.3199 19.5046V12.9831H46.9598V11.4758H58.1232V19.5046H56.3234H56.3199Z" fill="#222222"/>
<path d="M63.5756 17.1122V15.8479H65.2301V17.1122H69.2193V15.8479H70.8737V17.1122H73.8745V18.543H60.5713V17.1122H63.572H63.5756ZM70.6647 22.0333C70.6647 22.4392 70.5726 22.8252 70.3884 23.1845C70.2042 23.5439 69.9562 23.8566 69.6409 24.1228C69.3397 24.3957 68.9783 24.6153 68.5638 24.7783C68.1458 24.9413 67.7065 25.0212 67.2424 25.0212C66.7783 25.0212 66.3354 24.938 65.9103 24.7783C65.4887 24.6153 65.1202 24.3957 64.8085 24.1228C64.5073 23.86 64.2629 23.5472 64.0787 23.1845C63.8944 22.8252 63.8023 22.4392 63.8023 22.0333C63.8023 21.6274 63.8944 21.2447 64.0787 20.8821C64.2629 20.5227 64.5073 20.2033 64.8085 19.9305C65.1238 19.6576 65.4887 19.4413 65.9103 19.2816C66.3319 19.1252 66.7747 19.0454 67.2424 19.0454C67.71 19.0454 68.1493 19.1252 68.5638 19.2816C68.9783 19.438 69.3397 19.6543 69.6409 19.9305C69.9526 20.2033 70.2042 20.5227 70.3884 20.8821C70.5726 21.2414 70.6647 21.6274 70.6647 22.0333ZM70.6328 13.0596C70.6328 13.4655 70.5407 13.8482 70.3565 14.2009C70.1723 14.5569 69.9243 14.873 69.609 15.1458C69.3185 15.4087 68.9642 15.6249 68.5532 15.7847C68.1422 15.9477 67.7065 16.0275 67.2388 16.0275C66.7712 16.0275 66.3319 15.9477 65.9174 15.7847C65.4993 15.6216 65.145 15.4087 64.8545 15.1458C64.5428 14.873 64.2912 14.5569 64.107 14.2009C63.9228 13.8449 63.8307 13.4655 63.8307 13.0596C63.8307 12.6537 63.9228 12.2844 64.107 11.925C64.2912 11.5657 64.5392 11.2462 64.8545 10.9734C65.145 10.7105 65.5029 10.4976 65.9174 10.3346C66.3319 10.1715 66.7747 10.0917 67.2388 10.0917C67.7029 10.0917 68.1422 10.1749 68.5532 10.3346C68.9642 10.4976 69.3149 10.7105 69.609 10.9734C69.9243 11.2462 70.1723 11.5657 70.3565 11.925C70.5407 12.2844 70.6328 12.6637 70.6328 13.0596ZM68.911 22.0033C68.911 21.5775 68.7481 21.2115 68.4186 20.9153C68.0891 20.6159 67.6923 20.4661 67.2247 20.4661C66.757 20.4661 66.3638 20.6159 66.0414 20.9153C65.7154 21.2148 65.556 21.5775 65.556 22.0033C65.556 22.4292 65.719 22.7952 66.0414 23.1014C66.3673 23.4075 66.7606 23.5572 67.2247 23.5572C67.6888 23.5572 68.0856 23.4041 68.4186 23.1014C68.7481 22.7952 68.911 22.4326 68.911 22.0033ZM68.8792 13.0596C68.8792 12.6537 68.7162 12.2977 68.3938 11.9916C68.0714 11.6854 67.6781 11.5357 67.2247 11.5357C66.7712 11.5357 66.385 11.6888 66.0662 11.9916C65.7473 12.2977 65.5879 12.6537 65.5879 13.0596C65.5879 13.4655 65.7473 13.8382 66.0662 14.141C66.385 14.4471 66.7712 14.5968 67.2247 14.5968C67.6781 14.5968 68.0678 14.4438 68.3938 14.141C68.7197 13.8382 68.8792 13.4755 68.8792 13.0596Z" fill="#222222"/>
<path d="M88.6658 21.8802V23.3742H75.3625V21.8802H81.1054V18.6062H76.4325V11.3693H78.2322V17.1122H87.8049V18.6062H82.9052V21.8802H88.6658Z" fill="#222222"/>
<path d="M96.0877 16.8361V15.5717H91.4148V10.9401H102.592V12.3709H93.2003V14.1543H102.628V15.5717H97.891V16.8361H103.652V18.2668H90.3484V16.8361H96.0913H96.0877ZM100.552 21.8037C100.552 22.2296 100.456 22.6355 100.268 23.0148C100.077 23.3941 99.8254 23.7235 99.5136 23.9964C99.177 24.2792 98.798 24.5055 98.3693 24.6752C97.9406 24.8415 97.4836 24.928 96.9982 24.928C96.5129 24.928 96.0558 24.8448 95.6272 24.6752C95.1985 24.5088 94.8194 24.2825 94.4828 23.9964C94.1711 23.7235 93.916 23.3941 93.7282 23.0148C93.5369 22.6355 93.4448 22.2296 93.4448 21.8037C93.4448 21.3778 93.5404 20.9719 93.7282 20.5926C93.916 20.2133 94.1675 19.8839 94.4828 19.611C94.8194 19.3282 95.1985 19.102 95.6272 18.9323C96.0558 18.7659 96.5093 18.6794 96.9982 18.6794C97.4871 18.6794 97.9406 18.7626 98.3693 18.9323C98.798 19.0986 99.177 19.3249 99.5136 19.611C99.8289 19.8839 100.08 20.2133 100.268 20.5926C100.456 20.9719 100.552 21.3778 100.552 21.8037ZM98.8157 21.7738C98.8157 21.3079 98.6385 20.9087 98.2807 20.5793C97.9229 20.2499 97.4978 20.0835 96.9982 20.0835C96.4987 20.0835 96.0736 20.2499 95.7157 20.5793C95.3579 20.9087 95.1808 21.3079 95.1808 21.7738C95.1808 22.2396 95.3579 22.6389 95.7157 22.9616C96.0736 23.2843 96.4987 23.4474 96.9982 23.4474C97.4978 23.4474 97.9229 23.2843 98.2807 22.9616C98.6385 22.6355 98.8157 22.2396 98.8157 21.7738Z" fill="#222222"/>
<path d="M105.501 19.3715H118.804V20.8654H113.044V24.3691H111.244V20.8654H105.501V19.3715ZM108.339 12.7302H115.949V11.01H117.734V17.5481H106.571V11.01H108.339V12.7302ZM115.949 14.1909H108.339V16.0642H115.949V14.1909Z" fill="#222222"/>
<path d="M27.928 15.748C24.8776 13.7982 20.9664 14.5935 18.9151 17.5248C17.2004 19.9737 14.6142 20.2765 13.6115 20.2765C10.3486 20.2765 8.11312 18.1204 7.45062 15.8878C7.44353 15.8645 7.43999 15.8479 7.4329 15.8246C7.42582 15.7979 7.41873 15.7747 7.41164 15.748C7.15302 14.8164 7.08925 14.3705 7.08925 13.3823C7.08925 8.04537 12.9172 2.10284 21.3171 2.10284C29.7171 2.10284 34.8365 8.25166 36.1048 11.6688C36.0835 11.6089 36.0623 11.549 36.041 11.4858C33.6 4.8046 26.851 0 18.908 0C8.91025 0 0.800781 7.61283 0.800781 17.0057C0.800781 25.4005 7.24868 32.5874 16.1907 32.5874C23.3224 32.5874 28.1158 28.8309 30.3158 23.6537C31.5204 20.8221 30.6666 17.4949 27.928 15.748Z" fill="#003863"/>
<path d="M36.2181 12.0015C35.1624 8.6676 30.2024 2.1062 21.3207 2.1062C12.9207 2.1062 7.09277 8.04873 7.09277 13.3857C7.09277 14.3739 7.15654 14.8198 7.41517 15.7514C7.30534 15.3455 7.24866 14.9362 7.24866 14.5369C7.24866 8.98037 13.1758 5.12737 19.2658 5.12737C27.5135 5.12737 34.1952 11.406 34.1952 19.1485C34.1952 25.2208 30.4752 30.4713 25.0725 32.9967C32.0376 30.631 37.0153 24.3657 37.0153 17.0058C37.0153 15.2656 36.7673 13.7284 36.2181 12.0015Z" fill="#E4032E"/>
</g>
<defs>
<clipPath id="clip0_2001_481">
<rect width="118" height="33" fill="white" transform="translate(0.800781)"/>
</clipPath>
</defs>
</svg>
