<svg width="125" height="18" viewBox="0 0 125 18" fill="none" xmlns="http://www.w3.org/2000/svg">
<rect width="125" height="18" fill="#1E1E1E"/>
<g id="sub02_01_&#235;&#141;&#176;&#236;&#157;&#180;&#237;&#132;&#176;&#237;&#131;&#144;&#237;&#151;&#152;&#234;&#176;&#128;" clip-path="url(#clip0_2001_8)">
<rect width="1920" height="8800" transform="translate(-1026 -716)" fill="white"/>
<g id="Group 73">
<g id="Isolation_Mode" clip-path="url(#clip1_2001_8)">
<path id="Vector" d="M0.800781 0.148193V17.8518H12.0235V13.9727H4.85876V10.8637H10.9786V6.98635H4.85876V4.02724H12.0235V0.148193H0.800781Z" fill="url(#paint0_linear_2001_8)"/>
<path id="Vector_2" d="M22.1552 0.148193V11.5366C22.1552 12.3645 21.9531 13.0017 21.5522 13.4497C21.1497 13.8978 20.6092 14.1226 19.929 14.1226C19.2489 14.1226 18.6969 13.8944 18.3173 13.4395C17.9378 12.9847 17.7489 12.3492 17.7489 11.5366V0.148193H13.6909V11.6354C13.6909 13.5417 14.3004 15.0903 15.5228 16.2845C16.6958 17.4276 18.1662 18 19.9274 18C21.6886 18 23.1771 17.4122 24.3912 16.2351C25.6036 15.0579 26.2115 13.5264 26.2115 11.6354V0.148193H22.1535H22.1552Z" fill="url(#paint1_linear_2001_8)"/>
<path id="Vector_3" d="M34.073 0C33.1447 0 32.3003 0.170358 31.5347 0.50937C30.7691 0.850085 30.0856 1.34242 29.4827 1.98978C28.6924 2.83646 28.1913 3.9046 27.9761 5.19762C27.8677 5.84497 27.8135 7.11244 27.8135 9.0017C27.8135 10.891 27.8759 12.0784 27.9991 12.8075C28.2143 14.1175 28.7089 15.1857 29.4827 16.0153C30.7181 17.3407 32.2493 18.0034 34.073 18.0034C35.7109 18.0034 37.0713 17.5315 38.1539 16.586C39.3138 15.5758 40.0383 14.1244 40.3324 12.2351H36.2054C36.051 12.8143 35.8341 13.2555 35.5565 13.552C35.2016 13.9336 34.7137 14.1244 34.096 14.1244C33.3846 14.1244 32.8506 13.8756 32.4974 13.3782C32.2641 13.046 32.1031 12.6116 32.0095 12.0733C31.9175 11.5349 31.8715 10.5128 31.8715 9.0017C31.8715 7.49063 31.9257 6.51959 32.0341 5.93186C32.1425 5.34412 32.2904 4.91652 32.4744 4.65077C32.66 4.38671 32.8835 4.1908 33.1464 4.06814C33.4092 3.94378 33.7263 3.88075 34.0976 3.88075C34.7318 3.88075 35.2246 4.07155 35.5811 4.45315C35.844 4.73424 36.0527 5.17376 36.2071 5.77002H40.3341C40.04 3.88075 39.3155 2.4293 38.1556 1.41908C37.0581 0.475298 35.6978 0.00170358 34.0746 0.00170358L34.073 0Z" fill="url(#paint2_linear_2001_8)"/>
<path id="Vector_4" d="M45.598 0.148193H41.54V17.8518H52.5294V13.9727H45.598V0.148193Z" fill="url(#paint3_linear_2001_8)"/>
<path id="Vector_5" d="M58.0265 0.148193H53.9685V17.8501H58.0265V0.148193Z" fill="url(#paint4_linear_2001_8)"/>
<path id="Vector_6" d="M72.2968 3.99146C72.0093 3.20271 71.5855 2.50765 71.0203 1.90288C70.4568 1.29811 69.7996 0.853474 69.0488 0.572384C68.298 0.28959 67.4683 0.148193 66.5565 0.148193H60.4351V17.8501H66.5565C67.4371 17.8501 68.2651 17.7053 69.039 17.4157C69.8111 17.1243 70.4683 16.6899 71.0088 16.109C71.7662 15.2964 72.2607 14.385 72.494 13.3731C72.6468 12.7121 72.724 11.6831 72.724 10.2913V7.72911C72.724 6.02213 72.5827 4.77511 72.2968 3.98806V3.99146ZM68.5872 11.8722C68.5329 12.3271 68.4097 12.7053 68.2159 13.0017C68.022 13.3015 67.7706 13.5366 67.4634 13.7104C67.1529 13.8841 66.7586 13.971 66.2805 13.971H64.4947V4.02724H66.2805C66.775 4.02724 67.1743 4.11071 67.4749 4.27596C67.7756 4.44291 68.0204 4.67289 68.206 4.97102C68.3917 5.26915 68.5149 5.65586 68.5757 6.12605C68.6381 6.59964 68.6693 7.55535 68.6693 8.99828C68.6693 10.4412 68.643 11.4157 68.5888 11.8722H68.5872Z" fill="url(#paint5_linear_2001_8)"/>
<path id="Vector_7" d="M84.6679 9.4719C84.313 9.14141 83.9105 8.87906 83.462 8.68996C83.0135 8.50086 82.4122 8.34584 81.6532 8.22999L79.8443 7.93357C79.4106 7.8501 78.9949 7.72062 78.5924 7.54856C78.1899 7.37309 77.8646 7.17889 77.6182 6.96253C77.122 6.49916 76.8772 5.81943 76.8772 4.92505C76.8772 3.91483 77.1828 3.11415 77.794 2.52642C78.4051 1.93698 79.2578 1.64396 80.3553 1.64396C81.1899 1.64396 81.9127 1.77173 82.5239 2.02897C83.1334 2.28621 83.6953 2.6627 84.2062 3.16015L85.3415 1.94209C84.6153 1.24533 83.8777 0.749585 83.1268 0.451459C82.3777 0.153333 81.4774 0.00341797 80.4259 0.00341797C78.8027 0.00341797 77.5163 0.458273 76.5651 1.36969C75.6138 2.2811 75.139 3.49234 75.139 5.00001C75.139 6.41057 75.5563 7.51108 76.3909 8.30665C77.1023 8.97105 78.1143 9.41739 79.4287 9.64907L81.3525 9.97275C81.9407 10.0716 82.3843 10.1806 82.6865 10.2964C82.9872 10.4123 83.2616 10.586 83.5096 10.8177C84.0337 11.3152 84.2982 12.0528 84.2982 13.0307C84.2982 14.0579 83.9499 14.862 83.255 15.4412C82.56 16.0222 81.6088 16.3118 80.4013 16.3118C79.4434 16.3118 78.6203 16.167 77.9336 15.8774C77.2452 15.5877 76.5684 15.0852 75.9046 14.3731L74.6987 15.6661C75.5021 16.5281 76.3285 17.1329 77.1795 17.4804C78.0289 17.8279 79.0886 18.0017 80.3553 18.0017C82.1017 18.0017 83.4883 17.5503 84.5167 16.6474C85.5452 15.7445 86.0594 14.5213 86.0594 12.9796C86.0594 11.4378 85.5961 10.3186 84.6679 9.47361V9.4719Z" fill="#414042"/>
<path id="Vector_8" d="M97.4052 1.83986C96.2601 0.613288 94.8555 0 93.1863 0C91.5171 0 90.1091 0.613288 88.9656 1.83986C88.1163 2.75128 87.6201 3.98807 87.4821 5.54514C87.4361 6.09199 87.4131 7.24361 87.4131 9.0017C87.4131 11.1227 87.4936 12.6559 87.6562 13.6014C87.8189 14.5468 88.2559 15.4003 88.9656 16.1618C90.1091 17.3884 91.5171 18.0017 93.1863 18.0017C94.8555 18.0017 96.2618 17.3884 97.4052 16.1618C98.2546 15.2504 98.7491 14.0153 98.8888 12.4566C98.9364 11.9097 98.9578 10.7581 98.9578 9.0017C98.9578 6.88075 98.8888 5.42078 98.7491 4.62692C98.5635 3.53322 98.115 2.60477 97.4052 1.84157V1.83986ZM96.9994 13.0647C96.868 13.8194 96.5476 14.4787 96.0367 15.0426C95.2793 15.8876 94.3281 16.3083 93.1846 16.3083C92.0412 16.3083 91.0883 15.8876 90.3325 15.0426C89.8216 14.4957 89.5012 13.8365 89.3698 13.0647C89.2384 12.293 89.1726 10.9387 89.1726 9C89.1726 7.06133 89.2384 5.68995 89.3698 4.93526C89.5012 4.18228 89.8232 3.523 90.3325 2.95911C91.0883 2.11414 92.0395 1.69165 93.1846 1.69165C94.3297 1.69165 95.2793 2.11414 96.0367 2.95911C96.5476 3.50596 96.868 4.16525 96.9994 4.93526C97.1309 5.70698 97.1966 7.06133 97.1966 9C97.1966 10.9387 97.1309 12.3101 96.9994 13.0647Z" fill="#414042"/>
<path id="Vector_9" d="M101.401 17.8518H103.164V10.0443H110.399V8.35437H103.164V1.81434H111.651V0.12439H101.401V17.8518Z" fill="#414042"/>
<path id="Vector_10" d="M113.486 0.12439V1.81434H118.262V17.8518H120.025V1.81434H124.801V0.12439H113.486Z" fill="#414042"/>
</g>
</g>
</g>
<defs>
<linearGradient id="paint0_linear_2001_8" x1="0.74604" y1="9.21201" x2="72.7085" y2="9.21201" gradientUnits="userSpaceOnUse">
<stop stop-color="#2E3192"/>
<stop offset="1" stop-color="#00AEEF"/>
</linearGradient>
<linearGradient id="paint1_linear_2001_8" x1="0.736074" y1="9.18986" x2="72.5636" y2="9.18986" gradientUnits="userSpaceOnUse">
<stop stop-color="#2E3192"/>
<stop offset="1" stop-color="#00AEEF"/>
</linearGradient>
<linearGradient id="paint2_linear_2001_8" x1="0.736207" y1="9.17796" x2="72.5637" y2="9.17796" gradientUnits="userSpaceOnUse">
<stop stop-color="#2E3192"/>
<stop offset="1" stop-color="#00AEEF"/>
</linearGradient>
<linearGradient id="paint3_linear_2001_8" x1="0.714946" y1="9.16601" x2="72.6774" y2="9.16601" gradientUnits="userSpaceOnUse">
<stop stop-color="#2E3192"/>
<stop offset="1" stop-color="#00AEEF"/>
</linearGradient>
<linearGradient id="paint4_linear_2001_8" x1="0.881025" y1="9.1115" x2="72.5735" y2="9.1115" gradientUnits="userSpaceOnUse">
<stop stop-color="#2E3192"/>
<stop offset="1" stop-color="#00AEEF"/>
</linearGradient>
<linearGradient id="paint5_linear_2001_8" x1="0.749926" y1="8.99998" x2="72.655" y2="8.99998" gradientUnits="userSpaceOnUse">
<stop stop-color="#2E3192"/>
<stop offset="1" stop-color="#00AEEF"/>
</linearGradient>
<clipPath id="clip0_2001_8">
<rect width="1920" height="8800" fill="white" transform="translate(-1026 -716)"/>
</clipPath>
<clipPath id="clip1_2001_8">
<rect width="124" height="18" fill="white" transform="translate(0.800781)"/>
</clipPath>
</defs>
</svg>
