<svg width="110" height="33" viewBox="0 0 110 33" fill="none" xmlns="http://www.w3.org/2000/svg">
<g clip-path="url(#clip0_2001_491)">
<path d="M36.5585 0H2.05069C1.36071 0 0.800781 0.532928 0.800781 1.19044V8.30018V13.6796C0.800781 14.3371 1.36071 14.8701 2.05069 14.8701H14.8496C15.0374 14.8701 15.2216 14.9099 15.3914 14.9877L18.7636 16.5329C19.1068 16.6903 19.506 16.6903 19.8474 16.5329L23.2196 14.9877C23.3894 14.9099 23.5736 14.8701 23.7615 14.8701H36.5603C37.2503 14.8701 37.8102 14.3371 37.8102 13.6796V1.19044C37.8102 0.532928 37.2503 0 36.5603 0H36.5585Z" fill="#315146"/>
<path d="M31.9888 9.61003L31.8642 9.75018C31.0026 10.7105 29.9622 11.1759 28.6852 11.1759C27.5383 11.1759 26.5756 10.8212 25.826 10.1205C25.0674 9.41105 24.6989 8.54937 24.6989 7.48697C24.6989 6.79313 24.8687 6.15984 25.2028 5.60442C25.537 5.05073 26.0156 4.60432 26.6261 4.27556C27.2366 3.94508 27.9104 3.77897 28.6274 3.77897C29.2849 3.77897 29.8972 3.90701 30.4445 4.1579C30.99 4.40879 31.4668 4.78254 31.8569 5.27048L31.9816 5.4262L33.049 4.64065L32.9334 4.48666C32.4602 3.85856 31.8443 3.36197 31.1037 3.01418C30.365 2.6664 29.5269 2.49164 28.6148 2.49164C27.1012 2.49164 25.8224 2.9692 24.8127 3.90874C23.803 4.85175 23.29 6.02834 23.29 7.40565C23.29 8.71201 23.7127 9.84362 24.5454 10.7711C25.5406 11.8698 26.9133 12.4252 28.6274 12.4252C29.5269 12.4252 30.3542 12.2608 31.0839 11.9338C31.8172 11.6068 32.4385 11.1379 32.928 10.5409L33.0563 10.3835L31.9888 9.6083V9.61003Z" fill="#F8E7B7"/>
<path d="M22.1811 8.31577C22.0204 7.98356 21.7946 7.69633 21.5074 7.46447C21.2979 7.29491 21.0252 7.14091 20.691 7.00422C20.9511 6.81735 21.1606 6.59587 21.3178 6.34325C21.5417 5.98335 21.6555 5.57846 21.6555 5.1407C21.6555 4.67352 21.5273 4.24095 21.2726 3.8551C21.0179 3.46925 20.6639 3.18029 20.225 2.99342C19.7915 2.81001 19.1973 2.72003 18.4079 2.72003H12.8936L13.5167 4.00217H18.5633C19.1756 4.00217 19.6199 4.10772 19.8854 4.31362C20.1419 4.51434 20.2647 4.78426 20.2647 5.1407C20.2647 5.41063 20.1871 5.65113 20.0299 5.87261C19.871 6.09409 19.6615 6.25327 19.3869 6.35709C19.1015 6.46437 18.6373 6.51974 18.007 6.51974H14.7413L15.3789 7.8261H18.0015C18.7836 7.8261 19.3345 7.86071 19.6398 7.93165C20.0769 8.03374 20.4237 8.22061 20.6711 8.4888C20.915 8.75527 21.0342 9.05807 21.0342 9.41624C21.0342 9.7 20.9493 9.95608 20.7759 10.2018C20.6007 10.4475 20.3767 10.624 20.0877 10.7399C19.7915 10.8593 19.3056 10.9199 18.6428 10.9199H16.8853L17.5085 12.202H19.1431C20.1293 12.202 20.9312 11.9286 21.5237 11.3922C22.1197 10.8524 22.4232 10.181 22.4232 9.40066C22.4232 9.01481 22.3419 8.65145 22.1829 8.32096L22.1811 8.31577Z" fill="#F8E7B7"/>
<path d="M10.9734 2.61273H10.3359L5.55298 12.3075H7.31585L10.6483 5.5646L12.3895 9.14456L13.9682 12.3075H15.6931L10.9734 2.61273Z" fill="#EA9224"/>
<path d="M11.4538 30.479C11.2208 31.0015 10.8975 31.441 10.482 31.7975C10.0666 32.1539 9.5717 32.4221 8.99732 32.602C8.42294 32.7837 7.79257 32.8737 7.10801 32.8737H0.820557V17.9811H6.86778C8.3236 17.9811 9.46874 18.3445 10.3068 19.0695C11.1431 19.7945 11.5622 20.7911 11.5622 22.0612C11.5622 22.466 11.5007 22.8381 11.3761 23.1806C11.2515 23.5232 11.0925 23.8295 10.8957 24.1012C10.6988 24.3728 10.4766 24.6029 10.2292 24.7915C9.98171 24.9801 9.72703 25.122 9.46513 25.2207C9.77038 25.3331 10.0612 25.4888 10.3393 25.6913C10.6157 25.8937 10.8631 26.1342 11.0817 26.4128C11.3003 26.6914 11.4755 27.0202 11.6055 27.3956C11.7374 27.7728 11.8024 28.1985 11.8024 28.6708C11.8024 29.3543 11.685 29.9564 11.4538 30.4807V30.479ZM8.50603 20.5541C8.04002 20.1924 7.42952 20.0108 6.67271 20.0108H3.17768V24.2776H6.67091C7.42771 24.2776 8.03822 24.096 8.50422 23.7343C8.97023 23.3727 9.20323 22.8415 9.20323 22.1442C9.20323 21.4469 8.97023 20.9174 8.50422 20.5541H8.50603ZM8.7896 26.9336C8.3525 26.5149 7.72032 26.3055 6.88946 26.3055H3.17768V30.8441H6.88946C7.71851 30.8441 8.3525 30.6313 8.7896 30.2056C9.22671 29.78 9.44526 29.2332 9.44526 28.5636C9.44526 27.8939 9.22671 27.3506 8.7896 26.9319V26.9336Z" fill="#315146"/>
<path d="M24.7946 27.3627C24.7801 27.9406 24.7296 28.4684 24.641 28.9425C24.5543 29.4166 24.408 29.8561 24.2039 30.2609C23.9998 30.6658 23.709 31.0482 23.3297 31.4116C22.7915 31.9272 22.1792 32.3217 21.4964 32.5934C20.8119 32.865 20.0551 33.0017 19.226 33.0017C18.3969 33.0017 17.6437 32.865 16.9664 32.5934C16.2891 32.3217 15.6822 31.9272 15.1439 31.4116C14.7646 31.05 14.4738 30.6658 14.2697 30.2609C14.0656 29.8561 13.9157 29.4183 13.8218 28.9425C13.7279 28.4684 13.6719 27.9424 13.6574 27.3627C13.643 26.7848 13.6357 26.1394 13.6357 25.4283C13.6357 24.7171 13.643 24.0717 13.6574 23.4938C13.6719 22.9159 13.7261 22.3881 13.8218 21.914C13.9157 21.4399 14.0656 21.0005 14.2697 20.5956C14.4738 20.1907 14.7646 19.8083 15.1439 19.4449C15.6822 18.9293 16.2909 18.5348 16.9664 18.2631C17.6437 17.9915 18.3969 17.8548 19.226 17.8548C20.0551 17.8548 20.8119 17.9915 21.4964 18.2631C22.181 18.5348 22.7915 18.9293 23.3297 19.4449C23.7072 19.8083 23.9998 20.1907 24.2039 20.5956C24.408 21.0005 24.5525 21.4399 24.641 21.914C24.7277 22.3881 24.7783 22.9142 24.7946 23.4938C24.809 24.0717 24.8163 24.7171 24.8163 25.4283C24.8163 26.1394 24.809 26.7848 24.7946 27.3627ZM22.4248 23.5561C22.4031 23.0612 22.3598 22.6425 22.293 22.3016C22.2279 21.9608 22.1322 21.6735 22.0094 21.4434C21.8848 21.2133 21.7294 21.0005 21.5398 20.8049C21.2634 20.5264 20.9238 20.3032 20.5247 20.1353C20.1237 19.9675 19.692 19.8844 19.226 19.8844C18.76 19.8844 18.3265 19.9675 17.9273 20.1353C17.5263 20.3032 17.1886 20.5264 16.9122 20.8049C16.7226 21.0005 16.5654 21.2133 16.4426 21.4434C16.318 21.6735 16.2241 21.959 16.159 22.3016C16.094 22.6442 16.0507 23.0612 16.0272 23.5561C16.0055 24.0509 15.9947 24.6756 15.9947 25.4283C15.9947 26.1809 16.0055 26.8056 16.0272 27.3004C16.0489 27.7953 16.0922 28.214 16.159 28.5549C16.2241 28.8975 16.3198 29.183 16.4426 29.4131C16.5654 29.6432 16.7226 29.8561 16.9122 30.0516C17.1886 30.3302 17.5263 30.5534 17.9273 30.7212C18.3283 30.889 18.76 30.9721 19.226 30.9721C19.692 30.9721 20.1237 30.889 20.5247 30.7212C20.9256 30.5534 21.2634 30.3302 21.5398 30.0516C21.7294 29.8561 21.8848 29.6432 22.0094 29.4131C22.1322 29.183 22.2279 28.8975 22.293 28.5549C22.358 28.214 22.4013 27.7953 22.4248 27.3004C22.4465 26.8056 22.4573 26.1809 22.4573 25.4283C22.4573 24.6756 22.4465 24.0509 22.4248 23.5561Z" fill="#315146"/>
<path d="M37.8065 27.3627C37.7921 27.9406 37.7415 28.4684 37.653 28.9425C37.5663 29.4166 37.42 29.8561 37.2159 30.2609C37.0118 30.6658 36.721 31.0482 36.3417 31.4116C35.8034 31.9272 35.1911 32.3217 34.5084 32.5934C33.8238 32.865 33.067 33.0017 32.238 33.0017C31.4089 33.0017 30.6557 32.865 29.9784 32.5934C29.301 32.3217 28.6942 31.9272 28.1559 31.4116C27.7766 31.05 27.4858 30.6658 27.2817 30.2609C27.0776 29.8561 26.9295 29.4183 26.8337 28.9425C26.738 28.4684 26.6838 27.9424 26.6694 27.3627C26.6549 26.7848 26.6477 26.1394 26.6477 25.4283C26.6477 24.7171 26.6549 24.0717 26.6694 23.4938C26.6838 22.9159 26.738 22.3881 26.8337 21.914C26.9277 21.4399 27.0776 21.0005 27.2817 20.5956C27.4858 20.1907 27.7766 19.8083 28.1559 19.4449C28.6942 18.9293 29.3028 18.5348 29.9784 18.2631C30.6557 17.9915 31.4089 17.8548 32.238 17.8548C33.067 17.8548 33.8238 17.9915 34.5084 18.2631C35.1929 18.5348 35.8034 18.9293 36.3417 19.4449C36.7192 19.8083 37.0118 20.1907 37.2159 20.5956C37.42 21.0005 37.5645 21.4399 37.653 21.914C37.7397 22.3881 37.7903 22.9142 37.8065 23.4938C37.821 24.0717 37.8282 24.7171 37.8282 25.4283C37.8282 26.1394 37.821 26.7848 37.8065 27.3627ZM35.4368 23.5561C35.4151 23.0612 35.3717 22.6425 35.3049 22.3016C35.2399 21.9608 35.1442 21.6735 35.0213 21.4434C34.8967 21.2133 34.7414 21.0005 34.5517 20.8049C34.2754 20.5264 33.9358 20.3032 33.5366 20.1353C33.1356 19.9675 32.704 19.8844 32.238 19.8844C31.772 19.8844 31.3385 19.9675 30.9393 20.1353C30.5383 20.3032 30.2005 20.5264 29.9242 20.8049C29.7345 21.0005 29.5774 21.2133 29.4546 21.4434C29.3299 21.6735 29.236 21.959 29.171 22.3016C29.106 22.6442 29.0626 23.0612 29.0391 23.5561C29.0175 24.0509 29.0066 24.6756 29.0066 25.4283C29.0066 26.1809 29.0175 26.8056 29.0391 27.3004C29.0608 27.7953 29.1042 28.214 29.171 28.5549C29.236 28.8975 29.3317 29.183 29.4546 29.4131C29.5774 29.6432 29.7345 29.8561 29.9242 30.0516C30.2005 30.3302 30.5383 30.5534 30.9393 30.7212C31.3403 30.889 31.772 30.9721 32.238 30.9721C32.704 30.9721 33.1375 30.889 33.5366 30.7212C33.9376 30.5534 34.2754 30.3302 34.5517 30.0516C34.7414 29.8561 34.8967 29.6432 35.0213 29.4131C35.1442 29.183 35.2399 28.8975 35.3049 28.5549C35.3699 28.214 35.4133 27.7953 35.4368 27.3004C35.4584 26.8056 35.4693 26.1809 35.4693 25.4283C35.4693 24.6756 35.4584 24.0509 35.4368 23.5561Z" fill="#315146"/>
<path d="M45.055 20.0108V32.8737H42.6979V20.0108H38.4189V17.9811H49.3357V20.0108H45.0568H45.055Z" fill="#315146"/>
<path d="M60.3718 30.3855C60.0449 30.9583 59.6367 31.4393 59.149 31.8286C58.6614 32.2196 58.1086 32.5121 57.4891 32.7076C56.8696 32.9031 56.2121 33 55.5131 33C54.6985 33 53.9489 32.8633 53.2644 32.5917C52.5798 32.32 51.9693 31.9255 51.431 31.4099C51.0517 31.0482 50.7609 30.6641 50.5568 30.2592C50.3527 29.8543 50.2028 29.4166 50.1089 28.9408C50.015 28.4667 49.959 27.9407 49.9445 27.361C49.9301 26.7831 49.9229 26.1377 49.9229 25.4265C49.9229 24.7154 49.9301 24.07 49.9445 23.4921C49.959 22.9142 50.0132 22.3864 50.1089 21.9123C50.2028 21.4382 50.3527 20.9987 50.5568 20.5939C50.7609 20.189 51.0517 19.8066 51.431 19.4432C51.9693 18.9276 52.5816 18.5331 53.2644 18.2614C53.9489 17.9898 54.6985 17.8531 55.5131 17.8531C56.9545 17.8531 58.1701 18.2441 59.1599 19.0245C60.1497 19.8048 60.7819 20.9416 61.06 22.4332H58.6577C58.4681 21.6805 58.1159 21.0662 57.5993 20.5921C57.0827 20.118 56.3873 19.881 55.5149 19.881C55.0489 19.881 54.619 19.9606 54.2271 20.1215C53.8333 20.2824 53.4992 20.5022 53.2228 20.7807C53.0332 20.9763 52.876 21.1891 52.7532 21.4192C52.6286 21.6493 52.5346 21.9348 52.4696 22.2774C52.4046 22.62 52.3558 23.0405 52.3269 23.5423C52.298 24.044 52.2836 24.6721 52.2836 25.4248C52.2836 26.1775 52.298 26.8056 52.3269 27.3074C52.3558 27.8092 52.4028 28.2313 52.4696 28.5722C52.5346 28.9148 52.6304 29.2003 52.7532 29.4304C52.876 29.6606 53.0332 29.8734 53.2228 30.0689C53.4992 30.3475 53.8333 30.5672 54.2271 30.7281C54.6208 30.8891 55.0489 30.9686 55.5149 30.9686C56.3891 30.9686 57.0863 30.7316 57.6101 30.2575C58.1339 29.7834 58.4898 29.1692 58.6794 28.4165H61.06C60.9282 29.1553 60.7006 29.8111 60.3718 30.3821V30.3855Z" fill="#315146"/>
<path d="M93.6208 32.8737V22.9176L90.0408 30.1762H88.2942L84.6258 22.9176V32.8737H82.2668V17.9811H84.6258L89.1666 27.2468L93.6208 17.9811H95.9797V32.8737H93.6208Z" fill="#315146"/>
<path d="M109.45 24.3088C109.217 24.859 108.883 25.3331 108.446 25.7311C108.009 26.1291 107.485 26.4422 106.875 26.6724C106.264 26.9025 105.58 27.0167 104.823 27.0167H101.286V32.8737H98.9272V17.9811H104.823C105.58 17.9811 106.264 18.0953 106.875 18.3255C107.485 18.5556 108.011 18.8688 108.446 19.2667C108.883 19.6647 109.217 20.1423 109.45 20.6994C109.683 21.2566 109.799 21.857 109.799 22.4989C109.799 23.1409 109.681 23.7568 109.45 24.3088ZM106.689 20.6596C106.186 20.2271 105.52 20.0108 104.691 20.0108H101.284V24.968H104.691C105.52 24.968 106.186 24.7552 106.689 24.3296C107.191 23.9039 107.442 23.2948 107.442 22.4989C107.442 21.703 107.191 21.0905 106.689 20.6579V20.6596Z" fill="#315146"/>
<path d="M71.5252 13.9963L73.382 10.3904L72.441 9.94568L70.9382 12.8612L69.4662 10.001L68.5233 10.4475L70.353 13.998L60.6121 32.8737H64.7682L70.94 20.9191L77.1101 32.8737H81.268L71.5252 13.9963Z" fill="#F3981D"/>
</g>
<defs>
<clipPath id="clip0_2001_491">
<rect width="109" height="33" fill="white" transform="translate(0.800781)"/>
</clipPath>
</defs>
</svg>
