<svg width="60" height="60" viewBox="0 0 60 60" fill="none" xmlns="http://www.w3.org/2000/svg">
<g clip-path="url(#clip0_194_1426)">
<path d="M59.2534 30.7246C59.2534 46.8928 46.1467 60 29.9785 60C13.8103 60 0.703125 46.8928 0.703125 30.7246C0.703125 14.5564 13.8103 1.44971 29.9785 1.44971C46.1467 1.44971 59.2534 14.5564 59.2534 30.7246Z" fill="#FDD33A"/>
<path d="M30.2974 22.5898H15.5391C8.80399 22.5898 3.34424 28.0496 3.34424 34.7847C3.34424 39.6566 6.2016 43.8612 10.3315 45.8145C11.99 46.5991 13.0539 48.2626 13.0539 50.0973V52.7134C13.0539 53.7082 14.3393 54.1046 14.8991 53.2829L17.7881 49.0458C18.6697 47.7531 20.1332 46.9795 21.6978 46.9795H30.2974C37.0324 46.9795 42.4922 41.5197 42.4922 34.7847C42.4917 28.0496 37.032 22.5898 30.2974 22.5898Z" fill="#F8FAFD"/>
<path d="M14.9916 45.8145C10.8616 43.8612 8.00427 39.6566 8.00427 34.7847C8.00427 28.0496 13.464 22.5898 20.1991 22.5898H15.5391C8.80399 22.5898 3.34424 28.0496 3.34424 34.7847C3.34424 39.6566 6.20114 43.8612 10.3311 45.8145C11.99 46.5991 13.0534 48.2626 13.0534 50.0973V52.7134C13.0534 53.7082 14.3388 54.1046 14.8991 53.2829L17.637 49.2669C17.3697 47.7728 16.3951 46.4782 14.9916 45.8145Z" fill="#DDDDDD"/>
<path d="M16.9147 35.0174C16.9147 36.2607 15.9072 37.2687 14.6639 37.2687C13.4206 37.2687 12.4126 36.2607 12.4126 35.0174C12.4126 33.7741 13.4206 32.7661 14.6639 32.7661C15.9072 32.7661 16.9147 33.7741 16.9147 35.0174Z" fill="#7956BA"/>
<path d="M25.1696 35.0174C25.1696 36.2607 24.1616 37.2687 22.9183 37.2687C21.675 37.2687 20.667 36.2607 20.667 35.0174C20.667 33.7741 21.675 32.7661 22.9183 32.7661C24.1616 32.7661 25.1696 33.7741 25.1696 35.0174Z" fill="#7956BA"/>
<path d="M33.4239 35.0174C33.4239 36.2607 32.416 37.2687 31.1727 37.2687C29.9294 37.2687 28.9214 36.2607 28.9214 35.0174C28.9214 33.7741 29.9294 32.7661 31.1727 32.7661C32.416 32.7661 33.4239 33.7741 33.4239 35.0174Z" fill="#7956BA"/>
<path d="M29.5649 0H44.3228C51.0579 0 56.5176 5.45975 56.5176 12.1948C56.5176 17.0668 53.6607 21.2709 49.5308 23.2246C47.8718 24.0092 46.8084 25.6728 46.8084 27.5075V30.1236C46.8084 31.1179 45.523 31.5147 44.9627 30.6931L42.0738 26.4555C41.1926 25.1628 39.7291 24.3896 38.164 24.3896H29.5649C22.8299 24.3896 17.3701 18.9299 17.3701 12.1948C17.3701 5.45975 22.8299 0 29.5649 0Z" fill="#F84E82"/>
<path d="M43.183 22.8365H34.5834C27.8483 22.8365 22.3886 17.3763 22.3886 10.6417C22.3886 6.20181 24.7616 2.31631 28.3084 0.183594C22.1638 0.812561 17.3701 6.0036 17.3701 12.3143C17.3701 19.0494 22.8299 24.5092 29.5649 24.5092H38.1645C39.7291 24.5092 41.1926 25.2828 42.0738 26.5755L44.9627 30.8126C45.523 31.6342 46.8084 31.2378 46.8084 30.2431V27.627C46.8084 26.8131 47.0186 26.033 47.3967 25.3482L47.0923 24.9028C46.2111 23.6096 44.7476 22.8365 43.183 22.8365Z" fill="#DD3A71"/>
<path d="M47.4498 12.428C47.4498 13.6713 46.4418 14.6793 45.1985 14.6793C43.9553 14.6793 42.9473 13.6713 42.9473 12.428C42.9473 11.1848 43.9553 10.1768 45.1985 10.1768C46.4418 10.1768 47.4498 11.1848 47.4498 12.428Z" fill="#F8FAFD"/>
<path d="M39.195 12.428C39.195 13.6713 38.1874 14.6793 36.9442 14.6793C35.7009 14.6793 34.6929 13.6713 34.6929 12.428C34.6929 11.1848 35.7009 10.1768 36.9442 10.1768C38.1874 10.1768 39.195 11.1848 39.195 12.428Z" fill="#F8FAFD"/>
<path d="M30.9406 12.428C30.9406 13.6713 29.9326 14.6793 28.6893 14.6793C27.446 14.6793 26.438 13.6713 26.438 12.428C26.438 11.1848 27.446 10.1768 28.6893 10.1768C29.9326 10.1768 30.9406 11.1848 30.9406 12.428Z" fill="#F8FAFD"/>
</g>
<defs>
<clipPath id="clip0_194_1426">
<rect width="60" height="60" fill="white"/>
</clipPath>
</defs>
</svg>
