<svg width="60" height="60" viewBox="0 0 60 60" fill="none" xmlns="http://www.w3.org/2000/svg">
<path d="M6.91402 46.1717C6.91402 46.1717 4.10152 27.8904 4.3359 27.4217C4.57027 26.9529 26.25 15.7029 27.8906 15.3514C29.5312 14.9998 54.0234 19.8045 54.8437 20.2733C55.664 20.742 54.7265 39.6092 54.375 40.4295C54.0234 41.2498 31.0546 54.1404 29.6484 54.2576C28.2421 54.3748 8.32027 47.4608 6.91402 46.1717Z" fill="#009BC5"/>
<path d="M25.8398 23.0273L15.7515 21.2575C11.7642 23.3116 7.83983 25.3858 5.79248 26.532C6.42229 27.0217 7.14163 27.3837 7.91015 27.5977C10.1367 28.1836 20.1676 27.0703 20.1676 27.0703C21.8782 26.6602 28.0664 26.1914 33.0507 23.8647C38.0349 21.5379 41.3086 18.2227 41.3086 18.2227L33.3398 20.2148L25.8398 23.0273Z" fill="#005E9B"/>
<path d="M54.375 40.4299C54.7266 39.6096 55.6641 20.7424 54.8438 20.2736C54.8258 20.264 54.8073 20.2556 54.7882 20.2485C48.9001 22.0048 29.1211 33.34 29.1211 33.34L26.7773 51.2697C26.7773 51.2697 26.7774 52.2589 26.8695 53.5829C28.3406 54.0224 29.3666 54.2815 29.6484 54.258C31.0547 54.1408 54.0234 41.2502 54.375 40.4299Z" fill="#62C4DE"/>
<path d="M12.4534 25.6226C11.5606 26.1161 10.6678 26.6097 9.77496 27.1032C9.52292 27.2425 9.27088 27.3819 9.01885 27.5212C8.95283 27.5577 9.01186 27.6589 9.07798 27.6224C9.9708 27.1288 10.8636 26.6353 11.7564 26.1417C12.0084 26.0024 12.2605 25.8631 12.5125 25.7238C12.5785 25.6873 12.5195 25.586 12.4534 25.6226Z" fill="white"/>
<path d="M14.5068 25.4963C13.5031 26.0661 12.4994 26.6359 11.4958 27.2057C11.212 27.3668 10.9283 27.5279 10.6445 27.689C10.6317 27.6971 10.6225 27.7099 10.6189 27.7247C10.6153 27.7394 10.6175 27.755 10.6252 27.7682C10.6329 27.7813 10.6453 27.7909 10.66 27.795C10.6746 27.7991 10.6903 27.7974 10.7037 27.7902C11.7074 27.2204 12.7111 26.6505 13.7147 26.0807C13.9985 25.9196 14.2822 25.7586 14.566 25.5975C14.5788 25.5893 14.588 25.5766 14.5916 25.5618C14.5952 25.547 14.5929 25.5314 14.5853 25.5183C14.5776 25.5052 14.5651 25.4955 14.5505 25.4914C14.5359 25.4873 14.5202 25.4891 14.5068 25.4963Z" fill="white"/>
<path d="M29.0626 33.2812C28.3595 32.9297 4.33602 27.4219 4.33602 27.4219C4.33602 27.4219 4.33128 27.4606 4.32252 27.5333C4.29251 29.1312 6.91415 46.1719 6.91415 46.1719C8.3204 47.4609 28.2423 54.375 29.6485 54.2578C29.6485 54.2578 29.7657 33.6328 29.0626 33.2812Z" fill="#005E9B"/>
<path d="M29.2968 23.2031C29.2968 23.2031 28.0077 22.6172 27.6562 22.6172C27.3046 22.6172 13.7109 28.9453 13.1476 29.3763C12.7131 29.7087 13.3539 43.0098 13.6695 49.0732C15.1923 49.642 16.8458 50.2388 18.4935 50.8167C18.1698 45.1821 17.4139 31.4728 17.6839 30.8279C18.0241 30.0151 29.2968 23.2031 29.2968 23.2031Z" fill="#FFC956"/>
<path d="M28.0455 23.396L24.0088 24.2076C21.9439 25.15 19.3578 26.3534 17.2246 27.3645C18.509 27.2327 21.6679 26.8781 24.1977 26.3461C25.8511 25.3086 27.4258 24.3426 28.3767 23.7625C28.2945 23.6176 28.1814 23.4925 28.0455 23.396Z" fill="#F69812"/>
<path d="M18.4936 50.8169C18.17 45.1822 17.4141 31.473 17.6841 30.828C17.6889 30.8179 17.6944 30.8081 17.7005 30.7988L13.0963 29.4966C12.7695 30.8754 13.368 43.2788 13.6697 49.0733C15.1925 49.6422 16.846 50.2389 18.4936 50.8169Z" fill="#F69812"/>
<path d="M44.4481 24.9307C43.8281 24.4922 28.4766 22.6172 28.4766 22.6172L27.4219 23.7891C27.4219 23.7891 40.1953 27.2102 40.5469 27.1988C40.8537 27.1889 41.5174 43.7854 41.6815 48.0132C42.7218 47.4326 43.7648 46.8457 44.7814 46.2687C44.8348 41.4982 44.9766 25.3045 44.4481 24.9307Z" fill="#FFC956"/>
<path d="M27.727 23.4499L27.4219 23.7889C27.4219 23.7889 28.8638 24.1751 30.7913 24.6874C31.9773 24.3786 33.5042 23.8471 34.6996 23.4068C32.3828 23.1032 30.2768 22.8397 29.2105 22.7075C28.6977 22.9166 28.2017 23.1647 27.727 23.4499Z" fill="#F69812"/>
<path d="M27.5391 23.203C27.5391 23.203 32.4609 5.15615 39.1406 3.7499C45.8203 2.34365 49.8047 6.79677 48.75 10.8983C47.6953 14.9999 37.2656 24.1405 27.5391 23.203Z" fill="#FFC956"/>
<path d="M27.422 23.7893C27.422 23.7893 13.711 30.8205 6.44539 23.3205C-0.820237 15.8205 5.85945 11.133 12.6563 12.0705C19.4532 13.008 26.4845 21.3283 27.422 23.7893Z" fill="#FFC956"/>
<path d="M27.5391 23.2032C27.5391 23.2032 38.7891 20.8594 41.6016 15C44.4141 9.14066 41.9531 3.51566 38.3203 5.39066C34.6875 7.26566 28.7109 20.1563 27.5391 23.2032Z" fill="#F69812"/>
<path d="M27.0702 23.5548C27.0702 23.5548 14.5312 26.3673 9.84366 21.4455C5.15616 16.5236 7.96866 12.422 13.3593 13.3595C18.7499 14.297 25.8983 21.0939 27.0702 23.5548Z" fill="#F69812"/>
<path d="M25.7093 24.4271C25.7093 24.4271 24.8597 22.4853 25.8306 21.8784C26.8016 21.2716 28.6221 20.9075 28.9861 21.1502C29.3502 21.393 30.6853 22.8494 30.0784 23.5776C29.4716 24.3057 25.952 25.2767 25.7093 24.4271Z" fill="#FFC956"/>
<path d="M47.2362 8.84949C47.0732 10.424 46.5217 11.9333 45.6312 13.2419C45.3791 13.6123 45.1007 13.9642 44.7981 14.2947C44.7473 14.3502 44.83 14.4333 44.881 14.3775C45.9667 13.1866 46.7378 11.7434 47.1245 10.1789C47.2319 9.74169 47.3084 9.29745 47.3534 8.84949C47.3609 8.77452 47.2437 8.77504 47.2362 8.84949Z" fill="white"/>
<path d="M45.7353 9.28804C45.7466 10.2527 45.5233 11.2057 45.0846 12.0648C45.0503 12.1319 45.1514 12.1912 45.1858 12.124C45.6346 11.2467 45.8634 10.2734 45.8525 9.28804C45.8519 9.27286 45.8455 9.25846 45.8346 9.24791C45.8237 9.23735 45.8091 9.23145 45.7939 9.23145C45.7787 9.23145 45.7641 9.23735 45.7531 9.24791C45.7422 9.25846 45.7358 9.27286 45.7353 9.28804Z" fill="white"/>
<path d="M44.162 9.01551C44.1334 9.83211 44.1048 10.6487 44.0762 11.4653C44.0736 11.5407 44.1908 11.5406 44.1934 11.4653C44.222 10.6487 44.2506 9.8321 44.2792 9.01551C44.2819 8.94009 44.1647 8.94019 44.162 9.01551Z" fill="white"/>
<path d="M38.0266 7.61105C35.9533 9.76559 34.2269 12.2287 32.9089 14.9126C32.5405 15.663 32.2054 16.4284 31.9034 17.2089C31.8761 17.2793 31.9894 17.3097 32.0164 17.24C33.0925 14.4665 34.5917 11.8764 36.4607 9.5619C36.9829 8.91567 37.5325 8.293 38.1095 7.6939C38.1618 7.63956 38.079 7.55658 38.0266 7.61105Z" fill="white"/>
<path d="M37.9528 9.07647C37.3875 9.79524 36.846 10.5319 36.3284 11.2865C35.8119 12.0405 35.3207 12.811 34.855 13.5982C34.59 14.046 34.3336 14.4987 34.0857 14.9563C34.0498 15.0227 34.1509 15.0819 34.1869 15.0155C34.6203 14.2159 35.0796 13.4312 35.5647 12.6612C36.0497 11.8919 36.5598 11.1392 37.0949 10.403C37.4006 9.98257 37.7142 9.56799 38.0357 9.15932C38.0818 9.1007 37.9994 9.01721 37.9528 9.07647Z" fill="white"/>
<path d="M38.1115 10.9628C37.5518 11.5751 37.1016 12.2792 36.7806 13.0441C36.6891 13.2623 36.6087 13.4847 36.5393 13.7111C36.517 13.7834 36.6301 13.8143 36.6523 13.7423C36.9609 12.7406 37.4876 11.8197 38.1944 11.0457C38.2452 10.9901 38.1626 10.907 38.1115 10.9628Z" fill="white"/>
<path d="M39.2775 11.3395C38.9466 12.0661 38.6156 12.7927 38.2847 13.5193C38.2536 13.5874 38.3546 13.647 38.3859 13.5784C38.7168 12.8518 39.0477 12.1252 39.3787 11.3986C39.4097 11.3305 39.3088 11.2709 39.2775 11.3395Z" fill="white"/>
<path d="M12.2354 24.9059C11.0511 24.5724 9.92317 24.0643 8.88869 23.3983C7.85969 22.7374 6.93189 21.9309 6.1342 21.0039C5.68354 20.4795 5.27831 19.9178 4.92292 19.3247C4.9148 19.3118 4.90201 19.3026 4.88723 19.299C4.87246 19.2954 4.85687 19.2977 4.84374 19.3054C4.83061 19.3131 4.82098 19.3255 4.81687 19.3402C4.81277 19.3548 4.81451 19.3705 4.82174 19.3839C5.46083 20.447 6.25469 21.409 7.17718 22.2382C8.09871 23.0688 9.13648 23.7605 10.2577 24.2915C10.885 24.5881 11.5361 24.8314 12.2042 25.0189C12.219 25.0224 12.2346 25.0201 12.2477 25.0123C12.2608 25.0046 12.2704 24.9921 12.2744 24.9774C12.2784 24.9628 12.2766 24.9471 12.2694 24.9338C12.2621 24.9204 12.2499 24.9104 12.2354 24.9059Z" fill="white"/>
<path d="M9.6971 22.6766C8.85337 22.2326 8.09076 21.6492 7.44149 20.951C7.25575 20.7511 7.08008 20.5424 6.91449 20.325C6.86939 20.2658 6.76759 20.3241 6.8133 20.3841C7.3995 21.155 8.11185 21.8212 8.92021 22.3545C9.15232 22.5073 9.39157 22.6484 9.63795 22.7777C9.70464 22.8128 9.76394 22.7117 9.6971 22.6766Z" fill="white"/>
<path d="M5.74546 18.5964C5.56291 18.2643 5.38037 17.9323 5.19784 17.6002C5.16148 17.5341 5.06026 17.5931 5.09663 17.6593C5.27919 17.9914 5.46174 18.3235 5.64428 18.6555C5.68061 18.7216 5.78184 18.6626 5.74546 18.5964Z" fill="white"/>
<path d="M24.9529 21.6795C24.2579 20.8433 23.4773 20.0821 22.6239 19.4084C21.2963 18.357 19.8067 17.5283 18.2135 16.9544C18.1424 16.9288 18.1118 17.042 18.1823 17.0674C20.7898 18.0091 23.0985 19.6299 24.87 21.7624C24.9183 21.8204 25.0008 21.7371 24.9529 21.6795Z" fill="white"/>
<path d="M23.3227 21.5868C22.2047 20.5331 21.0143 19.559 19.7601 18.6717C19.4073 18.4222 19.0496 18.1797 18.687 17.9442C18.6236 17.903 18.5648 18.0044 18.6279 18.0454C19.9078 18.8769 21.1279 19.797 22.2792 20.799C22.6051 21.0828 22.9254 21.3731 23.2398 21.6697C23.2947 21.7214 23.3777 21.6387 23.3227 21.5868Z" fill="white"/>
<path d="M21.8635 22.0262C21.0511 21.4078 20.2387 20.7894 19.4262 20.171C19.1941 19.9943 18.962 19.8176 18.7299 19.6409C18.6699 19.5953 18.6114 19.697 18.6707 19.7421C19.4831 20.3605 20.2956 20.9789 21.108 21.5973L21.8044 22.1274C21.8643 22.1731 21.9228 22.0713 21.8635 22.0262Z" fill="white"/>
<path d="M20.5738 22.3281C19.6665 21.7535 18.7593 21.1788 17.8521 20.6041C17.7882 20.5636 17.7294 20.665 17.793 20.7053C18.7002 21.28 19.6074 21.8546 20.5146 22.4293C20.5785 22.4698 20.6374 22.3684 20.5738 22.3281Z" fill="white"/>
<path d="M27.8852 24.1294C27.6844 23.7308 27.4836 23.3321 27.2828 22.9335C27.2489 22.8661 27.1478 22.9254 27.1816 22.9926C27.3824 23.3913 27.5832 23.7899 27.784 24.1886C27.8179 24.2559 27.919 24.1967 27.8852 24.1294Z" fill="white"/>
<path d="M28.3994 23.6033C28.3124 23.4781 28.2537 23.3354 28.2272 23.1852C28.2008 23.035 28.2073 22.8808 28.2462 22.7334C28.2498 22.7186 28.2474 22.703 28.2397 22.6899C28.232 22.6769 28.2194 22.6673 28.2048 22.6632C28.1901 22.6592 28.1745 22.661 28.1611 22.6683C28.1478 22.6756 28.1378 22.6877 28.1332 22.7022C28.09 22.8647 28.0824 23.0346 28.1109 23.2004C28.1393 23.3661 28.2033 23.5237 28.2982 23.6625C28.3409 23.724 28.4426 23.6655 28.3994 23.6033Z" fill="white"/>
<path d="M29.035 23.6117C28.9413 23.2193 28.8475 22.8269 28.7538 22.4344C28.7362 22.3611 28.6232 22.3922 28.6408 22.4656C28.7345 22.858 28.8283 23.2504 28.922 23.6428C28.9396 23.7162 29.0526 23.6851 29.035 23.6117Z" fill="white"/>
<path d="M14.6479 42.7012C14.5566 40.9577 14.4122 39.218 14.2145 37.4822C14.1037 36.509 13.9763 35.5378 13.8323 34.5688C13.8212 34.4945 13.7083 34.5261 13.7193 34.6C13.9755 36.3266 14.1789 38.0599 14.3294 39.8C14.4794 41.5347 14.5764 43.2728 14.6206 45.0145C14.6453 45.9884 14.6533 46.9626 14.6448 47.937C14.6453 47.9522 14.6517 47.9666 14.6626 47.9771C14.6736 47.9877 14.6882 47.9936 14.7034 47.9936C14.7186 47.9936 14.7332 47.9877 14.7441 47.9771C14.755 47.9666 14.7614 47.9522 14.762 47.937C14.777 46.1911 14.739 44.4458 14.6479 42.7012Z" fill="white"/>
<path d="M15.8147 38.7816C15.8026 38.2652 15.7905 37.7488 15.7783 37.2324C15.7778 37.2172 15.7714 37.2028 15.7605 37.1922C15.7495 37.1817 15.7349 37.1758 15.7197 37.1758C15.7045 37.1758 15.6899 37.1817 15.679 37.1922C15.6681 37.2028 15.6617 37.2172 15.6611 37.2324C15.7037 39.0447 15.7463 40.8571 15.7889 42.6694C15.8011 43.1858 15.8132 43.7023 15.8253 44.2187C15.8259 44.2339 15.8323 44.2482 15.8432 44.2588C15.8541 44.2694 15.8687 44.2753 15.8839 44.2753C15.8991 44.2753 15.9137 44.2694 15.9247 44.2588C15.9356 44.2482 15.942 44.2339 15.9425 44.2187C15.8999 42.4063 15.8573 40.594 15.8147 38.7816Z" fill="white"/>
<path d="M53.8399 23.9257C53.8188 25.4782 53.7727 27.03 53.7017 28.5812C53.6306 30.1321 53.5343 31.6816 53.413 33.2297C53.3448 34.1003 53.2687 34.9703 53.1846 35.8396C53.1774 35.9146 53.2946 35.9142 53.3018 35.8396C53.4511 34.2942 53.5755 32.7467 53.675 31.1971C53.7744 29.6477 53.8487 28.097 53.8979 26.545C53.9256 25.6721 53.9453 24.799 53.9571 23.9257C53.9566 23.9106 53.9502 23.8962 53.9392 23.8856C53.9283 23.875 53.9137 23.8691 53.8985 23.8691C53.8833 23.8691 53.8687 23.875 53.8578 23.8856C53.8468 23.8962 53.8404 23.9106 53.8399 23.9257Z" fill="white"/>
<path d="M52.4922 25.6191C52.4627 27.3505 52.4332 29.082 52.4038 30.8134C52.3955 31.2997 52.3872 31.7861 52.3789 32.2725C52.3794 32.2876 52.3858 32.302 52.3968 32.3126C52.4077 32.3232 52.4223 32.3291 52.4375 32.3291C52.4527 32.3291 52.4673 32.3232 52.4782 32.3126C52.4892 32.302 52.4956 32.2876 52.4961 32.2725C52.5256 30.541 52.555 28.8096 52.5845 27.0782C52.5928 26.5918 52.6011 26.1055 52.6094 25.6191C52.6088 25.6039 52.6024 25.5895 52.5915 25.579C52.5806 25.5684 52.566 25.5625 52.5508 25.5625C52.5356 25.5625 52.521 25.5684 52.51 25.579C52.4991 25.5895 52.4927 25.6039 52.4922 25.6191Z" fill="white"/>
<path d="M51.2613 26.4222C51.272 26.3485 51.1591 26.3166 51.1483 26.3911C50.9777 27.5574 50.9262 28.738 50.9947 29.9147C50.9991 29.9896 51.1163 29.9901 51.1119 29.9147C51.0431 28.7485 51.0931 27.5783 51.2613 26.4222Z" fill="white"/>
<path d="M50.2283 20.1143C48.6048 19.9332 46.9813 19.752 45.3577 19.5709C44.9035 19.5202 44.4493 19.4696 43.9951 19.4189C43.9203 19.4105 43.9209 19.5278 43.9951 19.5361C45.6187 19.7172 47.2422 19.8983 48.8657 20.0795C49.3199 20.1301 49.7741 20.1808 50.2283 20.2315C50.3032 20.2398 50.3026 20.1226 50.2283 20.1143Z" fill="white"/>
<path d="M48.4146 21.2522C47.4315 21.1718 46.4553 21.0234 45.4928 20.808C45.2197 20.7469 44.948 20.6804 44.6775 20.6085C44.6627 20.605 44.6471 20.6074 44.634 20.6151C44.621 20.6228 44.6114 20.6353 44.6073 20.65C44.6033 20.6646 44.6051 20.6803 44.6124 20.6936C44.6197 20.707 44.6318 20.717 44.6463 20.7215C45.6053 20.9756 46.5806 21.1633 47.5654 21.2832C47.8478 21.3176 48.1309 21.3463 48.4146 21.3694C48.4897 21.3755 48.4893 21.2583 48.4146 21.2522Z" fill="white"/>
<path d="M45.5878 22.4711C44.9227 22.3289 44.2576 22.1867 43.5925 22.0445C43.519 22.0287 43.4876 22.1417 43.5614 22.1575C44.2265 22.2997 44.8916 22.4419 45.5567 22.5841C45.6302 22.5999 45.6616 22.4869 45.5878 22.4711Z" fill="white"/>
<path d="M39.4876 29.1887C38.0229 30.0441 36.6033 30.9744 35.2343 31.976C34.851 32.2565 34.4718 32.5425 34.0966 32.8341C34.0371 32.8803 34.1206 32.9627 34.1795 32.9169C35.5118 31.8827 36.8963 30.9176 38.3276 30.0255C38.7304 29.7744 39.1368 29.5292 39.5468 29.2899C39.5596 29.2817 39.5688 29.269 39.5724 29.2542C39.576 29.2394 39.5738 29.2238 39.5661 29.2107C39.5584 29.1976 39.5459 29.1879 39.5313 29.1838C39.5167 29.1797 39.501 29.1815 39.4876 29.1887Z" fill="white"/>
<path d="M34.8905 42.0055C34.7716 42.9792 34.6528 43.9529 34.5339 44.9266C34.4151 45.9003 34.2962 46.874 34.1774 47.8477C34.1099 48.4 34.0425 48.9522 33.9751 49.5045C33.966 49.5792 34.0833 49.5785 34.0923 49.5045C34.2112 48.5308 34.33 47.5571 34.4489 46.5834C34.5677 45.6097 34.6866 44.6359 34.8054 43.6622C34.8729 43.11 34.9403 42.5577 35.0077 42.0055C35.0168 41.9308 34.8995 41.9315 34.8905 42.0055Z" fill="white"/>
<path d="M36.4164 43.0924C36.0862 44.3288 35.9502 45.609 36.0133 46.8872C36.0312 47.2449 36.0657 47.6014 36.1142 47.9563C36.1244 48.0306 36.2374 47.999 36.2272 47.9251C36.0562 46.6727 36.0807 45.4013 36.3002 44.1565C36.3615 43.809 36.438 43.4647 36.5294 43.1235C36.533 43.1087 36.5306 43.0932 36.5229 43.0801C36.5152 43.067 36.5026 43.0574 36.488 43.0534C36.4733 43.0493 36.4577 43.0511 36.4443 43.0584C36.431 43.0657 36.421 43.0779 36.4164 43.0924Z" fill="white"/>
<path d="M25.9926 42.0762C25.9043 40.7504 25.8607 39.4226 25.8616 38.0928C25.8622 37.3417 25.8771 36.5909 25.9063 35.8402C25.9092 35.7648 25.792 35.7649 25.7891 35.8402C25.7374 37.1776 25.7308 38.5158 25.7693 39.8546C25.8081 41.1925 25.8921 42.528 26.0214 43.8611C26.0935 44.6043 26.1797 45.346 26.2799 46.086C26.2899 46.1604 26.4029 46.1287 26.3929 46.0549C26.2146 44.7337 26.0812 43.4075 25.9926 42.0762Z" fill="white"/>
<path d="M27.3697 39.1498C27.3346 38.4916 27.2887 37.8341 27.2319 37.1773C27.2255 37.1027 27.1083 37.102 27.1148 37.1773C27.2147 38.3362 27.281 39.4973 27.3138 40.6606C27.3463 41.8233 27.3449 42.9863 27.3096 44.1496C27.2896 44.8085 27.2587 45.4669 27.2169 46.1248C27.2122 46.2001 27.3294 46.1998 27.3341 46.1248C27.4076 44.9639 27.4474 43.8016 27.4535 42.6378C27.4595 41.4746 27.4315 40.312 27.3697 39.1498Z" fill="white"/>
<path d="M22.6398 38.5021C22.6342 38.4273 22.517 38.4267 22.5227 38.5021C22.5835 39.3085 22.6444 40.1149 22.7052 40.9214C22.7109 40.9961 22.8281 40.9967 22.8224 40.9214C22.7616 40.1149 22.7007 39.3085 22.6398 38.5021Z" fill="white"/>
<path d="M29.2185 26.3113C28.2442 27.0693 27.27 27.8274 26.2957 28.5855C26.0195 28.8003 25.7434 29.0152 25.4672 29.2301C25.4078 29.2764 25.4912 29.3587 25.5501 29.313C26.5243 28.5549 27.4986 27.7968 28.4729 27.0388L29.3014 26.3941C29.3608 26.3479 29.2773 26.2655 29.2185 26.3113Z" fill="white"/>
<path d="M28.9577 28.033C28.1519 28.6186 27.3461 29.2042 26.5403 29.7898C26.4799 29.8337 26.5383 29.9354 26.5995 29.891C27.4053 29.3054 28.211 28.7198 29.0168 28.1342C29.0772 28.0902 29.0188 27.9885 28.9577 28.033Z" fill="white"/>
<path d="M7.54577 40.0014C7.32992 38.4025 7.13166 36.8014 6.951 35.198C6.85001 34.3023 6.75448 33.406 6.66441 32.5092C6.65695 32.4348 6.53969 32.4341 6.54722 32.5092C6.70905 34.1196 6.88839 35.7283 7.08525 37.335C7.28051 38.9275 7.49298 40.5178 7.72265 42.1059C7.85306 43.0075 7.98902 43.9084 8.13054 44.8084C8.14223 44.8827 8.25517 44.8512 8.24356 44.7773C7.99373 43.1879 7.76113 41.5959 7.54577 40.0014Z" fill="white"/>
<path d="M8.93228 38.8655L8.62403 35.7779C8.56588 35.1953 8.50773 34.6127 8.44956 34.0302C8.44214 33.9558 8.32489 33.9551 8.33238 34.0302C8.43511 35.0594 8.53786 36.0886 8.64063 37.1178L8.94885 40.2054C9.00701 40.788 9.06517 41.3705 9.12333 41.9531C9.13075 42.0274 9.24802 42.0282 9.24052 41.9531C9.13777 40.9239 9.03502 39.8947 8.93228 38.8655Z" fill="white"/>
<path d="M10.49 39.7551C10.183 38.7009 10.0589 37.6018 10.1231 36.5056C10.1276 36.4303 10.0103 36.4305 10.0059 36.5056C9.94148 37.6124 10.067 38.7219 10.377 39.7863C10.3816 39.8008 10.3916 39.813 10.4049 39.8202C10.4183 39.8275 10.4339 39.8293 10.4486 39.8253C10.4632 39.8212 10.4757 39.8117 10.4835 39.7986C10.4912 39.7855 10.4936 39.7699 10.49 39.7551Z" fill="white"/>
<path d="M44.0238 36.0151C43.9397 34.8832 43.8556 33.7512 43.7715 32.6193C43.7239 31.978 43.6763 31.3367 43.6286 30.6954C43.6231 30.6207 43.5058 30.6201 43.5114 30.6954C43.5955 31.8274 43.6796 32.9593 43.7637 34.0913L44.016 37.4871C44.0636 38.1284 44.1113 38.7697 44.1589 39.4109C44.1645 39.4857 44.2817 39.4863 44.2761 39.4109C44.192 38.279 44.1079 37.1471 44.0238 36.0151Z" fill="white"/>
<path d="M42.8372 32.0907C42.8366 32.0756 42.8302 32.0612 42.8193 32.0506C42.8084 32.0401 42.7938 32.0342 42.7786 32.0342C42.7634 32.0342 42.7488 32.0401 42.7378 32.0506C42.7269 32.0612 42.7205 32.0756 42.72 32.0907C42.7393 32.8972 42.7586 33.7037 42.7779 34.5102C42.7785 34.5253 42.7849 34.5397 42.7958 34.5503C42.8067 34.5608 42.8213 34.5667 42.8365 34.5667C42.8517 34.5667 42.8663 34.5608 42.8772 34.5503C42.8882 34.5397 42.8946 34.5253 42.8951 34.5102C42.8758 33.7037 42.8565 32.8972 42.8372 32.0907Z" fill="white"/>
<path d="M36.4391 24.8236L32.4303 24.3087C32.0527 24.2602 31.675 24.2117 31.2974 24.1632C31.2228 24.1536 31.2235 24.2708 31.2974 24.2803L35.3062 24.7953L36.4391 24.9408C36.5137 24.9504 36.513 24.8331 36.4391 24.8236Z" fill="white"/>
<path d="M36.1351 23.9155C35.0587 23.9325 33.9833 23.8443 32.924 23.652C32.6255 23.5976 32.3287 23.535 32.0335 23.4642C31.9602 23.4467 31.9289 23.5597 32.0023 23.5772C33.0549 23.8291 34.1295 23.9779 35.2109 24.0216C35.5188 24.0339 35.8269 24.0376 36.1351 24.0327C36.1503 24.0321 36.1647 24.0257 36.1753 24.0148C36.1858 24.0039 36.1917 23.9893 36.1917 23.9741C36.1917 23.9589 36.1858 23.9443 36.1753 23.9333C36.1647 23.9224 36.1503 23.916 36.1351 23.9155Z" fill="white"/>
<path d="M20.9764 27.0698C20.2113 27.6593 19.3683 28.1403 18.4715 28.4989C18.4023 28.5266 18.4325 28.6399 18.5027 28.6119C19.4094 28.2507 20.2617 27.7658 21.0355 27.171C21.0944 27.1256 21.0361 27.0238 20.9764 27.0698Z" fill="white"/>
<path d="M39.1254 31.0655C38.0078 31.7987 36.9481 32.6167 35.9557 33.5122C35.6748 33.7657 35.3996 34.0254 35.13 34.2911C35.0762 34.3441 35.1591 34.4269 35.2129 34.3739C36.1611 33.4396 37.1798 32.5797 38.26 31.8019C38.5636 31.5835 38.8718 31.3717 39.1846 31.1667C39.2474 31.1254 39.1887 31.0239 39.1254 31.0655Z" fill="white"/>
<path d="M4.80469 50.7422C5.12829 50.7422 5.39062 50.4799 5.39062 50.1562C5.39062 49.8326 5.12829 49.5703 4.80469 49.5703C4.48108 49.5703 4.21875 49.8326 4.21875 50.1562C4.21875 50.4799 4.48108 50.7422 4.80469 50.7422Z" fill="#E71A28"/>
<path d="M7.96875 8.55469C9.069 8.55469 9.96094 7.66275 9.96094 6.5625C9.96094 5.46225 9.069 4.57031 7.96875 4.57031C6.8685 4.57031 5.97656 5.46225 5.97656 6.5625C5.97656 7.66275 6.8685 8.55469 7.96875 8.55469Z" fill="#FFC956"/>
<path d="M13.5352 9.84375C13.8911 9.84375 14.1797 9.55518 14.1797 9.19922C14.1797 8.84325 13.8911 8.55469 13.5352 8.55469C13.1792 8.55469 12.8906 8.84325 12.8906 9.19922C12.8906 9.55518 13.1792 9.84375 13.5352 9.84375Z" fill="#FFA1BD"/>
<path d="M33.9844 3.86719C34.3727 3.86719 34.6875 3.55239 34.6875 3.16406C34.6875 2.77574 34.3727 2.46094 33.9844 2.46094C33.596 2.46094 33.2812 2.77574 33.2812 3.16406C33.2812 3.55239 33.596 3.86719 33.9844 3.86719Z" fill="#009BC5"/>
<path d="M54.8438 17.8125C55.2968 17.8125 55.6641 17.4452 55.6641 16.9922C55.6641 16.5391 55.2968 16.1719 54.8438 16.1719C54.3907 16.1719 54.0234 16.5391 54.0234 16.9922C54.0234 17.4452 54.3907 17.8125 54.8438 17.8125Z" fill="#FFA1BD"/>
<path d="M55.0781 47.5781C55.6606 47.5781 56.1328 47.1059 56.1328 46.5234C56.1328 45.9409 55.6606 45.4688 55.0781 45.4688C54.4956 45.4688 54.0234 45.9409 54.0234 46.5234C54.0234 47.1059 54.4956 47.5781 55.0781 47.5781Z" fill="#009BC5"/>
<path d="M45.1172 52.0312C45.3761 52.0312 45.5859 51.8214 45.5859 51.5625C45.5859 51.3036 45.3761 51.0938 45.1172 51.0938C44.8583 51.0938 44.6484 51.3036 44.6484 51.5625C44.6484 51.8214 44.8583 52.0312 45.1172 52.0312Z" fill="#E71A28"/>
<path d="M3.63281 39.0234C4.08586 39.0234 4.45312 38.6562 4.45312 38.2031C4.45312 37.7501 4.08586 37.3828 3.63281 37.3828C3.17977 37.3828 2.8125 37.7501 2.8125 38.2031C2.8125 38.6562 3.17977 39.0234 3.63281 39.0234Z" fill="#167D2D"/>
<path d="M48.3984 56.25C48.9162 56.25 49.3359 55.8303 49.3359 55.3125C49.3359 54.7947 48.9162 54.375 48.3984 54.375C47.8807 54.375 47.4609 54.7947 47.4609 55.3125C47.4609 55.8303 47.8807 56.25 48.3984 56.25Z" fill="#FFC956"/>
<path d="M33.9844 56.6016C34.308 56.6016 34.5703 56.3392 34.5703 56.0156C34.5703 55.692 34.308 55.4297 33.9844 55.4297C33.6608 55.4297 33.3984 55.692 33.3984 56.0156C33.3984 56.3392 33.6608 56.6016 33.9844 56.6016Z" fill="#009BC5"/>
<path d="M19.5703 56.1328C19.9586 56.1328 20.2734 55.818 20.2734 55.4297C20.2734 55.0414 19.9586 54.7266 19.5703 54.7266C19.182 54.7266 18.8672 55.0414 18.8672 55.4297C18.8672 55.818 19.182 56.1328 19.5703 56.1328Z" fill="#FFC956"/>
<path d="M52.6758 5.27344C53.0965 5.27344 53.4375 4.9324 53.4375 4.51172C53.4375 4.09103 53.0965 3.75 52.6758 3.75C52.2551 3.75 51.9141 4.09103 51.9141 4.51172C51.9141 4.9324 52.2551 5.27344 52.6758 5.27344Z" fill="#167D2D"/>
<path d="M47.4609 48.8672L55.4297 56.4844L57.0703 51.9141L47.4609 48.8672Z" fill="#FFA1BD"/>
<path d="M39.8438 51.7969L41.1328 57.7734L43.8281 57.0703L39.8438 51.7969Z" fill="#167D2D"/>
<path d="M11.0156 50.7422L3.86719 55.8984L7.5 58.5938L11.0156 50.7422Z" fill="#009BC5"/>
<path d="M20.9236 12.9171L15.3516 4.33594L19.6875 2.92969L20.9236 12.9171Z" fill="#167D2D"/>
<path d="M27.0703 12.0703V4.21875L30.4688 4.6875L27.0703 12.0703Z" fill="#E71A28"/>
<path d="M49.8047 15L56.4844 10.0781L57.8906 12.5391L49.8047 15Z" fill="#FFC956"/>
</svg>
