<svg width="60" height="60" viewBox="0 0 60 60" fill="none" xmlns="http://www.w3.org/2000/svg">
<path d="M39.0332 23.3244C38.434 23.0154 37.9025 22.6629 37.5102 22.2038C36.7499 21.3148 36.309 20.1393 36.309 18.8461L36.841 14.4758C36.841 12.8288 36.841 11.0531 36.841 10.4653C36.841 4.6394 32.0811 -0.0741886 26.2373 0.000884484C20.486 0.0750421 15.9102 4.86919 15.9102 10.621V14.4754L16.4417 18.8461C16.4417 20.1379 16.0017 21.3139 15.2409 22.2038C14.8482 22.6629 14.3167 23.0149 13.7175 23.3239C11.7468 24.3402 11.2749 30.0398 15.7724 31.2034H36.9737L36.9755 31.2043C41.4763 30.0425 41.0043 24.3406 39.0332 23.3244Z" fill="#935D38"/>
<path d="M36.9727 31.2041L36.9756 31.2047C36.9767 31.2047 36.9779 31.2041 36.979 31.2041H36.9727Z" fill="#7F4D2A"/>
<path d="M18.2837 23.3243C18.8829 23.0153 19.4144 22.6629 19.8071 22.2037C20.5679 21.3138 21.0078 20.1378 21.0078 18.846L20.4764 14.4753V10.6209C20.4764 5.60477 23.9572 1.31782 28.6626 0.253975C27.883 0.0800247 27.0718 -0.00969691 26.2373 0.000831637C20.486 0.0749893 15.9102 4.86914 15.9102 10.6209V14.4753L16.4417 18.846C16.4417 20.1378 16.0017 21.3138 15.2409 22.2037C14.8482 22.6629 14.3167 23.0149 13.7175 23.3239C11.7468 24.3401 11.2749 30.0397 15.7724 31.2033H20.3386C15.8411 30.0397 16.313 24.3401 18.2837 23.3243Z" fill="#7F4D2A"/>
<path d="M21.0585 53.9115H21.1185C21.0612 53.7366 21.0292 53.5507 21.0292 53.3576V33.8308C21.0292 32.8438 21.8367 32.0363 22.8236 32.0363H39.1017L31.913 29.2522C31.1673 28.9634 30.6761 28.2461 30.6761 27.4468V25.3013C29.4694 26.1358 28.0137 26.6256 26.4491 26.6205C24.7458 26.6146 23.2571 26.1252 22.0546 25.3155V27.4473C22.0546 28.2465 21.5639 28.9634 20.8186 29.2522L10.6631 33.1894C10.6631 33.1894 6.44531 34.9235 6.44531 39.7313V50.1889H12.2182C12.9945 50.1889 13.624 50.8184 13.624 51.5947V53.3438C13.624 53.6574 13.878 53.9115 14.1916 53.9115H21.0585Z" fill="#FC5F61"/>
<path d="M10.0434 38.0416C10.0434 35.0584 11.6661 33.2598 12.8989 32.3232L10.6632 33.1898C10.6632 33.1898 6.4458 34.9238 6.4458 39.7317V50.1893H10.0434V38.0416Z" fill="#EF4D55"/>
<path d="M21.0294 34.8866V33.831C21.0294 32.8436 21.8369 32.0362 22.8238 32.0362H33.9035C34.1883 31.49 34.4313 30.9101 34.6273 30.3035L31.9132 29.2525C31.168 28.9636 30.6763 28.2463 30.6763 27.4471V24.6978C29.4701 25.5323 28.014 26.0221 26.4498 26.017C24.7465 26.0115 23.2578 25.5217 22.0553 24.7119V27.4475C22.0553 28.2468 21.5641 28.9636 20.8188 29.2525L18.1162 30.3003C18.7067 32.1337 19.7257 33.7184 21.0294 34.8866Z" fill="#F4BDA4"/>
<path d="M23.0668 29.0556C23.7022 29.0204 24.3266 28.8432 24.8663 28.5059C25.2966 28.2371 25.6367 27.8915 25.6367 27.4475V25.9753C24.2703 25.8426 23.0618 25.3903 22.0552 24.7119V27.4475C22.0552 28.1795 21.6423 28.8419 21.0005 29.1701L23.0668 29.0556Z" fill="#EFA78B"/>
<path d="M19.7378 55.1521H22.8236C21.9433 55.1521 21.2077 54.5094 21.0585 53.6703H14.1916C13.878 53.6703 13.624 53.4158 13.624 53.1022V51.3531C13.624 50.5767 12.9945 49.9478 12.2186 49.9478H6.44531V56.1399C6.44531 58.2717 8.17383 59.9998 10.3056 59.9998H19.72V59.9989C18.7413 59.9892 17.9434 59.1863 17.9434 58.2053V56.9465C17.9434 55.9596 18.7509 55.1521 19.7378 55.1521Z" fill="#F4BDA4"/>
<path d="M10.042 56.3812V49.9478H6.44531V56.1399C6.44531 58.2717 8.17383 59.9998 10.3056 59.9998H12.556C11.0879 59.4537 10.042 58.0396 10.042 56.3812Z" fill="#EFA78B"/>
<path d="M51.7299 55.124H19.6443C18.6519 55.124 17.8394 55.9361 17.8394 56.929V58.1952C17.8394 59.188 18.6519 60.0001 19.6443 60.0001H51.7299C52.7227 60.0001 53.5348 59.188 53.5348 58.1952V56.929C53.5348 55.9361 52.7227 55.124 51.7299 55.124Z" fill="#E0D9D5"/>
<path d="M51.7299 56.7807H19.6443C19.0112 56.7807 18.4523 56.4493 18.13 55.9521C17.9469 56.2346 17.8394 56.5692 17.8394 56.929V58.1952C17.8394 59.1881 18.6519 60.0001 19.6443 60.0001H51.7299C52.7227 60.0001 53.5348 59.1881 53.5348 58.1952V56.929C53.5348 56.5697 53.4272 56.2346 53.2441 55.9521C52.9219 56.4493 52.3634 56.7807 51.7299 56.7807Z" fill="#CEC8C6"/>
<path d="M48.7468 31.7524H22.6277C21.6353 31.7524 20.8228 32.5645 20.8228 33.5574V53.5603C20.8228 54.5532 21.6353 55.3652 22.6277 55.3652H48.7468C49.7396 55.3652 50.5517 54.5532 50.5517 53.5603V33.5574C50.5517 32.5645 49.7396 31.7524 48.7468 31.7524Z" fill="#EDEBED"/>
<path d="M24.3581 53.5603V33.5574C24.3581 32.5645 25.1701 31.7524 26.163 31.7524H22.6277C21.6353 31.7524 20.8228 32.5645 20.8228 33.5574V53.5603C20.8228 54.5532 21.6353 55.3652 22.6277 55.3652H26.163C25.1701 55.3652 24.3581 54.5532 24.3581 53.5603Z" fill="#E0D9D5"/>
<path d="M39.02 41.1163C37.9704 40.8929 36.8695 40.7734 35.7347 40.7734C34.5999 40.7734 33.499 40.8929 32.4489 41.1163C32.2191 41.1653 32.0483 41.3644 32.0479 41.5997V41.6034C32.0479 44.2442 33.4037 46.5673 35.4568 47.9168C35.6253 48.0276 35.8436 48.0276 36.0121 47.9168C38.0651 46.5673 39.421 44.2442 39.421 41.6034C39.421 41.602 39.421 41.6006 39.421 41.5997C39.421 41.3644 39.2503 41.1653 39.02 41.1163Z" fill="#6397D6"/>
<path d="M35.5832 41.6034C35.5832 41.602 35.5832 41.6006 35.5832 41.5997C35.5832 41.3644 35.7539 41.1653 35.9842 41.1163C36.479 41.011 36.9862 40.9295 37.5021 40.8723C36.9239 40.8078 36.3339 40.7734 35.7342 40.7734C34.5994 40.7734 33.4985 40.8929 32.4489 41.1163C32.2186 41.1653 32.0479 41.3644 32.0479 41.5997V41.6034C32.0479 44.2442 33.4037 46.5673 35.4568 47.9168C35.6253 48.0276 35.8436 48.0276 36.0121 47.9168C36.5632 47.5543 37.064 47.1208 37.5021 46.6305C36.3092 45.2957 35.5832 43.5351 35.5832 41.6034Z" fill="#4686C6"/>
<path d="M13.6521 44.2436C13.1394 44.228 12.7188 44.6391 12.7188 45.1486V52.9077C12.7188 53.3288 13.0602 53.6703 13.4814 53.6703H14.5297V45.1866C14.5297 44.6908 14.1479 44.2582 13.6521 44.2436Z" fill="#EF4D55"/>
<path d="M33.8239 13.5958V19.1329C33.8239 19.1874 33.8207 19.24 33.8198 19.294C35.7955 19.6726 37.4407 18.2526 37.4407 16.4449C37.4407 14.6386 35.7978 13.2204 33.8239 13.5958Z" fill="#F4BDA4"/>
<path d="M18.9264 13.5949V19.1325C18.9264 19.187 18.9296 19.2396 18.9305 19.2936C16.9548 19.6722 15.3096 18.2522 15.3096 16.4445C15.3096 14.6382 16.9525 13.2191 18.9264 13.5949Z" fill="#F4BDA4"/>
<path d="M36.3503 14.1845C35.6948 13.6631 34.7999 13.4095 33.8239 13.5954V19.1325C33.8239 19.1865 33.8207 19.2396 33.8198 19.2936C34.7976 19.4808 35.6939 19.2272 36.3503 18.7049V14.1845Z" fill="#EFA78B"/>
<path d="M18.9264 18.7049C18.2562 18.1716 17.836 17.3577 17.836 16.4445C17.836 15.5313 18.2562 14.7178 18.9264 14.1845V13.5949C16.9525 13.2191 15.3096 14.6382 15.3096 16.4445C15.3096 18.2522 16.9548 19.6722 18.9305 19.2936C18.9296 19.2396 18.9264 19.1865 18.9264 19.1325V18.7049Z" fill="#EFA78B"/>
<path d="M30.7547 13.5715C28.758 13.5715 27.0771 12.2353 26.5488 10.4125C26.547 10.4061 26.5447 10.3997 26.5429 10.3933C26.5214 10.3177 26.4541 10.2646 26.3753 10.2646C26.2966 10.2646 26.2293 10.3177 26.2078 10.3933C26.206 10.4001 26.2032 10.4061 26.2014 10.413C25.6649 12.2655 23.9606 13.5715 21.9959 13.5715H18.7852V19.132C18.7852 23.0326 21.8343 26.5981 26.4531 26.6137C30.5849 26.6274 33.9655 23.19 33.9655 19.0583V13.5715H30.7547Z" fill="#F9CBB4"/>
<path d="M23.5917 19.132V13.2676C23.0945 13.4626 22.5562 13.572 21.9959 13.572H18.7852V19.132C18.7852 23.0326 21.8343 26.5986 26.4531 26.6141C27.2693 26.6169 28.0558 26.4832 28.7932 26.2374C25.5866 25.2221 23.5917 22.2869 23.5917 19.132Z" fill="#F4BDA4"/>
</svg>
