<svg width="60" height="60" viewBox="0 0 60 60" fill="none" xmlns="http://www.w3.org/2000/svg">
<g clip-path="url(#clip0_194_1383)">
<path d="M50.1414 26.633C54.0195 22.7691 58.7448 17.582 58.7448 11.5582C58.7448 5.69238 53.9899 0.9375 48.1241 0.9375C42.2583 0.9375 37.5 5.69238 37.5 11.5582C37.5 17.5821 42.2254 22.7692 46.1055 26.6331C42.6232 26.8623 40.05 27.6655 40.05 28.6259C40.05 29.7607 43.6631 30.6803 48.124 30.6803C52.5814 30.6803 56.1981 29.7607 56.1981 28.6259C56.1982 27.6654 53.6244 26.8621 50.1414 26.633Z" fill="#FF826E"/>
<path d="M18.567 53.2922C24.0954 47.7847 30.8308 40.3904 30.8308 31.808C30.8308 25.9729 27.5287 20.9104 22.6883 18.3809L22.6567 18.3807C22.7376 16.952 21.5122 17.3341 21.9632 16.3976C23.759 12.6677 19.6853 12.7456 15.6578 12.8091C12.1327 12.8091 8.18322 14.6424 8.78076 18.1154L8.81557 18.3174C3.90881 20.8248 0.55127 25.923 0.55127 31.808C0.55127 40.3904 7.28662 47.7845 12.8151 53.2922C7.85217 53.6171 4.1815 54.7655 4.1815 56.1327C4.1815 57.7496 9.33635 59.0622 15.691 59.0622C22.0456 59.0622 27.2004 57.7496 27.2004 56.1327C27.2005 54.7656 23.5297 53.6171 18.567 53.2922Z" fill="#FF826E"/>
<path d="M15.691 42.1792C19.7694 42.1792 23.2947 39.8255 24.9887 36.4029V33.1018C24.9887 30.4775 21.6918 28.959 17.875 28.5461V27.0364C19.0872 26.3191 19.9132 25.0256 20.3767 23.6064H21.9082C22.682 23.6064 23.317 22.9742 23.317 22.2004C23.317 21.4785 22.764 20.8802 22.0615 20.8033L22.4972 19.25C23.1901 16.7874 21.4376 17.4889 21.9631 16.3976C23.7588 12.6677 19.6852 12.7456 15.6577 12.8091C12.1326 12.8091 8.18311 14.6424 8.78064 18.1154L9.24576 20.8143C8.57826 20.9228 8.06463 21.5034 8.06463 22.2004C8.06463 22.9742 8.69686 23.6064 9.47064 23.6064H10.9974C11.4566 25.0124 12.2752 26.326 13.5068 27.048V28.5461C9.69014 28.959 6.39307 30.4775 6.39307 33.1018V36.4029C8.08725 39.8255 11.6125 42.1792 15.691 42.1792Z" fill="#FFDBD3"/>
<path d="M26.0621 31.8085C26.0621 28.4791 24.4896 25.512 22.049 23.6147H20.374C19.9101 25.0308 19.085 26.3208 17.875 27.0369V28.5466C21.6918 28.9594 24.9888 30.4779 24.9888 33.1022V36.4078C25.6754 35.0217 26.0621 33.4605 26.0621 31.8085Z" fill="#FFF5B5"/>
<path d="M6.39326 33.1021C6.39326 30.4778 9.69033 28.9593 13.507 28.5465V27.0483C12.2777 26.3276 11.46 25.0177 11.0003 23.6147H9.33291C6.89225 25.5119 5.31982 28.479 5.31982 31.8085C5.31982 33.4605 5.70643 35.0218 6.39314 36.4078L6.39326 33.1021Z" fill="#FFF5B5"/>
<path d="M15.6908 42.1795C19.7693 42.1795 23.2946 39.8257 24.9886 36.4032V33.102C24.9886 30.827 22.5102 29.3835 19.3641 28.7705L18.0222 33.232L15.6894 30.9455L13.3596 33.232L12.0177 28.7705C8.87158 29.3835 6.39307 30.8269 6.39307 33.102V36.4032C8.08713 39.8257 11.6124 42.1795 15.6908 42.1795Z" fill="#B4DD7F"/>
<path d="M19.8934 18.8604C19.8276 18.8556 19.7606 18.8505 19.6929 18.8452C19.7894 19.0126 19.8443 19.2094 19.8421 19.4188L19.8335 20.3831C19.8335 23.4235 18.3514 27.241 15.1807 27.5982C15.3447 27.616 15.5134 27.6254 15.6869 27.6254C19.1947 27.6254 20.8287 23.8059 20.8287 20.7947L20.8374 19.8854C20.8433 19.3483 20.4304 18.8979 19.8934 18.8604Z" fill="#FFD1C7"/>
<path fill-rule="evenodd" clip-rule="evenodd" d="M15.6896 39.8188C16.0823 39.8188 16.4027 39.4982 16.4027 39.1057C16.4027 38.7131 16.0822 38.3926 15.6896 38.3926C15.297 38.3926 14.9766 38.7131 14.9766 39.1057C14.9766 39.4982 15.297 39.8188 15.6896 39.8188Z" fill="#A6D366"/>
<path fill-rule="evenodd" clip-rule="evenodd" d="M15.6896 36.3578C16.0823 36.3578 16.4027 36.0373 16.4027 35.6447C16.4027 35.2521 16.0822 34.9316 15.6896 34.9316C15.297 34.9316 14.9766 35.2521 14.9766 35.6447C14.9766 36.0373 15.297 36.3578 15.6896 36.3578Z" fill="#A6D366"/>
<path d="M13.3599 33.2319L15.6898 30.9454L13.5072 28.5464C12.9993 28.6013 12.501 28.6765 12.0181 28.7706L13.3599 33.2319Z" fill="#A6D366"/>
<path d="M19.3646 28.7706C18.8817 28.6765 18.3834 28.6013 17.8755 28.5464L15.6899 30.9454L18.0227 33.2319L19.3646 28.7706Z" fill="#A6D366"/>
<path d="M15.6865 27.6254C14.8507 27.6254 14.1265 27.4115 13.5068 27.0482V28.5463L15.6895 30.9454L17.875 28.5463V27.0366C17.2491 27.4072 16.5215 27.6254 15.6865 27.6254Z" fill="#FCC9C0"/>
<path d="M9.24584 20.8148C9.31931 20.8028 9.39396 20.795 9.47072 20.795H10.5418C10.5418 17.7233 16.521 18.6124 19.893 18.8607C20.43 18.8982 20.8428 19.3485 20.8371 19.8856L20.8284 20.795H21.9082C21.96 20.795 22.0111 20.7983 22.0615 20.8038L22.4972 19.2505C23.1901 16.7879 21.4377 17.4894 21.963 16.3981C23.7588 12.6682 19.6851 12.7461 15.6576 12.8096C12.1325 12.8096 8.18306 14.6429 8.7806 18.1158L9.24584 20.8148Z" fill="#656D78"/>
<path d="M10.5421 20.7949H9.47096C8.69717 20.7949 8.06494 21.4271 8.06494 22.2009C8.06494 22.9746 8.69717 23.607 9.47096 23.607H10.9977C10.6887 22.6607 10.5421 21.6727 10.5421 20.7949Z" fill="#FCC9C0"/>
<path d="M21.9085 20.7949H20.8287C20.8287 21.7012 20.6795 22.6804 20.377 23.6068H21.9085C22.6821 23.6068 23.3173 22.9746 23.3173 22.2008C23.3174 21.4273 22.6823 20.7949 21.9085 20.7949Z" fill="#FCC9C0"/>
<path d="M21.963 16.3976C23.5783 13.0425 20.4446 12.7684 16.8672 12.7934C16.9499 12.8242 20.1479 14.0494 19.8929 18.8602C20.4298 18.8977 20.8427 19.348 20.8369 19.8851L20.8282 20.7945H21.908C21.9598 20.7945 22.0109 20.7978 22.0613 20.8033L22.497 19.25C23.19 16.7874 21.4376 17.489 21.963 16.3976Z" fill="#5D6875"/>
<path d="M48.1238 0.9375C47.8592 0.9375 47.597 0.947578 47.3372 0.966563C52.8355 1.3691 57.1712 5.95699 57.1712 11.5582C57.1712 18.2387 51.3594 23.8901 47.3369 27.8489C47.6081 28.1156 47.8713 28.3747 48.1239 28.6259C52.1234 24.647 58.7446 18.6888 58.7446 11.5582C58.7445 5.69238 53.9897 0.9375 48.1238 0.9375Z" fill="#F77366"/>
<path fill-rule="evenodd" clip-rule="evenodd" d="M53.0839 45.034C53.5522 45.034 53.9282 45.4134 53.9282 45.8783C53.9282 46.3466 53.5522 46.7227 53.0839 46.7227C52.619 46.7227 52.2396 46.3466 52.2396 45.8783C52.2396 45.4134 52.619 45.034 53.0839 45.034ZM42.6957 45.034C43.1606 45.034 43.5366 45.4134 43.5366 45.8783C43.5366 46.3466 43.1606 46.7227 42.6957 46.7227C42.2274 46.7227 41.8514 46.3466 41.8514 45.8783C41.8514 45.4134 42.2274 45.034 42.6957 45.034ZM46.0695 45.034C46.5378 45.034 46.9139 45.4134 46.9139 45.8783C46.9139 46.3466 46.5378 46.7227 46.0695 46.7227C45.6047 46.7227 45.2252 46.3466 45.2252 45.8783C45.2252 45.4134 45.6047 45.034 46.0695 45.034ZM49.4469 45.034C49.9118 45.034 50.2912 45.4134 50.2912 45.8783C50.2912 46.3466 49.9118 46.7227 49.4469 46.7227C48.982 46.7227 48.6025 46.3466 48.6025 45.8783C48.6025 45.4134 48.982 45.034 49.4469 45.034ZM29.7301 55.2889C30.1984 55.2889 30.5744 55.665 30.5744 56.1333C30.5744 56.5982 30.1984 56.9776 29.7301 56.9776C29.2652 56.9776 28.8857 56.5982 28.8857 56.1333C28.8857 55.6649 29.2651 55.2889 29.7301 55.2889ZM33.1073 55.2889C33.5756 55.2889 33.9516 55.665 33.9516 56.1333C33.9516 56.5982 33.5756 56.9776 33.1073 56.9776C32.6424 56.9776 32.263 56.5982 32.263 56.1333C32.263 55.6649 32.6424 55.2889 33.1073 55.2889ZM36.4846 55.2889C36.9495 55.2889 37.329 55.665 37.329 56.1333C37.329 56.5982 36.9495 56.9776 36.4846 56.9776C36.0198 56.9776 35.6403 56.5982 35.6403 56.1333C35.6403 55.6649 36.0198 55.2889 36.4846 55.2889ZM39.8619 55.2889C40.3268 55.2889 40.7062 55.665 40.7062 56.1333C40.7062 56.5982 40.3268 56.9776 39.8619 56.9776C39.3936 56.9776 39.0175 56.5982 39.0175 56.1333C39.0175 55.6649 39.3936 55.2889 39.8619 55.2889ZM43.2358 55.2889C43.7041 55.2889 44.0802 55.665 44.0802 56.1333C44.0802 56.5982 43.7041 56.9776 43.2358 56.9776C42.7709 56.9776 42.3949 56.5982 42.3949 56.1333C42.3949 55.6649 42.7709 55.2889 43.2358 55.2889ZM46.613 55.2889C47.0813 55.2889 47.4574 55.665 47.4574 56.1333C47.4574 56.5982 47.0813 56.9776 46.613 56.9776C46.1482 56.9776 45.7687 56.5982 45.7687 56.1333C45.7687 55.6649 46.1482 55.2889 46.613 55.2889ZM49.9904 55.2889C50.4553 55.2889 50.8347 55.665 50.8347 56.1333C50.8347 56.5982 50.4553 56.9776 49.9904 56.9776C49.5255 56.9776 49.1461 56.5982 49.1461 56.1333C49.1461 55.6649 49.5255 55.2889 49.9904 55.2889ZM53.3676 55.2889C53.8325 55.2889 54.212 55.665 54.212 56.1333C54.212 56.5982 53.8325 56.9776 53.3676 56.9776C52.8993 56.9776 52.5233 56.5982 52.5233 56.1333C52.5233 55.6649 52.8993 55.2889 53.3676 55.2889ZM56.5638 54.3728C57.0287 54.3728 57.4047 54.7522 57.4047 55.2171C57.4047 55.6854 57.0287 56.0614 56.5638 56.0614C56.0955 56.0614 55.7195 55.6854 55.7195 55.2171C55.7195 54.7522 56.0955 54.3728 56.5638 54.3728ZM58.6045 51.7168C59.0694 51.7168 59.4488 52.0929 59.4488 52.5612C59.4488 53.0261 59.0694 53.4055 58.6045 53.4055C58.1396 53.4055 57.7602 53.0261 57.7602 52.5612C57.7602 52.0928 58.1396 51.7168 58.6045 51.7168ZM58.4062 48.3737C58.8711 48.3737 59.2505 48.7532 59.2505 49.218C59.2505 49.6829 58.8711 50.0624 58.4062 50.0624C57.9379 50.0624 57.5619 49.6829 57.5619 49.218C57.5619 48.753 57.9379 48.3737 58.4062 48.3737ZM56.3313 45.7826C56.7996 45.7826 57.1756 46.162 57.1756 46.6269C57.1756 47.0952 56.7996 47.4713 56.3313 47.4713C55.8664 47.4713 55.487 47.0952 55.487 46.6269C55.487 46.162 55.8664 45.7826 56.3313 45.7826ZM48.1205 34.7004C48.5888 34.7004 48.9649 34.3243 48.9649 33.8561C48.9649 33.3912 48.5888 33.0117 48.1205 33.0117C47.6557 33.0117 47.2796 33.3912 47.2796 33.8561C47.2796 34.3245 47.6557 34.7004 48.1205 34.7004ZM46.8284 37.7085C47.2967 37.7085 47.6728 37.329 47.6728 36.8641C47.6728 36.3959 47.2967 36.0198 46.8284 36.0198C46.3636 36.0198 45.9841 36.3959 45.9841 36.8641C45.9841 37.3291 46.3636 37.7085 46.8284 37.7085ZM43.6289 38.3991C44.0938 38.3991 44.4732 38.023 44.4732 37.5547C44.4732 37.0898 44.0938 36.7104 43.6289 36.7104C43.164 36.7104 42.7845 37.0898 42.7845 37.5547C42.7845 38.023 43.164 38.3991 43.6289 38.3991ZM40.2516 38.3991C40.7165 38.3991 41.096 38.023 41.096 37.5547C41.096 37.0898 40.7165 36.7104 40.2516 36.7104C39.7834 36.7104 39.4073 37.0898 39.4073 37.5547C39.4073 38.023 39.7832 38.3991 40.2516 38.3991ZM36.888 38.5904C37.3563 38.5904 37.7323 38.211 37.7323 37.7461C37.7323 37.2812 37.3563 36.9018 36.888 36.9018C36.4231 36.9018 36.0437 37.2812 36.0437 37.7461C36.0437 38.211 36.4231 38.5904 36.888 38.5904ZM34.2764 40.6243C34.7413 40.6243 35.1207 40.2449 35.1207 39.78C35.1207 39.3151 34.7413 38.9357 34.2764 38.9357C33.8115 38.9357 33.432 39.3151 33.432 39.78C33.432 40.2449 33.8115 40.6243 34.2764 40.6243ZM34.0269 43.9298C34.4952 43.9298 34.8712 43.5538 34.8712 43.0855C34.8712 42.6206 34.4952 42.2412 34.0269 42.2412C33.562 42.2412 33.1825 42.6206 33.1825 43.0855C33.1825 43.5539 33.562 43.9298 34.0269 43.9298ZM36.2145 46.4184C36.6794 46.4184 37.0589 46.0424 37.0589 45.5741C37.0589 45.1092 36.6794 44.7298 36.2145 44.7298C35.7463 44.7298 35.3702 45.1092 35.3702 45.5741C35.3702 46.0424 35.7463 46.4184 36.2145 46.4184ZM39.5782 46.7227C40.043 46.7227 40.4225 46.3466 40.4225 45.8783C40.4225 45.4134 40.043 45.034 39.5782 45.034C39.1099 45.034 38.7338 45.4134 38.7338 45.8783C38.7338 46.3466 39.1099 46.7227 39.5782 46.7227Z" fill="#CFD2D3"/>
<path d="M48.0523 13.6123C47.8467 13.6123 47.6413 13.5354 47.4826 13.3823L45.3258 11.3005C44.9999 10.9859 44.9906 10.4666 45.3052 10.1406C45.6201 9.81473 46.1392 9.80547 46.4651 10.1201L48.0632 11.6625L52.9909 7.0873C53.3229 6.77898 53.8422 6.79844 54.1503 7.13031C54.4586 7.4623 54.4392 7.98133 54.1072 8.28965L48.6106 13.3932C48.4529 13.5394 48.2526 13.6123 48.0523 13.6123Z" fill="#FFD54D"/>
<path d="M48.6103 13.3932C48.4528 13.5395 48.2524 13.6124 48.0522 13.6124C47.8466 13.6124 47.6412 13.5355 47.4825 13.3823L45.3257 11.3006C44.9998 10.986 44.9905 10.4667 45.3051 10.1407C45.6199 9.81481 46.1391 9.80555 46.465 10.1202L48.0631 11.6626L51.7092 8.27731C50.8204 7.30652 49.543 6.69727 48.124 6.69727C45.4372 6.69727 43.2632 8.87473 43.2632 11.5581C43.2632 14.2448 45.4372 16.4223 48.124 16.4223C50.8074 16.4223 52.9848 14.2448 52.9848 11.5581C52.9848 10.8928 52.8506 10.2587 52.6084 9.68109L48.6103 13.3932Z" fill="#FFF5B5"/>
<path d="M22.6886 18.3811L22.6569 18.3809C22.6436 18.617 22.5958 18.9008 22.4976 19.25L22.409 19.5659C26.1896 22.3198 28.6469 26.7758 28.6469 31.8082C28.6469 41.3423 20.3347 49.4101 14.5991 55.0541C14.9752 55.4242 15.3403 55.7839 15.6912 56.1329C21.393 50.462 30.8309 41.9674 30.8309 31.8082C30.831 25.9731 27.5289 20.9106 22.6886 18.3811Z" fill="#F77366"/>
<path d="M21.8851 40.1263V35.1689C21.8851 34.7863 21.5749 34.4761 21.1923 34.4761C20.8096 34.4761 20.4995 34.7863 20.4995 35.1689V40.9972C20.9851 40.7427 21.4486 40.4518 21.8851 40.1263Z" fill="#A6D366"/>
<path d="M10.8798 40.9958V35.1689C10.8798 34.7863 10.5696 34.4761 10.187 34.4761C9.80434 34.4761 9.49414 34.7863 9.49414 35.1689V40.1243C9.93055 40.4499 10.3941 40.741 10.8798 40.9958Z" fill="#A6D366"/>
<path d="M23.7025 38.3924C24.2033 37.7835 24.6356 37.1166 24.9888 36.4031V33.102C24.9888 31.7993 24.1753 30.7698 22.8901 30.0122C23.4067 30.6775 23.7025 31.455 23.7025 32.3449V38.3924Z" fill="#B1D879"/>
<path d="M18.5658 53.2925H18.5247C17.5251 54.2879 16.5654 55.2216 15.6934 56.0892C14.8207 55.2217 13.8605 54.2879 12.8603 53.2925H12.8163C7.85289 53.6172 4.18164 54.7658 4.18164 56.1331C4.18164 57.7499 9.33648 59.0626 15.6911 59.0626C22.0457 59.0626 27.2005 57.7499 27.2005 56.1331C27.2004 54.7658 23.5292 53.6172 18.5658 53.2925Z" fill="#FFD54D"/>
<path d="M18.5661 53.2925H18.525C18.4781 53.3391 18.4318 53.3849 18.3852 53.4313C22.5137 53.8763 25.4137 54.9181 25.4137 56.1331C25.4137 57.6734 20.7352 58.9376 14.7979 59.0539C15.0927 59.0596 15.3907 59.0627 15.6914 59.0627C22.046 59.0627 27.2009 57.7501 27.2009 56.1332C27.2007 54.7658 23.5295 53.6172 18.5661 53.2925Z" fill="#F7C946"/>
<path d="M50.1412 26.6328C49.4287 27.3427 48.7447 28.0081 48.1239 28.6257C47.5027 28.0081 46.8182 27.3429 46.1054 26.6329C42.623 26.8621 40.0498 27.6654 40.0498 28.6257C40.0498 29.7605 43.6629 30.6801 48.1238 30.6801C52.5813 30.6801 56.1979 29.7605 56.1979 28.6257C56.198 27.6652 53.6242 26.8619 50.1412 26.6328Z" fill="#FFD54D"/>
<path d="M50.141 26.6328C50.0997 26.6741 50.0594 26.7137 50.0182 26.7546C52.8 27.0795 54.733 27.7934 54.733 28.6256C54.733 29.6976 51.5056 30.577 47.3911 30.6712C47.6326 30.6767 47.8766 30.68 48.1238 30.68C52.5812 30.68 56.1979 29.7604 56.1979 28.6256C56.1979 27.6652 53.6241 26.8619 50.141 26.6328Z" fill="#F7C946"/>
</g>
<defs>
<clipPath id="clip0_194_1383">
<rect width="60" height="60" fill="white"/>
</clipPath>
</defs>
</svg>
