<svg width="60" height="60" viewBox="0 0 60 60" fill="none" xmlns="http://www.w3.org/2000/svg">
<path fill-rule="evenodd" clip-rule="evenodd" d="M29.9999 49.9403C29.7944 49.9313 29.5914 49.8486 29.435 49.6923L12.9465 33.2038C8.66823 28.9255 8.66823 21.9247 12.9465 17.6465C18.5434 12.0496 25.0852 14.2504 29.9998 19.143C34.9144 14.2504 41.4562 12.0496 47.0531 17.6465C51.3314 21.9247 51.3314 28.9255 47.0531 33.2038L30.5649 49.6921C30.4084 49.8485 30.2055 49.9313 29.9999 49.9403Z" fill="#E33F65"/>
<path fill-rule="evenodd" clip-rule="evenodd" d="M28.2651 48.5224L12.9465 33.2039C8.66823 28.9256 8.66823 21.9248 12.9465 17.6466C14.7341 15.859 16.6181 14.868 18.5147 14.5049C21.3738 15.0268 24.1438 16.7675 26.5301 19.1431C27.0886 18.5872 27.6682 18.0665 28.265 17.5874C28.8617 18.0664 29.4413 18.5872 29.9998 19.1431C32.3861 16.7675 35.1561 15.0268 38.0152 14.5049C39.9118 14.8679 41.7958 15.859 43.5834 17.6466C47.8618 21.9248 47.8617 28.9256 43.5834 33.2039L28.2651 48.5224Z" fill="#FA6E85"/>
<path fill-rule="evenodd" clip-rule="evenodd" d="M30.8005 9.32301C30.8005 9.76509 30.4421 10.1235 30 10.1235C29.5579 10.1235 29.1995 9.76509 29.1995 9.32301V4.78245C29.1995 4.34037 29.5579 3.98193 30 3.98193C30.4421 3.98193 30.8005 4.34037 30.8005 4.78245V9.32301ZM23.8542 8.74905C24.0804 9.12729 23.9573 9.61725 23.5791 9.84357C23.2008 10.0698 22.7109 9.94665 22.4845 9.56841L20.1592 5.66841C19.933 5.29017 20.0561 4.80021 20.4343 4.57389C20.8126 4.34769 21.3025 4.47081 21.5289 4.84905L23.8542 8.74905ZM37.5155 9.56829C37.2893 9.94653 36.7992 10.0698 36.421 9.84345C36.0427 9.61725 35.9195 9.12717 36.1458 8.74893L38.4712 4.84905C38.6974 4.47081 39.1875 4.34757 39.5657 4.57389C39.9439 4.80009 40.0672 5.29017 39.8409 5.66841L37.5155 9.56829Z" fill="#FFBF31"/>
<path fill-rule="evenodd" clip-rule="evenodd" d="M14.0348 28.1009C14.612 27.2351 17.2644 24.025 16.3022 23.1788C15.586 22.549 14.981 23.1002 14.4605 23.5463L11.1594 26.3758H9.7792C9.51148 23.2485 10.5669 20.0264 12.9466 17.6467C13.6595 16.9337 14.3877 16.3477 15.1259 15.8774C15.1692 15.5552 14.9489 15.2223 14.584 15.2006C9.79084 14.9162 6.08116 19.6987 5.21032 23.9659C4.62208 26.8478 4.69768 29.7673 5.40892 32.7014C7.35664 39.7051 7.16704 48.5719 7.13728 56.018H12.8712C12.7595 49.2889 12.0087 35.1453 12.933 30.7213C13.126 29.7974 13.4895 28.9228 14.0348 28.1009Z" fill="#F0B16E"/>
<path fill-rule="evenodd" clip-rule="evenodd" d="M16.9499 45.1063C15.5753 42.0912 15.0465 38.976 15.5001 35.7576L18.701 38.9584L21.1805 34.7348C21.8158 33.7818 22.7119 33.3183 23.3661 33.4041C26.2729 33.7856 20.9338 38.5266 22.6681 42.2218C23.2555 43.4734 24.6089 45.5022 24.8836 46.6488C25.2225 48.0637 25.1407 49.926 25.1407 51.3931V56.0178H19.8251V52.0104C19.8251 50.8242 19.5617 49.8075 18.9856 48.7706L16.9499 45.1063Z" fill="#F0B16E"/>
<path fill-rule="evenodd" clip-rule="evenodd" d="M45.9649 28.1009C45.3877 27.2351 42.7352 24.025 43.6975 23.1788C44.4137 22.549 45.0187 23.1002 45.5391 23.5463L48.8402 26.3758H50.2206C50.4883 23.2485 49.4329 20.0264 47.0532 17.6467C46.3403 16.9337 45.6121 16.3477 44.8739 15.8774C44.8305 15.5552 45.0509 15.2223 45.4158 15.2006C50.2089 14.9162 53.9186 19.6987 54.7896 23.9659C55.3778 26.8478 55.3022 29.7673 54.591 32.7014C52.6433 39.7051 52.8329 48.5719 52.8626 56.018H47.1285C47.2403 49.2889 47.9911 35.1453 47.0667 30.7213C46.8737 29.7974 46.5102 28.9228 45.9649 28.1009Z" fill="#F0B16E"/>
<path fill-rule="evenodd" clip-rule="evenodd" d="M43.0495 45.1063C44.4241 42.0912 44.9529 38.976 44.4993 35.7576L41.2985 38.9584L38.8189 34.7348C38.1836 33.7818 37.2876 33.3183 36.6333 33.4041C33.7266 33.7856 39.0656 38.5266 37.3314 42.2218C36.744 43.4734 35.3905 45.5022 35.1158 46.6488C34.7769 48.0637 34.8588 49.926 34.8588 51.3931V56.0178H40.1743V52.0104C40.1743 50.8242 40.4377 49.8075 41.0138 48.7706L43.0495 45.1063Z" fill="#F0B16E"/>
<path fill-rule="evenodd" clip-rule="evenodd" d="M14.0345 28.1008C14.6117 27.235 17.2642 24.0249 16.3019 23.1786C16.1983 23.0876 16.097 23.0212 15.998 22.9757C15.7227 23.0967 15.4684 23.3333 15.2325 23.5462L12.0955 26.3757C12.0955 26.3757 9.91542 26.3757 9.77898 26.3757C9.51126 23.2484 10.5667 20.0262 12.9464 17.6465C13.6593 16.9336 14.3875 16.3475 15.1257 15.8772C15.1718 15.5338 14.9087 15.2013 14.5869 15.2007C10.4047 15.4565 7.22262 19.9401 6.44178 23.9658C5.8827 26.8478 5.95458 29.7672 6.63054 32.7014C8.48142 39.705 8.3013 48.5718 8.27298 56.018H12.8709C12.7592 49.2888 12.0083 35.1453 12.9327 30.7212C13.1258 29.7972 13.4893 28.9227 14.0345 28.1008Z" fill="#FCD4A9"/>
<path fill-rule="evenodd" clip-rule="evenodd" d="M16.1465 36.404L18.7011 38.9585H19.2624L21.6189 34.7349C22.1244 33.937 22.8035 33.4823 23.3759 33.4058C26.26 33.797 20.9359 38.531 22.6681 42.2219C23.2555 43.4735 24.609 45.5022 24.8837 46.6488C25.2226 48.0638 25.1407 49.926 25.1407 51.3932V56.0178H20.3308V52.0104C20.3308 50.8242 20.0805 49.8076 19.533 48.7707L17.5984 45.1062C16.8748 43.436 16.4111 41.7658 16.201 40.0955C16.0462 38.8652 16.0289 37.6346 16.1465 36.404Z" fill="#FCD4A9"/>
<path fill-rule="evenodd" clip-rule="evenodd" d="M45.9649 28.1008C45.3877 27.235 42.7352 24.0249 43.6975 23.1786C43.8012 23.0876 43.9025 23.0212 44.0015 22.9757C44.2767 23.0967 44.531 23.3333 44.7671 23.5462L47.9041 26.3757H50.2206C50.4883 23.2484 49.4329 20.0262 47.0532 17.6465C46.3403 16.9336 45.6121 16.3475 44.8739 15.8772C44.8278 15.5338 45.0908 15.2013 45.4127 15.2007C49.5949 15.4565 52.7769 19.9401 53.5578 23.9658C54.1169 26.8478 54.045 29.7672 53.369 32.7014C51.5181 39.705 51.6983 48.5718 51.7266 56.018H47.1285C47.2403 49.2888 47.9911 35.1453 47.0667 30.7212C46.8737 29.7972 46.5102 28.9227 45.9649 28.1008Z" fill="#FCD4A9"/>
<path fill-rule="evenodd" clip-rule="evenodd" d="M43.853 36.404L41.2985 38.9585H40.7371L38.3807 34.7349C37.8751 33.937 37.196 33.4823 36.6236 33.4058C33.7395 33.797 39.0636 38.531 37.3314 42.2219C36.744 43.4735 35.3905 45.5022 35.1158 46.6488C34.7769 48.0638 34.8588 49.926 34.8588 51.3932V56.0178H39.6687V52.0104C39.6687 50.8242 39.9191 49.8076 40.4665 48.7707L42.4011 45.1062C43.1247 43.436 43.5884 41.7658 43.7985 40.0955C43.9533 38.8652 43.9706 37.6346 43.853 36.404Z" fill="#FCD4A9"/>
</svg>
