<svg width="60" height="60" viewBox="0 0 60 60" fill="none" xmlns="http://www.w3.org/2000/svg">
<path d="M16.4453 53.5775L20.1185 58.3112C20.7496 58.5383 21.3906 58.7446 22.0413 58.9277L31.7059 55.5568L37.6369 58.9277C38.2876 58.7444 38.9285 58.5382 39.5597 58.3112L45.5514 52.204L51.2401 50.4262C55.7852 45.347 58.5503 38.6412 58.5503 31.2888C58.5503 15.4321 45.6959 2.57764 29.8391 2.57764C13.9823 2.57764 1.12793 15.4322 1.12793 31.2889C1.12793 38.6413 3.89285 45.3471 8.43809 50.4263L16.4453 53.5775Z" fill="#2A428B"/>
<path d="M7.27364 26.65C7.43887 21.6327 11.6403 17.6895 16.6604 17.6895H30.046C35.1364 17.6895 39.3674 21.7429 39.4357 26.8328C39.5049 31.9876 35.3074 36.2275 30.1676 36.2275H20.0751V38.3282C20.0751 39.699 18.4363 40.406 17.4391 39.4653L13.4349 35.6884C9.75954 34.3721 7.13723 30.7924 7.27364 26.65Z" fill="#5071B7"/>
<path d="M16.317 29.2712C17.3917 29.2712 18.2629 28.4 18.2629 27.3253C18.2629 26.2506 17.3917 25.3794 16.317 25.3794C15.2423 25.3794 14.3711 26.2506 14.3711 27.3253C14.3711 28.4 15.2423 29.2712 16.317 29.2712Z" fill="#6289CD"/>
<path d="M22.9703 29.2712C24.045 29.2712 24.9162 28.4 24.9162 27.3253C24.9162 26.2506 24.045 25.3794 22.9703 25.3794C21.8956 25.3794 21.0244 26.2506 21.0244 27.3253C21.0244 28.4 21.8956 29.2712 22.9703 29.2712Z" fill="#6289CD"/>
<path d="M29.6241 29.2712C30.6988 29.2712 31.57 28.4 31.57 27.3253C31.57 26.2506 30.6988 25.3794 29.6241 25.3794C28.5494 25.3794 27.6782 26.2506 27.6782 27.3253C27.6782 28.4 28.5494 29.2712 29.6241 29.2712Z" fill="#6289CD"/>
<path d="M26.736 50.3385C24.6186 50.3385 22.8362 51.9228 22.5877 54.0256L22.0415 58.9274C24.0156 59.4832 26.076 59.8329 28.1979 59.9527L31.7062 55.5565V50.3384H26.736V50.3385Z" fill="#27A6FF"/>
<path d="M44.1853 50.3385C42.0679 50.3385 40.2854 51.9228 40.0371 54.0256L39.5596 58.3109C44.0904 56.6808 48.0921 53.9439 51.2401 50.4259C50.9657 50.3692 50.6821 50.3384 50.3919 50.3384H44.1853V50.3385Z" fill="#FEF156"/>
<path d="M19.641 54.0259C19.3927 51.9231 17.6101 50.3389 15.4928 50.3389H9.28619C8.99604 50.3389 8.71244 50.3696 8.43799 50.4264C11.5859 53.9443 15.5877 56.6812 20.1185 58.3113L19.641 54.0259Z" fill="#FD77A6"/>
<path d="M29.8391 60.0002C32.5419 60.0002 35.1573 59.626 37.6369 58.9278L37.0906 54.0259C36.8423 51.9231 35.0598 50.3389 32.9424 50.3389H31.706C30.1956 50.9044 29.0647 52.2742 28.8656 53.9596L28.1978 59.9532C28.741 59.9838 29.2882 60.0002 29.8391 60.0002Z" fill="#02C0FC"/>
<path d="M16.9347 44.8927C16.9347 47.4028 14.8999 50.3385 12.3897 50.3385C9.87957 50.3385 7.84473 47.4028 7.84473 44.8927C7.84473 42.3825 9.87969 40.3477 12.3897 40.3477C14.8998 40.3475 16.9347 42.3824 16.9347 44.8927Z" fill="#FFAA7B"/>
<path d="M34.5758 44.8927C34.5758 47.4028 32.541 50.3385 30.0308 50.3385C27.5207 50.3385 25.4858 47.4028 25.4858 44.8927C25.4858 42.3825 27.5208 40.3477 30.0308 40.3477C32.541 40.3475 34.5758 42.3824 34.5758 44.8927Z" fill="#EFA29A"/>
<path d="M51.8781 44.8927C51.8781 47.4028 49.8432 50.3385 47.3331 50.3385C44.8229 50.3385 42.7881 47.4028 42.7881 44.8927C42.7881 42.3825 44.823 40.3477 47.3331 40.3477C49.8432 40.3475 51.8781 42.3824 51.8781 44.8927Z" fill="#FFC7AB"/>
<path d="M41.7916 11.1025H36.0942C31.0038 11.1025 26.7728 15.1559 26.7045 20.2459C26.6352 25.4007 30.8329 29.6404 35.9726 29.6404H42.146L46.7583 20.9592L41.7916 11.1025Z" fill="#FFDA4C"/>
<path d="M49.4801 11.1025H41.7919C37.7444 12.1895 34.7046 15.8151 34.6459 20.1864C34.584 24.7925 37.8295 28.6869 42.1461 29.6405H46.0653V31.7412C46.0653 33.1121 47.7041 33.8191 48.7014 32.8784L52.7055 29.1015C56.3809 27.7852 59.0032 24.2054 58.8668 20.063C58.7017 15.0457 54.5002 11.1025 49.4801 11.1025Z" fill="#FEF156"/>
<path d="M35.5239 15.8105C35.0384 15.8105 34.645 16.2039 34.645 16.6895V22.5755C34.645 22.8041 34.5282 23.011 34.3398 23.1154C33.9816 23.3141 33.5631 22.9205 33.553 22.9112C33.5452 22.9029 33.5522 22.9102 33.5439 22.9021L33.3139 22.6774C32.9664 22.3378 32.4101 22.3446 32.0711 22.6918C31.7318 23.0389 31.7383 23.5954 32.0855 23.9347L32.3116 24.1556C32.6628 24.5066 33.3369 24.9366 34.1236 24.9366C34.4646 24.9366 34.827 24.8558 35.1931 24.6525C35.9393 24.2383 36.4029 23.4425 36.4029 22.5755V16.6895C36.4028 16.2041 36.0094 15.8105 35.5239 15.8105Z" fill="#FC51A3"/>
<path d="M52.6588 19.8136C52.9331 19.4043 53.0936 18.9126 53.0936 18.384C53.0936 16.9651 51.939 15.8105 50.52 15.8105H48.3809C47.8954 15.8105 47.502 16.2039 47.502 16.6895V20.0806V20.0861V24.054C47.502 24.2878 47.5951 24.5118 47.7608 24.677C47.9255 24.8409 48.1486 24.9329 48.3809 24.9329H48.3847C48.385 24.9329 50.3516 24.9241 50.8936 24.9241C52.4713 24.9241 53.7547 23.6407 53.7547 22.063C53.7548 21.151 53.3255 20.338 52.6588 19.8136ZM50.52 17.5684C50.9698 17.5684 51.3357 17.9342 51.3357 18.384C51.3357 18.8338 50.9698 19.1997 50.52 19.1997C50.3652 19.1997 50.0759 19.2005 49.759 19.2017H49.2598V17.5684H50.52ZM50.8936 23.1663C50.5935 23.1663 49.8585 23.1689 49.2598 23.1713V20.9614C49.4227 20.9607 49.5926 20.9601 49.7556 20.9595H50.8936C51.5019 20.9595 51.9969 21.4545 51.9969 22.063C51.997 22.6713 51.502 23.1663 50.8936 23.1663Z" fill="#FD77A6"/>
<path d="M41.9782 15.8105C39.4631 15.8105 37.417 17.8566 37.417 20.3717C37.417 22.8868 39.4631 24.9329 41.9782 24.9329C44.4932 24.9329 46.5393 22.8868 46.5393 20.3717C46.5393 17.8566 44.4932 15.8105 41.9782 15.8105ZM41.9782 23.1751C40.4325 23.1751 39.1748 21.9175 39.1748 20.3717C39.1748 18.8259 40.4323 17.5684 41.9782 17.5684C43.5239 17.5684 44.7815 18.8259 44.7815 20.3717C44.7815 21.9175 43.524 23.1751 41.9782 23.1751Z" fill="#FD77A6"/>
<path d="M16.9412 0H13.0876C8.06753 0 3.86612 3.94312 3.70089 8.96051C3.56448 13.103 6.18678 16.6827 9.86213 17.9989L13.8663 21.7759C14.8636 22.7166 16.5023 22.0096 16.5023 20.6387V18.5379L19.6526 8.8391L16.9412 0Z" fill="#27A6FF"/>
<path d="M35.8631 9.14332C35.7948 4.0534 31.5637 0 26.4733 0H16.9414C13.8835 1.74082 11.7661 4.9507 11.6429 8.69168C11.4894 13.3537 13.395 16.9168 16.5024 18.5379H26.5951C31.7348 18.538 35.9324 14.2982 35.8631 9.14332Z" fill="#02C0FC"/>
<path d="M12.5161 4.7085C12.0306 4.7085 11.6372 5.10189 11.6372 5.5874V11.4735C11.6372 11.702 11.5203 11.909 11.332 12.0134C10.9738 12.212 10.5553 11.8185 10.5452 11.8091C10.5374 11.8008 10.5444 11.8082 10.5361 11.8001L10.306 11.5753C9.95858 11.2358 9.4023 11.2425 9.06327 11.5897C8.72401 11.9369 8.73046 12.4934 9.07769 12.8325L9.30374 13.0534C9.65495 13.4044 10.3291 13.8345 11.1158 13.8345C11.4568 13.8345 11.8192 13.7536 12.1853 13.5503C12.9315 13.1362 13.3951 12.3403 13.3951 11.4734V5.5874C13.3949 5.10189 13.0015 4.7085 12.5161 4.7085Z" fill="#BBF0F9"/>
<path d="M29.651 8.71102C29.9253 8.3018 30.0857 7.81008 30.0857 7.28145C30.0857 5.86254 28.9312 4.70801 27.5122 4.70801H25.373C24.8875 4.70801 24.4941 5.10141 24.4941 5.58691V8.97809V8.98359V12.9514C24.4941 13.1852 24.5873 13.4093 24.753 13.5743C24.9177 13.7382 25.1408 13.8304 25.373 13.8304H25.3769C25.3771 13.8304 27.3438 13.8216 27.8858 13.8216C29.4635 13.8216 30.7469 12.5381 30.7469 10.9604C30.747 10.0485 30.3177 9.23543 29.651 8.71102ZM27.5122 6.46594C27.962 6.46594 28.3279 6.8318 28.3279 7.28156C28.3279 7.73133 27.962 8.0973 27.5122 8.0973C27.3574 8.0973 27.068 8.09812 26.7512 8.0993H26.2521V6.46594H27.5122ZM27.8859 12.0638C27.5858 12.0638 26.8508 12.0663 26.2521 12.0688V9.85887C26.415 9.85816 26.5849 9.85758 26.7479 9.85699H27.8859C28.4942 9.85699 28.9892 10.352 28.9892 10.9604C28.9892 11.5687 28.4942 12.0638 27.8859 12.0638Z" fill="#E8F8FC"/>
<path d="M18.9704 4.7085C16.4553 4.7085 14.4092 6.75459 14.4092 9.26967C14.4092 11.7847 16.4553 13.8308 18.9704 13.8308C21.4854 13.8308 23.5315 11.7847 23.5315 9.26967C23.5315 6.75447 21.4853 4.7085 18.9704 4.7085ZM18.9704 12.0729C17.4246 12.0729 16.167 10.8154 16.167 9.26955C16.167 7.72385 17.4246 6.46619 18.9704 6.46619C20.5161 6.46619 21.7737 7.72373 21.7737 9.26955C21.7737 10.8154 20.5161 12.0729 18.9704 12.0729Z" fill="#E8F8FC"/>
</svg>
