<svg width="60" height="60" viewBox="0 0 60 60" fill="none" xmlns="http://www.w3.org/2000/svg">
<path d="M15.5185 0H44.4815L53.6758 11.6948H6.32422L15.5185 0Z" fill="#F782A0"/>
<path d="M38.8882 37.6014L27.7986 32.4029L44.4814 0L53.6757 11.6948L38.8882 37.6014Z" fill="#F782A0"/>
<path d="M21.1117 37.6014L31.8852 32.4029L15.5185 0L6.32422 11.6948L21.1117 37.6014Z" fill="#F782A0"/>
<path d="M46.5561 43.7859L49.8488 40.5612L46.5561 37.3359L48.3378 33.1219L44.0356 31.3764V26.8153H39.3784L37.5961 22.6014L33.2933 24.3469L30 21.1216L26.7067 24.3469L22.4039 22.6014L20.6216 26.8153H15.9644V31.3764L11.6616 33.1219L13.4439 37.3359L10.1506 40.5612L13.4439 43.7859L11.6616 47.9999L15.9644 49.7454V54.3065H20.6216L22.4039 58.5205L26.7067 56.7749L30 60.0002L33.2933 56.7749L37.5961 58.5205L39.3784 54.3065H44.0356V49.7454L48.3378 47.9999L46.5561 43.7859Z" fill="#FBB646"/>
<path d="M29.9999 55.3251C38.3266 55.3251 45.0767 48.7143 45.0767 40.5595C45.0767 32.4047 38.3266 25.7939 29.9999 25.7939C21.6732 25.7939 14.9231 32.4047 14.9231 40.5595C14.9231 48.7143 21.6732 55.3251 29.9999 55.3251Z" fill="#FBB646"/>
<path d="M29.9999 52.8523C36.9316 52.8523 42.5509 47.349 42.5509 40.5604C42.5509 33.7718 36.9316 28.2686 29.9999 28.2686C23.0682 28.2686 17.449 33.7718 17.449 40.5604C17.449 47.349 23.0682 52.8523 29.9999 52.8523Z" fill="#1E6AA8"/>
<path d="M32.6477 46.0817C32.6449 46.1433 32.6279 46.2036 32.598 46.2579C32.568 46.3122 32.526 46.3593 32.4749 46.3954C32.3715 46.4862 32.2378 46.537 32.099 46.5383C31.7734 46.5383 31.2855 46.5414 30.6352 46.5476C29.9849 46.5539 29.497 46.5568 29.1715 46.5564C28.9204 46.5564 28.7985 46.4608 28.8057 46.2696L28.8158 46.1712C28.9103 43.8913 28.9581 39.9665 28.9581 39.4836V36.8249C28.9581 36.6575 28.9139 36.5744 28.8254 36.5744C28.617 36.5863 28.4108 36.6223 28.211 36.6815C28.0077 36.7415 27.7978 36.7777 27.5858 36.7892C27.3754 36.7892 27.2708 36.6786 27.2708 36.4579C27.2708 36.2553 27.2672 35.9504 27.2606 35.5453C27.2541 35.1402 27.2505 34.8318 27.2505 34.6228C27.2505 34.5034 27.3352 34.4138 27.5045 34.3541C28.3961 34.0567 29.2013 33.5533 29.8522 32.8866C29.9676 32.7608 30.0656 32.6987 30.1469 32.6987C30.187 32.7025 30.2269 32.7083 30.2664 32.7163C30.5239 32.7643 30.9068 32.839 31.4152 32.9405C31.6862 32.9698 32.0826 33.0234 32.6046 33.1015C32.6495 33.1103 32.6892 33.1356 32.7156 33.1721C32.7421 33.2087 32.7533 33.2538 32.7469 33.2981C32.7439 33.3611 32.7371 33.4238 32.7265 33.486C32.652 34.0109 32.6148 35.2967 32.6148 37.3435C32.6148 38.0307 32.6198 39.0631 32.6297 40.4406C32.6423 41.8191 32.6477 45.3957 32.6477 46.0817Z" fill="white"/>
<path d="M44.4815 0L38.4603 11.6948H36.8525L44.4815 0Z" fill="#EE2D52"/>
<path d="M15.5186 0L21.4279 11.6948H23.0357L15.5186 0Z" fill="#EE2D52"/>
<path d="M53.053 40.768C52.8888 40.768 52.7313 40.7041 52.6152 40.5904C52.4991 40.4767 52.4338 40.3224 52.4338 40.1616C52.4338 40.0008 52.4991 39.8465 52.6152 39.7328C52.7313 39.6191 52.8888 39.5552 53.053 39.5552H59.3808C59.545 39.5552 59.7026 39.6191 59.8187 39.7328C59.9348 39.8465 60 40.0008 60 40.1616C60 40.3224 59.9348 40.4767 59.8187 40.5904C59.7026 40.7041 59.545 40.768 59.3808 40.768H53.053Z" fill="#EE2D52"/>
<path d="M58.9882 46.7705C58.915 46.7704 58.8424 46.7577 58.7736 46.733L52.8367 44.5912C52.7605 44.5637 52.6905 44.5218 52.6308 44.4677C52.5711 44.4137 52.5229 44.3488 52.4888 44.2765C52.4548 44.2042 52.4356 44.1261 52.4324 44.0466C52.4292 43.967 52.442 43.8877 52.4701 43.813C52.4982 43.7383 52.541 43.6698 52.5961 43.6113C52.6513 43.5529 52.7176 43.5056 52.7914 43.4723C52.8652 43.4389 52.945 43.4201 53.0262 43.417C53.1074 43.4138 53.1884 43.4264 53.2647 43.4539L59.2022 45.5957C59.3381 45.6452 59.452 45.7399 59.5239 45.8632C59.5959 45.9866 59.6214 46.1307 59.5959 46.2706C59.5704 46.4104 59.4956 46.5371 59.3846 46.6284C59.2735 46.7198 59.1332 46.7701 58.9882 46.7705Z" fill="#A9A430"/>
<path d="M53.0529 36.905C52.9074 36.9053 52.7665 36.8554 52.6549 36.7641C52.5432 36.6727 52.468 36.5458 52.4425 36.4055C52.4169 36.2653 52.4427 36.1207 52.5152 35.9972C52.5877 35.8736 52.7023 35.7791 52.8389 35.7302L58.7764 33.5878C58.8527 33.5602 58.9338 33.5476 59.0151 33.5508C59.0963 33.5539 59.1761 33.5727 59.25 33.606C59.3238 33.6394 59.3902 33.6866 59.4454 33.7451C59.5006 33.8036 59.5435 33.8722 59.5717 33.9469C59.5998 34.0216 59.6126 34.101 59.6094 34.1806C59.6062 34.2602 59.5871 34.3383 59.553 34.4107C59.519 34.483 59.4707 34.548 59.411 34.6021C59.3513 34.6561 59.2813 34.6981 59.205 34.7257L53.2669 36.8669C53.1985 36.8922 53.126 36.9051 53.0529 36.905Z" fill="#2FAA7C"/>
<path d="M0.61921 40.768C0.454985 40.768 0.297487 40.7041 0.181362 40.5904C0.0652379 40.4767 0 40.3224 0 40.1616C0 40.0008 0.0652379 39.8465 0.181362 39.7328C0.297487 39.6191 0.454985 39.5552 0.61921 39.5552H6.94699C7.11121 39.5552 7.26871 39.6191 7.38483 39.7328C7.50096 39.8465 7.5662 40.0008 7.5662 40.1616C7.5662 40.3224 7.50096 40.4767 7.38483 40.5904C7.26871 40.7041 7.11121 40.768 6.94699 40.768H0.61921Z" fill="#EE2D52"/>
<path d="M1.01185 46.7705C0.866806 46.7701 0.726525 46.7198 0.615467 46.6284C0.50441 46.5371 0.429624 46.4104 0.404154 46.2706C0.378685 46.1307 0.404147 45.9866 0.4761 45.8632C0.548053 45.7399 0.661931 45.6452 0.797872 45.5957L6.73476 43.4539C6.81101 43.4264 6.89205 43.4138 6.97325 43.417C7.05446 43.4201 7.13423 43.4389 7.20802 43.4723C7.28181 43.5056 7.34816 43.5529 7.40331 43.6113C7.45845 43.6698 7.50129 43.7383 7.52939 43.813C7.55749 43.8877 7.5703 43.967 7.56707 44.0466C7.56385 44.1261 7.54467 44.2042 7.51062 44.2765C7.47657 44.3488 7.42832 44.4137 7.36863 44.4677C7.30893 44.5218 7.23896 44.5637 7.16271 44.5912L1.22582 46.733C1.15731 46.7578 1.08487 46.7705 1.01185 46.7705Z" fill="#A9A430"/>
<path d="M6.94703 36.905C6.87375 36.905 6.80107 36.8921 6.73246 36.8669L0.795572 34.7257C0.659223 34.6764 0.544907 34.5818 0.472632 34.4583C0.400358 34.3348 0.374731 34.1904 0.400239 34.0503C0.425746 33.9102 0.500762 33.7833 0.612155 33.6919C0.723548 33.6005 0.86422 33.5504 1.00955 33.5503C1.08258 33.5502 1.15505 33.5629 1.22352 33.5878L7.16041 35.7302C7.29698 35.7791 7.41158 35.8736 7.4841 35.997C7.55661 36.1205 7.5824 36.265 7.55693 36.4052C7.53146 36.5454 7.45637 36.6724 7.34483 36.7638C7.2333 36.8552 7.09245 36.9052 6.94703 36.905Z" fill="#2FAA7C"/>
</svg>
