<svg width="60" height="60" viewBox="0 0 60 60" fill="none" xmlns="http://www.w3.org/2000/svg">
<g clip-path="url(#clip0_194_1283)">
<path d="M57.9664 12.1005L57.8108 9.02101L54.7445 8.63299C54.5099 7.88835 54.1727 7.19106 53.7506 6.55551L55.3872 3.94891L53.0839 1.88221L50.6367 3.76143C49.9573 3.40865 49.2244 3.1459 48.4546 2.98922L47.7564 0L44.6546 0.156791L44.2615 3.2014C43.5114 3.4349 42.8087 3.77018 42.1683 4.18973L39.5441 2.5668L37.4609 4.85514L39.352 7.28336C38.9961 7.95812 38.7309 8.68597 38.5726 9.45039L35.561 10.1456L35.7166 13.2251L38.7829 13.6132C39.0175 14.3578 39.3547 15.0551 39.7768 15.6906L38.1402 18.2972L40.4435 20.3639L42.8907 18.4847C43.5701 18.8375 44.303 19.1002 45.0728 19.2569L45.7708 22.2464L48.8726 22.0896L49.2656 19.045C50.0158 18.8115 50.7185 18.4762 51.3588 18.0567L53.9831 19.6796L56.0663 17.3912L54.1752 14.963C54.5311 14.2883 54.7963 13.5604 54.9546 12.796L57.9664 12.1005ZM46.9797 15.3996C44.6006 15.5198 42.5753 13.7026 42.456 11.3408C42.3366 8.97894 44.1685 6.96678 46.5475 6.84655C48.9264 6.72632 50.9518 8.54357 51.0711 10.9054C51.1905 13.2672 49.3587 15.2794 46.9797 15.3996Z" fill="#7974E3"/>
<path d="M21.8911 33.5069L41.334 42.0315L49.991 22.2866L46.4172 13.1119L33.3459 7.38086L21.8911 33.5069Z" fill="#F0F0FF"/>
<path d="M45.1964 22.2865L37.3125 40.2681L41.3342 42.0314L49.9913 22.2865L47.7439 16.5171L45.1964 22.2865Z" fill="#E8E8FF"/>
<path d="M46.4174 13.1118L43.6099 19.4679L49.9912 22.2865L46.4174 13.1118Z" fill="#CFCFFF"/>
<path d="M40.3345 31.3926H55.7015V46.7105H40.3345V31.3926Z" fill="#96E1FF"/>
<path d="M59.48 42.6926L55.7012 46.7104V31.3923L59.48 27.3745V42.6926Z" fill="#FDF486"/>
<path d="M55.7013 31.3923H40.3345L44.1132 27.3745H59.4802L55.7013 31.3923Z" fill="#FD6DC3"/>
<path d="M45.956 57.3574L47.7316 55.58L46.2901 53.5151C46.6118 52.9664 46.8488 52.3814 47.0021 51.779L49.4717 51.3432L49.4614 48.8217L46.9882 48.3701C46.83 47.7667 46.5882 47.1803 46.262 46.6295L47.6868 44.5737L45.8966 42.7851L43.8421 44.2118C43.2909 43.8861 42.7042 43.6448 42.1007 43.4872L41.647 41.0144L39.1255 41.0063L38.6919 43.4763C38.0897 43.6301 37.505 43.8677 36.9564 44.1899L34.8902 42.7501L33.1146 44.5274L34.5561 46.5923C34.2344 47.1411 33.9974 47.7261 33.8441 48.3284L31.3745 48.7643L31.3848 51.2858L33.858 51.7373C34.0162 52.3408 34.258 52.9272 34.5842 53.478L33.1594 55.5338L34.9497 57.3224L37.0043 55.8956C37.5554 56.2213 38.1421 56.4626 38.7456 56.6203L39.1993 59.0931L41.7208 59.1011L42.1544 56.6312C42.7566 56.4774 43.3414 56.2398 43.8899 55.9176L45.956 57.3574ZM38.1921 52.2868C36.9459 51.0418 36.9377 49.0297 38.1737 47.7925C39.4097 46.5554 41.4219 46.5618 42.668 47.8067C43.9141 49.0517 43.9224 51.0639 42.6864 52.3011C41.4503 53.5381 39.4381 53.5318 38.1921 52.2868Z" fill="#7974E3"/>
<path d="M12.2038 9.44863C12.4338 9.44863 12.6638 9.36088 12.8395 9.18539C13.1906 8.83429 13.1907 8.26502 12.8396 7.91404L9.774 4.84786C9.42289 4.49664 8.85363 4.49676 8.50264 4.84774C8.15154 5.19884 8.15142 5.76811 8.50252 6.11909L11.5681 9.18515C11.7435 9.36088 11.9736 9.44863 12.2038 9.44863Z" fill="#FDF05B"/>
<path d="M5.75394 23.6128H1.41856C0.922058 23.6128 0.519531 24.0152 0.519531 24.5118C0.519531 25.0085 0.922058 25.4109 1.41856 25.4109H5.75394C6.25044 25.4109 6.65297 25.0085 6.65297 24.5118C6.65297 24.0152 6.25044 23.6128 5.75394 23.6128Z" fill="#FDF05B"/>
<path d="M13.1138 39.7242C12.7627 39.3732 12.1934 39.3731 11.8424 39.7243L8.77694 42.7904C8.42584 43.1415 8.42596 43.7108 8.77706 44.0617C8.95255 44.2372 9.1827 44.325 9.41273 44.325C9.64277 44.325 9.87292 44.2372 10.0485 44.0616L13.1139 40.9956C13.465 40.6445 13.4649 40.0752 13.1138 39.7242Z" fill="#FDF05B"/>
<path d="M27.9643 6.02441C27.8175 6.02441 27.6704 6.02561 27.5229 6.02921C17.7264 6.26104 9.78039 14.3568 9.68785 24.1922C9.6212 31.2664 13.5451 37.4253 19.3365 40.5443V43.6268C19.3365 44.8854 20.353 45.9057 21.607 45.9057H27.9643V6.02441Z" fill="#FDF486"/>
<path d="M27.9643 45.9058H21.6069V50.9329C21.6069 53.191 23.4375 55.0216 25.6956 55.0216H27.9643V45.9058Z" fill="#CFCFFF"/>
<path d="M28.0494 60C27.5529 60 27.1504 59.5976 27.1504 59.101V1.20616C27.1504 0.709536 27.5529 0.307129 28.0494 0.307129C28.5459 0.307129 28.9485 0.709536 28.9485 1.20616V59.101C28.9485 59.5976 28.5459 60 28.0494 60Z" fill="#FFD600"/>
<path d="M47.0022 51.7786L49.4718 51.3427L49.4614 48.8213L46.9883 48.3697C46.83 47.7663 46.5883 47.1799 46.2621 46.6291L47.6869 44.5733L45.8966 42.7847L43.842 44.2113C43.3122 43.8982 42.7494 43.6639 42.1704 43.5062C44.138 45.1108 45.3952 47.5534 45.3952 50.2903C45.3952 52.6601 44.4516 54.8083 42.9216 56.3842C43.2537 56.2555 43.5777 56.1005 43.8897 55.9173L45.9559 57.357L47.7316 55.5797L46.29 53.5148C46.6119 52.9659 46.849 52.3811 47.0022 51.7786Z" fill="#6B64E8"/>
</g>
<defs>
<clipPath id="clip0_194_1283">
<rect width="60" height="60" fill="white"/>
</clipPath>
</defs>
</svg>
