<svg width="24" height="24" viewBox="0 0 24 24" fill="none" xmlns="http://www.w3.org/2000/svg">
<g clip-path="url(#clip0_0_19)">
<path d="M18.667 0H5.33302C2.38767 0 0 2.38767 0 5.33302V18.667C0 21.6123 2.38767 24 5.33302 24H18.667C21.6123 24 24 21.6123 24 18.667V5.33302C24 2.38767 21.6123 0 18.667 0Z" fill="#65686D"/>
<path d="M11.9934 7.12993C11.3151 7.12993 10.6519 7.22682 10.0113 7.41779V5.46483C10.0113 4.10735 8.90499 3.00293 7.54469 3.00293C6.18439 3.00293 5.07809 4.10735 5.07809 5.46483C5.07809 5.46483 5.06774 14.383 5.07809 14.5401V14.7376H5.09314C5.43368 18.2456 8.39793 20.9963 11.9934 20.9963C15.8166 20.9963 18.9266 17.8863 18.9266 14.0631C18.9266 10.24 15.8166 7.12993 11.9934 7.12993ZM11.9934 12.0631C13.096 12.0631 13.9934 12.9606 13.9934 14.0631C13.9934 15.1657 13.096 16.0631 11.9934 16.0631C10.8909 16.0631 9.99342 15.1657 9.99342 14.0631C9.99342 12.9606 10.8909 12.0631 11.9934 12.0631ZM11.9934 20.0631C8.83443 20.0631 6.23989 17.6088 6.01129 14.5081V5.46483C6.01129 4.62193 6.69897 3.93708 7.54469 3.93708C8.39041 3.93708 9.07809 4.62287 9.07809 5.46483V13.7405C9.0668 13.8468 9.06021 13.954 9.06021 14.0641C9.06021 15.6812 10.3763 16.9973 11.9934 16.9973C13.6105 16.9973 14.9266 15.6812 14.9266 14.0641C14.9266 12.447 13.6105 11.1309 11.9934 11.1309C11.2295 11.1309 10.5343 11.4244 10.0113 11.9042V10.6219C10.6124 10.2748 11.2926 10.0914 11.9934 10.0914C14.1844 10.0914 15.9671 11.874 15.9671 14.065C15.9671 16.256 14.1844 18.0387 11.9934 18.0387C9.80245 18.0387 8.01976 16.256 8.01976 14.065H8.01129V5.49305C8.01129 5.23529 7.80245 5.02645 7.54469 5.02645C7.28693 5.02645 7.07809 5.23529 7.07809 5.49305V14.3679C7.07809 14.4263 7.06492 14.5128 7.08373 14.5645C7.3208 17.0509 9.44591 18.97 11.9925 18.97C14.698 18.97 16.8993 16.7687 16.8993 14.0631C16.8993 11.3576 14.698 9.15627 11.9925 9.15627C11.3039 9.15627 10.6312 9.29926 10.0104 9.57396V8.39804C10.6453 8.17602 11.3104 8.06314 11.9925 8.06314C15.301 8.06314 17.9925 10.7546 17.9925 14.0631C17.9925 17.3717 15.301 20.0631 11.9925 20.0631H11.9934Z" fill="#25292F"/>
</g>
<defs>
<clipPath id="clip0_0_19">
<rect width="24" height="24" fill="white"/>
</clipPath>
</defs>
</svg>
