<svg width="24" height="24" viewBox="0 0 24 24" fill="none" xmlns="http://www.w3.org/2000/svg">
<g clip-path="url(#clip0_0_11)">
<path d="M24 19.2012C24 21.8517 21.8517 24.001 19.1992 24.001H4.79981C2.14922 24.001 0 21.8517 0 19.2012V4.80077C0 2.14923 2.14922 0 4.79981 0H19.1992C21.8517 0 24 2.14923 24 4.80077V19.2012Z" fill="#65686D"/>
<path d="M19.0296 1.83496H4.9705C3.17788 1.83496 1.72461 3.29302 1.72461 5.09235V12.8198C1.72461 14.6191 3.17788 16.0772 4.9705 16.0772H9.81344L11.4661 18.768C11.4661 18.768 11.4843 18.7997 11.5198 18.8447C11.6166 19.0105 11.7949 19.1227 12.0001 19.1227C12.2052 19.1227 12.3816 19.0115 12.4784 18.8476C12.5196 18.7987 12.534 18.7671 12.534 18.7671L14.1867 16.0762H19.0296C20.8222 16.0762 22.2755 14.6182 22.2755 12.8188V5.09235C22.2755 3.29302 20.8222 1.83496 19.0296 1.83496Z" fill="#25292F"/>
<path d="M6.28857 7.49733C6.28857 7.49733 5.72778 7.49733 5.21875 7.99293V5.99805H3.96008V11.2398H5.23121V10.8295C5.23121 10.8295 5.53126 11.3711 6.28761 11.3711C6.28761 11.3711 8.06106 11.3059 8.06106 9.41457C8.06106 9.41457 7.99587 7.49733 6.28761 7.49733H6.28857ZM6.01153 10.2639C5.56481 10.2639 5.20245 9.90155 5.20245 9.45483C5.20245 9.00811 5.56481 8.64671 6.01153 8.64671C6.45825 8.64671 6.81964 9.00907 6.81964 9.45483C6.81964 9.90059 6.45729 10.2639 6.01153 10.2639Z" fill="#65686D"/>
<path d="M8.46558 5.88037V7.09302C8.46558 7.09302 9.03979 7.06714 9.03979 8.136V11.2391H10.2524V7.84938C10.2524 7.84938 10.3042 5.88037 8.46558 5.88037Z" fill="#65686D"/>
<path d="M13.2184 7.51367C13.2184 7.51367 11.1391 7.51367 11.1391 9.45488C11.1391 9.45488 11.072 11.3702 13.2184 11.3702C13.2184 11.3702 15.3456 11.3673 15.3456 9.45488C15.3456 9.45488 15.4146 7.51367 13.2184 7.51367ZM13.2184 10.264C12.7717 10.264 12.4093 9.90159 12.4093 9.45488C12.4093 9.00816 12.7717 8.64676 13.2184 8.64676C13.6651 8.64676 14.0265 9.00912 14.0265 9.45488C14.0265 9.90063 13.6642 10.264 13.2184 10.264Z" fill="#65686D"/>
<path d="M18.8168 7.64153V7.99334C18.8168 7.99334 18.4554 7.51403 17.7614 7.51403C17.7614 7.51403 15.9812 7.43926 15.9812 9.44182C15.9812 9.44182 15.9611 11.3082 17.7125 11.3082C17.7125 11.3082 18.4266 11.337 18.8168 10.8289V11.1223C18.8168 11.1223 18.905 12.0416 18.0154 12.0416H17.7125V13.1565H18.2014C18.2014 13.1565 20.04 13.1766 20.04 11.1913V7.64153H18.8178H18.8168ZM18.0643 10.2643C17.6176 10.2643 17.2562 9.90195 17.2562 9.45524C17.2562 9.00852 17.6176 8.64712 18.0643 8.64712C18.511 8.64712 18.8724 9.00948 18.8724 9.45524C18.8724 9.901 18.51 10.2643 18.0643 10.2643Z" fill="#65686D"/>
</g>
<defs>
<clipPath id="clip0_0_11">
<rect width="24" height="24" fill="white"/>
</clipPath>
</defs>
</svg>
