<svg width="96" height="24" viewBox="0 0 96 24" fill="none" xmlns="http://www.w3.org/2000/svg">
<g clip-path="url(#clip0_0_27)">
<path d="M59.2811 4.96022C60.6249 4.96022 61.7143 3.84984 61.7143 2.48011C61.7143 1.11038 60.6249 0 59.2811 0C57.9373 0 56.8479 1.11038 56.8479 2.48011C56.8479 3.84984 57.9373 4.96022 59.2811 4.96022Z" fill="#65686D"/>
<path d="M32.2997 2.07715H22.8399C22.6234 2.07715 22.4446 2.25944 22.4446 2.48011C22.4446 2.70077 22.6187 2.88307 22.8399 2.88307H32.2997C32.5162 2.88307 32.695 2.70077 32.695 2.48011C32.695 2.25944 32.5162 2.07715 32.2997 2.07715Z" fill="#65686D"/>
<path d="M55.3419 2.48011C55.3419 2.25944 55.1631 2.07715 54.9466 2.07715H41.4676C41.2511 2.07715 41.0723 2.25944 41.0723 2.48011C41.0723 2.70077 41.2511 2.88307 41.4676 2.88307H54.9466C55.1631 2.88307 55.3419 2.70077 55.3419 2.48011Z" fill="#65686D"/>
<path d="M38.7426 14.4633C38.7426 12.5637 40.2581 11.019 42.1218 11.019H43.5996C44.282 11.019 44.842 11.585 44.842 12.2854V19.4571C44.842 21.966 46.8422 24.0048 49.3037 24.0048H51.7368C52.9275 24.0048 54.0477 23.5299 54.8901 22.6712H54.8948C57.6904 24.5421 61.4743 24.4317 64.1522 22.3162C66.1288 20.7523 67.2631 18.4018 67.2631 15.8737C67.2631 14.967 66.543 14.2331 65.6535 14.2331C64.764 14.2331 64.0439 14.967 64.0439 15.8737C64.0439 17.3848 63.3662 18.7903 62.1802 19.7258C60.7683 20.8435 58.834 21.021 57.2574 20.263L64.9287 12.4437C65.5594 11.8009 65.5594 10.7647 64.9287 10.1219C63.4227 8.58685 61.4178 7.74255 59.2905 7.74255C57.1633 7.74255 55.1584 8.58685 53.6476 10.1219C52.0428 11.7577 51.1956 14.0172 51.3227 16.3294C51.4027 17.7733 51.8592 19.1549 52.6263 20.3398L52.6169 20.3494C52.3816 20.5892 52.071 20.7188 51.7415 20.7188H49.3084C48.6259 20.7188 48.0659 20.1527 48.0659 19.4523V12.2806C48.0659 9.77174 46.0657 7.73296 43.6043 7.73296H42.1265C40.451 7.73296 38.9215 8.38057 37.759 9.43114C36.9401 8.39496 35.6882 7.73296 34.2857 7.73296H32.8079C31.5702 7.73296 30.4171 8.08795 29.4288 8.69238V7.73296H24.6283V11.0142H26.2096V17.2696C26.2096 19.1693 24.6942 20.714 22.8305 20.714H21.3527C20.6703 20.714 20.1102 20.1479 20.1102 19.4475V7.73296H15.3097V11.0142H16.8911V17.2696C16.8911 19.1693 15.3756 20.714 13.5119 20.714H6.03824C5.35582 20.714 4.79576 20.1479 4.79576 19.4475V0H0V3.28123H1.58133V19.4523C1.58133 21.9612 3.58153 24 6.04295 24H13.5166C15.1921 24 16.7216 23.3524 17.8841 22.3018C18.703 23.338 19.9549 24 21.3574 24H22.8352C24.073 24 25.226 23.645 26.2143 23.0406V24H29.4335V14.4633C29.4335 12.5637 30.9489 11.019 32.8126 11.019H34.2904C34.9728 11.019 35.5329 11.585 35.5329 12.2854V24H38.752V14.4633H38.7426ZM54.5324 16.1423C54.4571 14.7655 54.9607 13.4128 55.9161 12.4389C56.815 11.5227 58.0104 11.019 59.2811 11.019C59.9965 11.019 60.6836 11.1773 61.3095 11.4795L54.9701 17.9412C54.7113 17.3848 54.5606 16.7803 54.5277 16.1423H54.5324Z" fill="#65686D"/>
<path d="M20.9339 2.48011C20.9339 3.84729 19.8467 4.96022 18.5007 4.96022C17.1547 4.96022 16.0675 3.85209 16.0675 2.48011C16.0675 1.10814 17.1547 0 18.5007 0C19.8467 0 20.9339 1.10814 20.9339 2.48011Z" fill="#65686D"/>
<path d="M39.5662 2.48011C39.5662 3.84729 38.479 4.96022 37.133 4.96022C35.787 4.96022 34.6998 3.85209 34.6998 2.48011C34.6998 1.10814 35.787 0 37.133 0C38.479 0 39.5662 1.10814 39.5662 2.48011Z" fill="#65686D"/>
<path d="M70.5199 23.5778V12.626H77.3865V14.1179H72.153V17.3176H76.6193V18.7951H72.153V22.0859H77.3865V23.5778H70.5199Z" fill="#65686D"/>
<path d="M85.5614 22.5464C84.8837 23.2372 83.9001 23.5778 82.7847 23.5778H79.0149V12.626H82.7847C83.9001 12.626 84.8837 12.9666 85.5614 13.6574C86.7239 14.8422 86.6486 16.4397 86.6486 18.0227C86.6486 19.6058 86.7239 21.3615 85.5614 22.5464ZM84.446 14.8566C83.9942 14.3481 83.3918 14.1179 82.62 14.1179H80.6433V22.0859H82.62C83.3871 22.0859 83.9942 21.8556 84.446 21.3471C85.0061 20.7187 85.0202 19.5338 85.0202 18.0275C85.0202 16.5212 85.0061 15.4899 84.446 14.8614V14.8566Z" fill="#65686D"/>
<path d="M92.1409 23.669C89.9524 23.669 88.2958 22.1483 88.2958 19.884V12.626H89.9242V19.8073C89.9242 21.2704 90.7996 22.177 92.1409 22.177C93.4822 22.177 94.3717 21.2704 94.3717 19.8073V12.626H96.0001V19.884C96.0001 22.1435 94.3246 23.669 92.1362 23.669H92.1409Z" fill="#65686D"/>
</g>
<defs>
<clipPath id="clip0_0_27">
<rect width="96" height="24" fill="white"/>
</clipPath>
</defs>
</svg>
