<svg width="24" height="24" viewBox="0 0 24 24" fill="none" xmlns="http://www.w3.org/2000/svg">
<g clip-path="url(#clip0_0_22)">
<path d="M21.7732 0H2.22682C0.99698 0 0 0.99698 0 2.22682V21.7732C0 23.003 0.99698 24 2.22682 24H21.7732C23.003 24 24 23.003 24 21.7732V2.22682C24 0.99698 23.003 0 21.7732 0Z" fill="#65686D"/>
<path d="M10.4141 10.3173L9.98182 11.5364H10.845L10.4141 10.3173ZM10.4141 10.3173L9.98182 11.5364H10.845L10.4141 10.3173ZM12 5.12598C7.85864 5.12598 4.5 7.75507 4.5 10.9992C4.5 13.0978 5.90318 14.9373 8.01545 15.9764C6.96682 19.5696 6.35046 19.8042 10.6677 16.781C11.1091 16.8431 11.5543 16.8741 12 16.8737C16.1414 16.8737 19.5 14.2432 19.5 10.9992C19.5 7.75507 16.1414 5.12598 12 5.12598ZM7.85318 13.0501C7.10455 13.0501 7.54636 12.0151 7.42091 10.0869C7.14818 10.0405 6.32045 10.2723 6.32045 9.66552C6.32118 9.55364 6.36622 9.44662 6.44571 9.36789C6.52521 9.28916 6.63267 9.24516 6.74455 9.24552C8.31818 9.35734 9.38455 8.95234 9.38455 9.66552C9.38455 10.2832 8.58818 10.0351 8.28545 10.0869C8.16 12.0082 8.60045 13.0501 7.85318 13.0501ZM11.9223 12.9846C11.25 13.2901 11.2336 12.6014 11.0727 12.3028H9.75409C9.59182 12.6082 9.57818 13.2955 8.90455 12.9846C8.39864 12.7528 9.22227 11.576 9.83727 9.66825C9.87663 9.54641 9.9536 9.44019 10.0571 9.36485C10.1606 9.28951 10.2854 9.24892 10.4134 9.24892C10.5414 9.24892 10.6662 9.28951 10.7697 9.36485C10.8732 9.44019 10.9502 9.54641 10.9895 9.66825C11.6168 11.6128 12.4309 12.7528 11.9223 12.9846ZM12.7214 12.9846C11.9973 12.9846 12.4377 12.0069 12.3123 9.67098C12.3123 9.10234 13.1959 9.1037 13.1959 9.67098V12.1992C13.6132 12.2551 14.5295 11.9932 14.5295 12.5932C14.5241 13.2273 13.5395 12.9069 12.7214 12.9873V12.9846ZM16.7223 12.8605L15.7077 11.5242L15.5577 11.6742V12.6137C15.5577 12.6705 15.5465 12.7268 15.5247 12.7792C15.5028 12.8317 15.4709 12.8793 15.4306 12.9194C15.3903 12.9594 15.3424 12.9911 15.2898 13.0126C15.2372 13.0341 15.1809 13.045 15.1241 13.0446C14.3727 13.0446 14.8227 11.9619 14.6918 9.6737C14.6925 9.55953 14.7384 9.45028 14.8194 9.3698C14.9004 9.28932 15.0099 9.24416 15.1241 9.24416C15.7773 9.24416 15.495 10.1673 15.5564 10.5982C16.7836 9.42689 16.7523 9.30279 17.0045 9.30279C17.3523 9.30279 17.565 9.73507 17.3332 9.96416L16.3473 10.9432L17.4123 12.3451C17.76 12.7992 17.0659 13.3173 16.7223 12.8632V12.8605ZM9.98182 11.5364H10.845L10.4141 10.3173L9.98182 11.5364ZM10.4141 10.3173L9.98182 11.5364H10.845L10.4141 10.3173ZM10.4141 10.3173L9.98182 11.5364H10.845L10.4141 10.3173Z" fill="#25292F"/>
</g>
<defs>
<clipPath id="clip0_0_22">
<rect width="24" height="24" fill="white"/>
</clipPath>
</defs>
</svg>
