<svg width="160" height="184" viewBox="0 0 160 184" fill="none" xmlns="http://www.w3.org/2000/svg">
<g clip-path="url(#clip0_251_160)">
<g clip-path="url(#clip1_251_160)">
<path d="M99.9455 236.365C99.9455 236.365 106.874 240.842 115.16 240.204L123.243 208.327C125.187 200.662 121.4 192.699 114.224 189.36L84.0488 175.319L51.7476 173.631C51.7476 173.631 56.6958 192.888 101.273 203.016C102.935 203.393 103.943 205.074 103.479 206.711C102.623 209.74 101.498 214.738 101.462 220.23C101.404 229.134 99.9527 236.365 99.9527 236.365H99.9455Z" fill="#F8CCC2" stroke="black" stroke-width="0.75" stroke-linecap="round" stroke-linejoin="round"/>
<path d="M73.275 235.763C73.275 235.763 79.9355 240.631 88.243 240.465L98.1322 209.102C100.512 201.56 97.189 193.395 90.2092 189.656L60.89 173.913L28.7339 170.385C28.7339 170.385 32.572 189.895 76.5037 202.552C78.1362 203.023 79.0431 204.755 78.4917 206.363C77.4614 209.341 76.0539 214.267 75.6984 219.752C75.1324 228.641 73.2678 235.77 73.2678 235.77L73.275 235.763Z" fill="#F8CCC2" stroke="black" stroke-width="0.75" stroke-linecap="round" stroke-linejoin="round"/>
<path d="M36.2936 142.708C36.2936 142.708 35.539 150.192 32.8763 156.351C30.2135 162.509 23.3209 177.484 35.9889 187.511C45.0001 194.64 48.9979 198.386 50.6594 200.088C51.2398 200.682 52.212 200.61 52.6982 199.936L60.505 189.214C60.6864 188.967 60.9331 188.779 61.216 188.663L74.4355 183.476C74.9579 183.273 75.531 183.244 76.0679 183.396L81.3862 184.903L86.1965 182.353C86.5448 182.171 86.9366 182.077 87.3284 182.077L98.197 182.215C98.6614 182.215 99.1185 182.324 99.5393 182.519L109.029 186.931L81.3644 158.365C80.0294 156.988 79.2386 155.17 79.137 153.257L78.796 146.824L36.3009 142.701L36.2936 142.708Z" fill="#3F342E" stroke="black" stroke-width="0.75" stroke-linecap="round" stroke-linejoin="round"/>
<path d="M93.6195 60.9055C93.6848 61.362 94.4684 67.6433 91.189 75.0186C89.2735 79.3366 88.8019 82.0607 88.7511 83.6256C88.7294 84.5602 87.8732 85.234 86.959 85.0528C85.5515 84.7848 83.4619 84.2559 80.937 83.2561C87.0026 80.4668 88.6133 72.722 90.0136 66.1943C90.9931 61.6083 90.2312 58.4133 89.4259 56.5586C91.1744 57.5874 92.64 59.0726 93.6123 60.9055H93.6195Z" fill="#3A3030"/>
<path d="M56.7325 64.7164C59.1993 62.6661 69.8431 54.4793 82.3587 54.7981C75.7925 64.4773 70.0752 64.9555 67.7753 64.6584C67.2529 64.5932 66.7522 64.3614 66.4475 63.9484C65.127 62.1517 60.382 63.0501 61.5066 68.4838C62.2103 71.9106 64.0967 73.0263 65.5406 73.3596C65.5623 73.519 65.7727 75.6562 65.0545 78.3006C61.0204 78.9527 57.7192 77.7645 56.036 76.9386C55.3394 76.6053 55.042 75.8011 55.2814 75.0766C56.3987 71.7657 56.5221 67.6723 56.4277 64.8468C56.5366 64.8323 56.6527 64.7816 56.7397 64.7092L56.7325 64.7164Z" fill="#3A3030"/>
<path d="M39.2976 147.112C37.0193 147.576 35.0314 147.757 33.3046 147.75C26.4264 147.75 21.4201 141.447 22.864 134.731C23.6766 130.949 25.3236 127.225 26.6658 124.624C29.3576 119.408 31.8535 109.367 34.6541 102.295C37.4619 95.2317 37.3531 92.696 45.53 89.4647C53.7141 86.2407 62.7036 83.0312 62.7036 83.0312C62.4061 83.4152 62.0796 83.7847 61.7169 84.147C60.3166 85.5525 59.8377 87.639 60.4907 89.5155C60.6503 89.9864 60.8535 90.4718 61.1002 90.9717C64.0023 96.8038 71.9325 97.5428 76.0609 92.5003C76.0971 92.4569 76.1334 92.4134 76.1697 92.3699C77.171 91.1166 77.4975 89.472 77.1419 87.9143C77.0258 87.4144 76.9896 86.7841 77.1274 85.9799C77.1274 85.9799 82.8084 89.5372 87.9453 91.9135C93.9963 94.7173 95.4111 99.5714 96.2963 103.549L80.4141 146.46L80.3633 147.098C80.298 147.982 79.7757 148.772 78.9993 149.199C60.1497 159.53 39.2976 147.105 39.2976 147.105V147.112Z" fill="white"/>
<path d="M65.5333 73.3601C64.0894 73.0268 62.203 71.9111 61.4992 68.4842C60.3674 63.0505 65.1197 62.1522 66.4402 63.9489C66.7522 64.3619 67.2528 64.5937 67.7679 64.6589C70.0752 64.9632 75.7852 64.4778 82.3514 54.7986C83.0769 54.8131 83.8097 54.8638 84.5425 54.9435C86.2911 55.1319 87.9671 55.6897 89.4327 56.5591C90.238 58.4138 90.9999 61.6016 90.0204 66.1948C88.6201 72.7153 87.0094 80.4673 80.9438 83.2566C80.0369 83.6696 79.0211 83.9811 77.8893 84.155C77.8095 84.1695 77.7151 84.1767 77.6281 84.184C76.9461 84.2347 76.2568 84.097 75.6546 83.771C73.7029 82.7277 69.6398 80.0326 67.7752 74.8525C67.4995 74.1135 66.8755 73.5484 66.0919 73.4542C65.9178 73.4397 65.7292 73.4035 65.5333 73.3601Z" fill="#F8CCC2"/>
<path d="M77.6349 84.1847C77.3665 84.8657 77.2068 85.4598 77.1125 85.9814C76.9819 86.7856 77.0182 87.4231 77.127 87.9158C77.4825 89.4807 77.1561 91.1253 76.1548 92.3714C76.1185 92.4221 76.0823 92.4656 76.046 92.5018C71.9176 97.5443 63.9874 96.8053 61.0853 90.9731C60.8386 90.4732 60.6354 89.9878 60.4758 89.5169C59.8228 87.6332 60.3017 85.5539 61.702 84.1484C62.0647 83.7862 62.3912 83.4095 62.6887 83.0327C63.9149 81.4678 64.6187 79.8015 65.0322 78.2945C65.7505 75.6502 65.5401 73.5129 65.5183 73.3535C65.7142 73.397 65.9029 73.4332 66.077 73.4477C66.8606 73.5346 67.4846 74.107 67.7603 74.846C69.6249 80.0261 73.688 82.7212 75.6397 83.7645C76.2491 84.0905 76.9384 84.2281 77.6132 84.1774L77.6349 84.1847Z" fill="#F8CCC2"/>
<path d="M92.2696 50.5169C91.7254 50.0025 91.1014 49.5678 90.4194 49.2128C88.9974 48.4738 87.0964 47.7566 84.6659 47.3871C82.482 47.0538 80.2618 47.1335 78.0779 47.474C73.6158 48.1695 64.9964 50.2198 57.1242 56.1244C56.6018 56.5157 56.152 56.9866 55.7892 57.5155C55.7747 55.1609 56.1375 48.6549 60.2803 43.6704C60.8027 43.0329 60.9333 42.178 60.6431 41.4028C60.2513 40.3523 60.1497 38.8091 62.1377 37.7079C65.2938 35.9763 83.9476 33.303 92.2768 50.5169H92.2696Z" fill="#FFA94E"/>
<path d="M57.124 56.132C65.0034 50.2347 73.6156 48.1844 78.0777 47.4816C80.2616 47.1411 82.4818 47.0614 84.6656 47.3947C87.0962 47.7642 88.9971 48.4742 90.4192 49.2204C91.1012 49.5681 91.7252 50.0101 92.2694 50.5245C92.6321 51.2707 92.9804 52.0604 93.2996 52.8863C93.2996 52.8863 80.2543 47.8294 55.8108 58.4214C55.8108 58.4214 55.7817 58.0954 55.7817 57.5303C56.1445 57.0014 56.5943 56.5305 57.1167 56.1393L57.124 56.132Z" fill="#FFA94E"/>
<path d="M82.3516 54.7993C69.8432 54.4733 59.1922 62.6601 56.7253 64.7176C56.631 64.7901 56.5222 64.8408 56.4133 64.8553C56.1739 64.8842 55.9272 64.7683 55.7894 64.5365C55.238 63.5802 54.9332 62.6456 54.7881 61.8052C54.5269 60.291 54.9115 58.7623 55.7821 57.5234C55.7821 58.0958 55.8111 58.4145 55.8111 58.4145C80.2475 47.8225 93.3 52.8794 93.3 52.8794C92.9808 52.0535 92.6325 51.2638 92.2697 50.5176C93.8369 51.9448 94.8527 53.9227 95.0268 56.0672C95.23 58.5522 94.606 60.5156 94.2722 61.3632C94.2069 61.5443 93.953 61.5443 93.8659 61.3632C93.8442 61.3197 93.8224 61.269 93.7934 61.2256C93.7353 61.1169 93.6846 61.0082 93.612 60.8995C92.6398 59.0666 91.1742 57.5886 89.4256 56.5526C87.96 55.676 86.284 55.1181 84.5354 54.937C83.8026 54.8573 83.0698 54.8138 82.3443 54.7921L82.3516 54.7993Z" fill="#FFA94E"/>
<path d="M89.4406 56.5593C90.246 58.414 91.0078 61.6018 90.0283 66.1951C88.628 72.7155 87.0173 80.4676 80.9518 83.2568C80.0448 83.6698 79.0291 83.9813 77.8972 84.1552C77.8174 84.1697 77.7231 84.177 77.636 84.1842C76.954 84.2349 76.2647 84.0973 75.6625 83.7712C73.7108 82.728 69.6478 80.0329 67.7831 74.8527C67.5074 74.1138 66.8835 73.5487 66.0999 73.4545C65.9257 73.44 65.7371 73.4038 65.5412 73.3603C64.0974 73.027 62.2109 71.9113 61.5072 68.4845C60.3753 63.0508 65.1276 62.1524 66.4481 63.9492C66.7601 64.3621 67.2607 64.594 67.7759 64.6592C70.0831 64.9634 75.7931 64.478 82.3593 54.7988" stroke="black" stroke-width="0.75" stroke-linecap="round" stroke-linejoin="round"/>
<path d="M56.4131 64.8555C56.5075 67.681 56.3914 71.7744 55.2668 75.0853C55.0201 75.8098 55.3248 76.6067 56.0213 76.9472C57.7046 77.7731 61.0131 78.9613 65.0399 78.3093" stroke="black" stroke-width="0.75" stroke-linecap="round" stroke-linejoin="round"/>
<path d="M65.534 73.3535C65.5557 73.5201 65.7661 75.6574 65.0478 78.3018C64.6415 79.816 63.9305 81.4823 62.7043 83.04C62.4069 83.4239 62.0804 83.7934 61.7176 84.1557C60.3173 85.5612 59.8384 87.6477 60.4914 89.5242C60.651 89.9951 60.8542 90.4805 61.1009 90.9804C64.0031 96.8125 71.9332 97.5515 76.0616 92.5091C76.0979 92.4656 76.1342 92.4221 76.1704 92.3787C77.1717 91.1253 77.4982 89.4807 77.1427 87.923C77.0266 87.4231 76.9903 86.7928 77.1281 85.9886C77.2225 85.4598 77.3821 84.8657 77.6505 84.1919" stroke="black" stroke-width="0.75" stroke-linecap="round" stroke-linejoin="round"/>
<path d="M62.7039 83.0393C62.7039 83.0393 53.7144 86.2488 45.5302 89.4728C37.3461 92.704 37.4549 95.2325 34.6543 102.304C31.8465 109.367 29.3578 119.416 26.6661 124.632C25.2875 127.313 23.5753 131.189 22.7917 135.087C21.493 141.542 26.3759 147.664 32.9783 147.758C34.7777 147.78 36.8817 147.613 39.3051 147.121C41.5325 146.671 44.0283 145.961 46.8144 144.882C55.6878 141.462 60.4184 139.745 62.8852 138.898C64.1042 138.47 64.583 137.021 63.872 135.942C62.4064 133.717 60.4111 130.081 60.3168 126.617C60.2805 125.371 59.0979 124.487 57.879 124.777C54.9333 125.502 49.9996 126.726 44.9716 128.037C40.7852 129.131 36.519 130.283 33.2685 131.269" stroke="black" stroke-width="0.75" stroke-linecap="round" stroke-linejoin="round"/>
<path d="M42.5552 93.9785C42.5552 93.9785 46.0233 98.3037 47.8807 102.861" stroke="black" stroke-width="0.75" stroke-linecap="round" stroke-linejoin="round"/>
<path d="M49.7461 107.412C49.7461 107.412 49.8332 107.68 49.9565 108.144C50.965 111.947 50.5732 115.997 48.9262 119.576C47.8742 121.866 46.4231 124.996 44.9575 128.038" stroke="black" stroke-width="0.75" stroke-linecap="round" stroke-linejoin="round"/>
<path d="M96.2896 103.564C96.5145 104.564 96.6959 105.513 96.9208 106.354" stroke="black" stroke-width="0.75" stroke-linecap="round" stroke-linejoin="round"/>
<path d="M77.1206 85.9883C77.1206 85.9883 82.8016 89.5455 87.9385 91.9219C93.9895 94.7256 95.4043 99.5797 96.2895 103.557" stroke="black" stroke-width="0.75" stroke-linecap="round" stroke-linejoin="round"/>
<path d="M55.789 57.5155C55.7745 55.1609 56.1372 48.6549 60.2801 43.6704C60.8025 43.0329 60.9331 42.178 60.6429 41.4028C60.2511 40.3523 60.1495 38.8091 62.1375 37.7079C65.2936 35.9763 83.9473 33.303 92.2766 50.5169" stroke="black" stroke-width="0.75" stroke-linecap="round" stroke-linejoin="round"/>
<path d="M56.4135 64.8549C56.5223 64.8404 56.6384 64.7897 56.7255 64.7173C59.1923 62.6669 69.8361 54.4802 82.3517 54.799C83.0772 54.8135 83.81 54.8642 84.5428 54.9439C86.2914 55.1322 87.9674 55.6901 89.433 56.5595C91.1816 57.5883 92.6472 59.0735 93.6194 60.9064C93.6847 61.0151 93.7427 61.1238 93.8008 61.2324C93.8225 61.2759 93.8443 61.3266 93.8733 61.3701C93.9531 61.5512 94.2071 61.5512 94.2796 61.3701C94.6134 60.5224 95.2374 58.5591 95.0342 56.0741C94.8528 53.9223 93.8443 51.9517 92.2771 50.5245C91.733 50.0101 91.109 49.5754 90.427 49.2204C89.0049 48.4814 87.104 47.7642 84.6734 47.3947C82.4895 47.0614 80.2694 47.1411 78.0855 47.4816C73.6234 48.1771 65.0039 50.2274 57.1318 56.132C56.6094 56.5233 56.1595 56.9942 55.7968 57.5231C54.9261 58.7619 54.5416 60.2979 54.8028 61.8048C54.9479 62.6525 55.2526 63.5798 55.804 64.5361C55.9419 64.768 56.1886 64.8766 56.428 64.8549H56.4135Z" stroke="black" stroke-width="0.75" stroke-linecap="round" stroke-linejoin="round"/>
<path d="M93.6193 60.8772V60.9062C93.6846 61.3626 94.4755 67.6439 91.196 75.0193C89.2806 79.3372 88.809 82.0613 88.7582 83.6262C88.7364 84.5608 87.8803 85.2346 86.9661 85.0535C85.5586 84.7854 83.469 84.2565 80.9441 83.2567" stroke="black" stroke-width="0.75" stroke-linecap="round" stroke-linejoin="round"/>
<path d="M39.2974 147.114C39.2974 147.114 60.1495 159.546 78.9991 149.207C79.7827 148.78 80.2979 147.99 80.3632 147.106L80.4139 146.469" stroke="black" stroke-width="0.75" stroke-linecap="round" stroke-linejoin="round"/>
<path d="M73.2388 121.705C73.2388 121.705 74.8712 124.784 74.8132 130.29" stroke="black" stroke-width="0.75" stroke-linecap="round" stroke-linejoin="round"/>
<path d="M80.4146 146.461L96.2895 103.564V103.557" stroke="black" stroke-width="0.75" stroke-linecap="round" stroke-linejoin="round"/>
<path d="M79.7036 100.681L82.867 99L107.789 107.462L121.372 100.92L123.273 102.347L106.933 111.382L79.7036 100.681Z" fill="white" stroke="black" stroke-width="0.75" stroke-linecap="round" stroke-linejoin="round"/>
<path d="M59.2964 110.02L60.0589 109.361C60.3058 109.148 60.6742 109.174 60.8879 109.421L80.4328 131.967L78.7816 133.394L59.2367 110.848C59.023 110.601 59.0495 110.234 59.2964 110.02Z" fill="#3A3A3A" stroke="black" stroke-width="0.75" stroke-linecap="round" stroke-linejoin="round"/>
<path d="M78.7886 133.392L82.0825 135.522L80.4356 131.965L78.7886 133.392Z" fill="#E2C9AF" stroke="black" stroke-width="0.75" stroke-linecap="round" stroke-linejoin="round"/>
<path d="M80.6968 134.623L81.3933 134.021L82.0826 135.521L80.6968 134.623Z" fill="#353535" stroke="black" stroke-width="0.75" stroke-linecap="round" stroke-linejoin="round"/>
<path d="M59.2974 110.026L60.0599 109.367C60.3067 109.154 60.6752 109.18 60.8889 109.427L62.3894 111.158L60.7382 112.585L59.2377 110.854C59.024 110.607 59.0505 110.239 59.2974 110.026Z" fill="white" stroke="black" stroke-width="0.75" stroke-linecap="round" stroke-linejoin="round"/>
<path d="M62.3939 111.165L60.7427 112.592L61.3742 113.32L63.0254 111.893L62.3939 111.165Z" fill="#B2B2B2" stroke="black" stroke-width="0.75" stroke-linecap="round" stroke-linejoin="round"/>
<path d="M58.2124 126.82C59.7723 125.879 61.724 124.538 62.8341 123.191C63.1316 122.836 63.3928 122.524 63.625 122.249C64.6697 121.039 66.2152 120.38 67.8114 120.467L73.1586 120.756C74.6968 120.843 76.1043 121.72 76.7791 123.111C76.9895 123.531 77.1636 124.009 77.2942 124.531C77.6497 126.023 78.9194 127.987 79.7828 129.204C80.4939 130.197 79.3475 131.522 78.3027 130.907C78.2519 130.878 78.2084 130.849 78.1576 130.805H77.9545C77.7731 131.109 77.5119 131.377 77.1854 131.573C77.1201 131.609 77.0475 131.653 76.9677 131.689L76.8952 131.747C77.1491 132.116 77.2724 132.558 77.1781 133C77.0693 133.544 76.6775 134.123 75.5384 134.246H75.3788C75.386 134.399 75.357 134.536 75.299 134.674C75.2119 134.848 75.0595 135.007 74.8056 135.101C74.2614 135.304 70.8441 135.377 68.5224 135.413C67.2237 135.427 65.2647 135.797 64.0893 136.347M73.282 128.69L73.028 128.537C72.5999 128.284 72.1211 128.132 71.6277 128.096L70.3653 127.994C71.1851 128.24 72.0703 128.472 72.8974 128.603C73.028 128.624 73.1514 128.653 73.282 128.69Z" fill="#F8CCC2"/>
<path d="M64.0747 136.349C65.2501 135.806 67.2163 135.429 68.5078 135.414C70.8295 135.385 74.2468 135.306 74.791 135.103C75.0449 135.009 75.1973 134.849 75.2844 134.675C75.3497 134.545 75.3787 134.4 75.3642 134.263C75.3497 133.994 75.2191 133.741 75.0014 133.56L74.1815 132.886C73.5721 132.379 72.8175 132.067 72.0267 132.009C69.9371 131.864 67.0422 131.256 66.9624 131.256" stroke="black" stroke-width="0.75" stroke-linecap="round" stroke-linejoin="round"/>
<path d="M78.1576 130.813C78.2084 130.849 78.2519 130.885 78.3027 130.914C79.3548 131.537 80.4939 130.204 79.7828 129.212C78.9194 127.995 77.6497 126.024 77.2942 124.539C77.1709 124.01 76.9895 123.539 76.7791 123.119C76.1043 121.728 74.6968 120.851 73.1586 120.764L67.8114 120.474C66.2079 120.387 64.6697 121.047 63.625 122.257C63.3928 122.525 63.1316 122.836 62.8341 123.199C61.724 124.546 59.7723 125.886 58.2124 126.828" stroke="black" stroke-width="0.75" stroke-linecap="round" stroke-linejoin="round"/>
<path d="M70.7643 124.09C71.4028 124.256 72.063 124.409 72.6942 124.51C73.9422 124.713 75.103 125.3 75.9664 126.227L77.6279 128.009C78.368 128.792 78.4623 129.958 77.9544 130.813C77.773 131.117 77.5118 131.378 77.1853 131.574C77.12 131.61 77.0475 131.654 76.9677 131.69" stroke="black" stroke-width="0.75" stroke-linecap="round" stroke-linejoin="round"/>
<path d="M67.2749 122.98C67.2749 122.98 68.9001 123.604 70.7503 124.089" stroke="black" stroke-width="0.75" stroke-linecap="round" stroke-linejoin="round"/>
<path d="M73.2896 128.689C73.9425 128.863 74.5375 129.226 75.0018 129.725L76.7141 131.529C76.7794 131.595 76.8375 131.674 76.8883 131.754C77.1422 132.124 77.2655 132.565 77.1712 133.007C77.0624 133.551 76.6706 134.13 75.5315 134.254" stroke="black" stroke-width="0.75" stroke-linecap="round" stroke-linejoin="round"/>
<path d="M70.3726 127.988C71.1924 128.235 72.0776 128.466 72.9047 128.597C73.0353 128.619 73.1586 128.648 73.2892 128.684" stroke="black" stroke-width="0.75" stroke-linecap="round" stroke-linejoin="round"/>
<path d="M67.1948 126.844C67.1948 126.844 68.6387 127.46 70.3727 127.988" stroke="black" stroke-width="0.75" stroke-linecap="round" stroke-linejoin="round"/>
<path d="M70.7495 124.09H70.764L72.4763 124.191C72.8899 124.213 73.2962 124.452 73.6009 124.735" stroke="black" stroke-width="0.75" stroke-linecap="round" stroke-linejoin="round"/>
<path d="M70.3657 127.988L71.6282 128.09C72.1215 128.126 72.6004 128.285 73.0285 128.532L73.2824 128.684" stroke="black" stroke-width="0.75" stroke-linecap="round" stroke-linejoin="round"/>
<path d="M97.988 145.867C97.988 145.867 99.4391 147.62 102.842 147.273C103.531 147.207 104.199 147.048 104.837 146.831C104.837 146.831 100.564 150.229 93.4243 149.533L97.988 145.867Z" fill="white"/>
<path d="M115.125 119.211C115.604 119.385 115.96 119.82 116.003 120.356L116.33 124.138C116.431 125.312 116.417 126.493 116.286 127.666L115.93 130.811C115.669 133.085 114.864 135.273 113.587 137.172L109.567 143.127C108.414 144.837 106.752 146.163 104.837 146.829C104.198 147.054 103.538 147.206 102.842 147.271C99.4389 147.619 97.9878 145.865 97.9878 145.865L101.536 142.902C101.398 142.171 101.391 141.149 101.797 139.794C102.421 137.7 104.111 135.375 105.214 134.006C105.867 133.194 106.15 132.151 106.027 131.122L105.468 126.666C105.396 126.051 105.737 125.464 106.31 125.232C106.44 125.174 106.585 125.145 106.716 125.131C107.391 125.073 108.037 125.522 108.174 126.225L109.27 131.673L110.554 128.152C110.997 126.927 110.961 125.587 110.445 124.392L109.459 122.095C109.197 121.486 109.437 120.784 110.01 120.458C110.177 120.356 110.358 120.305 110.54 120.291C111.062 120.247 111.592 120.523 111.824 121.03L113.072 123.653C113.311 124.153 113.456 124.689 113.5 125.225L113.311 120.559C113.29 120.197 113.413 119.864 113.631 119.603C113.848 119.349 114.167 119.182 114.53 119.146C114.733 119.132 114.922 119.161 115.103 119.219L115.125 119.211Z" fill="#F8CCC2"/>
<path d="M113.332 120.553L113.521 125.219C113.477 124.676 113.332 124.147 113.093 123.647L111.845 121.024C111.606 120.517 111.083 120.242 110.561 120.285C110.379 120.3 110.198 120.358 110.031 120.452C109.458 120.778 109.226 121.481 109.48 122.089L110.466 124.386C110.982 125.581 111.018 126.921 110.575 128.146L109.291 131.667L108.196 126.219C108.058 125.516 107.405 125.067 106.737 125.125C106.599 125.139 106.461 125.168 106.331 125.226C105.75 125.458 105.409 126.045 105.489 126.661L106.048 131.116C106.179 132.16 105.874 133.21 105.214 134.036C104.111 135.413 102.442 137.709 101.825 139.788C101.419 141.143 101.419 142.172 101.564 142.897L98.0161 145.86L93.4525 149.526L91.6313 150.989L108.065 110.258L123.388 102.296C123.526 102.224 123.679 102.376 123.613 102.513L115.161 119.206C114.979 119.14 114.791 119.111 114.588 119.133C114.225 119.162 113.906 119.336 113.688 119.59C113.47 119.85 113.34 120.184 113.369 120.546L113.332 120.553Z" fill="#275A26"/>
<path d="M108.029 110.258L91.5955 150.989L66.1216 140.665C65.4904 140.411 65.1712 139.701 65.4034 139.064L78.8477 101.339C79.0799 100.68 79.8054 100.332 80.4729 100.564L108.036 110.258H108.029Z" fill="#275A26"/>
<path d="M102.196 144.367C102.196 144.367 101.731 143.91 101.536 142.903C101.398 142.172 101.39 141.15 101.797 139.795C102.421 137.702 104.111 135.376 105.214 134.007C105.867 133.195 106.15 132.152 106.027 131.123L105.468 126.668C105.395 126.052 105.736 125.465 106.31 125.233C106.44 125.175 106.585 125.146 106.716 125.132C107.391 125.074 108.036 125.523 108.174 126.226L109.27 131.674L110.554 128.153C110.997 126.928 110.96 125.588 110.445 124.393L109.458 122.096C109.197 121.487 109.437 120.785 110.01 120.459C110.177 120.357 110.358 120.307 110.54 120.292C111.062 120.249 111.592 120.524 111.824 121.031L113.072 123.654C113.311 124.154 113.456 124.69 113.5 125.226C113.551 125.69 113.536 126.153 113.449 126.61L112.252 132.949" stroke="black" stroke-width="0.75" stroke-linecap="round" stroke-linejoin="round"/>
<path d="M101.535 142.903L97.9875 145.866C97.9875 145.866 99.4386 147.62 102.841 147.272C103.531 147.207 104.198 147.047 104.837 146.83C106.752 146.163 108.414 144.838 109.567 143.128L113.587 137.173C114.864 135.274 115.676 133.094 115.93 130.811L116.286 127.667C116.416 126.501 116.431 125.313 116.329 124.139L116.003 120.357C115.959 119.821 115.597 119.386 115.125 119.212C114.944 119.147 114.755 119.118 114.552 119.14C114.189 119.169 113.87 119.343 113.652 119.596C113.434 119.857 113.304 120.19 113.333 120.553L113.521 125.218" stroke="black" stroke-width="0.75" stroke-linecap="round" stroke-linejoin="round"/>
<path d="M93.4162 149.532L91.5951 150.995L108.029 110.264L123.352 102.302C123.49 102.23 123.642 102.382 123.577 102.519L115.124 119.212" stroke="black" stroke-width="0.75" stroke-linecap="round" stroke-linejoin="round"/>
<path d="M97.9879 145.867L93.4242 149.533" stroke="black" stroke-width="0.75" stroke-linecap="round" stroke-linejoin="round"/>
<path d="M108.029 110.258L80.8285 100.687C79.9651 100.383 79.0218 100.832 78.7099 101.694L65.5195 138.709C65.222 139.542 65.6356 140.469 66.4627 140.802L91.5955 150.989" stroke="black" stroke-width="0.75" stroke-linecap="round" stroke-linejoin="round"/>
<path d="M104.837 146.83C104.837 146.83 100.564 150.228 93.4242 149.533" stroke="black" stroke-width="0.75" stroke-linecap="round" stroke-linejoin="round"/>
<path d="M55.8403 125.269L57.7558 124.755C58.9311 124.436 60.1428 125.139 60.4548 126.312C61.1223 128.819 62.363 132.999 63.8794 135.854C64.5323 137.071 63.9156 138.578 62.5951 138.984" fill="white"/>
<path d="M55.8403 125.269L57.7558 124.755C58.9311 124.436 60.1428 125.139 60.4548 126.312C61.1223 128.819 62.363 132.999 63.8794 135.854C64.5323 137.071 63.9156 138.578 62.5951 138.984" stroke="black" stroke-width="0.75" stroke-linecap="round" stroke-linejoin="round"/>
<path d="M83.2655 75.9183C83.2655 75.9183 82.0248 77.2949 81.321 78.0918C80.6173 78.8815 79.8119 78.9902 78.5349 78.7294C76.9097 78.3961 75.4224 74.5418 75.4224 74.5418C75.4224 74.5418 80.3851 74.4621 83.2655 75.9183Z" fill="#FFFCFF"/>
<path d="M83.2655 75.9183C80.3851 74.4621 75.4224 74.5418 75.4224 74.5418C75.4224 74.5418 76.9097 78.3888 78.5349 78.7294C79.8192 78.9902 80.6173 78.8815 81.321 78.0918C82.0248 77.2949 83.2655 75.9183 83.2655 75.9183Z" fill="#F8CCC2"/>
<path d="M83.2655 66.637C83.2655 66.637 82.4384 68.1584 83.1349 70.1363C83.7806 71.962 83.5412 72.8893 80.9583 73.0052" stroke="black" stroke-width="0.75" stroke-linecap="round" stroke-linejoin="round"/>
<path d="M75.4224 74.5418C75.4224 74.5418 80.3851 74.4621 83.2655 75.9183C83.2655 75.9183 82.0248 77.2949 81.321 78.0918C80.6173 78.8815 79.8119 78.9902 78.5349 78.7294C76.9097 78.3961 75.4224 74.5418 75.4224 74.5418Z" fill="white" stroke="black" stroke-width="0.75" stroke-linecap="round" stroke-linejoin="round"/>
<path d="M75.8501 61.5075C75.8501 61.5075 77.4535 60.3555 79.6229 60.9931" stroke="black" stroke-width="0.75" stroke-linecap="round" stroke-linejoin="round"/>
<path d="M85.8335 61.9268C85.8335 61.9268 87.2411 61.8036 88.1988 63.1512" stroke="black" stroke-width="0.75" stroke-linecap="round" stroke-linejoin="round"/>
<path d="M78.0273 64.4991C78.499 64.5426 78.8327 65.0497 78.7819 65.6365C78.7311 66.2234 78.3031 66.6726 77.8314 66.6291C77.3598 66.5856 77.0261 66.0785 77.0769 65.4844C77.1277 64.8903 77.5557 64.4556 78.0201 64.4991H78.0273Z" fill="black"/>
<path d="M86.0156 66.1378C86.4872 66.1812 86.821 66.6884 86.7702 67.2752C86.7194 67.862 86.2913 68.3112 85.8197 68.2678C85.3481 68.2243 85.0144 67.7172 85.0652 67.1231C85.116 66.529 85.544 66.0943 86.0084 66.1378H86.0156Z" fill="black"/>
<path d="M31.1938 127.958C31.1938 127.958 35.4891 124.915 41.4095 127.523" stroke="black" stroke-width="0.75" stroke-linecap="round" stroke-linejoin="round"/>
<path d="M57.93 86.3145C57.93 86.3145 56.8054 93.9651 63.3208 96.8558" stroke="black" stroke-width="0.75" stroke-linecap="round" stroke-linejoin="round"/>
<path d="M67.7759 98.0571C67.7759 98.0571 76.8524 99.564 78.8985 91.4062" stroke="black" stroke-width="0.75" stroke-linecap="round" stroke-linejoin="round"/>
<path d="M57.6763 126.93C57.6763 126.93 58.293 133.457 62.1892 137.667" stroke="black" stroke-width="0.75" stroke-linecap="round" stroke-linejoin="round"/>
<path d="M109.61 113.425L107.31 119.033L116.786 113.005L119.347 108.129L109.61 113.425Z" fill="white" stroke="black" stroke-width="0.75" stroke-linecap="round" stroke-linejoin="round"/>
<path d="M83.0913 100.348L106.381 108.382" stroke="black" stroke-width="0.75" stroke-linecap="round" stroke-linejoin="round"/>
<path d="M109.044 108.157L121.371 102.064" stroke="black" stroke-width="0.75" stroke-linecap="round" stroke-linejoin="round"/>
<path d="M59.5835 55.5078C59.5835 55.5078 59.4094 59.1013 60.3018 60.9705" stroke="black" stroke-width="0.75" stroke-linecap="round" stroke-linejoin="round"/>
<path d="M64.4595 53.1328C64.4595 53.1328 64.8295 55.9873 65.6566 58.0304" stroke="black" stroke-width="0.75" stroke-linecap="round" stroke-linejoin="round"/>
<path d="M70.1772 50.5312C70.1772 50.5312 71.1059 53.2916 71.6936 55.3129" stroke="black" stroke-width="0.75" stroke-linecap="round" stroke-linejoin="round"/>
<path d="M75.8003 48.7422C75.8003 48.7422 76.9757 51.3214 77.5053 53.9585" stroke="black" stroke-width="0.75" stroke-linecap="round" stroke-linejoin="round"/>
<path d="M81.7563 47.9453C81.7563 47.9453 83.2074 50.2564 83.7008 53.6253" stroke="black" stroke-width="0.75" stroke-linecap="round" stroke-linejoin="round"/>
<path d="M88.7075 49.373C88.7075 49.373 90.6883 52.0464 90.4851 55.8428" stroke="black" stroke-width="0.75" stroke-linecap="round" stroke-linejoin="round"/>
<path d="M65.7217 65.8268C65.7217 65.8268 64.3069 64.8559 63.516 66.3122C62.7252 67.7684 64.3214 70.833 66.0989 70.7533" stroke="black" stroke-width="0.75" stroke-linecap="round" stroke-linejoin="round"/>
<path d="M35.394 155.33C35.394 155.33 48.1781 162.09 62.1884 160.459" stroke="black" stroke-width="0.75" stroke-linecap="round" stroke-linejoin="round"/>
<path d="M65.9897 160.162C65.9897 160.162 73.8619 159.076 78.2732 156.178" stroke="black" stroke-width="0.75" stroke-linecap="round" stroke-linejoin="round"/>
<path d="M59.852 187.634C59.852 187.634 49.9629 181.534 46.4585 177.977" stroke="black" stroke-width="0.75" stroke-linecap="round" stroke-linejoin="round"/>
<path d="M74.8133 182.802C74.8133 182.802 67.9206 178.998 63.5093 174.166" stroke="black" stroke-width="0.75" stroke-linecap="round" stroke-linejoin="round"/>
<path d="M85.4567 181.477C85.4567 181.477 77.5338 175.986 74.813 173.385" stroke="black" stroke-width="0.75" stroke-linecap="round" stroke-linejoin="round"/>
<path d="M97.7908 181.113C97.5514 181.113 88.7215 175.513 86.4868 173.637" stroke="black" stroke-width="0.75" stroke-linecap="round" stroke-linejoin="round"/>
<path d="M33.1597 164.27C33.1597 164.27 42.6498 165.661 45.3706 159.561" stroke="black" stroke-width="0.75" stroke-linecap="round" stroke-linejoin="round"/>
<path d="M77.7153 157.684C77.7153 157.684 78.927 159.437 81.7639 159.553" stroke="black" stroke-width="0.75" stroke-linecap="round" stroke-linejoin="round"/>
<path d="M41.1984 148.629L39.8706 156.598" stroke="black" stroke-width="0.75" stroke-linecap="round" stroke-linejoin="round"/>
<path d="M44.3105 155.663C45.3964 155.663 46.2767 154.784 46.2767 153.7C46.2767 152.615 45.3964 151.736 44.3105 151.736C43.2245 151.736 42.3442 152.615 42.3442 153.7C42.3442 154.784 43.2245 155.663 44.3105 155.663Z" fill="#7F7F7F" stroke="black" stroke-width="0.75" stroke-linecap="round" stroke-linejoin="round"/>
</g>
</g>
<defs>
<clipPath id="clip0_251_160">
<rect width="160" height="184" fill="white"/>
</clipPath>
<clipPath id="clip1_251_160">
<rect width="116" height="251" fill="white" transform="translate(22.3052 36.1582)"/>
</clipPath>
</defs>
</svg>
