<svg width="174" height="184" viewBox="0 0 174 184" fill="none" xmlns="http://www.w3.org/2000/svg">
<g clip-path="url(#clip0_251_417)">
<g clip-path="url(#clip1_251_417)">
<path d="M107.949 143.775C107.949 143.775 117.509 154.899 109.05 166.455C102.179 175.842 79.6159 184.422 68.0335 188.226C65.1995 189.163 63.5325 192.059 64.1558 194.963C65.1271 199.451 66.1925 206.908 65.9026 217.246C65.5329 230.192 66.5259 237.937 67.1927 241.525C67.5117 243.247 66.7361 244.998 65.2213 245.898C62.9816 247.231 59.3141 248.578 54.4869 247.454C52.8126 247.065 51.5297 245.711 51.2398 244.025C49.9641 236.576 46.0357 214.155 42.0565 196.699C39.9763 187.564 43.3032 178.047 50.6165 172.139L87.9004 141.988L107.956 143.761L107.949 143.775Z" fill="#045D9D" stroke="black" stroke-width="0.75" stroke-linecap="round" stroke-linejoin="round"/>
<path d="M104.028 146.023C104.028 146.023 104.115 146.391 104.187 147.061" stroke="black" stroke-width="0.75" stroke-linecap="round" stroke-linejoin="round"/>
<path d="M104.296 149.172C104.289 154.712 102.056 166.318 85.0958 173.89C74.1512 178.782 67.4106 182.067 63.3589 184.171C60.0248 185.9 58.1765 189.56 58.7636 193.249C59.6334 198.681 60.6554 206.771 60.2132 212.737C59.6117 220.726 62.0905 237.059 63.0255 242.837" stroke="black" stroke-width="0.75" stroke-linecap="round" stroke-linejoin="round"/>
<path d="M126.576 139.842C126.576 139.842 137.752 149.359 131.2 162.082C125.88 172.413 104.926 184.365 94.0753 189.92C91.4153 191.282 90.2266 194.401 91.2993 197.175C92.9591 201.461 95.177 208.659 96.4962 218.918C98.1487 231.763 100.345 239.263 101.555 242.707C102.142 244.364 101.642 246.208 100.294 247.332C98.2937 248.996 94.8799 250.891 89.9295 250.531C88.2117 250.408 86.7331 249.263 86.1895 247.642C83.7686 240.481 76.3901 218.939 69.7364 202.304C66.2501 193.601 68.0621 183.688 74.3607 176.721L106.491 141.189L126.576 139.849V139.842Z" fill="#045D9D" stroke="black" stroke-width="0.75" stroke-linecap="round" stroke-linejoin="round"/>
<path d="M123.053 142.666C123.053 142.666 123.191 143.019 123.372 143.667" stroke="black" stroke-width="0.75" stroke-linecap="round" stroke-linejoin="round"/>
<path d="M123.807 145.734C124.662 151.21 124.271 163.018 108.695 173.111C98.6416 179.631 92.5025 183.918 88.8277 186.612C85.8053 188.831 84.5442 192.729 85.7038 196.288C87.4144 201.518 89.683 209.357 90.1759 215.315C90.8282 223.305 95.8221 239.054 97.6486 244.623" stroke="black" stroke-width="0.75" stroke-linecap="round" stroke-linejoin="round"/>
<path d="M112.283 39.2382C116.674 39.2382 120.234 35.6998 120.234 31.3349C120.234 26.9701 116.674 23.4316 112.283 23.4316C107.891 23.4316 104.331 26.9701 104.331 31.3349C104.331 35.6998 107.891 39.2382 112.283 39.2382Z" fill="#353231" stroke="black" stroke-width="0.75" stroke-linecap="round" stroke-linejoin="round"/>
<path d="M45.7166 155.642L62.3581 162.709H62.3726C63.3148 163.372 64.2498 164.078 65.1703 164.827L45.9123 156.845C45.7238 156.773 45.5933 156.607 45.5643 156.413L45.3687 155.238H45.3904C45.4194 155.411 45.5354 155.562 45.7166 155.642Z" fill="#275A26"/>
<path d="M46.2384 154.741C46.2384 154.741 54.3997 157.133 62.3581 162.709L45.7166 155.642C45.5354 155.563 45.4194 155.411 45.3904 155.238C45.3469 155.051 45.3904 154.849 45.5498 154.705L46.1659 154.129L46.2384 154.741Z" fill="#275A26"/>
<path d="M94.409 169.964L65.1704 164.827C65.9387 164.632 66.707 164.467 67.468 164.33L95.489 168.508L108.688 155.288C110.253 154.712 111.688 154.049 112.413 153.379L103.418 162.521L96.8734 169.171C96.2355 169.819 95.315 170.115 94.409 169.949V169.964Z" fill="#275A26"/>
<path d="M94.2351 166.823L104.984 156.492C106.086 156.175 107.419 155.765 108.673 155.289L95.4746 168.509L67.4536 164.331C80.9567 161.816 94.2206 166.831 94.2206 166.831L94.2351 166.823Z" fill="#E5E5E5"/>
<path d="M64.8155 164.266C64.9387 164.453 65.0547 164.641 65.1707 164.828C64.2502 164.079 63.3152 163.373 62.3729 162.717H62.3584C54.4001 157.134 46.2388 154.742 46.2388 154.742L46.1663 154.129L45.9126 152.076C45.9126 152.076 60.4232 158.02 64.7938 164.252C64.7938 164.252 64.7938 164.266 64.8083 164.273L64.8155 164.266Z" fill="#E5E5E5"/>
<path d="M47.2748 151.059C50.7321 152.435 59.9516 156.642 64.8006 164.243C60.4228 158.011 45.9194 152.067 45.9194 152.067L47.2821 151.059H47.2748Z" fill="white"/>
<path d="M48.4416 149.258C52.2033 150.836 61.7128 155.605 65.1628 164.834C65.0469 164.639 64.9309 164.459 64.8077 164.272C64.8077 164.272 64.8077 164.257 64.7932 164.25C59.9515 156.65 50.732 152.442 47.2674 151.066C46.4121 150.735 45.9048 150.569 45.9048 150.569L48.4271 149.272L48.4416 149.258Z" fill="white"/>
<path d="M67.4679 164.33C66.6996 164.474 65.9313 164.64 65.1703 164.827L85.5373 146.975C85.5373 146.975 93.8798 145.26 102.476 145.483C106.216 145.584 110.014 146.052 113.181 147.198C111.826 147.688 110.275 148.531 108.84 149.936C106.499 152.219 104.172 153.531 102.78 154.172C102.099 154.489 101.787 155.296 102.077 155.995C102.302 156.542 102.831 156.881 103.396 156.881C103.527 156.881 103.65 156.859 103.773 156.83C104.121 156.737 104.534 156.628 104.984 156.499L94.2349 166.83C94.2349 166.83 80.971 161.816 67.4679 164.33Z" fill="white"/>
<path d="M85.5377 146.974L65.1707 164.827C61.7206 155.598 52.2112 150.828 48.4494 149.25C47.4782 148.847 46.8911 148.653 46.8911 148.653L67.3378 136.405L70.1863 134.77L72.8826 135.526L74.1293 135.872C74.1293 135.872 82.4863 139.287 85.5449 146.967L85.5377 146.974Z" fill="white"/>
<path d="M114.537 62.7544C115.986 62.5311 117.936 61.5729 118.893 58.2373C120.408 52.9636 115.769 51.7316 114.334 53.4031C114 53.7921 113.486 53.9794 112.964 54.0082C110.659 54.1379 105.035 53.2446 99.2361 43.216C99.2361 43.216 98.7505 47.2649 101.44 50.406C101.44 50.406 96.6558 48.432 94.6771 42.7765C94.6771 42.7765 93.6044 47.3081 97.7865 50.2403C97.7865 50.2403 94.1697 49.9882 92.0895 44.4335C91.1545 46.2058 90.1616 49.2965 90.7994 53.893C90.9733 55.1538 91.1546 56.4578 91.372 57.7762C91.372 57.7762 84.5008 57.1566 88.7627 44.0301C92.2055 33.4612 99.729 32.2868 102.519 32.2292C103.201 32.2148 103.882 32.1139 104.527 31.905C106.491 31.2638 111.282 30.3416 116.226 34.2681C122.669 39.3904 129.316 59.2675 114.421 63.7198C114.457 63.1651 114.522 62.8193 114.537 62.7544Z" fill="#353231"/>
<path d="M132.164 130.247C132.483 126.961 130.468 122.322 129.504 117.329C129.482 117.243 129.004 115.024 128.982 114.93L128.004 117.329C128.004 117.329 123.604 127.149 126.395 134.937C128.496 133.301 130.888 131.392 132.164 130.239V130.247ZM86.3201 121.335C83.7035 129.36 72.9185 135.369 72.9185 135.369L77.3905 90.6509C84.1167 88.9434 102.135 78.3529 102.135 78.3529C102.085 79.2823 101.925 80.2621 101.584 81.2563C101.584 81.2563 98.8955 89.5774 106.143 89.1524C113.392 88.7273 117.632 80.4566 117.632 80.4566C117.907 79.9811 118.146 79.5128 118.342 79.0661C119.125 77.2578 118.806 75.1757 117.516 73.6772C117.443 73.598 117.378 73.5187 117.313 73.4395C117.313 73.4395 124.177 77.2002 130.896 80.1324C137.614 83.0646 140.883 84.7216 141.47 90.1105C142.058 95.4995 147.53 114.447 147.965 118.604C148.4 122.768 152.69 131.731 147.428 137.494C143.282 142.033 137.129 146.111 134.708 147.638C134.237 147.933 133.628 147.638 133.541 147.098C133.476 146.665 133.374 146.147 133.222 145.57C132.483 142.775 130.54 138.726 125.452 138.027L119.966 143.409C114.095 145.117 107.905 145.513 102.469 145.34C96.6703 145.145 91.7271 144.317 88.9584 143.748C87.7117 143.496 86.9652 142.256 87.3058 141.039C88.8424 135.434 88.3133 128.856 87.8204 125.247C87.6247 123.835 87.0956 122.509 86.3128 121.327L86.3201 121.335Z" fill="#4ECBD1"/>
<path d="M112.406 153.386C111.681 154.049 110.246 154.719 108.68 155.296C107.426 155.771 106.093 156.182 104.991 156.492C104.541 156.628 104.128 156.737 103.78 156.83C103.657 156.859 103.534 156.881 103.404 156.881C102.838 156.881 102.309 156.542 102.084 155.995C101.794 155.296 102.106 154.489 102.787 154.172C104.172 153.531 106.506 152.227 108.847 149.936C110.282 148.523 111.833 147.688 113.188 147.198C113.92 146.931 114.594 146.758 115.16 146.65C116.406 146.42 117.537 145.815 118.436 144.943L119.98 143.423L125.467 138.041C130.555 138.74 132.497 142.796 133.236 145.584L123.307 151.139C122.821 151.405 122.379 151.737 121.973 152.104L115.696 157.954C114.051 159.481 112.021 160.562 109.825 161.066L103.411 162.536L112.406 153.394V153.386Z" fill="#F8CCC2"/>
<path d="M112.195 64.0579C112.521 63.3519 113.188 62.8332 113.964 62.8043C114.145 62.8043 114.333 62.7755 114.529 62.7539C114.515 62.8187 114.449 63.1646 114.413 63.7193C114.348 64.6127 114.326 66.0319 114.652 67.6673C114.942 69.1875 115.522 70.8805 116.624 72.5087C116.834 72.8257 117.066 73.1427 117.32 73.4525C117.385 73.5318 117.45 73.611 117.523 73.6903C118.813 75.1816 119.132 77.2709 118.349 79.0792C118.153 79.5259 117.914 79.9942 117.639 80.4697C117.639 80.4697 113.398 88.7404 106.15 89.1654C98.9024 89.5977 101.591 81.2693 101.591 81.2693C101.932 80.2751 102.091 79.2953 102.142 78.3659C102.331 75.0447 101.041 72.3935 101.041 72.3935C101.185 72.4367 101.338 72.4727 101.49 72.5087C101.577 72.5303 101.664 72.5375 101.744 72.552C102.41 72.6528 103.106 72.5664 103.737 72.2926C105.745 71.4064 109.97 69.0434 112.195 64.0723V64.0579Z" fill="#F8CCC2"/>
<path d="M90.7925 53.9075C90.1547 49.311 91.1476 46.2203 92.0826 44.448C94.1628 50.0099 97.7796 50.2548 97.7796 50.2548C93.5902 47.3226 94.6702 42.791 94.6702 42.791C96.6562 48.4465 101.433 50.4205 101.433 50.4205C98.7436 47.2794 99.2292 43.2305 99.2292 43.2305C105.028 53.2591 110.652 54.1452 112.957 54.0228C113.479 53.9939 113.993 53.8066 114.327 53.4176C115.762 51.7461 120.401 52.9781 118.886 58.2518C117.929 61.5802 115.979 62.5456 114.53 62.769C114.327 62.7978 114.146 62.8194 113.964 62.8194C113.182 62.8482 112.522 63.3669 112.196 64.073C109.964 69.0512 105.745 71.4143 103.737 72.2932C103.114 72.567 102.418 72.6607 101.744 72.5526C101.665 72.5382 101.578 72.5238 101.491 72.5094C101.338 72.4734 101.186 72.4373 101.041 72.3869C100.113 72.142 99.2799 71.8105 98.5334 71.3999C93.8512 68.8279 92.2711 63.2805 91.3651 57.7907C91.1476 56.4795 90.9664 55.1683 90.7925 53.9075ZM102.846 56.5587C103.31 56.5155 103.636 56.004 103.578 55.4204C103.52 54.8441 103.085 54.4118 102.621 54.4622C102.157 54.5127 101.831 55.017 101.889 55.5933C101.947 56.1769 102.382 56.6092 102.846 56.5587ZM94.3875 58.8353C94.8586 58.7921 95.1848 58.2806 95.1196 57.697C95.0616 57.1207 94.6339 56.6884 94.1628 56.7388C93.699 56.7893 93.3728 57.2936 93.4308 57.8699C93.496 58.4535 93.9236 58.8858 94.3875 58.8353Z" fill="#F8CCC2"/>
<path d="M103.585 55.4202C103.643 56.0038 103.316 56.5153 102.853 56.5585C102.389 56.6089 101.954 56.1767 101.896 55.5931C101.838 55.0168 102.164 54.5052 102.628 54.462C103.092 54.4188 103.527 54.8438 103.585 55.4202Z" fill="black"/>
<path d="M95.1266 57.6975C95.1919 58.2811 94.8657 58.7926 94.3946 58.8358C93.9307 58.8863 93.5031 58.454 93.4378 57.8705C93.3798 57.2941 93.706 56.7898 94.1699 56.7394C94.641 56.6961 95.0686 57.1212 95.1266 57.6975Z" fill="black"/>
<path d="M114.537 62.7553C115.986 62.5319 117.936 61.5738 118.893 58.2381C120.408 52.9644 115.769 51.7325 114.334 53.4039C114 53.7929 113.486 53.9803 112.964 54.0091C110.659 54.1388 105.035 53.2454 99.2361 43.2168C99.2361 43.2168 98.7505 47.2657 101.44 50.4069C101.44 50.4069 96.6558 48.4328 94.6771 42.7773C94.6771 42.7773 93.6044 47.3089 97.7865 50.2412C97.7865 50.2412 94.1697 49.989 92.0895 44.4344C91.1545 46.2067 90.1616 49.2974 90.7994 53.8938C90.9733 55.1546 91.1545 56.4586 91.372 57.777C92.278 63.2668 93.8581 68.807 98.5403 71.3862C99.2868 71.7969 100.12 72.1283 101.048 72.3732C101.193 72.4237 101.345 72.4597 101.498 72.4957C101.584 72.5173 101.671 72.5245 101.751 72.5389C102.418 72.6398 103.114 72.5533 103.744 72.2796C105.752 71.3934 109.978 69.0304 112.203 64.0593C112.529 63.3533 113.196 62.8345 113.971 62.8057C114.153 62.8057 114.341 62.7769 114.537 62.7553Z" stroke="black" stroke-width="0.75" stroke-linecap="round" stroke-linejoin="round"/>
<path d="M101.041 72.3876C101.041 72.3876 102.331 75.0388 102.142 78.3601C102.091 79.2895 101.932 80.2693 101.591 81.2635C101.591 81.2635 98.9024 89.5846 106.15 89.1596C113.398 88.7345 117.639 80.4638 117.639 80.4638C117.914 79.9883 118.153 79.52 118.349 79.0733C119.132 77.265 118.813 75.1829 117.523 73.6844C117.45 73.6052 117.385 73.5259 117.32 73.4467C117.066 73.1369 116.834 72.8271 116.624 72.5029C115.522 70.8747 114.942 69.1816 114.652 67.6615C114.333 66.0261 114.348 64.6068 114.413 63.7134C114.449 63.1587 114.515 62.8129 114.529 62.748" stroke="black" stroke-width="0.75" stroke-linecap="round" stroke-linejoin="round"/>
<path d="M91.3647 57.7842C91.3647 57.7842 84.4936 57.1646 88.7554 44.0381C92.1983 33.4692 99.7217 32.2949 102.512 32.2372C103.194 32.2228 103.875 32.122 104.52 31.913C106.484 31.2719 111.275 30.3497 116.218 34.2761C122.662 39.3985 129.098 59.326 114.414 63.7279" stroke="black" stroke-width="0.75" stroke-linecap="round" stroke-linejoin="round"/>
<path d="M96.7935 55.8828C96.7935 55.8828 97.6995 57.3957 97.1631 60.3424C97.0544 60.9475 97.3081 61.5599 97.8444 61.8697C98.3373 62.1579 99.0476 62.3812 99.9826 62.2083" stroke="black" stroke-width="0.75" stroke-linecap="round" stroke-linejoin="round"/>
<path d="M99.6565 66.3215C99.6565 66.3215 102.606 66.0045 104.324 63.4397" stroke="black" stroke-width="0.75" stroke-linecap="round" stroke-linejoin="round"/>
<path d="M91.3354 53.7284C91.3354 53.7284 92.3574 52.3379 94.1549 53.1952" stroke="black" stroke-width="0.75" stroke-linecap="round" stroke-linejoin="round"/>
<path d="M99.9827 51.6172C99.9827 51.6172 101.628 49.4775 104.6 51.0048" stroke="black" stroke-width="0.75" stroke-linecap="round" stroke-linejoin="round"/>
<path d="M86.0232 93.748C86.0232 93.748 85.3636 104.396 84.1605 109.735C83.6313 112.076 83.5661 114.518 84.1894 116.846C84.5591 118.2 85.1534 119.662 86.1392 121.06C86.2044 121.147 86.2696 121.247 86.3276 121.341C87.1104 122.523 87.6395 123.848 87.8352 125.26C88.3281 128.863 88.8499 135.447 87.3206 141.052C86.9872 142.27 87.7337 143.509 88.9732 143.761C91.7419 144.33 96.6851 145.166 102.484 145.354C107.92 145.526 114.109 145.137 119.98 143.423" stroke="black" stroke-width="0.75" stroke-linecap="round" stroke-linejoin="round"/>
<path d="M128.989 114.93C128.989 114.93 123.611 127.156 126.395 134.944" stroke="black" stroke-width="0.75" stroke-linecap="round" stroke-linejoin="round"/>
<path d="M76.5278 78.3594C76.5278 78.3594 79.7605 78.381 84.2398 80.8377" stroke="black" stroke-width="0.75" stroke-linecap="round" stroke-linejoin="round"/>
<path d="M102.142 78.3594C102.142 78.3594 84.1235 88.9427 77.3973 90.6574L72.9253 135.375C72.9253 135.375 83.7104 129.36 86.3269 121.341C86.3269 121.341 86.3269 121.32 86.3269 121.312" stroke="black" stroke-width="0.75" stroke-linecap="round" stroke-linejoin="round"/>
<path d="M117.328 73.4473C117.328 73.4473 124.192 77.208 130.91 80.1402C137.629 83.0724 140.898 84.7294 141.485 90.1184C142.072 95.5073 147.545 114.455 147.98 118.612C148.415 122.776 152.705 131.738 147.443 137.502C143.297 142.041 137.144 146.119 134.723 147.646C134.252 147.941 133.643 147.646 133.556 147.106C133.491 146.673 133.389 146.155 133.237 145.578C132.498 142.783 130.555 138.734 125.467 138.035C125.214 137.999 124.96 137.97 124.684 137.949C123.974 137.905 123.699 137.027 124.257 136.594C124.873 136.112 125.612 135.542 126.388 134.93C128.49 133.295 130.881 131.385 132.157 130.233C134.737 127.906 140.608 125.989 146.088 128.871" stroke="black" stroke-width="0.75" stroke-linecap="round" stroke-linejoin="round"/>
<path d="M125.467 101.594C125.467 101.594 128.432 111.954 129.446 117.054C129.468 117.148 129.483 117.249 129.504 117.335C130.468 122.321 132.491 126.968 132.164 130.253" stroke="black" stroke-width="0.75" stroke-linecap="round" stroke-linejoin="round"/>
<path d="M125.467 96.0679C125.467 96.0679 127.41 85.4414 135.303 84.4688" stroke="black" stroke-width="0.75" stroke-linecap="round" stroke-linejoin="round"/>
<path d="M135.947 98.627C135.947 98.627 134.418 106.552 131.2 111.271" stroke="black" stroke-width="0.75" stroke-linecap="round" stroke-linejoin="round"/>
<path d="M134.904 127.047C134.904 127.047 138.448 123.848 143.681 125.289" stroke="black" stroke-width="0.75" stroke-linecap="round" stroke-linejoin="round"/>
<path d="M119.356 118.885C119.356 118.885 114.044 128.013 103.737 134.41" stroke="black" stroke-width="0.75" stroke-linecap="round" stroke-linejoin="round"/>
<path d="M121.213 122.242C121.213 122.242 120.082 127.12 116.864 130.729" stroke="black" stroke-width="0.75" stroke-linecap="round" stroke-linejoin="round"/>
<path d="M112.543 153.25L112.405 153.387L103.411 162.529L96.8655 169.179C96.2277 169.827 95.3072 170.123 94.4012 169.957L65.1626 164.82" stroke="black" stroke-width="0.75" stroke-linecap="round" stroke-linejoin="round"/>
<path d="M104.991 156.492C106.092 156.175 107.426 155.771 108.68 155.296C110.246 154.72 111.681 154.057 112.405 153.387" stroke="black" stroke-width="0.75" stroke-linecap="round" stroke-linejoin="round"/>
<path d="M125.467 138.041L119.98 143.423L118.436 144.943C117.537 145.822 116.399 146.42 115.16 146.65C114.594 146.758 113.92 146.931 113.188 147.198C111.833 147.688 110.282 148.531 108.847 149.936C106.506 152.219 104.179 153.531 102.787 154.172C102.106 154.489 101.794 155.296 102.084 155.995C102.309 156.542 102.838 156.881 103.404 156.881C103.534 156.881 103.657 156.859 103.78 156.83C104.128 156.737 104.541 156.628 104.991 156.499" stroke="black" stroke-width="0.75" stroke-linecap="round" stroke-linejoin="round"/>
<path d="M133.236 145.584L123.307 151.139C122.821 151.405 122.379 151.737 121.973 152.104L115.696 157.954C114.051 159.481 112.021 160.562 109.825 161.066L103.411 162.536" stroke="black" stroke-width="0.75" stroke-linecap="round" stroke-linejoin="round"/>
<path d="M104.991 156.491L94.2419 166.83C94.2419 166.83 80.978 161.815 67.4749 164.33C66.7066 164.474 65.9383 164.64 65.1772 164.827L85.5443 146.974C85.5443 146.974 93.8868 145.26 102.483 145.483C106.223 145.584 110.021 146.052 113.188 147.198" stroke="black" stroke-width="0.75" stroke-linecap="round" stroke-linejoin="round"/>
<path d="M65.1707 164.828C61.7206 155.6 52.2112 150.83 48.4494 149.252C47.4782 148.849 46.8911 148.654 46.8911 148.654L67.3378 136.407L67.519 136.299" stroke="black" stroke-width="0.75" stroke-linecap="round" stroke-linejoin="round"/>
<path d="M85.5377 146.974C82.479 139.287 74.122 135.88 74.122 135.88L72.8753 135.534L70.179 134.777L67.3306 136.413" stroke="black" stroke-width="0.75" stroke-linecap="round" stroke-linejoin="round"/>
<path d="M64.8149 164.266C64.9382 164.453 65.0541 164.64 65.1701 164.828" stroke="black" stroke-width="0.75" stroke-linecap="round" stroke-linejoin="round"/>
<path d="M48.4418 149.26L45.9194 150.557C45.9194 150.557 46.4195 150.722 47.2821 151.054C50.7394 152.43 59.9589 156.637 64.8078 164.238" stroke="black" stroke-width="0.75" stroke-linecap="round" stroke-linejoin="round"/>
<path d="M47.2752 151.066L45.9126 152.075C45.9126 152.075 60.4232 158.019 64.7938 164.251C64.7938 164.251 64.7938 164.265 64.8082 164.272C64.8227 164.294 64.8372 164.315 64.8517 164.337" stroke="black" stroke-width="0.75" stroke-linecap="round" stroke-linejoin="round"/>
<path d="M62.3726 162.717C63.3148 163.38 64.2498 164.079 65.1703 164.828" stroke="black" stroke-width="0.75" stroke-linecap="round" stroke-linejoin="round"/>
<path d="M45.9195 152.076L46.1732 154.129L46.2457 154.742C46.2457 154.742 54.407 157.133 62.3653 162.71" stroke="black" stroke-width="0.75" stroke-linecap="round" stroke-linejoin="round"/>
<path d="M67.4536 164.331H67.4681L95.4818 168.51L108.688 155.297" stroke="black" stroke-width="0.75" stroke-linecap="round" stroke-linejoin="round"/>
<path d="M46.166 154.129L45.5499 154.705C45.3977 154.849 45.347 155.051 45.3905 155.238C45.4194 155.411 45.5354 155.563 45.7166 155.642L62.3581 162.709H62.3726" stroke="black" stroke-width="0.75" stroke-linecap="round" stroke-linejoin="round"/>
<path d="M45.3687 155.238L45.5643 156.413C45.5933 156.614 45.7238 156.78 45.9123 156.845L65.1703 164.827" stroke="black" stroke-width="0.75" stroke-linecap="round" stroke-linejoin="round"/>
<path d="M73.1792 164.33L92.6692 167.032" stroke="black" stroke-width="0.75" stroke-linecap="round" stroke-linejoin="round"/>
<path d="M96.1411 166.268L104.788 157.896" stroke="black" stroke-width="0.75" stroke-linecap="round" stroke-linejoin="round"/>
<path d="M60.8621 84.5606L60.6577 83.6537C60.5927 83.3655 60.7793 83.0729 61.0692 83.0083L88.0656 76.9955L88.5077 78.9569L61.5114 84.9697C61.2214 85.0343 60.9271 84.8489 60.8621 84.5606Z" fill="#3A3A3A" stroke="black" stroke-width="0.75" stroke-linecap="round" stroke-linejoin="round"/>
<path d="M88.5159 78.9557L91.6978 77.2194L88.0737 76.9961L88.5159 78.9557Z" fill="#E2C9AF" stroke="black" stroke-width="0.75" stroke-linecap="round" stroke-linejoin="round"/>
<path d="M90.3565 77.9477L90.1753 77.1191L91.6974 77.22L90.3565 77.9477Z" fill="#353535" stroke="black" stroke-width="0.75" stroke-linecap="round" stroke-linejoin="round"/>
<path d="M60.868 84.5587L60.6635 83.6518C60.5985 83.3636 60.7851 83.071 61.0751 83.0064L63.1474 82.5448L63.5896 84.5062L61.5173 84.9678C61.2273 85.0324 60.9329 84.8469 60.868 84.5587Z" fill="white" stroke="black" stroke-width="0.75" stroke-linecap="round" stroke-linejoin="round"/>
<path d="M63.1462 82.5484L63.5884 84.5098L64.4654 84.3144L64.0232 82.353L63.1462 82.5484Z" fill="#B2B2B2" stroke="black" stroke-width="0.75" stroke-linecap="round" stroke-linejoin="round"/>
<path d="M80.6153 76.3044C81.9924 76.6646 84.1524 76.4917 85.5295 76.326C86.6529 76.1819 87.24 77.6949 86.2688 78.2712C86.2253 78.3 86.1746 78.3217 86.1238 78.3433L86.0368 78.509C86.2035 78.7899 86.305 79.1142 86.3195 79.4672C86.3195 79.5392 86.3195 79.6185 86.3195 79.6977L86.334 79.7842C86.7472 79.7337 87.1603 79.8346 87.4792 80.1012C87.8778 80.4254 88.175 81.0017 87.7836 81.9743L87.7184 82.1112C87.8344 82.1688 87.9431 82.2481 88.0228 82.3634C88.1315 82.5074 88.1895 82.702 88.1605 82.9541C88.088 83.4872 86.6457 86.2898 85.6599 88.1846C85.1018 89.2436 84.8047 90.4107 84.7322 91.5995C84.6452 93.1772 84.2611 95.6484 82.9057 97.9898C82.4128 98.8399 82.0214 99.7549 81.7895 100.713L80.8255 104.64C80.6153 105.511 79.8688 106.152 78.9772 106.217C75.2807 106.477 73.0121 104.553 71.9249 103.263C71.4175 102.658 71.3016 101.823 71.6205 101.102L73.3093 97.2405C73.9254 95.8357 74.208 94.3083 74.1283 92.7882C74.0413 91.1096 73.8021 88.941 73.1933 87.4497C73.0338 87.0535 72.8889 86.7076 72.7729 86.3978C72.2438 85.0218 72.3815 83.48 73.1498 82.2193L75.7301 78.0119C76.4767 76.8015 77.8103 76.0451 79.2382 76.1027C79.6731 76.1171 80.1369 76.1819 80.6225 76.3044H80.6153ZM82.2534 81.3691L82.0214 81.506C81.63 81.7438 81.2966 82.0608 81.0429 82.4498L80.4051 83.4296C80.9705 82.8749 81.5431 82.2553 82.0142 81.6429C82.0867 81.5493 82.1664 81.4556 82.2534 81.3691Z" fill="#F8CCC2"/>
<path d="M86.1243 78.344C86.175 78.3224 86.2185 78.3008 86.2693 78.272C87.2332 77.6884 86.6534 76.1827 85.53 76.3268C84.1601 76.4925 81.9929 76.6654 80.6158 76.3052C80.1302 76.1755 79.6663 76.1178 79.2314 76.1034C77.8035 76.0386 76.4626 76.8023 75.7233 78.0126L73.143 82.22C72.3747 83.4808 72.2298 85.0225 72.7661 86.3986C72.8894 86.7084 73.0271 87.0542 73.1865 87.4504C73.8026 88.9418 74.0418 91.1103 74.1215 92.7889C74.2013 94.3163 73.9113 95.8436 73.3025 97.2413L71.6137 101.103C71.2948 101.823 71.418 102.659 71.9181 103.264C73.0053 104.554 75.274 106.477 78.9705 106.218C79.862 106.153 80.6085 105.505 80.8187 104.64L81.7827 100.714C82.0219 99.7557 82.406 98.8479 82.8989 97.9906C84.2615 95.6491 84.6384 93.178 84.7254 91.6002C84.7979 90.4043 85.0951 89.2444 85.6532 88.1853C86.6462 86.2905 88.0813 83.4808 88.1537 82.9549C88.19 82.7027 88.1248 82.5154 88.016 82.3641C87.9363 82.256 87.8276 82.1696 87.7116 82.112C87.4869 82.0111 87.2187 82.0039 86.9796 82.0975L86.0663 82.465C85.385 82.7387 84.7979 83.2142 84.4065 83.8338C83.37 85.4692 81.6015 87.5513 81.5725 87.6162" stroke="black" stroke-width="0.75" stroke-linecap="round" stroke-linejoin="round"/>
<path d="M77.3901 81.4055C77.8105 80.966 78.2237 80.4905 78.5861 80.0223C79.3036 79.1001 80.2894 78.4157 81.4201 78.1203L83.6017 77.5511C84.5657 77.299 85.5587 77.724 86.0371 78.5093C86.2038 78.7903 86.3052 79.1145 86.3197 79.4675C86.3197 79.5396 86.3197 79.6188 86.3197 79.6981" stroke="black" stroke-width="0.75" stroke-linecap="round" stroke-linejoin="round"/>
<path d="M74.9624 83.7542C74.9624 83.7542 76.1801 82.7095 77.3905 81.4199" stroke="black" stroke-width="0.75" stroke-linecap="round" stroke-linejoin="round"/>
<path d="M82.2534 81.3696C82.6883 80.9157 83.2392 80.5915 83.848 80.433L86.0731 79.8351C86.1529 79.8135 86.2471 79.7918 86.3341 79.7918C86.7472 79.7414 87.1603 79.8423 87.4793 80.1088C87.8779 80.433 88.1751 81.0094 87.7837 81.982" stroke="black" stroke-width="0.75" stroke-linecap="round" stroke-linejoin="round"/>
<path d="M80.4058 83.4296C80.9711 82.8749 81.5437 82.2553 82.0148 81.6429C82.0873 81.5492 82.167 81.4556 82.254 81.3691" stroke="black" stroke-width="0.75" stroke-linecap="round" stroke-linejoin="round"/>
<path d="M78.0718 85.5046C78.0718 85.5046 79.2097 84.604 80.3984 83.4297" stroke="black" stroke-width="0.75" stroke-linecap="round" stroke-linejoin="round"/>
<path d="M77.3901 81.4203L78.2237 80.0659C78.4266 79.7417 78.7963 79.5184 79.1659 79.3887" stroke="black" stroke-width="0.75" stroke-linecap="round" stroke-linejoin="round"/>
<path d="M80.4058 83.4296L81.0436 82.4498C81.29 82.068 81.6307 81.7438 82.0221 81.506L82.254 81.3691" stroke="black" stroke-width="0.75" stroke-linecap="round" stroke-linejoin="round"/>
<path d="M72.8895 98.6541C74.5565 99.8716 77.5862 101.529 81.4857 101.349C82.2612 101.313 82.87 101.99 82.7903 102.753C82.3337 106.853 81.1305 117.912 80.8696 122.241C80.5507 127.602 76.6802 137.371 70.157 136.967C63.6337 136.564 61.6188 128.401 62.3436 123.12C62.9959 118.373 68.9103 105.657 70.918 99.3025C71.1789 98.4812 72.1792 98.1426 72.8822 98.6541H72.8895Z" fill="#4ECBD1" stroke="black" stroke-width="0.75" stroke-linecap="round" stroke-linejoin="round"/>
<path d="M71.4402 109.59C71.4402 109.59 70.6357 119.943 73.9698 125.49" stroke="black" stroke-width="0.75" stroke-linecap="round" stroke-linejoin="round"/>
<path d="M71.686 100.145C71.686 100.145 75.7159 103.624 81.5941 102.789" stroke="black" stroke-width="0.75" stroke-linecap="round" stroke-linejoin="round"/>
<path d="M125.88 136.643C125.88 136.643 133.505 136.83 134.904 145.583" stroke="black" stroke-width="0.75" stroke-linecap="round" stroke-linejoin="round"/>
<path d="M122.379 104.467H110.268C109.787 104.467 109.398 104.854 109.398 105.331V106.001C109.398 106.479 109.787 106.866 110.268 106.866H122.379C122.86 106.866 123.249 106.479 123.249 106.001V105.331C123.249 104.854 122.86 104.467 122.379 104.467Z" fill="#4ECBD1" stroke="black" stroke-width="0.75" stroke-linecap="round" stroke-linejoin="round"/>
<path d="M104.889 91.1607C104.889 91.1607 116.377 91.9028 120.32 77.9766" stroke="black" stroke-width="0.75" stroke-linecap="round" stroke-linejoin="round"/>
<path d="M100.164 81.4199C100.164 81.4199 98.1632 86.4198 101.041 89.1719" stroke="black" stroke-width="0.75" stroke-linecap="round" stroke-linejoin="round"/>
<path d="M71.7222 161.382C71.7222 161.382 83.8192 158.579 93.6258 163.428" stroke="black" stroke-width="0.75" stroke-linecap="round" stroke-linejoin="round"/>
<path d="M74.2378 159.415C74.2378 159.415 86.3348 156.613 96.1414 161.461" stroke="black" stroke-width="0.75" stroke-linecap="round" stroke-linejoin="round"/>
<path d="M76.4341 157.11C76.4341 157.11 88.5963 154.595 98.2869 159.667" stroke="black" stroke-width="0.75" stroke-linecap="round" stroke-linejoin="round"/>
<path d="M78.855 155.094C78.855 155.094 91.0172 152.58 100.708 157.651" stroke="black" stroke-width="0.75" stroke-linecap="round" stroke-linejoin="round"/>
<path d="M80.812 153.09C80.812 153.09 92.3002 150.215 101.984 155.294" stroke="black" stroke-width="0.75" stroke-linecap="round" stroke-linejoin="round"/>
<path d="M66.2141 159.279L72.9257 154.127C72.9257 154.127 72.3966 151.058 69.019 149.092L62.3581 153.81C62.3581 153.81 65.4603 156.418 66.2141 159.279Z" fill="#FFA94E" stroke="black" stroke-width="0.75" stroke-linecap="round" stroke-linejoin="round"/>
<path d="M75.0708 152.868C75.0708 152.738 71.9469 145.116 60.7124 142.666" stroke="black" stroke-width="0.75" stroke-linecap="round" stroke-linejoin="round"/>
<path d="M77.0132 151.383C77.0132 151.253 73.8893 143.631 62.6548 141.182" stroke="black" stroke-width="0.75" stroke-linecap="round" stroke-linejoin="round"/>
<path d="M79.3471 150.043C79.3471 149.914 76.2232 142.291 64.9888 139.842" stroke="black" stroke-width="0.75" stroke-linecap="round" stroke-linejoin="round"/>
<path d="M114.826 55.3699C114.826 55.3699 116.355 54.6062 116.942 56.1552C117.529 57.7041 115.522 60.4923 113.775 60.1753" stroke="black" stroke-width="0.75" stroke-linecap="round" stroke-linejoin="round"/>
</g>
</g>
<defs>
<clipPath id="clip0_251_417">
<rect width="174" height="184" fill="white"/>
</clipPath>
<clipPath id="clip1_251_417">
<rect width="126" height="259" fill="white" transform="translate(24.3052 23.1582)"/>
</clipPath>
</defs>
</svg>
