<svg width="142" height="184" viewBox="0 0 142 184" fill="none" xmlns="http://www.w3.org/2000/svg">
<g clip-path="url(#clip0_251_563)">
<g clip-path="url(#clip1_251_563)">
<path d="M102.791 161.942C102.791 161.942 99.7197 173.215 84.5503 176.119C76.5663 177.642 71.74 179.253 68.9636 180.437C66.9784 181.282 65.9858 183.355 66.6044 185.384C69.5678 195.126 73.2721 221.55 69.2082 229.718C68.9421 230.253 68.8485 230.845 68.9205 231.437L69.1291 233.127C69.3377 234.846 68.1293 236.369 66.3455 236.637L51.0897 239.785C49.4282 240.031 47.7667 239.121 47.1337 237.612L46.0692 235.062C45.7024 234.181 44.9687 233.466 44.0337 233.112C42.6598 232.592 40.5883 231.235 39.4663 227.696C38.3082 224.042 34.3954 201.387 32.3671 184.431C31.2234 174.833 35.8699 165.698 44.3789 160.78L66.5253 150.207L102.784 161.95L102.791 161.942Z" fill="#3F342E" stroke="black" stroke-width="0.75" stroke-linecap="round" stroke-linejoin="round"/>
<path d="M96.3969 161.4C96.3969 161.4 90.2831 167.654 74.6174 170.391C70.9706 171.027 68.1151 171.814 65.8854 172.645C60.9008 174.493 58.2827 179.577 59.6853 184.597C62.8213 195.848 66.6406 219.03 65.0079 231.393" stroke="white" stroke-width="0.75" stroke-linecap="round" stroke-linejoin="round"/>
<path d="M117.917 147.701C117.917 147.701 119.032 162.693 103.539 169.193C96.0371 172.342 91.93 175.461 89.5348 177.31C87.8302 178.625 87.3842 180.885 88.4919 182.69C93.8001 191.371 103.999 216.011 102.122 224.945C102 225.53 102.05 226.122 102.273 226.685L102.899 228.267C103.532 229.877 102.741 231.661 101.079 232.369L87.1037 239.265C85.5573 239.923 83.7159 239.46 82.7305 238.161L81.0618 235.965C80.4864 235.207 79.5945 234.701 78.6019 234.593C77.1418 234.434 74.7969 233.647 72.8261 230.505C70.7906 227.263 61.325 206.32 55.1177 190.418C51.6076 181.419 53.8158 171.403 60.8215 164.492L79.6089 148.662L117.917 147.701Z" fill="#3F342E" stroke="black" stroke-width="0.75" stroke-linecap="round" stroke-linejoin="round"/>
<path d="M111.308 151.963C111.308 151.963 106.956 159.56 92.4842 166.168C89.1108 167.706 86.5502 169.187 84.5938 170.552C80.235 173.599 78.9762 179.182 81.5872 183.688C87.4421 193.784 96.9437 215.254 98.4613 227.639" stroke="white" stroke-width="0.75" stroke-linecap="round" stroke-linejoin="round"/>
<path d="M109.411 96.1578C108.933 96.0103 108.537 95.7953 108.222 95.5127C107.911 95.2286 107.699 94.9053 107.587 94.5429C107.475 94.1782 107.479 93.8036 107.599 93.419C107.689 93.1166 107.834 92.8563 108.033 92.6383C108.232 92.4179 108.463 92.254 108.724 92.1467C108.988 92.0378 109.257 92.0002 109.531 92.034L109.544 91.9922C109.23 91.7988 109.018 91.5235 108.906 91.1665C108.795 90.8071 108.799 90.4387 108.917 90.0611C109.026 89.6983 109.216 89.4028 109.489 89.1746C109.762 88.9464 110.086 88.8 110.461 88.7355C110.839 88.6716 111.236 88.7042 111.654 88.833C112.067 88.9605 112.41 89.1567 112.685 89.4217C112.959 89.6867 113.145 89.9906 113.243 90.3333C113.344 90.6768 113.339 91.0299 113.231 91.3927C113.113 91.7703 112.906 92.0761 112.611 92.3102C112.319 92.5427 111.993 92.6515 111.632 92.6366L111.619 92.6783C111.862 92.8042 112.06 92.9861 112.213 93.2238C112.367 93.4593 112.466 93.7248 112.51 94.0204C112.555 94.3136 112.532 94.6115 112.442 94.9139C112.322 95.2984 112.112 95.6097 111.813 95.8477C111.518 96.0841 111.161 96.232 110.745 96.2913C110.331 96.3491 109.886 96.3046 109.411 96.1578ZM109.646 95.3919C109.968 95.4914 110.262 95.5251 110.528 95.493C110.795 95.4608 111.021 95.3693 111.207 95.2184C111.392 95.0674 111.526 94.8647 111.606 94.6101C111.686 94.3401 111.689 94.0808 111.616 93.832C111.542 93.5832 111.405 93.3631 111.205 93.1717C111.007 92.981 110.757 92.8391 110.456 92.7461C110.152 92.6523 109.862 92.6277 109.587 92.6723C109.314 92.7177 109.078 92.8225 108.878 92.9868C108.68 93.1518 108.541 93.3693 108.461 93.6393C108.381 93.8939 108.374 94.1356 108.441 94.3646C108.51 94.5943 108.647 94.7979 108.852 94.9753C109.056 95.1528 109.321 95.2917 109.646 95.3919ZM110.682 92.008C110.937 92.0868 111.179 92.1055 111.407 92.0643C111.638 92.0237 111.838 91.9293 112.008 91.781C112.178 91.6328 112.301 91.436 112.379 91.1907C112.451 90.9486 112.458 90.721 112.401 90.5079C112.346 90.2925 112.234 90.1057 112.067 89.9473C111.9 89.7867 111.686 89.6659 111.424 89.585C111.157 89.5027 110.909 89.4806 110.679 89.5188C110.449 89.5548 110.252 89.6464 110.088 89.7938C109.924 89.9388 109.807 90.1324 109.735 90.3745C109.657 90.6198 109.646 90.8513 109.701 91.069C109.759 91.2875 109.872 91.4785 110.04 91.6422C110.208 91.8059 110.422 91.9278 110.682 92.008ZM105.897 107.632C105.42 107.484 105.023 107.269 104.709 106.987C104.397 106.703 104.185 106.379 104.073 106.017C103.961 105.652 103.966 105.278 104.086 104.893C104.176 104.591 104.32 104.33 104.519 104.112C104.719 103.892 104.949 103.728 105.21 103.621C105.475 103.512 105.744 103.474 106.018 103.508L106.031 103.466C105.717 103.273 105.504 102.998 105.392 102.641C105.282 102.281 105.285 101.913 105.404 101.535C105.512 101.172 105.703 100.877 105.976 100.649C106.249 100.421 106.573 100.274 106.948 100.21C107.325 100.146 107.723 100.178 108.14 100.307C108.553 100.435 108.897 100.631 109.171 100.896C109.445 101.161 109.631 101.465 109.73 101.807C109.83 102.151 109.826 102.504 109.717 102.867C109.599 103.244 109.393 103.55 109.098 103.784C108.806 104.017 108.479 104.126 108.118 104.111L108.105 104.152C108.348 104.278 108.547 104.46 108.7 104.698C108.854 104.933 108.953 105.199 108.997 105.494C109.041 105.788 109.019 106.086 108.929 106.388C108.808 106.773 108.599 107.084 108.3 107.322C108.004 107.558 107.648 107.706 107.231 107.765C106.817 107.823 106.373 107.779 105.897 107.632ZM106.132 106.866C106.454 106.966 106.749 106.999 107.015 106.967C107.281 106.935 107.507 106.843 107.693 106.692C107.879 106.542 108.012 106.339 108.092 106.084C108.173 105.814 108.176 105.555 108.102 105.306C108.029 105.057 107.892 104.837 107.691 104.646C107.493 104.455 107.244 104.313 106.942 104.22C106.638 104.126 106.349 104.102 106.074 104.146C105.801 104.192 105.564 104.297 105.364 104.461C105.167 104.626 105.028 104.843 104.948 105.113C104.867 105.368 104.86 105.61 104.927 105.839C104.997 106.068 105.133 106.272 105.338 106.449C105.543 106.627 105.807 106.766 106.132 106.866ZM107.168 103.482C107.423 103.561 107.665 103.58 107.893 103.538C108.124 103.498 108.324 103.403 108.494 103.255C108.664 103.107 108.788 102.91 108.865 102.665C108.937 102.423 108.944 102.195 108.888 101.982C108.832 101.767 108.72 101.58 108.553 101.421C108.387 101.261 108.172 101.14 107.91 101.059C107.643 100.977 107.395 100.955 107.165 100.993C106.936 101.029 106.739 101.12 106.574 101.268C106.411 101.413 106.293 101.607 106.221 101.849C106.144 102.094 106.133 102.325 106.188 102.543C106.245 102.762 106.358 102.953 106.526 103.116C106.694 103.28 106.908 103.402 107.168 103.482Z" fill="#3A3A3A"/>
<path d="M79.2643 79.0527C79.2643 79.0527 77.8473 84.7579 79.4873 89.6326" stroke="black" stroke-width="0.75" stroke-linecap="round" stroke-linejoin="round"/>
<path d="M86.7162 78.4883C86.7162 78.4883 87.0975 84.9734 87.6729 93.9211" stroke="black" stroke-width="0.75" stroke-linecap="round" stroke-linejoin="round"/>
<path d="M65.5768 40.7551C65.3323 40.8056 65.0877 40.8345 64.8504 40.8345C64.4691 40.8562 64.1023 40.7912 63.7499 40.6467C61.5345 39.7368 60.0888 36.1476 60.7937 33.6994C61.4985 31.2441 63.9728 24.239 71.0073 20.3681C75.6107 17.8333 78.6604 18.4905 80.214 19.2488C80.9621 19.6099 81.8468 19.6026 82.5588 19.1766C83.9111 18.3605 86.4789 17.6456 90.1328 20.202C95.7503 24.1307 100.361 30.9552 95.5057 43.066C96.4048 37.0359 90.2766 36.2343 89.0898 39.4552C88.8165 40.1918 88.2627 40.7406 87.6369 41.2173C87.4787 41.3328 87.3708 41.5495 87.1981 41.6289C87.0831 41.6795 86.9464 41.6722 86.8313 41.6072C86.8601 39.7007 86.5436 37.6353 86.2847 36.3065C86.1336 35.5193 85.6949 34.8333 85.0835 34.3133C82.9329 32.4645 81.3936 28.1026 78.5597 27.3227C77.4664 27.0266 76.891 27.301 76.5961 27.6404C76.3299 27.951 75.9056 28.0304 75.5603 27.8282C74.69 27.3154 73.1723 26.8244 71.7698 28.3482C69.6407 30.6591 72.1797 35.8443 70.5038 39.0941C70.5038 39.0941 69.8349 37.2959 69.4681 36.3282C69.4681 36.3282 69.7054 38.2997 68.9862 38.9424C68.9862 38.9424 68.9071 39.0074 68.7632 39.1302C68.5402 39.3035 68.1446 39.5924 67.6627 39.8812C67.0729 40.2351 66.3321 40.589 65.5768 40.7551Z" fill="#3A3030"/>
<path d="M79.3872 51.0234C79.3872 51.0234 78.2507 53.2911 76.5029 54.0999C74.7551 54.9159 72.7914 52.9011 72.7914 52.9011C72.7914 52.9011 76.3231 52.6483 79.3872 51.0234Z" fill="white"/>
<path d="M95.0096 63.4178C95.772 61.9518 96.0813 60.6157 96.1892 59.6047C96.3043 58.6226 96.0741 57.6332 95.5994 56.7449C95.5994 56.7449 95.585 56.716 95.585 56.7016C95.3836 56.326 95.1894 55.9288 95.0168 55.5172C97.0739 54.7878 106.403 54.6001 109.532 58.1315C111.503 60.363 110.913 63.0422 107.877 65.2449C108.309 65.4326 124.5 72.676 121.723 84.8952C119.947 92.7452 117.825 97.8799 116.329 101.39C115.473 103.426 114.826 104.914 114.574 106.077C113.891 109.247 113.833 110.272 110.675 113.602C107.518 116.938 107.036 123.799 100.958 126.073C99.6058 126.586 97.7357 126.131 95.7577 125.221C94.2328 124.521 92.636 123.539 91.1543 122.528C87.8169 120.238 85.0908 117.747 85.0908 117.747L85.5728 117.501C86.5797 116.989 87.0041 115.768 86.5294 114.728L80.243 100.884C83.3142 99.0498 84.1989 96.2477 84.4435 94.5723C84.5658 93.749 84.1989 92.9402 83.5228 92.4708L82.5374 91.7703L79.8761 89.9071C78.5527 88.9755 77.4522 87.755 76.6826 86.3323C75.8338 84.7652 74.8412 82.6709 74.5823 80.981C74.5104 80.5333 74.4384 80.1505 74.3809 79.7967C74.1148 78.3306 73.2085 77.0668 71.9282 76.3447L77.8765 74.3009C77.9916 74.402 78.0995 74.5176 78.2146 74.6403C79.1928 75.6875 79.7826 76.7346 80.1423 77.6518L81.962 77.4352C81.962 77.4352 85.954 71.1089 89.9028 68.7763C89.9028 68.7763 89.9028 68.7763 89.9172 68.7763C90.1042 68.668 90.2912 68.5524 90.4782 68.4224C92.7871 66.7975 94.1896 65.0354 95.024 63.4106L95.0096 63.4178Z" fill="#BCBBC0"/>
<path d="M95.7503 125.234C97.7283 126.144 99.5984 126.599 100.951 126.086C107.021 123.811 107.503 116.951 110.668 113.614C113.826 110.285 113.89 109.26 114.566 106.089C114.818 104.927 115.466 103.439 116.321 101.402C116.321 101.402 115.983 121.594 116.89 123.761C117.796 125.92 117.005 126.722 116.437 131.502C116.034 134.897 117.235 142.155 117.961 146.062C118.271 147.686 117.515 149.326 116.077 150.127C95.3403 161.675 72.489 155.804 65.3466 153.493C63.9656 153.045 62.9586 151.868 62.7285 150.431L59.3911 129.596L60.5203 130.354L66.7204 127.177L72.2444 124.346C83.983 125.162 91.1469 122.54 91.1469 122.54C92.6214 123.551 94.2254 124.526 95.7503 125.234Z" fill="#BCBBC0"/>
<path d="M95.5925 56.7437C96.0672 57.632 96.2974 58.6141 96.1823 59.6035C96.0744 60.6145 95.7651 61.9578 95.0027 63.4166C94.1683 65.0342 92.7658 66.7963 90.4569 68.4284C90.2699 68.5584 90.0901 68.674 89.8959 68.7823C89.8959 68.7823 89.8959 68.7823 89.8815 68.7823C88.0545 69.8583 85.8751 70.2194 83.818 69.6706C83.7677 69.6489 83.7173 69.6345 83.6598 69.62C82.1133 69.1795 80.9193 67.9807 80.423 66.4786C80.3367 66.0958 80.2648 65.8503 80.2504 65.7853C80.2504 65.7708 80.2504 65.7636 80.2504 65.7636C80.2504 65.7131 80.2288 65.6697 80.2217 65.612C80.1929 65.4314 80.1569 65.2581 80.1281 65.0776C79.8908 63.8065 79.5599 62.4272 79.1284 61.5461C80.0418 61.4739 80.9409 61.1995 81.7681 60.7445C84.2424 59.4013 87.5151 56.4476 89.2845 49.9553C89.4355 49.3848 89.9102 48.9803 90.4857 48.8792C91.1258 48.7781 92.0105 48.5254 92.8593 47.9043C92.8593 47.9043 93.4994 52.0712 94.9955 55.5088C95.1753 55.9204 95.3623 56.3176 95.5637 56.6931C95.5637 56.7076 95.5781 56.7292 95.5781 56.7365L95.5925 56.7437Z" fill="#F8CCC2"/>
<path d="M65.5771 40.7551C66.3252 40.589 67.066 40.2352 67.663 39.8813C68.1449 39.5925 68.5405 39.3036 68.7635 39.1303C68.9074 39.0147 68.9865 38.9425 68.9865 38.9425C69.7057 38.2925 69.4684 36.3282 69.4684 36.3282C69.8352 37.2959 70.5041 39.0942 70.5041 39.0942C72.18 35.8444 69.641 30.6592 71.7701 28.3482C73.1726 26.8244 74.6903 27.3155 75.5606 27.8283C75.9059 28.0232 76.3302 27.9438 76.5964 27.6405C76.8913 27.3083 77.4595 27.0339 78.56 27.3227C81.3939 28.1027 82.9332 32.4718 85.0838 34.3134C85.688 34.8333 86.1339 35.5266 86.285 36.3066C86.5439 37.6426 86.8532 39.7008 86.8316 41.6073C86.9467 41.6723 87.0834 41.6723 87.1984 41.629C87.3711 41.5568 87.479 41.3329 87.6372 41.2173C88.2558 40.7407 88.8168 40.1919 89.0901 39.4552C90.2841 36.2271 96.4051 37.036 95.506 43.0661C95.4701 43.2828 95.4413 43.4994 95.391 43.7016C94.9306 45.8898 93.9308 47.1753 92.8807 47.9119C92.032 48.5329 91.1473 48.7857 90.5071 48.8868C89.9389 48.9807 89.457 49.3923 89.3059 49.9628C87.5365 56.4552 84.271 59.4089 81.7895 60.7521C80.9624 61.1999 80.0633 61.4743 79.1498 61.5537C78.6175 61.6043 78.0781 61.5898 77.553 61.5032C76.8985 61.4093 76.2511 61.2143 75.6325 60.9327C68.7779 57.7623 66.505 49.1107 65.7929 45.0449C65.5484 43.6294 65.2534 42.2356 64.8578 40.8563V40.8274C65.0952 40.8274 65.3398 40.7913 65.5843 40.7479L65.5771 40.7551ZM76.5029 54.1009C78.2507 53.2921 79.3872 51.0244 79.3872 51.0244C76.3231 52.6493 72.7914 52.9021 72.7914 52.9021C72.7914 52.9021 74.755 54.9097 76.5029 54.1009ZM77.7832 44.3588C78.2795 44.2938 78.6175 43.7522 78.5456 43.1311C78.4809 42.5173 78.0205 42.0623 77.5242 42.1201C77.0351 42.1778 76.6971 42.7267 76.7618 43.3405C76.8337 43.9616 77.2941 44.4166 77.7832 44.3588ZM69.4324 46.287C69.9215 46.222 70.2596 45.6804 70.1949 45.0593C70.1229 44.4454 69.6626 43.9905 69.1735 44.0483C68.6844 44.106 68.3463 44.6477 68.4111 45.2615C68.483 45.8898 68.9433 46.3448 69.4324 46.287Z" fill="#F8CCC2"/>
<path d="M86.5289 114.742C86.9964 115.782 86.5793 117.003 85.5723 117.515L85.0904 117.761L72.2514 124.34L66.7273 127.171L60.5272 130.348L39.9848 89.6684L40.8911 90.08L58.5492 81.2695L58.5636 81.3129C58.1752 81.5006 57.8587 81.8112 57.7149 82.23C57.535 82.75 57.5854 83.4288 58.4773 84.0932L58.6068 84.1727C58.5348 84.2882 58.4845 84.4254 58.4773 84.5699C58.4557 84.7576 58.5133 84.9671 58.6787 85.1693C59.0383 85.617 61.8723 87.3574 63.8071 88.5274C64.8932 89.1845 65.8067 90.0728 66.5331 91.1127C67.4754 92.4776 69.1585 94.4853 71.6328 95.8502C72.5535 96.3557 73.4166 96.9479 74.1574 97.6917L77.2287 100.754C77.9048 101.425 78.9406 101.591 79.7749 101.158C79.9404 101.079 80.0914 100.985 80.2425 100.898L86.5289 114.742Z" fill="#275A26"/>
<path d="M83.8251 69.6783C85.8822 70.2272 88.0688 69.8661 89.8885 68.7901C85.9397 71.1227 81.9478 77.4489 81.9478 77.4489C81.9478 75.9829 81.8255 74.4591 81.6385 73.0148L83.6525 72.3215C83.9474 72.2204 84.1056 71.8882 84.0049 71.5993L83.6884 70.6605C83.5877 70.3572 83.2641 70.2055 82.9692 70.3066L81.3292 70.8699C81.0127 68.9634 80.6459 67.3602 80.4301 66.4863C80.9192 67.9884 82.1204 69.1945 83.6668 69.6278C83.7244 69.6422 83.7747 69.6567 83.8251 69.6783Z" fill="white"/>
<path d="M85.0836 117.76C85.0836 117.76 87.8168 120.244 91.147 122.541C91.147 122.541 83.9759 125.155 72.2446 124.346L85.0836 117.767V117.76Z" fill="#BCBBC0"/>
<path d="M70.0368 78.4662L69.4614 77.1951L71.9213 76.3574C73.2016 77.0796 74.1079 78.3362 74.374 79.8094C74.4387 80.1561 74.5035 80.546 74.5754 80.9938C74.8415 82.6837 75.8269 84.778 76.6757 86.3451C77.4453 87.7677 78.5458 88.9882 79.8692 89.9198L82.5305 91.783L83.5159 92.4835C84.1921 92.9529 84.5589 93.769 84.4366 94.5851C84.1921 96.2605 83.3074 99.0625 80.2361 100.897L70.044 78.4734L70.0368 78.4662Z" fill="#F8CCC2"/>
<path d="M84.0114 71.5985C84.1121 71.8946 83.9467 72.2196 83.659 72.3207L81.645 73.014C81.5587 72.2774 81.4508 71.548 81.3286 70.8691L82.9685 70.3059C83.2706 70.2047 83.5871 70.3636 83.6878 70.6597L84.0042 71.5985H84.0114Z" fill="#3A3A3A"/>
<path d="M81.955 77.4478L80.1353 77.6645C79.7756 76.7401 79.1858 75.6929 78.2076 74.653C78.0925 74.5302 77.9847 74.4147 77.8696 74.3136L81.6457 73.0137C81.8328 74.4652 81.955 75.989 81.955 77.4478Z" fill="#BCBBC0"/>
<path d="M81.6456 73.014L77.8694 74.3139C77.2077 73.6495 76.5603 73.1512 75.9633 72.7179L81.3363 70.8691C81.4514 71.5552 81.5593 72.2774 81.6528 73.014H81.6456Z" fill="#3A3A3A"/>
<path d="M81.3359 70.8689L75.9629 72.7177C74.1719 71.4177 72.8053 70.71 72.6183 68.168C72.5248 66.8969 73.1362 65.6909 73.9489 64.6582L75.8766 65.2576C75.8766 65.2576 77.9697 64.066 80.1347 65.0915C80.1706 65.272 80.1994 65.4454 80.2282 65.6259C80.2282 65.6837 80.2498 65.727 80.2569 65.7776C80.2569 65.7776 80.2569 65.7776 80.2569 65.7992C80.3001 66.0376 80.3505 66.2614 80.4296 66.4925C80.6454 67.3664 81.005 68.9696 81.3287 70.8761L81.3359 70.8689Z" fill="#BCBBC0"/>
<path d="M80.4367 66.4863C80.3648 66.2624 80.3073 66.0385 80.2641 65.793C80.2785 65.858 80.3432 66.1035 80.4367 66.4863Z" fill="#F8CCC2"/>
<path d="M65.8864 81.3408L64.7788 80.8064C64.3328 80.597 63.8653 80.4887 63.3834 80.4887H63.0957C63.2179 80.5248 63.3402 80.5537 63.4553 80.6042C64.2177 80.9003 65.0737 81.1459 65.8864 81.3336V81.3408ZM61.4054 80.4598C61.5348 80.2431 61.6715 80.0265 61.801 79.8243L67.5048 77.8672C68.4614 78.1344 69.3893 78.3366 70.0366 78.4666L80.2287 100.89C80.0777 100.977 79.9194 101.071 79.7612 101.15C78.9268 101.591 77.8911 101.417 77.215 100.746L74.1437 97.6836C73.4028 96.947 72.5397 96.3476 71.619 95.8421C69.1447 94.4772 67.4616 92.4695 66.5194 91.1046C65.8001 90.0647 64.8867 89.1764 63.7934 88.5192C61.8585 87.3493 59.0318 85.6089 58.6649 85.1611C58.4923 84.9589 58.442 84.7495 58.4635 84.5617C58.4635 84.4173 58.5211 84.2801 58.593 84.1645L58.4635 84.0851C57.5717 83.4135 57.5213 82.7419 57.7011 82.2219C57.845 81.803 58.1615 81.4925 58.5499 81.3047C58.6362 81.2614 58.7297 81.2325 58.8088 81.2036L61.1392 80.5176C61.2256 80.4887 61.3191 80.467 61.4054 80.4526V80.4598Z" fill="#275A26"/>
<path d="M79.1356 61.5609C79.5672 62.442 79.898 63.8213 80.1354 65.0923C77.9776 64.0668 75.8773 65.2584 75.8773 65.2584L73.9496 64.659C75.4098 62.8392 77.5244 61.5898 77.5244 61.5898V61.5176C78.0639 61.597 78.6033 61.6115 79.1284 61.5681L79.1356 61.5609Z" fill="#BCBBC0"/>
<path d="M78.5451 43.1234C78.617 43.7445 78.279 44.2933 77.7827 44.3511C77.2936 44.4089 76.8332 43.9539 76.7613 43.3328C76.6966 42.719 77.0346 42.1629 77.5237 42.1124C78.02 42.0546 78.4732 42.5096 78.5451 43.1234Z" fill="black"/>
<path d="M77.869 74.3148L71.9206 76.3585C71.8559 76.3079 71.7911 76.2791 71.7336 76.243L69.3168 75.0008L75.9701 72.7188C76.5671 73.1593 77.2144 73.6576 77.8762 74.3148H77.869Z" fill="#3A3A3A"/>
<path d="M75.9627 72.7112L69.3095 74.9933L67.0869 73.8522C65.9936 73.2817 64.7061 73.2239 63.5912 73.6789L72.6109 68.1543C72.7979 70.6963 74.1646 71.4041 75.9555 72.704L75.9627 72.7112Z" fill="#BCBBC0"/>
<path d="M71.921 76.359L69.4611 77.1968L69.2166 76.6551C68.9936 76.1641 68.4254 75.9474 67.9363 76.1568L67.0444 75.7741L69.3101 74.9941L71.7268 76.2363C71.7916 76.2724 71.8563 76.3013 71.9138 76.3518L71.921 76.359Z" fill="#F8CCC2"/>
<path d="M70.1945 45.0599C70.2592 45.6809 69.9212 46.2298 69.4321 46.2875C68.943 46.3453 68.4826 45.8904 68.4107 45.2621C68.346 44.6482 68.684 44.0994 69.1731 44.0488C69.6622 43.9983 70.1226 44.446 70.1945 45.0599Z" fill="black"/>
<path d="M69.4607 77.1953L70.0362 78.4663C69.3888 78.3363 68.461 78.1341 67.5043 77.8669L69.4607 77.1953Z" fill="#275A26"/>
<path d="M69.2163 76.6544L69.4609 77.196L67.5045 77.8676C67.5045 77.8676 67.4829 77.8676 67.4757 77.8676H67.4613L66.4399 77.3405L68.3964 76.3655L67.936 76.1705C68.4251 75.9611 68.9934 76.1705 69.2163 76.6688V76.6544Z" fill="#275A26"/>
<path d="M65.757 75.2238L64.9371 74.8772L56.7446 78.4953C56.8237 78.1775 57.0323 77.9031 57.3775 77.7442C58.701 77.1448 60.7365 76.1049 61.7579 75.0144C62.1247 74.6316 62.5059 74.3139 62.8872 74.0611C63.1101 73.9095 63.3475 73.7795 63.592 73.6856C64.6997 73.2306 65.9872 73.2884 67.0877 73.8589L69.3103 74.9999L67.0445 75.7799L65.757 75.2238Z" fill="#F8CCC2"/>
<path d="M68.3963 76.359L66.4399 77.334L65.9724 77.0957C65.9724 77.0957 65.9292 77.074 65.9077 77.0668L67.9 76.1641C67.9 76.1641 67.9216 76.1641 67.9288 76.1641L68.3891 76.359H68.3963Z" fill="#275A26"/>
<path d="M67.9363 76.1562C67.9363 76.1562 67.9148 76.1562 67.9076 76.1562L65.9152 77.0589C65.5699 76.9 65.1384 76.9145 64.7644 76.9939C64.527 76.9434 64.2824 76.9073 64.0307 76.8928C64.0739 76.8423 64.1098 76.8061 64.1458 76.7628L67.0445 75.7734L67.9363 76.1562Z" fill="white"/>
<path d="M67.5041 77.8673L61.8002 79.8244C61.8578 79.7377 61.9153 79.6438 61.9729 79.5644L66.195 77.4629C66.6122 77.6145 67.0437 77.7445 67.4681 77.8601H67.4825C67.4825 77.8601 67.5041 77.8745 67.5113 77.8745L67.5041 77.8673Z" fill="#275A26"/>
<path d="M66.4475 77.334L67.4689 77.8539C67.0445 77.7384 66.6129 77.6084 66.1957 77.4568L66.4475 77.334Z" fill="#275A26"/>
<path d="M67.0446 75.7729L64.1459 76.7622C64.7861 76.069 65.3399 75.5634 65.7571 75.2168L67.0446 75.7729Z" fill="white"/>
<path d="M66.4476 77.3336L66.1959 77.4564C66.0089 77.3914 65.8219 77.3264 65.6349 77.2614C65.6061 77.2614 65.5845 77.2397 65.5629 77.2325L65.9154 77.0664C65.9154 77.0664 65.9585 77.0809 65.9801 77.0953L66.4476 77.3336Z" fill="#275A26"/>
<path d="M66.1954 77.4559L61.9733 79.5575C62.2178 79.1964 62.4552 78.8497 62.6925 78.532L65.5481 77.2249C65.5481 77.2249 65.5984 77.2465 65.62 77.2537C65.807 77.3187 65.9868 77.391 66.181 77.4487L66.1954 77.4559Z" fill="#275A26"/>
<path d="M65.9146 77.0668L65.5621 77.2329C65.3032 77.1391 65.0443 77.0524 64.7709 77.0091C65.145 76.9296 65.5765 76.9152 65.9218 77.0741L65.9146 77.0668Z" fill="white"/>
<path d="M64.7783 80.8072L65.8859 81.3416C65.0732 81.1539 64.2172 80.9011 63.4548 80.6122C63.3397 80.5617 63.2174 80.5328 63.0952 80.5039H63.3829C63.8648 80.5039 64.3323 80.5978 64.7783 80.8144V80.8072Z" fill="#275A26"/>
<path d="M64.9438 74.8705L65.7638 75.2171C65.3394 75.5638 64.7928 76.0693 64.1526 76.7626L63.8074 76.8854C63.2248 76.8493 62.6278 76.9287 62.0596 77.0948L59.7867 77.7881C59.2616 77.947 58.8372 78.2719 58.5567 78.6908L56.8376 79.2758C56.7226 79.0302 56.701 78.7486 56.7657 78.4814L64.9582 74.8633L64.9438 74.8705Z" fill="white"/>
<path d="M65.5552 77.2326L62.6996 78.5325C63.16 77.9042 63.6203 77.3626 64.0303 76.9004C64.282 76.9148 64.5266 76.9582 64.764 77.0087C65.0373 77.0593 65.2962 77.1387 65.5552 77.2326Z" fill="white"/>
<path d="M64.1455 76.7617C64.1095 76.805 64.0736 76.8412 64.0304 76.8917C63.9585 76.8917 63.8794 76.8773 63.8002 76.8917L64.1455 76.7689V76.7617Z" fill="white"/>
<path d="M63.8001 76.892C63.8792 76.892 63.9584 76.892 64.0303 76.892C63.6131 77.3542 63.16 77.8958 62.6996 78.5241L58.2114 80.5678C58.1538 80.3801 58.1323 80.1851 58.1323 79.9973C58.1323 79.5351 58.2761 79.0729 58.5494 78.6902L63.8073 76.8848L63.8001 76.892Z" fill="white"/>
<path d="M63.8003 76.8919L58.5424 78.6973C58.8301 78.2784 59.2473 77.9535 59.7724 77.7946L62.0453 77.1013C62.6135 76.928 63.2105 76.8558 63.7931 76.8919H63.8003Z" fill="white"/>
<path d="M58.2115 80.5756L62.6997 78.5391C62.4624 78.8568 62.225 79.2035 61.9805 79.5645L60.6714 80.2217L58.3913 81.0017C58.3194 80.8645 58.2546 80.72 58.2115 80.5756Z" fill="#275A26"/>
<path d="M61.9736 79.5645C61.916 79.6439 61.8585 79.7378 61.8009 79.8244L60.6645 80.2216L61.9736 79.5645Z" fill="#275A26"/>
<path d="M60.6646 80.2156L61.8011 79.8184C61.6716 80.0206 61.5349 80.2372 61.4055 80.4539C61.3192 80.4755 61.2257 80.4972 61.1393 80.5189L58.8089 81.2049C58.7298 81.2338 58.6363 81.2699 58.55 81.306L58.5356 81.2627L60.6574 80.2083L60.6646 80.2156Z" fill="#275A26"/>
<path d="M60.6643 80.2148L58.5425 81.2692L58.5209 81.2187C58.4777 81.1537 58.4346 81.0815 58.3986 81.0165C58.3986 81.0165 58.3986 81.002 58.3842 80.9948L60.6643 80.2148Z" fill="#275A26"/>
<path d="M39.9779 89.6679L60.5203 130.348L59.3911 129.59L58.4848 128.976L53.378 125.538L49.3932 122.743C49.4723 121.963 49.3932 120.887 48.8322 119.494C48.7746 119.356 48.7243 119.226 48.6595 119.089C48.5588 118.873 48.451 118.641 48.3287 118.418C48.1561 118.1 47.969 117.782 47.7676 117.464C47.5087 117.074 47.2354 116.692 46.9549 116.316C46.1924 115.305 45.3725 114.388 44.7323 113.709C43.9771 112.915 43.5815 111.846 43.6246 110.748L43.8045 106.011C43.826 105.353 43.4161 104.769 42.7903 104.574C42.6464 104.523 42.4954 104.509 42.3515 104.509C41.6466 104.509 41.0065 105.043 40.9202 105.794L40.2656 111.622L38.6041 108.033C38.0359 106.791 37.9496 105.375 38.3811 104.068L39.2083 101.562C39.4241 100.898 39.1148 100.183 38.489 99.8866C38.302 99.8 38.1078 99.7567 37.9208 99.7567C37.367 99.7567 36.8419 100.096 36.6405 100.652L35.5688 103.519C35.3674 104.068 35.2595 104.639 35.2595 105.216L35.0365 100.298C35.0365 99.9155 34.8639 99.5761 34.6122 99.3233C34.3604 99.0778 34.0152 98.9262 33.6339 98.9262C33.4254 98.9262 33.224 98.9767 33.0441 99.0561L22.6147 82.1429C22.55 82.0418 22.6579 81.919 22.7657 81.9623L26.3693 83.4572L26.434 83.4861L39.9923 89.6607L39.9779 89.6679Z" fill="#275A26"/>
<path d="M58.5422 81.2686L40.8841 90.0791L39.9778 89.6674L39.6469 89.003L55.5212 81.7885L56.147 81.7596L58.3768 80.9941C58.3768 80.9941 58.3768 81.0086 58.3911 81.0158C58.4271 81.0808 58.4703 81.153 58.5134 81.218L58.535 81.2686H58.5422Z" fill="#275A26"/>
<path d="M56.8162 79.2822L58.5353 78.6973C58.262 79.08 58.1181 79.535 58.1181 80.0044L57.9455 79.9033C57.8807 79.9033 57.8304 79.9033 57.7728 79.9033C57.2981 79.9033 56.9601 79.6361 56.809 79.2822H56.8162Z" fill="white"/>
<path d="M53.3775 125.539L58.4843 128.977C51.083 130.356 46.3071 127.171 46.3071 127.171C46.9976 127.352 47.7025 127.453 48.4289 127.46C52.0181 127.518 53.3775 125.539 53.3775 125.539Z" fill="#BCBBC0"/>
<path d="M58.3841 80.995L56.1544 81.7605L56.0825 81.5439L58.2115 80.5762C58.2547 80.7206 58.3122 80.865 58.3913 81.0023L58.3841 80.995Z" fill="#275A26"/>
<path d="M58.2115 80.5756L56.0825 81.5361L55.4711 79.7451L56.8233 79.283C56.9815 79.6368 57.3124 79.9112 57.7871 79.904C57.8447 79.904 57.895 79.904 57.9598 79.904L58.1324 80.0051C58.1324 80.1929 58.1611 80.3879 58.2115 80.5756Z" fill="white"/>
<path d="M56.8162 79.2827L55.464 79.7449L53.6514 81.0159L52.3352 81.9403L53.932 81.868L55.5144 81.7958L39.64 89.0103L26.4126 83.5002L26.3479 83.4713L22.7299 81.8247L24.4346 80.4598L39.64 86.0422L56.7371 78.4883C56.6724 78.7555 56.694 79.0371 56.809 79.2827H56.8162Z" fill="white"/>
<path d="M56.0754 81.543L56.1545 81.7596L55.5287 81.7885L56.0754 81.543Z" fill="#275A26"/>
<path d="M56.0748 81.5371V81.5443L55.5281 81.7898H55.5209L53.9385 81.8693L53.6508 81.0171L55.4634 79.7461L56.0748 81.5371Z" fill="white"/>
<path d="M53.6513 81.0156L53.939 81.8678L52.3422 81.94L53.6513 81.0156Z" fill="white"/>
<path d="M53.6513 81.0098V81.017L52.3422 81.9414L53.6513 81.0098Z" fill="white"/>
<path d="M35.2594 105.23C35.2594 104.66 35.3601 104.082 35.5687 103.533L36.6404 100.666C36.8418 100.11 37.3669 99.7705 37.9207 99.7705C38.1077 99.7705 38.3091 99.8139 38.4889 99.9005C39.1147 100.197 39.4312 100.912 39.2082 101.576L38.381 104.082C37.9495 105.389 38.0358 106.805 38.604 108.047L40.2655 111.636L40.9201 105.808C40.9992 105.057 41.6393 104.522 42.3514 104.522C42.4953 104.522 42.6463 104.544 42.7902 104.587C43.4159 104.775 43.8259 105.367 43.8043 106.025L43.6245 110.762C43.5814 111.852 43.977 112.929 44.7322 113.723C45.3795 114.402 46.1923 115.319 46.9548 116.33C47.2353 116.698 47.5086 117.088 47.7675 117.478C47.9617 117.796 48.1559 118.107 48.3286 118.431C48.4508 118.655 48.5587 118.879 48.6594 119.103C48.7242 119.24 48.7745 119.37 48.8321 119.508C49.3859 120.894 49.4722 121.977 49.3931 122.757L53.3779 125.552C53.3779 125.552 52.0184 127.531 48.4293 127.473C47.7028 127.473 46.9907 127.365 46.3074 127.184C44.2431 126.657 42.3874 125.415 41.028 123.718L36.2808 117.818C34.7703 115.94 33.7273 113.716 33.2526 111.347L32.5909 108.076C32.3463 106.862 32.2241 105.613 32.2241 104.371V100.363C32.2241 99.7922 32.5549 99.3011 33.044 99.0773C33.231 98.9978 33.4252 98.9473 33.6338 98.9473C34.015 98.9473 34.3603 99.0989 34.612 99.3445C34.8638 99.5972 35.0292 99.9366 35.0364 100.319L35.2594 105.237V105.23Z" fill="#F8CCC2"/>
<path d="M47.7751 117.471C47.5162 117.081 47.2429 116.691 46.9623 116.322C47.2429 116.698 47.5162 117.081 47.7751 117.471Z" fill="#275A26"/>
<path d="M39.6468 89.0102L39.9777 89.6673L26.4194 83.5L39.6468 89.0102Z" fill="#275A26"/>
<path d="M95.4911 43.0741C100.353 30.9633 95.7356 24.1387 90.1181 20.2101C86.4642 17.6536 83.8964 18.3686 82.5442 19.1846C81.8393 19.6179 80.9546 19.6251 80.1994 19.2568C78.6457 18.4986 75.596 17.8414 70.9927 20.3762C63.9582 24.247 61.4911 31.2521 60.779 33.7075C60.0741 36.1557 61.5199 39.7449 63.7352 40.6548C64.0877 40.7992 64.4545 40.857 64.8357 40.8426C65.0731 40.8426 65.3176 40.8065 65.5622 40.7631C66.3102 40.597 67.0511 40.2432 67.6481 39.8893C68.13 39.6004 68.5256 39.3116 68.7485 39.1382C68.8924 39.0227 68.9715 38.9505 68.9715 38.9505C69.6908 38.3005 69.4534 36.3362 69.4534 36.3362C69.8203 37.3039 70.4892 39.1021 70.4892 39.1021C72.1651 35.8524 69.6261 30.6672 71.7551 28.3562C73.1577 26.8324 74.6754 27.3235 75.5457 27.8362C75.8909 28.0312 76.3153 27.9518 76.5814 27.6485C76.8763 27.3163 77.4446 27.0419 78.545 27.3307C81.379 28.1107 82.9182 32.4798 85.0688 34.3214C85.673 34.8413 86.119 35.5346 86.27 36.3145C86.529 37.6506 86.8382 39.7088 86.8167 41.6153C86.9318 41.6803 87.0684 41.6803 87.1835 41.637C87.3561 41.5647 87.464 41.3409 87.6222 41.2253C88.2408 40.7487 88.8019 40.1998 89.0752 39.4632C90.2692 36.2351 96.3902 37.0439 95.4911 43.0741ZM95.4911 43.0741C95.4551 43.2907 95.4264 43.5074 95.376 43.7096C94.9157 45.8978 93.9159 47.1832 92.8657 47.9199C92.017 48.5409 91.1323 48.7937 90.4921 48.8948C89.9239 48.9887 89.442 49.4003 89.291 49.9708C87.5216 56.4632 84.2561 59.4169 81.7746 60.7601C80.9474 61.2078 80.0483 61.4823 79.1348 61.5617C78.6026 61.6123 78.0631 61.5978 77.5381 61.5112C76.8835 61.4173 76.2362 61.2223 75.6176 60.9406C68.7629 57.7703 66.49 49.1187 65.778 45.0528C65.5334 43.6374 65.2385 42.2436 64.8429 40.8642" stroke="black" stroke-width="0.75" stroke-linecap="round" stroke-linejoin="round"/>
<path d="M80.2573 65.78C80.2573 65.7294 80.2357 65.6861 80.2285 65.6283C80.1997 65.4478 80.1638 65.2745 80.135 65.0939C79.8976 63.8229 79.5668 62.4436 79.1352 61.5625" stroke="black" stroke-width="0.75" stroke-linecap="round" stroke-linejoin="round"/>
<path d="M89.8883 68.79C88.0614 69.866 85.882 70.2271 83.8249 69.6783C83.7745 69.6566 83.7242 69.6421 83.6666 69.6277C82.1202 69.1872 80.9262 67.9884 80.4299 66.4863C80.358 66.2624 80.3004 66.0385 80.2573 65.793" stroke="black" stroke-width="0.75" stroke-linecap="round" stroke-linejoin="round"/>
<path d="M92.8727 47.9277C92.8727 47.9277 93.5129 52.0874 95.009 55.525C95.1888 55.9366 95.3758 56.3338 95.5772 56.7094C95.5772 56.7238 95.5916 56.7455 95.5916 56.7527C96.0663 57.641 96.2965 58.6231 96.1814 59.6125C96.0735 60.6235 95.7642 61.9668 95.0018 63.4256C94.1674 65.0432 92.7649 66.8053 90.456 68.4374C90.269 68.5674 90.0892 68.683 89.895 68.7913" stroke="black" stroke-width="0.75" stroke-linecap="round" stroke-linejoin="round"/>
<path d="M80.1059 38.294C80.1059 38.294 77.2576 36.9725 75.3012 38.3085" stroke="black" stroke-width="0.75" stroke-linecap="round" stroke-linejoin="round"/>
<path d="M69.8708 39.52C69.8708 39.52 68.5042 38.9278 67.267 40.3577" stroke="black" stroke-width="0.75" stroke-linecap="round" stroke-linejoin="round"/>
<path d="M67.0295 34.9062C67.0295 34.9062 67.0583 37.6577 68.7557 39.131" stroke="black" stroke-width="0.75" stroke-linecap="round" stroke-linejoin="round"/>
<path d="M65.5834 37.0156C65.5834 37.0156 66.4681 39.5649 67.6621 39.8826" stroke="black" stroke-width="0.75" stroke-linecap="round" stroke-linejoin="round"/>
<path d="M63.0014 37.4414C63.0014 37.4414 63.5121 40.1062 65.5764 40.7562" stroke="black" stroke-width="0.75" stroke-linecap="round" stroke-linejoin="round"/>
<path d="M71.6616 42.4529C71.6616 42.4529 72.4816 43.9622 72.0932 48.223C72.0284 48.9669 72.4744 49.6818 73.1793 49.884C73.5102 49.9779 73.9058 50.0213 74.3661 49.949" stroke="black" stroke-width="0.75" stroke-linecap="round" stroke-linejoin="round"/>
<path d="M72.7905 52.9109C72.7905 52.9109 76.3221 52.6581 79.3862 51.0332C79.3862 51.0332 78.2497 53.3008 76.5019 54.1097C74.7541 54.9257 72.7905 52.9109 72.7905 52.9109Z" stroke="black" stroke-width="0.75" stroke-linecap="round" stroke-linejoin="round"/>
<path d="M81.645 73.0157C81.832 74.4673 81.9542 75.9911 81.9542 77.4499C81.9542 77.4499 85.9462 71.1236 89.895 68.791C89.895 68.791 89.895 68.791 89.9094 68.791" stroke="black" stroke-width="0.75" stroke-linecap="round" stroke-linejoin="round"/>
<path d="M80.2573 65.7793C80.2573 65.7793 80.2573 65.7793 80.2573 65.801C80.2716 65.866 80.3364 66.1115 80.4299 66.4942C80.6457 67.3681 81.0053 68.9713 81.329 70.8778" stroke="black" stroke-width="0.75" stroke-linecap="round" stroke-linejoin="round"/>
<path d="M107.87 65.2598C110.905 63.05 111.488 60.3707 109.524 58.1464C106.402 54.615 97.0663 54.7955 95.0092 55.5321" stroke="black" stroke-width="0.75" stroke-linecap="round" stroke-linejoin="round"/>
<path d="M84.0475 79.8398C84.0475 79.8398 90.7367 70.5527 100.044 68.444C103.475 67.6712 106.079 66.5446 107.855 65.252" stroke="black" stroke-width="0.75" stroke-linecap="round" stroke-linejoin="round"/>
<path d="M77.8686 74.3145C77.9837 74.4156 78.0916 74.5311 78.2067 74.6539C79.1849 75.701 79.7747 76.7482 80.1343 77.6653C80.7888 79.3624 80.645 80.6335 80.645 80.6335" stroke="black" stroke-width="0.75" stroke-linecap="round" stroke-linejoin="round"/>
<path d="M77.5242 61.584C77.5242 61.584 75.4095 62.8333 73.9494 64.6532C73.1294 65.6859 72.518 66.8847 72.6187 68.163C72.8057 70.705 74.1723 71.4128 75.9633 72.7127" stroke="black" stroke-width="0.75" stroke-linecap="round" stroke-linejoin="round"/>
<path d="M95.0092 63.4175C99.5622 58.4129 104.475 58.1384 104.475 58.1384" stroke="black" stroke-width="0.75" stroke-linecap="round" stroke-linejoin="round"/>
<path d="M75.8764 65.2582C75.8764 65.2582 77.9695 64.0667 80.1345 65.0921" stroke="black" stroke-width="0.75" stroke-linecap="round" stroke-linejoin="round"/>
<path d="M71.921 76.3584L77.8693 74.3146L81.6455 73.0147L83.6595 72.3214C83.9544 72.2203 84.1126 71.8881 84.0119 71.5993L83.6954 70.6604C83.5947 70.3571 83.2711 70.2055 82.9762 70.3066L81.3362 70.8699L75.9633 72.7186L69.31 75.0007" stroke="black" stroke-width="0.75" stroke-linecap="round" stroke-linejoin="round"/>
<path d="M56.7436 78.4894C56.8227 78.1716 57.0313 77.8972 57.3766 77.7383C58.7 77.1389 60.7356 76.099 61.7569 75.0085C62.1237 74.6258 62.505 74.308 62.8862 74.0553C63.1092 73.9036 63.3465 73.7736 63.5911 73.6797C64.6987 73.2248 65.9862 73.2825 67.0867 73.8531L69.3093 74.9941L71.726 76.2362C71.7908 76.2723 71.8555 76.3012 71.913 76.3518C73.1933 77.0739 74.0996 78.3305 74.3658 79.8038C74.4305 80.1504 74.4952 80.5404 74.5672 80.9881C74.8333 82.678 75.8187 84.7723 76.6674 86.3394C77.4371 87.7621 78.5375 88.9826 79.861 89.9142L82.5223 91.7774L83.5077 92.4779C84.1838 92.9473 84.5507 93.7634 84.4284 94.5794C84.1838 96.2548 83.2991 99.0569 80.2278 100.891" stroke="black" stroke-width="0.75" stroke-linecap="round" stroke-linejoin="round"/>
<path d="M70.9419 78.6329C70.9419 78.6329 70.5966 78.5751 70.0356 78.4668" stroke="black" stroke-width="0.75" stroke-linecap="round" stroke-linejoin="round"/>
<path d="M67.9358 76.1568L67.0439 75.7741L65.7564 75.2252L64.9436 74.8713L56.7439 78.4894L39.6468 86.0433L24.4342 80.461L22.7367 81.8259L26.3546 83.4724" stroke="black" stroke-width="0.75" stroke-linecap="round" stroke-linejoin="round"/>
<path d="M48.3286 118.426C48.4508 118.65 48.5587 118.874 48.6594 119.097" stroke="black" stroke-width="0.75" stroke-linecap="round" stroke-linejoin="round"/>
<path d="M46.9614 116.324C47.2419 116.693 47.5152 117.083 47.7741 117.472" stroke="black" stroke-width="0.75" stroke-linecap="round" stroke-linejoin="round"/>
<path d="M35.2524 105.23H35.2598" stroke="black" stroke-width="0.75" stroke-linecap="round" stroke-linejoin="round"/>
<path d="M47.7742 117.471C47.5153 117.081 47.242 116.699 46.9614 116.323C46.199 115.312 45.379 114.395 44.7389 113.716C43.9837 112.922 43.5881 111.853 43.6312 110.755L43.811 106.018C43.8326 105.361 43.4226 104.776 42.7969 104.581C42.653 104.53 42.502 104.516 42.3581 104.516C41.6532 104.516 41.0131 105.05 40.9267 105.801L40.2722 111.629L38.6107 108.04C38.0425 106.798 37.9562 105.382 38.3877 104.075L39.2149 101.569C39.4307 100.905 39.1214 100.19 38.4956 99.8937C38.3086 99.807 38.1144 99.7637 37.9274 99.7637C37.3735 99.7637 36.8485 100.103 36.6471 100.659L35.5754 103.526C35.374 104.075 35.2661 104.646 35.2661 105.223C35.2517 105.714 35.3164 106.198 35.4459 106.675L37.2728 113.232" stroke="black" stroke-width="0.75" stroke-linecap="round" stroke-linejoin="round"/>
<path d="M48.6667 119.098C48.566 118.874 48.4582 118.65 48.3359 118.426C48.1633 118.108 47.9762 117.79 47.7748 117.473" stroke="black" stroke-width="0.75" stroke-linecap="round" stroke-linejoin="round"/>
<path d="M48.8322 124.348C48.8322 124.348 49.2782 123.828 49.3933 122.752C49.4724 121.972 49.3933 120.896 48.8322 119.502C48.7747 119.365 48.7243 119.235 48.6596 119.098" stroke="black" stroke-width="0.75" stroke-linecap="round" stroke-linejoin="round"/>
<path d="M49.3931 122.744L53.3779 125.538C53.3779 125.538 52.0184 127.517 48.4293 127.459C47.7028 127.459 46.9907 127.351 46.3074 127.171C44.2431 126.643 42.3874 125.401 41.028 123.704L36.2808 117.804C34.7703 115.926 33.7273 113.702 33.2526 111.333L32.5909 108.062C32.3463 106.849 32.2241 105.599 32.2241 104.357V100.349C32.2241 99.7785 32.5549 99.2875 33.044 99.0636C33.231 98.9841 33.4252 98.9336 33.6338 98.9336C34.015 98.9336 34.3603 99.0853 34.612 99.3308C34.8638 99.5836 35.0292 99.923 35.0364 100.306L35.2594 105.224" stroke="black" stroke-width="0.75" stroke-linecap="round" stroke-linejoin="round"/>
<path d="M26.3546 83.4715L22.7511 81.9766C22.6432 81.926 22.5353 82.0488 22.6 82.1571L33.0295 99.0704" stroke="black" stroke-width="0.75" stroke-linecap="round" stroke-linejoin="round"/>
<path d="M58.4845 128.977L59.3908 129.591L60.5201 130.349L39.9777 89.6693L39.6468 89.0121L26.4194 83.502" stroke="black" stroke-width="0.75" stroke-linecap="round" stroke-linejoin="round"/>
<path d="M53.3774 125.539L58.477 128.977" stroke="black" stroke-width="0.75" stroke-linecap="round" stroke-linejoin="round"/>
<path d="M80.2352 100.891L86.5216 114.735C86.9892 115.775 86.572 116.995 85.565 117.508L85.0831 117.753L72.2441 124.332L66.7201 127.163L60.52 130.341" stroke="black" stroke-width="0.75" stroke-linecap="round" stroke-linejoin="round"/>
<path d="M39.6469 89.0108L55.5213 81.7963L56.0751 81.5507L58.2041 80.583L62.6924 78.5465L65.5479 77.2394L65.9003 77.0733L67.8927 76.1705C67.8927 76.1705 67.9143 76.1705 67.9215 76.1705C68.4106 75.9611 68.9788 76.1705 69.2018 76.6688L69.4464 77.2105L70.0218 78.4815L80.2139 100.905" stroke="black" stroke-width="0.75" stroke-linecap="round" stroke-linejoin="round"/>
<path d="M46.3002 127.172C46.3002 127.172 51.0762 130.357 58.4775 128.977" stroke="black" stroke-width="0.75" stroke-linecap="round" stroke-linejoin="round"/>
<path d="M82.5297 91.7852C82.5297 91.7852 83.3425 89.7848 86.9101 93.2007C89.406 95.5911 92.5923 98.6025 95.7428 100.791C97.095 101.744 98.4472 102.524 99.7347 103.058C104.007 104.82 104.468 114.815 104.468 114.815" stroke="black" stroke-width="0.75" stroke-linecap="round" stroke-linejoin="round"/>
<path d="M109.97 79.8398C109.97 79.8398 107.503 82.8513 103.676 84.9962C99.8499 87.1266 99.5118 90.463 97.8934 94.5649C96.2823 98.6669 95.7572 100.783 95.7572 100.783" stroke="black" stroke-width="0.75" stroke-linecap="round" stroke-linejoin="round"/>
<path d="M104.468 79.0527C104.468 79.0527 101.36 82.8875 100.95 85.4223" stroke="black" stroke-width="0.75" stroke-linecap="round" stroke-linejoin="round"/>
<path d="M107.862 65.2598C108.294 65.4475 124.485 72.6909 121.708 84.9101C119.932 92.7601 117.81 97.8947 116.314 101.405C115.458 103.441 114.81 104.929 114.559 106.091C113.875 109.262 113.818 110.287 110.66 113.616C107.503 116.953 107.021 123.814 100.943 126.088C99.5905 126.601 97.7204 126.146 95.7424 125.236C94.2176 124.536 92.6208 123.554 91.1391 122.542C87.8017 120.253 85.0756 117.762 85.0756 117.762" stroke="black" stroke-width="0.75" stroke-linecap="round" stroke-linejoin="round"/>
<path d="M59.3908 129.59L62.7282 150.425C62.9584 151.862 63.9654 153.039 65.3464 153.487C72.4888 155.805 95.34 161.669 116.077 150.122C117.515 149.32 118.27 147.681 117.961 146.056C117.235 142.149 116.033 134.891 116.436 131.497C117.005 126.716 117.796 125.914 116.889 123.755C115.983 121.589 116.321 101.397 116.321 101.397" stroke="black" stroke-width="0.75" stroke-linecap="round" stroke-linejoin="round"/>
<path d="M62.9438 132.24L64.5478 143.448C64.7132 144.568 65.5619 145.463 66.6768 145.68C72.5245 146.821 90.9379 149.551 104.467 141.975" stroke="black" stroke-width="0.75" stroke-linecap="round" stroke-linejoin="round"/>
<path d="M103.561 139.246L102.972 129.952C102.914 129.006 102.231 128.233 101.31 128.06C99.7061 127.764 97.239 127.042 95.7573 125.236" stroke="black" stroke-width="0.75" stroke-linecap="round" stroke-linejoin="round"/>
<path d="M63.5053 130.934C63.5053 130.934 65.5624 129.454 66.7276 127.172" stroke="black" stroke-width="0.75" stroke-linecap="round" stroke-linejoin="round"/>
<path d="M91.147 122.541C91.147 122.541 83.9759 125.155 72.2446 124.346" stroke="black" stroke-width="0.75" stroke-linecap="round" stroke-linejoin="round"/>
<path d="M72.6182 68.1624L63.5986 73.687L62.4693 74.373" stroke="black" stroke-width="0.75" stroke-linecap="round" stroke-linejoin="round"/>
<path d="M71.9203 134.5C71.9203 134.5 75.9842 140.523 86.723 141.512" stroke="black" stroke-width="0.75" stroke-linecap="round" stroke-linejoin="round"/>
<path d="M66.5618 84.7489L49.0952 92.3379L51.3804 97.6401L68.8471 90.0511L66.5618 84.7489Z" fill="white" stroke="black" stroke-width="0.75" stroke-linecap="round" stroke-linejoin="round"/>
<path d="M40.9409 86.9879L63.7418 76.7402" stroke="black" stroke-width="0.75" stroke-linecap="round" stroke-linejoin="round"/>
<path d="M25.0375 81.8691L38.4735 87.1338" stroke="black" stroke-width="0.75" stroke-linecap="round" stroke-linejoin="round"/>
<path d="M86.3989 178.899C86.3989 178.899 81.9826 179.079 77.8539 176.732" stroke="black" stroke-width="0.75" stroke-linecap="round" stroke-linejoin="round"/>
<path d="M86.3993 180.979C86.3993 180.979 85.0471 184.864 78.5737 185.759" stroke="black" stroke-width="0.75" stroke-linecap="round" stroke-linejoin="round"/>
<path d="M95.8652 57.3359C95.8652 57.3359 97.0951 60.1235 99.3609 59.8996C99.3609 59.8996 96.6132 61.5318 95.225 63.1855C95.225 63.1855 96.9873 59.1414 95.8652 57.3432V57.3359Z" fill="white" stroke="black" stroke-width="0.75" stroke-linecap="round" stroke-linejoin="round"/>
<path d="M105.798 109.108C105.662 108.971 105.726 105.808 100.663 103.598" stroke="black" stroke-width="0.75" stroke-linecap="round" stroke-linejoin="round"/>
</g>
</g>
<defs>
<clipPath id="clip0_251_563">
<rect width="142" height="184" fill="white"/>
</clipPath>
<clipPath id="clip1_251_563">
<rect width="102" height="259" fill="white" transform="translate(20.3052 18.1582)"/>
</clipPath>
</defs>
</svg>
