<svg width="171" height="184" viewBox="0 0 171 184" fill="none" xmlns="http://www.w3.org/2000/svg">
<g clip-path="url(#clip0_251_294)">
<g clip-path="url(#clip1_251_294)">
<path d="M114.93 189.208L102.155 171.931C99.724 168.646 97.5022 164.641 97.257 160.57C97.2137 159.871 96.6366 159.316 95.9224 159.316H71.2012C70.8333 159.316 70.4943 159.468 70.2562 159.713C70.011 159.468 69.6791 159.316 69.3113 159.316H44.5973C43.8615 159.316 43.2628 159.907 43.2628 160.642C43.2628 164.828 40.6009 168.906 38.1122 172.277L25.5965 189.208C24.8391 190.231 25.7985 191.621 27.0248 191.283C33.5604 189.489 46.5161 188.113 53.8885 202.118C54.3141 202.932 55.4105 203.098 56.0381 202.428L69.0948 188.725C69.7369 188.055 70.8045 188.055 71.4465 188.725L84.5032 202.428C85.138 203.091 86.2273 202.925 86.6529 202.118C94.018 188.12 106.981 189.489 113.517 191.283C114.743 191.621 115.695 190.224 114.945 189.208H114.93Z" fill="#FFA94E" stroke="black" stroke-width="0.75" stroke-linecap="round" stroke-linejoin="round"/>
<path d="M44.9507 167.911C44.9507 167.911 62.2057 166.931 68.4744 185.922" stroke="black" stroke-width="0.75" stroke-linecap="round" stroke-linejoin="round"/>
<path d="M71.4175 185.922C71.4175 185.922 80.1821 167.515 96.8745 168.3" stroke="black" stroke-width="0.75" stroke-linecap="round" stroke-linejoin="round"/>
<path d="M68.0845 167.061C68.0845 167.061 70.4722 177.305 70.2558 182.269C69.9889 188.465 71.6408 167.061 71.6408 167.061" stroke="black" stroke-width="0.75" stroke-linecap="round" stroke-linejoin="round"/>
<path d="M72.9831 46.8918C72.6441 46.9494 72.3627 46.6612 72.406 46.337C72.7378 43.6714 71.3384 42.2233 71.3384 42.2233C72.0381 44.3486 71.7496 46.4451 71.6053 47.1872C71.5692 47.3601 71.4394 47.5114 71.259 47.5618L69.3907 48.167C69.0517 48.2751 68.7054 48.0373 68.7054 47.6987C68.7054 44.9538 67.8109 43.8371 67.8109 43.8371C68.2004 46.6829 67.4646 48.239 67.2987 48.5488C67.2699 48.5848 67.2482 48.6209 67.2194 48.6569C65.1923 50.775 63.0643 52.0502 63.0643 52.0502C63.1581 55.6308 59.6883 60.1625 58.8227 61.2359C58.7433 61.3296 58.6279 61.3872 58.4981 61.3872C58.4476 61.3872 58.3899 61.3728 58.3394 61.3584C57.38 60.9622 56.4494 60.4867 55.5982 59.9031C53.1816 58.2605 48.7308 61.1062 51.6451 65.6163C51.7605 65.7892 51.8687 65.9549 51.9914 66.1134C50.931 65.5946 49.8994 64.7373 48.9616 63.7503C45.0735 59.6653 43.1402 54.1539 43.8039 48.6713C44.5757 42.2593 48.0022 38.0087 50.1952 36.3156C52.0996 34.8387 54.4873 34.6874 56.0094 34.7738C56.875 34.8315 57.6901 34.4712 58.2745 33.8589C58.8371 33.2825 59.7605 32.6485 61.2393 32.454C64.2041 32.0649 82.772 35.1052 77.369 48.9163C76.3879 45.4077 74.9813 43.4264 74.4907 42.8068C74.4547 42.7564 74.3753 42.8068 74.3898 42.8645C74.8947 44.6728 74.7072 45.912 74.534 46.51C74.4763 46.7405 74.2455 46.8918 73.993 46.8702C73.5818 46.8342 73.25 46.8486 72.9831 46.8918Z" fill="#3A3230"/>
<path d="M56.7447 77.1861C57.091 73.4686 55.8286 68.7712 55.8286 68.7712C56.8241 68.9802 57.7114 68.8721 58.3173 68.728C58.8656 68.6055 59.4427 68.7784 59.7961 69.1963C63.8286 74.0521 67.8682 75.3633 70.5805 75.6083C71.4895 75.6875 72.3912 75.5867 73.2279 75.3273C73.1774 76.3576 73.4804 77.8921 73.7978 79.1673C73.8123 79.2105 73.8195 79.2538 73.8339 79.297C74.2595 80.954 73.6536 82.7263 72.2613 83.7998C72.218 83.8286 72.1747 83.8646 72.1387 83.8935C70.3425 85.2335 67.9836 85.6874 65.7546 85.2479C60.669 84.2321 58.3245 81.5808 57.3074 79.8589C56.8313 79.0664 56.6654 78.1515 56.752 77.2293V77.1861H56.7447Z" fill="#F8CCC2"/>
<path d="M97.7047 157.444C97.8417 159.857 96.4062 162.083 94.1339 162.926C86.978 165.599 70.0259 169.864 46.43 162.624C43.999 161.882 42.3904 159.562 42.5419 157.026C42.7583 153.229 43.119 147.718 43.5157 144.144C44.1722 138.215 42.412 127.855 42.311 124.145C43.018 125.585 43.6528 126.961 44.1794 128.229C47.3678 136.018 53.081 151.939 62.3145 153.474C71.548 155.016 78.1413 144.584 82.758 140.528C85.4992 138.114 91.5514 132.163 96.0023 127.747L97.7047 157.451V157.444Z" fill="#3F342E"/>
<path d="M42.3178 87.3442C48.637 83.4971 56.7451 76.7969 56.7451 76.7969V76.8401C56.6585 77.7983 56.8245 78.7637 57.3006 79.5922C58.3177 81.3933 60.6621 84.1671 65.7478 85.2333C67.9768 85.6944 70.3356 85.2189 72.1318 83.814C72.1679 83.778 72.2112 83.7492 72.2545 83.7132C73.6539 82.5893 74.2527 80.7377 73.827 79.0014C73.8126 78.9582 73.8054 78.9078 73.791 78.8646H73.827C73.827 78.8646 76.2725 80.0389 85.9388 81.5807C95.6123 83.1152 95.4969 86.3068 99.0243 89.873C102.537 93.4392 112.37 114.7 112.37 114.7L138.036 132.185C138.036 132.185 131.89 137.805 124.597 141.753C120.023 144.238 114.469 144.123 109.917 141.587C107.089 140.016 103.901 137.812 101.989 135.124C98.0433 129.591 96.1461 127.934 96.009 127.747C91.5582 132.163 85.5059 138.114 82.7648 140.528C78.148 144.584 71.5547 155.016 62.3213 153.474C53.0878 151.94 47.3746 136.025 44.1861 128.23C43.6668 126.962 43.0247 125.586 42.3178 124.145C38.6749 116.731 33.2647 107.459 33.6326 101.112C34.0726 93.5401 35.9914 91.1842 42.3178 87.3442Z" fill="#3F342E"/>
<path d="M74.4906 42.8134C74.9884 43.433 76.3878 45.4142 77.3689 48.9228C77.6718 50.0107 77.9387 51.2427 78.1119 52.6259C78.285 53.9372 78.5519 55.2268 78.8693 56.5092C79.7782 60.2123 81.0334 68.3605 76.1281 73.5262C75.3202 74.3691 74.3247 74.9887 73.2282 75.3273C72.3914 75.5939 71.4897 75.6947 70.5808 75.6083C67.8613 75.3705 63.8288 74.0521 59.7964 69.1963C59.4502 68.7784 58.8658 68.5983 58.3176 68.728C57.7117 68.8721 56.8244 68.9801 55.8289 68.764C54.617 68.519 53.2392 67.7986 51.9984 66.1127C51.883 65.9542 51.7676 65.7885 51.6522 65.6156C48.7379 61.1056 53.1815 58.2599 55.6053 59.9025C56.4565 60.4788 57.387 60.9615 58.3465 61.3578C58.397 61.3794 58.4547 61.3866 58.5052 61.3866C58.6278 61.3866 58.7504 61.329 58.8298 61.2353C59.6954 60.1618 63.1652 55.623 63.0714 52.0496C63.0714 52.0496 65.1994 50.7816 67.2265 48.6563C67.2553 48.6274 67.277 48.5842 67.3058 48.5482C67.4717 48.2384 68.2075 46.6894 67.818 43.8365C67.818 43.8365 68.7053 44.9532 68.7125 47.6981C68.7125 48.0367 69.0587 48.2744 69.3978 48.1664L71.2661 47.5612C71.4465 47.5035 71.5763 47.3595 71.6124 47.1866C71.7494 46.4445 72.038 44.348 71.3455 42.2227C71.3455 42.2227 72.7449 43.6708 72.4131 46.3364C72.377 46.6606 72.6584 46.9488 72.9902 46.8912C73.2571 46.8551 73.5889 46.8335 74.0001 46.8696C74.2526 46.8912 74.4834 46.7471 74.5411 46.5093C74.7142 45.9114 74.9018 44.6722 74.3968 42.8639C74.3752 42.8062 74.4546 42.7558 74.4978 42.8062L74.4906 42.8134Z" fill="#F8CCC2"/>
<path d="M51.9984 66.1049C51.883 65.9464 51.7676 65.7807 51.6522 65.6078C48.7379 61.0978 53.1815 58.252 55.6053 59.8947C56.4565 60.471 57.387 60.9537 58.3465 61.35C58.397 61.3716 58.4547 61.3788 58.5052 61.3788C58.6278 61.3788 58.7504 61.3212 58.8298 61.2275C59.6954 60.154 63.1652 55.6152 63.0714 52.0418C63.0714 52.0418 65.1994 50.7738 67.2265 48.6485C67.2553 48.6196 67.277 48.5764 67.3058 48.5404C67.4717 48.2306 68.2075 46.6816 67.818 43.8287C67.818 43.8287 68.7053 44.9453 68.7125 47.6903C68.7125 48.0289 69.0587 48.2666 69.3978 48.1585L71.2661 47.5534C71.4465 47.4957 71.5763 47.3516 71.6124 47.1787C71.7494 46.4367 72.038 44.3402 71.3455 42.2148C71.3455 42.2148 72.7449 43.6629 72.4131 46.3286C72.377 46.6528 72.6584 46.941 72.9902 46.8834C73.2571 46.8473 73.5889 46.8257 74.0001 46.8617C74.2526 46.8834 74.4834 46.7393 74.5411 46.5015C74.7142 45.9035 74.9018 44.6644 74.3968 42.856C74.3752 42.7984 74.4546 42.748 74.4978 42.7984C74.9956 43.418 76.395 45.3992 77.3761 48.9078C77.6791 49.9957 77.946 51.2277 78.1191 52.6109C78.2922 53.9221 78.5591 55.2117 78.8765 56.4941C79.7854 60.1973 81.0406 68.3455 76.1353 73.5112C75.3274 74.3541 74.3319 74.9737 73.2354 75.3123C72.3987 75.5788 71.497 75.6797 70.588 75.5932C67.8685 75.3555 63.8361 74.0371 59.8036 69.1813C59.4574 68.7634 58.8731 68.5833 58.3248 68.713C57.7189 68.8571 56.8316 68.9651 55.8361 68.749C54.6242 68.504 53.2464 67.7836 52.0057 66.0977L51.9984 66.1049Z" stroke="black" stroke-width="0.75" stroke-linecap="round" stroke-linejoin="round"/>
<path d="M51.9982 66.1053C50.9378 65.5866 49.9062 64.7293 48.9685 63.7422C45.0803 59.6573 43.147 54.1459 43.8107 48.6632C44.5826 42.2512 48.009 38.0006 50.202 36.3075C52.1064 34.8306 54.4941 34.6793 56.0162 34.7658C56.8818 34.8234 57.697 34.4632 58.2813 33.8508C58.844 33.2744 59.7673 32.6405 61.2461 32.4459C64.2109 32.0569 82.7789 35.0972 77.3758 48.9082" stroke="black" stroke-width="0.75" stroke-linecap="round" stroke-linejoin="round"/>
<path d="M55.8286 68.7715C55.8286 68.7715 57.0982 73.4688 56.7447 77.1863V77.2296C56.6582 78.1445 56.8241 79.0667 57.3002 79.8592C58.3173 81.5811 60.6618 84.2323 65.7474 85.2482C67.9764 85.6876 70.3353 85.2337 72.1315 83.8937C72.1675 83.8649 72.2108 83.8289 72.2541 83.8001C73.6536 82.7266 74.2523 80.9543 73.8267 79.2972C73.8123 79.254 73.805 79.2108 73.7906 79.1676C73.4732 77.8924 73.1702 76.3578 73.2207 75.3276" stroke="black" stroke-width="0.75" stroke-linecap="round" stroke-linejoin="round"/>
<path d="M96.0093 127.739C96.8677 126.889 97.6612 126.089 98.3681 125.383C100.035 123.712 100.107 121.039 98.5341 119.281L92.5612 112.595C91.3998 111.298 89.4016 111.19 88.1175 112.365C83.2123 116.831 72.0672 126.838 69.3476 128.114C68.9148 128.315 68.4243 128.553 67.9121 128.827C64.2764 130.758 59.1547 134.461 58.5776 141.283" stroke="black" stroke-width="0.75" stroke-linecap="round" stroke-linejoin="round"/>
<path d="M56.7451 76.7969C56.7451 76.7969 48.637 83.5043 42.3178 87.3442C35.9914 91.1842 34.0726 93.5401 33.6326 101.112C33.2647 107.452 38.6749 116.724 42.3178 124.145C43.0247 125.586 43.6595 126.962 44.1861 128.23C47.3746 136.018 53.0878 151.94 62.3213 153.474C71.5547 155.016 78.148 144.584 82.7648 140.528C85.5059 138.114 91.5582 132.163 96.009 127.747" stroke="black" stroke-width="0.75" stroke-linecap="round" stroke-linejoin="round"/>
<path d="M55.8286 135.916C56.0522 136.024 59.4643 129.879 64.4056 129.879" stroke="black" stroke-width="0.75" stroke-linecap="round" stroke-linejoin="round"/>
<path d="M38.2993 91.8694C38.2993 91.8694 42.4832 90.1187 46.3209 93.0797" stroke="black" stroke-width="0.75" stroke-linecap="round" stroke-linejoin="round"/>
<path d="M50.0513 95.5859C50.0513 95.5859 53.6797 99.9735 55.3245 104.145C56.9764 108.309 65.5462 125.499 67.9123 128.827C67.9123 128.827 67.9123 128.827 67.9123 128.842" stroke="black" stroke-width="0.75" stroke-linecap="round" stroke-linejoin="round"/>
<path d="M42.7505 113.742C42.7505 113.742 46.2708 118.908 54.8406 122.085" stroke="black" stroke-width="0.75" stroke-linecap="round" stroke-linejoin="round"/>
<path d="M96.0023 127.74L97.7047 157.444C97.8417 159.857 96.4062 162.083 94.1339 162.926C86.978 165.599 70.0259 169.864 46.43 162.624C43.999 161.882 42.3904 159.562 42.5419 157.026C42.7583 153.229 43.119 147.718 43.5157 144.144C44.1722 138.215 42.412 127.855 42.311 124.145" stroke="black" stroke-width="0.75" stroke-linecap="round" stroke-linejoin="round"/>
<path d="M73.8267 78.8652C73.8267 78.8652 76.2721 80.0468 85.9384 81.5885C95.6119 83.1231 95.4965 86.3147 99.024 89.8809C102.537 93.4471 112.095 114.146 112.095 114.146L138.035 132.186C138.035 132.186 131.889 137.805 124.596 141.753C120.023 144.239 114.468 144.124 109.917 141.588C107.089 140.017 103.9 137.812 101.989 135.125C98.0429 129.592 96.1457 127.935 96.0086 127.748" stroke="black" stroke-width="0.75" stroke-linecap="round" stroke-linejoin="round"/>
<path d="M64.0454 52.6404C64.0454 52.6404 66.0797 50.4935 68.3303 50.9114" stroke="black" stroke-width="0.75" stroke-linecap="round" stroke-linejoin="round"/>
<path d="M73.6323 49.9673C73.6323 49.9673 74.6206 48.9731 76.2725 49.7295" stroke="black" stroke-width="0.75" stroke-linecap="round" stroke-linejoin="round"/>
<path d="M72.8679 54.543C72.8679 54.543 72.7957 56.5026 75.472 59.2403C76.1861 59.9752 76.1573 61.1351 75.3494 61.7763C75.1113 61.9636 74.8228 62.1437 74.4549 62.3022" stroke="black" stroke-width="0.75" stroke-linecap="round" stroke-linejoin="round"/>
<path d="M99.7026 97.7988C99.7026 97.7988 103.079 99.1749 106.729 103.649" stroke="black" stroke-width="0.75" stroke-linecap="round" stroke-linejoin="round"/>
<path d="M68.0198 55.2562C68.4815 55.1265 68.9937 55.4651 69.1596 56.0127C69.3255 56.5602 69.0947 57.1149 68.6402 57.2446C68.1857 57.3743 67.6664 57.0357 67.5004 56.4809C67.3345 55.9262 67.5654 55.3859 68.027 55.2562H68.0198Z" fill="black"/>
<path d="M75.6665 53.836C76.1282 53.7063 76.6404 54.0449 76.8063 54.5925C76.9722 55.14 76.7414 55.6948 76.2869 55.8245C75.8325 55.9541 75.3131 55.6155 75.1472 55.0608C74.9813 54.506 75.2121 53.9657 75.6738 53.836H75.6665Z" fill="black"/>
<path d="M142.306 133.151H114.317C112.896 133.151 111.742 131.998 111.742 130.579V89.4919C111.742 88.0726 112.896 86.9199 114.317 86.9199H142.306C143.727 86.9199 144.881 88.0726 144.881 89.4919V130.579C144.881 131.998 143.727 133.151 142.306 133.151ZM113.293 130.356H143.323V89.7153H113.293V130.356ZM127.907 88.7787C128.16 88.7787 128.369 88.577 128.369 88.3176C128.369 88.0582 128.167 87.8565 127.907 87.8565C127.648 87.8565 127.446 88.0582 127.446 88.3176C127.446 88.577 127.648 88.7787 127.907 88.7787ZM129.935 88.6562C130.122 88.6562 130.266 88.5049 130.266 88.3248C130.266 88.1447 130.115 87.9934 129.935 87.9934C129.754 87.9934 129.603 88.1447 129.603 88.3248C129.603 88.5049 129.754 88.6562 129.935 88.6562Z" fill="#A3A3A3" stroke="black" stroke-width="0.75" stroke-linecap="round" stroke-linejoin="round"/>
<path d="M143.323 89.7148H113.292V130.355H143.323V89.7148Z" fill="#FFF9E9" stroke="black" stroke-width="0.75" stroke-linecap="round" stroke-linejoin="round"/>
<path d="M144.881 95.2273V91.1855C144.997 91.1855 145.098 91.2288 145.17 91.308C145.242 91.3873 145.293 91.4809 145.293 91.5962V94.8238C145.293 95.0472 145.112 95.2345 144.881 95.2345V95.2273Z" fill="#7F7F7F" stroke="black" stroke-width="0.75" stroke-linecap="round" stroke-linejoin="round"/>
<path d="M128.362 88.3185C128.362 88.5707 128.16 88.7796 127.901 88.7796C127.641 88.7796 127.439 88.5779 127.439 88.3185C127.439 88.0591 127.641 87.8574 127.901 87.8574C128.16 87.8574 128.362 88.0591 128.362 88.3185Z" fill="#1E1E1E" stroke="black" stroke-width="0.75" stroke-linecap="round" stroke-linejoin="round"/>
<path d="M129.935 88.6491C130.118 88.6491 130.267 88.5008 130.267 88.3177C130.267 88.1347 130.118 87.9863 129.935 87.9863C129.752 87.9863 129.603 88.1347 129.603 88.3177C129.603 88.5008 129.752 88.6491 129.935 88.6491Z" fill="#1E1E1E" stroke="black" stroke-width="0.75" stroke-linecap="round" stroke-linejoin="round"/>
<path d="M144.694 110.917C145.778 110.917 146.656 110.04 146.656 108.958C146.656 107.875 145.778 106.998 144.694 106.998C143.61 106.998 142.732 107.875 142.732 108.958C142.732 110.04 143.61 110.917 144.694 110.917Z" fill="#FBC2AD" stroke="black" stroke-width="0.75" stroke-linecap="round" stroke-linejoin="round"/>
<path d="M145.069 107.193C146.153 107.193 147.031 106.315 147.031 105.233C147.031 104.151 146.153 103.273 145.069 103.273C143.985 103.273 143.107 104.151 143.107 105.233C143.107 106.315 143.985 107.193 145.069 107.193Z" fill="#FBC2AD" stroke="black" stroke-width="0.75" stroke-linecap="round" stroke-linejoin="round"/>
<path d="M145.033 103.49C146.117 103.49 146.995 102.612 146.995 101.53C146.995 100.448 146.117 99.5703 145.033 99.5703C143.949 99.5703 143.071 100.448 143.071 101.53C143.071 102.612 143.949 103.49 145.033 103.49Z" fill="#FBC2AD" stroke="black" stroke-width="0.75" stroke-linecap="round" stroke-linejoin="round"/>
<path d="M144.838 99.8157C145.921 99.8157 146.8 98.9384 146.8 97.8561C146.8 96.7738 145.921 95.8965 144.838 95.8965C143.754 95.8965 142.875 96.7738 142.875 97.8561C142.875 98.9384 143.754 99.8157 144.838 99.8157Z" fill="#FBC2AD" stroke="black" stroke-width="0.75" stroke-linecap="round" stroke-linejoin="round"/>
<path d="M117.332 111.43H126.147" stroke="black" stroke-width="0.5" stroke-linecap="round" stroke-linejoin="round"/>
<path d="M117.333 113.008H121.899" stroke="black" stroke-width="0.5" stroke-linecap="round" stroke-linejoin="round"/>
<path d="M122.583 113.008H131.139" stroke="black" stroke-width="0.5" stroke-linecap="round" stroke-linejoin="round"/>
<path d="M117.333 114.701H132.878" stroke="black" stroke-width="0.5" stroke-linecap="round" stroke-linejoin="round"/>
<path d="M117.332 116.242H128.261" stroke="black" stroke-width="0.5" stroke-linecap="round" stroke-linejoin="round"/>
<path d="M117.332 117.791H123.327" stroke="black" stroke-width="0.5" stroke-linecap="round" stroke-linejoin="round"/>
<path d="M124.264 117.791H136.015" stroke="black" stroke-width="0.5" stroke-linecap="round" stroke-linejoin="round"/>
<path d="M117.333 119.332H126.148" stroke="black" stroke-width="0.5" stroke-linecap="round" stroke-linejoin="round"/>
<path d="M117.282 120.875H126.097" stroke="black" stroke-width="0.5" stroke-linecap="round" stroke-linejoin="round"/>
<path d="M117.339 122.395H121.906" stroke="black" stroke-width="0.5" stroke-linecap="round" stroke-linejoin="round"/>
<path d="M122.591 122.395H131.147" stroke="black" stroke-width="0.5" stroke-linecap="round" stroke-linejoin="round"/>
<path d="M117.339 124.088H132.892" stroke="black" stroke-width="0.5" stroke-linecap="round" stroke-linejoin="round"/>
<path d="M117.339 125.629H128.268" stroke="black" stroke-width="0.5" stroke-linecap="round" stroke-linejoin="round"/>
<path d="M140.488 92.252H116.294C115.848 92.252 115.486 92.6132 115.486 93.0589V93.8874C115.486 94.333 115.848 94.6943 116.294 94.6943H140.488C140.935 94.6943 141.296 94.333 141.296 93.8874V93.0589C141.296 92.6132 140.935 92.252 140.488 92.252Z" fill="#7CC7CF"/>
<path d="M134.162 94.0683C134.489 94.0683 134.754 93.8038 134.754 93.4775C134.754 93.1512 134.489 92.8867 134.162 92.8867C133.836 92.8867 133.571 93.1512 133.571 93.4775C133.571 93.8038 133.836 94.0683 134.162 94.0683Z" fill="white"/>
<path d="M136.29 94.0683C136.617 94.0683 136.882 93.8038 136.882 93.4775C136.882 93.1512 136.617 92.8867 136.29 92.8867C135.964 92.8867 135.699 93.1512 135.699 93.4775C135.699 93.8038 135.964 94.0683 136.29 94.0683Z" fill="white"/>
<path d="M138.476 94.0683C138.802 94.0683 139.067 93.8038 139.067 93.4775C139.067 93.1512 138.802 92.8867 138.476 92.8867C138.149 92.8867 137.884 93.1512 137.884 93.4775C137.884 93.8038 138.149 94.0683 138.476 94.0683Z" fill="white"/>
<path d="M122.404 99.6582H119.367V107.381H122.404V99.6582Z" fill="#FD5527"/>
<path d="M127.497 97.252H124.46V107.381H127.497V97.252Z" fill="#FFA851"/>
<path d="M132.452 100.998H129.415V107.381H132.452V100.998Z" fill="#3C592D"/>
<path d="M137.409 98.9023H134.372V107.382H137.409V98.9023Z" fill="#355C9F"/>
<path d="M118.14 107.381H138.641" stroke="black" stroke-width="0.5" stroke-linecap="round" stroke-linejoin="round"/>
<path d="M68.8853 64.0449C68.8853 64.0449 71.1287 67.114 76.272 65.385" stroke="black" stroke-width="0.75" stroke-linecap="round" stroke-linejoin="round"/>
<path d="M80.6697 97.7355L80.8395 96.6974C80.8942 96.3632 81.2089 96.1372 81.5435 96.1918L112.377 101.223L112.009 103.47L81.1759 98.4386C80.8413 98.384 80.615 98.0697 80.6697 97.7355Z" fill="white" stroke="black" stroke-width="0.75" stroke-linecap="round" stroke-linejoin="round"/>
<path d="M112.009 103.467L116.078 102.977L112.377 101.219L112.009 103.467Z" fill="white" stroke="black" stroke-width="0.75" stroke-linecap="round" stroke-linejoin="round"/>
<path d="M114.368 103.187L114.519 102.229L116.077 102.978L114.368 103.187Z" fill="white" stroke="black" stroke-width="0.75" stroke-linecap="round" stroke-linejoin="round"/>
<path d="M80.6687 97.7413L80.8385 96.7032C80.8932 96.3691 81.2079 96.143 81.5426 96.1976L83.9133 96.5845L83.5457 98.8313L81.175 98.4445C80.8404 98.3899 80.614 98.0755 80.6687 97.7413Z" fill="white" stroke="black" stroke-width="0.75" stroke-linecap="round" stroke-linejoin="round"/>
<path d="M104.854 97.3581C106.138 98.3163 108.482 99.0511 109.99 99.4474C111.223 99.7716 111.202 101.602 109.939 101.81C109.882 101.818 109.824 101.825 109.759 101.825L109.6 101.962C109.658 102.329 109.629 102.711 109.492 103.093C109.463 103.172 109.434 103.251 109.398 103.331L109.377 103.424C109.824 103.547 110.221 103.828 110.444 104.238C110.726 104.75 110.79 105.478 109.968 106.335L109.845 106.45C109.946 106.558 110.019 106.688 110.055 106.839C110.105 107.041 110.091 107.264 109.946 107.516C109.643 108.042 106.946 110.391 105.106 111.969C104.075 112.848 103.267 113.95 102.682 115.175C101.925 116.796 100.475 119.238 98.0584 121.126C97.1783 121.817 96.3848 122.61 95.7356 123.518L93.0665 127.242C92.475 128.064 91.4218 128.431 90.4552 128.121C86.4732 126.839 84.9079 123.863 84.3163 122.048C84.0422 121.205 84.2731 120.276 84.9079 119.649L88.3127 116.299C89.5535 115.081 90.4984 113.597 91.0611 111.954C91.6815 110.153 92.3524 107.769 92.3379 105.946C92.3379 105.463 92.3379 105.038 92.3379 104.663C92.3596 102.992 93.1603 101.429 94.502 100.427L98.9889 97.0843C100.28 96.1261 102.004 95.8884 103.476 96.5512C103.923 96.7529 104.385 97.0123 104.839 97.3509L104.854 97.3581ZM104.428 103.374L104.125 103.424C103.613 103.511 103.13 103.705 102.704 104.008L101.622 104.771C102.444 104.426 103.31 104.015 104.067 103.568C104.183 103.496 104.305 103.439 104.435 103.381L104.428 103.374Z" fill="#F8CCC2"/>
<path d="M109.766 101.825C109.831 101.825 109.889 101.818 109.946 101.811C111.209 101.609 111.23 99.7722 109.997 99.448C108.489 99.0445 106.145 98.3169 104.861 97.3587C104.406 97.0201 103.945 96.7607 103.497 96.559C102.026 95.8962 100.302 96.1267 99.0104 97.0921L94.5235 100.435C93.1818 101.436 92.3811 103 92.3594 104.671C92.3594 105.046 92.3594 105.471 92.3594 105.954C92.3738 107.784 91.703 110.161 91.0826 111.962C90.5199 113.605 89.5677 115.089 88.3342 116.306L84.9294 119.657C84.2946 120.283 84.0637 121.213 84.3378 122.056C84.9294 123.871 86.4875 126.847 90.4767 128.129C91.4361 128.439 92.4893 128.071 93.088 127.25L95.757 123.525C96.4063 122.618 97.1998 121.818 98.0798 121.134C100.496 119.246 101.946 116.804 102.704 115.183C103.281 113.958 104.096 112.856 105.128 111.977C106.967 110.399 109.665 108.05 109.968 107.524C110.112 107.272 110.127 107.049 110.076 106.847C110.04 106.696 109.968 106.566 109.867 106.458C109.679 106.256 109.398 106.134 109.11 106.134H107.999C107.169 106.134 106.354 106.393 105.683 106.883C103.908 108.165 101.175 109.614 101.11 109.671" stroke="black" stroke-width="0.75" stroke-linecap="round" stroke-linejoin="round"/>
<path d="M99.313 101.371C99.9406 101.083 100.575 100.758 101.152 100.42C102.292 99.7498 103.62 99.4472 104.932 99.6129L107.464 99.9299C108.583 100.067 109.441 100.939 109.607 101.962C109.665 102.329 109.636 102.711 109.499 103.093C109.47 103.172 109.441 103.251 109.405 103.33" stroke="black" stroke-width="0.75" stroke-linecap="round" stroke-linejoin="round"/>
<path d="M95.771 102.82C95.771 102.82 97.4951 102.23 99.3057 101.387" stroke="black" stroke-width="0.75" stroke-linecap="round" stroke-linejoin="round"/>
<path d="M104.428 103.375C105.07 103.08 105.792 102.972 106.499 103.058L109.081 103.368C109.175 103.382 109.276 103.397 109.37 103.426C109.817 103.548 110.214 103.829 110.437 104.24C110.719 104.751 110.783 105.479 109.961 106.336" stroke="black" stroke-width="0.75" stroke-linecap="round" stroke-linejoin="round"/>
<path d="M101.615 104.765C102.437 104.42 103.303 104.009 104.06 103.562C104.176 103.49 104.298 103.433 104.428 103.375" stroke="black" stroke-width="0.75" stroke-linecap="round" stroke-linejoin="round"/>
<path d="M98.2964 105.969C98.2964 105.969 99.869 105.5 101.615 104.766" stroke="black" stroke-width="0.75" stroke-linecap="round" stroke-linejoin="round"/>
<path d="M99.3062 101.378H99.3134L100.763 100.305C101.117 100.045 101.6 99.9661 102.033 99.9878" stroke="black" stroke-width="0.75" stroke-linecap="round" stroke-linejoin="round"/>
<path d="M101.615 104.765L102.697 104.001C103.122 103.699 103.605 103.504 104.118 103.418L104.421 103.367" stroke="black" stroke-width="0.75" stroke-linecap="round" stroke-linejoin="round"/>
<path d="M79.4897 120.074L89.3941 110.975C90.1948 110.24 91.4572 110.391 92.0559 111.299C93.7367 113.849 97.1055 118.59 100.554 121.306C101.412 121.983 101.448 123.273 100.633 124L92.3156 131.385" fill="#3F342E"/>
<path d="M79.4897 120.074L89.3941 110.975C90.1948 110.24 91.4572 110.391 92.0559 111.299C93.7367 113.849 97.1055 118.59 100.554 121.306C101.412 121.983 101.448 123.273 100.633 124L92.3156 131.385" stroke="black" stroke-width="0.75" stroke-linecap="round" stroke-linejoin="round"/>
<path d="M54.8838 62.1504C54.8838 62.1504 53.1814 62.1216 53.3257 63.7642C53.47 65.4069 56.4781 67.0711 57.9064 66.0336" stroke="black" stroke-width="0.75" stroke-linecap="round" stroke-linejoin="round"/>
</g>
</g>
<defs>
<clipPath id="clip0_251_294">
<rect width="171" height="184" fill="white"/>
</clipPath>
<clipPath id="clip1_251_294">
<rect width="123" height="258" fill="white" transform="translate(24.3052 32.1582)"/>
</clipPath>
</defs>
</svg>
