<svg width="330" height="148" viewBox="0 0 330 148" fill="none" xmlns="http://www.w3.org/2000/svg">
<g opacity="0.2" clip-path="url(#clip0_251_1028)">
<path d="M16.007 11.1728C20.5742 16.9918 22.6632 23.5049 23.5009 26.8667C23.7603 27.9043 22.8349 28.6334 21.8886 28.1321C18.8251 26.5161 12.9962 22.9371 8.43258 17.118C3.86548 11.299 1.77645 4.78584 0.935237 1.42412C0.675862 0.386508 1.60471 -0.33912 2.55108 0.158654C5.61451 1.77467 11.4434 5.35373 16.007 11.1728Z" fill="white"/>
<path d="M13.5663 41.705C19.581 43.2159 25.3714 42.2203 28.2876 41.4912C29.1884 41.2668 29.4759 40.124 28.7854 39.5001C26.5596 37.4844 21.9224 33.8703 15.9077 32.363C9.89303 30.8521 4.10265 31.8477 1.18643 32.5768C0.285631 32.8012 -0.00178474 33.9439 0.688714 34.5679C2.91443 36.5835 7.55164 40.1977 13.5663 41.705Z" fill="white"/>
<path d="M29.0011 59.2075C35.6081 59.8035 41.5667 57.7878 44.525 56.5364C45.4398 56.1508 45.552 54.8958 44.7213 54.349C42.0329 52.5893 36.5299 49.5395 29.9229 48.9436C23.3158 48.3477 17.3572 50.3633 14.3989 51.6147C13.4841 52.0003 13.3719 53.2588 14.2026 53.8021C16.891 55.5619 22.394 58.6116 29.0011 59.2075Z" fill="white"/>
<path d="M44.0096 38.4835C45.4327 44.9651 49.1481 50.0375 51.2336 52.4843C51.8785 53.2415 53.1088 52.9681 53.3787 52.0146C54.248 48.9193 55.4958 42.7567 54.0727 36.2751C52.6496 29.7935 48.9343 24.7212 46.8487 22.2744C46.2038 21.5172 44.9735 21.7906 44.7036 22.7441C43.8344 25.8394 42.5866 32.002 44.0096 38.4835Z" fill="white"/>
<path d="M27.5463 22.5548C28.703 29.0889 32.2046 34.312 34.1885 36.8395C34.8018 37.6212 36.0426 37.4003 36.3511 36.4574C37.3465 33.4006 38.8467 27.2941 37.6935 20.76C36.5369 14.2258 33.0353 9.00271 31.0514 6.47529C30.438 5.69357 29.1972 5.91441 28.8888 6.85738C27.8933 9.91413 26.3932 16.0206 27.5463 22.5548Z" fill="white"/>
<path d="M46.5709 76.7109C53.6371 76.781 59.792 74.1344 62.8309 72.5499C63.7703 72.0627 63.7808 70.7201 62.8554 70.2118C59.8481 68.5712 53.7493 65.8019 46.683 65.7318C39.6168 65.6617 33.4619 68.3083 30.423 69.8928C29.4837 70.3801 29.4731 71.7261 30.3985 72.2309C33.4058 73.8715 39.5047 76.6408 46.5709 76.7109Z" fill="white"/>
<path d="M61.1942 53.2798C63.2166 60.0524 67.5629 65.1493 69.9744 67.5856C70.7175 68.3392 72.0038 67.9536 72.2141 66.916C72.8941 63.5578 73.7354 56.9115 71.7129 50.1389C69.6905 43.3664 65.3442 38.2695 62.9327 35.8332C62.1896 35.0795 60.9033 35.4651 60.693 36.5028C60.013 39.861 59.1718 46.5073 61.1942 53.2798Z" fill="white"/>
<path d="M67.9149 92.6891C75.4018 92.2299 81.7179 88.9628 84.8129 87.0558C85.7698 86.4669 85.6821 85.0437 84.6622 84.5775C81.3569 83.0666 74.6867 80.5988 67.1999 81.058C59.7131 81.5172 53.3969 84.7843 50.302 86.6913C49.3451 87.2802 49.4327 88.7034 50.4527 89.1696C53.758 90.6805 60.4281 93.1483 67.9149 92.6891Z" fill="white"/>
<path d="M81.3703 67.242C84.2655 74.1617 89.425 79.0553 92.2395 81.3549C93.1088 82.0665 94.4232 81.5162 94.5283 80.3979C94.8683 76.7803 95.012 69.6677 92.1168 62.748C89.2217 55.8282 84.0622 50.9346 81.2476 48.6351C80.3784 47.9235 79.064 48.4738 78.9588 49.5921C78.6188 53.2097 78.4751 60.3222 81.3703 67.242Z" fill="white"/>
<path d="M94.4704 107.791C102.22 106.08 108.284 101.632 111.207 99.1324C112.111 98.3612 111.785 96.8889 110.643 96.5699C106.941 95.5323 99.5667 94.046 91.817 95.7567C84.0673 97.4673 78.0036 101.916 75.0803 104.415C74.176 105.186 74.502 106.659 75.6446 106.978C79.346 108.015 86.7207 109.502 94.4704 107.791Z" fill="white"/>
<path d="M103.528 75.1046C100.692 67.6906 101.074 60.1784 101.554 56.3645C101.701 55.1867 103.11 54.6468 104.008 55.425C106.91 57.9489 112.206 63.2877 115.038 70.7018C117.874 78.1158 117.492 85.628 117.012 89.4419C116.864 90.6197 115.455 91.1596 114.558 90.3813C111.656 87.8574 106.36 82.5186 103.528 75.1046Z" fill="white"/>
<path d="M122.221 119.996C130.013 116.942 135.6 111.313 138.235 108.231C139.049 107.278 138.47 105.799 137.226 105.651C133.199 105.178 125.274 104.842 117.482 107.891C109.69 110.945 104.103 116.574 101.467 119.656C100.654 120.609 101.232 122.088 102.477 122.236C106.504 122.709 114.429 123.045 122.221 119.996Z" fill="white"/>
<path d="M128.329 84.1841C124.109 76.5948 123.356 68.3745 123.282 64.1575C123.258 62.8535 124.702 62.0437 125.792 62.7448C129.328 65.0163 135.893 69.959 140.113 77.5483C144.333 85.1376 145.087 93.3579 145.161 97.5749C145.185 98.8789 143.741 99.6887 142.651 98.9876C139.114 96.7161 132.549 91.7734 128.329 84.1841Z" fill="white"/>
<path d="M25.5591 31.252C25.5591 31.252 27.5745 33.7303 31.395 37.8001C35.212 41.87 40.8552 47.5172 48.0651 53.792C51.6684 56.9294 55.6676 60.221 60.0174 63.5371C64.3742 66.8463 69.0851 70.1764 74.1008 73.3979C79.1166 76.6195 84.4338 79.7288 89.9858 82.5927C95.5378 85.4567 101.318 88.0893 107.245 90.3152C107.977 90.6132 108.727 90.8726 109.474 91.1355L111.71 91.9242C113.193 92.4746 114.711 92.9128 116.211 93.386C116.961 93.6209 117.714 93.8522 118.464 94.0871C119.222 94.2904 119.979 94.4937 120.736 94.697C122.26 95.1037 123.778 95.5103 125.292 95.9134C126.053 96.1132 126.81 96.313 127.567 96.5129C128.324 96.7162 129.078 96.8985 129.835 97.1333C131.346 97.5855 132.856 98.0202 134.346 98.4759C135.822 98.9667 137.29 99.4504 138.748 99.9342C140.192 100.467 141.623 100.993 143.046 101.515C148.699 103.699 154.03 106.216 158.857 109.059C163.683 111.895 168.012 115.039 171.682 118.345C172.131 118.769 172.576 119.19 173.017 119.603C173.238 119.81 173.456 120.017 173.673 120.224C173.883 120.438 174.09 120.651 174.297 120.865C174.71 121.289 175.117 121.71 175.524 122.127C175.909 122.558 176.291 122.986 176.666 123.41C176.855 123.62 177.041 123.831 177.227 124.041C177.406 124.258 177.581 124.472 177.756 124.686C178.107 125.114 178.45 125.534 178.79 125.952C179.113 126.383 179.432 126.807 179.744 127.224C179.901 127.434 180.056 127.641 180.21 127.848C180.357 128.058 180.501 128.269 180.644 128.479C181.819 130.13 182.783 131.771 183.648 133.292C184.493 134.831 185.208 136.272 185.804 137.59C186.996 140.226 187.767 142.336 188.321 143.626C188.457 143.928 188.58 144.219 188.682 144.425C188.783 144.618 188.871 144.807 188.934 144.916C189.057 145.098 189.109 145.197 189.109 145.197L185.078 147.997C185.078 147.997 184.924 147.756 184.647 147.275C184.521 147.044 184.412 146.799 184.258 146.48C184.118 146.171 183.992 145.849 183.831 145.466C183.242 143.991 182.555 141.961 181.503 139.479C180.977 138.242 180.35 136.896 179.61 135.465C178.846 134.049 178.002 132.521 176.957 130.978C176.831 130.782 176.701 130.586 176.572 130.39C176.435 130.197 176.295 130 176.158 129.808C175.878 129.415 175.594 129.019 175.306 128.616C175.001 128.223 174.693 127.827 174.381 127.424C174.223 127.224 174.065 127.021 173.908 126.817C173.739 126.621 173.571 126.421 173.403 126.222C173.063 125.822 172.719 125.415 172.369 125.005C172.001 124.609 171.633 124.209 171.254 123.803C171.065 123.599 170.879 123.396 170.687 123.189C170.487 122.993 170.287 122.793 170.087 122.597C169.684 122.197 169.278 121.798 168.867 121.388C165.503 118.205 161.475 115.123 156.912 112.291C152.352 109.455 147.252 106.892 141.794 104.631C140.42 104.088 139.036 103.538 137.641 102.987C136.225 102.479 134.802 101.971 133.368 101.456C131.924 100.986 130.469 100.516 129.011 100.043C128.289 99.7975 127.529 99.5942 126.779 99.3733C126.028 99.156 125.275 98.9386 124.521 98.7213C123.011 98.2796 121.493 97.8344 119.972 97.3892C119.208 97.1649 118.44 96.937 117.672 96.7092C116.915 96.4533 116.155 96.1974 115.394 95.9415C113.876 95.4227 112.345 94.9389 110.848 94.343L108.594 93.4877C107.841 93.2037 107.087 92.9233 106.351 92.6008C100.385 90.1961 94.595 87.3882 89.0534 84.3595C83.5119 81.3273 78.2228 78.0637 73.2491 74.6985C68.2754 71.3332 63.6171 67.8699 59.3199 64.438C55.0297 60.9992 51.097 57.5989 47.5569 54.3669C40.4767 47.8993 34.9632 42.1083 31.2408 37.9439C27.5149 33.7794 25.5626 31.252 25.5626 31.252H25.5591Z" fill="white"/>
<path d="M313.605 11.1742C309.038 16.9932 306.949 23.5063 306.111 26.8681C305.852 27.9057 306.777 28.6348 307.723 28.1335C310.787 26.5175 316.616 22.9385 321.179 17.1194C325.747 11.3004 327.836 4.78726 328.673 1.42553C328.933 0.387921 328.007 -0.341212 327.061 0.160067C323.998 1.77608 318.169 5.35514 313.605 11.1742Z" fill="white"/>
<path d="M316.044 41.707C310.03 43.2178 304.239 42.2223 301.323 41.4931C300.422 41.2688 300.135 40.126 300.825 39.502C303.051 37.4864 307.688 33.8723 313.703 32.3649C319.718 30.8541 325.508 31.8496 328.424 32.5788C329.325 32.8031 329.613 33.9459 328.922 34.5699C326.696 36.5855 322.059 40.1996 316.044 41.707Z" fill="white"/>
<path d="M300.61 59.2095C294.003 59.8054 288.045 57.7898 285.086 56.5383C284.172 56.1527 284.059 54.8978 284.89 54.3509C287.579 52.5912 293.082 49.5415 299.689 48.9455C306.296 48.3496 312.254 50.3653 315.213 51.6167C316.127 52.0023 316.24 53.2608 315.409 53.8041C312.72 55.5638 307.217 58.6136 300.61 59.2095Z" fill="white"/>
<path d="M285.604 38.4855C284.181 44.9671 280.466 50.0395 278.38 52.4863C277.735 53.2434 276.505 52.97 276.235 52.0165C275.366 48.9212 274.118 42.7586 275.541 36.2771C276.964 29.7955 280.679 24.7231 282.765 22.2763C283.41 21.5191 284.64 21.7926 284.91 22.746C285.779 25.8413 287.027 32.0039 285.604 38.4855Z" fill="white"/>
<path d="M302.065 22.5567C300.908 29.0909 297.406 34.314 295.423 36.8414C294.809 37.6231 293.568 37.4023 293.26 36.4593C292.264 33.4026 290.764 27.2961 291.917 20.7619C293.074 14.2278 296.576 9.00467 298.56 6.47724C299.173 5.69552 300.414 5.91637 300.722 6.85933C301.718 9.91608 303.218 16.0226 302.065 22.5567Z" fill="white"/>
<path d="M283.042 76.7128C275.976 76.783 269.821 74.1363 266.782 72.5519C265.843 72.0646 265.833 70.722 266.758 70.2137C269.765 68.5732 275.864 65.8039 282.93 65.7338C289.996 65.6637 296.151 68.3103 299.19 69.8948C300.13 70.382 300.14 71.7281 299.215 72.2329C296.207 73.8734 290.109 76.6427 283.042 76.7128Z" fill="white"/>
<path d="M268.42 53.2818C266.398 60.0543 262.051 65.1512 259.64 67.5875C258.897 68.3412 257.61 67.9556 257.4 66.918C256.72 63.5597 255.879 56.9134 257.901 50.1409C259.924 43.3684 264.27 38.2715 266.681 35.8352C267.425 35.0815 268.711 35.4671 268.921 36.5047C269.601 39.8629 270.442 46.5093 268.42 53.2818Z" fill="white"/>
<path d="M261.696 92.6891C254.209 92.2299 247.893 88.9628 244.798 87.0558C243.841 86.4669 243.929 85.0437 244.949 84.5775C248.254 83.0666 254.924 80.5988 262.411 81.058C269.898 81.5172 276.214 84.7843 279.309 86.6913C280.266 87.2802 280.178 88.7034 279.158 89.1696C275.853 90.6805 269.183 93.1483 261.696 92.6891Z" fill="white"/>
<path d="M248.238 67.2439C245.343 74.1637 240.183 79.0573 237.369 81.3569C236.499 82.0685 235.185 81.5181 235.08 80.3999C234.74 76.7823 234.596 69.6697 237.491 62.7499C240.387 55.8302 245.546 50.9366 248.361 48.637C249.23 47.9254 250.544 48.4758 250.649 49.594C250.989 53.2116 251.133 60.3242 248.238 67.2439Z" fill="white"/>
<path d="M235.141 107.791C227.392 106.08 221.328 101.632 218.405 99.1324C217.5 98.3612 217.826 96.8889 218.969 96.5699C222.67 95.5323 230.045 94.046 237.795 95.7567C245.544 97.4673 251.608 101.916 254.531 104.415C255.436 105.186 255.11 106.659 253.967 106.978C250.266 108.015 242.891 109.502 235.141 107.791Z" fill="white"/>
<path d="M226.085 75.1066C228.921 67.6925 228.539 60.1804 228.058 56.3664C227.911 55.1886 226.502 54.6488 225.605 55.427C222.703 57.9509 217.406 63.2897 214.574 70.7037C211.739 78.1177 212.121 85.6299 212.601 89.4438C212.748 90.6217 214.157 91.1615 215.055 90.3833C217.957 87.8594 223.253 82.5206 226.085 75.1066Z" fill="white"/>
<path d="M207.392 119.998C199.6 116.944 194.013 111.315 191.377 108.233C190.564 107.28 191.143 105.801 192.387 105.653C196.414 105.18 204.339 104.844 212.131 107.893C219.923 110.947 225.51 116.576 228.146 119.658C228.959 120.611 228.38 122.09 227.136 122.238C223.109 122.711 215.184 123.047 207.392 119.998Z" fill="white"/>
<path d="M201.281 84.1861C205.501 76.5968 206.255 68.3765 206.329 64.1594C206.353 62.8554 204.909 62.0457 203.819 62.7467C200.282 65.0183 193.717 69.961 189.497 77.5503C185.277 85.1395 184.524 93.3598 184.45 97.5769C184.425 98.8809 185.87 99.6907 186.96 98.9896C190.496 96.718 197.061 91.7754 201.281 84.1861Z" fill="white"/>
<path d="M304.055 31.2539C304.055 31.2539 302.039 33.7323 298.219 37.8021C294.402 41.8719 288.758 47.5192 281.548 53.7939C277.945 56.9313 273.946 60.2229 269.596 63.5391C265.239 66.8482 260.529 70.1784 255.513 73.3999C250.497 76.6214 245.18 79.7307 239.628 82.5947C234.076 85.4586 228.296 88.0912 222.369 90.3172C221.636 90.6152 220.886 90.8746 220.14 91.1375L217.903 91.9262C216.421 92.4765 214.903 92.9147 213.403 93.388C212.653 93.6228 211.899 93.8542 211.149 94.0891C210.392 94.2924 209.635 94.4957 208.878 94.699C207.353 95.1056 205.835 95.5123 204.321 95.9154C203.561 96.1152 202.804 96.315 202.046 96.5148C201.289 96.7181 200.536 96.9004 199.779 97.1353C198.268 97.5875 196.757 98.0222 195.268 98.4779C193.792 98.9686 192.323 99.4524 190.865 99.9361C189.421 100.469 187.991 100.995 186.568 101.517C180.914 103.701 175.583 106.218 170.757 109.061C165.93 111.897 161.601 115.041 157.932 118.347C157.483 118.771 157.038 119.192 156.596 119.605C156.375 119.812 156.158 120.019 155.941 120.226C155.73 120.439 155.524 120.653 155.317 120.867C154.903 121.291 154.497 121.712 154.09 122.129C153.704 122.56 153.322 122.988 152.947 123.412C152.758 123.622 152.572 123.833 152.387 124.043C152.208 124.26 152.033 124.474 151.857 124.688C151.507 125.116 151.163 125.536 150.823 125.954C150.501 126.385 150.182 126.809 149.87 127.226C149.712 127.436 149.558 127.643 149.404 127.85C149.257 128.06 149.113 128.271 148.969 128.481C147.795 130.132 146.831 131.773 145.965 133.294C145.121 134.833 144.406 136.274 143.81 137.592C142.618 140.228 141.847 142.338 141.293 143.628C141.156 143.93 141.034 144.22 140.932 144.427C140.83 144.62 140.743 144.809 140.68 144.918C140.557 145.1 140.504 145.198 140.504 145.198L144.535 147.999C144.535 147.999 144.689 147.757 144.966 147.277C145.093 147.046 145.201 146.8 145.355 146.481C145.496 146.173 145.622 145.85 145.783 145.468C146.372 143.993 147.059 141.963 148.11 139.481C148.636 138.244 149.264 136.898 150.003 135.467C150.767 134.051 151.612 132.523 152.656 130.98C152.783 130.784 152.912 130.588 153.042 130.391C153.179 130.199 153.319 130.002 153.456 129.81C153.736 129.417 154.02 129.021 154.307 128.618C154.612 128.225 154.921 127.829 155.233 127.426C155.39 127.226 155.548 127.023 155.706 126.819C155.874 126.623 156.042 126.423 156.211 126.223C156.551 125.824 156.894 125.417 157.245 125.007C157.613 124.611 157.981 124.211 158.359 123.805C158.549 123.601 158.734 123.398 158.927 123.191C159.127 122.995 159.327 122.795 159.526 122.599C159.93 122.199 160.336 121.8 160.746 121.389C164.111 118.207 168.138 115.125 172.702 112.293C177.262 109.457 182.362 106.894 187.819 104.633C189.193 104.09 190.578 103.54 191.973 102.989C193.389 102.481 194.812 101.973 196.246 101.457C197.69 100.988 199.144 100.518 200.602 100.045C201.324 99.7994 202.085 99.5961 202.835 99.3753C203.585 99.1579 204.339 98.9406 205.092 98.7233C206.603 98.2816 208.121 97.8364 209.642 97.3912C210.406 97.1668 211.174 96.939 211.941 96.7111C212.698 96.4552 213.459 96.1993 214.22 95.9434C215.737 95.4246 217.269 94.9409 218.766 94.345L221.019 93.4896C221.773 93.2057 222.527 92.9252 223.263 92.6027C229.228 90.198 235.019 87.3901 240.56 84.3614C246.102 81.3292 251.391 78.0657 256.365 74.7004C261.338 71.3352 265.996 67.8718 270.294 64.44C274.584 61.0011 278.517 57.6009 282.057 54.3688C289.137 47.9013 294.65 42.1103 298.373 37.9458C302.099 33.7813 304.051 31.2539 304.051 31.2539H304.055Z" fill="white"/>
</g>
<defs>
<clipPath id="clip0_251_1028">
<rect width="329" height="148" fill="white" transform="translate(0.305176 -0.00195312)"/>
</clipPath>
</defs>
</svg>
