<svg width="27" height="27" viewBox="0 0 27 27" fill="none" xmlns="http://www.w3.org/2000/svg">
<path d="M12.9518 26.2271C13.0015 26.6456 13.6088 26.6456 13.6585 26.2271L14.0751 22.7163C14.613 18.1829 18.1873 14.6086 22.7207 14.0707L26.2315 13.6541C26.65 13.6044 26.65 12.9971 26.2315 12.9474L22.7207 12.5309C18.1873 11.993 14.613 8.41869 14.0751 3.88529L13.6585 0.37446C13.6088 -0.0440903 13.0015 -0.0440903 12.9518 0.37446L12.5353 3.88529C11.9974 8.41869 8.42309 11.993 3.88965 12.5309L0.378816 12.9474C-0.0396836 12.9971 -0.0396836 13.6044 0.378816 13.6541L3.88965 14.0707C8.42309 14.6086 11.9974 18.1829 12.5353 22.7163L12.9518 26.2271Z" fill="#F38209"/>
</svg>
