<svg width="17" height="17" viewBox="0 0 17 17" fill="none" xmlns="http://www.w3.org/2000/svg">
<path d="M9.81654 8.16931L15.4955 13.8192C15.4955 13.8192 15.4955 13.8192 15.4955 13.8192C15.729 14.0516 15.8604 14.3669 15.8604 14.6958C15.8604 15.0248 15.729 15.3401 15.4955 15.5724C15.2619 15.8048 14.9453 15.9352 14.6153 15.9352C14.2853 15.9352 13.9687 15.8048 13.7352 15.5724L13.7352 15.5724L8.05517 9.92147L2.37699 15.5715L2.37697 15.5715C2.14341 15.8039 1.82679 15.9343 1.49683 15.9343C1.16686 15.9343 0.850249 15.8039 0.616687 15.5715C0.383098 15.3392 0.251724 15.0239 0.251724 14.6949C0.251724 14.366 0.383092 14.0507 0.61667 13.8183C0.616676 13.8183 0.616681 13.8183 0.616687 13.8183L6.29375 8.16935L0.614882 2.52217L0.614865 2.52216C0.381276 2.2898 0.249902 1.97448 0.249902 1.64553C0.249902 1.31659 0.381276 1.00127 0.614865 0.768913L0.720651 0.875258L0.614865 0.768912C0.848428 0.536581 1.16504 0.4062 1.49501 0.4062C1.82497 0.4062 2.14158 0.536581 2.37515 0.768912L8.05513 6.41719L13.7333 0.767118L13.7333 0.767101C13.9669 0.534769 14.2835 0.404387 14.6135 0.404387C14.9435 0.404387 15.2601 0.534769 15.4936 0.767101C15.7272 0.99946 15.8586 1.31477 15.8586 1.64372C15.8586 1.97267 15.7272 2.28799 15.4936 2.52034L9.81654 8.16931Z" fill="#222222" stroke="#222222" stroke-width="0.3"/>
</svg>
