<svg width="160" height="30" viewBox="0 0 160 30" fill="none" xmlns="http://www.w3.org/2000/svg">
<path d="M54.7467 12.8448L53.4681 12.8379V12.8102V8H50.8764V16.5699H45.0157L45.0295 11.6146L49.584 11.5938V9.15418H42.5483V19.0442H50.8764V23.0458H53.4681V15.2568V15.2499L54.7467 15.2637V23.0458H57.3108V8H54.7467V12.8448Z" fill="#050000"/>
<path d="M72.9927 10.0949V8.02148H70.394V17.0199H72.9927C72.9927 17.0199 72.9927 12.5691 72.9927 12.5622H75.695V10.0949C75.695 10.0949 73.0272 10.1018 72.9927 10.0949Z" fill="#050000"/>
<path d="M105.711 14.6148V8.02148H96.2629V10.4404H103.167V14.6148H100.949V12.1613H98.3432V14.6148H93.4224V17.1374H97.5967C97.2927 17.7249 97.1337 18.3745 97.1337 19.0795C97.1337 20.2475 97.5553 21.2634 98.3985 22.0997C99.2347 22.9359 100.251 23.3644 101.419 23.3644C102.587 23.3644 103.616 22.9359 104.453 22.0997C105.282 21.2634 105.704 20.2475 105.704 19.0795C105.704 18.3745 105.552 17.7249 105.247 17.1374H108.627V14.6148H105.704H105.711ZM102.78 20.441C102.4 20.8142 101.958 21.0008 101.426 21.0008C100.893 21.0008 100.444 20.8142 100.071 20.441C99.6978 20.0609 99.5112 19.6185 99.5112 19.0864C99.5112 18.5542 99.6978 18.105 100.071 17.718C100.451 17.3378 100.893 17.1512 101.426 17.1512C101.958 17.1512 102.4 17.3378 102.78 17.718C103.16 18.105 103.34 18.5473 103.34 19.0864C103.34 19.6255 103.153 20.0609 102.78 20.441Z" fill="#050000"/>
<path d="M121.654 11.6842V17.3652H117.604V16.6119C118.344 16.3492 118.959 15.9 119.443 15.2711C119.954 14.6076 120.21 13.8266 120.21 12.9696C120.21 12.6379 120.175 12.32 120.092 12.0228C120.051 11.85 119.975 11.6911 119.906 11.5252H120.908V9.14773H117.687V7.50977H115.088V9.14773H111.647V11.5252C111.647 11.5252 112.656 11.5252 112.752 11.5252C112.69 11.6911 112.614 11.8431 112.566 12.0159C112.49 12.3131 112.455 12.6241 112.455 12.9627C112.455 13.8405 112.718 14.6214 113.229 15.2849C113.72 15.9207 114.356 16.3769 115.102 16.6326V17.3583H111.135V19.798H121.647V23.0393H124.239V8.0212H121.647C121.647 8.0212 121.633 10.9723 121.647 11.6842H121.654ZM116.339 14.4556C115.945 14.4556 115.621 14.3173 115.337 14.034C115.054 13.7506 114.916 13.4258 114.916 13.0318C114.916 12.6379 115.054 12.3131 115.337 12.0297C115.621 11.7464 115.945 11.6081 116.339 11.6081C116.733 11.6081 117.058 11.7464 117.342 12.0297C117.625 12.3131 117.763 12.6379 117.763 13.0318C117.763 13.4258 117.625 13.7506 117.342 14.034C117.058 14.3173 116.733 14.4556 116.339 14.4556Z" fill="#050000"/>
<path d="M132.685 16.6706C133.929 16.6706 135.001 16.2214 135.878 15.3367C136.756 14.4521 137.198 13.3809 137.198 12.1576C137.198 10.9343 136.756 9.84231 135.878 8.96458C135.001 8.08685 133.929 7.64453 132.685 7.64453C131.441 7.64453 130.391 8.08685 129.506 8.96458C128.622 9.84231 128.172 10.9135 128.172 12.1576C128.172 13.4016 128.622 14.4521 129.499 15.3367C130.384 16.2214 131.455 16.6637 132.678 16.6637L132.685 16.6706ZM131.255 10.72C131.649 10.3123 132.119 10.1188 132.678 10.1188C133.238 10.1188 133.708 10.3123 134.102 10.72C134.503 11.1278 134.697 11.5978 134.697 12.1576C134.697 12.7174 134.503 13.1873 134.109 13.5813C133.715 13.9752 133.245 14.1687 132.685 14.1687C132.126 14.1687 131.656 13.9752 131.255 13.5813C130.861 13.1873 130.667 12.7174 130.667 12.1576C130.667 11.5978 130.861 11.1209 131.255 10.72Z" fill="#050000"/>
<path d="M138.947 17.3855H127.972V19.9081H138.947V23.0942H141.594V8H138.947V17.3855Z" fill="#050000"/>
<path d="M153.648 18.8244V16.2051H151.042V18.8244H144.711V21.2918H159.923V18.8244C159.923 18.8244 153.682 18.8244 153.655 18.8244H153.648Z" fill="#050000"/>
<path d="M66.9239 15.8811C67.6772 15.1278 68.0643 14.1947 68.0643 13.1235C68.0643 12.695 68.0021 12.2942 67.8846 11.914C67.8016 11.6652 67.6911 11.4302 67.5667 11.2091H68.4651V9.0044H65.3205V7.43555H63.0191C63.0191 7.43555 63.0191 8.98367 63.0191 9.0044C62.9776 9.0044 59.7915 9.0044 59.7915 9.0044V11.2298H60.766C60.6485 11.4441 60.5448 11.6721 60.4619 11.914C60.3306 12.2942 60.2684 12.7019 60.2684 13.1304C60.2684 14.2017 60.6485 15.1347 61.4087 15.888C62.169 16.6482 63.0951 17.0284 64.1663 17.0284C65.2376 17.0284 66.1637 16.6413 66.9239 15.888V15.8811ZM62.6597 13.1511C62.6597 12.308 63.3439 11.6168 64.194 11.6168C65.044 11.6168 65.7283 12.3011 65.7283 13.1511C65.7283 14.0012 65.044 14.6854 64.194 14.6854C63.3439 14.6854 62.6597 14.0012 62.6597 13.1511Z" fill="#050000"/>
<path d="M66.5718 20.5874V17.8574H64.063V23.0478H73.0061V20.5874C73.0061 20.5874 66.5994 20.6081 66.5718 20.5874Z" fill="#050000"/>
<path d="M89.8217 10.6557V8.02254H87.23V14.837L86.8291 14.526C86.8291 14.526 85.046 12.9848 84.3964 12.3904C83.7467 11.7961 83.2007 11.181 83.2007 11.1672C83.2422 10.8907 83.3735 10.2963 83.3735 9.54992V8.01562H80.5814V9.54992C80.5814 11.5196 79.1507 12.7084 78.584 13.2613C78.0104 13.8142 76.2964 14.9822 76.2964 14.9822L77.9205 16.7929C77.9205 16.7929 79.289 15.929 80.0077 15.3139C80.6919 14.7334 81.2863 14.1252 81.7908 13.5032C82.2124 13.8902 83.0141 14.5675 83.7467 15.1757C83.2975 15.383 82.8828 15.6664 82.5096 16.0465C81.6733 16.8758 81.2448 17.8987 81.2448 19.0805C81.2448 20.2623 81.6664 21.2645 82.5096 22.1007C83.3459 22.937 84.3687 23.3655 85.5298 23.3655C86.6909 23.3655 87.7276 22.937 88.5638 22.1007C89.3932 21.2645 89.8148 20.2485 89.8148 19.0805V13.1023H92.5102V10.6488H89.8148L89.8217 10.6557ZM86.8913 20.442C86.5112 20.8152 86.0689 21.0018 85.5367 21.0018C85.0045 21.0018 84.5553 20.8152 84.1821 20.442C83.802 20.0619 83.6223 19.6196 83.6223 19.0874C83.6223 18.5553 83.8089 18.106 84.1821 17.719C84.5622 17.3389 85.0045 17.1523 85.5367 17.1523C86.0689 17.1523 86.5112 17.3389 86.8913 17.719C87.2714 18.106 87.4511 18.5484 87.4511 19.0874C87.4511 19.6265 87.2645 20.0619 86.8913 20.442Z" fill="#050000"/>
<path d="M152.216 12.9154C154.027 14.7883 157.227 16.5023 157.227 16.5023L158.81 14.505C155.637 12.7288 154.144 11.2636 153.557 10.5863C153.716 10.0956 153.806 9.57727 153.806 9.0451V7.95312H151.055V8.97599C151.055 9.45978 151.104 11.6576 145.948 14.5188L147.662 16.3641C147.662 16.3641 150.392 15.0855 152.216 12.9154Z" fill="#050000"/>
<path d="M40.094 0.480469H14.0386V29.5146H40.094V0.480469Z" fill="url(#paint0_linear_251_84)"/>
<path d="M21.8015 2.27827C22.0572 2.27827 22.2715 2.05711 22.2715 1.78757C22.2715 1.51803 22.0641 1.29688 21.8015 1.29688C21.5389 1.29688 21.3315 1.51803 21.3315 1.78757C21.3315 2.05711 21.5389 2.27827 21.8015 2.27827Z" fill="white"/>
<path d="M27.3159 16.9252C27.3159 17.0427 27.4058 17.1394 27.5163 17.1394C27.62 17.1394 27.7168 17.0427 27.7168 16.9252C27.7168 16.8077 27.6269 16.7109 27.5163 16.7109C27.4058 16.7109 27.3159 16.8077 27.3159 16.9252Z" fill="white"/>
<path d="M27.545 21.1602C27.4206 21.1602 27.3101 21.2707 27.3101 21.409C27.3101 21.5472 27.4137 21.6509 27.545 21.6509C27.6764 21.6509 27.78 21.5403 27.78 21.409C27.78 21.2776 27.6764 21.1602 27.545 21.1602Z" fill="white"/>
<path d="M23.2111 5.87891C23.0245 5.87891 22.8794 6.03095 22.8794 6.22447C22.8794 6.41798 23.0245 6.57694 23.2111 6.57694C23.377 6.57694 23.5429 6.41798 23.5429 6.22447C23.5429 6.03095 23.3977 5.87891 23.2111 5.87891Z" fill="white"/>
<path d="M26.4395 13.7715C26.4395 13.5711 26.2875 13.4121 26.1009 13.4121C25.9143 13.4121 25.7622 13.5711 25.7622 13.7715C25.7622 13.9719 25.9143 14.1309 26.1009 14.1309C26.2667 14.1309 26.4395 13.9719 26.4395 13.7715Z" fill="white"/>
<path d="M26.0938 17.4404C26.3081 17.4404 26.5154 17.24 26.5154 16.9911C26.5154 16.7423 26.3288 16.5488 26.0938 16.5488C25.8588 16.5488 25.6722 16.7493 25.6722 16.9911C25.6722 17.233 25.8588 17.4404 26.0938 17.4404Z" fill="white"/>
<path d="M25.9487 15.416C25.9487 15.5128 26.0248 15.5957 26.1215 15.5957C26.2044 15.5957 26.2874 15.5128 26.2874 15.416C26.2874 15.3193 26.2114 15.2363 26.1215 15.2363C26.0317 15.2363 25.9487 15.3193 25.9487 15.416Z" fill="white"/>
<path d="M24.6227 15.0078C24.4154 15.0078 24.2495 15.1806 24.2495 15.3948C24.2495 15.6091 24.4154 15.7888 24.6227 15.7888C24.8093 15.7888 24.989 15.6091 24.989 15.3948C24.989 15.1806 24.8231 15.0078 24.6227 15.0078Z" fill="white"/>
<path d="M27.704 13.8367C27.704 13.7468 27.6349 13.6777 27.5519 13.6777C27.469 13.6777 27.3999 13.7468 27.3999 13.8367C27.3999 13.9265 27.469 13.9957 27.5519 13.9957C27.628 13.9957 27.704 13.9265 27.704 13.8367Z" fill="white"/>
<path d="M27.5024 9.61164C27.6407 9.61164 27.772 9.48033 27.772 9.32828C27.772 9.17624 27.6476 9.04492 27.5024 9.04492C27.3573 9.04492 27.2329 9.17624 27.2329 9.32828C27.2329 9.48033 27.3573 9.61855 27.5024 9.61164Z" fill="white"/>
<path d="M27.5027 11.2276C27.6962 11.2276 27.8828 11.041 27.8828 10.8199C27.8828 10.5987 27.71 10.4121 27.5027 10.4121C27.2953 10.4121 27.1226 10.5918 27.1226 10.8199C27.1226 11.0479 27.2953 11.2276 27.5027 11.2276Z" fill="white"/>
<path d="M27.8416 12.2811C27.8416 12.0876 27.6965 11.9355 27.5168 11.9355C27.3371 11.9355 27.1851 12.0945 27.1851 12.2811C27.1851 12.4677 27.3302 12.6336 27.5168 12.6267C27.6827 12.6267 27.8416 12.4677 27.8416 12.2811Z" fill="white"/>
<path d="M17.4464 2.0514C17.6261 2.0514 17.7712 1.89935 17.7712 1.70584C17.7712 1.51232 17.6261 1.36719 17.4464 1.36719C17.2667 1.36719 17.1216 1.51923 17.1216 1.70584C17.1216 1.89244 17.2667 2.0514 17.4464 2.0514Z" fill="white"/>
<path d="M18.9741 2.0502C19.1262 2.0502 19.2437 1.91888 19.2437 1.75992C19.2437 1.60096 19.1262 1.47656 18.9741 1.47656C18.8221 1.47656 18.7046 1.60788 18.7046 1.75992C18.7046 1.91197 18.829 2.0502 18.9741 2.0502Z" fill="white"/>
<path d="M23.2243 7.51172C23.0653 7.51172 22.9409 7.64303 22.9409 7.8089C22.9409 7.97477 23.0653 8.113 23.2243 8.10609C23.3625 8.10609 23.5076 7.97477 23.5076 7.8089C23.5076 7.64303 23.3832 7.51172 23.2243 7.51172Z" fill="white"/>
<path d="M24.7171 8.084C24.8485 8.084 24.9729 7.9596 24.9729 7.81446C24.9729 7.66932 24.8554 7.54492 24.7171 7.54492C24.5789 7.54492 24.4614 7.66241 24.4614 7.81446C24.4614 7.96651 24.5789 8.084 24.7171 8.084Z" fill="white"/>
<path d="M26.1337 8.04403C26.2443 8.04403 26.3479 7.94036 26.3479 7.81596C26.3479 7.69156 26.2512 7.58789 26.1337 7.58789C26.0162 7.58789 25.9194 7.69156 25.9194 7.81596C25.9194 7.94036 26.0162 8.04403 26.1337 8.04403Z" fill="white"/>
<path d="M24.6772 3.39244C24.7671 3.39244 24.8431 3.3095 24.8431 3.21966C24.8431 3.12981 24.7671 3.04688 24.6772 3.04688C24.5874 3.04688 24.5114 3.1229 24.5114 3.21966C24.5114 3.31641 24.5805 3.39244 24.6772 3.39244Z" fill="white"/>
<path d="M24.6772 4.90025C24.7671 4.90025 24.8431 4.82423 24.8431 4.72747C24.8431 4.63071 24.7671 4.55469 24.6772 4.55469C24.5874 4.55469 24.5114 4.63071 24.5114 4.72747C24.5114 4.82423 24.5805 4.90025 24.6772 4.90025Z" fill="white"/>
<path d="M23.2251 2.0502C23.3772 2.0502 23.4946 1.91888 23.4946 1.75992C23.4946 1.60096 23.3772 1.47656 23.2251 1.47656C23.0731 1.47656 22.9556 1.60788 22.9556 1.75992C22.9556 1.91197 23.0731 2.0502 23.2251 2.0502Z" fill="white"/>
<path d="M20.4261 2.24537C20.6611 2.24537 20.8615 2.03803 20.8615 1.78923C20.8615 1.54042 20.668 1.32617 20.4261 1.32617C20.1842 1.32617 19.9907 1.53351 19.9907 1.78923C19.9907 2.04494 20.1842 2.24537 20.4261 2.24537Z" fill="white"/>
<path d="M27.4955 18.7952C27.6891 18.7952 27.848 18.6294 27.848 18.422C27.848 18.2147 27.6891 18.0488 27.4955 18.0488C27.302 18.0488 27.1431 18.2147 27.1431 18.422C27.1431 18.6294 27.302 18.7952 27.4955 18.7952Z" fill="white"/>
<path d="M27.5163 19.5234C27.3089 19.5234 27.1431 19.6962 27.1431 19.9174C27.1431 20.1385 27.3089 20.3044 27.5163 20.3044C27.7236 20.3044 27.8826 20.1316 27.8826 19.9174C27.8826 19.7031 27.7167 19.5234 27.5163 19.5234Z" fill="white"/>
<path d="M17.4819 27C17.2331 27 17.0396 27.2073 17.0396 27.47C17.0396 27.7326 17.24 27.9399 17.4819 27.9399C17.7238 27.9399 17.9242 27.7326 17.9242 27.47C17.9242 27.2073 17.7238 27 17.4819 27Z" fill="white"/>
<path d="M26.1008 20.918C25.8658 20.918 25.6792 21.1184 25.6792 21.3672C25.6792 21.616 25.8658 21.8164 26.1008 21.8164C26.3358 21.8164 26.5224 21.616 26.5224 21.3672C26.5224 21.1184 26.3358 20.918 26.1008 20.918Z" fill="white"/>
<path d="M23.4662 22.9435C23.4662 22.7915 23.3487 22.6602 23.2035 22.6602C23.0584 22.6602 22.9409 22.7846 22.9409 22.9435C22.9409 23.1025 23.0584 23.22 23.2035 23.22C23.3487 23.22 23.4662 23.0956 23.4662 22.9435Z" fill="white"/>
<path d="M22.8167 24.5472C22.8167 24.7614 22.9825 24.9342 23.1829 24.9342C23.3834 24.9342 23.5492 24.7614 23.5492 24.5472C23.5492 24.3329 23.3834 24.1602 23.1829 24.1602C22.9825 24.1602 22.8167 24.3329 22.8167 24.5472Z" fill="white"/>
<path d="M23.169 27.043C22.9409 27.043 22.7612 27.2365 22.7612 27.4784C22.7612 27.7203 22.9409 27.9069 23.169 27.9069C23.3971 27.9069 23.5768 27.7134 23.5768 27.4784C23.5768 27.2434 23.3971 27.043 23.169 27.043Z" fill="white"/>
<path d="M24.6703 27.3516C24.5804 27.3516 24.5044 27.4276 24.5044 27.5243C24.5044 27.6211 24.5804 27.6971 24.6703 27.6971C24.7601 27.6971 24.8361 27.6211 24.8361 27.5243C24.8361 27.4276 24.7601 27.3516 24.6703 27.3516Z" fill="white"/>
<path d="M24.6558 25.832C24.5521 25.832 24.4761 25.915 24.4761 26.0255C24.4761 26.1361 24.559 26.2191 24.6558 26.2191C24.7525 26.2191 24.8355 26.1361 24.8355 26.0255C24.8355 25.915 24.7525 25.832 24.6558 25.832Z" fill="white"/>
<path d="M24.7183 22.7305C24.6215 22.7305 24.5386 22.8134 24.5386 22.924C24.5386 23.0346 24.6215 23.1175 24.7183 23.1175C24.815 23.1175 24.898 23.0346 24.898 22.924C24.898 22.8134 24.815 22.7305 24.7183 22.7305Z" fill="white"/>
<path d="M26.1615 22.7695C26.079 22.7695 26.0171 22.8386 26.0171 22.9216C26.0171 23.0045 26.079 23.0736 26.1615 23.0736C26.244 23.0736 26.299 23.0045 26.299 22.9216C26.299 22.8386 26.2371 22.7695 26.1615 22.7695Z" fill="white"/>
<path d="M26.2662 10.0676C26.2662 10.0676 26.2662 10.0399 26.2662 10.0261C26.2662 9.722 26.5081 9.70818 26.5565 9.39717C26.6117 9.05852 26.2869 8.69223 25.8861 8.90648C25.734 8.98941 25.6511 9.12764 25.6511 9.32115C25.6511 9.63216 25.893 9.67362 25.893 9.97081C25.893 10.2196 25.7133 10.4615 25.4645 10.4615C25.1397 10.4615 24.9807 10.2334 24.9807 9.94316C24.9807 9.69436 25.2641 9.56996 25.2641 9.29351C25.2641 8.98941 25.0705 8.78207 24.7664 8.78207C24.4278 8.78207 24.3241 9.23131 23.9786 9.23131C23.6745 9.23131 23.5777 8.7959 23.2598 8.7959C22.8935 8.7959 22.9626 9.03088 22.5687 9.14837C22.5272 9.16219 22.4304 9.21057 22.2715 9.13455C21.9467 8.9825 21.9259 8.67149 21.9259 8.554C21.9259 8.47798 22.0158 8.243 22.0711 8.20153C22.2508 8.09095 22.3268 7.88361 22.3268 7.7523C22.3268 7.4482 22.1264 7.22013 21.8361 7.22013C21.4905 7.22013 21.5113 7.42747 21.2694 7.49658C20.986 7.57261 20.7095 7.37218 20.7095 7.01971C20.7095 6.75017 20.9307 6.55665 21.145 6.55665C21.4421 6.55665 21.4629 6.79164 21.767 6.79164C21.919 6.79164 22.0296 6.75017 22.154 6.63268C22.3199 6.47372 22.389 6.20418 22.2646 5.95538C22.2162 5.85171 22.1333 5.75495 22.0711 5.65819C21.9812 5.47159 22.0089 5.25043 22.0711 5.13294C22.1402 5.01545 22.2991 4.87031 22.541 4.89796C22.6447 4.91178 22.7553 4.96707 22.8106 5.01545C23.0179 5.18132 23.2667 5.25734 23.5086 5.05C23.6261 4.95325 23.6676 4.79429 23.6468 4.64224C23.633 4.51093 23.5639 4.37961 23.4395 4.30359C23.0594 4.07552 22.9004 4.41417 22.6723 4.48328C22.5341 4.52475 22.389 4.4971 22.3199 4.45564C22.1056 4.31741 21.9743 4.15154 22.0503 3.82671C22.1402 3.55026 22.4581 3.28072 22.8935 3.571C22.9972 3.65393 23.1147 3.71613 23.2114 3.71613C23.4326 3.71613 23.6537 3.5088 23.6537 3.24617C23.6537 2.98354 23.4533 2.7762 23.2114 2.7762C23.0663 2.7762 22.9764 2.83841 22.8659 2.94207C22.7553 3.04574 22.624 3.11485 22.4235 3.05265C22.2715 2.99045 22.2231 2.90752 22.1609 2.80385C22.0849 2.54122 21.9674 2.45829 21.8153 2.45829C21.6011 2.45829 21.5527 2.58269 21.4421 2.7762C21.3385 2.92134 21.1795 2.93516 21.0828 2.93516C20.9514 2.93516 20.7994 2.86605 20.6335 2.70018C20.5506 2.61725 20.4884 2.54813 20.3985 2.54813C20.2327 2.54813 20.1152 2.72091 19.9977 2.83841C19.9009 2.93516 19.7904 3.0181 19.6245 3.0181C19.5139 3.0181 19.3964 2.96972 19.3273 2.87987C19.1545 2.65871 18.8366 2.63798 18.6846 2.75547C18.3113 3.03883 18.4357 3.3913 18.6016 3.61938C18.7191 3.77833 18.7537 4.01332 18.5947 4.20683C18.5049 4.31741 18.3874 4.37961 18.263 4.38652C18.1247 4.40035 17.9865 4.33815 17.8828 4.21374C17.7515 4.06861 17.7515 3.78525 17.8414 3.66084C17.945 3.5088 18.0142 3.39822 17.9727 3.19779C17.8967 2.79694 17.5027 2.6518 17.2194 2.82458C17.171 2.85914 17.1295 2.8937 17.1019 2.93516C17.012 3.03192 16.9153 3.10103 16.7287 3.10103C16.6043 3.10103 16.4315 2.99045 16.3969 2.94899C16.003 2.36153 16.6112 2.16801 16.5628 1.63585C16.5421 1.39396 16.3555 1.26264 16.238 1.0553C16.2242 1.00693 16.2172 0.958547 16.2034 0.903257C16.2172 0.75121 16.3831 0.619896 16.466 0.460938H13.7015V7.48276C9.83816 7.52423 6.72119 10.8485 6.72119 14.9469C6.72119 19.0453 9.83816 22.3696 13.7015 22.411V29.5365H16.3278C16.4246 29.4052 16.549 29.2601 16.5628 29.0942C16.5904 28.7141 16.2449 28.6035 16.2172 28.3063C16.2172 28.2441 16.2311 28.1819 16.2656 28.1266C16.3693 27.947 16.5904 27.8018 16.6319 27.6014C16.701 27.2282 16.1827 27.0485 16.4038 26.5647C16.5075 26.3366 16.7563 26.2537 16.9637 26.3228C17.3023 26.4472 17.2125 26.7582 17.5235 26.7582C17.8345 26.7582 17.793 26.5163 17.9589 26.3988C18.2491 26.1984 18.5532 26.3159 18.6846 26.544C18.7882 26.7237 18.7606 26.9517 18.6915 27.0554C18.6224 27.166 18.5256 27.2627 18.5256 27.4493C18.5256 27.7189 18.7329 27.9331 18.9817 27.9331C19.2305 27.9331 19.4379 27.7189 19.4379 27.4493C19.4379 27.2973 19.3688 27.166 19.2651 27.0761C19.2029 27.007 19.1753 26.8826 19.1753 26.7651C19.1753 26.5025 19.3619 26.3228 19.6383 26.2883C19.742 26.2744 19.894 26.3435 19.9562 26.4127C20.0253 26.4887 20.053 26.5647 20.0806 26.6338C20.1497 26.8619 20.0253 27.0416 19.9148 27.2351C19.8526 27.3249 19.8111 27.4286 19.8111 27.553C19.8111 27.8433 20.0392 28.0852 20.3156 28.0852C20.4331 28.0852 20.5437 28.0368 20.6335 27.9608C20.8132 27.8433 20.9929 27.6705 21.2348 27.7396C21.3385 27.7673 21.4007 27.8295 21.4767 27.8986C21.5735 28.0092 21.7117 28.0783 21.8637 28.0783C22.154 28.0783 22.389 27.8295 22.389 27.5254C22.389 27.4493 22.3752 27.3733 22.3406 27.3042C22.3337 27.2835 22.3268 27.2696 22.313 27.2489C22.2853 27.1936 22.2438 27.1452 22.2024 27.1038C22.1402 27.0347 22.078 26.9586 22.0572 26.8273C22.0227 26.6545 22.078 26.5163 22.1333 26.4127C22.2231 26.2468 22.4857 26.1639 22.6723 26.2053C22.7345 26.2191 22.7898 26.2606 22.8451 26.3021C22.9281 26.4196 23.0594 26.4887 23.2045 26.4887C23.4533 26.4887 23.6537 26.2744 23.6537 26.0118C23.6537 25.7492 23.4533 25.5349 23.2045 25.5349C22.9004 25.5349 22.9073 25.8321 22.5479 25.8321C22.3752 25.8321 22.2369 25.763 22.1333 25.5971C22.0019 25.3898 22.0572 25.1479 22.1194 25.0235C22.1678 24.9336 22.2369 24.8507 22.2922 24.7609C22.3752 24.6572 22.4235 24.5328 22.4235 24.3877C22.4235 24.0697 22.1816 23.8071 21.8775 23.8071C21.7531 23.8071 21.6357 23.8555 21.5458 23.9246C21.5389 23.9246 21.532 23.9384 21.5251 23.9453C21.5251 23.9453 21.5043 23.973 21.4905 23.9799C21.4836 23.9799 21.4767 23.9937 21.4698 24.0006C21.4352 24.0352 21.4076 24.0559 21.3385 24.0905C21.0067 24.2494 20.6335 23.8555 20.7994 23.503C20.8547 23.3786 20.9376 23.275 21.062 23.2473C21.3868 23.1782 21.4352 23.3372 21.5665 23.4339C21.6357 23.4823 21.7186 23.4961 21.8015 23.4961C22.078 23.4961 22.2991 23.2611 22.2991 22.9709C22.2991 22.7773 22.2024 22.6184 22.0642 22.5216C22.0503 22.5078 22.0365 22.5009 22.0227 22.5009C21.9605 22.4663 21.8845 22.4456 21.8084 22.4456C21.5527 22.4456 21.5182 22.6046 21.3454 22.6668C21.1035 22.7635 20.8616 22.6322 20.7717 22.411C20.6197 22.0517 20.9169 21.6232 21.3316 21.7476C21.4905 21.7959 21.5804 21.9273 21.6771 21.9825C21.7601 22.0309 21.8153 22.0448 21.9052 22.0448C22.1886 22.0448 22.4235 21.8029 22.4235 21.4988C22.4235 21.4504 22.4166 21.402 22.4028 21.3605C22.4028 21.3605 22.4028 21.3467 22.4028 21.3398C22.389 21.2085 22.2508 21.0979 22.1816 20.9873C22.0434 20.7593 22.1471 20.469 22.3682 20.3239C22.4719 20.2547 22.6447 20.2409 22.7622 20.2824C22.9626 20.3515 23.1561 20.6763 23.0386 20.8975C22.9211 21.1256 22.8244 21.167 22.8244 21.3467C22.8244 21.6301 23.087 21.8236 23.246 21.8236C23.3358 21.8236 23.5017 21.8029 23.5984 21.6854C23.8265 21.4089 23.7298 21.2016 23.5984 20.9666C23.5155 20.8215 23.5017 20.6349 23.5984 20.469C23.6676 20.3515 23.7781 20.2478 23.9164 20.2202C24.2066 20.1649 24.5176 20.4206 24.49 20.7593C24.4762 20.9459 24.4002 20.9942 24.3172 21.1325C24.179 21.3605 24.3379 21.6785 24.5522 21.7821C24.8701 21.9342 25.2641 21.6439 25.188 21.2361C25.1397 20.9942 24.9945 20.9804 24.96 20.8076C24.9392 20.6832 24.9047 20.5934 25.0429 20.3653C25.188 20.1165 25.5129 20.1027 25.7755 20.3031C25.8653 20.3722 25.9344 20.4621 26.0312 20.4966C26.204 20.5519 26.3975 20.5105 26.5219 20.3861C26.7431 20.1718 26.7292 19.923 26.6739 19.771C26.6048 19.5774 26.3906 19.453 26.3837 19.1628C26.3768 18.8656 26.5979 18.6928 26.6878 18.4785C26.75 18.3403 26.7707 18.1745 26.6256 17.9533C26.5565 17.8565 26.4528 17.7874 26.3491 17.7736C26.1971 17.7529 26.0727 17.7943 25.9552 17.8634C25.7962 17.9671 25.6165 18.1261 25.4023 18.0708C25.347 18.057 25.2088 18.0431 25.1327 17.9464C24.877 17.6285 25.0429 17.3797 25.1604 17.117C25.2571 16.9028 25.3055 16.6609 25.0775 16.4397C24.9047 16.2739 24.6144 16.3015 24.4278 16.4397C24.3379 16.5019 24.2688 16.5365 24.1859 16.6056C23.9509 16.6954 23.7712 16.6402 23.6399 16.5088C23.5501 16.419 23.4948 16.2531 23.4948 16.1356C23.5086 15.8385 23.8127 15.7555 23.8127 15.3547C23.8127 14.8985 23.4257 14.9193 23.4257 14.4147C23.4257 14.3042 23.5017 14.1383 23.5915 14.0554C23.709 13.9586 23.7989 13.9171 23.8749 13.9171C24.3656 13.9171 24.2412 14.235 24.6559 14.235C24.7872 14.235 24.9254 14.159 25.0153 14.0623C25.2226 13.8411 25.1535 13.4955 25.0498 13.3781C24.9254 13.2398 24.8286 12.9979 24.9738 12.7284C25.0844 12.5211 25.3332 12.4174 25.5543 12.5072C25.7133 12.5694 25.6995 12.6593 25.8861 12.756C26.1694 12.9219 26.4943 12.756 26.6048 12.5072C26.8191 12.0165 26.3837 11.9129 26.3699 11.5811C26.356 11.2217 26.7154 11.1112 26.75 10.814C26.7914 10.4961 26.3629 10.3164 26.3077 10.0192L26.2662 10.0676ZM21.1242 3.62629C21.2901 3.62629 21.4214 3.77142 21.4214 3.9442C21.4214 4.11699 21.2694 4.26212 21.1242 4.26212C20.9584 4.26212 20.8201 4.11699 20.8201 3.9442C20.8201 3.77142 20.9584 3.62629 21.1242 3.62629ZM21.1588 5.18132C21.3454 5.18132 21.4974 5.34028 21.4974 5.53379C21.4974 5.7273 21.3316 5.88626 21.1588 5.89317C20.9722 5.89317 20.8201 5.73422 20.8201 5.53379C20.8201 5.33336 20.9722 5.18132 21.1588 5.18132ZM21.1588 24.9336C21.3246 24.9336 21.456 25.0719 21.456 25.2516C21.456 25.4313 21.3246 25.5695 21.1588 25.5695C20.9929 25.5695 20.8616 25.4243 20.8616 25.2516C20.8616 25.0788 20.9929 24.9336 21.1588 24.9336ZM21.1242 26.4472C21.3246 26.4472 21.4905 26.62 21.4905 26.8342C21.4905 27.0485 21.3246 27.2213 21.1242 27.2213C20.9238 27.2213 20.7579 27.0485 20.7579 26.8342C20.7579 26.62 20.9238 26.4472 21.1242 26.4472ZM19.659 6.8331C19.7558 6.8331 19.8318 6.91604 19.8318 7.0128C19.8318 7.10955 19.7489 7.19249 19.659 7.19249C19.5623 7.19249 19.4863 7.10955 19.4863 7.0128C19.4863 6.91604 19.5623 6.8331 19.659 6.8331ZM19.4863 5.45086C19.4863 5.3541 19.5623 5.27116 19.659 5.27116C19.7558 5.27116 19.8318 5.3541 19.8318 5.45086C19.8318 5.54761 19.7489 5.63055 19.659 5.63055C19.5623 5.63055 19.4863 5.54761 19.4863 5.45086ZM19.6314 3.49497C19.8456 3.49497 20.0115 3.67467 20.0115 3.89583C20.0115 4.11699 19.818 4.29668 19.6314 4.30359C19.4241 4.30359 19.2513 4.1239 19.2513 3.89583C19.2513 3.66775 19.4241 3.49497 19.6314 3.49497ZM15.1598 3.95112C15.1598 3.81289 15.2704 3.6954 15.4017 3.6954C15.533 3.6954 15.6436 3.80598 15.6436 3.95112C15.6436 4.09625 15.5399 4.20683 15.4017 4.20683C15.2635 4.20683 15.1598 4.09625 15.1598 3.95112ZM16.5904 5.45086C16.5904 5.32645 16.6872 5.2297 16.8047 5.2297C16.9222 5.2297 17.0189 5.32645 17.0189 5.45086C17.0189 5.57526 16.9153 5.67202 16.8047 5.67893C16.6872 5.67893 16.5904 5.57526 16.5904 5.45086ZM18.2422 5.17441C18.3874 5.17441 18.5049 5.29881 18.5049 5.45086C18.5049 5.6029 18.3735 5.7273 18.2422 5.7273C18.0971 5.7273 17.9796 5.6029 17.9796 5.45086C17.9796 5.29881 18.0971 5.17441 18.2422 5.17441ZM16.8185 3.45351C17.0604 3.45351 17.2539 3.66084 17.2539 3.90965C17.2539 4.15845 17.0604 4.3727 16.8185 4.3727C16.5766 4.3727 16.3831 4.16536 16.3831 3.90965C16.3831 3.65393 16.5766 3.45351 16.8185 3.45351ZM15.4432 0.536961C15.6574 0.536961 15.8302 0.723565 15.8302 0.944725C15.8302 1.16588 15.6574 1.35249 15.4432 1.35249C15.2289 1.35249 15.0561 1.16588 15.0561 0.944725C15.0561 0.723565 15.2289 0.536961 15.4432 0.536961ZM15.4155 2.05052C15.616 2.05052 15.7749 2.2233 15.7749 2.43064C15.7749 2.63798 15.609 2.81076 15.4155 2.81076C15.222 2.81076 15.0561 2.63798 15.0561 2.43064C15.0561 2.2233 15.2151 2.05052 15.4155 2.05052ZM15.4155 26.5163C15.5676 26.5163 15.692 26.6476 15.692 26.8066C15.692 26.9656 15.5676 27.0969 15.4155 27.0969C15.2635 27.0969 15.1391 26.9656 15.1391 26.8066C15.1391 26.6476 15.2635 26.5163 15.4155 26.5163ZM15.2013 25.2792C15.2013 25.1963 15.2635 25.1272 15.3464 25.1272C15.4294 25.1272 15.4916 25.1963 15.4916 25.2792C15.4916 25.3621 15.4294 25.4313 15.3464 25.4313C15.2635 25.4313 15.2013 25.3621 15.2013 25.2792ZM15.457 28.6795C15.2566 28.6795 15.0907 28.5068 15.0907 28.2925C15.0907 28.0783 15.2566 27.9055 15.457 27.9055C15.6574 27.9055 15.8233 28.0783 15.8233 28.2925C15.8233 28.5068 15.6574 28.6795 15.457 28.6795ZM16.8047 25.5349C16.6803 25.5349 16.5835 25.4313 16.5835 25.2999C16.5835 25.1686 16.6803 25.065 16.8047 25.065C16.9291 25.065 17.0259 25.1686 17.0259 25.2999C17.0259 25.4313 16.9291 25.5349 16.8047 25.5349ZM18.2008 25.604C18.0487 25.604 17.9243 25.4727 17.9243 25.3069C17.9243 25.141 18.0487 25.0097 18.2008 25.0097C18.3528 25.0097 18.4772 25.1479 18.4772 25.3069C18.4772 25.4658 18.3528 25.604 18.2008 25.604ZM19.6659 25.4727C19.5623 25.4727 19.4863 25.3829 19.4863 25.2792C19.4863 25.1755 19.5692 25.0857 19.6659 25.0857C19.7627 25.0857 19.8456 25.1755 19.8456 25.2792C19.8456 25.3829 19.7627 25.4727 19.6659 25.4727ZM19.5208 23.7242C19.5208 23.6343 19.5899 23.5583 19.6798 23.5583C19.7696 23.5583 19.8387 23.6343 19.8387 23.7242C19.8387 23.814 19.7696 23.8901 19.6798 23.8901C19.5899 23.8901 19.5208 23.814 19.5208 23.7242ZM19.7005 22.418C19.5968 22.418 19.5208 22.335 19.5208 22.2244C19.5208 22.1139 19.6037 22.0309 19.7005 22.0309C19.7973 22.0309 19.8802 22.1139 19.8802 22.2244C19.8802 22.335 19.7973 22.418 19.7005 22.418ZM21.1242 21.0564C20.9445 21.0564 20.7994 20.9044 20.7994 20.7109C20.7994 20.5174 20.9445 20.3653 21.1242 20.3653C21.3039 20.3653 21.449 20.5174 21.449 20.7109C21.449 20.9044 21.3039 21.0564 21.1242 21.0564ZM20.8962 10.0123C20.8962 9.86714 21.0136 9.74274 21.1519 9.74274C21.2901 9.74274 21.4076 9.86023 21.4076 10.0123C21.4076 10.1643 21.2832 10.2818 21.1519 10.2818C21.0136 10.2818 20.8962 10.1643 20.8962 10.0123ZM21.1657 8.96868C20.9238 8.96868 20.7234 8.76134 20.7234 8.50562C20.7234 8.24991 20.9169 8.04257 21.1657 8.04257C21.4145 8.04257 21.6011 8.24991 21.6011 8.50562C21.6011 8.76134 21.3868 8.96868 21.1657 8.96868ZM22.5756 9.55613C22.7967 9.55613 22.9764 9.74274 22.9764 9.97772C22.9764 10.2127 22.776 10.3993 22.5756 10.3993C22.3544 10.3993 22.1747 10.2127 22.1747 9.97772C22.1747 9.74274 22.3544 9.55613 22.5756 9.55613ZM22.5618 12.8597C22.7069 12.8597 22.8244 12.9841 22.8244 13.1362C22.8244 13.2882 22.6931 13.4126 22.5618 13.4126C22.4166 13.4126 22.2991 13.2882 22.2991 13.1362C22.2991 12.9841 22.4166 12.8597 22.5618 12.8597ZM22.3821 11.5604C22.3821 11.4775 22.4443 11.4153 22.5203 11.4153C22.5963 11.4153 22.6585 11.4775 22.6585 11.5604C22.6585 11.6433 22.5894 11.7055 22.5203 11.7055C22.4443 11.7055 22.3821 11.6433 22.3821 11.5604ZM22.5479 19.3977C22.4443 19.3977 22.3544 19.3079 22.3544 19.1973C22.3544 19.0867 22.4443 18.9969 22.5479 18.9969C22.6516 18.9969 22.7415 19.0867 22.7415 19.1973C22.7415 19.3079 22.6585 19.3977 22.5479 19.3977ZM22.5479 17.8427C22.4443 17.8427 22.3544 17.7529 22.3544 17.6423C22.3544 17.5317 22.4443 17.4349 22.5479 17.4349C22.6516 17.4349 22.7415 17.5248 22.7415 17.6423C22.7415 17.7598 22.6585 17.8427 22.5479 17.8427ZM22.617 16.4743C22.4304 16.4743 22.2715 16.3084 22.2715 16.108C22.2715 15.9076 22.4304 15.7417 22.617 15.7417C22.8037 15.7417 22.9626 15.9076 22.9626 16.108C22.9626 16.3084 22.8037 16.4743 22.617 16.4743ZM22.6309 15.0091C22.4235 15.0091 22.2577 14.8294 22.2577 14.6152C22.2577 14.4009 22.4235 14.2212 22.6309 14.2212C22.8382 14.2212 23.0041 14.4009 23.0041 14.6152C23.0041 14.8294 22.8175 15.0091 22.6309 15.0091ZM25.4507 18.7965C25.6511 18.7965 25.817 18.9692 25.817 19.1835C25.817 19.3977 25.6511 19.5705 25.4507 19.5705C25.2502 19.5705 25.0844 19.3977 25.0844 19.1835C25.0844 18.9692 25.2502 18.7965 25.4507 18.7965ZM23.9924 19.4254C23.868 19.4254 23.7712 19.3148 23.7712 19.1835C23.7712 19.0522 23.868 18.9485 23.9924 18.9485C24.1168 18.9485 24.2205 19.0522 24.2205 19.1835C24.2205 19.3148 24.1168 19.4254 23.9924 19.4254ZM24.0339 17.2069C24.2274 17.2069 24.3863 17.3727 24.3863 17.5801C24.3863 17.7874 24.2274 17.9533 24.0339 17.9533C23.8403 17.9533 23.6814 17.7874 23.6814 17.5801C23.6814 17.3727 23.8403 17.2069 24.0339 17.2069ZM24.02 11.3254C24.1444 11.3254 24.2481 11.436 24.2481 11.5673C24.2481 11.6986 24.1375 11.8092 24.02 11.8092C23.8956 11.8092 23.792 11.6986 23.792 11.5673C23.792 11.436 23.8956 11.3254 24.02 11.3254ZM24.0269 13.6338C23.785 13.6338 23.5915 13.4264 23.5915 13.1707C23.5915 12.915 23.785 12.7077 24.0269 12.7077C24.2688 12.7077 24.4624 12.915 24.4624 13.1707C24.4624 13.4264 24.2481 13.6269 24.0269 13.6338ZM25.4437 12.0027C25.2364 12.0027 25.0705 11.8299 25.0705 11.6088C25.0705 11.3876 25.2364 11.2148 25.4437 11.2148C25.6511 11.2148 25.817 11.3876 25.817 11.6088C25.817 11.8299 25.6304 12.0027 25.4437 12.0027Z" fill="white"/>
<path d="M23.2392 28.7637C23.1148 28.7637 23.0181 28.8673 23.0181 28.9987C23.0181 29.13 23.1148 29.2336 23.2392 29.2336C23.3636 29.2336 23.4604 29.13 23.4604 28.9987C23.4604 28.8673 23.3636 28.7637 23.2392 28.7637Z" fill="white"/>
<path d="M21.8089 28.6016C21.6154 28.6016 21.4634 28.7674 21.4634 28.9679C21.4634 29.1683 21.6154 29.3342 21.8089 29.3342C22.0025 29.3342 22.1545 29.1683 22.1545 28.9679C22.1545 28.7674 21.9955 28.6016 21.8089 28.6016Z" fill="white"/>
<path d="M20.4261 28.6016C20.2326 28.6016 20.0806 28.7674 20.0806 28.9679C20.0806 29.1683 20.2395 29.3342 20.4261 29.3342C20.6127 29.3342 20.7717 29.1683 20.7717 28.9679C20.7717 28.7674 20.6196 28.6016 20.4261 28.6016Z" fill="white"/>
<path d="M18.9675 28.7852C18.8569 28.7852 18.7671 28.8819 18.7671 28.9994C18.7671 29.1169 18.8569 29.2137 18.9675 29.2137C19.0781 29.2137 19.1749 29.1169 19.1749 28.9994C19.1749 28.8819 19.085 28.7852 18.9675 28.7852Z" fill="white"/>
<path d="M17.4617 28.7012C17.2959 28.7012 17.1646 28.8394 17.1646 29.0122C17.1646 29.185 17.2959 29.3232 17.4617 29.3232C17.6276 29.3232 17.752 29.185 17.752 29.0122C17.752 28.8394 17.6207 28.7012 17.4617 28.7012Z" fill="white"/>
<path d="M9.09049 14.8835C9.09049 11.9324 11.3505 9.5342 14.1426 9.5342V0.480469H13.3271C12.9608 0.480469 12.6912 0.770741 12.6498 1.12321L12.318 3.21041C12.2351 3.60435 11.7513 3.7564 11.7513 3.7564C11.4403 3.82551 11.1362 3.90845 10.839 4.01211C10.7699 4.02594 10.3414 4.10887 10.1064 3.83933L8.83477 2.20828C8.62744 1.92492 8.25423 1.81434 7.94322 2.00785L6.5748 2.84411C6.26379 3.03763 6.16012 3.43157 6.29144 3.76331L6.98947 5.74684C7.10005 6.12695 6.75449 6.51398 6.75449 6.51398H6.7614C6.53333 6.73514 6.30526 6.97013 6.09792 7.21202C6.09792 7.21202 5.73163 7.57831 5.37224 7.46082L3.49929 6.72132C3.18829 6.5831 2.80817 6.68676 2.62848 7.0185L1.83369 8.46986C1.65399 8.8016 1.75766 9.19555 2.02029 9.41671L3.5615 10.7644C3.81721 11.0132 3.73428 11.4693 3.72045 11.5385C3.6237 11.8564 3.54767 12.1743 3.47856 12.506C3.47856 12.506 3.33342 13.0106 2.96713 13.1004L0.990514 13.446C0.651863 13.4943 0.382324 13.7777 0.382324 14.1647V15.8372C0.382324 16.2174 0.658774 16.5076 0.990514 16.556L2.96713 16.9085C3.33342 16.9983 3.47856 17.5098 3.47856 17.5098C3.54767 17.8277 3.6237 18.1525 3.72045 18.4704C3.73428 18.5465 3.81721 18.9957 3.5615 19.2445L2.02029 20.5922C1.75075 20.8133 1.64708 21.2073 1.83369 21.539L2.62848 22.9904C2.80817 23.3221 3.18138 23.4258 3.49929 23.2876L5.37224 22.5481C5.73163 22.4306 6.09792 22.7969 6.09792 22.7969C6.31217 23.0319 6.53333 23.2668 6.7614 23.4949H6.75449C6.75449 23.4949 7.10005 23.875 6.98947 24.2621L6.29144 26.2456C6.16012 26.5773 6.25688 26.9713 6.5748 27.1648L7.94322 28.001C8.25423 28.1946 8.63435 28.084 8.83477 27.8006L10.1064 26.1696C10.3483 25.8931 10.7907 25.9899 10.8459 26.0037C11.1431 26.1074 11.4472 26.1903 11.7582 26.2594H11.7513C11.7513 26.2594 12.2351 26.4114 12.318 26.7985L12.6498 28.8857C12.6982 29.2381 12.9677 29.5353 13.3271 29.5353H14.1426V20.2535C11.3505 20.2535 9.09049 17.8622 9.09049 14.9111V14.8835Z" fill="url(#paint1_linear_251_84)"/>
<defs>
<linearGradient id="paint0_linear_251_84" x1="38.8483" y1="13.5176" x2="5.90819" y2="13.5176" gradientUnits="userSpaceOnUse">
<stop stop-color="white"/>
<stop offset="0.02" stop-color="#EFF9FD"/>
<stop offset="0.1" stop-color="#B1E1F8"/>
<stop offset="0.19" stop-color="#7BCDF3"/>
<stop offset="0.27" stop-color="#4EBDEF"/>
<stop offset="0.35" stop-color="#2CB0EC"/>
<stop offset="0.42" stop-color="#14A7EA"/>
<stop offset="0.49" stop-color="#05A1E9"/>
<stop offset="0.54" stop-color="#00A0E9"/>
<stop offset="0.62" stop-color="#0293DF"/>
<stop offset="0.75" stop-color="#0A71C5"/>
<stop offset="0.92" stop-color="#163B9C"/>
<stop offset="1" stop-color="#1D2088"/>
</linearGradient>
<linearGradient id="paint1_linear_251_84" x1="45.5017" y1="13.5178" x2="4.21723" y2="13.5178" gradientUnits="userSpaceOnUse">
<stop stop-color="white"/>
<stop offset="0.02" stop-color="#EFF9FD"/>
<stop offset="0.1" stop-color="#B1E1F8"/>
<stop offset="0.19" stop-color="#7BCDF3"/>
<stop offset="0.27" stop-color="#4EBDEF"/>
<stop offset="0.35" stop-color="#2CB0EC"/>
<stop offset="0.42" stop-color="#14A7EA"/>
<stop offset="0.49" stop-color="#05A1E9"/>
<stop offset="0.54" stop-color="#00A0E9"/>
<stop offset="0.62" stop-color="#0293DF"/>
<stop offset="0.75" stop-color="#0A71C5"/>
<stop offset="0.92" stop-color="#163B9C"/>
<stop offset="1" stop-color="#1D2088"/>
</linearGradient>
</defs>
</svg>
