<svg width="58" height="57" viewBox="0 0 58 57" fill="none" xmlns="http://www.w3.org/2000/svg">
<path d="M30.4928 46.2946V34.4988C30.4928 32.9727 28.1206 32.9708 28.1206 34.4988V46.2946C28.1206 47.8207 30.4928 47.8227 30.4928 46.2946Z" fill="#43B270"/>
<path d="M29.9064 35.5227C31.8654 34.3583 33.8225 33.194 35.7815 32.0296C37.0922 31.2508 35.9002 29.1988 34.5836 29.9816C32.6246 31.146 30.6675 32.3103 28.7084 33.4747C27.3978 34.2536 28.5898 36.3055 29.9064 35.5227Z" fill="#43B270"/>
<path d="M29.9061 33.4748C27.947 32.3105 25.99 31.1461 24.0309 29.9818C22.7163 29.1989 21.5203 31.2489 22.8329 32.0298C24.792 33.1941 26.749 34.3585 28.7081 35.5228C30.0227 36.3057 31.2187 34.2557 29.9061 33.4748Z" fill="#43B270"/>
<path d="M30.5172 6.55531V2.01056C30.5172 0.484447 28.145 0.48247 28.145 2.01056V6.55531C28.145 8.08142 30.5172 8.0834 30.5172 6.55531Z" fill="#43B270"/>
<path d="M6.62318 28.0781H2.07843C0.552318 28.0781 0.550341 30.4503 2.07843 30.4503H6.62318C8.14929 30.4503 8.15127 28.0781 6.62318 28.0781Z" fill="#43B270"/>
<path d="M14.1133 12.37L10.9009 9.15764C9.81958 8.07631 8.14125 9.75464 9.22258 10.836L12.4349 14.0483C13.5163 15.1297 15.1946 13.4513 14.1133 12.37Z" fill="#43B270"/>
<path d="M52.0386 30.4503H56.5834C58.1095 30.4503 58.1115 28.0781 56.5834 28.0781H52.0386C50.5125 28.0781 50.5105 30.4503 52.0386 30.4503Z" fill="#43B270"/>
<path d="M46.2271 14.0464C47.2985 12.9749 48.37 11.9035 49.4394 10.834C50.5208 9.75269 48.8424 8.07435 47.7611 9.15568L44.5487 12.368C43.4674 13.4494 45.1458 15.1277 46.2271 14.0464Z" fill="#43B270"/>
<path d="M46.5733 29.3986C46.4902 19.5421 37.9444 11.3995 28.0148 12.21C23.213 12.6014 18.7335 14.9993 15.7643 18.8008C12.6488 22.79 11.4449 27.9476 12.4491 32.9095C12.9868 35.5723 14.2026 38.0611 15.8888 40.1822C17.5751 42.3034 19.9512 43.5626 20.2992 46.4073C20.4613 47.7298 20.3407 49.1274 20.3407 50.4558C20.3407 51.8574 20.1193 53.4982 20.908 54.7357C21.7976 56.1333 23.2387 56.4378 24.7648 56.4378H33.6744C35.0345 56.4378 36.3293 56.3527 37.3434 55.2774C38.5078 54.0438 38.3259 52.3931 38.3259 50.8394C38.3259 49.5564 38.2943 48.2714 38.3299 46.9885C38.3674 45.6106 38.8597 44.2427 39.7848 43.2088C40.6447 42.25 41.6925 41.4929 42.5227 40.4946C44.205 38.4723 45.4485 36.0981 46.0751 33.5361C46.4053 32.184 46.5634 30.7883 46.5772 29.3966C46.5911 27.8705 44.2189 27.8685 44.205 29.3966C44.1813 31.9349 43.5705 34.4158 42.325 36.6358C41.7972 37.5748 41.1805 38.4565 40.4609 39.2591C39.5951 40.2257 38.5157 40.9809 37.7151 42.0029C35.5149 44.808 35.9537 48.3782 35.9537 51.7131C35.9537 52.7589 36.0288 53.9647 34.6352 54.0636C33.7555 54.1268 32.8461 54.0636 31.9645 54.0636C29.3728 54.0636 26.7417 54.196 24.154 54.0636C22.9461 54.0023 22.7129 53.176 22.7129 52.148V47.9136C22.7129 46.2353 22.4994 44.638 21.6889 43.1337C21.1097 42.0563 20.2774 41.2557 19.3839 40.4452C18.433 39.5813 17.5869 38.6126 16.8871 37.5353C14.2955 33.5519 13.7598 28.5209 15.4421 24.0789C16.9405 20.1193 20.2715 16.8536 24.2509 15.4184C28.8114 13.7757 33.9136 14.4597 37.891 17.2252C41.8546 19.9829 44.1615 24.5949 44.203 29.3927C44.2169 30.9188 46.5891 30.9227 46.5752 29.3927L46.5733 29.3986Z" fill="#43B270"/>
<path d="M21.5247 47.7902H37.1378C38.6639 47.7902 38.6659 45.418 37.1378 45.418H21.5247C19.9986 45.418 19.9966 47.7902 21.5247 47.7902Z" fill="#43B270"/>
</svg>
