<svg width="58" height="59" viewBox="0 0 58 59" fill="none" xmlns="http://www.w3.org/2000/svg">
<path d="M50.0985 40.162C50.0431 42.2041 48.4419 43.9022 46.3583 43.9022C44.2747 43.9022 42.6181 42.2041 42.6181 40.162C42.6181 38.12 44.3162 36.4219 46.3583 36.4219C48.4003 36.4219 50.0431 38.12 50.0985 40.162C50.14 41.6862 52.5122 41.6921 52.4707 40.162C52.4015 37.602 50.8853 35.3484 48.4735 34.4312C46.1132 33.5337 43.316 34.2849 41.6989 36.2143C40.0818 38.1437 39.7813 41.0299 41.0801 43.2479C42.3789 45.4659 44.9587 46.6026 47.4732 46.1677C50.3891 45.6636 52.3936 43.0482 52.4707 40.162C52.5122 38.6359 50.14 38.6359 50.0985 40.162Z" fill="#43B270"/>
<path d="M37.3816 40.1618C37.4291 36.5975 39.5186 33.316 42.8219 31.8986C46.1627 30.4654 50.1421 31.2522 52.7041 33.8141C58.1621 39.2722 54.0879 47.4444 49.8752 52.2442C48.9501 53.2978 47.9617 54.2981 46.9199 55.2351C46.6016 55.5218 46.2774 55.8025 45.9473 56.0753C45.8188 56.182 45.3087 56.5754 45.7594 56.2334H46.9574C47.4279 56.5912 46.8309 56.1287 46.7044 56.0219C46.3406 55.7214 45.9868 55.4111 45.6369 55.0928C44.433 53.9976 43.3022 52.8194 42.2604 51.5681C39.5917 48.3597 37.4251 44.4278 37.3816 40.1637C37.3658 38.6376 34.9936 38.6337 35.0094 40.1637C35.0826 47.3673 40.2223 54.0668 45.7594 58.2814C46.0579 58.5088 46.6589 58.5088 46.9574 58.2814C51.5773 54.7646 55.8215 49.5794 57.237 43.8782C58.2649 39.7348 57.5216 35.3561 54.4733 32.2307C51.4567 29.1369 46.7182 27.9884 42.6321 29.4434C38.0814 31.0644 35.0727 35.3501 35.0074 40.1637C34.9877 41.6899 37.3599 41.6918 37.3796 40.1637L37.3816 40.1618Z" fill="#43B270"/>
<path d="M7.55695 31.1868C11.9594 31.1868 16.3618 31.165 20.7622 31.1868C24.196 31.2026 27.0624 34.0354 26.582 37.5779C26.3112 39.5784 24.9136 41.3437 23.0316 42.0692C21.8001 42.5437 20.4954 42.4429 19.2045 42.4429C17.9136 42.4429 16.5911 42.3539 15.3141 42.5338C13.3056 42.8145 11.4592 43.8682 10.196 45.4575C7.48778 48.8676 8.03341 53.9718 11.4573 56.6899C13.3808 58.218 15.5513 58.4434 17.8839 58.4434H40.1649C41.691 58.4434 41.693 56.0712 40.1649 56.0712H19.3014C17.7238 56.0712 15.9052 56.2728 14.4087 55.6975C10.4214 54.1615 9.60499 48.6916 12.936 46.0348C15.1382 44.2774 18.2833 44.8546 20.9045 44.8151C25.0104 44.7538 28.5095 41.7687 28.9523 37.6293C29.401 33.4186 26.3152 29.4906 22.1282 28.9055C19.7027 28.5655 17.113 28.8146 14.6736 28.8146H7.55695C6.03083 28.8146 6.02886 31.1868 7.55695 31.1868Z" fill="#43B270"/>
<path d="M3.36195 29.9041C3.36195 21.5025 3.36195 13.103 3.36195 4.70142V1.16486C3.36195 -0.361256 0.989746 -0.363233 0.989746 1.16486V29.9041C0.989746 31.4302 3.36195 31.4322 3.36195 29.9041Z" fill="#43B270"/>
<path d="M2.17609 4.62411H20.1456C19.8036 4.02908 19.4635 3.43405 19.1215 2.83902C18.6372 3.95198 18.1509 5.06296 17.6666 6.17592L16.7671 8.23974C16.603 8.61731 16.2808 9.15897 16.2848 9.57213C16.2887 9.98529 16.5951 10.5111 16.7671 10.9045L17.6666 12.9683C18.1509 14.0813 18.6372 15.1923 19.1215 16.3052C19.4635 15.7102 19.8036 15.1152 20.1456 14.5201H2.17609C0.649974 14.5201 0.647997 16.8924 2.17609 16.8924H20.1456C21.1241 16.8924 21.5175 15.9039 21.1695 15.1073C20.278 13.0632 19.3864 11.0192 18.4949 8.97512V10.1731C19.3864 8.12904 20.278 6.08499 21.1695 4.04094C21.5155 3.24625 21.1241 2.25586 20.1456 2.25586H2.17609C0.649974 2.25586 0.647997 4.62806 2.17609 4.62806V4.62411Z" fill="#43B270"/>
</svg>
