<svg width="54" height="54" viewBox="0 0 54 54" fill="none" xmlns="http://www.w3.org/2000/svg">
<path d="M8.9095 27.9797C10.9773 28.462 12.3709 27.0348 12.6477 25.0915C12.8118 23.9371 12.3492 23.2373 11.7206 22.3556C11.0484 21.4126 10.7993 20.2582 11.1156 19.1334C11.6237 17.3246 13.47 16.178 15.3164 16.5002C17.4039 16.864 18.7403 19.0049 18.2223 21.043C17.9456 22.1362 16.9532 22.7806 16.6943 23.856C16.5025 24.6547 16.6607 25.5857 17.0086 26.3251C17.7697 27.9421 19.2701 28.0212 20.7171 28.0212H24.7242C25.9558 28.0212 27.215 28.0884 28.0235 26.9419C28.7549 25.904 28.5098 24.3482 28.5098 23.1444V19.6592L26.4855 20.4974C27.1992 21.3375 28.4564 20.6041 28.5098 19.6592C28.5414 19.0879 28.8676 18.734 29.4033 18.5739C29.9055 18.4256 30.2731 17.9591 30.2731 17.4293C29.9825 17.8109 29.692 18.1924 29.4033 18.5739C30.0083 18.4711 30.5914 19.2421 31.1054 19.5248C31.7242 19.8648 32.3963 20.0901 33.0921 20.1969C34.3988 20.3985 35.7272 20.1732 36.8975 19.5564C39.0661 18.4098 40.3135 15.9546 40.0367 13.535C39.7481 11.0105 37.8425 8.838 35.3319 8.31611C33.8947 8.01761 32.3726 8.22123 31.0856 8.94079C30.5914 9.21755 30.0379 9.95293 29.4587 9.89758C28.8795 9.84223 28.5375 9.25116 28.5078 8.7352C28.4545 7.78237 27.555 7.33165 26.7227 7.7112C27.3178 8.05319 27.9128 8.39519 28.5078 8.7352V5.44377C28.5078 4.41977 28.6957 3.14274 28.3794 2.14246C27.7112 0.0311959 25.3449 0.371212 23.6231 0.371212H7.13431C5.79599 0.371212 4.19078 0.126084 2.86631 0.436447C0.573176 0.97217 0.861767 3.34437 0.861767 5.13143V24.6784C0.861767 25.5798 0.863773 26.4575 1.53392 27.1791C2.55199 28.2762 4.19277 28.0173 5.54493 28.0173H9.22379C10.7499 28.0173 10.7519 25.6451 9.22379 25.6451H4.4873C4.25799 25.6451 3.64516 25.7558 3.43759 25.6451C3.13118 25.481 3.23204 25.1232 3.23204 24.7891V4.24779C3.23204 3.92556 3.10157 3.28309 3.23204 2.98063C3.46926 2.4291 5.48361 2.74737 6.00154 2.74737H24.6352C24.9337 2.74737 25.6592 2.60701 25.936 2.74737C26.4341 2.99843 26.1336 4.86851 26.1336 5.34888V8.73718C26.1336 9.70385 27.1241 10.1249 27.9187 9.76118C27.3237 9.41919 26.7287 9.0772 26.1336 8.73718C26.2681 11.1074 28.7708 13.2542 31.0955 11.8606C31.6075 11.5542 31.9831 11.1015 32.5445 10.8544C33.1633 10.5816 33.8571 10.4966 34.5253 10.5835C35.6363 10.7298 36.6148 11.3782 37.1921 12.337C38.3248 14.2189 37.4846 16.7671 35.4663 17.6231C34.4502 18.054 33.27 17.9907 32.2994 17.4787C31.7755 17.202 31.3802 16.7453 30.8484 16.4824C30.1783 16.1503 29.4844 16.1681 28.7688 16.2887C28.2627 16.3737 27.899 16.9509 27.899 17.4333C28.1895 17.0518 28.4802 16.6702 28.7688 16.2887C27.1932 16.7572 26.2266 18.0323 26.1336 19.6612L28.1579 18.823C27.472 18.0164 26.1336 18.6886 26.1336 19.6612V24.2356C26.1336 24.5281 26.2542 25.1469 26.1336 25.4197C25.9221 25.8961 24.6589 25.651 24.1963 25.651C22.9786 25.651 21.7569 25.6253 20.5392 25.651C20.2269 25.6569 19.7346 25.7716 19.4757 25.6451C18.7739 25.3031 18.9815 24.3799 19.3432 23.9331C20.6658 22.2943 21.0729 20.0328 20.3376 18.0421C18.9063 14.1794 13.9781 12.8609 10.8013 15.4723C9.15855 16.8224 8.36585 18.9732 8.68412 21.0687C8.77505 21.6716 8.95692 22.2429 9.22379 22.7905C9.49066 23.3381 9.9829 23.7354 10.2181 24.2435C10.4534 24.7515 10.2518 25.8585 9.53813 25.6925C8.05352 25.3465 7.41897 27.6318 8.90753 27.9797H8.9095Z" fill="#43B270"/>
<path d="M31.7869 28.023H34.4991C34.2204 27.3489 33.9397 26.6728 33.6609 25.9987C32.801 26.6985 33.572 27.9716 34.4991 28.025C35.0625 28.0566 35.705 28.5291 35.5963 29.1735C35.5034 29.729 34.7502 30.3656 34.4991 30.8835C33.8567 32.206 33.7025 33.7519 34.0998 35.1713C34.8115 37.7135 37.1639 39.5223 39.7931 39.5954C42.4223 39.6686 45.089 37.7708 45.779 35.1119C46.1723 33.6016 45.9727 31.9628 45.2155 30.5988C44.9309 30.0868 44.2647 29.5709 44.2587 28.9719C44.2548 28.5489 44.7965 28.0566 45.4211 28.021C46.3839 27.9657 46.8128 27.0702 46.4451 26.236C46.1031 26.831 45.7631 27.426 45.4211 28.0191C47.2813 28.0191 49.1475 28.0626 51.0077 28.0191C52.4053 27.9874 53.5993 27.1631 53.7614 25.6983C53.797 25.3839 53.7832 25.0696 53.7832 24.7533V5.6492C53.7832 4.67659 53.8681 3.66248 53.7614 2.6958C53.5103 0.446166 51.4821 0.375 49.7543 0.375H31.5062C29.9801 0.375 29.9781 2.7472 31.5062 2.7472H49.9659C50.2881 2.7472 50.8416 2.63848 51.15 2.7472C51.6482 2.92314 51.411 4.09936 51.411 4.55601V23.073C51.411 23.6008 51.7233 25.4531 51.1381 25.6488C50.8317 25.7516 50.3138 25.6488 49.9975 25.6488H45.4231C44.4466 25.6488 44.0473 26.6392 44.3991 27.4339C44.7411 26.8389 45.0811 26.2439 45.4231 25.6508C43.9978 25.7319 42.7485 26.4633 42.1693 27.7996C41.9123 28.3927 41.8292 28.8968 41.9261 29.5392C42.0546 30.3932 42.5666 30.8538 43.0153 31.5418C44.6284 34.0128 42.7129 37.3339 39.7931 37.2252C37.1204 37.1244 35.4302 34.1828 36.6796 31.8185C37.0572 31.1049 37.6778 30.6166 37.8815 29.8041C38.0534 29.1182 37.9507 28.3927 37.6739 27.7522C37.1105 26.4475 35.8869 25.7319 34.4971 25.6528L35.3353 27.6771C36.1616 27.0049 35.4539 25.6508 34.4971 25.6508H31.7849C30.2588 25.6508 30.2568 28.023 31.7849 28.023H31.7869Z" fill="#43B270"/>
<path d="M31.5081 53.3636H50.1161C51.4346 53.3636 52.7571 53.3419 53.4846 51.9838C53.9215 51.1694 53.7851 50.0801 53.7851 49.1846V29.2996C53.7851 27.7735 51.4129 27.7715 51.4129 29.2996V47.5834C51.4129 48.556 51.5374 49.6215 51.4129 50.5882C51.3397 51.1496 50.8989 50.9934 50.3908 50.9934H31.5101C29.984 50.9934 29.982 53.3656 31.5101 53.3656L31.5081 53.3636Z" fill="#43B270"/>
<path d="M0.863535 29.2996V49.4495C0.863535 50.1335 0.776584 50.9321 0.992059 51.5944C1.76895 53.9765 5.13154 53.3656 7.06093 53.3656C13.1575 53.3656 19.256 53.3656 25.3526 53.3656C26.6059 53.3656 27.7999 53.0335 28.3218 51.7367C28.5511 51.1674 28.5096 50.5625 28.5096 49.9635V47.4094C28.5096 46.0019 28.8773 44.1555 28.1518 42.9932C27.5904 42.0917 26.5802 41.726 25.5779 41.5817C24.9256 41.4888 24.2456 41.5659 23.6624 41.894C23.0081 42.2617 22.5435 42.8054 21.8101 43.0564C19.3944 43.8808 16.8542 41.9731 16.9372 39.4368C17.0262 36.693 20.1298 35.0008 22.4921 36.4123C23.0456 36.7424 23.4568 37.2346 24.0795 37.4521C24.7022 37.6695 25.3308 37.6379 25.9674 37.4956C27.1337 37.2366 28.1023 36.4894 28.4384 35.3072C28.6361 34.6134 28.5096 34.0638 28.5096 33.368V29.2996C28.5096 27.7735 26.1374 27.7715 26.1374 29.2996V33.1406C26.1374 33.5281 26.2857 34.4137 26.1315 34.7498C25.9891 35.0601 25.5483 35.2163 25.2221 35.2341C24.6271 35.2657 24.1784 34.6549 23.6881 34.3623C21.3851 32.9904 18.3586 33.364 16.4232 35.1985C14.6105 36.9164 14.0826 39.6701 15.0592 41.9534C16.0002 44.1516 18.2202 45.6263 20.6181 45.6263C21.99 45.6263 23.3224 45.14 24.3918 44.29C24.8287 43.942 25.0798 43.8748 25.6136 44.0093C26.0603 44.1219 26.1947 44.2188 26.1789 44.6913C26.1374 45.9861 26.1374 47.2888 26.1374 48.5876C26.1374 49.0858 26.4339 50.7977 25.8844 50.9954C25.3348 51.1931 24.4215 50.9954 23.8719 50.9954H5.56248C4.97931 50.9954 4.07592 51.1713 3.51252 50.9954C3.11716 50.8728 3.23574 50.5051 3.23574 50.1157V29.3016C3.23574 27.7755 0.863535 27.7735 0.863535 29.3016V29.2996Z" fill="#43B270"/>
</svg>
