<svg width="60" height="47" viewBox="0 0 60 47" fill="none" xmlns="http://www.w3.org/2000/svg">
<path d="M51.3831 8.02855V28.3633C51.3831 28.8596 51.5012 29.494 51.3531 29.9523C51.155 30.5687 50.6227 30.5547 50.1123 30.5547C40.028 30.5547 29.9457 30.5547 19.8613 30.5547C17.4878 30.5547 15.1143 30.5547 12.7429 30.5547C11.7062 30.5547 10.5935 30.6688 9.56085 30.5547C8.30606 30.4166 8.69431 28.4614 8.69431 27.5648V19.952C8.69431 14.7127 8.69431 9.47546 8.69431 4.23616C8.69431 3.87794 8.61424 3.39363 8.72431 3.03941C8.91243 2.42302 9.45478 2.43703 9.9631 2.43703H14.656C24.9985 2.43703 35.3411 2.43703 45.6836 2.43703H46.404C47.949 2.43703 47.951 0.035523 46.404 0.035523H10.8797C10.4554 0.035523 10.0311 0.0215142 9.60687 0.035523C7.9078 0.0915582 6.47691 1.23428 6.31281 2.98338C6.18473 4.34823 6.29478 5.76712 6.29478 7.13599C6.29478 10.0558 6.29478 12.9777 6.29478 15.8975C6.29478 20.4824 6.12467 25.1033 6.29478 29.6842C6.36282 31.5153 7.68368 32.8722 9.52083 32.9542C9.793 32.9662 10.0712 32.9542 10.3433 32.9542H48.9276C50.5086 32.9542 52.1616 33.0743 53.2003 31.5733C54.1269 30.2325 53.7846 27.841 53.7846 26.246C53.7846 20.6105 53.7846 14.9749 53.7846 9.33937V8.02454C53.7846 6.47957 51.3831 6.47757 51.3831 8.02454V8.02855Z" fill="#43B270"/>
<path d="M50.7512 30.5569H10.8622C10.0297 30.5569 9.13909 30.4869 8.32458 30.685C5.87704 31.2774 4.97849 34.1712 3.96385 36.1725C3.00725 38.0577 2.05264 39.9448 1.09604 41.83C0.691783 42.6285 1.1821 43.6372 2.1327 43.6372H57.9458C58.8964 43.6372 59.3867 42.6285 58.9824 41.83C57.9838 39.8588 56.9832 37.8855 55.9845 35.9143C54.7898 33.5548 53.8672 30.705 50.7533 30.5569C49.2083 30.4829 49.2123 32.8844 50.7533 32.9584C51.8699 33.0125 52.2562 33.863 52.6925 34.7216L54.2635 37.8215C55.146 39.5626 56.0286 41.3017 56.9111 43.0428L57.9478 41.2357H2.1347L3.17134 43.0428C3.96384 41.4798 4.75634 39.9168 5.54884 38.3538C6.34133 36.7909 6.95572 35.1838 7.8763 33.775C8.5067 32.8104 9.56736 32.9584 10.554 32.9584H50.7533C52.2982 32.9584 52.3002 30.5569 50.7533 30.5569H50.7512Z" fill="#43B270"/>
<path d="M25.5906 38.6515H34.4862C36.0311 38.6515 36.0331 36.25 34.4862 36.25H25.5906C24.0456 36.25 24.0436 38.6515 25.5906 38.6515Z" fill="#43B270"/>
<path d="M56.7453 42.4354C56.7453 43.7402 55.9408 43.9924 54.768 44.0664C53.9555 44.1184 53.137 44.0964 52.3225 44.0964C51.508 44.0964 50.6875 44.0964 49.8689 44.0964H11.1706C10.0759 44.0964 8.97923 44.0964 7.88455 44.0964C7.26816 44.0964 6.65378 44.1044 6.03739 44.0924C4.71456 44.0664 3.33169 44.0624 3.33169 42.4334C3.33169 40.8044 0.930176 40.8864 0.930176 42.4334C0.930176 47.1283 6.10943 46.4959 9.46354 46.4959H49.6668C53.181 46.4959 59.1448 47.4105 59.1448 42.4334C59.1448 40.8884 56.7433 40.8864 56.7433 42.4334L56.7453 42.4354Z" fill="#43B270"/>
<mask id="mask0_251_1180" style="mask-type:luminance" maskUnits="userSpaceOnUse" x="15" y="10" width="29" height="19">
<path d="M43.8527 10.2344H15.9399V28.0985H43.8527V10.2344Z" fill="white"/>
</mask>
<g mask="url(#mask0_251_1180)">
<path d="M40.0701 12.2196C40.6171 12.2196 41.0606 11.7752 41.0606 11.227C41.0606 10.6788 40.6171 10.2344 40.0701 10.2344C39.5231 10.2344 39.0797 10.6788 39.0797 11.227C39.0797 11.7752 39.5231 12.2196 40.0701 12.2196Z" fill="#43B270"/>
<path d="M29.0854 11.0645H25.2347C25.1465 11.0645 25.0737 11.1374 25.0737 11.2257C25.0737 11.3141 25.1446 11.387 25.2347 11.387H29.0854C29.1735 11.387 29.2463 11.3141 29.2463 11.2257C29.2463 11.1374 29.1735 11.0645 29.0854 11.0645Z" fill="#43B270"/>
<path d="M38.4663 11.2257C38.4663 11.1374 38.3935 11.0645 38.3054 11.0645H32.8186C32.7305 11.0645 32.6577 11.1374 32.6577 11.2257C32.6577 11.3141 32.7305 11.387 32.8186 11.387H38.3054C38.3935 11.387 38.4663 11.3141 38.4663 11.2257Z" fill="#43B270"/>
<path d="M31.7105 16.0232C31.7105 15.2628 32.3274 14.6446 33.086 14.6446H33.6876C33.9654 14.6446 34.1934 14.8712 34.1934 15.1515V18.0218C34.1934 19.026 35.0076 19.842 36.0095 19.842H37C37.4847 19.842 37.9406 19.6519 38.2835 19.3083H38.2854C39.4234 20.0571 40.9637 20.0129 42.0537 19.1662C42.8584 18.5403 43.3201 17.5995 43.3201 16.5876C43.3201 16.2247 43.027 15.931 42.6649 15.931C42.3028 15.931 42.0097 16.2247 42.0097 16.5876C42.0097 17.1924 41.7338 17.755 41.251 18.1294C40.6763 18.5767 39.8889 18.6478 39.2472 18.3444L42.3699 15.2148C42.6266 14.9576 42.6266 14.5428 42.3699 14.2856C41.7568 13.6712 40.9407 13.3332 40.0748 13.3332C39.2089 13.3332 38.3927 13.6712 37.7778 14.2856C37.1245 14.9403 36.7797 15.8446 36.8314 16.77C36.864 17.348 37.0498 17.9009 37.362 18.3752L37.3582 18.379C37.2624 18.475 37.136 18.5268 37.0019 18.5268H36.0114C35.7337 18.5268 35.5057 18.3003 35.5057 18.02V15.1496C35.5057 14.1454 34.6915 13.3294 33.6895 13.3294H33.088C32.406 13.3294 31.7833 13.5886 31.3101 14.0091C30.9768 13.5944 30.4672 13.3294 29.8963 13.3294H29.2948C28.7909 13.3294 28.3215 13.4715 27.9192 13.7134V13.3294H25.9651V14.6427H26.6088V17.1463C26.6088 17.9067 25.992 18.5249 25.2333 18.5249H24.6318C24.354 18.5249 24.126 18.2983 24.126 18.018V13.3313H22.1719V14.6446H22.8156V17.1483C22.8156 17.9086 22.1988 18.5268 21.4401 18.5268H18.3998C18.122 18.5268 17.894 18.3003 17.894 18.02V10.2344H15.9399V11.5476H16.5836V18.02C16.5836 19.0241 17.3978 19.8401 18.3998 19.8401H21.442C22.124 19.8401 22.7466 19.5809 23.2198 19.1604C23.5532 19.5751 24.0628 19.8401 24.6337 19.8401H25.2353C25.7391 19.8401 26.2085 19.698 26.6108 19.4561V19.8401H27.9211V16.0232C27.9211 15.2628 28.538 14.6446 29.2967 14.6446H29.8982C30.176 14.6446 30.404 14.8712 30.404 15.1515V19.8401H31.7144V16.0232H31.7105ZM38.1379 16.6951C38.1073 16.1441 38.3123 15.6027 38.7012 15.2129C39.0671 14.8462 39.5537 14.6446 40.0709 14.6446C40.3622 14.6446 40.6418 14.7079 40.8967 14.8289L38.3161 17.4152C38.2107 17.1924 38.1494 16.9505 38.136 16.6951H38.1379Z" fill="#43B270"/>
<path d="M24.4607 11.227C24.4607 11.7742 24.0181 12.2196 23.4702 12.2196C22.9223 12.2196 22.4798 11.7761 22.4798 11.227C22.4798 10.6779 22.9223 10.2344 23.4702 10.2344C24.0181 10.2344 24.4607 10.6779 24.4607 11.227Z" fill="#43B270"/>
<path d="M32.0449 11.227C32.0449 11.7742 31.6023 12.2196 31.0544 12.2196C30.5065 12.2196 30.064 11.7761 30.064 11.227C30.064 10.6779 30.5065 10.2344 31.0544 10.2344C31.6023 10.2344 32.0449 10.6779 32.0449 11.227Z" fill="#43B270"/>
<path d="M23.4341 26.3716V21.9883H26.2292V22.5854H24.0988V23.8661H25.9169V24.4574H24.0988V25.7745H26.2292V26.3716H23.4341Z" fill="#43B270"/>
<path d="M29.5511 25.9588C29.2752 26.2353 28.8748 26.3716 28.4208 26.3716H26.8862V21.9883H28.4208C28.8748 21.9883 29.2752 22.1246 29.5511 22.4011C30.0243 22.8753 29.9936 23.5147 29.9936 24.1483C29.9936 24.7819 30.0243 25.4846 29.5511 25.9588ZM29.097 22.8811C28.9131 22.6776 28.6679 22.5854 28.3537 22.5854H27.5491V25.7745H28.3537C28.666 25.7745 28.9131 25.6824 29.097 25.4788C29.325 25.2273 29.3307 24.7531 29.3307 24.1502C29.3307 23.5473 29.325 23.1345 29.097 22.883V22.8811Z" fill="#43B270"/>
<path d="M32.2377 26.4081C31.3467 26.4081 30.6724 25.7995 30.6724 24.8932V21.9883H31.3354V24.8625C31.3354 25.4481 31.6916 25.811 32.2377 25.811C32.7835 25.811 33.1455 25.4481 33.1455 24.8625V21.9883H33.8085V24.8932C33.8085 25.7976 33.1266 26.4081 32.2356 26.4081H32.2377Z" fill="#43B270"/>
</g>
</svg>
