<svg width="58" height="55" viewBox="0 0 58 55" fill="none" xmlns="http://www.w3.org/2000/svg">
<path d="M32.0608 3.75619C33.5458 5.24112 34.9406 6.78209 37.122 7.17233C38.9892 7.50654 41.0445 6.87215 42.7596 7.87678C44.8489 9.09955 44.8769 11.2069 44.8769 13.3402C44.8769 14.545 45.047 15.6917 45.5813 16.7884C46.0556 17.759 46.8021 18.4995 47.5526 19.2499C48.263 19.9604 49.0094 20.6228 49.3797 21.5854C49.864 22.8382 49.7219 24.2511 49.0195 25.3918C48.5632 26.1343 47.8327 26.7366 47.2223 27.349C46.3878 28.1835 45.6994 29.0701 45.2811 30.1888C44.5607 32.114 45.2931 34.1853 44.6467 36.0845C44.2505 37.2472 43.3459 38.1998 42.2072 38.6661C41.3287 39.0244 40.4081 38.9743 39.4815 38.9743C38.4348 38.9743 37.3902 38.9563 36.3775 39.2785C35.1968 39.6548 34.2342 40.3412 33.3636 41.2057C32.7732 41.7921 32.2069 42.4805 31.5285 42.9648C30.4318 43.7493 29.0309 43.9575 27.7461 43.5652C25.8069 42.9708 24.7943 40.8995 23.0912 39.8969C21.124 38.7382 19.1847 39.1544 17.0614 38.9563C14.5518 38.7222 13.195 36.5728 13.195 34.2313C13.195 31.8899 13.0249 29.6044 11.2237 27.7233C9.81483 26.2523 8.21583 25.0075 8.41996 22.7261C8.61008 20.5968 10.4212 19.5701 11.652 18.0652C13.235 16.134 13.157 13.9846 13.195 11.6532C13.233 9.32169 15.0541 7.34044 17.4917 7.29241C19.7311 7.24838 21.8164 7.37846 23.7236 5.93756C25.2866 4.75481 26.3072 2.84962 28.4065 2.54142C29.7614 2.3433 31.0742 2.8236 32.0548 3.75419C33.1755 4.81885 34.8766 3.12179 33.7539 2.05512C31.4925 -0.0902312 27.9582 -0.586543 25.3266 1.2266C23.3934 2.55743 22.3307 4.82686 19.705 4.8909C17.5697 4.94293 15.5244 4.76282 13.6672 6.08165C12.4625 6.93819 11.5619 8.13494 11.1056 9.54383C10.7614 10.6005 10.7895 11.6912 10.7895 12.7859C10.7895 13.9646 10.7774 15.0693 10.117 16.11C9.61871 16.8964 8.82822 17.5348 8.17581 18.1913C6.14453 20.2365 5.39807 23.1504 6.58482 25.8481C7.5114 27.9534 9.96292 29.0461 10.6173 31.2615C10.8955 32.2021 10.7895 33.2627 10.7895 34.2333C10.7895 35.4161 10.9515 36.5348 11.4619 37.6155C12.6446 40.117 15.1802 41.3698 17.8559 41.3778C18.8545 41.3798 19.9352 41.2678 20.9038 41.5499C22.0405 41.8801 22.783 42.6867 23.5875 43.4912C24.392 44.2957 25.1485 45.0481 26.1731 45.5224C27.588 46.1769 29.179 46.339 30.694 45.9567C31.9508 45.6385 33.0134 44.9381 33.928 44.0375C34.6044 43.3711 35.2508 42.5686 36.0533 42.0523C37.9805 40.8155 40.3941 41.7381 42.4954 41.1057C45.3392 40.2491 47.2104 37.6295 47.2704 34.6936C47.2864 33.9512 47.2504 33.2087 47.2704 32.4662C47.3064 31.0934 47.9048 30.0607 48.8534 29.1141C50.6845 27.283 52.2915 25.3898 52.0334 22.598C51.7952 20.0364 50.1942 18.5855 48.5392 16.8524C46.8841 15.1193 47.4845 12.956 47.2124 10.7666C46.8461 7.81674 44.5167 5.40122 41.5648 4.98096C39.3294 4.66076 37.152 5.38121 35.3188 3.63211C34.7845 3.12179 34.2742 2.58745 33.7519 2.06512C32.6572 0.970436 30.9581 2.6695 32.0528 3.76419L32.0608 3.75619Z" fill="#43B270"/>
<path d="M18.6705 43.4863C16.6292 46.5482 14.588 49.6101 12.5467 52.67L14.7421 52.9562C13.7834 50.0224 12.8248 47.0885 11.8642 44.1547C11.7001 43.6524 11.2518 43.2701 10.7055 43.2741C7.73762 43.2961 4.77176 43.3162 1.80389 43.3382C2.15011 43.9406 2.49436 44.5429 2.84058 45.1453C5.19406 41.6231 7.5495 38.1009 9.90298 34.5787C10.7635 33.2899 8.68424 32.0871 7.8297 33.3659C5.47622 36.8881 3.12073 40.4103 0.767252 43.9325C0.25493 44.699 0.933343 45.7457 1.80389 45.7397C4.77176 45.7177 7.73762 45.6977 10.7055 45.6756L9.54679 44.7951C10.5054 47.7289 11.464 50.6628 12.4246 53.5966C12.7548 54.6053 14.0396 54.7533 14.62 53.8828C16.6612 50.8209 18.7025 47.759 20.7438 44.699C21.6044 43.4102 19.525 42.2055 18.6705 43.4863Z" fill="#43B270"/>
<path d="M37.3319 44.6994C39.3732 47.7613 41.4145 50.8233 43.4557 53.8832C44.0361 54.7537 45.3209 54.6016 45.6511 53.597C46.6097 50.6632 47.5683 47.7293 48.5289 44.7955L47.3702 45.676C50.3381 45.698 53.3039 45.7181 56.2718 45.7401C57.1423 45.7461 57.8208 44.7014 57.3084 43.9329C54.955 40.4107 52.5995 36.8885 50.246 33.3663C49.3915 32.0875 47.3101 33.2882 48.1727 34.579C50.5261 38.1013 52.8816 41.6235 55.2351 45.1457L56.2718 43.3386C53.3039 43.3165 50.3381 43.2965 47.3702 43.2745C46.8219 43.2705 46.3776 43.6528 46.2115 44.1551C45.2529 47.0889 44.2942 50.0228 43.3336 52.9566L45.529 52.6704C43.4877 49.6085 41.4465 46.5466 39.4052 43.4866C38.5527 42.2058 36.4713 43.4086 37.3319 44.6994Z" fill="#43B270"/>
<path d="M40.2618 23.1339C40.2097 27.7908 37.3079 32.1095 32.8731 33.6885C28.4383 35.2675 23.4312 33.9106 20.3953 30.3004C17.3514 26.6821 17.0011 21.3447 19.4367 17.3182C21.8362 13.3517 26.6272 11.1924 31.1901 12.1129C36.4414 13.1736 40.2037 17.7965 40.2618 23.1339C40.2798 24.6788 42.6813 24.6828 42.6633 23.1339C42.5992 17.4083 39.027 12.281 33.6376 10.3078C28.3202 8.36258 22.1043 10.0937 18.5301 14.4704C14.9558 18.8472 14.3975 25.2572 17.3633 30.1603C20.3232 35.0514 26.0989 37.5609 31.6944 36.4943C38.0464 35.2855 42.5932 29.5199 42.6633 23.1319C42.6813 21.5869 40.2798 21.5849 40.2618 23.1319V23.1339Z" fill="#43B270"/>
</svg>
