<svg width="59" height="60" viewBox="0 0 59 60" fill="none" xmlns="http://www.w3.org/2000/svg">
<path d="M38.792 13.223C30.6869 8.11382 20.0583 8.00375 11.9071 13.0869C3.56589 18.2902 -1.05102 28.1004 0.237793 37.8365C1.58864 48.0609 9.29148 56.6923 19.3578 59.0718C28.8037 61.3052 38.9741 57.8591 45.0079 50.2263C51.8142 41.6169 52.2505 29.2811 46.0446 20.2194C45.176 18.9526 43.0947 20.1514 43.9713 21.4322C48.9664 28.7228 49.4547 38.4169 44.9599 46.0777C40.4651 53.7385 31.8277 58.0692 23.0261 57.2607C13.7203 56.4062 5.68722 49.5839 3.22767 40.5922C0.888202 32.0449 3.78202 22.791 10.5223 17.0534C18.091 10.6114 29.24 10.037 37.5833 15.2963C38.8941 16.1228 40.1008 14.0455 38.796 13.223H38.792Z" fill="#43B270"/>
<path d="M32.2979 19.9688C26.9765 17.5012 20.5805 17.8955 15.7915 21.4017C11.0025 24.9079 8.39887 30.9277 9.25741 36.9114C10.17 43.2594 14.997 48.6148 21.2149 50.1938C26.8985 51.6367 33.1124 49.8556 37.0989 45.5369C41.7578 40.4937 42.6484 33.043 39.5465 26.9652C38.844 25.5883 36.7707 26.8031 37.4731 28.178C39.7606 32.6588 39.4524 38.0882 36.6446 42.2688C33.8048 46.4975 28.7016 48.7709 23.6625 48.2145C18.2391 47.6162 13.5541 43.6537 12.0292 38.4204C10.6103 33.5513 11.9971 28.204 15.6254 24.6577C19.684 20.6912 25.9419 19.6586 31.0811 22.0421C32.474 22.6885 33.6948 20.6192 32.2939 19.9688H32.2979Z" fill="#43B270"/>
<path d="M23.9701 27.5362C18.4346 28.5808 16.1731 35.6853 20.2977 39.6358C24.3963 43.5602 31.4227 41.2068 32.2733 35.5752C32.5014 34.0643 30.188 33.4119 29.9578 34.9368C29.6796 36.774 28.593 38.371 26.7798 38.9854C25.1268 39.5457 23.2596 39.1435 21.9968 37.9367C19.099 35.171 20.8661 30.5581 24.6105 29.8516C26.1274 29.5654 25.485 27.25 23.9721 27.5362H23.9701Z" fill="#43B270"/>
<path d="M26.094 35.3749C31.9477 29.141 37.8014 22.9071 43.6551 16.6732C44.4856 15.7886 45.3181 14.9021 46.1486 14.0175C47.2053 12.8908 45.5102 11.1897 44.4496 12.3184C38.5959 18.5523 32.7422 24.7863 26.8885 31.0202C26.058 31.9047 25.2255 32.7913 24.395 33.6758C23.3383 34.8026 25.0334 36.5036 26.094 35.3749Z" fill="#43B270"/>
<path d="M55.9943 8.25334C53.0744 11.2852 50.1546 14.3191 47.2348 17.3511L48.4035 17.0429C46.6144 16.2884 44.8273 15.5359 43.0381 14.7814L43.7566 15.3338C42.9361 13.5747 42.1156 11.8176 41.295 10.0585L41.1069 11.5134C44.0268 8.48148 46.9466 5.44757 49.8664 2.41567L47.9812 2.17351C48.4195 3.1121 48.8578 4.0527 49.2961 4.99129C49.6683 5.78979 50.0205 7.22069 50.753 7.78704C51.5295 8.38742 52.7682 8.6796 53.6608 9.05584C54.6154 9.45809 55.57 9.86035 56.5266 10.2626C57.129 10.5168 57.8414 9.98843 58.0035 9.42407C58.2017 8.73364 57.7594 8.1973 57.165 7.94714C55.3759 7.19267 53.5888 6.4402 51.7996 5.68572L52.5181 6.23807C51.6976 4.47896 50.8771 2.72186 50.0545 0.962753C49.7263 0.260312 48.6677 0.202275 48.1694 0.720601C45.2495 3.75251 42.3297 6.78641 39.4099 9.81832C39.0116 10.2326 38.9896 10.7769 39.2217 11.2732C39.66 12.2118 40.0983 13.1524 40.5366 14.091C40.9088 14.8895 41.261 16.3204 41.9935 16.8868C42.77 17.4871 44.0087 17.7793 44.9013 18.1556C45.8559 18.5578 46.8105 18.9601 47.7671 19.3623C48.1413 19.5204 48.6697 19.3303 48.9358 19.0541C51.8557 16.0222 54.7755 12.9883 57.6953 9.95641C58.768 8.84371 57.071 7.14264 55.9963 8.25734L55.9943 8.25334Z" fill="#43B270"/>
</svg>
