<svg width="162" height="123" viewBox="0 0 162 123" fill="none" xmlns="http://www.w3.org/2000/svg">
<g clip-path="url(#clip0_0_320)">
<path d="M149.888 111.8C144.58 115.839 138.113 119.931 131.756 121.86C129.923 122.433 128.032 122.798 126.117 122.95C124.328 123.094 122.526 122.954 120.78 122.536C116.192 121.396 111.936 119.399 107.818 117.065C106.473 116.302 105.143 115.503 103.821 114.687C101.662 113.355 99.5257 111.975 97.3831 110.629C97.0623 110.425 96.7435 110.225 96.4227 110.027H96.4207C95.9036 109.702 95.3851 109.382 94.8653 109.067C94.7739 109.01 94.6826 108.956 94.5892 108.9C93.6074 108.305 92.6087 107.724 91.5931 107.157C91.4687 107.089 91.3443 107.019 91.2198 106.951C89.255 105.862 87.2355 104.874 85.1693 103.992C83.8122 103.421 82.4376 102.906 81.0494 102.467H81.0475C80.5167 102.3 79.984 102.143 79.4493 101.999C77.846 101.559 76.2122 101.24 74.5614 101.043C72.2866 100.768 69.9858 100.786 67.7157 101.097C67.5621 101.119 67.4105 101.14 67.2569 101.165C61.113 102.149 55.5058 105.463 49.3347 106.244C49.1344 106.269 48.9361 106.292 48.7358 106.31C48.6503 106.318 48.5647 106.327 48.4792 106.333C46.6859 106.487 44.8811 106.442 43.0975 106.201C38.1144 105.545 33.2615 103.507 28.8927 100.938C18.6795 94.933 10.397 85.7028 5.36136 75.0136C4.49664 73.1817 3.72889 71.3056 3.06131 69.3931C1.19481 64.0898 0.166916 58.5282 0.0146482 52.9085C-0.457807 33.4107 10.6303 13.8487 28.0392 5.0304C45.45 -3.78792 68.3534 -0.871794 82.3949 12.6753C90.9127 20.8933 95.8414 32.0294 102.252 41.9784C108.662 51.9255 117.773 61.4277 129.524 62.877C135.51 63.6152 141.774 62.1873 147.512 64.0446C150.689 65.0743 153.399 67.0443 155.583 69.5543C157.051 71.2577 158.279 73.1532 159.234 75.1884C159.934 76.6598 160.502 78.1902 160.931 79.7618C161.011 80.0512 161.085 80.3407 161.157 80.6302C164.015 92.2947 159.448 104.523 149.888 111.8Z" fill="#F2F2F2"/>
<path d="M54.2769 90.684H36.0008C33.2627 90.684 31.043 92.9021 31.043 95.6381V95.6381C31.043 98.3742 33.2627 100.592 36.0008 100.592H54.2769C57.015 100.592 59.2347 98.3742 59.2347 95.6381C59.2347 92.9021 57.015 90.684 54.2769 90.684Z" fill="#3F3D56"/>
<path d="M48.7357 98.0667V106.31C46.8584 106.491 44.9663 106.455 43.0974 106.201V98.0667H48.7357Z" fill="#3F3D56"/>
<path d="M67.7156 101.097C67.562 101.119 67.4103 101.14 67.2568 101.165C61.1129 102.148 55.5056 105.463 49.3346 106.244C49.1343 106.269 48.936 106.292 48.7357 106.31C48.6502 106.318 48.5646 106.327 48.4791 106.333C46.9723 104.859 45.4655 103.289 44.0501 101.663C43.2821 100.783 42.5394 99.8851 41.8414 98.9759C40.0293 96.629 38.4934 94.2161 37.4785 91.8458C37.5815 90.7093 36.8738 88.0807 36.5355 86.068L36.5336 86.066C36.3897 85.2209 36.3119 84.4866 36.3838 84.0145C36.796 81.2907 39.0222 81.6035 39.7066 78.9341C40.324 78.4221 40.9813 77.9602 41.6722 77.5527C41.7869 77.4847 41.9036 77.4167 42.0241 77.3488L49.4512 72.2198L52.2898 75.0019L56.61 79.2372L61.2918 83.8241L57.3177 87.8359C57.3177 87.8359 60.6385 91.6613 64.5212 96.7611C65.5633 98.1308 66.6463 99.5937 67.7156 101.097Z" fill="#2F2E41"/>
<path d="M131.756 98.0667V121.86C129.923 122.433 128.032 122.798 126.117 122.95V98.0667H131.756Z" fill="#3F3D56"/>
<path d="M139.047 96.1238H120.771C118.032 96.1238 115.813 98.3419 115.813 101.078V101.078C115.813 103.814 118.032 106.032 120.771 106.032H139.047C141.785 106.032 144.004 103.814 144.004 101.078C144.004 98.3419 141.785 96.1238 139.047 96.1238Z" fill="#3F3D56"/>
<path d="M94.5891 108.9C93.6073 108.305 92.6086 107.724 91.593 107.157C91.4686 107.089 91.3442 107.019 91.2197 106.951L91.8886 106.665L93.6928 105.89L93.7103 105.883L93.7298 105.949L94.5891 108.9Z" fill="#FFB6B6"/>
<path d="M97.3831 110.629C97.0623 110.425 96.7434 110.225 96.4226 110.026H96.4207C95.9035 109.702 95.385 109.382 94.8652 109.067C94.7739 109.01 94.6825 108.956 94.5892 108.9C93.6073 108.305 92.6086 107.724 91.5931 107.157C91.4686 107.089 91.3442 107.019 91.2198 106.951C89.2549 105.862 87.2354 104.874 85.1692 103.992C83.8121 103.421 82.4375 102.906 81.0493 102.467H81.0474L79.9567 100.643L75.0474 92.4267L73.9683 90.6219C73.9683 90.6219 70.2878 91.7098 65.0792 92.7531C63.1835 93.1339 61.0876 93.5069 58.8887 93.8216C56.5381 94.1558 54.0727 94.422 51.623 94.5502C50.4545 94.6124 49.2899 94.6435 48.1427 94.6337C45.1777 94.6143 42.3294 94.3365 39.8349 93.6759C39.0028 92.8949 36.4947 91.8322 34.6982 90.8589H34.6962C33.9419 90.4509 33.3158 90.0604 32.9872 89.7126C31.0935 87.7116 32.7111 86.1515 31.0274 83.9678C31.0048 83.1667 31.0457 82.3651 31.1499 81.5704C31.1674 81.4383 31.1849 81.3042 31.2063 81.1683L31.7371 72.1615L35.68 71.6408L41.68 70.8482L48.1797 69.9894L48.8952 75.5886C48.8952 75.5886 53.9561 75.3321 60.3682 75.4176C70.667 75.5575 84.4479 76.5833 86.3144 80.9856C86.4894 81.3995 86.6644 81.8172 86.8393 82.2349C87.2554 83.2334 87.6676 84.2372 88.0759 85.2462C89.5555 88.8986 90.967 92.586 92.2561 96.0714C93.0571 98.2395 93.8115 100.33 94.5056 102.286C95.0636 103.86 95.5807 105.348 96.0532 106.718C96.4848 107.969 96.8756 109.121 97.2236 110.155C97.2781 110.316 97.3306 110.475 97.3831 110.629Z" fill="#2F2E41"/>
<path d="M61.1118 56.0582L48.6578 45.4891L56.7605 37.295L62.4134 46.5472L83.3675 50.6984C83.9975 50.2245 84.752 49.9441 85.5388 49.8913C86.3255 49.8386 87.1107 50.0157 87.7985 50.4011C88.4863 50.7865 89.047 51.3635 89.4123 52.0618C89.7776 52.7602 89.9316 53.5496 89.8556 54.3339C89.7796 55.1182 89.4769 55.8635 88.9844 56.4788C88.4919 57.0942 87.8308 57.5531 87.0818 57.7995C86.3328 58.0459 85.5282 58.0692 84.7662 57.8666C84.0041 57.664 83.3175 57.2443 82.7901 56.6585L61.1118 56.0582Z" fill="#A0616A"/>
<path d="M37.6512 31.5989C36.212 36.2776 49.9194 47.4365 49.9194 47.4365C50.0717 46.3132 57.8434 55.999 58.3722 55.1219C59.8749 52.6288 61.5284 46.4664 63.2633 45.6787C64.2554 45.2283 58.5639 38.9677 58.5639 38.9677C58.5639 38.9677 55.6606 35.1295 51.8273 30.2651C50.7691 28.8697 49.3748 27.7646 47.7742 27.0526C46.1736 26.3406 44.4187 26.0448 42.6729 26.1927C42.6729 26.1927 39.0905 26.9201 37.6512 31.5989Z" fill="#3F3D56"/>
<path d="M43.7119 21.2411C48.364 21.2411 52.1352 17.4727 52.1352 12.8242C52.1352 8.17562 48.364 4.40723 43.7119 4.40723C39.0598 4.40723 35.2886 8.17562 35.2886 12.8242C35.2886 17.4727 39.0598 21.2411 43.7119 21.2411Z" fill="#A0616A"/>
<path d="M47.9235 26.8041C49.7382 27.8822 50.8237 29.8629 51.4469 31.8785C52.6006 35.61 53.295 39.4681 53.5149 43.3675L54.1731 55.0416L62.3246 79.8991C55.2599 85.8724 28.7047 81.2567 28.7047 81.2567C28.7047 81.2567 27.8895 80.9852 28.7047 80.1706C29.5199 79.356 30.3134 80.0777 29.4983 79.2632C28.6831 78.4486 29.2451 79.3561 29.5168 78.5415C29.7885 77.727 29.5168 78.27 29.2451 77.9985C28.9733 77.7269 31.3486 75.2833 31.3486 75.2833L29.1748 61.0149L26.4576 32.2344C29.7183 28.1617 36.2759 25.7609 36.2759 25.7609L37.9703 22.7133L46.4422 23.3905L47.9235 26.8041Z" fill="#3F3D56"/>
<path d="M50.6555 8.35239C51.3102 8.84031 51.7952 9.52113 52.0423 10.299C52.1372 9.0278 52.1433 7.75157 52.0604 6.47956C51.9611 5.58571 51.3313 5.38466 50.6021 5.15169C49.9435 4.9412 49.1988 4.70344 48.9984 3.83573C46.3506 1.26183 41.7413 1.39162 38.5868 2.28943C36.851 2.78349 35.8523 3.41824 35.7629 3.79009L35.7444 3.86663L35.6739 3.90185C34.3359 4.57033 34.0755 6.68127 34.0927 8.33436C34.1253 11.4489 35.2015 14.9863 35.8078 15.2736C35.8399 15.2889 35.848 15.2829 35.8619 15.2713C36.7748 14.5423 37.8885 15.3267 38.378 15.7531C38.6667 13.8174 39.5962 12.0341 41.0181 10.6882C42.44 9.34225 44.2723 8.51125 46.2223 8.32793C46.8591 8.26643 47.4909 8.16058 48.1129 8.01115C48.4285 7.92958 48.7529 7.88704 49.0788 7.8845C49.6398 7.87598 50.1901 8.03926 50.6555 8.35239Z" fill="#2F2E41"/>
<path d="M40.0418 68.7393L37.4651 67.4206C37.3271 67.3223 37.229 67.1777 37.1889 67.0131C37.1487 66.8485 37.1691 66.675 37.2464 66.5243C37.3237 66.3735 37.4526 66.2555 37.6098 66.1919C37.7669 66.1283 37.9416 66.1233 38.1021 66.1778L40.6788 67.4964C40.8169 67.5947 40.915 67.7394 40.9551 67.9039C40.9953 68.0685 40.9748 68.242 40.8976 68.3928C40.8203 68.5435 40.6913 68.6615 40.5342 68.7251C40.3771 68.7887 40.2023 68.7938 40.0418 68.7393Z" fill="#6C63FF"/>
<path d="M31.3699 65.2065L27.1312 49.4384L38.4582 47.2958L37.849 58.1189L52.7318 73.4316C53.5197 73.3995 54.2999 73.597 54.9774 74.0003C55.6548 74.4036 56.2002 74.9951 56.5471 75.7027C56.8939 76.4104 57.0272 77.2036 56.9307 77.9856C56.8342 78.7677 56.5121 79.5047 56.0036 80.107C55.4951 80.7093 54.8223 81.1507 54.0671 81.3774C53.3119 81.6042 52.507 81.6065 51.7505 81.384C50.994 81.1615 50.3186 80.7239 49.8067 80.1245C49.2949 79.5252 48.9686 78.7899 48.8676 78.0084L31.3699 65.2065Z" fill="#A0616A"/>
<path d="M25.9721 31.759C22.1273 34.792 27.0621 51.7572 27.0621 51.7572C27.8261 50.9193 28.714 63.3022 29.6478 62.8805C32.302 61.6822 37.1668 57.5499 39.0422 57.8867C40.1148 58.0794 38.9911 49.6961 38.9911 49.6961C38.9911 49.6961 38.7844 44.8893 38.396 38.71C38.3186 36.9609 37.7996 35.2599 36.8873 33.7652C35.9751 32.2706 34.6992 31.0308 33.1784 30.1614C33.1784 30.1614 29.8169 28.726 25.9721 31.759Z" fill="#3F3D56"/>
<path d="M159.234 75.1883L5.36127 75.0135C4.49654 73.1816 3.7288 71.3055 3.06122 69.393L155.583 69.5543C157.05 71.2576 158.279 73.1531 159.234 75.1883Z" fill="#3F3D56"/>
<path d="M110.225 115.952C109.43 116.337 108.627 116.708 107.818 117.065C106.472 116.302 105.143 115.503 103.82 114.687L108.724 112.535L110.225 115.952Z" fill="#FFB6B6"/>
<path d="M145.976 89.1803C145.179 90.2489 144.356 91.296 143.509 92.3218C142.727 93.268 141.925 94.196 141.102 95.1058C140.761 95.4827 140.417 95.8577 140.065 96.2288C139.418 96.9224 138.756 97.6043 138.08 98.2745C136.863 98.6573 134.398 99.3314 131.756 99.9609C129.833 100.417 127.817 100.851 126.117 101.127C125.166 101.297 124.204 101.4 123.238 101.434C122.091 101.443 120.926 101.412 119.758 101.35C118.439 101.28 117.119 101.171 115.815 101.031C112.422 100.676 109.136 100.122 106.301 99.5529C105.263 99.347 104.287 99.1371 103.389 98.9331C101.688 98.5504 100.264 98.1929 99.234 97.9209C98.0733 97.6179 97.4122 97.4216 97.4122 97.4216L94.5056 102.286L92.9968 104.81L91.8886 106.665L91.5931 107.157C91.4686 107.089 91.3442 107.019 91.2198 106.951C89.2549 105.862 87.2354 104.874 85.1692 103.992C83.8121 103.421 82.4376 102.906 81.0494 102.467H81.0474C80.5166 102.3 79.9839 102.143 79.4492 101.999C79.6164 101.55 79.7856 101.098 79.9567 100.643C80.2755 99.7938 80.6009 98.937 80.9327 98.0725C81.6501 96.1996 82.3928 94.2996 83.1569 92.4092C83.783 90.857 84.4207 89.3105 85.0662 87.7854C85.3637 87.0821 85.9683 86.4643 86.8141 85.9223C87.2183 85.6676 87.6399 85.4417 88.0759 85.2462C90.4965 84.1446 94.0623 83.4277 97.9916 82.9673C98.3163 82.9304 98.643 82.8935 98.9715 82.8585C102.224 82.5166 105.675 82.3398 108.903 82.2582C110.519 82.2174 112.078 82.2018 113.528 82.1999C113.997 82.1999 114.452 82.2012 114.895 82.2038H114.897C116.093 82.2096 117.193 82.2271 118.161 82.2465C118.35 82.2504 118.533 82.2562 118.712 82.2601H118.714C118.834 82.2621 118.953 82.2659 119.069 82.2679C121.187 82.3223 122.485 82.3883 122.485 82.3883L122.989 78.4406L123.092 77.644L123.189 76.8864V76.8844L123.201 76.7892L123.281 76.7873L124.68 76.7601L136.447 76.5308L142.875 76.4045L141.856 80.7681L140.174 87.968C140.345 89.1065 146.034 88.2148 145.976 89.1803Z" fill="#2F2E41"/>
<path d="M111.675 115.233C111.195 115.478 110.711 115.719 110.225 115.952C109.43 116.337 108.627 116.708 107.818 117.065C106.472 116.302 105.143 115.503 103.82 114.687C101.662 113.354 99.5256 111.975 97.3831 110.629C97.0622 110.425 96.7434 110.225 96.4226 110.026H96.4206C95.5379 108.717 94.6377 107.353 93.7298 105.949C93.7162 105.929 93.7045 105.91 93.6928 105.89C93.4595 105.533 93.2275 105.173 92.9968 104.81C91.5444 102.537 90.0843 100.167 88.6669 97.7461L92.256 96.0714L98.9287 92.9591L100.08 92.4229L103.389 98.9331L106.34 104.74L106.997 106.032L111.675 115.233Z" fill="#2F2E41"/>
<path d="M112.681 83.9771L129.693 67.5831L134.409 54.242L127.453 51.2199C123.881 54.6395 120.019 65.2904 120.019 65.2904L108.312 80.1731C108.221 80.2043 108.13 80.2374 108.04 80.2771C107.513 80.5094 107.055 80.8737 106.709 81.3348C106.364 81.7959 106.144 82.3382 106.07 82.9093C105.996 83.4803 106.07 84.0608 106.286 84.5947C106.502 85.1286 106.852 85.5978 107.303 85.9569C107.753 86.3161 108.289 86.553 108.857 86.6449C109.426 86.7368 110.009 86.6805 110.55 86.4814C111.091 86.2824 111.571 85.9473 111.944 85.5086C112.318 85.0699 112.571 84.5424 112.681 83.9771Z" fill="#FFB8B8"/>
<path d="M125.496 52.7095L134.318 55.5081L134.352 55.5026C137.635 54.953 140.36 49.5941 142.067 45.1953C142.629 43.7444 142.619 42.1345 142.038 40.691C141.457 39.2475 140.35 38.0782 138.94 37.4194C137.896 36.9404 136.739 36.7627 135.599 36.9064C134.46 37.0501 133.383 37.5093 132.491 38.2323L127.961 41.9313L125.496 52.7095Z" fill="#6C63FF"/>
<path d="M145.941 89.3771L145.992 89.3086C148.745 85.6608 144.98 76.6274 144.411 75.3173L146.97 74.5597L146.524 69.6904L146.309 67.5191L148.299 65.6308L148.306 65.5826L149.674 55.8506L151.465 49.4096C152.14 46.9745 152.154 44.4039 151.506 41.9616C150.858 39.5192 149.572 37.2932 147.779 35.5119L144.118 31.8802L139.732 25.0209L132.379 24.8312L129.735 29.5248C127.276 30.0263 125.071 31.3738 123.504 33.3327C121.938 35.2916 121.108 37.7377 121.16 40.2448L121.409 52.74L118.771 68.2216L118.697 71.0337L116.107 73.7644L116.586 76.525L114.649 77.296L113.701 81.2188C113.339 81.6713 110.949 84.6905 110.927 85.5322C110.924 85.6586 111.014 85.7831 111.211 85.9238C112.758 87.03 121.406 89.4268 125.298 87.9859C129.444 86.4522 145.692 89.3326 145.856 89.3619L145.941 89.3771Z" fill="#6C63FF"/>
<path d="M135.414 22.7285C140.794 22.7285 145.155 18.3704 145.155 12.9944C145.155 7.61844 140.794 3.26035 135.414 3.26035C130.034 3.26035 125.672 7.61844 125.672 12.9944C125.672 18.3704 130.034 22.7285 135.414 22.7285Z" fill="#FFB8B8"/>
<path d="M134.225 22.8587C135.734 22.8822 137.242 22.777 138.732 22.544C140.21 22.2438 143.515 19.8235 144.436 18.367C145.121 17.2849 145.559 15.5951 145.805 14.3682C146.138 12.7446 146.125 11.0693 145.768 9.45091C145.411 7.8325 144.718 6.30701 143.734 4.97323C143.356 4.41535 142.834 3.97001 142.223 3.68432C142.169 3.66317 142.113 3.64442 142.057 3.62839C141.167 3.39439 140.367 2.89991 139.76 2.20843C139.642 2.06857 139.515 1.93736 139.378 1.81582C138.693 1.23753 137.88 0.829612 137.006 0.625418C135.595 0.248243 133.554 0.622639 130.939 1.73929C129.626 2.30031 128.189 2.09727 127.083 1.85769C127.021 1.84572 126.957 1.85019 126.898 1.87064C126.838 1.89109 126.785 1.92681 126.743 1.97426C126.273 2.41541 125.653 2.66235 125.008 2.66544C124.613 2.68277 124.198 3.22938 123.697 3.94219C123.583 4.10399 123.451 4.29283 123.355 4.40769L123.342 4.18702L123.119 4.4332C122.768 4.8201 122.52 5.28955 122.399 5.79781C122.278 6.30608 122.288 6.83663 122.428 7.34006C122.567 7.8435 122.832 8.30344 123.198 8.67706C123.563 9.05069 124.017 9.32584 124.518 9.47689C124.915 9.58255 125.322 9.64738 125.733 9.67039C125.981 9.69275 126.239 9.71588 126.485 9.75862C127.276 9.92053 128.012 10.2847 128.621 10.8155C129.229 11.3464 129.689 12.0258 129.956 12.7875C130.019 12.9635 130.122 13.1227 130.257 13.2528C130.391 13.3828 130.554 13.4802 130.732 13.5375C130.91 13.5948 131.099 13.6103 131.284 13.583C131.47 13.5558 131.646 13.4863 131.8 13.3801C132.057 13.1802 132.358 13.0454 132.678 12.9872C132.999 12.9289 133.328 12.9489 133.639 13.0454C133.908 13.1947 134.117 13.4317 134.231 13.7167C134.37 14.0342 134.601 14.3031 134.894 14.4891C135.895 15.0049 135.964 17.29 135.605 19.1949C135.258 21.0311 134.573 22.3594 133.938 22.4251C133.45 22.4756 133.394 22.5102 133.359 22.5965L133.327 22.6738L133.382 22.7461C133.652 22.8438 133.939 22.8822 134.225 22.8587Z" fill="#2F2E41"/>
<path d="M127.915 49.7665L124.159 42.2838C118.708 42.6559 107.887 48.9548 107.887 48.9548L87.4142 53.2922C86.8077 53.0592 86.1505 52.99 85.5087 53.0915C84.867 53.1931 84.2633 53.4617 83.7585 53.8705C83.2537 54.2792 82.8655 54.8137 82.6331 55.42C82.4007 56.0263 82.3323 56.6831 82.4346 57.3242C82.537 57.9654 82.8066 58.5683 83.2163 59.0722C83.6259 59.5761 84.1612 59.9634 84.7683 60.1949C85.3753 60.4264 86.0327 60.494 86.6742 60.3909C87.3157 60.2879 87.9187 60.0178 88.4226 59.6078L114.465 57.7425L127.915 49.7665Z" fill="#FFB8B8"/>
<path d="M126.401 50.9952L136.21 43.7108L137.938 37.4886C138.273 36.2658 138.259 34.9739 137.897 33.7587C137.536 32.5436 136.841 31.4537 135.892 30.6122C134.598 29.4802 132.923 28.8813 131.204 28.9368C129.485 28.9922 127.851 29.6977 126.633 30.9107C122.942 34.5926 118.731 39.7291 119.636 43.2908L119.645 43.3269L126.401 50.9952Z" fill="#6C63FF"/>
<path d="M114.257 70.479H88.0098V73.976H114.257V70.479Z" fill="white"/>
<path d="M47.1803 70.479H20.9328V73.976H47.1803V70.479Z" fill="white"/>
<path d="M50.2452 53.6619V70.3124C50.2454 70.5246 50.3298 70.728 50.48 70.8781C50.6301 71.0281 50.8337 71.1125 51.0461 71.1126H75.7391C75.9514 71.1125 76.155 71.0281 76.3052 70.8781C76.4553 70.728 76.5397 70.5246 76.5399 70.3124V53.6619C76.5394 53.4499 76.4548 53.2467 76.3047 53.0969C76.1546 52.9471 75.9512 52.8628 75.7391 52.8625H51.0461C50.8339 52.8628 50.6305 52.9471 50.4804 53.0969C50.3303 53.2467 50.2457 53.4499 50.2452 53.6619Z" fill="#3F3D56"/>
<path d="M50.8245 53.8691V70.107C50.8247 70.2204 50.8699 70.329 50.9501 70.4092C51.0303 70.4894 51.1391 70.5345 51.2525 70.5347H75.5335C75.647 70.5345 75.7557 70.4894 75.8359 70.4092C75.9162 70.329 75.9613 70.2204 75.9615 70.107V53.8691C75.9615 53.7556 75.9164 53.6467 75.8362 53.5663C75.756 53.486 75.6471 53.4407 75.5335 53.4405H51.2525C51.1389 53.4407 51.0301 53.486 50.9498 53.5663C50.8696 53.6467 50.8245 53.7556 50.8245 53.8691Z" fill="#6C63FF"/>
<path d="M49.7288 73.5597C49.7741 73.6163 49.8316 73.662 49.897 73.6933C49.9625 73.7246 50.0342 73.7407 50.1067 73.7403H76.5471C76.6194 73.7402 76.6908 73.724 76.756 73.6929C76.8213 73.6618 76.8788 73.6165 76.9243 73.5604C76.9699 73.5043 77.0023 73.4387 77.0193 73.3685C77.0364 73.2983 77.0375 73.2251 77.0227 73.1544L76.6122 71.2063C76.5952 71.1269 76.5586 71.053 76.5057 70.9913C76.4528 70.9296 76.3852 70.8821 76.3093 70.8532C76.2543 70.8316 76.1957 70.8206 76.1366 70.8206H50.5155C50.4564 70.8206 50.3979 70.8316 50.3429 70.8532C50.2669 70.8821 50.1994 70.9296 50.1465 70.9913C50.0936 71.053 50.0569 71.1269 50.0399 71.2063L49.6295 73.1544C49.6149 73.2251 49.6162 73.2981 49.6334 73.3682C49.6506 73.4383 49.6832 73.5037 49.7288 73.5597Z" fill="#2F2E41"/>
<path d="M75.2294 71.6597H75.8539C75.9063 71.6597 75.9488 71.6173 75.9488 71.5649V71.2663C75.9488 71.214 75.9063 71.1715 75.8539 71.1715H75.2294C75.1769 71.1715 75.1344 71.214 75.1344 71.2663V71.5649C75.1344 71.6173 75.1769 71.6597 75.2294 71.6597Z" fill="#3F3D56"/>
<path d="M73.6007 71.6597H74.2252C74.2776 71.6597 74.3201 71.6173 74.3201 71.5649V71.2663C74.3201 71.214 74.2776 71.1715 74.2252 71.1715H73.6007C73.5483 71.1715 73.5058 71.214 73.5058 71.2663V71.5649C73.5058 71.6173 73.5483 71.6597 73.6007 71.6597Z" fill="#3F3D56"/>
<path d="M71.972 71.6597H72.5965C72.6489 71.6597 72.6914 71.6173 72.6914 71.5649V71.2663C72.6914 71.214 72.6489 71.1715 72.5965 71.1715H71.972C71.9196 71.1715 71.8771 71.214 71.8771 71.2663V71.5649C71.8771 71.6173 71.9196 71.6597 71.972 71.6597Z" fill="#3F3D56"/>
<path d="M70.3432 71.6597H70.9678C71.0202 71.6597 71.0627 71.6173 71.0627 71.5649V71.2663C71.0627 71.214 71.0202 71.1715 70.9678 71.1715H70.3432C70.2908 71.1715 70.2483 71.214 70.2483 71.2663V71.5649C70.2483 71.6173 70.2908 71.6597 70.3432 71.6597Z" fill="#3F3D56"/>
<path d="M68.7146 71.6597H69.3391C69.3915 71.6597 69.434 71.6173 69.434 71.5649V71.2663C69.434 71.214 69.3915 71.1715 69.3391 71.1715H68.7146C68.6622 71.1715 68.6197 71.214 68.6197 71.2663V71.5649C68.6197 71.6173 68.6622 71.6597 68.7146 71.6597Z" fill="#3F3D56"/>
<path d="M67.0859 71.6597H67.7104C67.7628 71.6597 67.8053 71.6173 67.8053 71.5649V71.2663C67.8053 71.214 67.7628 71.1715 67.7104 71.1715H67.0859C67.0334 71.1715 66.9909 71.214 66.9909 71.2663V71.5649C66.9909 71.6173 67.0334 71.6597 67.0859 71.6597Z" fill="#3F3D56"/>
<path d="M65.4571 71.6597H66.0817C66.1341 71.6597 66.1766 71.6173 66.1766 71.5649V71.2663C66.1766 71.214 66.1341 71.1715 66.0817 71.1715H65.4571C65.4047 71.1715 65.3622 71.214 65.3622 71.2663V71.5649C65.3622 71.6173 65.4047 71.6597 65.4571 71.6597Z" fill="#3F3D56"/>
<path d="M63.8285 71.6597H64.453C64.5054 71.6597 64.5479 71.6173 64.5479 71.5649V71.2663C64.5479 71.214 64.5054 71.1715 64.453 71.1715H63.8285C63.7761 71.1715 63.7336 71.214 63.7336 71.2663V71.5649C63.7336 71.6173 63.7761 71.6597 63.8285 71.6597Z" fill="#3F3D56"/>
<path d="M62.1998 71.6597H62.8243C62.8767 71.6597 62.9192 71.6173 62.9192 71.5649V71.2663C62.9192 71.214 62.8767 71.1715 62.8243 71.1715H62.1998C62.1473 71.1715 62.1048 71.214 62.1048 71.2663V71.5649C62.1048 71.6173 62.1473 71.6597 62.1998 71.6597Z" fill="#3F3D56"/>
<path d="M60.571 71.6597H61.1955C61.248 71.6597 61.2905 71.6173 61.2905 71.5649V71.2663C61.2905 71.214 61.248 71.1715 61.1955 71.1715H60.571C60.5186 71.1715 60.4761 71.214 60.4761 71.2663V71.5649C60.4761 71.6173 60.5186 71.6597 60.571 71.6597Z" fill="#3F3D56"/>
<path d="M58.9424 71.6597H59.5669C59.6193 71.6597 59.6618 71.6173 59.6618 71.5649V71.2663C59.6618 71.214 59.6193 71.1715 59.5669 71.1715H58.9424C58.89 71.1715 58.8475 71.214 58.8475 71.2663V71.5649C58.8475 71.6173 58.89 71.6597 58.9424 71.6597Z" fill="#3F3D56"/>
<path d="M57.3136 71.6597H57.9382C57.9906 71.6597 58.0331 71.6173 58.0331 71.5649V71.2663C58.0331 71.214 57.9906 71.1715 57.9382 71.1715H57.3136C57.2612 71.1715 57.2187 71.214 57.2187 71.2663V71.5649C57.2187 71.6173 57.2612 71.6597 57.3136 71.6597Z" fill="#3F3D56"/>
<path d="M55.6849 71.6597H56.3094C56.3619 71.6597 56.4044 71.6173 56.4044 71.5649V71.2663C56.4044 71.214 56.3619 71.1715 56.3094 71.1715H55.6849C55.6325 71.1715 55.59 71.214 55.59 71.2663V71.5649C55.59 71.6173 55.6325 71.6597 55.6849 71.6597Z" fill="#3F3D56"/>
<path d="M54.0563 71.6597H54.6808C54.7332 71.6597 54.7757 71.6173 54.7757 71.5649V71.2663C54.7757 71.214 54.7332 71.1715 54.6808 71.1715H54.0563C54.0038 71.1715 53.9613 71.214 53.9613 71.2663V71.5649C53.9613 71.6173 54.0038 71.6597 54.0563 71.6597Z" fill="#3F3D56"/>
<path d="M52.4275 71.6597H53.0521C53.1045 71.6597 53.147 71.6173 53.147 71.5649V71.2663C53.147 71.214 53.1045 71.1715 53.0521 71.1715H52.4275C52.3751 71.1715 52.3326 71.214 52.3326 71.2663V71.5649C52.3326 71.6173 52.3751 71.6597 52.4275 71.6597Z" fill="#3F3D56"/>
<path d="M50.7988 71.6597H51.4233C51.4758 71.6597 51.5182 71.6173 51.5182 71.5649V71.2663C51.5182 71.214 51.4758 71.1715 51.4233 71.1715H50.7988C50.7464 71.1715 50.7039 71.214 50.7039 71.2663V71.5649C50.7039 71.6173 50.7464 71.6597 50.7988 71.6597Z" fill="#3F3D56"/>
<path d="M75.2486 72.4734H75.8732C75.9256 72.4734 75.9681 72.431 75.9681 72.3786V72.0801C75.9681 72.0277 75.9256 71.9852 75.8732 71.9852H75.2486C75.1962 71.9852 75.1537 72.0277 75.1537 72.0801V72.3786C75.1537 72.431 75.1962 72.4734 75.2486 72.4734Z" fill="#3F3D56"/>
<path d="M73.6199 72.4734H74.2444C74.2969 72.4734 74.3394 72.431 74.3394 72.3786V72.0801C74.3394 72.0277 74.2969 71.9852 74.2444 71.9852H73.6199C73.5675 71.9852 73.525 72.0277 73.525 72.0801V72.3786C73.525 72.431 73.5675 72.4734 73.6199 72.4734Z" fill="#3F3D56"/>
<path d="M71.9912 72.4734H72.6157C72.6681 72.4734 72.7106 72.431 72.7106 72.3786V72.0801C72.7106 72.0277 72.6681 71.9852 72.6157 71.9852H71.9912C71.9388 71.9852 71.8963 72.0277 71.8963 72.0801V72.3786C71.8963 72.431 71.9388 72.4734 71.9912 72.4734Z" fill="#3F3D56"/>
<path d="M70.3625 72.4734H70.9871C71.0395 72.4734 71.082 72.431 71.082 72.3786V72.0801C71.082 72.0277 71.0395 71.9852 70.9871 71.9852H70.3625C70.3101 71.9852 70.2676 72.0277 70.2676 72.0801V72.3786C70.2676 72.431 70.3101 72.4734 70.3625 72.4734Z" fill="#3F3D56"/>
<path d="M68.7338 72.4734H69.3583C69.4107 72.4734 69.4532 72.431 69.4532 72.3786V72.0801C69.4532 72.0277 69.4107 71.9852 69.3583 71.9852H68.7338C68.6814 71.9852 68.6389 72.0277 68.6389 72.0801V72.3786C68.6389 72.431 68.6814 72.4734 68.7338 72.4734Z" fill="#3F3D56"/>
<path d="M67.1051 72.4734H67.7296C67.782 72.4734 67.8245 72.431 67.8245 72.3786V72.0801C67.8245 72.0277 67.782 71.9852 67.7296 71.9852H67.1051C67.0527 71.9852 67.0102 72.0277 67.0102 72.0801V72.3786C67.0102 72.431 67.0527 72.4734 67.1051 72.4734Z" fill="#3F3D56"/>
<path d="M65.4764 72.4734H66.101C66.1534 72.4734 66.1959 72.431 66.1959 72.3786V72.0801C66.1959 72.0277 66.1534 71.9852 66.101 71.9852H65.4764C65.424 71.9852 65.3815 72.0277 65.3815 72.0801V72.3786C65.3815 72.431 65.424 72.4734 65.4764 72.4734Z" fill="#3F3D56"/>
<path d="M63.8477 72.4734H64.4722C64.5246 72.4734 64.5671 72.431 64.5671 72.3786V72.0801C64.5671 72.0277 64.5246 71.9852 64.4722 71.9852H63.8477C63.7953 71.9852 63.7528 72.0277 63.7528 72.0801V72.3786C63.7528 72.431 63.7953 72.4734 63.8477 72.4734Z" fill="#3F3D56"/>
<path d="M62.219 72.4734H62.8435C62.8959 72.4734 62.9384 72.431 62.9384 72.3786V72.0801C62.9384 72.0277 62.8959 71.9852 62.8435 71.9852H62.219C62.1666 71.9852 62.1241 72.0277 62.1241 72.0801V72.3786C62.1241 72.431 62.1666 72.4734 62.219 72.4734Z" fill="#3F3D56"/>
<path d="M60.5903 72.4734H61.2148C61.2673 72.4734 61.3098 72.431 61.3098 72.3786V72.0801C61.3098 72.0277 61.2673 71.9852 61.2148 71.9852H60.5903C60.5379 71.9852 60.4954 72.0277 60.4954 72.0801V72.3786C60.4954 72.431 60.5379 72.4734 60.5903 72.4734Z" fill="#3F3D56"/>
<path d="M58.9616 72.4734H59.5861C59.6385 72.4734 59.681 72.431 59.681 72.3786V72.0801C59.681 72.0277 59.6385 71.9852 59.5861 71.9852H58.9616C58.9092 71.9852 58.8667 72.0277 58.8667 72.0801V72.3786C58.8667 72.431 58.9092 72.4734 58.9616 72.4734Z" fill="#3F3D56"/>
<path d="M57.3329 72.4734H57.9574C58.0098 72.4734 58.0523 72.431 58.0523 72.3786V72.0801C58.0523 72.0277 58.0098 71.9852 57.9574 71.9852H57.3329C57.2804 71.9852 57.238 72.0277 57.238 72.0801V72.3786C57.238 72.431 57.2804 72.4734 57.3329 72.4734Z" fill="#3F3D56"/>
<path d="M55.7042 72.4734H56.3287C56.3811 72.4734 56.4236 72.431 56.4236 72.3786V72.0801C56.4236 72.0277 56.3811 71.9852 56.3287 71.9852H55.7042C55.6518 71.9852 55.6093 72.0277 55.6093 72.0801V72.3786C55.6093 72.431 55.6518 72.4734 55.7042 72.4734Z" fill="#3F3D56"/>
<path d="M54.0755 72.4734H54.7C54.7524 72.4734 54.7949 72.431 54.7949 72.3786V72.0801C54.7949 72.0277 54.7524 71.9852 54.7 71.9852H54.0755C54.0231 71.9852 53.9806 72.0277 53.9806 72.0801V72.3786C53.9806 72.431 54.0231 72.4734 54.0755 72.4734Z" fill="#3F3D56"/>
<path d="M52.4468 72.4734H53.0713C53.1237 72.4734 53.1662 72.431 53.1662 72.3786V72.0801C53.1662 72.0277 53.1237 71.9852 53.0713 71.9852H52.4468C52.3943 71.9852 52.3519 72.0277 52.3519 72.0801V72.3786C52.3519 72.431 52.3943 72.4734 52.4468 72.4734Z" fill="#3F3D56"/>
<path d="M50.8181 72.4734H51.4426C51.495 72.4734 51.5375 72.431 51.5375 72.3786V72.0801C51.5375 72.0277 51.495 71.9852 51.4426 71.9852H50.8181C50.7657 71.9852 50.7232 72.0277 50.7232 72.0801V72.3786C50.7232 72.431 50.7657 72.4734 50.8181 72.4734Z" fill="#3F3D56"/>
<path d="M61.7304 73.45H68.0554C68.1078 73.45 68.1503 73.4075 68.1503 73.3551V73.0566C68.1503 73.0042 68.1078 72.9617 68.0554 72.9617H61.7304C61.678 72.9617 61.6355 73.0042 61.6355 73.0566V73.3551C61.6355 73.4075 61.678 73.45 61.7304 73.45Z" fill="#3F3D56"/>
</g>
<defs>
<clipPath id="clip0_0_320">
<rect width="162" height="123" fill="white"/>
</clipPath>
</defs>
</svg>
