<svg width="169" height="123" viewBox="0 0 169 123" fill="none" xmlns="http://www.w3.org/2000/svg">
<g clip-path="url(#clip0_0_386)">
<path d="M98.4422 21.6835C101.61 21.6835 104.177 19.114 104.177 15.9445C104.177 12.7749 101.61 10.2054 98.4422 10.2054C95.2749 10.2054 92.7072 12.7749 92.7072 15.9445C92.7072 19.114 95.2749 21.6835 98.4422 21.6835Z" fill="#F2F2F2"/>
<path d="M142.931 106.857C151.455 100.36 155.527 89.4414 152.978 79.0262C152.914 78.7674 152.847 78.5092 152.777 78.2516C151.087 72.0693 146.907 66.1935 140.813 64.218C135.697 62.5594 130.113 63.8348 124.775 63.1753C114.298 61.8804 106.174 53.3969 100.459 44.5145C94.7431 35.6321 90.3504 25.6895 82.7555 18.3513C70.2366 6.2556 49.8151 3.65138 34.2935 11.5248C18.7718 19.3982 8.88471 36.8661 9.30637 54.275C9.72805 71.6839 20.0558 88.328 35.0541 97.1588C40.5639 100.403 46.9365 102.701 53.2786 101.897C58.7815 101.199 63.7816 98.2402 69.2586 97.3617C77.8697 95.9806 86.4259 99.8767 93.8739 104.417C101.322 108.957 108.516 114.338 116.98 116.443C125.198 118.487 135.379 112.613 142.931 106.857Z" fill="#F2F2F2"/>
<path d="M130.683 11.8904C130.496 11.7657 130.307 11.6475 130.12 11.5271C124.718 8.07002 118.929 5.2615 112.871 3.15959L111.466 22.5513H102.561V0.328855C102 0.212788 101.435 0.10317 100.87 0V22.5513H90.2876C84.4618 22.5513 78.8745 20.2354 74.755 16.113C70.6355 11.9907 68.3212 6.39952 68.3212 0.569611C67.7542 0.692126 67.1914 0.823219 66.6287 0.962928V22.5513H58.0092L56.6711 4.06018C50.4454 6.4495 44.5349 9.59157 39.0713 13.4164C38.9768 13.4809 38.8823 13.5476 38.7899 13.612C38.3153 13.9452 37.847 14.2848 37.3809 14.6287V88.6082H62.784L62.3351 82.3858L59.865 48.2214H109.608L107.138 82.3858L106.689 88.6082H131.811V12.6384C131.437 12.3847 131.061 12.1354 130.683 11.8904ZM66.6287 42.5792H59.4569L58.1317 24.245H66.6287V42.5792ZM100.87 42.5792H88.825V42.216C88.825 42.0414 88.7906 41.8685 88.7237 41.7072C88.6569 41.5459 88.5589 41.3993 88.4354 41.276C88.3119 41.1526 88.1654 41.0548 88.0041 40.9882C87.8428 40.9215 87.6699 40.8874 87.4954 40.8877H82.2589C82.0845 40.8876 81.9119 40.9219 81.7508 40.9887C81.5897 41.0554 81.4434 41.1532 81.3201 41.2766C81.1968 41.3999 81.0991 41.5464 81.0324 41.7076C80.9657 41.8688 80.9314 42.0415 80.9315 42.216V42.5792H68.3212V24.245H100.87V42.5792ZM102.561 42.5792V24.245H111.343L110.018 42.5792H102.561Z" fill="#3F3D56"/>
<path d="M0 93.3456C1.86592 95.5581 3.88413 97.6373 6.03986 99.5681L162.96 99.783C165.116 97.8523 167.134 95.773 169 93.5606L0 93.3456Z" fill="#3F3D56"/>
<path d="M106.413 73.421V91.842C106.413 92.0768 106.506 92.3019 106.672 92.4679C106.838 92.6339 107.063 92.7272 107.297 92.7274H134.577C134.811 92.7272 135.036 92.6339 135.202 92.4679C135.368 92.3019 135.461 92.0768 135.461 91.842V73.421C135.461 73.1864 135.367 72.9617 135.201 72.7959C135.036 72.6302 134.811 72.5369 134.577 72.5366H107.297C107.063 72.5369 106.838 72.6302 106.673 72.7959C106.507 72.9617 106.413 73.1864 106.413 73.421Z" fill="#3F3D56"/>
<path d="M107.053 73.6502V91.6148C107.053 91.7402 107.103 91.8604 107.191 91.9491C107.28 92.0378 107.4 92.0877 107.526 92.088H134.349C134.475 92.0877 134.595 92.0378 134.684 91.9491C134.772 91.8604 134.822 91.7402 134.822 91.6148V73.6502C134.822 73.5246 134.773 73.4042 134.684 73.3153C134.595 73.2264 134.475 73.1763 134.349 73.176H107.526C107.4 73.1763 107.28 73.2264 107.191 73.3153C107.102 73.4042 107.053 73.5246 107.053 73.6502Z" fill="#6C63FF"/>
<path d="M105.842 95.4346C105.892 95.4973 105.956 95.5479 106.028 95.5825C106.1 95.6171 106.18 95.6349 106.26 95.6345H135.469C135.549 95.6344 135.628 95.6165 135.7 95.5821C135.772 95.5476 135.836 95.4975 135.886 95.4355C135.936 95.3734 135.972 95.3008 135.991 95.2232C136.01 95.1455 136.011 95.0646 135.995 94.9863L135.541 92.8311C135.522 92.7432 135.482 92.6614 135.423 92.5932C135.365 92.5249 135.29 92.4724 135.206 92.4404C135.146 92.4165 135.081 92.4043 135.016 92.4044H106.711C106.646 92.4043 106.581 92.4165 106.521 92.4404C106.437 92.4724 106.362 92.5249 106.304 92.5932C106.245 92.6614 106.205 92.7432 106.186 92.8311L105.732 94.9863C105.716 95.0645 105.718 95.1453 105.737 95.2229C105.756 95.3004 105.792 95.3728 105.842 95.4346Z" fill="#2F2E41"/>
<path d="M134.014 93.3326H134.703C134.761 93.3326 134.808 93.2857 134.808 93.2277V92.8974C134.808 92.8395 134.761 92.7925 134.703 92.7925H134.014C133.956 92.7925 133.909 92.8395 133.909 92.8974V93.2277C133.909 93.2857 133.956 93.3326 134.014 93.3326Z" fill="#3F3D56"/>
<path d="M132.214 93.3326H132.904C132.962 93.3326 133.009 93.2857 133.009 93.2277V92.8974C133.009 92.8395 132.962 92.7925 132.904 92.7925H132.214C132.156 92.7925 132.109 92.8395 132.109 92.8974V93.2277C132.109 93.2857 132.156 93.3326 132.214 93.3326Z" fill="#3F3D56"/>
<path d="M130.415 93.3326H131.105C131.163 93.3326 131.21 93.2857 131.21 93.2277V92.8974C131.21 92.8395 131.163 92.7925 131.105 92.7925H130.415C130.357 92.7925 130.31 92.8395 130.31 92.8974V93.2277C130.31 93.2857 130.357 93.3326 130.415 93.3326Z" fill="#3F3D56"/>
<path d="M128.616 93.3326H129.306C129.364 93.3326 129.41 93.2857 129.41 93.2277V92.8974C129.41 92.8395 129.364 92.7925 129.306 92.7925H128.616C128.558 92.7925 128.511 92.8395 128.511 92.8974V93.2277C128.511 93.2857 128.558 93.3326 128.616 93.3326Z" fill="#3F3D56"/>
<path d="M126.816 93.3326H127.506C127.564 93.3326 127.611 93.2857 127.611 93.2277V92.8974C127.611 92.8395 127.564 92.7925 127.506 92.7925H126.816C126.758 92.7925 126.712 92.8395 126.712 92.8974V93.2277C126.712 93.2857 126.758 93.3326 126.816 93.3326Z" fill="#3F3D56"/>
<path d="M125.017 93.3326H125.707C125.765 93.3326 125.812 93.2857 125.812 93.2277V92.8974C125.812 92.8395 125.765 92.7925 125.707 92.7925H125.017C124.959 92.7925 124.912 92.8395 124.912 92.8974V93.2277C124.912 93.2857 124.959 93.3326 125.017 93.3326Z" fill="#3F3D56"/>
<path d="M123.218 93.3326H123.908C123.966 93.3326 124.013 93.2857 124.013 93.2277V92.8974C124.013 92.8395 123.966 92.7925 123.908 92.7925H123.218C123.16 92.7925 123.113 92.8395 123.113 92.8974V93.2277C123.113 93.2857 123.16 93.3326 123.218 93.3326Z" fill="#3F3D56"/>
<path d="M121.419 93.3326H122.108C122.166 93.3326 122.213 93.2857 122.213 93.2277V92.8974C122.213 92.8395 122.166 92.7925 122.108 92.7925H121.419C121.361 92.7925 121.314 92.8395 121.314 92.8974V93.2277C121.314 93.2857 121.361 93.3326 121.419 93.3326Z" fill="#3F3D56"/>
<path d="M119.619 93.3326H120.309C120.367 93.3326 120.414 93.2857 120.414 93.2277V92.8974C120.414 92.8395 120.367 92.7925 120.309 92.7925H119.619C119.561 92.7925 119.514 92.8395 119.514 92.8974V93.2277C119.514 93.2857 119.561 93.3326 119.619 93.3326Z" fill="#3F3D56"/>
<path d="M117.82 93.3326H118.51C118.568 93.3326 118.615 93.2857 118.615 93.2277V92.8974C118.615 92.8395 118.568 92.7925 118.51 92.7925H117.82C117.762 92.7925 117.715 92.8395 117.715 92.8974V93.2277C117.715 93.2857 117.762 93.3326 117.82 93.3326Z" fill="#3F3D56"/>
<path d="M116.021 93.3326H116.711C116.769 93.3326 116.815 93.2857 116.815 93.2277V92.8974C116.815 92.8395 116.769 92.7925 116.711 92.7925H116.021C115.963 92.7925 115.916 92.8395 115.916 92.8974V93.2277C115.916 93.2857 115.963 93.3326 116.021 93.3326Z" fill="#3F3D56"/>
<path d="M114.221 93.3326H114.911C114.969 93.3326 115.016 93.2857 115.016 93.2277V92.8974C115.016 92.8395 114.969 92.7925 114.911 92.7925H114.221C114.164 92.7925 114.117 92.8395 114.117 92.8974V93.2277C114.117 93.2857 114.164 93.3326 114.221 93.3326Z" fill="#3F3D56"/>
<path d="M112.422 93.3326H113.112C113.17 93.3326 113.217 93.2857 113.217 93.2277V92.8974C113.217 92.8395 113.17 92.7925 113.112 92.7925H112.422C112.364 92.7925 112.317 92.8395 112.317 92.8974V93.2277C112.317 93.2857 112.364 93.3326 112.422 93.3326Z" fill="#3F3D56"/>
<path d="M110.623 93.3326H111.313C111.371 93.3326 111.418 93.2857 111.418 93.2277V92.8974C111.418 92.8395 111.371 92.7925 111.313 92.7925H110.623C110.565 92.7925 110.518 92.8395 110.518 92.8974V93.2277C110.518 93.2857 110.565 93.3326 110.623 93.3326Z" fill="#3F3D56"/>
<path d="M108.824 93.3326H109.513C109.571 93.3326 109.618 93.2857 109.618 93.2277V92.8974C109.618 92.8395 109.571 92.7925 109.513 92.7925H108.824C108.766 92.7925 108.719 92.8395 108.719 92.8974V93.2277C108.719 93.2857 108.766 93.3326 108.824 93.3326Z" fill="#3F3D56"/>
<path d="M107.024 93.3326H107.714C107.772 93.3326 107.819 93.2857 107.819 93.2277V92.8974C107.819 92.8395 107.772 92.7925 107.714 92.7925H107.024C106.966 92.7925 106.919 92.8395 106.919 92.8974V93.2277C106.919 93.2857 106.966 93.3326 107.024 93.3326Z" fill="#3F3D56"/>
<path d="M134.035 94.2329H134.725C134.783 94.2329 134.83 94.1859 134.83 94.128V93.7977C134.83 93.7397 134.783 93.6927 134.725 93.6927H134.035C133.977 93.6927 133.93 93.7397 133.93 93.7977V94.128C133.93 94.1859 133.977 94.2329 134.035 94.2329Z" fill="#3F3D56"/>
<path d="M132.235 94.2329H132.925C132.983 94.2329 133.03 94.1859 133.03 94.128V93.7977C133.03 93.7397 132.983 93.6927 132.925 93.6927H132.235C132.178 93.6927 132.131 93.7397 132.131 93.7977V94.128C132.131 94.1859 132.178 94.2329 132.235 94.2329Z" fill="#3F3D56"/>
<path d="M130.436 94.2329H131.126C131.184 94.2329 131.231 94.1859 131.231 94.128V93.7977C131.231 93.7397 131.184 93.6927 131.126 93.6927H130.436C130.378 93.6927 130.331 93.7397 130.331 93.7977V94.128C130.331 94.1859 130.378 94.2329 130.436 94.2329Z" fill="#3F3D56"/>
<path d="M128.637 94.2329H129.327C129.385 94.2329 129.432 94.1859 129.432 94.128V93.7977C129.432 93.7397 129.385 93.6927 129.327 93.6927H128.637C128.579 93.6927 128.532 93.7397 128.532 93.7977V94.128C128.532 94.1859 128.579 94.2329 128.637 94.2329Z" fill="#3F3D56"/>
<path d="M126.838 94.2329H127.528C127.585 94.2329 127.632 94.1859 127.632 94.128V93.7977C127.632 93.7397 127.585 93.6927 127.528 93.6927H126.838C126.78 93.6927 126.733 93.7397 126.733 93.7977V94.128C126.733 94.1859 126.78 94.2329 126.838 94.2329Z" fill="#3F3D56"/>
<path d="M125.038 94.2329H125.728C125.786 94.2329 125.833 94.1859 125.833 94.128V93.7977C125.833 93.7397 125.786 93.6927 125.728 93.6927H125.038C124.98 93.6927 124.933 93.7397 124.933 93.7977V94.128C124.933 94.1859 124.98 94.2329 125.038 94.2329Z" fill="#3F3D56"/>
<path d="M123.239 94.2329H123.929C123.987 94.2329 124.034 94.1859 124.034 94.128V93.7977C124.034 93.7397 123.987 93.6927 123.929 93.6927H123.239C123.181 93.6927 123.134 93.7397 123.134 93.7977V94.128C123.134 94.1859 123.181 94.2329 123.239 94.2329Z" fill="#3F3D56"/>
<path d="M121.44 94.2329H122.13C122.188 94.2329 122.235 94.1859 122.235 94.128V93.7977C122.235 93.7397 122.188 93.6927 122.13 93.6927H121.44C121.382 93.6927 121.335 93.7397 121.335 93.7977V94.128C121.335 94.1859 121.382 94.2329 121.44 94.2329Z" fill="#3F3D56"/>
<path d="M119.641 94.2329H120.33C120.388 94.2329 120.435 94.1859 120.435 94.128V93.7977C120.435 93.7397 120.388 93.6927 120.33 93.6927H119.641C119.583 93.6927 119.536 93.7397 119.536 93.7977V94.128C119.536 94.1859 119.583 94.2329 119.641 94.2329Z" fill="#3F3D56"/>
<path d="M117.841 94.2329H118.531C118.589 94.2329 118.636 94.1859 118.636 94.128V93.7977C118.636 93.7397 118.589 93.6927 118.531 93.6927H117.841C117.783 93.6927 117.736 93.7397 117.736 93.7977V94.128C117.736 94.1859 117.783 94.2329 117.841 94.2329Z" fill="#3F3D56"/>
<path d="M116.042 94.2329H116.732C116.79 94.2329 116.837 94.1859 116.837 94.128V93.7977C116.837 93.7397 116.79 93.6927 116.732 93.6927H116.042C115.984 93.6927 115.937 93.7397 115.937 93.7977V94.128C115.937 94.1859 115.984 94.2329 116.042 94.2329Z" fill="#3F3D56"/>
<path d="M114.243 94.2329H114.933C114.991 94.2329 115.037 94.1859 115.037 94.128V93.7977C115.037 93.7397 114.991 93.6927 114.933 93.6927H114.243C114.185 93.6927 114.138 93.7397 114.138 93.7977V94.128C114.138 94.1859 114.185 94.2329 114.243 94.2329Z" fill="#3F3D56"/>
<path d="M112.443 94.2329H113.133C113.191 94.2329 113.238 94.1859 113.238 94.128V93.7977C113.238 93.7397 113.191 93.6927 113.133 93.6927H112.443C112.385 93.6927 112.339 93.7397 112.339 93.7977V94.128C112.339 94.1859 112.385 94.2329 112.443 94.2329Z" fill="#3F3D56"/>
<path d="M110.644 94.2329H111.334C111.392 94.2329 111.439 94.1859 111.439 94.128V93.7977C111.439 93.7397 111.392 93.6927 111.334 93.6927H110.644C110.586 93.6927 110.539 93.7397 110.539 93.7977V94.128C110.539 94.1859 110.586 94.2329 110.644 94.2329Z" fill="#3F3D56"/>
<path d="M108.845 94.2329H109.535C109.593 94.2329 109.64 94.1859 109.64 94.128V93.7977C109.64 93.7397 109.593 93.6927 109.535 93.6927H108.845C108.787 93.6927 108.74 93.7397 108.74 93.7977V94.128C108.74 94.1859 108.787 94.2329 108.845 94.2329Z" fill="#3F3D56"/>
<path d="M107.046 94.2329H107.735C107.793 94.2329 107.84 94.1859 107.84 94.128V93.7977C107.84 93.7397 107.793 93.6927 107.735 93.6927H107.046C106.988 93.6927 106.941 93.7397 106.941 93.7977V94.128C106.941 94.1859 106.988 94.2329 107.046 94.2329Z" fill="#3F3D56"/>
<path d="M119.101 95.3132H126.088C126.146 95.3132 126.193 95.2662 126.193 95.2083V94.878C126.193 94.8201 126.146 94.7731 126.088 94.7731H119.101C119.043 94.7731 118.996 94.8201 118.996 94.878V95.2083C118.996 95.2662 119.043 95.3132 119.101 95.3132Z" fill="#3F3D56"/>
<path d="M111.698 77.1063H111.087C110.902 77.1063 110.752 77.2565 110.752 77.4418C110.752 77.6271 110.902 77.7773 111.087 77.7773H111.698C111.883 77.7773 112.033 77.6271 112.033 77.4418C112.033 77.2565 111.883 77.1063 111.698 77.1063Z" fill="white"/>
<path d="M118.683 77.1063H118.073C117.887 77.1063 117.737 77.2565 117.737 77.4418C117.737 77.6271 117.887 77.7773 118.073 77.7773H118.683C118.869 77.7773 119.019 77.6271 119.019 77.4418C119.019 77.2565 118.869 77.1063 118.683 77.1063Z" fill="white"/>
<path d="M120.663 77.1063H120.052C119.867 77.1063 119.717 77.2565 119.717 77.4418C119.717 77.6271 119.867 77.7773 120.052 77.7773H120.663C120.848 77.7773 120.998 77.6271 120.998 77.4418C120.998 77.2565 120.848 77.1063 120.663 77.1063Z" fill="white"/>
<path d="M116.783 77.0503H112.987C112.802 77.0503 112.652 77.2005 112.652 77.3858C112.652 77.5711 112.802 77.7214 112.987 77.7214H116.783C116.968 77.7214 117.119 77.5711 117.119 77.3858C117.119 77.2005 116.968 77.0503 116.783 77.0503Z" fill="white"/>
<path d="M126.097 77.0503H122.301C122.116 77.0503 121.966 77.2005 121.966 77.3858C121.966 77.5711 122.116 77.7214 122.301 77.7214H126.097C126.283 77.7214 126.433 77.5711 126.433 77.3858C126.433 77.2005 126.283 77.0503 126.097 77.0503Z" fill="white"/>
<path d="M113.561 78.6208H112.95C112.765 78.6208 112.615 78.7711 112.615 78.9564C112.615 79.1417 112.765 79.2919 112.95 79.2919H113.561C113.746 79.2919 113.896 79.1417 113.896 78.9564C113.896 78.7711 113.746 78.6208 113.561 78.6208Z" fill="white"/>
<path d="M120.546 78.6208H119.935C119.75 78.6208 119.6 78.7711 119.6 78.9564C119.6 79.1417 119.75 79.2919 119.935 79.2919H120.546C120.731 79.2919 120.882 79.1417 120.882 78.9564C120.882 78.7711 120.731 78.6208 120.546 78.6208Z" fill="white"/>
<path d="M122.525 78.6208H121.915C121.729 78.6208 121.579 78.7711 121.579 78.9564C121.579 79.1417 121.729 79.2919 121.915 79.2919H122.525C122.711 79.2919 122.861 79.1417 122.861 78.9564C122.861 78.7711 122.711 78.6208 122.525 78.6208Z" fill="white"/>
<path d="M118.646 78.5649H114.85C114.665 78.5649 114.515 78.7152 114.515 78.9005C114.515 79.0858 114.665 79.236 114.85 79.236H118.646C118.831 79.236 118.981 79.0858 118.981 78.9005C118.981 78.7152 118.831 78.5649 118.646 78.5649Z" fill="white"/>
<path d="M127.96 78.5649H124.164C123.979 78.5649 123.829 78.7152 123.829 78.9005C123.829 79.0858 123.979 79.236 124.164 79.236H127.96C128.145 79.236 128.296 79.0858 128.296 78.9005C128.296 78.7152 128.145 78.5649 127.96 78.5649Z" fill="white"/>
<path d="M115.423 80.1354H114.813C114.627 80.1354 114.477 80.2857 114.477 80.471C114.477 80.6563 114.627 80.8065 114.813 80.8065H115.423C115.609 80.8065 115.759 80.6563 115.759 80.471C115.759 80.2857 115.609 80.1354 115.423 80.1354Z" fill="white"/>
<path d="M122.409 80.1354H121.798C121.613 80.1354 121.463 80.2857 121.463 80.471C121.463 80.6563 121.613 80.8065 121.798 80.8065H122.409C122.594 80.8065 122.744 80.6563 122.744 80.471C122.744 80.2857 122.594 80.1354 122.409 80.1354Z" fill="white"/>
<path d="M124.388 80.1354H123.777C123.592 80.1354 123.442 80.2857 123.442 80.471C123.442 80.6563 123.592 80.8065 123.777 80.8065H124.388C124.573 80.8065 124.724 80.6563 124.724 80.471C124.724 80.2857 124.573 80.1354 124.388 80.1354Z" fill="white"/>
<path d="M120.509 80.0795H116.713C116.528 80.0795 116.377 80.2298 116.377 80.4151C116.377 80.6004 116.528 80.7506 116.713 80.7506H120.509C120.694 80.7506 120.844 80.6004 120.844 80.4151C120.844 80.2298 120.694 80.0795 120.509 80.0795Z" fill="white"/>
<path d="M129.823 80.0795H126.027C125.842 80.0795 125.692 80.2298 125.692 80.4151C125.692 80.6004 125.842 80.7506 126.027 80.7506H129.823C130.008 80.7506 130.158 80.6004 130.158 80.4151C130.158 80.2298 130.008 80.0795 129.823 80.0795Z" fill="white"/>
<path d="M117.286 81.65H116.675C116.49 81.65 116.34 81.8002 116.34 81.9856C116.34 82.1709 116.49 82.3211 116.675 82.3211H117.286C117.471 82.3211 117.622 82.1709 117.622 81.9856C117.622 81.8002 117.471 81.65 117.286 81.65Z" fill="white"/>
<path d="M124.272 81.65H123.661C123.476 81.65 123.326 81.8002 123.326 81.9856C123.326 82.1709 123.476 82.3211 123.661 82.3211H124.272C124.457 82.3211 124.607 82.1709 124.607 81.9856C124.607 81.8002 124.457 81.65 124.272 81.65Z" fill="white"/>
<path d="M126.251 81.65H125.64C125.455 81.65 125.305 81.8002 125.305 81.9856C125.305 82.1709 125.455 82.3211 125.64 82.3211H126.251C126.436 82.3211 126.586 82.1709 126.586 81.9856C126.586 81.8002 126.436 81.65 126.251 81.65Z" fill="white"/>
<path d="M122.372 81.5941H118.576C118.39 81.5941 118.24 81.7443 118.24 81.9296C118.24 82.115 118.39 82.2652 118.576 82.2652H122.372C122.557 82.2652 122.707 82.115 122.707 81.9296C122.707 81.7443 122.557 81.5941 122.372 81.5941Z" fill="white"/>
<path d="M118.683 87.6727H118.073C117.887 87.6727 117.737 87.823 117.737 88.0083C117.737 88.1936 117.887 88.3438 118.073 88.3438H118.683C118.869 88.3438 119.019 88.1936 119.019 88.0083C119.019 87.823 118.869 87.6727 118.683 87.6727Z" fill="white"/>
<path d="M120.663 87.6727H120.052C119.867 87.6727 119.717 87.823 119.717 88.0083C119.717 88.1936 119.867 88.3438 120.052 88.3438H120.663C120.848 88.3438 120.998 88.1936 120.998 88.0083C120.998 87.823 120.848 87.6727 120.663 87.6727Z" fill="white"/>
<path d="M126.097 87.7286H122.301C122.116 87.7286 121.966 87.8789 121.966 88.0642C121.966 88.2495 122.116 88.3997 122.301 88.3997H126.097C126.283 88.3997 126.433 88.2495 126.433 88.0642C126.433 87.8789 126.283 87.7286 126.097 87.7286Z" fill="white"/>
<path d="M111.698 87.6727H111.087C110.902 87.6727 110.752 87.823 110.752 88.0083C110.752 88.1936 110.902 88.3438 111.087 88.3438H111.698C111.883 88.3438 112.033 88.1936 112.033 88.0083C112.033 87.823 111.883 87.6727 111.698 87.6727Z" fill="white"/>
<path d="M116.783 87.7286H112.987C112.802 87.7286 112.652 87.8789 112.652 88.0642C112.652 88.2495 112.802 88.3997 112.987 88.3997H116.783C116.968 88.3997 117.119 88.2495 117.119 88.0642C117.119 87.8789 116.968 87.7286 116.783 87.7286Z" fill="white"/>
<path d="M113.561 86.1581H112.95C112.765 86.1581 112.615 86.3084 112.615 86.4937C112.615 86.679 112.765 86.8292 112.95 86.8292H113.561C113.746 86.8292 113.896 86.679 113.896 86.4937C113.896 86.3084 113.746 86.1581 113.561 86.1581Z" fill="white"/>
<path d="M120.546 86.1581H119.935C119.75 86.1581 119.6 86.3084 119.6 86.4937C119.6 86.679 119.75 86.8292 119.935 86.8292H120.546C120.731 86.8292 120.882 86.679 120.882 86.4937C120.882 86.3084 120.731 86.1581 120.546 86.1581Z" fill="white"/>
<path d="M122.525 86.1581H121.915C121.729 86.1581 121.579 86.3084 121.579 86.4937C121.579 86.679 121.729 86.8292 121.915 86.8292H122.525C122.711 86.8292 122.861 86.679 122.861 86.4937C122.861 86.3084 122.711 86.1581 122.525 86.1581Z" fill="white"/>
<path d="M118.646 86.2141H114.85C114.665 86.2141 114.515 86.3643 114.515 86.5496C114.515 86.7349 114.665 86.8851 114.85 86.8851H118.646C118.831 86.8851 118.981 86.7349 118.981 86.5496C118.981 86.3643 118.831 86.2141 118.646 86.2141Z" fill="white"/>
<path d="M115.423 84.6436H114.813C114.627 84.6436 114.477 84.7938 114.477 84.9791C114.477 85.1644 114.627 85.3146 114.813 85.3146H115.423C115.609 85.3146 115.759 85.1644 115.759 84.9791C115.759 84.7938 115.609 84.6436 115.423 84.6436Z" fill="white"/>
<path d="M122.409 84.6436H121.798C121.613 84.6436 121.463 84.7938 121.463 84.9791C121.463 85.1644 121.613 85.3146 121.798 85.3146H122.409C122.594 85.3146 122.744 85.1644 122.744 84.9791C122.744 84.7938 122.594 84.6436 122.409 84.6436Z" fill="white"/>
<path d="M124.388 84.6436H123.777C123.592 84.6436 123.442 84.7938 123.442 84.9791C123.442 85.1644 123.592 85.3146 123.777 85.3146H124.388C124.573 85.3146 124.724 85.1644 124.724 84.9791C124.724 84.7938 124.573 84.6436 124.388 84.6436Z" fill="white"/>
<path d="M120.509 84.6995H116.713C116.528 84.6995 116.377 84.8497 116.377 85.035C116.377 85.2203 116.528 85.3705 116.713 85.3705H120.509C120.694 85.3705 120.844 85.2203 120.844 85.035C120.844 84.8497 120.694 84.6995 120.509 84.6995Z" fill="white"/>
<path d="M117.286 83.1289H116.675C116.49 83.1289 116.34 83.2791 116.34 83.4644C116.34 83.6498 116.49 83.8 116.675 83.8H117.286C117.471 83.8 117.622 83.6498 117.622 83.4644C117.622 83.2791 117.471 83.1289 117.286 83.1289Z" fill="white"/>
<path d="M124.272 83.1289H123.661C123.476 83.1289 123.326 83.2791 123.326 83.4644C123.326 83.6498 123.476 83.8 123.661 83.8H124.272C124.457 83.8 124.607 83.6498 124.607 83.4644C124.607 83.2791 124.457 83.1289 124.272 83.1289Z" fill="white"/>
<path d="M126.251 83.1289H125.64C125.455 83.1289 125.305 83.2791 125.305 83.4644C125.305 83.6498 125.455 83.8 125.64 83.8H126.251C126.436 83.8 126.586 83.6498 126.586 83.4644C126.586 83.2791 126.436 83.1289 126.251 83.1289Z" fill="white"/>
<path d="M122.372 83.1849H118.576C118.39 83.1849 118.24 83.3351 118.24 83.5204C118.24 83.7057 118.39 83.8559 118.576 83.8559H122.372C122.557 83.8559 122.707 83.7057 122.707 83.5204C122.707 83.3351 122.557 83.1849 122.372 83.1849Z" fill="white"/>
<path d="M108.45 105.423L105.583 100.888L114.583 93.7081L118.298 89.5896C118.781 89.0546 119.395 88.6556 120.08 88.4327C120.765 88.2097 121.497 88.1706 122.201 88.3191C122.906 88.4677 123.56 88.7987 124.097 89.2792C124.634 89.7597 125.035 90.3728 125.261 91.0572C125.596 92.0714 125.524 93.1762 125.06 94.1383C124.597 95.1003 123.778 95.8445 122.776 96.2138L116.902 98.3794L108.45 105.423Z" fill="#FFB6B6"/>
<path d="M41.1729 72.5375V94.5815H56.6054V72.5375C56.6057 72.3789 56.5551 72.2245 56.4612 72.0968C56.3672 71.9692 56.2349 71.875 56.0835 71.8282C56.0121 71.8046 55.9374 71.793 55.8623 71.7938H41.9182C41.8204 71.7936 41.7236 71.8127 41.6332 71.85C41.5428 71.8873 41.4607 71.942 41.3915 72.0111C41.3223 72.0801 41.2673 72.1622 41.2298 72.2525C41.1923 72.3428 41.1729 72.4397 41.1729 72.5375ZM47.1955 80.1119C47.1996 79.6773 47.3749 79.2619 47.6834 78.956C47.9919 78.6502 48.4087 78.4785 48.843 78.4785C49.2772 78.4785 49.694 78.6502 50.0025 78.956C50.311 79.2619 50.4864 79.6773 50.4904 80.1119V82.6697C50.4882 83.1054 50.3136 83.5226 50.0049 83.83C49.6962 84.1373 49.2784 84.3098 48.843 84.3098C48.4075 84.3098 47.9897 84.1373 47.681 83.83C47.3723 83.5226 47.1978 83.1054 47.1955 82.6697V80.1119Z" fill="#2F2E41"/>
<path d="M41.1256 93.8766V96.0023C41.126 96.1124 41.1697 96.218 41.2473 96.296C41.3249 96.3741 41.4301 96.4184 41.5402 96.4193H56.2381C56.3483 96.4187 56.4537 96.3746 56.5314 96.2964C56.6091 96.2183 56.6527 96.1125 56.6527 96.0023V93.8766H41.1256Z" fill="#3F3D56"/>
<path d="M16.8953 39.3253V79.5746C16.8957 80.0875 17.0995 80.5793 17.4619 80.942C17.8243 81.3047 18.3158 81.5086 18.8284 81.509H78.4322C78.9448 81.5086 79.4362 81.3047 79.7987 80.942C80.1611 80.5793 80.3649 80.0875 80.3653 79.5746V39.3253C80.3641 38.8128 80.16 38.3217 79.7976 37.9595C79.4353 37.5973 78.9443 37.3936 78.4322 37.393H18.8284C18.3162 37.3936 17.8253 37.5974 17.4629 37.9595C17.1006 38.3217 16.8965 38.8128 16.8953 39.3253Z" fill="#3F3D56"/>
<path d="M18.2935 39.826V79.078C18.294 79.3521 18.403 79.6148 18.5966 79.8086C18.7903 80.0023 19.0528 80.1114 19.3267 80.1119H77.936C78.2099 80.1114 78.4724 80.0023 78.666 79.8086C78.8597 79.6148 78.9687 79.3521 78.9692 79.078V39.826C78.9691 39.5517 78.8604 39.2885 78.6667 39.0943C78.473 38.9 78.2102 38.7906 77.936 38.79H19.3267C19.0525 38.7906 18.7897 38.9001 18.596 39.0943C18.4023 39.2885 18.2935 39.5517 18.2935 39.826Z" fill="white"/>
<path d="M29.1704 96.2752C29.2301 96.3501 29.3059 96.4104 29.3922 96.4518C29.4785 96.4931 29.5731 96.5143 29.6688 96.5138H64.5376C64.6329 96.5137 64.727 96.4923 64.8131 96.4512C64.8992 96.4101 64.975 96.3503 65.0351 96.2762C65.0951 96.2021 65.1379 96.1155 65.1604 96.0228C65.1828 95.93 65.1843 95.8334 65.1647 95.74L64.6235 93.1672C64.601 93.0623 64.5527 92.9647 64.4829 92.8832C64.4132 92.8018 64.3241 92.739 64.224 92.7008C64.1514 92.6723 64.0742 92.6578 63.9963 92.6578H30.2079C30.13 92.6578 30.0527 92.6723 29.9802 92.7008C29.88 92.739 29.791 92.8017 29.7212 92.8832C29.6514 92.9647 29.6031 93.0623 29.5807 93.1672L29.0394 95.74C29.0202 95.8334 29.0219 95.9298 29.0446 96.0224C29.0673 96.115 29.1103 96.2014 29.1704 96.2752Z" fill="#2F2E41"/>
<path d="M76.034 44.1972H21.1935C21.1365 44.196 21.0822 44.1724 21.0423 44.1316C21.0025 44.0908 20.9802 44.036 20.9802 43.979C20.9802 43.9219 21.0025 43.8671 21.0423 43.8263C21.0822 43.7856 21.1365 43.762 21.1935 43.7607H76.034C76.091 43.762 76.1453 43.7856 76.1851 43.8263C76.225 43.8671 76.2473 43.9219 76.2473 43.979C76.2473 44.036 76.225 44.0908 76.1851 44.1316C76.1453 44.1724 76.091 44.196 76.034 44.1972Z" fill="#3F3D56"/>
<path d="M24.9265 42.6464C25.6324 42.6464 26.2046 42.0611 26.2046 41.339C26.2046 40.6169 25.6324 40.0315 24.9265 40.0315C24.2207 40.0315 23.6484 40.6169 23.6484 41.339C23.6484 42.0611 24.2207 42.6464 24.9265 42.6464Z" fill="#3F3D56"/>
<path d="M29.3417 42.6464C30.0475 42.6464 30.6198 42.0611 30.6198 41.339C30.6198 40.6169 30.0475 40.0315 29.3417 40.0315C28.6358 40.0315 28.0636 40.6169 28.0636 41.339C28.0636 42.0611 28.6358 42.6464 29.3417 42.6464Z" fill="#3F3D56"/>
<path d="M33.7569 42.6464C34.4628 42.6464 35.035 42.0611 35.035 41.339C35.035 40.6169 34.4628 40.0315 33.7569 40.0315C33.051 40.0315 32.4788 40.6169 32.4788 41.339C32.4788 42.0611 33.051 42.6464 33.7569 42.6464Z" fill="#3F3D56"/>
<path d="M73.3753 40.3548H70.2394C70.1774 40.3563 70.1184 40.3819 70.0751 40.4263C70.0318 40.4707 70.0075 40.5303 70.0075 40.5923C70.0075 40.6544 70.0318 40.714 70.0751 40.7584C70.1184 40.8027 70.1774 40.8284 70.2394 40.8298H73.3753C73.4377 40.829 73.4972 40.8035 73.541 40.7591C73.5848 40.7147 73.6093 40.6547 73.6093 40.5923C73.6093 40.5299 73.5848 40.47 73.541 40.4256C73.4972 40.3811 73.4377 40.3557 73.3753 40.3548Z" fill="#3F3D56"/>
<path d="M73.3753 41.2468H70.2394C70.1774 41.2482 70.1183 41.2738 70.0749 41.3182C70.0316 41.3626 70.0073 41.4222 70.0073 41.4843C70.0073 41.5464 70.0316 41.6061 70.0749 41.6505C70.1183 41.6948 70.1774 41.7205 70.2394 41.7218H73.3753C73.4378 41.7211 73.4974 41.6957 73.5413 41.6513C73.5852 41.6068 73.6098 41.5468 73.6098 41.4843C73.6098 41.4218 73.5852 41.3619 73.5413 41.3174C73.4974 41.2729 73.4378 41.2476 73.3753 41.2468Z" fill="#3F3D56"/>
<path d="M73.3753 42.1388H70.2394C70.1774 42.1402 70.1184 42.1659 70.0751 42.2103C70.0318 42.2547 70.0075 42.3143 70.0075 42.3763C70.0075 42.4384 70.0318 42.4979 70.0751 42.5423C70.1184 42.5867 70.1774 42.6124 70.2394 42.6138H73.3753C73.4377 42.6129 73.4972 42.5875 73.541 42.5431C73.5848 42.4986 73.6093 42.4387 73.6093 42.3763C73.6093 42.3139 73.5848 42.254 73.541 42.2095C73.4972 42.1651 73.4377 42.1397 73.3753 42.1388Z" fill="#3F3D56"/>
<path d="M148.977 94.8095C149.071 95.0852 149.251 95.3238 149.489 95.4911C149.728 95.6583 150.013 95.7456 150.305 95.7404L155.995 95.5938C156.288 95.5881 156.572 95.4875 156.803 95.3071C157.035 95.1267 157.202 94.8761 157.279 94.5929L158.085 85.9766C158.37 86.1061 158.681 86.1701 158.995 86.1638C159.267 86.1569 159.536 86.0965 159.785 85.9858C160.034 85.8752 160.259 85.7165 160.446 85.5189C160.634 85.3213 160.781 85.0886 160.879 84.8341C160.977 84.5796 161.024 84.3083 161.017 84.0357C161.01 83.7631 160.95 83.4945 160.839 83.2453C160.729 82.996 160.57 82.771 160.373 82.5831C160.175 82.3952 159.943 82.248 159.688 82.15C159.434 82.052 159.163 82.0051 158.891 82.0119C158.765 82.0115 158.64 82.0245 158.518 82.0507C158.384 81.9064 158.222 81.7916 158.042 81.7138C157.862 81.6359 157.667 81.5967 157.471 81.5987L148.718 81.8249C148.646 81.8276 148.573 81.8365 148.502 81.8517C148.31 81.8875 148.128 81.9641 147.968 82.0762C147.808 82.1883 147.674 82.3334 147.575 82.5017C147.476 82.67 147.414 82.8576 147.393 83.0519C147.373 83.2462 147.394 83.4427 147.455 83.6281L148.977 94.8095ZM158.25 85.3916L158.823 83.3383C158.888 83.1012 158.889 82.851 158.827 82.613C158.855 82.6129 158.879 82.5997 158.907 82.5997C159.3 82.5916 159.68 82.7397 159.964 83.0115C160.248 83.2834 160.413 83.6568 160.422 84.0499C160.431 84.443 160.284 84.8238 160.013 85.1086C159.742 85.3935 159.369 85.5592 158.977 85.5695C158.723 85.5775 158.471 85.5159 158.25 85.3916Z" fill="#2F2E41"/>
<path d="M148.502 81.8517C148.689 82.9186 150.785 83.6687 153.306 83.5383C155.624 83.4315 157.52 82.6169 157.867 81.6515C157.738 81.6135 157.605 81.5956 157.471 81.5987L148.718 81.8248C148.645 81.8275 148.573 81.8365 148.502 81.8517Z" fill="#3F3D56"/>
<path d="M153.768 90.0747C153.78 90.0718 153.791 90.067 153.801 90.0605L155.036 89.2511C155.051 89.2413 155.064 89.228 155.072 89.2123C155.081 89.1966 155.085 89.1791 155.085 89.1612C155.085 89.1434 155.081 89.1258 155.072 89.1101C155.064 89.0944 155.051 89.0811 155.036 89.0714L153.752 88.2295C153.74 88.2217 153.727 88.2163 153.713 88.2136C153.699 88.2109 153.685 88.211 153.671 88.2139C153.657 88.2167 153.644 88.2223 153.632 88.2302C153.621 88.2382 153.611 88.2484 153.603 88.2602C153.595 88.272 153.59 88.2853 153.587 88.2992C153.585 88.3131 153.585 88.3273 153.588 88.3412C153.591 88.355 153.596 88.3682 153.604 88.3798C153.612 88.3915 153.622 88.4015 153.634 88.4092L154.781 89.1611L153.683 89.8807C153.662 89.8946 153.646 89.9156 153.639 89.94C153.632 89.9643 153.633 89.9905 153.644 90.0138C153.654 90.0371 153.672 90.056 153.695 90.0671C153.718 90.0783 153.744 90.081 153.768 90.0747Z" fill="#6C63FF"/>
<path d="M151.816 90.1649C151.837 90.1596 151.856 90.1483 151.87 90.1323C151.884 90.1164 151.894 90.0965 151.896 90.0753C151.899 90.0541 151.896 90.0325 151.886 90.0133C151.877 89.9941 151.862 89.9781 151.843 89.9675L150.704 89.314L151.805 88.4957C151.817 88.4873 151.826 88.4767 151.833 88.4646C151.841 88.4525 151.845 88.4391 151.848 88.4251C151.85 88.4112 151.849 88.397 151.845 88.3833C151.842 88.3696 151.836 88.3567 151.828 88.3454C151.819 88.3341 151.809 88.3245 151.796 88.3173C151.784 88.3101 151.771 88.3053 151.757 88.3032C151.743 88.3012 151.729 88.3019 151.715 88.3053C151.702 88.3087 151.689 88.3148 151.677 88.3233L150.445 89.2395C150.43 89.2501 150.419 89.2641 150.411 89.2803C150.404 89.2964 150.401 89.3142 150.402 89.332C150.403 89.3498 150.408 89.3671 150.417 89.3823C150.427 89.3974 150.44 89.41 150.455 89.4189L151.737 90.1539C151.761 90.1678 151.789 90.1717 151.816 90.1649Z" fill="#6C63FF"/>
<path d="M153.645 90.7841C153.656 90.7815 153.665 90.7773 153.675 90.7716C153.687 90.7643 153.697 90.7547 153.706 90.7433C153.714 90.7319 153.72 90.719 153.723 90.7052C153.727 90.6915 153.727 90.6773 153.725 90.6633C153.723 90.6494 153.718 90.636 153.711 90.6239L151.959 87.742C151.944 87.7177 151.92 87.7003 151.892 87.6936C151.865 87.6869 151.836 87.6914 151.811 87.7063C151.787 87.7211 151.77 87.7449 151.763 87.7726C151.756 87.8003 151.761 87.8295 151.775 87.8539L153.527 90.7358C153.539 90.7554 153.557 90.7707 153.578 90.7794C153.599 90.7881 153.623 90.7897 153.645 90.7841Z" fill="#6C63FF"/>
<path d="M55.1662 56.0617H45.6746C45.2873 56.0617 44.9734 56.3758 44.9734 56.7633V57.6913C44.9734 58.0787 45.2873 58.3929 45.6746 58.3929H55.1662C55.5535 58.3929 55.8674 58.0787 55.8674 57.6913V56.7633C55.8674 56.3758 55.5535 56.0617 55.1662 56.0617Z" fill="#6C63FF"/>
<path d="M60.6989 60.724H40.1419C39.7547 60.724 39.4408 61.0381 39.4408 61.4256V62.3536C39.4408 62.741 39.7547 63.0552 40.1419 63.0552H60.6989C61.0861 63.0552 61.4 62.741 61.4 62.3536V61.4256C61.4 61.0381 61.0861 60.724 60.6989 60.724Z" fill="#E6E6E6"/>
<path d="M60.6989 65.3863H40.1419C39.7547 65.3863 39.4408 65.7004 39.4408 66.0879V67.0159C39.4408 67.4033 39.7547 67.7174 40.1419 67.7174H60.6989C61.0861 67.7174 61.4 67.4033 61.4 67.0159V66.0879C61.4 65.7004 61.0861 65.3863 60.6989 65.3863Z" fill="#E6E6E6"/>
<path d="M62.4415 80.9985L62.488 81.1456L62.4905 81.1506L63.892 85.4145L65.5043 90.3282L68.5377 99.5622L68.5671 100.997V101.001L68.7925 112.54L68.1677 114.105L68.8709 116.669C68.8709 116.669 68.5475 112.793 66.8127 115.019C65.8301 116.284 64.681 117.579 63.7376 118.792C65.1122 119.349 66.5089 119.853 67.9276 120.303C68.2338 120.401 68.5426 120.494 68.8513 120.587C68.9174 120.607 68.9836 120.627 69.0498 120.646C73.7525 122.038 78.6143 122.82 83.516 122.973C83.7708 122.98 84.0207 122.985 84.2633 122.99C84.3491 122.993 84.4324 122.995 84.5157 122.995C84.7901 122.998 85.0621 123 85.3365 123C85.8902 123 86.4415 122.992 86.9904 122.975C91.0527 122.861 95.0914 122.314 99.0382 121.345C99.0113 119.714 98.9378 117.809 98.8324 115.774C98.7834 114.776 97.6832 113.695 97.6171 112.65C97.5705 111.866 98.558 111.128 98.5065 110.331C98.1733 105.424 97.7567 107.308 97.448 103.833C97.4162 103.493 97.3867 103.167 97.3598 102.855C97.1613 100.624 97.0241 99.2287 97.0241 99.2287L98.3424 90.9142L100.413 77.8601L100.254 77.5977L100.075 77.5094L89.154 72.1004L88.561 70.5802C88.3882 70.1423 88.0885 69.766 87.7003 69.4999C87.3121 69.2338 86.8533 69.09 86.3827 69.087L79.1888 69.0576C78.8155 69.0559 78.4471 69.1433 78.1143 69.3126C77.7815 69.4819 77.4939 69.7282 77.2752 70.031L75.3273 72.7306L62.4415 80.9985Z" fill="#3F3D56"/>
<path d="M70.1965 97.5074L68.5671 100.997L67.4547 103.38L65.541 113.406L64.583 114.423L63.7622 110.821L55.1711 112.73C54.8893 111.163 55.0957 112.783 54.9217 111.064C54.9707 111.015 55.0221 110.966 55.0736 110.917C55.2108 110.79 55.326 110.669 55.3235 110.554C55.2255 104.625 55.5196 94.5357 57.9747 88.423C58.3592 87.425 58.8662 86.4786 59.484 85.6057C59.533 85.5395 59.5796 85.4733 59.6262 85.4071C60.7582 83.8207 61.4736 82.2588 62.488 81.1481V81.1456C62.4943 81.1405 62.5001 81.1348 62.5052 81.1285C62.5089 81.1266 62.5122 81.1241 62.515 81.1211L69.4834 77.4236L69.7824 85.8288L69.9956 91.8704L70.1965 97.5074Z" fill="#3F3D56"/>
<path d="M95.3235 98.4985L97.3588 102.856L98.0692 104.374L99.9823 114.399L100.937 115.414L101.76 111.813L102.147 111.733L109.118 110.289L111.15 116.747C111.608 115.983 111.789 115.085 111.661 114.203C111.533 113.322 111.106 112.511 110.45 111.909C110.311 111.784 110.195 111.661 110.199 111.546C110.314 104.572 109.888 91.8393 106.039 86.5986C104.816 84.9355 104.083 83.279 103.015 82.1217C103.012 82.1184 103.012 82.1151 103.009 82.1151L100.412 77.8598L100.253 77.5985L100.075 77.5093L95.3235 98.4985Z" fill="#3F3D56"/>
<path d="M82.9936 67.0088C88.2793 67.0088 92.5642 62.721 92.5642 57.4316C92.5642 52.1422 88.2793 47.8543 82.9936 47.8543C77.7079 47.8543 73.423 52.1422 73.423 57.4316C73.423 62.721 77.7079 67.0088 82.9936 67.0088Z" fill="#FFB6B6"/>
<path d="M95.9294 50.7419C95.8552 50.6626 95.7658 50.599 95.6665 50.5551C95.5672 50.5111 95.4601 50.4877 95.3516 50.4861L95.4955 50.0863C95.5425 49.9604 95.5551 49.8242 95.5322 49.6918C95.5093 49.5593 95.4516 49.4354 95.3651 49.3326C95.2785 49.2298 95.1662 49.1519 95.0397 49.1068C94.9132 49.0617 94.7769 49.0511 94.6449 49.0761L94.1209 49.1771L94.1703 48.8268C94.1892 48.6963 94.1739 48.5631 94.1258 48.4404C94.0777 48.3176 93.9985 48.2095 93.896 48.1266C93.7935 48.0438 93.6712 47.9891 93.5412 47.9679C93.4111 47.9467 93.2778 47.9597 93.1543 48.0057C93.042 48.05 92.9212 48.0685 92.8007 48.0599C92.6803 48.0514 92.5633 48.016 92.4584 47.9563C92.353 47.8984 92.2615 47.8182 92.1903 47.7214C92.119 47.6245 92.0698 47.5132 92.046 47.3953L91.8634 46.514L91.8441 46.4667C90.9549 44.9837 89.2452 43.9047 87.1531 43.5092C85.2909 43.1545 83.3814 43.3351 81.5407 43.5049C80.8104 43.5737 79.9856 43.6511 79.2983 44.0723C78.7141 44.4334 78.2201 45.1556 78.321 45.8843C76.506 45.3276 74.5601 46.4388 73.5957 47.8402C72.453 49.5081 72.2661 51.5973 72.236 53.2309C72.1544 57.0954 72.9513 60.2572 74.5987 62.6301C74.719 62.802 74.7491 63.161 74.9875 63.2814L74.9381 63.2018C75.2044 63.3351 75.475 63.55 75.3741 63.78C75.0841 64.442 77.0108 65.9058 78.3683 66.3894C80.8448 67.2728 84.1375 67.1975 86.4529 66.8794L86.5345 66.3313C87.37 66.2174 87.9586 66.0003 88.1239 65.6607C88.4161 65.4114 88.6652 65.1879 88.8822 64.9815L88.8843 64.9794C88.8886 64.9751 88.8972 64.9686 88.9015 64.9643C89.9475 63.9606 90.1902 63.3888 90.2998 62.5183C90.405 61.665 90.2181 60.7988 90.027 60.0186C94.0521 60.6419 88.4418 55.7284 92.192 54.7784C92.2351 54.7651 92.2788 54.7544 92.3231 54.7462C92.4326 54.7204 92.5421 54.6946 92.6474 54.6645C93.1547 54.5267 93.6405 54.3191 94.0908 54.0476C95.139 53.4093 95.4848 52.5624 96.026 51.6081C96.1041 51.4722 96.1369 51.3149 96.1195 51.1591C96.1021 51.0033 96.0355 50.8572 95.9294 50.7419Z" fill="#2F2E41"/>
<path d="M116.843 99.1804C116.841 99.5565 116.837 100.083 116.82 100.734C116.818 100.825 116.815 100.917 116.813 101.012C116.785 102.209 116.757 103.213 116.712 104.328C116.71 104.406 116.708 104.481 116.704 104.558C116.644 106.114 116.549 107.926 116.386 110.796C116.083 116.096 115.555 111.524 115.024 113.383C114.998 113.476 114.97 113.586 114.945 113.714C114.864 114.182 114.729 114.639 114.541 115.075C114.259 115.243 113.97 115.404 113.684 115.565C112.87 116.019 112.043 116.455 111.209 116.87C110.741 117.102 110.271 117.33 109.798 117.549C109.723 117.583 109.65 117.618 109.577 117.65C107.157 118.77 104.663 119.722 102.113 120.5C101.615 120.651 101.119 120.797 100.616 120.932C100.092 121.078 99.568 121.216 99.0374 121.345C95.0907 122.314 91.0522 122.861 86.9899 122.976C86.4422 122.993 85.8902 123 85.3361 123C85.0611 123 84.7905 122.998 84.5156 122.996C84.4318 122.996 84.348 122.993 84.2643 122.991C84.0216 122.985 83.7702 122.98 83.5168 122.974C78.6151 122.821 73.7533 122.039 69.0508 120.646L68.851 120.588C68.5417 120.494 68.2346 120.401 67.9274 120.302C66.5098 119.853 65.113 119.35 63.7369 118.793C62.6866 118.37 61.6484 117.916 60.6225 117.431C60.6131 117.428 60.6043 117.424 60.5967 117.418C60.3819 117.319 60.165 117.216 59.9502 117.111C59.9223 117.095 59.8922 117.08 59.8621 117.065C59.061 116.674 58.2684 116.264 57.4844 115.836C56.825 114.321 55.8971 114.03 55.3215 112.698C55.154 112.302 55.0329 111.888 54.9606 111.464C54.9606 111.46 54.9585 111.455 54.9585 111.449C55.0186 112.249 54.7029 110.03 54.9563 111.44C54.9542 111.415 54.9521 111.387 54.9499 111.354C54.9435 111.277 54.9349 111.183 54.922 111.064C54.1853 103.866 54.2325 95.6339 53.9125 88.8504C53.891 88.412 53.8688 87.9921 53.8459 87.5909C53.8395 87.4576 53.8309 87.3265 53.8223 87.1976C53.8373 87.1589 53.8545 87.118 53.8738 87.0793C53.8779 87.0682 53.883 87.0574 53.8888 87.0471C53.8952 87.0338 53.9024 87.0209 53.9103 87.0084C53.9146 87.002 53.9211 86.9934 53.9254 86.9869C53.9285 86.9795 53.9321 86.9724 53.9361 86.9654C53.9554 86.9353 53.9769 86.9031 54.0005 86.873C54.0113 86.8601 54.0199 86.8493 54.0306 86.8386C54.038 86.8276 54.0467 86.8175 54.0564 86.8085C54.063 86.7982 54.0709 86.7888 54.08 86.7806C54.0886 86.772 54.0972 86.7612 54.1079 86.7505C54.1125 86.7437 54.1184 86.7379 54.1251 86.7333C54.1421 86.7138 54.1608 86.6958 54.181 86.6796C54.2576 86.609 54.3394 86.5443 54.4258 86.4861C54.4559 86.4668 54.4881 86.4474 54.5182 86.4259C54.7346 86.2964 54.9626 86.187 55.1991 86.0992C55.2807 86.0691 55.3623 86.0412 55.4504 86.0111C55.4826 86.0025 55.5127 85.9918 55.5449 85.981C55.5921 85.966 55.6394 85.9509 55.6888 85.9402C55.9336 85.8671 56.1978 85.8048 56.4835 85.7467C56.5179 85.7403 56.5544 85.7338 56.5909 85.7252C56.6424 85.7145 56.6961 85.7059 56.7498 85.6973C56.8229 85.6844 56.898 85.6715 56.9732 85.6586C57.6111 85.5576 58.335 85.4824 59.134 85.4329C59.2092 85.4286 59.2843 85.4243 59.3595 85.42C59.4476 85.4157 59.5356 85.4114 59.6259 85.4071C59.701 85.4028 59.7784 85.4007 59.8557 85.3985C59.9309 85.3942 60.0082 85.3921 60.0876 85.3899C60.3046 85.3835 60.528 85.377 60.7556 85.3727C61.4043 85.3598 62.0873 85.3642 62.8047 85.3792C63.1377 85.3878 63.477 85.3964 63.825 85.4114C63.8486 85.4114 63.8701 85.4136 63.8916 85.4136C64.1944 85.4243 64.4994 85.4372 64.813 85.4544C65.0321 85.4652 65.2533 85.4759 65.4745 85.4888C65.6829 85.5017 65.8934 85.5146 66.106 85.5297C66.2714 85.5383 66.4368 85.5511 66.6043 85.5619C66.7461 85.5726 66.8879 85.5834 67.0296 85.592L67.2229 85.6049C67.3282 85.6135 67.4334 85.6199 67.5408 85.6307C67.7771 85.65 68.0133 85.6694 68.2539 85.6887C68.4923 85.7102 68.735 85.7317 68.9777 85.7532C69.2205 85.7747 69.4653 85.7983 69.7102 85.822C69.7359 85.8241 69.7596 85.8263 69.7832 85.8284C70.0066 85.8521 70.23 85.8736 70.4555 85.8972C70.507 85.9015 70.5607 85.9058 70.6123 85.9122C70.8273 85.9339 71.0465 85.9592 71.2635 85.9822C71.3301 85.9894 71.3964 85.9964 71.4632 86.0037C71.6331 86.0222 71.8007 86.0383 71.9719 86.0584C72.1974 86.0842 72.4272 86.1078 72.6506 86.1379C72.8246 86.1573 72.9986 86.1766 73.1725 86.1981C73.4453 86.2304 73.7224 86.2647 73.9995 86.3013C74.1047 86.3142 74.21 86.3271 74.3152 86.3421C75.1056 86.441 75.9047 86.5506 76.7166 86.6645C77.9473 86.8386 79.1974 87.0278 80.456 87.232C81.7168 87.4362 82.9848 87.6518 84.2599 87.8789C84.5821 87.937 84.9043 87.995 85.2286 88.0552C85.3747 88.0831 85.5207 88.111 85.6668 88.139C85.916 88.1841 86.1651 88.2314 86.4143 88.2787C86.6634 88.326 86.9126 88.3733 87.1617 88.4227C87.4581 88.4807 87.7567 88.5388 88.0531 88.5968C90.0055 88.9837 91.9472 89.3964 93.8417 89.8284C94.1531 89.8993 94.4646 89.9724 94.7738 90.0433C95.3924 90.1874 96.0053 90.3335 96.6124 90.4818C96.78 90.5205 96.9454 90.5613 97.1107 90.6022C97.5231 90.7054 97.9355 90.8085 98.3415 90.9138L98.4124 90.9332C98.7109 91.0063 99.003 91.0815 99.2951 91.1589C99.9846 91.3394 100.663 91.5221 101.329 91.707C101.772 91.8295 102.209 91.9534 102.642 92.0788C103.288 92.2658 103.922 92.4549 104.538 92.6462C104.691 92.6935 104.843 92.7408 104.993 92.7859C105.445 92.9257 105.889 93.0675 106.321 93.2094C106.665 93.3211 107 93.4351 107.33 93.549C107.661 93.6629 107.985 93.7768 108.303 93.8907C108.507 93.9638 108.709 94.0412 108.911 94.1143C109.201 94.2217 109.487 94.3292 109.766 94.4367C109.852 94.4689 109.936 94.5033 110.02 94.5355C110.073 94.5592 110.125 94.5785 110.176 94.6C110.277 94.6409 110.38 94.6796 110.479 94.7204C110.58 94.7591 110.679 94.7999 110.778 94.8429C110.874 94.8816 110.973 94.9224 111.068 94.9633C111.164 95.002 111.259 95.0428 111.353 95.0858C111.433 95.118 111.51 95.1524 111.585 95.1868C111.738 95.2534 111.89 95.3201 112.039 95.3889C112.112 95.4232 112.185 95.4555 112.258 95.4899L112.425 95.5672C112.449 95.5801 112.472 95.5909 112.496 95.6016C112.55 95.6274 112.606 95.6554 112.659 95.6812C112.784 95.7392 112.906 95.8015 113.027 95.8596C113.188 95.9412 113.344 96.0229 113.495 96.1025C113.647 96.1841 113.796 96.2658 113.937 96.3453C113.961 96.3582 113.982 96.3711 114.006 96.384C114.038 96.4012 114.07 96.4206 114.103 96.4378C114.212 96.5001 114.317 96.5646 114.423 96.6269C114.629 96.7537 114.824 96.8784 115.007 97.003C115.048 97.031 115.086 97.0589 115.127 97.0847C115.263 97.1814 115.391 97.276 115.512 97.3727C115.512 97.3749 115.512 97.3749 115.514 97.3749C115.555 97.405 115.593 97.4372 115.632 97.4673C115.664 97.4974 115.699 97.5232 115.731 97.5533C115.842 97.65 115.946 97.7424 116.04 97.837C116.072 97.8662 116.102 97.897 116.13 97.9294C116.143 97.9398 116.154 97.9513 116.165 97.9638C116.208 98.0068 116.246 98.0498 116.283 98.0928C116.288 98.0987 116.293 98.1052 116.298 98.1121C116.349 98.1723 116.397 98.2325 116.442 98.2927C116.463 98.3228 116.487 98.3528 116.506 98.3829C116.532 98.4195 116.558 98.4582 116.579 98.4947C116.599 98.5248 116.616 98.557 116.633 98.5871C116.678 98.6646 116.717 98.7459 116.749 98.83C116.773 98.8871 116.792 98.946 116.807 99.0062C116.823 99.0633 116.835 99.1215 116.843 99.1804Z" fill="#2F2E41"/>
<path opacity="0.2" d="M116.843 99.1804C116.841 99.5565 116.837 100.083 116.82 100.734C116.818 100.825 116.813 100.917 116.811 101.012C116.79 101.925 116.757 103.054 116.712 104.328C116.71 104.406 116.708 104.481 116.704 104.558C116.644 106.114 116.549 107.926 116.386 110.796C116.083 116.096 115.555 111.524 115.024 113.383C113.551 112.476 111.935 111.526 110.209 110.551C109.897 110.374 109.583 110.197 109.266 110.02C105.812 108.092 101.954 106.071 97.9269 104.07C97.768 103.991 97.6069 103.911 97.4479 103.834C88.2228 99.2706 78.1535 94.8322 69.9958 91.8703C68.4214 91.2986 66.9179 90.7827 65.5046 90.3292C62.5276 89.377 59.9544 88.7107 57.9741 88.4227C55.9121 88.1218 54.4881 88.2293 53.9124 88.8504C53.8909 88.412 53.8687 87.9921 53.8458 87.5909C53.8372 87.4576 53.8287 87.3265 53.8201 87.1976C53.8333 87.1622 53.8505 87.1284 53.8672 87.0943C53.8696 87.0894 53.8713 87.0842 53.8738 87.0793C53.8779 87.0682 53.8829 87.0574 53.8888 87.0471C53.8951 87.0338 53.9023 87.0208 53.9103 87.0084C53.9173 86.9932 53.9259 86.9788 53.9361 86.9654C53.9554 86.9353 53.9769 86.9031 54.0005 86.873C54.0179 86.8505 54.0365 86.8289 54.0563 86.8085C54.0629 86.7982 54.0709 86.7888 54.08 86.7806C54.0886 86.772 54.0971 86.7612 54.1079 86.7505C54.1125 86.7437 54.1183 86.7379 54.1251 86.7333C54.1421 86.7138 54.1607 86.6958 54.1809 86.6796C54.2576 86.609 54.3394 86.5443 54.4258 86.4861C54.4558 86.4668 54.4881 86.4474 54.5181 86.4259C54.7346 86.2963 54.9625 86.187 55.199 86.0992C55.2806 86.0691 55.3623 86.0412 55.4503 86.0111C55.4825 86.0025 55.5126 85.9918 55.5448 85.981C55.5921 85.966 55.6393 85.9509 55.6887 85.9402C55.9336 85.8671 56.1978 85.8048 56.4834 85.7467C56.5694 85.7295 56.6596 85.7123 56.7498 85.6973C56.8228 85.6844 56.898 85.6715 56.9732 85.6586C57.6111 85.5576 58.3349 85.4823 59.1339 85.4329C59.2091 85.4286 59.2843 85.4243 59.3595 85.42C59.4475 85.4157 59.5356 85.4114 59.6258 85.4071C59.701 85.4028 59.7783 85.4007 59.8556 85.3985C59.9308 85.3942 60.0081 85.3921 60.0876 85.3899C60.3045 85.3835 60.5279 85.377 60.7556 85.3727C61.4043 85.362 62.0873 85.3663 62.8047 85.3813C63.1376 85.3878 63.477 85.3985 63.8249 85.4136C63.8464 85.4136 63.87 85.4157 63.8915 85.4157C64.1944 85.4243 64.5015 85.4394 64.813 85.4544C65.032 85.4652 65.2533 85.4759 65.4745 85.4888C65.6828 85.5017 65.8933 85.5146 66.106 85.5296C66.2714 85.5382 66.4367 85.5511 66.6043 85.5619C66.746 85.5726 66.8878 85.5834 67.0296 85.592C67.1992 85.6049 67.3689 85.6178 67.5408 85.6307C67.777 85.65 68.0133 85.6693 68.2539 85.6887C68.4923 85.7102 68.735 85.7317 68.9777 85.7532C69.2204 85.7747 69.4653 85.7983 69.7101 85.8219C69.7359 85.8241 69.7595 85.8262 69.7832 85.8284C70.0065 85.8521 70.2299 85.8735 70.4554 85.8972C71.7055 86.024 72.9921 86.1723 74.3152 86.3421C75.1056 86.4431 75.9061 86.5513 76.7165 86.6667C77.9473 86.8407 79.1973 87.0299 80.456 87.2319C81.7168 87.4361 82.9848 87.6518 84.2599 87.8789C84.5821 87.9369 84.9043 87.995 85.2286 88.0552C85.6238 88.1282 86.019 88.2027 86.4142 88.2787C86.6634 88.326 86.9125 88.3733 87.1617 88.4227C87.4581 88.4807 87.7567 88.5388 88.0531 88.5968C90.0055 88.9837 91.9472 89.3964 93.8416 89.8284C94.1531 89.8993 94.4645 89.9724 94.7738 90.0433C95.3924 90.1873 96.0053 90.3335 96.6124 90.4818C96.7799 90.5226 96.9453 90.5635 97.1107 90.6043C97.5253 90.7075 97.9355 90.8107 98.3414 90.9138V90.916C98.3651 90.9203 98.3887 90.9267 98.4123 90.9332C98.7087 91.0084 99.003 91.0836 99.2951 91.161C99.9846 91.3416 100.663 91.5235 101.329 91.707C101.772 91.8316 102.21 91.9541 102.642 92.0788C103.288 92.2679 103.922 92.4571 104.538 92.6462C104.691 92.6935 104.843 92.7408 104.993 92.7859C105.445 92.9278 105.887 93.0689 106.321 93.2094C106.665 93.3211 107 93.4351 107.33 93.549C107.661 93.6629 107.985 93.7768 108.303 93.8907C108.51 93.9638 108.711 94.039 108.911 94.1121C109.203 94.2196 109.487 94.3271 109.766 94.4367C109.852 94.4689 109.936 94.5033 110.02 94.5355C110.176 94.5957 110.329 94.6581 110.479 94.7204C110.58 94.7591 110.679 94.7999 110.778 94.8429C110.874 94.8816 110.973 94.9224 111.068 94.9633C111.164 95.002 111.259 95.0428 111.353 95.0858C111.433 95.118 111.51 95.1524 111.585 95.1868C111.738 95.2534 111.89 95.3201 112.039 95.3888C112.112 95.4232 112.185 95.4555 112.258 95.4899L112.425 95.5672C112.449 95.5801 112.472 95.5909 112.496 95.6016C112.679 95.6876 112.855 95.7736 113.027 95.8596C113.188 95.9412 113.344 96.0229 113.495 96.1024C113.673 96.197 113.843 96.2894 114.006 96.384C114.038 96.4012 114.07 96.4205 114.103 96.4377C114.212 96.5001 114.317 96.5646 114.423 96.6269C114.629 96.7537 114.824 96.8784 115.007 97.003C115.187 97.1277 115.355 97.2502 115.512 97.3727C115.512 97.3749 115.512 97.3749 115.514 97.3749C115.589 97.435 115.662 97.4952 115.731 97.5533C115.842 97.65 115.946 97.7424 116.04 97.837C116.072 97.8662 116.102 97.897 116.13 97.9294C116.143 97.9398 116.154 97.9513 116.165 97.9638C116.21 98.0132 116.255 98.0627 116.298 98.1121C116.349 98.1723 116.397 98.2325 116.442 98.2926C116.463 98.3227 116.487 98.3528 116.506 98.3829C116.532 98.4195 116.558 98.4581 116.579 98.4947C116.598 98.5248 116.616 98.557 116.633 98.5871C116.678 98.6646 116.717 98.7458 116.749 98.83C116.772 98.8873 116.792 98.9462 116.807 99.0062C116.823 99.0633 116.835 99.1215 116.843 99.1804Z" fill="black"/>
</g>
<defs>
<clipPath id="clip0_0_386">
<rect width="169" height="123" fill="white"/>
</clipPath>
</defs>
</svg>
