<svg width="188" height="125" viewBox="0 0 188 125" fill="none" xmlns="http://www.w3.org/2000/svg">
<g clip-path="url(#clip0_0_165)">
<path d="M115.544 41.7126C120.027 41.7126 123.661 38.0759 123.661 33.5898C123.661 29.1037 120.027 25.4671 115.544 25.4671C111.06 25.4671 107.426 29.1037 107.426 33.5898C107.426 38.0759 111.06 41.7126 115.544 41.7126Z" fill="#F2F2F2"/>
<path d="M67.2878 25.4671C71.0239 25.4671 74.0526 22.4365 74.0526 18.6981C74.0526 14.9597 71.0239 11.9292 67.2878 11.9292C63.5517 11.9292 60.5229 14.9597 60.5229 18.6981C60.5229 22.4365 63.5517 25.4671 67.2878 25.4671Z" fill="#F2F2F2"/>
<path d="M45.1894 89.5465C48.9255 89.5465 51.9542 86.5159 51.9542 82.7776C51.9542 79.0392 48.9255 76.0086 45.1894 76.0086C41.4533 76.0086 38.4246 79.0392 38.4246 82.7776C38.4246 86.5159 41.4533 89.5465 45.1894 89.5465Z" fill="#F2F2F2"/>
<path d="M38.3135 93.1566C40.273 95.4806 42.3927 112.235 44.6544 114.261L150.768 114.487C153.029 112.461 155.149 95.7063 157.108 93.3822L38.3135 93.1566Z" fill="#E6E6E6"/>
<path d="M71.3914 73.476V96.6168H87.5931V73.476C87.5937 73.1344 87.3714 72.8323 87.0452 72.7315C86.9703 72.7067 86.8918 72.6945 86.8129 72.6954H72.1738C71.7425 72.6945 71.3922 73.0437 71.3914 73.4753L71.3914 73.476ZM77.7142 81.4273C77.723 80.4715 78.5045 79.7039 79.4597 79.7127C80.4025 79.7214 81.1646 80.484 81.1733 81.4273V84.1123C81.1688 85.0681 80.3907 85.8393 79.4355 85.8347C78.4868 85.8302 77.7187 85.0617 77.7142 84.1123V81.4273Z" fill="#3F3D56"/>
<path d="M45.9037 38.6114V80.8632C45.9046 81.9843 46.8127 82.893 47.9331 82.8939H110.508C111.628 82.893 112.536 81.9843 112.537 80.8632V38.6114C112.535 37.4914 111.627 36.5844 110.508 36.583H47.9331C46.8138 36.5844 45.9064 37.4914 45.9037 38.6114Z" fill="#3F3D56"/>
<path d="M47.3716 39.1371V80.342C47.3726 80.9409 47.8576 81.4262 48.4562 81.4273H109.987C110.585 81.4262 111.07 80.9409 111.072 80.342V39.1371C111.071 38.5374 110.586 38.0509 109.987 38.0496H48.4562C47.8568 38.0509 47.3716 38.5374 47.3716 39.1371Z" fill="#6C63FF"/>
<path d="M59.9182 99.0717C60.0451 99.2309 60.2378 99.3231 60.4413 99.3221H97.0481C97.4201 99.3216 97.7213 99.0195 97.7209 98.6473C97.7208 98.6011 97.716 98.555 97.7066 98.5098L97.1383 95.809C97.0904 95.5853 96.9326 95.401 96.7189 95.3194C96.6427 95.2895 96.5616 95.2742 96.4799 95.2743H61.0073C60.9255 95.2742 60.8444 95.2895 60.7683 95.3194C60.5546 95.401 60.3967 95.5853 60.3489 95.809L59.7806 98.5098C59.7397 98.7083 59.7902 98.9146 59.9182 99.0717Z" fill="#3F3D56"/>
<path d="M50.4346 43.7257H108.009C108.135 43.723 108.235 43.6182 108.233 43.4917C108.23 43.369 108.131 43.2702 108.009 43.2675H50.4346C50.3082 43.2703 50.2079 43.3751 50.2106 43.5016C50.2133 43.6243 50.312 43.7231 50.4346 43.7257Z" fill="#3F3D56"/>
<path d="M179.481 88.4919C179.476 88.4807 179.474 88.4716 179.469 88.4626C179.382 88.2279 179.281 87.9988 179.165 87.7767C178.509 86.5425 179.203 84.6472 178.464 82.5533C177.269 79.1598 175.812 77.1585 173.677 75.3647C173.613 75.3106 173.55 75.2587 173.485 75.2045L173.483 75.2023C172.057 74.0312 170.339 72.9369 168.206 71.5741C167.762 71.2898 166.226 72.1111 166.262 70.7032C166.303 69.1395 166.346 67.5195 165.579 66.5087L165.529 66.4432L165.45 66.4229C162.822 65.9027 160.141 65.6959 157.463 65.807H157.461C156.324 65.8492 155.196 66.0149 154.095 66.3011C154.013 66.3236 153.932 66.3462 153.853 66.3733C153.792 66.3891 153.732 66.4094 153.671 66.4297L153.621 66.4477L153.583 66.4838C152.841 67.2262 152.669 68.5574 152.588 69.945V69.9473C152.573 70.2 152.559 70.4527 152.548 70.7054C152.485 72.0547 149.231 73.1445 147.99 73.7559C145.661 74.9067 146.012 77.588 145.985 77.588C145.985 77.588 142.069 85.6332 142.022 93.7808C142.019 94.2343 142.016 94.6901 142.013 95.1481C141.986 98.9432 141.913 102.804 141.629 106.321C141.505 107.833 141.345 109.279 141.131 110.631C140.089 117.213 135.37 111.748 133.112 116.127C133.186 116.558 133.311 116.978 133.484 117.38C133.744 117.533 134.01 117.682 134.274 117.831C135.444 118.483 136.636 119.091 137.85 119.656C137.918 119.688 137.985 119.719 138.053 119.749C140.279 120.78 142.574 121.656 144.921 122.371C145.379 122.51 145.837 122.644 146.299 122.77C150.388 123.899 154.599 124.53 158.839 124.649C158.856 124.648 158.874 124.647 158.891 124.647C163.906 124.508 168.888 123.79 173.737 122.506C173.805 122.488 173.873 122.47 173.94 122.452C174.258 122.366 174.574 122.28 174.89 122.19C177.681 121.395 180.415 120.414 183.075 119.252C183.078 119.351 183.088 119.45 183.104 119.548C183.107 119.58 183.111 119.611 183.118 119.643C183.122 119.607 183.127 119.57 183.129 119.534C183.143 119.428 183.154 119.32 183.165 119.212C184.545 105.746 181.679 94.3133 179.481 88.4919Z" fill="#CCCCCC"/>
<path d="M159.519 64.6376C166.751 64.6376 172.614 58.7713 172.614 51.535C172.614 44.2986 166.751 38.4324 159.519 38.4324C152.287 38.4324 146.424 44.2986 146.424 51.535C146.424 58.7713 152.287 64.6376 159.519 64.6376Z" fill="#FFB6B6"/>
<path d="M160.488 64.8735C162.485 64.5166 164.447 63.9897 166.354 63.2986C168.226 62.5219 171.965 58.4741 172.806 56.3129C173.431 54.7071 173.574 52.3619 173.583 50.6774C173.626 46.1664 171.754 41.8491 168.434 38.7974C167.791 38.1576 166.988 37.7035 166.108 37.4831C166.031 37.4691 165.953 37.4587 165.875 37.452C164.64 37.3717 163.458 36.924 162.479 36.1665C162.288 36.012 162.086 35.8714 161.875 35.746C160.821 35.1583 159.644 34.8284 158.438 34.7834C156.48 34.6478 153.884 35.6674 150.72 37.8152C149.131 38.8944 147.183 38.9956 145.663 38.9634C145.491 38.9636 145.331 39.0556 145.244 39.205C144.737 39.9088 143.983 40.3944 143.132 40.5644C142.616 40.6889 142.209 41.5177 141.732 42.5884C141.623 42.8314 141.497 43.115 141.4 43.2914L141.326 43.0031L141.095 43.3858C139.904 45.3546 140.533 47.9168 142.501 49.1087C143.029 49.429 143.623 49.6276 144.238 49.6899C144.789 49.7273 145.343 49.7082 145.891 49.6331C146.225 49.5986 146.57 49.563 146.906 49.5561C149.115 49.5773 151.15 50.7579 152.265 52.6652C152.729 53.445 153.737 53.7011 154.516 53.2372C154.638 53.1643 154.751 53.0758 154.85 52.9739C155.434 52.304 156.308 51.9622 157.191 52.0588C157.584 52.1869 157.92 52.4463 158.145 52.7934C158.41 53.1771 158.784 53.473 159.218 53.6435C160.671 54.0675 161.35 57.0689 161.366 59.6782C161.381 62.1933 160.818 64.1245 159.998 64.3744C159.367 64.5667 159.302 64.6269 159.278 64.75L159.256 64.8603L159.347 64.9416C159.728 65.0014 160.117 64.9781 160.488 64.8735Z" fill="#2F2E41"/>
<path d="M114.143 105.383C116.65 105.383 118.683 104.734 118.683 103.933C118.683 103.132 116.65 102.483 114.143 102.483C111.636 102.483 109.604 103.132 109.604 103.933C109.604 104.734 111.636 105.383 114.143 105.383Z" fill="#3F3D56"/>
<path d="M114.143 104.416C116.65 104.416 118.683 103.767 118.683 102.966C118.683 102.166 116.65 101.517 114.143 101.517C111.636 101.517 109.604 102.166 109.604 102.966C109.604 103.767 111.636 104.416 114.143 104.416Z" fill="#3F3D56"/>
<path d="M113.345 103.938L114.022 103.928L113.835 91.2883C113.78 87.0913 115.958 83.1814 119.556 81.022L132.467 73.2996L132.12 72.7185L119.208 80.4412C115.404 82.7248 113.1 86.8598 113.158 91.2984L113.345 103.938Z" fill="#3F3D56"/>
<path d="M132.132 78.9976C131.225 78.9976 130.49 78.262 130.49 77.3545V67.1098C130.49 66.2024 131.225 65.4667 132.132 65.4667C133.039 65.4667 133.774 66.2024 133.774 67.1098V77.3545C133.774 78.262 133.039 78.9976 132.132 78.9976Z" fill="#6C63FF"/>
<path d="M110.658 86.7673C111.227 88.8497 113.376 90.0763 115.457 89.507C115.679 89.4463 115.895 89.3661 116.103 89.2674L125.84 99.1679L127.347 92.1087L117.869 83.7892C116.811 81.8945 114.418 81.2168 112.524 82.2756C110.94 83.1615 110.168 85.0185 110.658 86.7673Z" fill="#FFB6B6"/>
<path d="M161.522 76.4294L161.46 76.3949L154.36 73.9518C152.537 73.3243 150.532 73.5106 148.855 74.4634C148.47 74.6812 148.108 74.9373 147.775 75.2277L147.772 75.228C146.66 76.1898 145.893 77.49 145.59 78.9295L141.861 96.6455L134.363 92.6022L131.307 91.8721L128.526 89.0793L121.58 86.2495L121.195 86.71L117.7 90.8897L117.426 91.2182L125.121 102.358L128.57 102.733L129.536 104.453L129.604 104.485L132.432 105.76L144.492 111.196L150.332 106.724L151.246 106.022C158.801 99.0181 162.333 93.3837 163.808 89.0923C164.588 86.8255 164.794 84.9366 164.716 83.4138C164.476 78.7077 161.642 76.5195 161.522 76.4294Z" fill="#CCCCCC"/>
<path d="M168.197 80.7468H164.814C155.038 80.7468 147.113 88.6768 147.113 98.4589C143.958 102.363 144.151 107.266 147.113 112.994L137.418 108.95C136.037 108.377 134.454 109.033 133.882 110.415C133.312 111.792 133.961 113.371 135.335 113.948L147.113 118.861V119.776C147.113 122.645 149.437 124.971 152.305 124.971H180.706C183.574 124.971 185.898 122.645 185.898 119.776C188.004 112.046 189.321 104.55 185.898 98.4589C185.898 88.6768 177.973 80.7468 168.197 80.7468Z" fill="#3F3D56"/>
<path d="M17.74 91.9654C17.5208 91.9663 17.3021 91.9869 17.0866 92.027L13.5009 69.3136L17.0932 47.4475C17.5863 44.4463 15.5545 41.6132 12.5551 41.1198C9.84826 40.6745 7.22695 42.2916 6.40879 44.9115C5.06215 49.2233 4.39576 53.7188 4.43366 58.236L4.55894 73.1482L14.1182 96.0503C14.3577 98.0523 16.1739 99.481 18.1747 99.2414C20.1756 99.0017 21.6034 97.1844 21.3639 95.1824C21.1443 93.3466 19.5878 91.9648 17.74 91.9654Z" fill="#FFB8B8"/>
<path d="M11.173 39.6682C6.39524 39.6762 2.52415 43.5497 2.51624 48.3304L4.27509 66.1101L4.43294 67.703L4.51412 67.7076L10.6904 68.0145H10.6927L13.6895 68.1633L14.2036 68.1882L14.7922 66.1101L19.8297 48.3304C19.8246 43.5486 15.9518 39.6734 11.173 39.6682Z" fill="#E6E6E6"/>
<path d="M11.4391 125L8.59783 116.277C8.59783 116.277 3.38891 110.977 10.0703 96.9066C10.2169 96.5953 10.3702 96.2815 10.5303 95.9611C10.8099 95.3993 11.1091 94.8231 11.4278 94.2328C11.9103 93.3754 12.3997 92.4887 12.9521 91.5726L13.4572 91.6629L13.9353 91.7464L15.5701 92.0353H15.5724L39.247 96.2095C39.247 96.2095 38.8118 98.1542 38.5773 100.241C38.3902 101.954 38.3293 103.687 38.7712 104.42C39.7273 106.058 38.4353 110.485 38.4353 110.485C38.4353 110.485 38.5074 110.914 38.6292 111.672V111.674C38.7487 112.412 38.9156 113.459 39.105 114.727C39.114 114.813 39.1253 114.898 39.1388 114.984C39.4387 117.037 39.7972 119.63 40.1174 122.416C40.2167 123.263 40.3114 124.127 40.4016 125L11.4391 125Z" fill="#2F2E41"/>
<path d="M4.69103 44.2674C5.28554 42.6268 6.6745 41.4023 8.37594 41.0189C9.61695 40.6659 10.9086 40.5246 12.1965 40.6011C15.9668 40.7497 15.0161 32.2979 18.7495 32.8452C18.7495 32.8452 22.2633 31.5904 25.0127 33.8897C27.5104 35.9785 29.2322 41.6595 29.8732 41.3363C30.0094 41.269 30.3365 41.2761 30.7943 41.3369C36.1438 42.0473 39.9934 46.8491 39.6755 52.2394L39.4037 56.8473C39.4037 56.8473 41.3244 59.7406 38.5373 64.8483L35.0258 80.5505C35.0258 80.5505 43.8113 97.9621 39.7612 101.534C35.711 105.107 19.8311 99.5365 19.8311 99.5365C19.8311 99.5365 10.9259 96.7819 9.04783 95.5881C5.08065 93.0663 10.1511 87.3162 13.286 87.5872C13.4546 86.9183 13.2326 86.2114 12.7119 85.7594C11.8454 85.2057 12.8162 83.9523 12.8893 83.8374C12.8058 83.9209 12.1481 84.6103 11.6471 83.1585C11.146 81.7066 12.691 79.8787 12.691 79.8787L8.32757 70.4781L4.89324 63.0516L4.47566 62.1951L5.19202 57.5743L5.12499 57.4356C3.59853 54.2512 3.2607 50.6255 4.17255 47.2136C4.50333 45.9589 4.74143 44.8156 4.69103 44.2674Z" fill="#E6E6E6"/>
<path d="M40.4016 125H38.8953C39.3124 124.104 39.7251 123.235 40.1175 122.416C40.2167 123.263 40.3114 124.127 40.4016 125Z" fill="#2F2E41"/>
<path d="M69.9688 72.44C69.8353 72.614 69.7177 72.7996 69.6175 72.9946L49.4741 61.9257L34.3948 45.6966C32.325 43.469 28.8424 43.3421 26.6162 45.4132C24.6073 47.2821 24.2804 50.3458 25.8496 52.597C28.4322 56.3022 31.5766 59.5817 35.1694 62.3173L47.0297 71.3479L70.9793 77.8063C72.7079 78.8425 74.9488 78.2803 75.9844 76.5506C77.02 74.8209 76.4582 72.5787 74.7295 71.5424C73.1444 70.5922 71.0996 70.9777 69.9688 72.44Z" fill="#FFB8B8"/>
<path d="M42.7029 68.0526L48.6826 61.0732L49.0157 60.6829L36.7674 44.074C36.238 43.6616 35.6613 43.3137 35.0496 43.0378L35.048 43.0362C30.6963 41.0571 25.5651 42.9826 23.5871 47.337C21.9267 50.9924 22.995 55.3104 26.168 57.7685L29.7427 60.0115L42.6494 68.114L42.7029 68.0526Z" fill="#E6E6E6"/>
<path d="M31.9706 25.2503C28.9175 30.8366 21.9166 32.8886 16.3338 29.8336C10.7509 26.7787 8.70018 19.7736 11.7533 14.1874C14.8064 8.60111 21.8072 6.5491 27.39 9.60405C29.7351 10.8873 31.5614 12.9465 32.556 15.4289C32.6087 15.5608 32.6562 15.6928 32.7037 15.83C33.8177 18.9304 33.5508 22.3598 31.9706 25.2503Z" fill="#FFB6B6"/>
<path d="M33.6266 15.83C33.1308 14.442 33.347 15.165 32.846 13.7823C33.173 15.0067 32.6561 15.6928 32.7036 15.83H18.9851V7.85041C23.0042 6.25659 26.9335 4.90028 29.3069 7.85041C33.7112 7.8506 37.2815 11.4231 37.2817 15.83L33.6266 15.83Z" fill="#2F2E41"/>
<path d="M28.7638 38.0114C28.7532 37.8636 28.7374 37.7105 28.7163 37.5628C28.532 36.4787 28.2332 35.4172 27.8249 34.3963C27.4294 33.2827 27.0285 32.1639 26.6277 31.0503C27.1439 33.0717 26.9864 35.2064 26.1794 37.13C23.8639 35.3251 25.325 31.1981 22.2975 31.1981C15.0189 31.1981 7.52942 25.2926 7.52942 18.0043C7.52942 10.7213 10.6518 5.27496 17.9303 5.27496C25.2142 5.27496 31.1214 8.61032 31.2638 15.8933C22.2975 18.0043 30.4568 37.2725 28.7638 38.0114Z" fill="#2F2E41"/>
<path d="M8.43888 16.888C13.0995 16.888 16.8778 13.1075 16.8778 8.44402C16.8778 3.78052 13.0995 0 8.43888 0C3.77822 0 0 3.78052 0 8.44402C0 13.1075 3.77822 16.888 8.43888 16.888Z" fill="#2F2E41"/>
<path d="M52.9287 41.7244C53.4914 41.7244 53.9475 41.2578 53.9475 40.6823C53.9475 40.1067 53.4914 39.6401 52.9287 39.6401C52.366 39.6401 51.9099 40.1067 51.9099 40.6823C51.9099 41.2578 52.366 41.7244 52.9287 41.7244Z" fill="#3F3D56"/>
<path d="M56.4481 41.7244C57.0108 41.7244 57.4669 41.2578 57.4669 40.6823C57.4669 40.1067 57.0108 39.6401 56.4481 39.6401C55.8855 39.6401 55.4293 40.1067 55.4293 40.6823C55.4293 41.2578 55.8855 41.7244 56.4481 41.7244Z" fill="#3F3D56"/>
<path d="M59.9677 41.7244C60.5303 41.7244 60.9865 41.2578 60.9865 40.6823C60.9865 40.1067 60.5303 39.6401 59.9677 39.6401C59.405 39.6401 58.9489 40.1067 58.9489 40.6823C58.9489 41.2578 59.405 41.7244 59.9677 41.7244Z" fill="#3F3D56"/>
<path d="M63.9808 41.5059C63.9495 41.5059 63.9182 41.4938 63.8946 41.4697L63.2072 40.7665C63.1614 40.7197 63.1614 40.6448 63.2072 40.5979L63.8946 39.8948C63.9413 39.8473 64.0177 39.8465 64.065 39.893C64.1126 39.9395 64.1134 40.0159 64.0669 40.0634L63.4619 40.6822L64.0669 41.3011C64.1134 41.3486 64.1126 41.425 64.065 41.4715C64.0416 41.4945 64.0112 41.5059 63.9808 41.5059Z" fill="#3F3D56"/>
<path d="M65.136 41.5059C65.1056 41.5059 65.0752 41.4945 65.0517 41.4716C65.0042 41.425 65.0033 41.3487 65.0499 41.3011L65.6548 40.6823L65.0499 40.0634C65.0033 40.0159 65.0042 39.9395 65.0517 39.893C65.0992 39.8464 65.1756 39.8473 65.2221 39.8949L65.9095 40.598C65.9553 40.6448 65.9553 40.7197 65.9095 40.7665L65.2221 41.4697C65.1985 41.4938 65.1673 41.5059 65.136 41.5059Z" fill="#3F3D56"/>
<path d="M103.347 39.7608H102.068C101.923 39.7608 101.805 39.8789 101.805 40.0248V41.305C101.805 41.4508 101.923 41.569 102.068 41.569H103.347C103.492 41.569 103.612 41.4508 103.612 41.305V40.0248C103.612 39.8789 103.492 39.7608 103.347 39.7608Z" fill="#3F3D56"/>
<path d="M100.214 39.7608H98.9361C98.7903 39.7608 98.6722 39.8789 98.6722 40.0248V41.305C98.6722 41.4508 98.7903 41.569 98.9361 41.569H100.214C100.36 41.569 100.479 41.4508 100.479 41.305V40.0248C100.479 39.8789 100.36 39.7608 100.214 39.7608Z" fill="#3F3D56"/>
<path d="M106.298 39.821H105.02C104.874 39.821 104.756 39.9392 104.756 40.085V41.3653C104.756 41.5111 104.874 41.6292 105.02 41.6292H106.298C106.444 41.6292 106.563 41.5111 106.563 41.3653V40.085C106.563 39.9392 106.444 39.821 106.298 39.821Z" fill="#3F3D56"/>
<path d="M85.0614 40.3081H73.8032C73.6249 40.3081 73.4816 40.4527 73.4816 40.6299C73.4816 40.8072 73.6249 40.9518 73.8032 40.9518H85.0614C85.2385 40.9518 85.383 40.8071 85.383 40.6299C85.383 40.4527 85.2385 40.3081 85.0614 40.3081Z" fill="#3F3D56"/>
<path d="M89.5009 64.4974L85.2353 62.1654C85.0184 62.0456 84.75 62.2038 84.75 62.4532V67.1171C84.75 67.3744 85.0335 67.5319 85.2533 67.3947L86.2026 66.7956L87.2611 68.5304C87.3491 68.6747 87.5315 68.7272 87.6815 68.656L89.3234 67.8787C89.4993 67.7957 89.5646 67.5781 89.4632 67.4114L88.4093 65.6829L89.5039 65.0716C89.7286 64.9466 89.7273 64.6214 89.5009 64.4974ZM87.7917 65.2763C87.6283 65.3676 87.5752 65.5759 87.6716 65.7337L88.7131 67.442L87.6677 67.9368L86.5895 66.1695C86.4937 66.0123 86.2886 65.9654 86.134 66.0629L85.4062 66.5219V63.0067L88.6655 64.7884L87.7917 65.2763Z" fill="white"/>
<path d="M83.7656 65.7344H70.6406C70.2787 65.7344 69.9844 65.44 69.9844 65.0781V51.625C69.9844 51.2631 70.2787 50.9688 70.6406 50.9688H87.0469C87.4088 50.9688 87.7031 51.2631 87.7031 51.625V52.2812H70.9688C70.7873 52.2812 70.6406 52.4283 70.6406 52.6094C70.6406 52.7905 70.7873 52.9375 70.9688 52.9375H87.7031V62.4531C87.7031 62.8872 88.3594 62.8876 88.3594 62.4531V51.625C88.3594 50.9012 87.7707 50.3125 87.0469 50.3125H70.6406C69.9168 50.3125 69.3281 50.9012 69.3281 51.625V65.0781C69.3281 65.802 69.9168 66.3906 70.6406 66.3906H83.7656C84.2001 66.3906 84.1997 65.7344 83.7656 65.7344Z" fill="white"/>
<path d="M71.625 51.9531C71.8062 51.9531 71.9531 51.8062 71.9531 51.625C71.9531 51.4438 71.8062 51.2969 71.625 51.2969C71.4438 51.2969 71.2969 51.4438 71.2969 51.625C71.2969 51.8062 71.4438 51.9531 71.625 51.9531Z" fill="white"/>
<path d="M72.9375 51.9531C73.1187 51.9531 73.2656 51.8062 73.2656 51.625C73.2656 51.4438 73.1187 51.2969 72.9375 51.2969C72.7563 51.2969 72.6094 51.4438 72.6094 51.625C72.6094 51.8062 72.7563 51.9531 72.9375 51.9531Z" fill="white"/>
<path d="M74.25 51.9531C74.4312 51.9531 74.5781 51.8062 74.5781 51.625C74.5781 51.4438 74.4312 51.2969 74.25 51.2969C74.0688 51.2969 73.9219 51.4438 73.9219 51.625C73.9219 51.8062 74.0688 51.9531 74.25 51.9531Z" fill="white"/>
<path d="M72.9375 57.5312V55.4345L74.2969 57.6999C74.4672 57.9847 74.9062 57.863 74.9062 57.5312V54.25C74.9062 53.8159 74.25 53.8155 74.25 54.25V56.3467L72.8906 54.0813C72.7209 53.7975 72.2812 53.9176 72.2812 54.25V57.5312C72.2812 57.9653 72.9375 57.9657 72.9375 57.5312Z" fill="white"/>
<path d="M77.5313 54.5781C77.9657 54.5781 77.9654 53.9219 77.5313 53.9219H75.8906C75.7092 53.9219 75.5625 54.0689 75.5625 54.25V57.5312C75.5625 57.7124 75.7092 57.8594 75.8906 57.8594H77.5313C77.9657 57.8594 77.9654 57.2031 77.5313 57.2031H76.2188V56.2188H77.5313C77.9657 56.2188 77.9654 55.5625 77.5313 55.5625H76.2188V54.5781H77.5313Z" fill="white"/>
<path d="M79.4407 57.7193L80.3204 56.4626L81.2001 57.7193C81.374 57.9677 81.7648 57.8669 81.7953 57.5638L82.1234 54.2825C82.1664 53.8497 81.5141 53.786 81.4704 54.2172L81.2306 56.6181L80.5894 55.7023C80.4664 55.5268 80.1747 55.5268 80.0516 55.7023L79.4105 56.6181L79.1703 54.2172C79.1273 53.787 78.474 53.8494 78.5173 54.2825L78.8454 57.5638C78.876 57.8676 79.2668 57.9667 79.4407 57.7193Z" fill="white"/>
<path d="M84.2578 57.2031H83.7656C83.5845 57.2031 83.4375 57.0558 83.4375 56.875C83.4375 56.4409 82.7812 56.4406 82.7812 56.875C82.7812 57.4177 83.2229 57.8594 83.7656 57.8594H84.2578C84.8911 57.8594 85.4062 57.3442 85.4062 56.7109C85.4062 56.0777 84.8911 55.5625 84.2578 55.5625H83.9297C83.6583 55.5625 83.4375 55.3417 83.4375 55.0703C83.4375 54.799 83.6583 54.5781 83.9297 54.5781H84.4219C84.603 54.5781 84.75 54.7255 84.75 54.9062C84.75 55.3404 85.4062 55.3407 85.4062 54.9062C85.4062 54.3635 84.9646 53.9219 84.4219 53.9219H83.9297C83.2964 53.9219 82.7812 54.437 82.7812 55.0703C82.7812 55.7036 83.2964 56.2188 83.9297 56.2188H84.2578C84.5292 56.2188 84.75 56.4396 84.75 56.7109C84.75 56.9823 84.5292 57.2031 84.2578 57.2031Z" fill="white"/>
<path d="M78.1875 59.1719H71.2969C70.8625 59.1719 70.8628 59.8281 71.2969 59.8281H78.1875C78.622 59.8281 78.6216 59.1719 78.1875 59.1719Z" fill="white"/>
<path d="M79.5 59.8281H86.3906C86.8251 59.8281 86.8248 59.1719 86.3906 59.1719H79.5C79.0656 59.1719 79.0659 59.8281 79.5 59.8281Z" fill="white"/>
<path d="M83.7656 64.0938H79.8281V61.4688H86.0625V61.7969C86.0625 62.231 86.7188 62.2313 86.7188 61.7969V61.1406C86.7188 60.9595 86.5721 60.8125 86.3906 60.8125H79.5C79.3185 60.8125 79.1719 60.9595 79.1719 61.1406V64.4219C79.1719 64.603 79.3185 64.75 79.5 64.75H83.7656C84.2001 64.75 84.1997 64.0938 83.7656 64.0938Z" fill="white"/>
<path d="M78.1875 60.8125H71.2969C70.8625 60.8125 70.8628 61.4688 71.2969 61.4688H78.1875C78.622 61.4688 78.6216 60.8125 78.1875 60.8125Z" fill="white"/>
<path d="M78.1875 62.4531H71.2969C70.8625 62.4531 70.8628 63.1094 71.2969 63.1094H78.1875C78.622 63.1094 78.6216 62.4531 78.1875 62.4531Z" fill="white"/>
<path d="M78.1875 64.0938H71.2969C70.8625 64.0938 70.8628 64.75 71.2969 64.75H78.1875C78.622 64.75 78.6216 64.0938 78.1875 64.0938Z" fill="white"/>
</g>
<defs>
<clipPath id="clip0_0_165">
<rect width="188" height="125" fill="white"/>
</clipPath>
</defs>
</svg>
