<svg width="143" height="123" viewBox="0 0 143 123" fill="none" xmlns="http://www.w3.org/2000/svg">
<path d="M131.859 71.0004C136.81 67.2331 139.175 60.9026 137.695 54.8636C137.658 54.7135 137.619 54.5638 137.578 54.4145C136.597 50.8298 134.168 47.4229 130.629 46.2775C127.657 45.3158 124.414 46.0553 121.313 45.6729C115.227 44.9221 110.509 40.0032 107.189 34.853C103.869 29.7028 101.317 23.9379 96.906 19.6831C89.6343 12.6697 77.7724 11.1597 68.7565 15.7249C59.7407 20.2901 53.9977 30.4183 54.2426 40.5123C54.4876 50.6064 60.4865 60.257 69.1984 65.3772C72.3988 67.2582 76.1003 68.5907 79.7841 68.1244C82.9805 67.7198 85.8848 66.0042 89.0662 65.4949C94.068 64.6941 99.038 66.9531 103.364 69.5856C107.69 72.218 111.869 75.3383 116.785 76.5587C121.559 77.7437 127.473 74.3376 131.859 71.0004Z" fill="#F2F2F2"/>
<path d="M92.6806 25.9213H43.3525C42.3237 25.9225 41.3375 26.3312 40.61 27.0579C39.8826 27.7845 39.4734 28.7698 39.4722 29.7974V54.3212C39.4734 55.3489 39.8826 56.3341 40.61 57.0607C41.3375 57.7874 42.3237 58.1961 43.3525 58.1973H92.6806C93.7094 58.1965 94.6959 57.7878 95.4234 57.0611C96.1509 56.3344 96.56 55.349 96.5609 54.3212V29.7974C96.56 28.7697 96.1509 27.7843 95.4234 27.0575C94.6959 26.3308 93.7094 25.9222 92.6806 25.9213Z" fill="white"/>
<path d="M92.6807 58.3884H43.3533C42.2739 58.3872 41.2391 57.9583 40.4759 57.1959C39.7126 56.4335 39.2833 55.3998 39.2821 54.3216V29.7971C39.2833 28.7189 39.7126 27.6852 40.4759 26.9228C41.2391 26.1604 42.2739 25.7316 43.3533 25.7303H92.6807C93.76 25.7316 94.7948 26.1604 95.5581 26.9228C96.3213 27.6852 96.7506 28.7189 96.7518 29.7971V54.3216C96.7506 55.3998 96.3213 56.4335 95.5581 57.1959C94.7948 57.9583 93.76 58.3872 92.6807 58.3884ZM43.3533 26.1115C42.3751 26.1126 41.4372 26.5013 40.7455 27.1922C40.0539 27.8831 39.6648 28.8199 39.6636 29.7971V54.3216C39.6648 55.2988 40.0539 56.2356 40.7455 56.9265C41.4372 57.6175 42.3751 58.0061 43.3533 58.0072H92.6807C93.6589 58.0061 94.5967 57.6175 95.2884 56.9265C95.9801 56.2356 96.3691 55.2988 96.3703 54.3216V29.7971C96.3691 28.8199 95.9801 27.8831 95.2884 27.1922C94.5967 26.5013 93.6589 26.1126 92.6807 26.1115H43.3533Z" fill="#CCCCCC"/>
<path d="M94.9497 65.168H47.6784C47.2698 65.168 46.878 65.0059 46.5891 64.7173C46.3001 64.4287 46.1378 64.0372 46.1378 63.6291C46.1378 63.2209 46.3001 62.8295 46.5891 62.5409C46.878 62.2523 47.2698 62.0901 47.6784 62.0901H94.9497C95.3583 62.0901 95.7502 62.2523 96.0391 62.5409C96.328 62.8295 96.4903 63.2209 96.4903 63.6291C96.4903 64.0372 96.328 64.4287 96.0391 64.7173C95.7502 65.0059 95.3583 65.168 94.9497 65.168Z" fill="#E6E6E6"/>
<path d="M62.8327 50.4931C62.5527 50.4923 62.2774 50.4207 62.0326 50.2849C61.7707 50.1438 61.5522 49.934 61.4007 49.6782C61.2492 49.4224 61.1703 49.1301 61.1727 48.8328V35.146C61.1727 34.8492 61.2524 34.5579 61.4037 34.3025C61.555 34.047 61.7721 33.8369 62.0325 33.694C62.2929 33.551 62.5869 33.4806 62.8839 33.49C63.1808 33.4994 63.4698 33.5884 63.7205 33.7475L76.718 40.5909C76.9537 40.7405 77.1478 40.9471 77.2823 41.1916C77.4168 41.4361 77.4873 41.7105 77.4873 41.9894C77.4873 42.2684 77.4168 42.5428 77.2823 42.7873C77.1478 43.0317 76.9537 43.2383 76.718 43.3879L63.7205 50.2313C63.4557 50.4014 63.1476 50.4922 62.8327 50.4931Z" fill="#F2F2F2"/>
<path d="M139.162 43.6693H118.548C118.118 43.6688 117.706 43.498 117.402 43.1943C117.098 42.8906 116.927 42.4789 116.927 42.0495V31.8009C116.927 31.3714 117.098 30.9597 117.402 30.6561C117.706 30.3524 118.118 30.1816 118.548 30.1811H139.162C139.592 30.1816 140.004 30.3524 140.308 30.6561C140.612 30.9597 140.783 31.3714 140.783 31.8009V42.0495C140.783 42.4789 140.612 42.8906 140.308 43.1943C140.004 43.498 139.592 43.6688 139.162 43.6693Z" fill="white"/>
<path d="M139.162 43.8598H118.548C118.068 43.8593 117.607 43.6684 117.267 43.329C116.928 42.9896 116.736 42.5294 116.736 42.0495V31.8009C116.736 31.3209 116.928 30.8608 117.267 30.5214C117.607 30.182 118.068 29.9911 118.548 29.9905H139.162C139.642 29.9911 140.103 30.182 140.443 30.5214C140.782 30.8608 140.973 31.3209 140.974 31.8009V42.0495C140.973 42.5294 140.782 42.9896 140.443 43.329C140.103 43.6684 139.642 43.8593 139.162 43.8598ZM118.548 30.3717C118.169 30.3721 117.805 30.5228 117.537 30.7907C117.269 31.0587 117.118 31.422 117.117 31.8009V42.0495C117.118 42.4284 117.269 42.7917 117.537 43.0596C117.805 43.3276 118.169 43.4783 118.548 43.4787H139.162C139.541 43.4783 139.905 43.3276 140.173 43.0596C140.441 42.7917 140.592 42.4284 140.592 42.0495V31.8009C140.592 31.422 140.441 31.0587 140.173 30.7907C139.905 30.5228 139.541 30.3721 139.162 30.3717H118.548Z" fill="#CCCCCC"/>
<path d="M135.775 48.6842H121.889C121.481 48.6837 121.089 48.5214 120.801 48.2328C120.512 47.9442 120.35 47.5531 120.35 47.1452C120.35 46.7373 120.512 46.3462 120.801 46.0576C121.089 45.7691 121.481 45.6067 121.889 45.6063H135.775C136.184 45.6063 136.576 45.7684 136.864 46.057C137.153 46.3456 137.316 46.7371 137.316 47.1452C137.316 47.5534 137.153 47.9448 136.864 48.2334C136.576 48.522 136.184 48.6842 135.775 48.6842Z" fill="#E6E6E6"/>
<path d="M126.638 40.5724C126.521 40.572 126.406 40.5421 126.304 40.4854C126.194 40.4264 126.103 40.3387 126.04 40.2318C125.977 40.1249 125.944 40.0028 125.945 39.8786V34.159C125.945 34.035 125.978 33.9132 126.041 33.8065C126.104 33.6997 126.195 33.6119 126.304 33.5522C126.413 33.4925 126.536 33.463 126.66 33.467C126.784 33.4709 126.905 33.5081 127.009 33.5746L132.441 36.4343C132.539 36.4969 132.62 36.5832 132.677 36.6854C132.733 36.7875 132.762 36.9022 132.762 37.0188C132.762 37.1353 132.733 37.25 132.677 37.3522C132.62 37.4543 132.539 37.5407 132.441 37.6032L127.009 40.463C126.899 40.534 126.77 40.572 126.638 40.5724Z" fill="#6C63FF"/>
<path d="M125.998 87.7576H105.385C104.955 87.7571 104.543 87.5863 104.239 87.2827C103.935 86.979 103.764 86.5673 103.763 86.1378V75.8893C103.764 75.4598 103.935 75.0481 104.239 74.7444C104.543 74.4408 104.955 74.2699 105.385 74.2695H125.998C126.428 74.2699 126.84 74.4408 127.144 74.7444C127.448 75.0481 127.619 75.4598 127.62 75.8893V86.1378C127.619 86.5673 127.448 86.979 127.144 87.2827C126.84 87.5863 126.428 87.7571 125.998 87.7576Z" fill="white"/>
<path d="M125.998 87.9482H105.385C104.904 87.9477 104.444 87.7568 104.104 87.4174C103.764 87.078 103.573 86.6178 103.573 86.1378V75.8893C103.573 75.4093 103.764 74.9492 104.104 74.6098C104.444 74.2704 104.904 74.0795 105.385 74.0789H125.998C126.479 74.0795 126.939 74.2704 127.279 74.6098C127.619 74.9492 127.81 75.4093 127.811 75.8893V86.1378C127.81 86.6178 127.619 87.078 127.279 87.4174C126.939 87.7568 126.479 87.9477 125.998 87.9482ZM105.385 74.46C105.006 74.4605 104.642 74.6112 104.374 74.8791C104.105 75.1471 103.954 75.5104 103.954 75.8893V86.1378C103.954 86.5168 104.105 86.8801 104.374 87.148C104.642 87.416 105.006 87.5667 105.385 87.5671H125.998C126.378 87.5667 126.741 87.416 127.01 87.148C127.278 86.8801 127.429 86.5168 127.429 86.1378V75.8893C127.429 75.5104 127.278 75.1471 127.01 74.8791C126.741 74.6112 126.378 74.4605 125.998 74.46H105.385Z" fill="#CCCCCC"/>
<path d="M122.612 92.8H108.726C108.317 92.7995 107.926 92.6372 107.637 92.3486C107.349 92.0601 107.187 91.6689 107.187 91.2611C107.187 90.8532 107.349 90.462 107.637 90.1735C107.926 89.8849 108.317 89.7226 108.726 89.7221H122.612C123.02 89.7221 123.412 89.8842 123.701 90.1729C123.99 90.4615 124.152 90.8529 124.152 91.2611C124.152 91.6692 123.99 92.0606 123.701 92.3493C123.412 92.6379 123.02 92.8 122.612 92.8Z" fill="#E6E6E6"/>
<path d="M113.425 84.974C113.308 84.9737 113.193 84.9438 113.09 84.887C112.981 84.8281 112.89 84.7404 112.826 84.6335C112.763 84.5266 112.73 84.4044 112.731 84.2802V78.5606C112.731 78.4366 112.764 78.3149 112.828 78.2081C112.891 78.1014 112.982 78.0136 113.09 77.9539C113.199 77.8941 113.322 77.8647 113.446 77.8686C113.57 77.8726 113.691 77.9097 113.796 77.9762L119.227 80.836C119.326 80.8985 119.407 80.9849 119.463 81.087C119.519 81.1892 119.549 81.3039 119.549 81.4204C119.549 81.537 119.519 81.6517 119.463 81.7538C119.407 81.856 119.326 81.9423 119.227 82.0049L113.796 84.8646C113.685 84.9357 113.556 84.9737 113.425 84.974Z" fill="#6C63FF"/>
<path d="M53.9619 54.3399C53.6818 54.3391 53.4066 54.2675 53.1617 54.1317C52.8998 53.9906 52.6813 53.7808 52.5298 53.525C52.3783 53.2692 52.2995 52.9769 52.3018 52.6796V38.9928C52.3018 38.696 52.3816 38.4047 52.5329 38.1493C52.6841 37.8938 52.9013 37.6837 53.1617 37.5408C53.422 37.3978 53.7161 37.3274 54.013 37.3368C54.31 37.3463 54.5989 37.4352 54.8497 37.5943L67.8472 44.4377C68.0829 44.5873 68.277 44.7939 68.4114 45.0384C68.5459 45.2828 68.6164 45.5573 68.6164 45.8362C68.6164 46.1152 68.5459 46.3896 68.4114 46.6341C68.277 46.8785 68.0829 47.0851 67.8472 47.2347L54.8497 54.0781C54.5848 54.2482 54.2768 54.339 53.9619 54.3399Z" fill="#6C63FF"/>
<path d="M131.591 6.57148H44.9243C44.8342 6.56956 44.7484 6.53245 44.6853 6.46809C44.6222 6.40374 44.5869 6.31727 44.5869 6.22721C44.5869 6.13715 44.6222 6.05068 44.6853 5.98632C44.7484 5.92197 44.8342 5.88485 44.9243 5.88293H131.591C131.681 5.88485 131.767 5.92197 131.83 5.98632C131.893 6.05068 131.928 6.13715 131.928 6.22721C131.928 6.31727 131.893 6.40374 131.83 6.46809C131.767 6.53245 131.681 6.56956 131.591 6.57148Z" fill="#CACACA"/>
<path d="M50.8238 4.12515C51.9393 4.12515 52.8436 3.2017 52.8436 2.06257C52.8436 0.923446 51.9393 0 50.8238 0C49.7083 0 48.804 0.923446 48.804 2.06257C48.804 3.2017 49.7083 4.12515 50.8238 4.12515Z" fill="#3F3D56"/>
<path d="M57.8013 4.12515C58.9168 4.12515 59.8211 3.2017 59.8211 2.06257C59.8211 0.923446 58.9168 0 57.8013 0C56.6858 0 55.7815 0.923446 55.7815 2.06257C55.7815 3.2017 56.6858 4.12515 57.8013 4.12515Z" fill="#3F3D56"/>
<path d="M64.7788 4.12515C65.8943 4.12515 66.7986 3.2017 66.7986 2.06257C66.7986 0.923446 65.8943 0 64.7788 0C63.6633 0 62.759 0.923446 62.759 2.06257C62.759 3.2017 63.6633 4.12515 64.7788 4.12515Z" fill="#3F3D56"/>
<path d="M127.39 0.51123H122.433C122.335 0.513172 122.242 0.553524 122.173 0.623617C122.104 0.69371 122.065 0.787955 122.065 0.886115C122.065 0.984276 122.104 1.07852 122.173 1.14862C122.242 1.21871 122.335 1.25906 122.433 1.261H127.39C127.488 1.25906 127.582 1.21871 127.65 1.14862C127.719 1.07852 127.758 0.984276 127.758 0.886115C127.758 0.787955 127.719 0.69371 127.65 0.623617C127.582 0.553524 127.488 0.513172 127.39 0.51123Z" fill="#3F3D56"/>
<path d="M127.39 1.91843H122.433C122.335 1.92037 122.242 1.96072 122.173 2.03081C122.104 2.1009 122.065 2.19515 122.065 2.29331C122.065 2.39147 122.104 2.48572 122.173 2.55581C122.242 2.6259 122.335 2.66625 122.433 2.6682H127.39C127.488 2.66625 127.582 2.6259 127.65 2.55581C127.719 2.48572 127.758 2.39147 127.758 2.29331C127.758 2.19515 127.719 2.1009 127.65 2.03081C127.582 1.96072 127.488 1.92037 127.39 1.91843Z" fill="#3F3D56"/>
<path d="M127.39 3.32379H122.433C122.335 3.32573 122.242 3.36608 122.173 3.43617C122.104 3.50627 122.065 3.60052 122.065 3.69868C122.065 3.79684 122.104 3.89108 122.173 3.96117C122.242 4.03127 122.335 4.07162 122.433 4.07356H127.39C127.488 4.07162 127.582 4.03127 127.65 3.96117C127.719 3.89108 127.758 3.79684 127.758 3.69868C127.758 3.60052 127.719 3.50627 127.65 3.43617C127.582 3.36608 127.488 3.32573 127.39 3.32379Z" fill="#3F3D56"/>
<path d="M85.5018 25.9213V31.097C85.5018 31.3543 85.0516 31.5696 84.4449 31.6287C84.4397 31.6284 84.4346 31.6291 84.4296 31.6306C84.3285 31.6383 84.2217 31.644 84.113 31.644C83.7785 31.6501 83.4456 31.5959 83.1305 31.4839C83.1019 31.4725 83.0732 31.4591 83.0446 31.4477C83.0179 31.4324 82.9893 31.4191 82.9626 31.4039C82.8119 31.3143 82.7241 31.2095 82.7241 31.097V25.9213H85.5018Z" fill="#CCCCCC"/>
<path d="M127.667 89.5957C128.971 89.5957 130.027 88.5401 130.027 87.238C130.027 85.9358 128.971 84.8802 127.667 84.8802C126.364 84.8802 125.307 85.9358 125.307 87.238C125.307 88.5401 126.364 89.5957 127.667 89.5957Z" fill="#3F3D56"/>
<path d="M127.49 88.1803C127.485 88.1803 127.48 88.1802 127.475 88.1799C127.431 88.1778 127.387 88.166 127.348 88.1456C127.308 88.1251 127.274 88.0963 127.247 88.0612L126.852 87.5546C126.827 87.5226 126.809 87.4861 126.798 87.447C126.787 87.4079 126.784 87.3672 126.789 87.3269C126.794 87.2867 126.807 87.2479 126.827 87.2127C126.847 87.1775 126.874 87.1466 126.906 87.1217L126.92 87.1107C126.952 87.0858 126.989 87.0674 127.028 87.0566C127.067 87.0459 127.108 87.0429 127.148 87.048C127.189 87.053 127.227 87.0659 127.263 87.0859C127.298 87.106 127.329 87.1328 127.354 87.1648C127.374 87.1903 127.399 87.2113 127.428 87.2262C127.457 87.2411 127.488 87.2497 127.521 87.2512C127.553 87.2528 127.585 87.2474 127.615 87.2353C127.646 87.2232 127.673 87.2048 127.695 87.1813L128.496 86.3368C128.552 86.2774 128.63 86.2429 128.712 86.2407C128.794 86.2384 128.873 86.2687 128.932 86.3249L128.946 86.3374C128.975 86.3653 128.999 86.3986 129.015 86.4356C129.032 86.4726 129.041 86.5125 129.042 86.553C129.043 86.5935 129.036 86.6338 129.022 86.6717C129.007 86.7095 128.985 86.7441 128.957 86.7735L127.715 88.084C127.686 88.1144 127.651 88.1386 127.612 88.1552C127.574 88.1718 127.532 88.1803 127.49 88.1803Z" fill="white"/>
<path d="M140.64 45.7658C141.943 45.7658 143 44.7102 143 43.408C143 42.1059 141.943 41.0503 140.64 41.0503C139.336 41.0503 138.279 42.1059 138.279 43.408C138.279 44.7102 139.336 45.7658 140.64 45.7658Z" fill="#3F3D56"/>
<path d="M140.463 44.3503C140.458 44.3503 140.453 44.3501 140.448 44.3499C140.403 44.3478 140.36 44.336 140.32 44.3155C140.281 44.295 140.246 44.2663 140.219 44.2311L139.825 43.7246C139.8 43.6926 139.781 43.6561 139.771 43.617C139.76 43.5779 139.757 43.5371 139.762 43.4969C139.767 43.4567 139.78 43.4179 139.8 43.3827C139.82 43.3475 139.847 43.3165 139.879 43.2917L139.893 43.2806C139.925 43.2557 139.962 43.2374 140.001 43.2266C140.04 43.2159 140.081 43.2129 140.121 43.2179C140.161 43.223 140.2 43.2359 140.235 43.2559C140.271 43.2759 140.302 43.3027 140.326 43.3347C140.346 43.3603 140.372 43.3812 140.4 43.3962C140.429 43.4111 140.461 43.4196 140.493 43.4212C140.526 43.4228 140.558 43.4174 140.588 43.4053C140.618 43.3932 140.645 43.3748 140.668 43.3513L141.468 42.5067C141.525 42.4474 141.602 42.4129 141.684 42.4106C141.766 42.4084 141.845 42.4387 141.905 42.4949L141.918 42.5074C141.948 42.5352 141.971 42.5686 141.988 42.6056C142.004 42.6426 142.013 42.6825 142.014 42.723C142.016 42.7635 142.009 42.8038 141.994 42.8417C141.98 42.8795 141.958 42.9141 141.93 42.9435L140.687 44.254C140.658 44.2844 140.623 44.3086 140.585 44.3252C140.546 44.3418 140.505 44.3503 140.463 44.3503Z" fill="white"/>
<path d="M68.3711 103.084H9.47404C8.4041 103.085 7.37834 103.512 6.62178 104.271C5.86521 105.029 5.43962 106.058 5.43836 107.131C5.43782 107.647 5.53668 108.158 5.7295 108.636C6.02911 109.387 6.54589 110.03 7.21326 110.483C7.88064 110.936 8.66804 111.179 9.47404 111.179H68.3711C69.0756 111.179 69.7678 110.994 70.3788 110.642C70.9898 110.29 71.4984 109.784 71.854 109.175C71.9552 109.002 72.0432 108.822 72.1169 108.636C72.3098 108.158 72.4086 107.647 72.4081 107.131C72.4065 106.058 71.9806 105.029 71.2239 104.271C70.4671 103.512 69.4411 103.085 68.3711 103.084Z" fill="#CCCCCC"/>
<path d="M37.8757 59.688H38.7726C39.2087 59.688 39.6269 59.8618 39.9353 60.171C40.2437 60.4802 40.4169 60.8996 40.4169 61.337H36.2313C36.2313 61.1204 36.2739 60.906 36.3565 60.7059C36.4391 60.5059 36.5602 60.3241 36.7129 60.171C36.8656 60.0179 37.0469 59.8964 37.2464 59.8136C37.4459 59.7307 37.6597 59.688 37.8757 59.688Z" fill="#CCCCCC"/>
<path d="M39.1844 69.0424C44.3007 69.0424 48.4482 64.8833 48.4482 59.7529C48.4482 54.6224 44.3007 50.4633 39.1844 50.4633C34.0682 50.4633 29.9207 54.6224 29.9207 59.7529C29.9207 64.8833 34.0682 69.0424 39.1844 69.0424Z" fill="#FFB8B8"/>
<path d="M28.8517 50.8163C28.9217 49.7495 29.6253 48.6579 31.8604 48.0874C31.8604 48.0874 35.6964 43.1686 40.909 45.7481C40.909 45.7481 43.4361 45.3122 45.3099 47.9414C45.3099 47.9414 47.1678 46.8426 47.9516 48.7902C47.9516 48.7902 50.1306 52.7627 49.3284 56.8148C48.5262 60.8668 48.1156 61.3725 48.1156 61.3725C48.1156 61.3725 49.1381 52.9909 43.2487 53.5721C37.3594 54.1533 32.6179 52.0764 31.2842 56.6236C30.1767 60.3995 30.3162 62.3604 30.3162 62.3604C30.3162 62.3604 26.6128 58.5938 27.872 55.6278C28.516 54.1108 28.7437 52.4614 28.8517 50.8163Z" fill="#2F2E41"/>
<path d="M13.9955 110.52H65.236C64.8935 106.601 64.6697 91.618 64.6697 90.6319C64.6697 86.2827 61.1207 81.5364 61.1207 81.5364L59.8504 80.8323L49.2418 77.5133L46.4965 73.9372C46.209 73.5617 45.8385 73.2581 45.4143 73.0504C44.99 72.8427 44.5235 72.7364 44.0514 72.7401L35.379 72.8053C34.6158 72.8112 33.8824 73.1027 33.3223 73.6226L27.9521 78.6184L20.0755 82.3901L20.0621 82.3767L19.9799 82.4381L18.8109 83.2822L18.0591 83.8271C18.0591 83.8271 16.0866 86.2002 14.5101 93.3178C14.2729 94.3883 14.1064 108.247 13.9955 110.52Z" fill="#6C63FF"/>
<path d="M77.0951 108.637C76.9717 108.75 76.8469 108.862 76.7222 108.973C76.2499 109.394 75.7709 109.808 75.2853 110.215C74.5514 110.828 73.8023 111.424 73.038 112H4.05848C2.65377 110.943 1.30095 109.822 0 108.637H77.0951Z" fill="#CCCCCC"/>
<path d="M51.8082 109.444H26.451L26.9876 106.887H51.2715L51.8082 109.444Z" fill="#2F2E41"/>
<path d="M74.7542 98.4119H68.156C68.0071 98.4115 67.8599 98.4438 67.7247 98.5065C67.5896 98.5693 67.4698 98.661 67.3738 98.7752C67.2819 98.7574 67.1884 98.7484 67.0948 98.7483C66.8891 98.7481 66.6854 98.7885 66.4954 98.8673C66.3053 98.9461 66.1326 99.0616 65.9871 99.2074C65.8416 99.3531 65.7262 99.5262 65.6475 99.7167C65.5687 99.9072 65.5282 100.111 65.5282 100.318C65.5282 100.524 65.5687 100.728 65.6475 100.919C65.7262 101.109 65.8416 101.282 65.9871 101.428C66.1326 101.574 66.3053 101.689 66.4954 101.768C66.6854 101.847 66.8891 101.887 67.0948 101.887C67.3311 101.887 67.5642 101.833 67.7763 101.728L67.8863 103.084L68.3237 108.444C68.3445 108.511 68.3724 108.576 68.4069 108.637C68.4953 108.8 68.6258 108.935 68.7847 109.03C68.9436 109.125 69.125 109.175 69.3098 109.175H73.6004C73.7854 109.175 73.9669 109.125 74.126 109.03C74.2851 108.935 74.4159 108.8 74.5047 108.637C74.5382 108.576 74.5656 108.511 74.5865 108.444L75.7403 99.7506C75.7878 99.5959 75.7984 99.4321 75.7712 99.2725C75.7441 99.113 75.68 98.962 75.5841 98.8318C75.4881 98.7016 75.3631 98.5958 75.219 98.5228C75.0748 98.4499 74.9157 98.4119 74.7542 98.4119ZM67.0948 101.439C66.7984 101.439 66.5143 101.32 66.3049 101.11C66.0954 100.9 65.9778 100.615 65.9778 100.318C65.9778 100.02 66.0954 99.7354 66.3049 99.5252C66.5143 99.3149 66.7984 99.1966 67.0948 99.1963C67.1149 99.1963 67.1337 99.2017 67.1538 99.203C67.1096 99.3836 67.1152 99.5729 67.1699 99.7506L67.6421 101.29C67.4758 101.387 67.2871 101.438 67.0948 101.439Z" fill="#3F3D56"/>
<path d="M59.8512 69.9666H18.083C17.7241 69.9672 17.3801 70.1104 17.1264 70.3648C16.8726 70.6193 16.7298 70.9642 16.7292 71.3241V99.5878C16.7296 99.9477 16.8723 100.293 17.1261 100.547C17.3799 100.802 17.7241 100.945 18.083 100.945H59.8512C60.2101 100.945 60.5542 100.802 60.808 100.547C61.0618 100.293 61.2046 99.9477 61.2049 99.5878V71.3241C61.2043 70.9642 61.0615 70.6193 60.8078 70.3648C60.554 70.1104 60.21 69.9672 59.8512 69.9666Z" fill="#3F3D56"/>
<path d="M43.6675 92.613H33.8963C33.7581 92.6132 33.6256 92.6684 33.528 92.7666C33.4303 92.8647 33.3756 92.9977 33.3757 93.1363V108.615H44.1894V93.1363C44.1895 93.0676 44.176 92.9995 44.1498 92.936C44.1236 92.8725 44.0851 92.8148 44.0366 92.7662C43.9882 92.7176 43.9306 92.679 43.8673 92.6527C43.8039 92.6265 43.7361 92.6129 43.6675 92.613ZM38.8148 101.408C38.5092 101.406 38.2166 101.284 38.0005 101.067C37.7844 100.851 37.6624 100.557 37.661 100.251V98.4654C37.6613 98.1587 37.783 97.8648 37.9994 97.6481C38.2157 97.4314 38.509 97.3097 38.8148 97.3097C39.1206 97.3097 39.4138 97.4314 39.6302 97.6481C39.8465 97.8648 39.9682 98.1587 39.9686 98.4654V100.251C39.9672 100.557 39.8452 100.851 39.6291 101.067C39.413 101.284 39.1204 101.406 38.8148 101.408Z" fill="#2F2E41"/>
<path d="M33.3464 108.12V109.614C33.3466 109.691 33.3773 109.765 33.4319 109.82C33.4864 109.875 33.5604 109.905 33.6376 109.906H43.9361C44.0132 109.905 44.087 109.874 44.1415 109.82C44.196 109.765 44.2268 109.691 44.2272 109.614V108.12H33.3464Z" fill="#3F3D56"/>
<path d="M58.9608 99.2922C59.3249 99.2922 59.6202 98.9961 59.6202 98.6309C59.6202 98.2658 59.3249 97.9697 58.9608 97.9697C58.5966 97.9697 58.3014 98.2658 58.3014 98.6309C58.3014 98.9961 58.5966 99.2922 58.9608 99.2922Z" fill="#2F2E41"/>
<path d="M23.3534 97.6718C23.3231 97.6718 23.2931 97.6778 23.2651 97.6894C23.2371 97.7011 23.2117 97.7181 23.1903 97.7396C23.1688 97.7611 23.1518 97.7866 23.1402 97.8147C23.1286 97.8427 23.1227 97.8728 23.1227 97.9032V99.0939C23.1228 99.1552 23.1472 99.2139 23.1905 99.2571C23.2337 99.3004 23.2923 99.3247 23.3534 99.3247C23.4145 99.3247 23.4731 99.3004 23.5164 99.2571C23.5597 99.2139 23.5841 99.1552 23.5842 99.0939V97.9032C23.5842 97.8728 23.5782 97.8427 23.5667 97.8147C23.5551 97.7866 23.5381 97.7611 23.5166 97.7396C23.4952 97.7181 23.4698 97.701 23.4418 97.6894C23.4138 97.6778 23.3838 97.6718 23.3534 97.6718Z" fill="#2F2E41"/>
<path d="M24.6059 97.6718C24.5756 97.6718 24.5456 97.6778 24.5176 97.6894C24.4896 97.7011 24.4641 97.7181 24.4427 97.7396C24.4213 97.7611 24.4043 97.7866 24.3927 97.8147C24.3811 97.8427 24.3751 97.8728 24.3751 97.9032V99.0939C24.3751 99.1553 24.3994 99.2141 24.4427 99.2575C24.486 99.3009 24.5447 99.3253 24.6059 99.3253C24.6671 99.3253 24.7258 99.3009 24.7691 99.2575C24.8123 99.2141 24.8366 99.1553 24.8366 99.0939V97.9032C24.8366 97.8728 24.8307 97.8427 24.8191 97.8147C24.8075 97.7866 24.7905 97.7611 24.7691 97.7396C24.7476 97.7181 24.7222 97.7011 24.6942 97.6894C24.6662 97.6778 24.6362 97.6718 24.6059 97.6718Z" fill="#2F2E41"/>
<path d="M25.8582 97.6718C25.8279 97.6718 25.7979 97.6778 25.7699 97.6894C25.7419 97.7011 25.7165 97.7181 25.695 97.7396C25.6736 97.7611 25.6566 97.7866 25.645 97.8147C25.6334 97.8427 25.6274 97.8728 25.6274 97.9032V99.0939C25.6276 99.1552 25.652 99.2139 25.6952 99.2571C25.7385 99.3004 25.7971 99.3247 25.8582 99.3247C25.9193 99.3247 25.9779 99.3004 26.0212 99.2571C26.0644 99.2139 26.0888 99.1552 26.089 99.0939V97.9032C26.089 97.8728 26.083 97.8427 26.0714 97.8147C26.0598 97.7866 26.0428 97.7611 26.0214 97.7396C26 97.7181 25.9745 97.701 25.9465 97.6894C25.9185 97.6778 25.8885 97.6718 25.8582 97.6718Z" fill="#2F2E41"/>
<path d="M27.1106 97.6718C27.0803 97.6718 27.0503 97.6778 27.0223 97.6894C26.9943 97.7011 26.9689 97.7181 26.9475 97.7396C26.926 97.7611 26.909 97.7866 26.8974 97.8147C26.8859 97.8427 26.8799 97.8728 26.8799 97.9032V99.0939C26.88 99.1552 26.9044 99.2139 26.9477 99.2571C26.9909 99.3004 27.0496 99.3247 27.1107 99.3247C27.1718 99.3247 27.2304 99.3004 27.2736 99.2571C27.3169 99.2139 27.3413 99.1552 27.3414 99.0939V97.9032C27.3414 97.8728 27.3354 97.8427 27.3238 97.8147C27.3122 97.7866 27.2953 97.7611 27.2738 97.7396C27.2524 97.7181 27.227 97.7011 27.199 97.6894C27.171 97.6778 27.1409 97.6718 27.1106 97.6718Z" fill="#2F2E41"/>
<path d="M28.1119 108.771C30.0385 108.771 31.6002 107.205 31.6002 105.273C31.6002 103.341 30.0385 101.775 28.1119 101.775C26.1854 101.775 24.6237 103.341 24.6237 105.273C24.6237 107.205 26.1854 108.771 28.1119 108.771Z" fill="#FFB8B8"/>
<path d="M52.4822 109.444C54.4087 109.444 55.9705 107.878 55.9705 105.946C55.9705 104.014 54.4087 102.448 52.4822 102.448C50.5557 102.448 48.9939 104.014 48.9939 105.946C48.9939 107.878 50.5557 109.444 52.4822 109.444Z" fill="#FFB8B8"/>
</svg>
