<svg width="1920" height="530" viewBox="0 0 1920 530" fill="none" xmlns="http://www.w3.org/2000/svg">
<g clip-path="url(#clip0_4450_209)">
<circle cx="769" cy="769" r="768" transform="matrix(-1 0 0 1 1730 -433)" stroke="url(#paint0_linear_4450_209)" stroke-width="2"/>
<circle cx="769" cy="769" r="768" transform="matrix(-1 0 0 1 1730 -433)" stroke="url(#paint1_linear_4450_209)" stroke-width="2"/>
<circle cx="554.266" cy="554.266" r="553.266" transform="matrix(-1 0 0 1 1515.27 -218.266)" stroke="url(#paint2_linear_4450_209)" stroke-width="2" stroke-dasharray="20 20"/>
<circle cx="554.266" cy="554.266" r="553.266" transform="matrix(-1 0 0 1 1515.27 -218.266)" stroke="url(#paint3_linear_4450_209)" stroke-width="2" stroke-dasharray="20 20"/>
<circle cx="369.51" cy="369.51" r="368.51" transform="matrix(-1 0 0 1 1329.81 -32.813)" stroke="url(#paint4_linear_4450_209)" stroke-width="2" stroke-dasharray="20 20"/>
<circle cx="369.51" cy="369.51" r="368.51" transform="matrix(-1 0 0 1 1329.81 -32.813)" stroke="url(#paint5_linear_4450_209)" stroke-width="2" stroke-dasharray="20 20"/>
<circle cx="1503" cy="220" r="12" fill="#82B9FF"/>
<circle cx="591" cy="378" r="12" fill="#82B9FF"/>
<circle cx="769" cy="769" r="769" transform="matrix(-1 0 0 1 1730 -432)" fill="url(#paint6_linear_4450_209)"/>
<path d="M192 337C192 761.707 536.293 1106 961 1106C1385.71 1106 1730 761.707 1730 337C1730 -87.707 1385.71 -432 961 -432C536.293 -432 192 -87.707 192 337Z" fill="url(#paint7_linear_4450_209)"/>
<circle cx="256" cy="28" r="12" fill="#82B9FF"/>
<circle cx="1708" cy="518" r="12" fill="#82B9FF"/>
</g>
<defs>
<linearGradient id="paint0_linear_4450_209" x1="71.1284" y1="449.199" x2="769.63" y2="769.63" gradientUnits="userSpaceOnUse">
<stop stop-color="#0072FC"/>
<stop offset="1" stop-color="#004496" stop-opacity="0"/>
</linearGradient>
<linearGradient id="paint1_linear_4450_209" x1="1476" y1="481" x2="769.63" y2="769.63" gradientUnits="userSpaceOnUse">
<stop stop-color="#0072FC"/>
<stop offset="1" stop-color="#004496" stop-opacity="0"/>
</linearGradient>
<linearGradient id="paint2_linear_4450_209" x1="51.2666" y1="323.766" x2="554.719" y2="554.719" gradientUnits="userSpaceOnUse">
<stop stop-color="#0072FC"/>
<stop offset="1" stop-color="#004496" stop-opacity="0"/>
</linearGradient>
<linearGradient id="paint3_linear_4450_209" x1="1108.27" y1="563.266" x2="554.719" y2="554.72" gradientUnits="userSpaceOnUse">
<stop stop-color="#0072FC"/>
<stop offset="1" stop-color="#004496" stop-opacity="0"/>
</linearGradient>
<linearGradient id="paint4_linear_4450_209" x1="-253.187" y1="292.313" x2="369.813" y2="369.813" gradientUnits="userSpaceOnUse">
<stop stop-color="#0072FC"/>
<stop offset="1" stop-color="#004496" stop-opacity="0"/>
</linearGradient>
<linearGradient id="paint5_linear_4450_209" x1="920.813" y1="383.813" x2="369.813" y2="369.813" gradientUnits="userSpaceOnUse">
<stop stop-color="#0072FC"/>
<stop offset="1" stop-color="#004496" stop-opacity="0"/>
</linearGradient>
<linearGradient id="paint6_linear_4450_209" x1="-831" y1="15" x2="774.876" y2="757.66" gradientUnits="userSpaceOnUse">
<stop stop-color="#0C233F"/>
<stop offset="1" stop-color="#02336E" stop-opacity="0"/>
</linearGradient>
<linearGradient id="paint7_linear_4450_209" x1="-1255" y1="947" x2="960.37" y2="337.63" gradientUnits="userSpaceOnUse">
<stop stop-color="#001733"/>
<stop offset="1" stop-color="#001733" stop-opacity="0"/>
</linearGradient>
<clipPath id="clip0_4450_209">
<rect width="1920" height="530" fill="white"/>
</clipPath>
</defs>
</svg>
