<svg width="26" height="48" viewBox="0 0 26 48" fill="none" xmlns="http://www.w3.org/2000/svg">
<g clip-path="url(#clip0_0_1043)">
<path d="M19.8356 22.4817V27.5742H6.14891V22.4817H19.8356ZM20.6907 21.6982H5.29471V28.3586H20.6907V21.6982Z" fill="#FEBE29"/>
<path d="M19.8375 23.33L24.1298 17.16V0.655762H1.85464V17.16L6.14601 23.33H19.8375Z" fill="#E54F30"/>
<path d="M25.9206 36.0775C25.9206 36.9596 25.8141 37.8168 25.6155 38.6429C24.4388 43.54 19.9586 47.3009 14.4227 47.8552C13.954 47.9023 13.4794 47.9272 12.999 47.9272C5.86323 47.9272 0.0784607 42.6224 0.0784607 36.0775C0.0784607 29.5327 5.86323 24.2261 12.9981 24.2261C20.1329 24.2261 25.9196 29.5335 25.9196 36.0775H25.9206Z" fill="#FB9F0E"/>
<path d="M12.999 24.1533C5.83126 24.1533 0 29.5025 0 36.0776C0 42.6526 5.83126 48.0001 12.999 48.0001C13.4697 48.0001 13.9511 47.9761 14.4305 47.9281C19.9683 47.373 24.495 43.6475 25.693 38.658C25.8964 37.8133 26 36.9454 26 36.0785C26 29.5034 20.1668 24.1542 12.999 24.1542V24.1533ZM12.999 46.3736C6.80846 46.3736 1.7733 41.7546 1.7733 36.0776C1.7733 30.4006 6.80943 25.7789 12.999 25.7789C19.1886 25.7789 24.2277 30.3988 24.2277 36.0776C24.2277 36.8273 24.1386 37.577 23.9623 38.3072C22.927 42.6153 19.0191 45.8318 14.2387 46.3115C13.8242 46.3523 13.4068 46.3745 13 46.3745L12.999 46.3736Z" fill="#FFC935"/>
<path d="M22.8582 35.9C22.8582 35.9649 22.8582 36.0262 22.8553 36.0866C22.8505 36.2953 22.8389 36.4996 22.8195 36.7039C22.804 36.8656 22.7836 37.0282 22.7594 37.188C22.0854 41.6108 17.9867 45.0307 13 45.1168C12.9351 45.1168 12.8712 45.1186 12.8053 45.1186C12.3734 45.1186 11.9463 45.0928 11.5279 45.044C11.4059 45.0307 11.2838 45.0138 11.1637 44.996C6.39298 44.2792 2.75534 40.4791 2.75534 35.9C2.75534 30.8075 7.2559 26.6797 12.8063 26.6797C18.3567 26.6797 22.8602 30.8075 22.8602 35.9H22.8582Z" fill="white"/>
<path d="M23.0519 36.0773C23.0519 36.1421 23.0519 36.2034 23.049 36.2638C23.0442 36.4726 23.0325 36.6769 23.0132 36.8812C22.9977 37.0428 22.9773 37.2054 22.9531 37.3653C22.2791 41.788 18.1804 45.2079 13.1937 45.2941C13.1288 45.2941 13.0649 45.2959 12.999 45.2959C12.5671 45.2959 12.14 45.2701 11.7216 45.2212C11.5996 45.2079 11.4775 45.191 11.3574 45.1733C6.58667 44.4564 2.94904 40.6564 2.94904 36.0773C2.94904 30.9848 7.44959 26.8569 13 26.8569C18.5504 26.8569 23.0539 30.9848 23.0539 36.0773H23.0519Z" fill="#FEBE29"/>
<path opacity="0.2" d="M0.0784607 36.0774C0.0784607 42.6196 5.85936 47.9235 12.9923 47.9271V24.2251C5.85936 24.2287 0.0784607 29.5343 0.0784607 36.0765V36.0774Z" fill="white"/>
<path d="M19.8356 0.655762H6.17896V23.33H19.8356V0.655762Z" fill="white"/>
<path d="M16.688 0.655762H9.32654V23.33H16.688V0.655762Z" fill="#0D2038"/>
<path d="M25.3075 0H0.707001V1.3111H25.3075V0Z" fill="#FEBE29"/>
<path d="M17.947 42.2278L13.37 40.0071L8.78127 42.2065L9.66938 37.528L5.96976 34.2049L11.096 33.5334L13.399 29.2803L15.6788 33.544L20.8012 34.2387L17.0841 37.5448L17.947 42.2278Z" fill="#F39C12"/>
<path d="M17.4628 41.784L12.8857 39.5633L8.29702 41.7627L9.18512 37.0841L5.4855 33.7611L10.6117 33.0895L12.9148 28.8364L15.1946 33.1002L20.3169 33.7948L16.5999 37.101L17.4628 41.784Z" fill="white"/>
<path d="M17.5596 41.8729L12.9826 39.6522L8.39388 41.8515L9.28199 37.173L5.58237 33.8499L10.7086 33.1784L13.0116 28.9253L15.2914 33.189L20.4138 33.8837L16.6967 37.1899L17.5596 41.8729Z" fill="#FEBE29"/>
</g>
<defs>
<clipPath id="clip0_0_1043">
<rect width="26" height="48" fill="white"/>
</clipPath>
</defs>
</svg>
