<svg width="16" height="16" viewBox="0 0 16 16" fill="none" xmlns="http://www.w3.org/2000/svg">
<path d="M9.63793 7.98771L15.5376 1.69471C15.7084 1.50611 15.8029 1.25351 15.8007 0.991311C15.7986 0.729114 15.7 0.478301 15.5262 0.292893C15.3524 0.107485 15.1172 0.00231622 14.8714 3.78026e-05C14.6256 -0.00224062 14.3888 0.0985537 14.212 0.280712L8.3123 6.57371L2.41261 0.280712C2.2358 0.0985537 1.99899 -0.00224062 1.75318 3.78026e-05C1.50737 0.00231622 1.27223 0.107485 1.09841 0.292893C0.924589 0.478301 0.825993 0.729114 0.823857 0.991311C0.821721 1.25351 0.916216 1.50611 1.08699 1.69471L6.98668 7.98771L1.08699 14.2807C0.997448 14.373 0.926027 14.4833 0.876893 14.6053C0.82776 14.7273 0.801898 14.8585 0.800817 14.9913C0.799735 15.1241 0.823456 15.2558 0.870594 15.3787C0.917732 15.5016 0.987345 15.6132 1.07537 15.7071C1.16339 15.801 1.26807 15.8753 1.38328 15.9255C1.4985 15.9758 1.62195 16.0011 1.74643 16C1.87091 15.9988 1.99393 15.9712 2.10831 15.9188C2.22268 15.8664 2.32613 15.7902 2.41261 15.6947L8.3123 9.40171L14.212 15.6947C14.3888 15.8769 14.6256 15.9777 14.8714 15.9754C15.1172 15.9731 15.3524 15.8679 15.5262 15.6825C15.7 15.4971 15.7986 15.2463 15.8007 14.9841C15.8029 14.7219 15.7084 14.4693 15.5376 14.2807L9.63793 7.98771Z" fill="#7B7B7B"/>
</svg>
