<svg width="61" height="91" viewBox="0 0 61 91" fill="none" xmlns="http://www.w3.org/2000/svg">
<g clip-path="url(#clip0_0_770)">
<path d="M60.4468 15.8729V90.4512H0.553226V15.8729H60.4495M61 15.3269H0V91H61V15.3269Z" fill="#745CFF"/>
<path d="M30.4986 0.548749C34.6478 0.548749 38.022 3.89558 38.022 8.0112C38.022 8.72566 37.9151 9.44012 37.707 10.1356L37.4961 10.8392H46.1122V21.2056H14.8823V10.8392H23.4984L23.2875 10.1356C23.0794 9.44012 22.9726 8.72566 22.9726 8.0112C22.9726 3.89558 26.3467 0.548749 30.4959 0.548749M30.4986 0C26.0372 0 22.4221 3.58589 22.4221 8.0112C22.4221 8.80444 22.5426 9.5678 22.7589 10.2904H14.3291V21.7517H46.6654V10.2904H38.2356C38.4519 9.5678 38.5724 8.80444 38.5724 8.0112C38.5724 3.58589 34.9573 0 30.4959 0L30.4986 0Z" fill="#745CFF"/>
<path d="M53.2904 83.1735H7.70679V23.425H8.26001V82.6275H52.7399V23.425H53.2904V83.1735Z" fill="#745CFF"/>
<path d="M18.3605 32.9955C19.9572 32.9955 21.2553 34.2832 21.2553 35.8669C21.2553 37.4507 19.9572 38.7383 18.3605 38.7383C16.7638 38.7383 15.4656 37.4507 15.4656 35.8669C15.4656 34.2832 16.7638 32.9955 18.3605 32.9955ZM18.3605 32.4495C16.4571 32.4495 14.9152 33.9789 14.9152 35.8669C14.9152 37.7549 16.4571 39.2844 18.3605 39.2844C20.2639 39.2844 21.8058 37.7549 21.8058 35.8669C21.8058 33.9789 20.2639 32.4495 18.3605 32.4495Z" fill="#745CFF"/>
<path d="M18.3604 34.9242C18.8835 34.9242 19.3108 35.348 19.3108 35.8669C19.3108 36.3858 18.8835 36.8095 18.3604 36.8095C17.8374 36.8095 17.4101 36.3858 17.4101 35.8669C17.4101 35.348 17.8374 34.9242 18.3604 34.9242ZM18.3604 34.3755C17.5306 34.3755 16.8596 35.0438 16.8596 35.8642C16.8596 36.6846 17.5333 37.3529 18.3604 37.3529C19.1875 37.3529 19.8613 36.6846 19.8613 35.8642C19.8613 35.0438 19.1875 34.3755 18.3604 34.3755Z" fill="#745CFF"/>
<path d="M44.4279 36.03H24.9883V36.5788H44.4279V36.03Z" fill="#745CFF"/>
<path d="M18.3605 46.6681C19.9572 46.6681 21.2553 47.9558 21.2553 49.5396C21.2553 51.1233 19.9572 52.411 18.3605 52.411C16.7638 52.411 15.4656 51.1233 15.4656 49.5396C15.4656 47.9558 16.7638 46.6681 18.3605 46.6681ZM18.3605 46.1194C16.4571 46.1194 14.9152 47.6488 14.9152 49.5368C14.9152 51.4249 16.4571 52.9543 18.3605 52.9543C20.2639 52.9543 21.8058 51.4249 21.8058 49.5368C21.8058 47.6488 20.2639 46.1194 18.3605 46.1194Z" fill="#745CFF"/>
<path d="M44.4279 49.7026H24.9883V50.2514H44.4279V49.7026Z" fill="#745CFF"/>
<path d="M18.3605 60.3407C19.9572 60.3407 21.2553 61.6284 21.2553 63.2122C21.2553 64.7959 19.9572 66.0836 18.3605 66.0836C16.7638 66.0836 15.4656 64.7959 15.4656 63.2122C15.4656 61.6284 16.7638 60.3407 18.3605 60.3407ZM18.3605 59.792C16.4571 59.792 14.9152 61.3214 14.9152 63.2094C14.9152 65.0975 16.4571 66.6269 18.3605 66.6269C20.2639 66.6269 21.8058 65.0975 21.8058 63.2094C21.8058 61.3214 20.2639 59.792 18.3605 59.792Z" fill="#745CFF"/>
<path d="M44.4279 63.3752H24.9883V63.924H44.4279V63.3752Z" fill="#745CFF"/>
</g>
<defs>
<clipPath id="clip0_0_770">
<rect width="61" height="91" fill="white"/>
</clipPath>
</defs>
</svg>
