<svg width="58" height="90" viewBox="0 0 58 90" fill="none" xmlns="http://www.w3.org/2000/svg">
<g clip-path="url(#clip0_0_705)">
<path d="M29.2752 90.0001C31.5422 90.0001 33.38 88.3354 33.38 86.2819C33.38 84.2284 31.5422 82.5637 29.2752 82.5637C27.0081 82.5637 25.1703 84.2284 25.1703 86.2819C25.1703 88.3354 27.0081 90.0001 29.2752 90.0001Z" fill="#A7A9AC"/>
<path d="M29.2976 69.8055L20.2073 69.4829V82.5234C20.2073 82.9378 20.3982 83.332 20.7285 83.5985L25.2198 87.2271C28.0192 87.6101 30.7423 87.6348 33.3778 87.2271L37.869 83.5985C38.1993 83.332 38.3903 82.9378 38.3903 82.5234V69.4829L29.2999 69.8055H29.2976Z" fill="#F1F2F2"/>
<path opacity="0.25" d="M20.2076 73.0956V74.5381C20.2682 74.5381 20.3401 74.5381 20.4255 74.5381C21.4231 74.5381 23.9642 74.518 26.9321 74.332C31.9559 74.0162 35.8091 73.4003 38.3906 72.4976V71.0305C38.2985 71.0238 38.2018 71.0372 38.1097 71.0708C32.6591 73.0553 21.8634 73.1024 20.2076 73.0956Z" fill="black"/>
<path opacity="0.25" d="M26.9296 78.03C31.9534 77.7142 35.8066 77.0983 38.3881 76.1956V74.7285C38.296 74.7218 38.1993 74.7352 38.1072 74.7688C32.6566 76.7533 21.8609 76.8004 20.2051 76.7936V78.2361C20.2657 78.2361 20.3376 78.2361 20.423 78.2361C21.4206 78.2361 23.9617 78.216 26.9296 78.03Z" fill="black"/>
<path opacity="0.25" d="M26.9296 81.728C31.9534 81.4122 35.8066 80.7963 38.3881 79.8936V78.4265C38.296 78.4198 38.1993 78.4332 38.1072 78.4668C32.6566 80.4513 21.8609 80.4984 20.2051 80.4916V81.9341C20.2657 81.9341 20.3376 81.9341 20.423 81.9341C21.4206 81.9341 23.9617 81.914 26.9296 81.728Z" fill="black"/>
<path d="M38.4419 69.4807C38.4419 70.0899 34.3596 70.5827 29.3246 70.5827C24.2896 70.5827 20.2073 70.0899 20.2073 69.4807C20.2073 68.8714 24.2896 68.3787 29.3246 68.3787C34.3596 68.3787 38.4419 68.8714 38.4419 69.4807Z" fill="#A7A9AC"/>
<path d="M20.423 74.097C20.1399 74.097 19.9804 74.097 19.9736 74.097C19.5827 74.0925 19.2704 73.7655 19.2749 73.3668C19.2794 72.9703 19.5939 72.6545 19.9804 72.6545C19.9826 72.6545 19.9849 72.6545 19.9894 72.6545C20.1107 72.6545 32.2229 72.7732 38.1072 70.6297C38.4757 70.4953 38.8801 70.6924 39.0104 71.0664C39.1407 71.4427 38.9497 71.8549 38.5813 71.987C35.9997 72.9278 32.0792 73.5661 26.9273 73.8909C23.9594 74.0768 21.4183 74.097 20.4207 74.097H20.423Z" fill="#7748DB"/>
<path d="M20.423 77.795C20.1399 77.795 19.9804 77.795 19.9736 77.795C19.5827 77.7905 19.2704 77.4635 19.2749 77.0648C19.2794 76.6683 19.5939 76.3525 19.9804 76.3525C19.9826 76.3525 19.9849 76.3525 19.9894 76.3525C20.1107 76.3525 32.2229 76.4712 38.1072 74.3277C38.4757 74.1933 38.8801 74.3904 39.0104 74.7644C39.1407 75.1407 38.9497 75.5529 38.5813 75.685C35.9997 76.6258 32.0792 77.2641 26.9273 77.5889C23.9594 77.7748 21.4183 77.795 20.4207 77.795H20.423Z" fill="#7748DB"/>
<path d="M20.423 81.493C20.1399 81.493 19.9804 81.493 19.9736 81.493C19.5827 81.4885 19.2704 81.1615 19.2749 80.7628C19.2794 80.3663 19.5939 80.0505 19.9804 80.0505C19.9826 80.0505 19.9849 80.0505 19.9894 80.0505C20.1107 80.0505 32.2229 80.1692 38.1072 78.0256C38.4757 77.8913 38.8801 78.0884 39.0104 78.4624C39.1407 78.8387 38.9497 79.2509 38.5813 79.383C35.9997 80.3238 32.0792 80.9621 26.9273 81.2869C23.9594 81.4728 21.4183 81.493 20.4207 81.493H20.423Z" fill="#7748DB"/>
<path d="M57.9325 27.1897C57.9325 12.1737 44.4856 0 28.8617 0C13.2378 0 -0.000122248 12.1737 -0.000122248 27.1897C-0.000122248 27.3219 -0.000122247 27.454 0.00212451 27.5862C-0.00686251 27.9647 0.00212451 28.6031 0.103229 29.4789C0.532359 34.2251 2.28258 38.6242 4.98992 42.3626C6.83676 45.3774 9.35762 48.7372 12.8041 52.3389C12.8041 52.3389 18.3761 59.4079 18.9333 64.8709C18.9333 64.8709 17.9065 68.9161 28.5651 69.2409V69.2611C28.8033 69.2611 29.0369 69.2611 29.2661 69.2566C29.4953 69.2589 29.7267 69.2611 29.9671 69.2611V69.2409C40.6257 68.9161 39.5989 64.8709 39.5989 64.8709C40.1561 59.4079 45.7281 52.3389 45.7281 52.3389C59.658 37.7731 57.9347 27.1897 57.9347 27.1897H57.9325Z" fill="url(#paint0_linear_0_705)"/>
<path style="mix-blend-mode:overlay" opacity="0.5" d="M29.1853 53.4408C44.1686 53.4408 56.3149 41.766 56.3149 27.3643C56.3149 12.9627 44.1686 1.28784 29.1853 1.28784C14.202 1.28784 2.05573 12.9627 2.05573 27.3643C2.05573 41.766 14.202 53.4408 29.1853 53.4408Z" fill="url(#paint1_radial_0_705)"/>
<path style="mix-blend-mode:overlay" opacity="0.5" d="M29.1853 47.2341C40.6023 47.2341 49.8577 38.338 49.8577 27.3642C49.8577 16.3904 40.6023 7.49438 29.1853 7.49438C17.7682 7.49438 8.51288 16.3904 8.51288 27.3642C8.51288 38.338 17.7682 47.2341 29.1853 47.2341Z" fill="url(#paint2_radial_0_705)"/>
<path d="M34.8673 67.5073C34.7752 67.5073 34.7011 67.4334 34.7011 67.3415V30.8407L32.1083 33.5308L32.4993 34.0101C32.6835 34.2341 32.7194 34.5342 32.5959 34.7941C32.4678 35.0651 32.1959 35.2331 31.8881 35.2331H31.8005C31.4792 35.2331 31.2029 35.0539 31.0815 34.7672C30.9625 34.4917 31.0209 34.1826 31.2321 33.9653L31.6657 33.5151L29.4908 30.8541L27.0037 33.5957L27.3609 33.9653C27.5721 34.1848 27.6283 34.4917 27.5115 34.7672C27.3879 35.0539 27.1138 35.2331 26.7925 35.2331C26.4712 35.2331 26.2016 35.0584 26.078 34.7761C25.9567 34.5051 26.0084 34.2005 26.2083 33.9788L26.5543 33.598L23.8964 30.8385V67.3393C23.8964 67.4311 23.8223 67.505 23.7302 67.505C23.638 67.505 23.5639 67.4311 23.5639 67.3393V30.4286C23.5639 30.3614 23.6043 30.3009 23.6673 30.2763C23.7302 30.2516 23.8021 30.2673 23.847 30.3143L26.7745 33.3516L29.3763 30.4846C29.4077 30.4487 29.4571 30.4286 29.5021 30.4308C29.5493 30.4308 29.5964 30.4532 29.6257 30.4913L31.8971 33.2687L34.746 30.3121C34.7932 30.2628 34.8651 30.2471 34.9257 30.274C34.9887 30.2987 35.0291 30.3591 35.0291 30.4263V67.3371C35.0291 67.4289 34.955 67.5028 34.8628 67.5028L34.8673 67.5073ZM31.8814 33.7727L31.4747 34.1938C31.3557 34.317 31.3242 34.485 31.3894 34.6395C31.4433 34.7672 31.5826 34.9061 31.805 34.9061H31.8926C32.1061 34.9061 32.2431 34.7761 32.3015 34.6552C32.3712 34.5096 32.351 34.3461 32.2476 34.2207L31.8814 33.7727ZM26.7858 33.8399L26.4555 34.2027C26.3409 34.3282 26.3139 34.4939 26.3813 34.644C26.4375 34.7694 26.5746 34.9038 26.7947 34.9038C27.0149 34.9038 27.1565 34.7672 27.2104 34.6373C27.2778 34.4827 27.2441 34.3147 27.125 34.1915L26.7835 33.8376L26.7858 33.8399Z" fill="#7748DB"/>
<path d="M24.4491 30.3121C24.4491 30.6749 24.1413 30.9706 23.7639 30.9706C23.3864 30.9706 23.0786 30.6749 23.0786 30.3121C23.0786 29.9492 23.3864 29.6536 23.7639 29.6536C24.1413 29.6536 24.4491 29.9492 24.4491 30.3121Z" fill="#7748DB"/>
<path d="M30.1806 30.3121C30.1806 30.6749 29.8728 30.9706 29.4953 30.9706C29.1179 30.9706 28.8101 30.6749 28.8101 30.3121C28.8101 29.9492 29.1179 29.6536 29.4953 29.6536C29.8728 29.6536 30.1806 29.9492 30.1806 30.3121Z" fill="#7748DB"/>
<path d="M35.5234 30.3121C35.5234 30.6749 35.2156 30.9706 34.8382 30.9706C34.4607 30.9706 34.1529 30.6749 34.1529 30.3121C34.1529 29.9492 34.4607 29.6536 34.8382 29.6536C35.2156 29.6536 35.5234 29.9492 35.5234 30.3121Z" fill="#7748DB"/>
</g>
<defs>
<linearGradient id="paint0_linear_0_705" x1="46.5414" y1="75.47" x2="28.1932" y2="24.786" gradientUnits="userSpaceOnUse">
<stop stop-color="#FF9900"/>
<stop offset="1" stop-color="#FFDB0D"/>
</linearGradient>
<radialGradient id="paint1_radial_0_705" cx="0" cy="0" r="1" gradientUnits="userSpaceOnUse" gradientTransform="translate(29.1281 27.4845) scale(27.0809 26.2038)">
<stop stop-color="white"/>
<stop offset="1" stop-color="white"/>
</radialGradient>
<radialGradient id="paint2_radial_0_705" cx="0" cy="0" r="1" gradientUnits="userSpaceOnUse" gradientTransform="translate(-3.12981 27.4844) scale(20.6344 19.9661)">
<stop stop-color="white"/>
<stop offset="1" stop-color="white"/>
</radialGradient>
<clipPath id="clip0_0_705">
<rect width="58" height="90" fill="white"/>
</clipPath>
</defs>
</svg>
