<svg width="229" height="227" viewBox="0 0 229 227" fill="none" xmlns="http://www.w3.org/2000/svg">
<mask id="mask0_0_648" style="mask-type:luminance" maskUnits="userSpaceOnUse" x="0" y="0" width="229" height="153">
<path d="M229 0H0V152.294H229V0Z" fill="white"/>
</mask>
<g mask="url(#mask0_0_648)">
<path d="M177.185 39.6318C177.283 39.6318 177.38 39.6318 177.482 39.6318C187.612 39.7922 195.724 48.1587 195.564 58.2841C195.486 63.1379 193.537 67.6856 190.076 71.0915C186.62 74.4925 182.046 76.3631 177.2 76.3631C177.103 76.3631 177.006 76.3631 176.904 76.3631C166.774 76.2027 158.661 67.8362 158.822 57.7108C158.9 52.857 160.849 48.3093 164.31 44.9034C167.765 41.5024 172.339 39.6318 177.185 39.6318ZM177.185 38.6504C166.638 38.6504 158.005 47.1141 157.84 57.6914C157.67 68.3755 166.2 77.1696 176.889 77.3396C176.991 77.3396 177.098 77.3396 177.2 77.3396C187.748 77.3396 196.38 68.8759 196.545 58.2987C196.716 47.6146 188.185 38.8204 177.497 38.6504C177.394 38.6504 177.287 38.6504 177.185 38.6504Z" fill="#745CFF"/>
<path d="M176.401 77.3311L176.301 86.2607L177.283 86.2717L177.383 77.3421L176.401 77.3311Z" fill="#745CFF"/>
<path d="M173.375 86.6003L179.839 86.7023L179.655 107.138C179.625 108.892 178.177 110.32 176.422 110.32H176.369C175.504 110.306 174.697 109.956 174.099 109.339C173.496 108.717 173.175 107.9 173.19 107.031L173.375 86.6003ZM172.403 85.6042L172.208 107.021C172.169 109.348 174.026 111.263 176.354 111.297C176.379 111.297 176.398 111.297 176.422 111.297C178.717 111.297 180.598 109.455 180.632 107.152L180.826 85.7354L172.398 85.6042H172.403Z" fill="#745CFF"/>
<path d="M186.722 52.3662H167.945V53.3477H186.722V52.3662Z" fill="#745CFF"/>
<path d="M186.722 57.8369H167.945V58.8184H186.722V57.8369Z" fill="#745CFF"/>
<path d="M186.722 63.303H167.945V64.2844H186.722V63.303Z" fill="#745CFF"/>
<path d="M154.734 107.599H119.732L118.415 132.432C117.968 140.842 113.89 148.65 107.241 153.819L98.4574 160.646H141.659L146.281 156.322C152.673 150.341 156.479 142.1 156.887 133.355L157.932 110.957C158.02 109.13 156.557 107.604 154.729 107.604L154.734 107.599Z" fill="#BCBEC0"/>
<path d="M154.097 133.355L155.142 110.957C155.23 109.13 153.767 107.604 151.939 107.604H154.734C156.562 107.604 158.02 109.13 157.937 110.957L156.892 133.355C156.484 142.101 152.678 150.341 146.286 156.322L141.664 160.646H138.869L143.491 156.322C149.883 150.341 153.689 142.101 154.097 133.355Z" fill="#E6E7E8"/>
<path d="M109.452 119.518L107.508 128.093C107.508 128.093 79.6612 162.959 78.6258 165.607C77.5857 168.259 87.1028 217.604 87.1028 217.604C89.8345 218.017 95.8083 216.875 101.476 215.874C101.476 215.874 103.969 183.598 100.056 169.6L125.73 147.707L124.243 119.513H109.457L109.452 119.518Z" fill="#36303B"/>
<path d="M141.532 119.518C141.532 119.518 141.921 120.737 142.558 122.715C146.835 136.013 145.261 150.506 138.222 162.575L128.812 174.002C128.812 174.002 130.032 190.395 138.388 214.659C132.817 218.041 127.607 219.819 123.077 218.551L109.972 178.516C109.593 177.583 109.355 176.602 109.272 175.601C107.994 159.49 120.005 145.516 120.005 145.516C120.005 145.516 107.678 140.56 109.447 119.522C109.447 119.522 141.085 119.08 141.528 119.522L141.532 119.518Z" fill="#3F3945"/>
<path d="M91.1615 52.182C91.1615 52.182 92.1433 50.0879 92.1433 48.4311L84.1135 47.1436L84.4246 51.3366C84.4246 51.3366 90.8893 52.833 91.1615 52.182Z" fill="#FEBAC7"/>
<path d="M83.6274 38.0967L84.1427 47.5613L92.1384 48.5524C92.1384 48.5524 93.0279 46.5701 94.2869 45.3117C95.5458 44.0534 94.8215 42.6978 94.8215 42.6978C94.8215 42.6978 93.5869 41.6823 93.1009 43.0136C92.6148 44.3449 92.6148 45.0931 91.6718 44.9716C90.7289 44.8502 90.8747 39.4814 90.8747 39.4814L83.6274 38.0967Z" fill="#FEBAC7"/>
<path d="M103.43 64.6247H91.1664L92.1483 51.1128C89.3874 51.5015 86.2474 51.1128 83.8608 49.7476C83.8608 49.7476 75.7387 73.1127 77.1823 78.739C78.5433 84.0446 104.3 81.2315 104.3 81.2315L103.43 64.6247Z" fill="#FF5959"/>
<path d="M139.987 65.3L110.672 63.6724L91.1615 64.6247C91.1615 64.6247 98.2435 76.9364 101.753 85.5119C108.111 101.04 109.447 119.517 109.447 119.517H141.528L148.823 79.769C149.232 77.0433 149.698 65.3 139.977 65.3H139.987Z" fill="#FF5959"/>
<path d="M120.063 38.4367C120.063 38.4367 117.623 41.1187 117.623 45.1416C117.623 49.1646 116.038 50.5056 116.038 53.0661C116.038 55.6266 119.086 57.4534 120.797 59.1636C122.503 60.869 121.147 64.1777 121.147 64.1777L125.312 68.429L131.291 64.5276C131.291 64.5276 130.314 60.9905 131.291 58.43C132.268 55.8695 137.027 49.7719 135.437 45.0153C133.853 40.2587 126.348 32.1497 120.068 38.4319L120.063 38.4367Z" fill="#FEBAC7"/>
<path d="M129.945 49.7718C129.945 49.7718 131.529 49.7961 131.529 52.2837C131.529 54.7714 129.575 55.7479 128.968 55.7479C128.36 55.7479 131.286 58.4299 131.286 58.4299C131.286 58.4299 137.022 61.5977 137.994 58.4299C138.971 55.2621 136.531 54.8054 136.531 54.8054C136.531 54.8054 141.591 51.9048 139.457 49.7718C137.323 47.6389 137.26 48.1879 137.751 45.6274C138.242 43.0669 137.829 37.4601 134.436 37.4601C134.436 37.4601 134.703 33.5586 130.314 32.7035C125.925 31.8483 123.849 34.0444 123.849 34.0444C123.849 34.0444 121.531 31.0904 119.091 32.5043C116.651 33.923 116.043 35.1376 116.043 35.1376C116.043 35.1376 114.274 34.2242 112.874 35.6235C111.474 37.0228 112.509 43.305 119.096 42.6977C125.682 42.0903 125.905 40.8708 125.905 40.8708C125.905 40.8708 123.3 43.9609 125.317 45.9772C127.334 47.9936 128.613 49.6504 128.613 50.3792C128.613 51.1079 129.954 49.7718 129.954 49.7718H129.945Z" fill="#170C30"/>
<path d="M90.3498 76.1786C90.3498 76.1786 90.3449 76.1786 90.3401 76.1786C90.1942 76.1737 90.0825 76.0523 90.0873 75.9065L90.4567 65.9414C90.4616 65.7957 90.5734 65.6791 90.7289 65.6888C90.8747 65.6937 90.9865 65.8151 90.9817 65.9609L90.6123 75.9259C90.6074 76.0668 90.4907 76.1786 90.3498 76.1786Z" fill="#000D41"/>
<path d="M113.647 50.0975L116.471 50.7437C117.399 50.9575 118.216 47.3961 117.287 47.1823L114.463 46.5361L113.647 50.0975Z" fill="#4A2D8F"/>
<path d="M35.7646 37.567L114.177 50.9477C115.144 51.1663 116.223 46.4388 115.261 46.2153L38.8123 24.2349C32.6052 22.8162 29.5576 36.1483 35.7598 37.567H35.7646Z" fill="#FFCB30"/>
<path d="M33.9468 29.8029C33.3441 32.4411 34.3745 34.9287 36.2507 35.3611C38.127 35.7887 40.1393 33.9959 40.742 31.3576C41.3447 28.7194 40.3143 26.2318 38.438 25.7994C36.5618 25.3718 34.5495 27.1646 33.9468 29.8029Z" fill="#170C30"/>
<path d="M36.241 28.1705L38.8123 32.5627C38.8123 32.5627 40.5183 29.667 38.8852 27.7332C37.8012 26.4457 36.241 28.1705 36.241 28.1705Z" fill="#E6E7E8"/>
<path d="M83.6275 37.9604C83.6275 37.9604 83.6275 41.1477 85.3434 41.5753C85.3434 41.5753 86.1794 41.8716 85.985 40.8805C85.7905 39.8893 85.5718 39.0877 85.5718 38.4366C85.5718 37.7855 83.9289 36.6438 83.6227 37.9604H83.6275Z" fill="#FEBAC7"/>
<path d="M85.3969 38.1937C85.3969 38.1937 85.3968 41.5413 87.2001 41.9931C87.2001 41.9931 88.0799 42.3041 87.8758 41.2595C87.6716 40.2149 87.4432 39.3792 87.4432 38.6893C87.4432 37.9993 85.7177 36.8041 85.3969 38.1888V38.1937Z" fill="#FEBAC7"/>
<path d="M87.307 38.4076C87.307 38.4076 87.307 41.7552 89.1103 42.207C89.1103 42.207 89.9901 42.518 89.7859 41.4734C89.5818 40.4287 89.3533 39.5931 89.3533 38.9031C89.3533 38.2132 87.6278 37.018 87.307 38.4027V38.4076Z" fill="#FEBAC7"/>
<path d="M89.3193 38.9661C89.3193 38.9661 89.3193 42.3137 91.1226 42.7656C91.1226 42.7656 92.0024 43.0766 91.7983 42.0319C91.5941 40.9873 91.3657 40.1517 91.3657 39.4617C91.3657 38.7718 89.6401 37.5766 89.3193 38.9613V38.9661Z" fill="#FEBAC7"/>
<path d="M101.641 54.8879C101.641 54.8879 99.8718 52.0359 100.159 47.8818L100.241 44.9763C100.241 44.8743 100.261 44.7723 100.29 44.6702C100.441 44.1358 100.854 42.1923 99.0164 41.8231C99.0164 41.8231 101.034 40.0254 102.069 41.9834C102.069 41.9834 103.843 41.002 104.149 43.0863C104.149 43.0863 105.622 42.2264 105.928 43.7617C105.928 43.7617 107.095 43.1495 107.401 44.437C107.401 44.437 107.693 45.229 107.552 47.6243C107.474 48.9167 106.832 52.3129 107.523 53.1826L101.646 54.8831L101.641 54.8879Z" fill="#FEBAC7"/>
<path d="M139.384 87.1445L120.277 96.1427C116.155 98.0861 111.285 95.7831 110.171 91.3666L101.033 55.1407C102.963 52.2838 105.325 52.1138 107.863 53.0661L118.721 81.2315L132.501 68.4533C133.716 67.3261 135.296 66.6605 136.959 66.5973C139.034 66.5196 141.96 66.9034 144.949 68.9198C146.855 70.2024 147.467 72.4131 147.443 74.7696C147.394 80.0898 144.201 84.8804 139.384 87.1493V87.1445Z" fill="#FF5959"/>
<path d="M118.619 81.6882L112.077 64.717C112.023 64.581 112.091 64.4303 112.228 64.3769C112.364 64.3234 112.514 64.3915 112.568 64.5275L118.828 80.7748L131.291 69.2161C131.398 69.1189 131.563 69.1238 131.66 69.2307C131.758 69.3376 131.753 69.5027 131.646 69.5999L118.614 81.6882H118.619Z" fill="#000D41"/>
<path d="M117.195 97.0949C116.102 97.0949 115.008 96.8519 113.987 96.3709C111.951 95.4089 110.468 93.6064 109.919 91.4248L103.503 65.9899C103.469 65.849 103.551 65.7081 103.692 65.6693C103.833 65.6352 103.974 65.7178 104.013 65.8587L110.429 91.2937C110.94 93.3246 112.32 95.0008 114.211 95.8948C116.102 96.7888 118.274 96.7888 120.165 95.8948L139.272 86.8966C140.551 86.2941 141.722 85.507 142.762 84.5547C142.869 84.4576 143.034 84.4624 143.132 84.5693C143.229 84.6762 143.224 84.8414 143.117 84.9386C142.038 85.9297 140.818 86.746 139.496 87.3679L120.389 96.3661C119.373 96.8422 118.284 97.0851 117.19 97.0851L117.195 97.0949Z" fill="#000D41"/>
<path d="M140.502 122.088H128.273C128.127 122.088 128.01 121.971 128.01 121.825C128.01 121.68 128.127 121.563 128.273 121.563H140.502C140.648 121.563 140.764 121.68 140.764 121.825C140.764 121.971 140.648 122.088 140.502 122.088Z" fill="#000D41"/>
<path d="M120.01 122.37C120.01 123.434 121.22 124.294 122.707 124.294C124.195 124.294 125.405 123.434 125.405 122.37C125.405 121.306 124.195 120.446 122.707 120.446C121.22 120.446 120.01 121.306 120.01 122.37Z" fill="#E6E7E8"/>
<path d="M118.055 122.316H110.594C110.449 122.316 110.332 122.2 110.332 122.054C110.332 121.908 110.449 121.792 110.594 121.792H118.055C118.201 121.792 118.318 121.908 118.318 122.054C118.318 122.2 118.201 122.316 118.055 122.316Z" fill="#000D41"/>
</g>
</svg>
