<svg width="122" height="133" viewBox="0 0 122 133" fill="none" xmlns="http://www.w3.org/2000/svg">
<g clip-path="url(#clip0_0_730)">
<path d="M31.1113 79.402L98.4269 76.4705L94.2633 91.6496L55.0716 108.041L30.1091 96.9428L31.1113 79.402Z" fill="#170C30"/>
<path d="M38.2911 72.9787L38.877 84.9125H90.3126L91.6102 59.9246L38.2911 72.9787Z" fill="#FF5959"/>
<path d="M54.8344 26.63C54.8344 26.63 32.8687 31.0732 28.8309 34.3814C24.7932 37.6896 20.7893 78.2817 22.1546 80.1555C23.5198 82.0294 105.723 83.9418 107.616 80.4308C109.509 76.9197 98.9547 34.8788 96.1127 32.7731C93.2708 30.6675 61.7964 26.1567 54.8344 26.63Z" fill="#63B6FF"/>
<path d="M90.3174 69.5788C90.3174 69.5788 90.3029 69.5788 90.2981 69.5788C90.1625 69.5691 90.0657 69.4484 90.0754 69.318C90.7435 61.5859 90.0802 39.8048 90.0754 39.5875C90.0754 39.4522 90.177 39.3412 90.3078 39.3412C90.4627 39.3315 90.5547 39.4426 90.5547 39.573C90.5595 39.7903 91.2276 61.6004 90.5547 69.3614C90.545 69.487 90.4385 69.5836 90.3126 69.5836L90.3174 69.5788Z" fill="#000D41"/>
<path d="M36.0495 68.7867C36.0495 68.7867 36.0301 68.7867 36.0205 68.7867C35.8897 68.7722 35.7929 68.6515 35.8074 68.5211C36.858 59.3692 34.965 40.563 34.9457 40.3747C34.9311 40.2443 35.028 40.1235 35.1635 40.1091C35.2991 40.0897 35.4153 40.1912 35.4298 40.3264C35.4492 40.5147 37.347 59.374 36.2916 68.579C36.2771 68.6998 36.1705 68.7915 36.0495 68.7915V68.7867Z" fill="#000D41"/>
<path d="M43.6797 78.465L42.6436 74.2827C42.571 73.9977 42.7356 73.7031 43.0212 73.6162L44.4398 73.1767C44.6383 73.1139 44.7883 72.9497 44.8222 72.7469L45.0643 71.4477C45.1127 71.1821 45.3451 70.9938 45.6162 70.9938H46.7782C46.9718 70.9938 47.151 70.8923 47.2526 70.733L47.9595 69.6029C48.1193 69.3469 48.4582 69.2648 48.7196 69.4193L50.0655 70.2162C50.235 70.3176 50.448 70.3225 50.6223 70.221L51.4115 69.7816C51.6681 69.6367 51.9876 69.7188 52.1522 69.9603L54.9796 74.2247C55.1539 74.4903 55.0765 74.8429 54.8053 75.0071L54.1808 75.3886C53.9484 75.5287 53.6482 75.4852 53.4691 75.2824C53.1011 74.867 52.4088 75.1858 52.496 75.7364L52.525 75.9199C52.5637 76.1613 52.4379 76.398 52.22 76.5042L46.6717 79.2329C46.6329 79.2522 46.5991 79.2667 46.5603 79.2764C46.2117 79.3633 44.5075 79.7207 43.7571 78.6437C43.7184 78.5906 43.6942 78.5278 43.6797 78.465Z" fill="#FEBAC7"/>
<path d="M82.7551 78.465L83.7912 74.2827C83.8638 73.9977 83.6992 73.7031 83.4135 73.6162L81.995 73.1767C81.7965 73.1139 81.6464 72.9497 81.6125 72.7469L81.3704 71.4477C81.322 71.1821 81.0896 70.9938 80.8185 70.9938H79.6566C79.4629 70.9938 79.2838 70.8923 79.1821 70.733L78.4752 69.6029C78.3155 69.3469 77.9766 69.2648 77.7151 69.4193L76.3692 70.2162C76.1998 70.3176 75.9867 70.3225 75.8124 70.221L75.0233 69.7816C74.7667 69.6367 74.4471 69.7188 74.2825 69.9603L71.4551 74.2247C71.2808 74.4903 71.3583 74.8429 71.6294 75.0071L72.254 75.3886C72.4864 75.5287 72.7865 75.4852 72.9657 75.2824C73.3336 74.867 74.0259 75.1858 73.9388 75.7364L73.9097 75.9199C73.871 76.1613 73.9969 76.398 74.2148 76.5042L79.7631 79.2329C79.8018 79.2522 79.8357 79.2667 79.8744 79.2764C80.223 79.3633 81.9272 79.7207 82.6776 78.6437C82.7164 78.5906 82.7406 78.5278 82.7551 78.465Z" fill="#FEBAC7"/>
<path d="M42.6242 72.8531C42.6242 72.8531 42.6 72.8531 42.5903 72.8531L29.4409 70.9213C29.3102 70.902 29.2182 70.7812 29.2376 70.646C29.2569 70.5156 29.378 70.419 29.5135 70.4432L42.6629 72.375C42.7937 72.3943 42.8856 72.515 42.8663 72.6503C42.8469 72.771 42.7452 72.8579 42.629 72.8579L42.6242 72.8531Z" fill="#000D41"/>
<path d="M84.9677 73.5485C84.8515 73.5485 84.7498 73.4665 84.7304 73.3505C84.7062 73.2201 84.7934 73.0946 84.9241 73.0704L95.614 71.1676C95.7496 71.1435 95.8706 71.2304 95.8948 71.3608C95.919 71.4912 95.8319 71.6167 95.7012 71.6409L85.0112 73.5437C85.0112 73.5437 84.9822 73.5437 84.9677 73.5437V73.5485Z" fill="#000D41"/>
<path d="M51.3243 17.2364C51.3243 17.2364 49.4797 33.0627 60.7797 33.0627C71.0581 33.0627 70.6999 19.4435 70.6999 19.4435C70.6999 19.4435 71.7262 11.016 63.7572 10.0646C55.7882 9.10836 50.845 14.3918 51.3243 17.2364Z" fill="#FEBAC7"/>
<path d="M67.9644 12.0399C67.9644 12.0399 65.4517 16.9467 67.9983 19.4387C69.6202 21.0276 70.3416 23.3216 69.8187 25.5335L69.7897 25.6543C69.7897 25.6543 74.055 22.2833 74.849 15.4495C75.643 8.61576 72.5299 4.31266 69.8962 4.79561C69.8962 4.79561 68.8504 -0.45407 62.1595 0.0337113C55.4735 0.526322 49.9542 -0.0145835 47.5335 5.27373C45.1127 10.5621 49.3345 15.1936 49.3345 15.1936C49.3345 15.1936 49.6637 20.791 51.944 25.6591L51.0532 19.1248C51.0532 19.1248 58.4025 9.2774 67.9644 12.0495V12.0399Z" fill="#170C30"/>
<path d="M70.5691 20.2935L69.7897 25.6495C69.7897 25.6495 73.5902 23.6404 73.5273 20.9117C73.5079 20.0038 73.1884 19.5015 72.7769 19.2359C71.8957 18.6708 70.7192 19.26 70.5691 20.2935Z" fill="#FEBAC7"/>
<path d="M51.3437 18.7529L52.0021 25.6543C52.0021 25.6543 48.3517 23.5438 48.4146 20.8151C48.4776 18.0865 51.3437 18.7529 51.3437 18.7529Z" fill="#FEBAC7"/>
<path d="M81.2397 55.7327H43.1907C41.5168 55.7327 40.1599 57.0862 40.1599 58.7559V83.8018C40.1599 85.4715 41.5168 86.8251 43.1907 86.8251H81.2397C82.9136 86.8251 84.2705 85.4715 84.2705 83.8018V58.7559C84.2705 57.0862 82.9136 55.7327 81.2397 55.7327Z" fill="#E6E7E8"/>
<path d="M83.5346 88.2885H40.891C40.4843 88.2885 40.1599 87.9601 40.1599 87.5544C40.1599 87.1488 40.4891 86.8252 40.891 86.8252H83.5346C83.9412 86.8252 84.2656 87.1536 84.2656 87.5544C84.2656 87.9601 83.9364 88.2885 83.5346 88.2885Z" fill="#746980"/>
<path d="M76.8776 87.8151C77.0514 87.8151 77.1923 87.6745 77.1923 87.5012C77.1923 87.3278 77.0514 87.1873 76.8776 87.1873C76.7038 87.1873 76.5629 87.3278 76.5629 87.5012C76.5629 87.6745 76.7038 87.8151 76.8776 87.8151Z" fill="#34225E"/>
<path d="M75.8076 87.1873H73.2852V87.8103H75.8076V87.1873Z" fill="#34225E"/>
<path d="M16.9499 69.231L75.3767 104.617C70.6708 108.427 68.0564 113.402 67.001 119.26L6.13896 88.6843C0.0145163 85.6079 -1.9027 77.7986 2.10603 72.2447C5.50957 67.5311 11.9729 66.2174 16.9499 69.2359V69.231Z" fill="#113A81"/>
<path d="M58.48 109.992L54.7714 113.117L62.1111 116.802C64.3043 114.918 68.589 111.277 69.228 111.035C70.0898 110.707 58.4848 109.987 58.4848 109.987L58.48 109.992Z" fill="#170C30"/>
<path d="M75.3767 104.622L85.1081 110.094C85.8343 110.504 86.086 111.422 85.6745 112.141C83.1085 116.609 74.544 131.039 70.0221 133C70.0221 133 66.3668 131.831 67.7659 127.065C69.1651 122.303 67.2818 117.893 67.2818 117.893C67.2818 117.893 67.6013 106.785 75.3767 104.622Z" fill="#170C30"/>
<path d="M70.022 133C74.544 131.039 83.1085 116.604 85.6745 112.141C86.0037 111.571 85.9117 110.881 85.505 110.412C83.7669 111.441 76.2385 116.657 70.022 133Z" fill="#2C4B80"/>
<path d="M106.047 73.2299L44.3138 102.506C48.6034 106.776 50.6997 111.992 51.15 117.922L114.815 93.6781C121.225 91.2392 123.927 83.6617 120.509 77.731C117.604 72.6939 111.305 70.7379 106.047 73.2299Z" fill="#113A81"/>
<path d="M44.3139 102.506L34.0742 106.959C33.3092 107.292 32.9655 108.181 33.3044 108.939C35.4007 113.643 42.4499 128.871 46.7491 131.281C46.7491 131.281 50.5013 130.489 49.5959 125.606C48.6906 120.723 51.0096 116.531 51.0096 116.531C51.0096 116.531 51.8278 105.452 44.309 102.506H44.3139Z" fill="#170C30"/>
<path d="M46.7492 131.281C42.4499 128.871 35.4008 113.643 33.3044 108.939C33.0381 108.34 33.1979 107.659 33.653 107.239C35.2797 108.437 42.2369 114.392 46.754 131.281H46.7492Z" fill="#2C4B80"/>
<path d="M22.2562 69.7043C21.8205 75.3645 21.7333 79.5759 22.1545 80.1506C22.537 80.677 29.3102 81.2082 38.8963 81.6188L22.261 69.7043H22.2562Z" fill="#63B6FF"/>
<path d="M83.9025 82.348C96.9067 82.1983 106.967 81.6332 107.616 80.4307C108.081 79.571 107.795 76.4029 107.064 72.0708L83.9025 82.348Z" fill="#63B6FF"/>
<path d="M46.6814 101.623C46.5894 101.623 46.5022 101.569 46.4635 101.483C46.4054 101.362 46.4587 101.217 46.5797 101.159L57.6521 95.9093C57.7732 95.8513 57.9184 95.9044 57.9765 96.0252C58.0346 96.1459 57.9814 96.2908 57.8603 96.3487L46.7879 101.598C46.754 101.613 46.7201 101.623 46.6862 101.623H46.6814Z" fill="#000D41"/>
</g>
<defs>
<clipPath id="clip0_0_730">
<rect width="122" height="133" fill="white"/>
</clipPath>
</defs>
</svg>
