<svg width="766" height="319" viewBox="0 0 766 319" fill="none" xmlns="http://www.w3.org/2000/svg">
<g opacity="0.3">
<path d="M764.873 900.637L578.979 826.155V0L764.873 55.5552V900.637Z" fill="#68BCBC"/>
<path d="M393.109 900.984L578.98 826.456V0L393.109 55.5783V900.984Z" fill="#A3D3D3"/>
<path d="M578.98 978.383L393.109 902.188V57.1986L578.98 114.003V978.383Z" fill="#68BCBC"/>
<path d="M578.979 978.383L764.873 902.188V57.1986L578.979 114.003V978.383Z" fill="#94D6DA"/>
<g style="mix-blend-mode:multiply" opacity="0.4">
<path d="M766.004 895.616L580.134 821.111V270.765L766.004 326.32V895.616Z" fill="#70C4C4"/>
<path d="M394.242 895.963L580.135 821.435V270.765L394.242 326.343V895.963Z" fill="#ABD6D6"/>
</g>
<path d="M534.763 1029.64L348.892 955.155V129L534.763 184.555V1029.64Z" fill="#D84A32"/>
<path d="M163 1029.98L348.893 955.479V129L163 184.578V1029.98Z" fill="#E87360"/>
<path d="M348.893 1107.38L163 1031.21V186.199L348.893 243.004V1107.38Z" fill="#D84A32"/>
<path d="M348.892 1107.38L534.763 1031.21V186.199L348.892 243.004V1107.38Z" fill="#F26649"/>
<path d="M253 842.079L126.508 791.363V229L253 266.816V842.079Z" fill="#DB612C"/>
<path d="M0 842.3L126.508 791.584V229L0 266.832V842.3Z" fill="#E28361"/>
<path d="M126.508 895L0 843.134V267.935L126.508 306.617V895Z" fill="#DB612C"/>
<path d="M126.508 895L253 843.134V267.935L126.508 306.617V895Z" fill="#F58345"/>
</g>
</svg>
