<svg width="720" height="720" viewBox="0 0 720 720" fill="none" xmlns="http://www.w3.org/2000/svg">
<g filter="url(#filter0_f_4426_1064)">
<circle cx="360" cy="380" r="258" fill="url(#paint0_radial_4426_1064)"/>
</g>
<path d="M214.625 277.297C217.034 262.83 229.55 252.226 244.217 252.226H577.591C596.127 252.226 610.228 268.869 607.183 287.154L573.375 490.154C570.966 504.621 558.45 515.226 543.783 515.226H210.409C191.873 515.226 177.772 498.582 180.817 480.297L214.625 277.297Z" fill="url(#paint1_linear_4426_1064)"/>
<path d="M204.077 258.872C206.205 246.093 217.262 236.726 230.217 236.726H563.591C579.965 236.726 592.42 251.427 589.731 267.579L555.923 470.579C553.795 483.358 542.738 492.726 529.783 492.726H196.409C180.035 492.726 167.58 478.024 170.269 461.872L204.077 258.872Z" fill="url(#paint2_linear_4426_1064)"/>
<path d="M204.077 258.872C206.205 246.093 217.262 236.726 230.217 236.726H563.591C579.965 236.726 592.42 251.427 589.731 267.579L555.923 470.579C553.795 483.358 542.738 492.726 529.783 492.726H196.409C180.035 492.726 167.58 478.024 170.269 461.872L204.077 258.872Z" stroke="black" stroke-width="7"/>
<path d="M204.077 258.872C206.205 246.093 217.262 236.726 230.217 236.726H563.591C579.965 236.726 592.42 251.427 589.731 267.579L555.923 470.579C553.795 483.358 542.738 492.726 529.783 492.726H196.409C180.035 492.726 167.58 478.024 170.269 461.872L204.077 258.872Z" stroke="url(#paint3_linear_4426_1064)" stroke-width="7"/>
<rect x="199" y="294.226" width="385" height="6" fill="url(#paint4_linear_4426_1064)"/>
<rect x="199" y="294.226" width="385" height="6" fill="url(#paint5_linear_4426_1064)"/>
<path d="M213.544 336.229C214.518 330.453 219.52 326.226 225.376 326.226H546.606C554.098 326.226 559.758 333.015 558.41 340.385L557.13 347.385C556.087 353.085 551.12 357.226 545.326 357.226H224.195C216.77 357.226 211.127 350.55 212.362 343.229L213.544 336.229Z" fill="url(#paint6_linear_4426_1064)"/>
<path d="M203.995 385.094C205.488 377.612 212.056 372.226 219.686 372.226H533.776C543.776 372.226 551.325 381.296 549.51 391.13L539.171 447.13C537.771 454.718 531.154 460.226 523.437 460.226H208.509C198.415 460.226 190.843 450.993 192.818 441.094L203.995 385.094Z" fill="url(#paint7_linear_4426_1064)"/>
<ellipse cx="241" cy="267.226" rx="11" ry="10" fill="black"/>
<ellipse cx="241" cy="267.226" rx="11" ry="10" fill="url(#paint8_linear_4426_1064)"/>
<ellipse cx="274.5" cy="267.226" rx="10.5" ry="10" fill="black"/>
<ellipse cx="274.5" cy="267.226" rx="10.5" ry="10" fill="url(#paint9_linear_4426_1064)"/>
<mask id="path-9-outside-1_4426_1064" maskUnits="userSpaceOnUse" x="456" y="441" width="125" height="125" fill="black">
<rect fill="white" x="456" y="441" width="125" height="125"/>
<path fill-rule="evenodd" clip-rule="evenodd" d="M545.487 522.982C552.065 514.767 556 504.343 556 493C556 466.49 534.51 445 508 445C507.981 445 507.962 445 507.943 445C507.481 444.999 507.019 445.006 506.556 445.018C494.321 445.358 482.68 450.37 474.025 459.025C465.37 467.68 460.358 479.321 460.018 491.556C460.006 492.019 459.999 492.481 460 492.943C460 492.962 460 492.981 460 493C460 519.51 481.49 541 508 541C519.343 541 529.767 537.065 537.982 530.487L544.771 537.276C543.868 538.277 543.382 539.586 543.414 540.934C543.446 542.282 543.993 543.566 544.942 544.524L560.864 560.445C561.357 560.938 561.942 561.329 562.586 561.596C563.229 561.863 563.92 562 564.616 562C565.313 562 566.004 561.863 566.647 561.596C567.291 561.329 567.876 560.938 568.369 560.445L575.445 553.369C575.938 552.876 576.329 552.291 576.596 551.647C576.863 551.004 577 550.313 577 549.616C577 548.92 576.863 548.229 576.596 547.586C576.329 546.942 575.938 546.357 575.445 545.864L559.524 529.942C558.566 528.993 557.282 528.446 555.934 528.414C554.586 528.382 553.277 528.868 552.276 529.771L545.487 522.982Z"/>
</mask>
<path fill-rule="evenodd" clip-rule="evenodd" d="M545.487 522.982C552.065 514.767 556 504.343 556 493C556 466.49 534.51 445 508 445C507.981 445 507.962 445 507.943 445C507.481 444.999 507.019 445.006 506.556 445.018C494.321 445.358 482.68 450.37 474.025 459.025C465.37 467.68 460.358 479.321 460.018 491.556C460.006 492.019 459.999 492.481 460 492.943C460 492.962 460 492.981 460 493C460 519.51 481.49 541 508 541C519.343 541 529.767 537.065 537.982 530.487L544.771 537.276C543.868 538.277 543.382 539.586 543.414 540.934C543.446 542.282 543.993 543.566 544.942 544.524L560.864 560.445C561.357 560.938 561.942 561.329 562.586 561.596C563.229 561.863 563.92 562 564.616 562C565.313 562 566.004 561.863 566.647 561.596C567.291 561.329 567.876 560.938 568.369 560.445L575.445 553.369C575.938 552.876 576.329 552.291 576.596 551.647C576.863 551.004 577 550.313 577 549.616C577 548.92 576.863 548.229 576.596 547.586C576.329 546.942 575.938 546.357 575.445 545.864L559.524 529.942C558.566 528.993 557.282 528.446 555.934 528.414C554.586 528.382 553.277 528.868 552.276 529.771L545.487 522.982Z" fill="#010B1C"/>
<path d="M545.487 522.982L542.365 520.482L540.125 523.277L542.658 525.81L545.487 522.982ZM507.943 445L507.938 449L507.948 449L507.943 445ZM506.556 445.018L506.667 449.017L506.556 445.018ZM474.025 459.025L476.854 461.854L474.025 459.025ZM460.018 491.556L464.017 491.667L460.018 491.556ZM460 492.943L464 492.948L464 492.938L460 492.943ZM537.982 530.487L540.81 527.658L538.277 525.125L535.482 527.365L537.982 530.487ZM544.771 537.276L547.741 539.956L550.287 537.135L547.6 534.448L544.771 537.276ZM544.942 544.524L542.103 547.341L542.108 547.346L542.114 547.352L544.942 544.524ZM560.864 560.445L563.693 557.617L563.693 557.617L560.864 560.445ZM568.369 560.445L565.54 557.617L565.54 557.617L568.369 560.445ZM575.445 553.369L572.617 550.54L572.617 550.54L575.445 553.369ZM575.445 545.864L572.617 548.693L572.617 548.693L575.445 545.864ZM559.524 529.942L562.352 527.114L562.346 527.108L562.341 527.103L559.524 529.942ZM555.934 528.414L555.84 532.413H555.84L555.934 528.414ZM552.276 529.771L549.448 532.6L552.135 535.287L554.956 532.741L552.276 529.771ZM552 493C552 503.402 548.396 512.951 542.365 520.482L548.609 525.482C555.735 516.584 560 505.284 560 493H552ZM508 449C532.301 449 552 468.699 552 493H560C560 464.281 536.719 441 508 441V449ZM507.948 449C507.965 449 507.983 449 508 449V441C507.979 441 507.959 441 507.938 441L507.948 449ZM507.948 441C507.448 440.999 506.947 441.006 506.445 441.02L506.667 449.017C507.092 449.005 507.515 449 507.938 449L507.948 441ZM506.445 441.02C493.188 441.388 480.575 446.819 471.197 456.197L476.854 461.854C484.786 453.922 495.454 449.328 506.667 449.017L506.445 441.02ZM471.197 456.197C461.819 465.575 456.388 478.188 456.02 491.445L464.017 491.667C464.328 480.454 468.922 469.786 476.854 461.854L471.197 456.197ZM456.02 491.445C456.006 491.947 455.999 492.448 456 492.948L464 492.938C464 492.515 464.005 492.092 464.017 491.667L456.02 491.445ZM464 493C464 492.983 464 492.965 464 492.948L456 492.938C456 492.959 456 492.979 456 493H464ZM508 537C483.699 537 464 517.301 464 493H456C456 521.719 479.281 545 508 545V537ZM535.482 527.365C527.951 533.396 518.402 537 508 537V545C520.284 545 531.584 540.735 540.482 533.609L535.482 527.365ZM535.154 533.315L541.943 540.105L547.6 534.448L540.81 527.658L535.154 533.315ZM541.802 534.596C540.213 536.356 539.359 538.658 539.415 541.028L547.413 540.84C547.405 540.514 547.523 540.198 547.741 539.956L541.802 534.596ZM539.415 541.028C539.471 543.399 540.433 545.658 542.103 547.341L547.782 541.706C547.553 541.475 547.421 541.165 547.413 540.84L539.415 541.028ZM542.114 547.352L558.036 563.274L563.693 557.617L547.771 541.695L542.114 547.352ZM558.035 563.273C558.899 564.137 559.925 564.823 561.054 565.291L564.117 557.901C563.958 557.835 563.814 557.739 563.693 557.617L558.035 563.273ZM561.054 565.291C562.184 565.759 563.394 566 564.616 566V558C564.445 558 564.275 557.966 564.117 557.901L561.054 565.291ZM564.616 566C565.839 566 567.049 565.759 568.179 565.291L565.116 557.901C564.958 557.966 564.788 558 564.616 558V566ZM568.179 565.291C569.308 564.823 570.334 564.137 571.198 563.273L565.54 557.617C565.419 557.739 565.275 557.835 565.116 557.901L568.179 565.291ZM571.197 563.274L578.274 556.197L572.617 550.54L565.54 557.617L571.197 563.274ZM578.273 556.198C579.137 555.334 579.823 554.308 580.291 553.179L572.901 550.116C572.835 550.275 572.739 550.419 572.617 550.54L578.273 556.198ZM580.291 553.179C580.759 552.049 581 550.839 581 549.616H573C573 549.788 572.966 549.958 572.901 550.116L580.291 553.179ZM581 549.616C581 548.394 580.759 547.184 580.291 546.054L572.901 549.117C572.966 549.275 573 549.445 573 549.616H581ZM580.291 546.054C579.823 544.925 579.137 543.899 578.273 543.035L572.617 548.693C572.739 548.814 572.835 548.958 572.901 549.117L580.291 546.054ZM578.274 543.036L562.352 527.114L556.695 532.771L572.617 548.693L578.274 543.036ZM562.341 527.103C560.658 525.433 558.399 524.471 556.028 524.415L555.84 532.413C556.165 532.421 556.475 532.553 556.706 532.782L562.341 527.103ZM556.028 524.415C553.658 524.359 551.356 525.213 549.596 526.802L554.956 532.741C555.198 532.523 555.514 532.405 555.84 532.413L556.028 524.415ZM555.105 526.943L548.315 520.154L542.658 525.81L549.448 532.6L555.105 526.943Z" fill="url(#paint10_linear_4426_1064)" mask="url(#path-9-outside-1_4426_1064)"/>
<path d="M545.487 522.982L542.365 520.482L540.125 523.277L542.658 525.81L545.487 522.982ZM507.943 445L507.938 449L507.948 449L507.943 445ZM506.556 445.018L506.667 449.017L506.556 445.018ZM474.025 459.025L476.854 461.854L474.025 459.025ZM460.018 491.556L464.017 491.667L460.018 491.556ZM460 492.943L464 492.948L464 492.938L460 492.943ZM537.982 530.487L540.81 527.658L538.277 525.125L535.482 527.365L537.982 530.487ZM544.771 537.276L547.741 539.956L550.287 537.135L547.6 534.448L544.771 537.276ZM544.942 544.524L542.103 547.341L542.108 547.346L542.114 547.352L544.942 544.524ZM560.864 560.445L563.693 557.617L563.693 557.617L560.864 560.445ZM568.369 560.445L565.54 557.617L565.54 557.617L568.369 560.445ZM575.445 553.369L572.617 550.54L572.617 550.54L575.445 553.369ZM575.445 545.864L572.617 548.693L572.617 548.693L575.445 545.864ZM559.524 529.942L562.352 527.114L562.346 527.108L562.341 527.103L559.524 529.942ZM555.934 528.414L555.84 532.413H555.84L555.934 528.414ZM552.276 529.771L549.448 532.6L552.135 535.287L554.956 532.741L552.276 529.771ZM552 493C552 503.402 548.396 512.951 542.365 520.482L548.609 525.482C555.735 516.584 560 505.284 560 493H552ZM508 449C532.301 449 552 468.699 552 493H560C560 464.281 536.719 441 508 441V449ZM507.948 449C507.965 449 507.983 449 508 449V441C507.979 441 507.959 441 507.938 441L507.948 449ZM507.948 441C507.448 440.999 506.947 441.006 506.445 441.02L506.667 449.017C507.092 449.005 507.515 449 507.938 449L507.948 441ZM506.445 441.02C493.188 441.388 480.575 446.819 471.197 456.197L476.854 461.854C484.786 453.922 495.454 449.328 506.667 449.017L506.445 441.02ZM471.197 456.197C461.819 465.575 456.388 478.188 456.02 491.445L464.017 491.667C464.328 480.454 468.922 469.786 476.854 461.854L471.197 456.197ZM456.02 491.445C456.006 491.947 455.999 492.448 456 492.948L464 492.938C464 492.515 464.005 492.092 464.017 491.667L456.02 491.445ZM464 493C464 492.983 464 492.965 464 492.948L456 492.938C456 492.959 456 492.979 456 493H464ZM508 537C483.699 537 464 517.301 464 493H456C456 521.719 479.281 545 508 545V537ZM535.482 527.365C527.951 533.396 518.402 537 508 537V545C520.284 545 531.584 540.735 540.482 533.609L535.482 527.365ZM535.154 533.315L541.943 540.105L547.6 534.448L540.81 527.658L535.154 533.315ZM541.802 534.596C540.213 536.356 539.359 538.658 539.415 541.028L547.413 540.84C547.405 540.514 547.523 540.198 547.741 539.956L541.802 534.596ZM539.415 541.028C539.471 543.399 540.433 545.658 542.103 547.341L547.782 541.706C547.553 541.475 547.421 541.165 547.413 540.84L539.415 541.028ZM542.114 547.352L558.036 563.274L563.693 557.617L547.771 541.695L542.114 547.352ZM558.035 563.273C558.899 564.137 559.925 564.823 561.054 565.291L564.117 557.901C563.958 557.835 563.814 557.739 563.693 557.617L558.035 563.273ZM561.054 565.291C562.184 565.759 563.394 566 564.616 566V558C564.445 558 564.275 557.966 564.117 557.901L561.054 565.291ZM564.616 566C565.839 566 567.049 565.759 568.179 565.291L565.116 557.901C564.958 557.966 564.788 558 564.616 558V566ZM568.179 565.291C569.308 564.823 570.334 564.137 571.198 563.273L565.54 557.617C565.419 557.739 565.275 557.835 565.116 557.901L568.179 565.291ZM571.197 563.274L578.274 556.197L572.617 550.54L565.54 557.617L571.197 563.274ZM578.273 556.198C579.137 555.334 579.823 554.308 580.291 553.179L572.901 550.116C572.835 550.275 572.739 550.419 572.617 550.54L578.273 556.198ZM580.291 553.179C580.759 552.049 581 550.839 581 549.616H573C573 549.788 572.966 549.958 572.901 550.116L580.291 553.179ZM581 549.616C581 548.394 580.759 547.184 580.291 546.054L572.901 549.117C572.966 549.275 573 549.445 573 549.616H581ZM580.291 546.054C579.823 544.925 579.137 543.899 578.273 543.035L572.617 548.693C572.739 548.814 572.835 548.958 572.901 549.117L580.291 546.054ZM578.274 543.036L562.352 527.114L556.695 532.771L572.617 548.693L578.274 543.036ZM562.341 527.103C560.658 525.433 558.399 524.471 556.028 524.415L555.84 532.413C556.165 532.421 556.475 532.553 556.706 532.782L562.341 527.103ZM556.028 524.415C553.658 524.359 551.356 525.213 549.596 526.802L554.956 532.741C555.198 532.523 555.514 532.405 555.84 532.413L556.028 524.415ZM555.105 526.943L548.315 520.154L542.658 525.81L549.448 532.6L555.105 526.943Z" fill="url(#paint11_linear_4426_1064)" mask="url(#path-9-outside-1_4426_1064)"/>
<ellipse cx="308" cy="267.226" rx="11" ry="10" fill="black"/>
<ellipse cx="308" cy="267.226" rx="11" ry="10" fill="url(#paint12_linear_4426_1064)"/>
<path d="M128.555 171.65C116.667 175.27 109.965 187.841 113.585 199.728L133.945 266.583C137.565 278.471 150.137 285.173 162.024 281.553L228.879 261.193C240.767 257.573 247.468 245.001 243.848 233.114L223.488 166.259C219.868 154.371 207.297 147.67 195.41 151.29L128.555 171.65Z" fill="black"/>
<path d="M128.555 171.65C116.667 175.27 109.965 187.841 113.585 199.728L133.945 266.583C137.565 278.471 150.137 285.173 162.024 281.553L228.879 261.193C240.767 257.573 247.468 245.001 243.848 233.114L223.488 166.259C219.868 154.371 207.297 147.67 195.41 151.29L128.555 171.65Z" fill="url(#paint13_linear_4426_1064)" fill-opacity="0.6"/>
<path d="M128.555 171.65C116.667 175.27 109.965 187.841 113.585 199.728L133.945 266.583C137.565 278.471 150.137 285.173 162.024 281.553L228.879 261.193C240.767 257.573 247.468 245.001 243.848 233.114L223.488 166.259C219.868 154.371 207.297 147.67 195.41 151.29L128.555 171.65Z" fill="url(#paint14_linear_4426_1064)" fill-opacity="0.8"/>
<path d="M128.555 171.65C116.667 175.27 109.965 187.841 113.585 199.728L133.945 266.583C137.565 278.471 150.137 285.173 162.024 281.553L228.879 261.193C240.767 257.573 247.468 245.001 243.848 233.114L223.488 166.259C219.868 154.371 207.297 147.67 195.41 151.29L128.555 171.65Z" stroke="url(#paint15_linear_4426_1064)" stroke-width="5"/>
<g clip-path="url(#clip0_4426_1064)">
<path d="M198.36 172.939L174.178 180.303C173.449 180.525 172.838 181.028 172.48 181.7C172.121 182.372 172.045 183.159 172.267 183.888L174.275 190.483C174.408 190.921 174.71 191.287 175.113 191.502C175.516 191.717 175.989 191.763 176.426 191.63L178.624 190.961C179.936 190.561 181.353 190.699 182.563 191.344C183.773 191.989 184.678 193.089 185.077 194.401C185.477 195.713 185.339 197.129 184.694 198.34C184.049 199.55 182.949 200.454 181.637 200.854L179.439 201.523C179.001 201.656 178.635 201.958 178.42 202.361C178.205 202.764 178.159 203.237 178.292 203.674L180.301 210.269C180.523 210.998 181.025 211.609 181.697 211.967C182.37 212.326 183.157 212.402 183.885 212.18L191.03 210.005L191.45 211.383C191.891 212.925 192.885 214.25 194.243 215.104C195.6 215.958 197.224 216.282 198.805 216.012C199.671 215.84 200.491 215.488 201.213 214.979C201.935 214.471 202.542 213.817 202.996 213.059C203.45 212.302 203.74 211.458 203.848 210.582C203.957 209.705 203.88 208.816 203.624 207.971L203.122 206.322L210.267 204.146C210.995 203.924 211.606 203.422 211.965 202.75C212.323 202.077 212.4 201.29 212.178 200.561L204.813 176.379C204.414 175.067 203.509 173.967 202.299 173.322C201.089 172.677 199.672 172.539 198.36 172.939Z" fill="url(#paint16_linear_4426_1064)"/>
<mask id="path-14-inside-2_4426_1064" fill="white">
<path d="M160.092 260.265L201.862 247.545C203.173 247.144 204.271 246.24 204.916 245.03C205.561 243.82 205.7 242.404 205.302 241.092L199.276 221.306C199.054 220.578 198.551 219.968 197.879 219.609C197.207 219.251 196.42 219.174 195.692 219.395L190.195 221.069C189.467 221.291 188.857 221.794 188.498 222.466C188.14 223.138 188.063 223.925 188.284 224.654L188.619 225.753C188.841 226.482 188.764 227.269 188.406 227.941C188.048 228.614 187.437 229.116 186.708 229.338C185.979 229.56 185.192 229.483 184.52 229.125C183.847 228.766 183.345 228.156 183.123 227.427L182.788 226.328C182.566 225.599 182.063 224.989 181.391 224.63C180.719 224.272 179.932 224.195 179.203 224.416L174.257 225.923L172.918 221.526L173.468 221.359C175.071 220.87 176.415 219.765 177.203 218.286C177.992 216.807 178.16 215.075 177.672 213.472C177.184 211.868 176.078 210.525 174.599 209.736C173.12 208.948 171.389 208.779 169.785 209.267L169.236 209.435L167.729 204.488C167.507 203.76 167.004 203.149 166.332 202.791C165.66 202.433 164.873 202.356 164.144 202.577L144.359 208.603C143.048 209.003 141.949 209.908 141.304 211.118C140.659 212.327 140.521 213.743 140.918 215.055L153.639 256.825C154.04 258.136 154.944 259.235 156.154 259.88C157.364 260.525 158.78 260.663 160.092 260.265ZM179.658 227.881L179.825 228.431C180.314 230.034 181.419 231.378 182.898 232.167C184.377 232.955 186.109 233.124 187.712 232.636C189.316 232.147 190.659 231.042 191.448 229.563C192.236 228.084 192.405 226.352 191.917 224.749L191.749 224.199L196.146 222.86L202.004 242.096C202.137 242.534 202.091 243.006 201.876 243.409C201.661 243.812 201.295 244.114 200.858 244.247L181.621 250.105L180.115 245.159C179.892 244.431 179.39 243.82 178.718 243.462C178.046 243.104 177.259 243.027 176.53 243.248L175.431 243.583C174.702 243.805 173.915 243.728 173.243 243.369C172.57 243.011 172.068 242.4 171.846 241.671C171.624 240.943 171.701 240.155 172.059 239.483C172.418 238.811 173.028 238.308 173.757 238.086L174.856 237.752C175.585 237.529 176.195 237.027 176.553 236.355C176.912 235.682 176.989 234.896 176.768 234.167L175.261 229.22L179.658 227.881ZM144.216 214.051C144.083 213.614 144.13 213.142 144.345 212.738C144.56 212.335 144.926 212.034 145.363 211.9L164.599 206.042L166.105 210.988C166.328 211.717 166.83 212.327 167.503 212.686C168.175 213.044 168.961 213.121 169.69 212.9L170.789 212.565C171.518 212.343 172.305 212.42 172.978 212.778C173.65 213.136 174.152 213.747 174.374 214.476C174.596 215.205 174.52 215.992 174.161 216.664C173.803 217.337 173.192 217.839 172.463 218.061L171.364 218.396C170.636 218.618 170.025 219.121 169.667 219.793C169.309 220.465 169.232 221.252 169.453 221.981L170.959 226.927L166.562 228.266L166.395 227.716C165.907 226.113 164.802 224.769 163.322 223.981C161.843 223.192 160.112 223.024 158.508 223.512C156.905 224 155.561 225.105 154.773 226.584C153.984 228.064 153.815 229.795 154.304 231.399L154.471 231.948L150.074 233.287L144.216 214.051ZM151.079 236.585L156.025 235.079C156.753 234.856 157.364 234.353 157.722 233.681C158.08 233.009 158.157 232.222 157.936 231.494L157.601 230.394C157.379 229.666 157.456 228.878 157.814 228.206C158.173 227.534 158.784 227.031 159.513 226.81C160.241 226.588 161.028 226.664 161.701 227.023C162.373 227.381 162.875 227.992 163.097 228.721L163.432 229.82C163.655 230.548 164.157 231.159 164.829 231.517C165.501 231.875 166.288 231.952 167.017 231.731L171.964 230.225L173.303 234.621L172.753 234.789C171.15 235.277 169.806 236.382 169.017 237.861C168.229 239.341 168.06 241.072 168.548 242.676C169.037 244.279 170.142 245.623 171.621 246.411C173.1 247.2 174.832 247.368 176.435 246.88L176.985 246.713L178.324 251.11L159.088 256.968C158.65 257.1 158.178 257.054 157.775 256.839C157.372 256.624 157.07 256.258 156.937 255.821L151.079 236.585Z"/>
</mask>
<path d="M160.092 260.265L201.862 247.545C203.173 247.144 204.271 246.24 204.916 245.03C205.561 243.82 205.7 242.404 205.302 241.092L199.276 221.306C199.054 220.578 198.551 219.968 197.879 219.609C197.207 219.251 196.42 219.174 195.692 219.395L190.195 221.069C189.467 221.291 188.857 221.794 188.498 222.466C188.14 223.138 188.063 223.925 188.284 224.654L188.619 225.753C188.841 226.482 188.764 227.269 188.406 227.941C188.048 228.614 187.437 229.116 186.708 229.338C185.979 229.56 185.192 229.483 184.52 229.125C183.847 228.766 183.345 228.156 183.123 227.427L182.788 226.328C182.566 225.599 182.063 224.989 181.391 224.63C180.719 224.272 179.932 224.195 179.203 224.416L174.257 225.923L172.918 221.526L173.468 221.359C175.071 220.87 176.415 219.765 177.203 218.286C177.992 216.807 178.16 215.075 177.672 213.472C177.184 211.868 176.078 210.525 174.599 209.736C173.12 208.948 171.389 208.779 169.785 209.267L169.236 209.435L167.729 204.488C167.507 203.76 167.004 203.149 166.332 202.791C165.66 202.433 164.873 202.356 164.144 202.577L144.359 208.603C143.048 209.003 141.949 209.908 141.304 211.118C140.659 212.327 140.521 213.743 140.918 215.055L153.639 256.825C154.04 258.136 154.944 259.235 156.154 259.88C157.364 260.525 158.78 260.663 160.092 260.265ZM179.658 227.881L179.825 228.431C180.314 230.034 181.419 231.378 182.898 232.167C184.377 232.955 186.109 233.124 187.712 232.636C189.316 232.147 190.659 231.042 191.448 229.563C192.236 228.084 192.405 226.352 191.917 224.749L191.749 224.199L196.146 222.86L202.004 242.096C202.137 242.534 202.091 243.006 201.876 243.409C201.661 243.812 201.295 244.114 200.858 244.247L181.621 250.105L180.115 245.159C179.892 244.431 179.39 243.82 178.718 243.462C178.046 243.104 177.259 243.027 176.53 243.248L175.431 243.583C174.702 243.805 173.915 243.728 173.243 243.369C172.57 243.011 172.068 242.4 171.846 241.671C171.624 240.943 171.701 240.155 172.059 239.483C172.418 238.811 173.028 238.308 173.757 238.086L174.856 237.752C175.585 237.529 176.195 237.027 176.553 236.355C176.912 235.682 176.989 234.896 176.768 234.167L175.261 229.22L179.658 227.881ZM144.216 214.051C144.083 213.614 144.13 213.142 144.345 212.738C144.56 212.335 144.926 212.034 145.363 211.9L164.599 206.042L166.105 210.988C166.328 211.717 166.83 212.327 167.503 212.686C168.175 213.044 168.961 213.121 169.69 212.9L170.789 212.565C171.518 212.343 172.305 212.42 172.978 212.778C173.65 213.136 174.152 213.747 174.374 214.476C174.596 215.205 174.52 215.992 174.161 216.664C173.803 217.337 173.192 217.839 172.463 218.061L171.364 218.396C170.636 218.618 170.025 219.121 169.667 219.793C169.309 220.465 169.232 221.252 169.453 221.981L170.959 226.927L166.562 228.266L166.395 227.716C165.907 226.113 164.802 224.769 163.322 223.981C161.843 223.192 160.112 223.024 158.508 223.512C156.905 224 155.561 225.105 154.773 226.584C153.984 228.064 153.815 229.795 154.304 231.399L154.471 231.948L150.074 233.287L144.216 214.051ZM151.079 236.585L156.025 235.079C156.753 234.856 157.364 234.353 157.722 233.681C158.08 233.009 158.157 232.222 157.936 231.494L157.601 230.394C157.379 229.666 157.456 228.878 157.814 228.206C158.173 227.534 158.784 227.031 159.513 226.81C160.241 226.588 161.028 226.664 161.701 227.023C162.373 227.381 162.875 227.992 163.097 228.721L163.432 229.82C163.655 230.548 164.157 231.159 164.829 231.517C165.501 231.875 166.288 231.952 167.017 231.731L171.964 230.225L173.303 234.621L172.753 234.789C171.15 235.277 169.806 236.382 169.017 237.861C168.229 239.341 168.06 241.072 168.548 242.676C169.037 244.279 170.142 245.623 171.621 246.411C173.1 247.2 174.832 247.368 176.435 246.88L176.985 246.713L178.324 251.11L159.088 256.968C158.65 257.1 158.178 257.054 157.775 256.839C157.372 256.624 157.07 256.258 156.937 255.821L151.079 236.585Z" stroke="url(#paint17_linear_4426_1064)" stroke-width="16" mask="url(#path-14-inside-2_4426_1064)"/>
<path d="M157.357 198.038C157.49 198.475 157.791 198.842 158.195 199.057C158.598 199.272 159.07 199.318 159.508 199.185C159.945 199.051 160.311 198.75 160.526 198.347C160.741 197.943 160.787 197.471 160.654 197.034C159.991 194.847 160.222 192.487 161.297 190.471C162.372 188.454 164.203 186.947 166.388 186.279C166.825 186.146 167.192 185.844 167.407 185.441C167.622 185.037 167.668 184.565 167.534 184.128C167.401 183.691 167.1 183.324 166.696 183.109C166.293 182.894 165.821 182.848 165.384 182.981C162.325 183.916 159.761 186.027 158.257 188.85C156.752 191.672 156.428 194.977 157.357 198.038Z" fill="black"/>
<path d="M157.357 198.038C157.49 198.475 157.791 198.842 158.195 199.057C158.598 199.272 159.07 199.318 159.508 199.185C159.945 199.051 160.311 198.75 160.526 198.347C160.741 197.943 160.787 197.471 160.654 197.034C159.991 194.847 160.222 192.487 161.297 190.471C162.372 188.454 164.203 186.947 166.388 186.279C166.825 186.146 167.192 185.844 167.407 185.441C167.622 185.037 167.668 184.565 167.534 184.128C167.401 183.691 167.1 183.324 166.696 183.109C166.293 182.894 165.821 182.848 165.384 182.981C162.325 183.916 159.761 186.027 158.257 188.85C156.752 191.672 156.428 194.977 157.357 198.038Z" fill="url(#paint18_linear_4426_1064)"/>
<path d="M206.83 224.412C209.889 223.476 212.452 221.366 213.957 218.543C215.462 215.72 215.785 212.416 214.857 209.355C214.724 208.918 214.422 208.551 214.019 208.336C213.615 208.121 213.143 208.075 212.706 208.208C212.268 208.341 211.902 208.643 211.687 209.046C211.472 209.45 211.426 209.922 211.559 210.359C212.222 212.546 211.991 214.906 210.916 216.922C209.841 218.938 208.011 220.446 205.826 221.114C205.388 221.247 205.022 221.549 204.807 221.952C204.592 222.355 204.546 222.828 204.679 223.265C204.812 223.702 205.114 224.069 205.517 224.284C205.92 224.499 206.393 224.545 206.83 224.412Z" fill="black"/>
<path d="M206.83 224.412C209.889 223.476 212.452 221.366 213.957 218.543C215.462 215.72 215.785 212.416 214.857 209.355C214.724 208.918 214.422 208.551 214.019 208.336C213.615 208.121 213.143 208.075 212.706 208.208C212.268 208.341 211.902 208.643 211.687 209.046C211.472 209.45 211.426 209.922 211.559 210.359C212.222 212.546 211.991 214.906 210.916 216.922C209.841 218.938 208.011 220.446 205.826 221.114C205.388 221.247 205.022 221.549 204.807 221.952C204.592 222.355 204.546 222.828 204.679 223.265C204.812 223.702 205.114 224.069 205.517 224.284C205.92 224.499 206.393 224.545 206.83 224.412Z" fill="url(#paint19_linear_4426_1064)"/>
</g>
<g filter="url(#filter1_i_4426_1064)">
<path d="M575.445 545.864L559.524 529.942C558.566 528.993 557.282 528.446 555.934 528.414C554.586 528.382 553.277 528.868 552.276 529.771L545.29 522.785C552.932 513.224 556.624 501.1 555.605 488.902C554.587 476.704 548.937 465.36 539.815 457.198C530.693 449.037 518.792 444.679 506.556 445.018C494.321 445.358 482.68 450.37 474.025 459.025C465.37 467.68 460.358 479.321 460.018 491.556C459.679 503.792 464.037 515.693 472.198 524.815C480.36 533.937 491.704 539.587 503.902 540.605C516.1 541.624 528.224 537.932 537.785 530.29L544.771 537.276C543.868 538.277 543.382 539.586 543.414 540.934C543.446 542.282 543.993 543.566 544.942 544.524L560.864 560.445C561.357 560.938 561.942 561.329 562.586 561.596C563.229 561.863 563.92 562 564.616 562C565.313 562 566.004 561.863 566.647 561.596C567.291 561.329 567.876 560.938 568.369 560.445L575.445 553.369C575.938 552.876 576.329 552.291 576.596 551.647C576.863 551.004 577 550.313 577 549.616C577 548.92 576.863 548.229 576.596 547.586C576.329 546.942 575.938 546.357 575.445 545.864ZM529.235 498.313C527.827 498.313 526.478 497.754 525.482 496.759C524.487 495.764 523.928 494.414 523.928 493.006C523.923 488.785 522.244 484.738 519.259 481.753C516.274 478.768 512.227 477.089 508.006 477.084C506.599 477.084 505.249 476.525 504.253 475.53C503.258 474.535 502.699 473.185 502.699 471.777C502.699 470.37 503.258 469.02 504.253 468.024C505.249 467.029 506.599 466.47 508.006 466.47C515.042 466.478 521.787 469.276 526.762 474.251C531.736 479.226 534.535 485.971 534.542 493.006C534.542 494.414 533.983 495.764 532.988 496.759C531.992 497.754 530.643 498.313 529.235 498.313Z" fill="url(#paint20_linear_4426_1064)"/>
</g>
<defs>
<filter id="filter0_f_4426_1064" x="-48" y="-28" width="816" height="816" filterUnits="userSpaceOnUse" color-interpolation-filters="sRGB">
<feFlood flood-opacity="0" result="BackgroundImageFix"/>
<feBlend mode="normal" in="SourceGraphic" in2="BackgroundImageFix" result="shape"/>
<feGaussianBlur stdDeviation="75" result="effect1_foregroundBlur_4426_1064"/>
</filter>
<filter id="filter1_i_4426_1064" x="458" y="443" width="119" height="119" filterUnits="userSpaceOnUse" color-interpolation-filters="sRGB">
<feFlood flood-opacity="0" result="BackgroundImageFix"/>
<feBlend mode="normal" in="SourceGraphic" in2="BackgroundImageFix" result="shape"/>
<feColorMatrix in="SourceAlpha" type="matrix" values="0 0 0 0 0 0 0 0 0 0 0 0 0 0 0 0 0 0 127 0" result="hardAlpha"/>
<feOffset dx="-2" dy="-2"/>
<feGaussianBlur stdDeviation="1"/>
<feComposite in2="hardAlpha" operator="arithmetic" k2="-1" k3="1"/>
<feColorMatrix type="matrix" values="0 0 0 0 1 0 0 0 0 1 0 0 0 0 1 0 0 0 0.05 0"/>
<feBlend mode="normal" in2="shape" result="effect1_innerShadow_4426_1064"/>
</filter>
<radialGradient id="paint0_radial_4426_1064" cx="0" cy="0" r="1" gradientUnits="userSpaceOnUse" gradientTransform="translate(360 380) rotate(90) scale(258)">
<stop stop-color="#002781" stop-opacity="0.4"/>
<stop offset="1" stop-color="#002781" stop-opacity="0.1"/>
</radialGradient>
<linearGradient id="paint1_linear_4426_1064" x1="492.232" y1="72.5653" x2="201.383" y2="457.011" gradientUnits="userSpaceOnUse">
<stop stop-color="#175ABC"/>
<stop offset="1" stop-color="#0A1B39"/>
</linearGradient>
<linearGradient id="paint2_linear_4426_1064" x1="187.28" y1="357.712" x2="577.976" y2="358.588" gradientUnits="userSpaceOnUse">
<stop stop-color="#0B2449"/>
<stop offset="1" stop-color="#00030C"/>
</linearGradient>
<linearGradient id="paint3_linear_4426_1064" x1="159.584" y1="236.017" x2="544.163" y2="526.523" gradientUnits="userSpaceOnUse">
<stop stop-color="#217BFE"/>
<stop offset="0.181155" stop-color="#458AED"/>
<stop offset="0.389869" stop-color="#0C4494"/>
<stop offset="0.598583" stop-color="#071833"/>
<stop offset="0.745192" stop-color="#041024"/>
<stop offset="0.856196" stop-color="#020816"/>
<stop offset="1" stop-color="#010510"/>
</linearGradient>
<linearGradient id="paint4_linear_4426_1064" x1="197.756" y1="294.289" x2="198.382" y2="312.51" gradientUnits="userSpaceOnUse">
<stop stop-color="#217BFE"/>
<stop offset="0.181155" stop-color="#458AED"/>
<stop offset="0.389869" stop-color="#709BD9"/>
<stop offset="0.598583" stop-color="#8BA6CC"/>
<stop offset="0.745192" stop-color="#9FAEC3"/>
<stop offset="0.856196" stop-color="#C9D1DD"/>
<stop offset="1" stop-color="white"/>
</linearGradient>
<linearGradient id="paint5_linear_4426_1064" x1="197.756" y1="294.289" x2="599.786" y2="294.289" gradientUnits="userSpaceOnUse">
<stop stop-color="#217BFE"/>
<stop offset="0.397448" stop-color="#458AED"/>
<stop offset="0.649476" stop-color="#0C4494"/>
<stop offset="1" stop-color="#010510"/>
</linearGradient>
<linearGradient id="paint6_linear_4426_1064" x1="208.866" y1="326.555" x2="653.783" y2="326.555" gradientUnits="userSpaceOnUse">
<stop stop-color="#217BFE"/>
<stop offset="0.181155" stop-color="#458AED"/>
<stop offset="0.389869" stop-color="#0C4494"/>
<stop offset="0.598583" stop-color="#071833"/>
<stop offset="0.745192" stop-color="#041024"/>
<stop offset="0.856196" stop-color="#020816"/>
<stop offset="1" stop-color="#010510"/>
</linearGradient>
<linearGradient id="paint7_linear_4426_1064" x1="65.1785" y1="418.812" x2="604.147" y2="418.812" gradientUnits="userSpaceOnUse">
<stop stop-color="#010510"/>
<stop offset="0.143804" stop-color="#020816"/>
<stop offset="0.254808" stop-color="#041024"/>
<stop offset="0.401417" stop-color="#071833"/>
<stop offset="0.610131" stop-color="#0C4494"/>
<stop offset="0.818845" stop-color="#458AED"/>
<stop offset="1" stop-color="#217BFE"/>
</linearGradient>
<linearGradient id="paint8_linear_4426_1064" x1="229.929" y1="257.438" x2="254.221" y2="269.558" gradientUnits="userSpaceOnUse">
<stop stop-color="#217BFE"/>
<stop offset="0.181155" stop-color="#458AED"/>
<stop offset="0.389869" stop-color="#709BD9"/>
<stop offset="0.598583" stop-color="#8BA6CC"/>
<stop offset="0.745192" stop-color="#9FAEC3"/>
<stop offset="0.856196" stop-color="#C9D1DD"/>
<stop offset="1" stop-color="white"/>
</linearGradient>
<linearGradient id="paint9_linear_4426_1064" x1="263.932" y1="257.438" x2="287.538" y2="268.68" gradientUnits="userSpaceOnUse">
<stop stop-color="#217BFE"/>
<stop offset="0.181155" stop-color="#458AED"/>
<stop offset="0.389869" stop-color="#709BD9"/>
<stop offset="0.598583" stop-color="#8BA6CC"/>
<stop offset="0.745192" stop-color="#9FAEC3"/>
<stop offset="0.856196" stop-color="#C9D1DD"/>
<stop offset="1" stop-color="white"/>
</linearGradient>
<linearGradient id="paint10_linear_4426_1064" x1="459.622" y1="446.242" x2="583.897" y2="520.83" gradientUnits="userSpaceOnUse">
<stop stop-color="#217BFE"/>
<stop offset="0.665064" stop-color="#304B71"/>
<stop offset="1" stop-color="#131D2D"/>
</linearGradient>
<linearGradient id="paint11_linear_4426_1064" x1="463.341" y1="468.964" x2="584.195" y2="563.045" gradientUnits="userSpaceOnUse">
<stop stop-color="#7DA4FF"/>
<stop offset="0.516025" stop-color="#006CFF"/>
<stop offset="1" stop-color="#01132B"/>
</linearGradient>
<linearGradient id="paint12_linear_4426_1064" x1="296.929" y1="257.438" x2="321.221" y2="269.558" gradientUnits="userSpaceOnUse">
<stop stop-color="#217BFE"/>
<stop offset="0.181155" stop-color="#458AED"/>
<stop offset="0.389869" stop-color="#709BD9"/>
<stop offset="0.598583" stop-color="#8BA6CC"/>
<stop offset="0.745192" stop-color="#9FAEC3"/>
<stop offset="0.856196" stop-color="#C9D1DD"/>
<stop offset="1" stop-color="white"/>
</linearGradient>
<linearGradient id="paint13_linear_4426_1064" x1="208.269" y1="155.266" x2="148.983" y2="276.802" gradientUnits="userSpaceOnUse">
<stop stop-opacity="0"/>
<stop offset="0.472756" stop-color="#00193C" stop-opacity="0.237179"/>
<stop offset="1" stop-color="#006BFF"/>
</linearGradient>
<linearGradient id="paint14_linear_4426_1064" x1="210.937" y1="154.376" x2="150.761" y2="281.545" gradientUnits="userSpaceOnUse">
<stop stop-color="#006BFF"/>
<stop offset="0.338141" stop-color="#002558" stop-opacity="0.344552"/>
<stop offset="1" stop-opacity="0"/>
</linearGradient>
<linearGradient id="paint15_linear_4426_1064" x1="110.15" y1="181.087" x2="242.215" y2="214.098" gradientUnits="userSpaceOnUse">
<stop stop-color="#217BFE"/>
<stop offset="0.665064" stop-color="#304B71"/>
<stop offset="1" stop-color="#131D2D"/>
</linearGradient>
<linearGradient id="paint16_linear_4426_1064" x1="114.256" y1="171.261" x2="214.705" y2="174.549" gradientUnits="userSpaceOnUse">
<stop stop-color="#0955BC"/>
<stop offset="1" stop-color="#A5C0FF"/>
</linearGradient>
<linearGradient id="paint17_linear_4426_1064" x1="139.412" y1="210.708" x2="206.663" y2="219.515" gradientUnits="userSpaceOnUse">
<stop stop-color="#0955BC"/>
<stop offset="1" stop-color="#A5C0FF"/>
</linearGradient>
<linearGradient id="paint18_linear_4426_1064" x1="130.796" y1="184.417" x2="171.04" y2="188.637" gradientUnits="userSpaceOnUse">
<stop stop-color="#0955BC"/>
<stop offset="1" stop-color="#A5C0FF"/>
</linearGradient>
<linearGradient id="paint19_linear_4426_1064" x1="178.118" y1="209.644" x2="218.362" y2="213.864" gradientUnits="userSpaceOnUse">
<stop stop-color="#0955BC"/>
<stop offset="1" stop-color="#A5C0FF"/>
</linearGradient>
<linearGradient id="paint20_linear_4426_1064" x1="460" y1="487.067" x2="554.266" y2="514.096" gradientUnits="userSpaceOnUse">
<stop stop-color="#006CFF"/>
<stop offset="1" stop-color="#A5C0FF"/>
</linearGradient>
<clipPath id="clip0_4426_1064">
<rect width="73.5394" height="73.5394" fill="white" transform="translate(133.34 192.139) rotate(-16.9375)"/>
</clipPath>
</defs>
</svg>
