<svg width="46" height="46" viewBox="0 0 46 46" fill="none" xmlns="http://www.w3.org/2000/svg">
<rect x="3" y="3" width="40" height="40" rx="20" fill="#0844FF"/>
<path fill-rule="evenodd" clip-rule="evenodd" d="M9.3418 22.5672C9.3418 24.7583 10.1746 26.9494 11.3406 28.2978C12.1734 29.3091 14.1723 31.3317 15.6714 31.8373C15.3382 34.1969 13.506 37.7364 15.0051 37.0622L18.3364 34.8711C21.3347 32.68 20.0021 33.5228 23.3335 33.5228C29.9962 33.5228 36.6589 28.972 36.6589 22.5672C36.6589 15.9939 29.9962 11.7803 22.8338 11.7803C16.1711 11.7803 9.3418 16.1625 9.3418 22.5672ZM17.5036 20.2076H16.1711V25.0954C16.1711 25.264 16.0045 25.6011 16.0045 25.6011C15.8379 25.7696 15.6714 25.7696 15.5048 25.7696C15.3382 25.7696 15.1717 25.7696 15.0051 25.6011C14.8385 25.4325 14.8385 25.264 14.8385 25.0954V20.2076H13.3394C13.1728 20.2076 13.0063 20.2076 12.8397 20.2076C12.6731 20.039 12.6731 19.8705 12.6731 19.702C12.6731 19.5334 12.6731 19.3649 12.8397 19.3649C13.0063 19.1963 13.1728 19.1963 13.3394 19.1963H17.5036C17.8367 19.1963 18.0033 19.1963 18.0033 19.3649C18.1699 19.3649 18.1699 19.5334 18.1699 19.702C18.1699 19.8705 18.1699 20.039 18.0033 20.2076C18.0033 20.2076 17.8367 20.2076 17.5036 20.2076ZM21.6678 24.9269L21.3347 24.2527H18.6696L18.3364 25.0954C18.1699 25.264 18.1699 25.6011 18.0033 25.6011C18.0033 25.7696 17.8367 25.7696 17.6702 25.7696C17.5036 25.7696 17.337 25.7696 17.1705 25.6011C17.0039 25.6011 17.0039 25.4325 17.0039 25.264C17.0039 25.0954 17.0039 25.0954 17.0039 24.9269C17.0039 24.9269 17.1705 24.7583 17.1705 24.5898L18.8361 20.3761C18.8361 20.2076 19.0027 20.039 19.0027 19.8705C19.0027 19.702 19.1693 19.5334 19.1693 19.5334C19.3358 19.3649 19.3358 19.1963 19.5024 19.1963C19.669 19.0278 19.8356 19.0278 20.0021 19.0278C20.1687 19.0278 20.3353 19.0278 20.5018 19.1963L20.6684 19.3649C20.835 19.5334 20.835 19.702 20.835 19.8705C21.0015 19.8705 21.0015 20.039 21.1681 20.3761L22.8338 24.5898C23.0003 24.9269 23.0003 25.0954 23.0003 25.264C23.0003 25.4325 23.0003 25.6011 22.8338 25.6011C22.6672 25.7696 22.5006 25.7696 22.3341 25.7696H22.1675C22.0009 25.7696 22.0009 25.7696 21.8344 25.6011C21.8344 25.6011 21.8344 25.4325 21.6678 25.4325C21.6678 25.264 21.6678 25.0954 21.6678 24.9269ZM19.0027 23.2414H21.0015L20.0021 20.5447L19.0027 23.2414ZM24.666 19.8705V24.5898H26.4983C26.6648 24.5898 26.8314 24.7583 26.998 24.7583C27.1645 24.9269 27.1645 25.0954 27.1645 25.264C27.1645 25.4325 27.1645 25.4325 26.998 25.6011C26.8314 25.7696 26.6648 25.7696 26.4983 25.7696H24.1663C23.8332 25.7696 23.6666 25.6011 23.5 25.6011C23.3335 25.4325 23.3335 25.264 23.3335 24.9269V19.8705C23.3335 19.5334 23.3335 19.3649 23.5 19.1963C23.6666 19.1963 23.6666 19.0278 23.9997 19.0278C24.1663 19.0278 24.3329 19.1963 24.3329 19.1963C24.4994 19.3649 24.666 19.5334 24.666 19.8705ZM28.6636 19.8705V22.2301L31.3287 19.5334C31.4953 19.3649 31.4953 19.1963 31.6618 19.1963C31.6618 19.0278 31.8284 19.0278 31.995 19.0278C32.1615 19.0278 32.3281 19.1963 32.4947 19.1963C32.4947 19.3649 32.6613 19.5334 32.6613 19.702C32.6613 19.8705 32.4947 20.039 32.3281 20.2076L30.6624 21.7245L32.4947 24.4213C32.6613 24.5898 32.8278 24.7583 32.8278 24.9269C32.9944 25.0954 32.9944 25.0954 32.9944 25.264C32.9944 25.4325 32.8278 25.6011 32.8278 25.7696C32.6613 25.7696 32.4947 25.7696 32.3281 25.7696C32.1615 25.7696 31.995 25.7696 31.8284 25.7696C31.8284 25.6011 31.6618 25.6011 31.6618 25.4325C31.4953 25.264 31.4953 25.0954 31.3287 25.0954L29.8296 22.5672L28.6636 23.7471V25.0954C28.6636 25.264 28.6636 25.6011 28.4971 25.6011C28.4971 25.7696 28.3305 25.7696 28.1639 25.7696C27.9974 25.7696 27.8308 25.7696 27.8308 25.7696C27.6642 25.7696 27.4977 25.6011 27.4977 25.6011C27.4977 25.4325 27.4977 25.264 27.4977 25.264C27.4977 25.0954 27.4977 24.9269 27.4977 24.7583V19.8705C27.4977 19.5334 27.4977 19.3649 27.6642 19.1963C27.6642 19.1963 27.8308 19.0278 28.1639 19.0278C28.3305 19.0278 28.4971 19.1963 28.4971 19.1963C28.6636 19.3649 28.6636 19.5334 28.6636 19.8705Z" fill="white"/>
</svg>
