<svg width="195" height="123" viewBox="0 0 195 123" fill="none" xmlns="http://www.w3.org/2000/svg">
<g clip-path="url(#clip0_0_226)">
<path d="M171.711 112.488L171.901 108.226C173.881 107.169 176.089 106.611 178.334 106.6C175.244 109.122 175.631 113.982 173.536 117.372C172.196 119.504 169.958 120.912 167.453 121.198L164.867 122.778C164.149 118.783 165.22 114.675 167.797 111.535C168.52 110.672 169.349 109.903 170.265 109.247C170.884 110.876 171.711 112.488 171.711 112.488Z" fill="#F2F2F2"/>
<path d="M41.0124 107.817L34.7732 105.932C33.9549 102.614 33.9605 99.1463 34.7895 95.8308C37.3588 101.338 44.7002 102.599 48.9312 106.965C51.5832 109.745 52.8248 113.577 52.3054 117.38L53.6711 121.789C47.4854 121.343 41.8054 118.216 38.1275 113.232C37.1217 111.84 36.2955 110.328 35.6684 108.73C38.3146 108.431 41.0124 107.817 41.0124 107.817Z" fill="#F2F2F2"/>
<path d="M150.092 122.081C150.091 122.21 150.04 122.334 149.949 122.426C149.858 122.516 149.735 122.567 149.606 122.566H147.653C147.385 122.567 147.168 122.352 147.167 122.085V63.1201C147.167 61.8203 146.73 60.7655 146.193 60.763H24.5952C24.0558 60.7654 23.6209 61.8203 23.6185 63.1201V121.72C23.6177 121.97 23.4277 122.178 23.1788 122.203C22.7852 122.241 22.3916 122.275 22.0004 122.307C21.9907 122.307 21.981 122.309 21.9713 122.309C21.7575 122.329 21.5437 122.343 21.3299 122.36H21.3274C21.2157 122.159 21.1088 121.953 20.9994 121.747C20.9644 121.677 20.9461 121.599 20.946 121.521V60.0622C20.946 59.7033 20.9606 59.342 20.9849 58.9855C21.0195 58.496 21.0803 58.0087 21.1671 57.5257C21.5777 55.2728 22.5058 53.7475 23.5602 53.7427H147.225C147.379 53.7437 147.531 53.7759 147.672 53.8373C147.88 53.9288 148.067 54.0597 148.224 54.2228C148.437 54.4439 148.619 54.6927 148.766 54.9624C149.286 55.8767 149.657 57.2395 149.789 58.8255C149.789 58.84 149.791 58.8546 149.791 58.8691C149.825 59.2619 149.842 59.6621 149.84 60.0622L149.874 65.2589L149.895 68.3581L149.961 78.0823L149.985 81.5355L150.092 122.081Z" fill="#E6E6E6"/>
<path d="M104.963 35.7653H92.571C92.2059 35.7659 91.9104 36.0616 91.9108 36.426V55.965H105.625V36.426C105.625 36.0613 105.329 35.7655 104.964 35.7653H104.963ZM98.8087 46.8672C98.0021 46.8634 97.3492 46.2117 97.3454 45.4066V43.153C97.3454 42.3463 98.0006 41.6924 98.8087 41.6924C99.6169 41.6924 100.272 42.3463 100.272 43.153V45.4066C100.268 46.2117 99.6154 46.8634 98.8087 46.8672Z" fill="#CCCCCC"/>
<path d="M91.8683 55.34V57.2252C91.8687 57.4285 92.0337 57.5933 92.2375 57.5937H105.298C105.502 57.5927 105.667 57.4283 105.668 57.2252V55.34H91.8683Z" fill="#3F3D56"/>
<path d="M125.483 5.2724H72.5118C71.5642 5.27391 70.7965 6.04022 70.795 6.98599V42.6641C70.7959 43.6101 71.564 44.3768 72.5118 44.3777H125.483C126.431 44.3768 127.199 43.6101 127.2 42.6641V6.98599C127.199 6.04022 126.431 5.27391 125.483 5.2724Z" fill="#E6E6E6"/>
<path d="M125.041 6.5101H72.9544C72.447 6.5112 72.0362 6.92202 72.0362 7.42844V42.2222C72.0371 42.728 72.4476 43.1378 72.9544 43.1387H125.041C125.548 43.1378 125.959 42.728 125.959 42.2222V7.42844C125.959 6.92202 125.549 6.5112 125.041 6.5101Z" fill="white"/>
<path d="M114.896 58.2497H83.9068C83.5919 58.2497 83.3367 57.995 83.3367 57.6807C83.3367 57.6413 83.3408 57.6021 83.3489 57.5635L83.8298 55.2841C83.8861 55.0214 84.1183 54.8333 84.3875 54.8323H114.415C114.684 54.8333 114.916 55.0214 114.973 55.2841L115.453 57.5635C115.518 57.871 115.321 58.1728 115.013 58.2375C114.974 58.2456 114.935 58.2497 114.896 58.2497Z" fill="#CCCCCC"/>
<path d="M85.4434 55.2427H84.7262C84.6606 55.2427 84.6075 55.2957 84.6075 55.3611V55.6959C84.6075 55.7613 84.6606 55.8143 84.7262 55.8143H85.4434C85.5089 55.8143 85.562 55.7613 85.562 55.6959V55.3611C85.562 55.2957 85.5089 55.2427 85.4434 55.2427Z" fill="#E6E6E6"/>
<path d="M87.3522 55.2427H86.635C86.5695 55.2427 86.5164 55.2957 86.5164 55.3611V55.6959C86.5164 55.7613 86.5695 55.8143 86.635 55.8143H87.3522C87.4177 55.8143 87.4709 55.7613 87.4709 55.6959V55.3611C87.4709 55.2957 87.4177 55.2427 87.3522 55.2427Z" fill="#E6E6E6"/>
<path d="M89.2611 55.2427H88.5439C88.4784 55.2427 88.4253 55.2957 88.4253 55.3611V55.6959C88.4253 55.7613 88.4784 55.8143 88.5439 55.8143H89.2611C89.3266 55.8143 89.3797 55.7613 89.3797 55.6959V55.3611C89.3797 55.2957 89.3266 55.2427 89.2611 55.2427Z" fill="#E6E6E6"/>
<path d="M91.1699 55.2427H90.4527C90.3872 55.2427 90.3341 55.2957 90.3341 55.3611V55.6959C90.3341 55.7613 90.3872 55.8143 90.4527 55.8143H91.1699C91.2354 55.8143 91.2885 55.7613 91.2885 55.6959V55.3611C91.2885 55.2957 91.2354 55.2427 91.1699 55.2427Z" fill="#E6E6E6"/>
<path d="M93.0788 55.2427H92.3616C92.2961 55.2427 92.243 55.2957 92.243 55.3611V55.6959C92.243 55.7613 92.2961 55.8143 92.3616 55.8143H93.0788C93.1443 55.8143 93.1974 55.7613 93.1974 55.6959V55.3611C93.1974 55.2957 93.1443 55.2427 93.0788 55.2427Z" fill="#E6E6E6"/>
<path d="M94.9877 55.2427H94.2705C94.205 55.2427 94.1519 55.2957 94.1519 55.3611V55.6959C94.1519 55.7613 94.205 55.8143 94.2705 55.8143H94.9877C95.0532 55.8143 95.1063 55.7613 95.1063 55.6959V55.3611C95.1063 55.2957 95.0532 55.2427 94.9877 55.2427Z" fill="#E6E6E6"/>
<path d="M96.8965 55.2427H96.1793C96.1138 55.2427 96.0607 55.2957 96.0607 55.3611V55.6959C96.0607 55.7613 96.1138 55.8143 96.1793 55.8143H96.8965C96.962 55.8143 97.0151 55.7613 97.0151 55.6959V55.3611C97.0151 55.2957 96.962 55.2427 96.8965 55.2427Z" fill="#E6E6E6"/>
<path d="M98.8054 55.2427H98.0882C98.0226 55.2427 97.9695 55.2957 97.9695 55.3611V55.6959C97.9695 55.7613 98.0226 55.8143 98.0882 55.8143H98.8054C98.8709 55.8143 98.924 55.7613 98.924 55.6959V55.3611C98.924 55.2957 98.8709 55.2427 98.8054 55.2427Z" fill="#E6E6E6"/>
<path d="M100.714 55.2427H99.997C99.9315 55.2427 99.8784 55.2957 99.8784 55.3611V55.6959C99.8784 55.7613 99.9315 55.8143 99.997 55.8143H100.714C100.78 55.8143 100.833 55.7613 100.833 55.6959V55.3611C100.833 55.2957 100.78 55.2427 100.714 55.2427Z" fill="#E6E6E6"/>
<path d="M102.623 55.2427H101.906C101.84 55.2427 101.787 55.2957 101.787 55.3611V55.6959C101.787 55.7613 101.84 55.8143 101.906 55.8143H102.623C102.689 55.8143 102.742 55.7613 102.742 55.6959V55.3611C102.742 55.2957 102.689 55.2427 102.623 55.2427Z" fill="#E6E6E6"/>
<path d="M104.532 55.2427H103.815C103.749 55.2427 103.696 55.2957 103.696 55.3611V55.6959C103.696 55.7613 103.749 55.8143 103.815 55.8143H104.532C104.597 55.8143 104.651 55.7613 104.651 55.6959V55.3611C104.651 55.2957 104.597 55.2427 104.532 55.2427Z" fill="#E6E6E6"/>
<path d="M106.441 55.2427H105.724C105.658 55.2427 105.605 55.2957 105.605 55.3611V55.6959C105.605 55.7613 105.658 55.8143 105.724 55.8143H106.441C106.506 55.8143 106.559 55.7613 106.559 55.6959V55.3611C106.559 55.2957 106.506 55.2427 106.441 55.2427Z" fill="#E6E6E6"/>
<path d="M108.35 55.2427H107.632C107.567 55.2427 107.514 55.2957 107.514 55.3611V55.6959C107.514 55.7613 107.567 55.8143 107.632 55.8143H108.35C108.415 55.8143 108.468 55.7613 108.468 55.6959V55.3611C108.468 55.2957 108.415 55.2427 108.35 55.2427Z" fill="#E6E6E6"/>
<path d="M110.258 55.2427H109.541C109.476 55.2427 109.423 55.2957 109.423 55.3611V55.6959C109.423 55.7613 109.476 55.8143 109.541 55.8143H110.258C110.324 55.8143 110.377 55.7613 110.377 55.6959V55.3611C110.377 55.2957 110.324 55.2427 110.258 55.2427Z" fill="#E6E6E6"/>
<path d="M112.167 55.2427H111.45C111.385 55.2427 111.332 55.2957 111.332 55.3611V55.6959C111.332 55.7613 111.385 55.8143 111.45 55.8143H112.167C112.233 55.8143 112.286 55.7613 112.286 55.6959V55.3611C112.286 55.2957 112.233 55.2427 112.167 55.2427Z" fill="#E6E6E6"/>
<path d="M114.076 55.2427H113.359C113.293 55.2427 113.24 55.2957 113.24 55.3611V55.6959C113.24 55.7613 113.293 55.8143 113.359 55.8143H114.076C114.142 55.8143 114.195 55.7613 114.195 55.6959V55.3611C114.195 55.2957 114.142 55.2427 114.076 55.2427Z" fill="#E6E6E6"/>
<path d="M85.4208 56.1954H84.7036C84.6381 56.1954 84.585 56.2484 84.585 56.3138V56.6486C84.585 56.7139 84.6381 56.7669 84.7036 56.7669H85.4208C85.4863 56.7669 85.5394 56.7139 85.5394 56.6486V56.3138C85.5394 56.2484 85.4863 56.1954 85.4208 56.1954Z" fill="#E6E6E6"/>
<path d="M87.3297 56.1954H86.6125C86.547 56.1954 86.4939 56.2484 86.4939 56.3138V56.6486C86.4939 56.7139 86.547 56.7669 86.6125 56.7669H87.3297C87.3952 56.7669 87.4483 56.7139 87.4483 56.6486V56.3138C87.4483 56.2484 87.3952 56.1954 87.3297 56.1954Z" fill="#E6E6E6"/>
<path d="M89.2385 56.1954H88.5213C88.4558 56.1954 88.4027 56.2484 88.4027 56.3138V56.6486C88.4027 56.7139 88.4558 56.7669 88.5213 56.7669H89.2385C89.304 56.7669 89.3571 56.7139 89.3571 56.6486V56.3138C89.3571 56.2484 89.304 56.1954 89.2385 56.1954Z" fill="#E6E6E6"/>
<path d="M91.1474 56.1954H90.4302C90.3647 56.1954 90.3116 56.2484 90.3116 56.3138V56.6486C90.3116 56.7139 90.3647 56.7669 90.4302 56.7669H91.1474C91.2129 56.7669 91.266 56.7139 91.266 56.6486V56.3138C91.266 56.2484 91.2129 56.1954 91.1474 56.1954Z" fill="#E6E6E6"/>
<path d="M93.0562 56.1954H92.339C92.2735 56.1954 92.2204 56.2484 92.2204 56.3138V56.6486C92.2204 56.7139 92.2735 56.7669 92.339 56.7669H93.0562C93.1218 56.7669 93.1749 56.7139 93.1749 56.6486V56.3138C93.1749 56.2484 93.1218 56.1954 93.0562 56.1954Z" fill="#E6E6E6"/>
<path d="M94.9651 56.1954H94.2479C94.1824 56.1954 94.1293 56.2484 94.1293 56.3138V56.6486C94.1293 56.7139 94.1824 56.7669 94.2479 56.7669H94.9651C95.0306 56.7669 95.0837 56.7139 95.0837 56.6486V56.3138C95.0837 56.2484 95.0306 56.1954 94.9651 56.1954Z" fill="#E6E6E6"/>
<path d="M96.874 56.1954H96.1568C96.0913 56.1954 96.0381 56.2484 96.0381 56.3138V56.6486C96.0381 56.7139 96.0913 56.7669 96.1568 56.7669H96.874C96.9395 56.7669 96.9926 56.7139 96.9926 56.6486V56.3138C96.9926 56.2484 96.9395 56.1954 96.874 56.1954Z" fill="#E6E6E6"/>
<path d="M98.7828 56.1954H98.0656C98.0001 56.1954 97.947 56.2484 97.947 56.3138V56.6486C97.947 56.7139 98.0001 56.7669 98.0656 56.7669H98.7828C98.8483 56.7669 98.9014 56.7139 98.9014 56.6486V56.3138C98.9014 56.2484 98.8483 56.1954 98.7828 56.1954Z" fill="#E6E6E6"/>
<path d="M100.692 56.1954H99.9744C99.9089 56.1954 99.8558 56.2484 99.8558 56.3138V56.6486C99.8558 56.7139 99.9089 56.7669 99.9744 56.7669H100.692C100.757 56.7669 100.81 56.7139 100.81 56.6486V56.3138C100.81 56.2484 100.757 56.1954 100.692 56.1954Z" fill="#E6E6E6"/>
<path d="M102.601 56.1954H101.883C101.818 56.1954 101.765 56.2484 101.765 56.3138V56.6486C101.765 56.7139 101.818 56.7669 101.883 56.7669H102.601C102.666 56.7669 102.719 56.7139 102.719 56.6486V56.3138C102.719 56.2484 102.666 56.1954 102.601 56.1954Z" fill="#E6E6E6"/>
<path d="M104.509 56.1954H103.792C103.727 56.1954 103.674 56.2484 103.674 56.3138V56.6486C103.674 56.7139 103.727 56.7669 103.792 56.7669H104.509C104.575 56.7669 104.628 56.7139 104.628 56.6486V56.3138C104.628 56.2484 104.575 56.1954 104.509 56.1954Z" fill="#E6E6E6"/>
<path d="M106.418 56.1954H105.701C105.636 56.1954 105.582 56.2484 105.582 56.3138V56.6486C105.582 56.7139 105.636 56.7669 105.701 56.7669H106.418C106.484 56.7669 106.537 56.7139 106.537 56.6486V56.3138C106.537 56.2484 106.484 56.1954 106.418 56.1954Z" fill="#E6E6E6"/>
<path d="M108.327 56.1954H107.61C107.544 56.1954 107.491 56.2484 107.491 56.3138V56.6486C107.491 56.7139 107.544 56.7669 107.61 56.7669H108.327C108.393 56.7669 108.446 56.7139 108.446 56.6486V56.3138C108.446 56.2484 108.393 56.1954 108.327 56.1954Z" fill="#E6E6E6"/>
<path d="M110.236 56.1954H109.519C109.453 56.1954 109.4 56.2484 109.4 56.3138V56.6486C109.4 56.7139 109.453 56.7669 109.519 56.7669H110.236C110.301 56.7669 110.355 56.7139 110.355 56.6486V56.3138C110.355 56.2484 110.301 56.1954 110.236 56.1954Z" fill="#E6E6E6"/>
<path d="M112.145 56.1954H111.428C111.362 56.1954 111.309 56.2484 111.309 56.3138V56.6486C111.309 56.7139 111.362 56.7669 111.428 56.7669H112.145C112.21 56.7669 112.263 56.7139 112.263 56.6486V56.3138C112.263 56.2484 112.21 56.1954 112.145 56.1954Z" fill="#E6E6E6"/>
<path d="M114.054 56.1954H113.336C113.271 56.1954 113.218 56.2484 113.218 56.3138V56.6486C113.218 56.7139 113.271 56.7669 113.336 56.7669H114.054C114.119 56.7669 114.172 56.7139 114.172 56.6486V56.3138C114.172 56.2484 114.119 56.1954 114.054 56.1954Z" fill="#E6E6E6"/>
<path d="M101.264 57.3386H93.8661C93.8006 57.3386 93.7475 57.3916 93.7475 57.4569V57.7918C93.7475 57.8571 93.8006 57.9101 93.8661 57.9101H101.264C101.33 57.9101 101.383 57.8571 101.383 57.7918V57.4569C101.383 57.3916 101.33 57.3386 101.264 57.3386Z" fill="#E6E6E6"/>
<path d="M122.423 11.3039H73.6854C73.5784 11.3015 73.4935 11.213 73.4959 11.1062C73.4982 11.0027 73.5817 10.9193 73.6854 10.917H122.423C122.53 10.9193 122.615 11.0079 122.613 11.1147C122.61 11.2182 122.527 11.3016 122.423 11.3039Z" fill="#CACACA"/>
<path d="M77.003 9.92928C77.6304 9.92928 78.1389 9.41039 78.1389 8.7703C78.1389 8.13022 77.6304 7.61133 77.003 7.61133C76.3757 7.61133 75.8672 8.13022 75.8672 8.7703C75.8672 9.41039 76.3757 9.92928 77.003 9.92928Z" fill="#CCCCCC"/>
<path d="M80.9269 9.92928C81.5542 9.92928 82.0627 9.41039 82.0627 8.7703C82.0627 8.13022 81.5542 7.61133 80.9269 7.61133C80.2996 7.61133 79.791 8.13022 79.791 8.7703C79.791 9.41039 80.2996 9.92928 80.9269 9.92928Z" fill="#CCCCCC"/>
<path d="M84.8508 9.92928C85.4781 9.92928 85.9866 9.41039 85.9866 8.7703C85.9866 8.13022 85.4781 7.61133 84.8508 7.61133C84.2234 7.61133 83.7149 8.13022 83.7149 8.7703C83.7149 9.41039 84.2234 9.92928 84.8508 9.92928Z" fill="#CCCCCC"/>
<path d="M98.0043 14.2371L97.8468 13.7781L117.978 3.33801L118.135 3.79706L98.0043 14.2371Z" fill="#3F3D56"/>
<path d="M158.743 33.5745L158.586 33.1154L170.699 22.7282L170.857 23.187L158.743 33.5745Z" fill="#3F3D56"/>
<path d="M135.471 35.9924L115.34 25.5523L115.497 25.0933L135.628 35.5334L135.471 35.9924Z" fill="#3F3D56"/>
<path d="M145.776 28.7276L133.974 9.38931L134.347 9.07819L146.148 28.4165L145.776 28.7276Z" fill="#3F3D56"/>
<path d="M154.986 3.52932L143.492 3.47645V2.99146L154.986 3.04432V3.52932Z" fill="#3F3D56"/>
<path d="M175.806 6.53764H162.93C161.185 6.53764 159.771 5.12622 159.771 3.38515C159.771 1.64408 161.185 0.232666 162.93 0.232666H175.806C177.551 0.232666 178.965 1.64408 178.965 3.38515C178.965 5.12622 177.551 6.53764 175.806 6.53764Z" fill="#6C63FF"/>
<path d="M191.842 24.9676H178.965C177.22 24.9676 175.806 23.5562 175.806 21.8151C175.806 20.074 177.22 18.6626 178.965 18.6626H191.842C193.586 18.6626 195 20.074 195 21.8151C195 23.5562 193.586 24.9676 191.842 24.9676Z" fill="#6C63FF"/>
<path d="M171.021 37.9639L159.527 37.9113V37.4263L171.021 37.479V37.9639Z" fill="#3F3D56"/>
<path d="M191.842 40.9725H178.965C177.22 40.9725 175.806 39.5611 175.806 37.82C175.806 36.079 177.22 34.6675 178.965 34.6675H191.842C193.586 34.6675 195 36.079 195 37.82C195 39.5611 193.586 40.9725 191.842 40.9725Z" fill="#6C63FF"/>
<path d="M154.183 38.7998H141.307C139.562 38.7998 138.148 37.3884 138.148 35.6473C138.148 33.9063 139.562 32.4948 141.307 32.4948H154.183C155.928 32.4948 157.342 33.9063 157.342 35.6473C157.342 37.3884 155.928 38.7998 154.183 38.7998Z" fill="#6C63FF"/>
<path d="M136.69 6.30497H123.814C122.069 6.30497 120.655 4.89356 120.655 3.15249C120.655 1.41142 122.069 0 123.814 0H136.69C138.435 0 139.849 1.41142 139.849 3.15249C139.849 4.89356 138.435 6.30497 136.69 6.30497Z" fill="#6C63FF"/>
<path d="M75.1424 60.426H60.565C59.4915 60.426 58.6213 61.2945 58.6213 62.366C58.6213 63.4374 59.4915 64.3059 60.565 64.3059H65.91V79.3409H69.7973V64.3059H75.1424C76.2158 64.3059 77.086 63.4374 77.086 62.366C77.086 61.2945 76.2158 60.426 75.1424 60.426Z" fill="#3F3D56"/>
<path d="M84.7637 87.6675H45.7733C37.9601 87.639 31.3498 81.8959 30.2443 74.1759L28.8642 69.1087C26.0075 58.6085 21.6563 48.5716 15.9434 39.3048C13.3323 35.0723 11.9883 30.9753 15.0409 27.0307C15.0668 26.9971 15.0924 26.964 15.1175 26.9313C17.5658 23.7507 29.7519 23.0621 33.7245 22.9282C33.8815 22.9229 34.039 22.9202 34.1971 22.9203H58.4488C58.6071 22.9203 58.7646 22.9229 58.9213 22.9282C63.2844 23.0552 67.2255 25.5624 69.1829 29.4565C71.2716 33.4322 71.0051 38.2314 68.4891 41.9524C59.9701 54.7251 57.3619 62.7339 60.0322 67.9204C62.6151 72.9371 70.5328 75.5021 84.9495 75.992C88.8238 76.1237 90.6018 79.1348 90.6143 81.8767C90.6264 84.5477 88.9169 87.4968 85.1349 87.6597C85.012 87.6649 84.8883 87.6675 84.7637 87.6675Z" fill="#3F3D56"/>
<path d="M52.3969 122.224H66.9744C68.0478 122.224 68.918 121.355 68.918 120.284C68.918 119.212 68.0478 118.344 66.9744 118.344H61.6293V85.6063H57.742V118.344H52.3969C51.3235 118.344 50.4533 119.212 50.4533 120.284C50.4533 121.355 51.3235 122.224 52.3969 122.224Z" fill="#3F3D56"/>
<path d="M65.5909 109.026L68.1021 110.387L74.7499 101.213L71.0433 99.2034L65.5909 109.026Z" fill="#A0616A"/>
<path d="M66.7997 105.756L71.3585 107.181L70.6329 109.088L73.759 113.616C74.159 114.195 74.0127 114.989 73.4324 115.388C73.0871 115.625 72.6469 115.678 72.2549 115.53L66.9478 113.517L66.7507 111.285L65.6758 113.035L63.6748 112.276L66.7997 105.756Z" fill="#2F2E41"/>
<path d="M71.9358 16.5083C72.1607 18.0475 71.093 19.4773 69.5508 19.7018C69.3864 19.7257 69.2202 19.7351 69.0541 19.7298L59.372 40.2926L56.3353 36.0659L66.3023 16.6221C66.4554 15.0657 67.8437 13.9278 69.4031 14.0807C70.7079 14.2085 71.755 15.2122 71.9358 16.5083Z" fill="#A0616A"/>
<path d="M39.8048 44.4502C39.8048 44.4502 39.5453 48.0425 43.6156 48.747C47.6859 49.4516 58.5669 42.5839 60.3539 41.5294C62.141 40.4749 65.471 27.2073 65.471 27.2073L62.5749 22.3181C58.9992 26.8326 56.1913 30.9956 56.0208 33.9507L39.8048 44.4502Z" fill="#6C63FF"/>
<path d="M44.5038 56.8241L45.3828 60.594C45.3828 60.594 45.3915 64.0702 46.0083 64.7112C46.6207 65.3491 60.0889 64.0682 60.0889 64.0682C60.0889 64.0682 58.661 58.4665 58.6799 54.228L44.5038 56.8241Z" fill="#A0616A"/>
<path d="M72.9558 105.046L68.0966 102.378C68.0042 96.0673 71.8074 87.5268 76.3182 78.5813C66.2299 80.313 56.7125 80.8678 48.4804 78.7729C45.6683 78.0317 43.9735 75.1742 44.675 72.3569C44.707 72.224 44.7441 72.0924 44.7862 71.9623C45.7714 68.962 43.5622 67.0813 45.5941 63.7814C50.9383 61.9596 56.0151 61.4452 60.6575 63.0539L63.5663 69.4731L77.9839 67.611C80.8993 67.2631 83.5452 69.34 83.8938 72.2499C83.8954 72.2631 83.8969 72.2764 83.8984 72.2897C83.9178 72.4459 83.9304 72.6027 83.9364 72.7602C81.0211 86.4014 77.7522 98.6757 72.9558 105.046Z" fill="#2F2E41"/>
<path d="M42.5466 32.9566L48.1009 32.6293C48.581 32.601 49.0263 32.8798 49.2097 33.3236L50.7793 37.1215L57.3028 42.5031C57.3028 42.5031 59.8856 45.7836 59.8916 50.0204C59.8976 54.2571 60.8079 64.0634 60.8079 64.0634C60.8079 64.0634 57.0384 58.7676 54.7118 60.1761C54.316 60.4157 54.1768 60.9058 53.7622 61.1534C53.5554 61.277 53.0776 61.1569 52.8687 61.2806C49.6627 63.1802 46.3191 65.0361 46.0067 64.7107C45.3933 64.0718 44.6492 60.807 44.6492 60.807L39.5651 42.162C39.0069 40.1756 39.3678 38.0442 40.5489 36.3513C40.9041 35.8521 41.2762 35.4808 41.6221 35.4194C42.3986 35.2543 41.9855 33.5172 42.5466 32.9566Z" fill="#6C63FF"/>
<path d="M89.7943 116.923L92.1388 115.296L86.8275 105.295L83.3673 107.696L89.7943 116.923Z" fill="#A0616A"/>
<path d="M90.1486 110.212L86.4743 113.491C80.6317 106.993 76.2149 97.8796 72.4718 87.5305C62.6647 84.6636 55.2688 80.0401 48.8122 74.5503C46.6219 72.7004 44.9799 70.3239 46.848 68.0705C46.9353 67.9651 47.0265 67.8633 47.1216 67.7649C49.3272 65.5024 54.9206 65.9335 58.1966 63.8607L65.5148 71.6683L65.0545 73.7615L78.8004 78.4089C81.5675 79.3769 83.0246 82.4006 82.0548 85.1625C82.05 85.176 82.0452 85.1895 82.0403 85.2031C81.9888 85.3518 81.9311 85.4983 81.867 85.6423L90.1486 110.212Z" fill="#2F2E41"/>
<path d="M88.4273 116.264L92.1804 113.314L93.3465 114.988L98.8563 114.971C99.5611 114.969 100.134 115.538 100.137 116.241C100.138 116.66 99.9331 117.052 99.5887 117.291L94.9271 120.526L92.9701 119.427L93.8099 121.301L92.0523 122.52L88.4273 116.264Z" fill="#2F2E41"/>
<path d="M50.7484 79.9454C49.3139 79.3376 48.6445 77.6842 49.2534 76.2523C49.3183 76.0997 49.3967 75.953 49.4874 75.8141L36.9134 56.8745L42.1093 56.4803L53.5775 75.0816C54.8304 76.0207 55.0833 77.7958 54.1424 79.0463C53.3551 80.0928 51.952 80.4644 50.7484 79.9454Z" fill="#A0616A"/>
<path d="M43.5187 38.0264C43.5187 38.0264 40.5782 35.939 37.8606 39.0445C35.143 42.1499 35.3699 54.9977 35.3444 57.0696C35.3364 57.7183 36.275 59.1183 37.5682 60.7353C38.1488 61.4613 38.8008 62.231 39.4707 62.9961C39.8584 63.4389 39.5243 64.3606 39.9136 64.7909C40.3008 65.2189 41.4112 65.1558 41.7795 65.553C43.5274 67.4386 44.9473 68.8738 44.9473 68.8738L50.6374 68.9437C50.7016 64.7217 47.8049 60.9532 44.0835 57.3109L43.5187 38.0264Z" fill="#6C63FF"/>
<path d="M37.7832 19.6443C37.2445 20.0324 36.6778 20.4322 36.0204 20.5284C35.3631 20.6246 34.5935 20.3074 34.4116 19.6696C34.1892 18.8898 34.8947 18.1798 35.5287 17.673L37.5394 16.0659C37.9076 15.74 38.3233 15.4717 38.7722 15.2703C39.229 15.0698 39.7523 15.0872 40.1946 15.3178C40.634 15.614 40.8881 16.1164 40.8659 16.6451C40.8372 17.1663 40.6649 17.6695 40.3679 18.0991C39.6137 19.2725 38.4122 20.0877 37.0416 20.356" fill="#2F2E41"/>
<path d="M53.0333 61.3959H38.4559C37.3824 61.3959 36.5122 62.2645 36.5122 63.3359C36.5122 64.4073 37.3824 65.2759 38.4559 65.2759H43.8009V80.3109H47.6883V65.2759H53.0333C54.1068 65.2759 54.977 64.4073 54.977 63.3359C54.977 62.2645 54.1068 61.3959 53.0333 61.3959Z" fill="#3F3D56"/>
<path d="M38.6764 15.5741C38.7351 14.1196 37.1821 12.9678 35.727 13.0589C34.2718 13.1499 33.0209 14.1716 32.1956 15.3718C31.3706 16.571 30.875 17.96 30.2251 19.262C29.5752 20.5641 28.7097 21.8389 27.4182 22.5136C26.1269 23.1873 24.3295 23.0671 23.437 21.9168C22.8742 22.7688 22.7517 23.8374 23.1074 24.7942C23.4728 25.7385 24.1542 26.5277 25.036 27.0278C25.3871 27.2356 25.762 27.4001 26.1527 27.5179C26.3138 27.0839 26.5404 26.6771 26.8248 26.3115C26.6963 26.7443 26.6473 27.1967 26.68 27.6469C27.2822 27.7621 27.9016 27.7523 28.4999 27.6182C29.691 27.3523 30.6868 26.5417 31.1874 25.4306C31.7332 24.141 31.4552 22.6707 31.5719 21.2758C31.6876 19.8806 32.53 18.2879 33.9325 18.2652C35.0006 18.2476 34.8592 18.3355 35.536 19.1604" fill="#2F2E41"/>
<path d="M48.3755 23.2173C48.3755 26.6995 45.5473 29.5223 42.0586 29.5223C38.5699 29.5223 35.2558 25.487 35.2558 22.0048C35.2558 18.5227 38.5699 16.9124 42.0586 16.9124C45.5473 16.9124 48.3755 19.7352 48.3755 23.2173Z" fill="#2F2E41"/>
<path d="M45.1714 30.7731C48.4322 30.1071 50.5348 26.9288 49.8675 23.6741C49.2003 20.4195 46.016 18.3209 42.7552 18.9869C39.4944 19.6528 37.3918 22.8312 38.0591 26.0858C38.7263 29.3405 41.9106 31.439 45.1714 30.7731Z" fill="#A0616A"/>
<path d="M51.5339 23.9448C49.7499 24.431 47.9486 24.9407 47.253 23.9448C47.1178 23.2845 46.8617 22.6548 46.4974 22.0873C46.4289 22.7228 46.2795 23.347 46.0528 23.9448C43.7989 24.4338 41.6923 24.5507 39.872 23.9448C39.6217 24.3967 39.4764 24.8989 39.4468 25.4144C39.3568 25.3579 39.2626 25.3085 39.165 25.2664C39.0479 25.2004 38.908 25.188 38.7811 25.2325C38.6934 25.2854 38.6351 25.3758 38.6232 25.4774C38.6111 25.5786 38.616 25.681 38.6378 25.7805C38.6633 26.1274 38.7671 26.464 38.9415 26.7651C39.0809 26.9748 39.3022 27.1164 39.5513 27.1555C39.804 28.5741 41.8157 30.4923 41.8157 30.4923C35.7417 30.7348 35.7417 26.622 35.7417 22.7323L36.4706 21.2773H38.9002V18.1248H45.703C48.923 18.1257 51.5331 20.7309 51.5339 23.9448Z" fill="#2F2E41"/>
<path d="M106.888 122.925L0.290794 123C0.131028 123.001 0.000837362 122.872 4.01987e-06 122.713C-0.000829323 122.553 0.128011 122.423 0.287777 122.423H0.290794L106.888 122.348C107.048 122.349 107.177 122.478 107.177 122.638C107.176 122.796 107.047 122.925 106.888 122.925Z" fill="#CACACA"/>
<path d="M178.075 122.925L122.984 123C122.824 123.001 122.694 122.872 122.693 122.713C122.692 122.553 122.821 122.423 122.981 122.423H122.984L178.075 122.348C178.234 122.348 178.364 122.476 178.365 122.636C178.365 122.795 178.236 122.925 178.076 122.925H178.075Z" fill="#CACACA"/>
<path d="M109.324 35.8898H88.4415C86.6277 35.8878 85.1579 34.4207 85.1559 32.6104V18.7993C85.1579 16.989 86.6277 15.5219 88.4415 15.5199H109.324C111.138 15.5219 112.608 16.989 112.61 18.7993V32.6104C112.608 34.4208 111.138 35.8878 109.324 35.8898ZM88.4415 16.0049C86.896 16.0067 85.6435 17.2568 85.6418 18.7993V32.6104C85.6435 34.153 86.896 35.4031 88.4415 35.4048H109.324C110.87 35.4031 112.122 34.153 112.124 32.6104V18.7993C112.122 17.2568 110.87 16.0067 109.324 16.0049L88.4415 16.0049Z" fill="#E6E6E6"/>
<path d="M94.629 19.8849H89.0432V20.3699H94.629V19.8849Z" fill="#E6E6E6"/>
<path d="M101.434 21.8249H89.0432V22.3099H101.434V21.8249Z" fill="#E6E6E6"/>
<path d="M101.434 23.5224H89.0432V24.0074H101.434V23.5224Z" fill="#E6E6E6"/>
<path d="M104.835 25.2199H89.0432V25.7049H104.835V25.2199Z" fill="#E6E6E6"/>
<path d="M97.3037 26.9174H89.0432V27.4024H97.3037V26.9174Z" fill="#E6E6E6"/>
<path d="M104.106 28.6149H89.0432V29.0999H104.106V28.6149Z" fill="#E6E6E6"/>
<path d="M91.7157 30.3124H89.0432V30.7974H91.7157V30.3124Z" fill="#E6E6E6"/>
<path d="M88.8613 9.44735C88.8377 9.44735 88.8141 9.43823 88.7963 9.42008L88.2779 8.89114C88.2434 8.8559 88.2434 8.79958 88.2779 8.76434L88.7963 8.23545C88.8315 8.19968 88.8891 8.1991 88.9248 8.23403C88.9607 8.26906 88.9613 8.32649 88.9262 8.36226L88.47 8.82774L88.9262 9.29327C88.9613 9.32904 88.9607 9.38647 88.9248 9.42149C88.9071 9.43876 88.8842 9.44735 88.8613 9.44735Z" fill="#CCCCCC"/>
<path d="M89.7324 9.44736C89.7094 9.44736 89.6865 9.43877 89.6688 9.4215C89.633 9.38648 89.6323 9.32909 89.6674 9.29327L90.1236 8.82775L89.6674 8.36227C89.6323 8.32649 89.633 8.26906 89.6688 8.23404C89.7046 8.19897 89.7622 8.19964 89.7973 8.23546L90.3157 8.76434C90.3502 8.79959 90.3502 8.85591 90.3157 8.89115L89.7973 9.42008C89.7795 9.43823 89.756 9.44736 89.7324 9.44736Z" fill="#CCCCCC"/>
<path d="M116.852 8.13461H115.888C115.778 8.13461 115.689 8.22348 115.689 8.3332V9.29621C115.689 9.40593 115.778 9.4948 115.888 9.4948H116.852C116.962 9.4948 117.052 9.40593 117.052 9.29621V8.3332C117.052 8.22348 116.962 8.13461 116.852 8.13461Z" fill="#CCCCCC"/>
<path d="M114.49 8.13461H113.526C113.416 8.13461 113.327 8.22348 113.327 8.3332V9.29621C113.327 9.40593 113.416 9.4948 113.526 9.4948H114.49C114.6 9.4948 114.69 9.40593 114.69 9.29621V8.3332C114.69 8.22348 114.6 8.13461 114.49 8.13461Z" fill="#CCCCCC"/>
<path d="M119.078 8.17993H118.114C118.004 8.17993 117.915 8.2688 117.915 8.37852V9.34153C117.915 9.45125 118.004 9.54011 118.114 9.54011H119.078C119.188 9.54011 119.278 9.45125 119.278 9.34153V8.37852C119.278 8.2688 119.188 8.17993 119.078 8.17993Z" fill="#CCCCCC"/>
<path d="M104.549 8.5463H96.844C96.7095 8.5463 96.6014 8.65511 96.6014 8.78841C96.6014 8.92171 96.7095 9.03052 96.844 9.03052H104.549C104.682 9.03052 104.792 8.92171 104.792 8.78841C104.792 8.65512 104.682 8.5463 104.549 8.5463Z" fill="#CCCCCC"/>
</g>
<defs>
<clipPath id="clip0_0_226">
<rect width="195" height="123" fill="white"/>
</clipPath>
</defs>
</svg>
