<svg width="548" height="548" viewBox="0 0 548 548" fill="none" xmlns="http://www.w3.org/2000/svg">
<g opacity="0.6">
<g opacity="0.5">
<circle cx="223" cy="223" r="222" transform="matrix(-0.258819 -0.965926 -0.965926 0.258819 547.117 431.685)" fill="url(#paint0_linear_4425_1062)" fill-opacity="0.06"/>
<circle cx="223" cy="223" r="222" transform="matrix(-0.258819 -0.965926 -0.965926 0.258819 547.117 431.685)" stroke="url(#paint1_linear_4425_1062)" stroke-width="2"/>
<circle cx="223" cy="223" r="222" transform="matrix(-0.258819 -0.965926 -0.965926 0.258819 547.117 431.685)" stroke="url(#paint2_linear_4425_1062)" stroke-width="2"/>
</g>
<g opacity="0.8">
<circle cx="151.261" cy="151.261" r="150.261" transform="matrix(-0.258819 -0.965926 -0.965926 0.258819 459.513 381.213)" fill="url(#paint3_linear_4425_1062)" fill-opacity="0.2"/>
<circle cx="151.261" cy="151.261" r="150.261" transform="matrix(-0.258819 -0.965926 -0.965926 0.258819 459.513 381.213)" stroke="url(#paint4_linear_4425_1062)" stroke-width="2"/>
<circle cx="151.261" cy="151.261" r="150.261" transform="matrix(-0.258819 -0.965926 -0.965926 0.258819 459.513 381.213)" stroke="url(#paint5_linear_4425_1062)" stroke-width="2"/>
</g>
<circle cx="125.741" cy="125.741" r="124.741" transform="matrix(-0.258819 -0.965926 -0.965926 0.258819 428 362.561)" fill="url(#paint6_linear_4425_1062)" fill-opacity="0.3"/>
<circle cx="125.741" cy="125.741" r="124.741" transform="matrix(-0.258819 -0.965926 -0.965926 0.258819 428 362.561)" stroke="url(#paint7_linear_4425_1062)" stroke-width="2"/>
<circle cx="125.741" cy="125.741" r="124.741" transform="matrix(-0.258819 -0.965926 -0.965926 0.258819 428 362.561)" stroke="url(#paint8_linear_4425_1062)" stroke-width="2"/>
</g>
<g filter="url(#filter0_d_4425_1062)">
<rect width="290" height="307" transform="translate(129 125.904)" fill="url(#paint9_radial_4425_1062)"/>
<mask id="path-4-outside-1_4425_1062" maskUnits="userSpaceOnUse" x="194.214" y="188.522" width="159" height="181" fill="black">
<rect fill="white" x="194.214" y="188.522" width="159" height="181"/>
<path d="M350.63 232.447L350.646 232.117L274.301 191.648L274.061 191.522L197.214 232.461L202.089 317.672L273.903 366.22L274.188 366.412L274.477 366.218L346.616 317.402L350.628 232.447H350.63ZM346.887 289.966L324.281 304.74L325.137 277.005L348.185 262.499L346.887 289.966ZM199.976 262.819L222.885 277.213L224.021 304.926L201.545 290.255L199.974 262.817L199.976 262.819ZM224.437 219.125L247.884 232.643L222.183 246.897L198.786 232.792L224.437 219.127V219.125ZM249.864 205.581L273.322 218.537L248.515 232.294L225.08 218.783L249.862 205.581H249.864ZM322.86 218.556L299.3 232.181L274.597 218.537L298.166 205.467L322.86 218.558V218.556ZM349.073 232.451L325.536 246.672L299.931 232.53L323.503 218.896L349.073 232.451ZM273.727 277.975L248.083 262.513L273.848 247.613L299.501 262.402L273.727 277.975ZM247.479 262.15L222.793 247.267L248.509 233.004L273.23 247.256L247.479 262.148V262.15ZM246.975 263.048L247.663 292.054L223.485 276.861L222.307 248.174L246.973 263.046L246.975 263.048ZM247.6 263.423L273.217 278.87L273.373 308.208L248.29 292.446L247.6 263.423ZM273.375 308.941L273.525 337.239L248.969 321.212L248.304 293.188L273.375 308.943V308.941ZM274.399 308.939L299.595 293.079L299.22 321.115L274.548 337.239L274.399 308.937V308.939ZM274.397 308.212L274.241 278.868L299.994 263.308L299.605 292.345L274.395 308.212H274.397ZM300.615 262.932L325.419 247.945L324.535 276.654L300.225 291.955L300.615 262.932ZM300.105 262.037L274.466 247.254L299.308 232.889L324.928 247.04L300.107 262.037H300.105ZM298.675 232.542L273.848 246.899L249.139 232.653L273.959 218.888L298.675 232.54V232.542ZM221.679 247.795L222.854 276.464L199.933 262.062L198.311 233.706L221.681 247.795H221.679ZM223.518 277.612L247.682 292.796L248.347 320.806L224.654 305.343L223.518 277.614V277.612ZM248.363 321.553L248.994 348.143L225.764 332.438L224.683 306.098L248.361 321.553H248.363ZM248.988 321.959L273.529 337.978L273.67 364.823L249.619 348.564L248.988 321.959ZM274.552 337.978L299.21 321.862L298.854 348.481L274.694 364.83L274.552 337.978ZM299.83 321.456L323.632 305.902L322.819 332.265L299.476 348.062L299.832 321.458L299.83 321.456ZM299.841 320.713L300.215 292.691L324.51 277.399L323.654 305.149L299.841 320.713ZM348.22 261.746L325.159 276.26L326.044 247.568L349.559 233.359L348.218 261.746H348.22ZM274.063 192.688L297.514 205.118L273.959 218.182L250.513 205.232L274.063 192.688ZM201.59 291.022L224.054 305.685L225.133 332.011L203.082 317.103L201.59 291.022ZM345.619 316.836L323.448 331.84L324.26 305.493L346.852 290.727L345.619 316.836Z"/>
</mask>
<path d="M350.63 232.447L350.646 232.117L274.301 191.648L274.061 191.522L197.214 232.461L202.089 317.672L273.903 366.22L274.188 366.412L274.477 366.218L346.616 317.402L350.628 232.447H350.63ZM346.887 289.966L324.281 304.74L325.137 277.005L348.185 262.499L346.887 289.966ZM199.976 262.819L222.885 277.213L224.021 304.926L201.545 290.255L199.974 262.817L199.976 262.819ZM224.437 219.125L247.884 232.643L222.183 246.897L198.786 232.792L224.437 219.127V219.125ZM249.864 205.581L273.322 218.537L248.515 232.294L225.08 218.783L249.862 205.581H249.864ZM322.86 218.556L299.3 232.181L274.597 218.537L298.166 205.467L322.86 218.558V218.556ZM349.073 232.451L325.536 246.672L299.931 232.53L323.503 218.896L349.073 232.451ZM273.727 277.975L248.083 262.513L273.848 247.613L299.501 262.402L273.727 277.975ZM247.479 262.15L222.793 247.267L248.509 233.004L273.23 247.256L247.479 262.148V262.15ZM246.975 263.048L247.663 292.054L223.485 276.861L222.307 248.174L246.973 263.046L246.975 263.048ZM247.6 263.423L273.217 278.87L273.373 308.208L248.29 292.446L247.6 263.423ZM273.375 308.941L273.525 337.239L248.969 321.212L248.304 293.188L273.375 308.943V308.941ZM274.399 308.939L299.595 293.079L299.22 321.115L274.548 337.239L274.399 308.937V308.939ZM274.397 308.212L274.241 278.868L299.994 263.308L299.605 292.345L274.395 308.212H274.397ZM300.615 262.932L325.419 247.945L324.535 276.654L300.225 291.955L300.615 262.932ZM300.105 262.037L274.466 247.254L299.308 232.889L324.928 247.04L300.107 262.037H300.105ZM298.675 232.542L273.848 246.899L249.139 232.653L273.959 218.888L298.675 232.54V232.542ZM221.679 247.795L222.854 276.464L199.933 262.062L198.311 233.706L221.681 247.795H221.679ZM223.518 277.612L247.682 292.796L248.347 320.806L224.654 305.343L223.518 277.614V277.612ZM248.363 321.553L248.994 348.143L225.764 332.438L224.683 306.098L248.361 321.553H248.363ZM248.988 321.959L273.529 337.978L273.67 364.823L249.619 348.564L248.988 321.959ZM274.552 337.978L299.21 321.862L298.854 348.481L274.694 364.83L274.552 337.978ZM299.83 321.456L323.632 305.902L322.819 332.265L299.476 348.062L299.832 321.458L299.83 321.456ZM299.841 320.713L300.215 292.691L324.51 277.399L323.654 305.149L299.841 320.713ZM348.22 261.746L325.159 276.26L326.044 247.568L349.559 233.359L348.218 261.746H348.22ZM274.063 192.688L297.514 205.118L273.959 218.182L250.513 205.232L274.063 192.688ZM201.59 291.022L224.054 305.685L225.133 332.011L203.082 317.103L201.59 291.022ZM345.619 316.836L323.448 331.84L324.26 305.493L346.852 290.727L345.619 316.836Z" fill="url(#paint10_linear_4425_1062)"/>
<path d="M350.63 232.447L350.646 232.117L274.301 191.648L274.061 191.522L197.214 232.461L202.089 317.672L273.903 366.22L274.188 366.412L274.477 366.218L346.616 317.402L350.628 232.447H350.63ZM346.887 289.966L324.281 304.74L325.137 277.005L348.185 262.499L346.887 289.966ZM199.976 262.819L222.885 277.213L224.021 304.926L201.545 290.255L199.974 262.817L199.976 262.819ZM224.437 219.125L247.884 232.643L222.183 246.897L198.786 232.792L224.437 219.127V219.125ZM249.864 205.581L273.322 218.537L248.515 232.294L225.08 218.783L249.862 205.581H249.864ZM322.86 218.556L299.3 232.181L274.597 218.537L298.166 205.467L322.86 218.558V218.556ZM349.073 232.451L325.536 246.672L299.931 232.53L323.503 218.896L349.073 232.451ZM273.727 277.975L248.083 262.513L273.848 247.613L299.501 262.402L273.727 277.975ZM247.479 262.15L222.793 247.267L248.509 233.004L273.23 247.256L247.479 262.148V262.15ZM246.975 263.048L247.663 292.054L223.485 276.861L222.307 248.174L246.973 263.046L246.975 263.048ZM247.6 263.423L273.217 278.87L273.373 308.208L248.29 292.446L247.6 263.423ZM273.375 308.941L273.525 337.239L248.969 321.212L248.304 293.188L273.375 308.943V308.941ZM274.399 308.939L299.595 293.079L299.22 321.115L274.548 337.239L274.399 308.937V308.939ZM274.397 308.212L274.241 278.868L299.994 263.308L299.605 292.345L274.395 308.212H274.397ZM300.615 262.932L325.419 247.945L324.535 276.654L300.225 291.955L300.615 262.932ZM300.105 262.037L274.466 247.254L299.308 232.889L324.928 247.04L300.107 262.037H300.105ZM298.675 232.542L273.848 246.899L249.139 232.653L273.959 218.888L298.675 232.54V232.542ZM221.679 247.795L222.854 276.464L199.933 262.062L198.311 233.706L221.681 247.795H221.679ZM223.518 277.612L247.682 292.796L248.347 320.806L224.654 305.343L223.518 277.614V277.612ZM248.363 321.553L248.994 348.143L225.764 332.438L224.683 306.098L248.361 321.553H248.363ZM248.988 321.959L273.529 337.978L273.67 364.823L249.619 348.564L248.988 321.959ZM274.552 337.978L299.21 321.862L298.854 348.481L274.694 364.83L274.552 337.978ZM299.83 321.456L323.632 305.902L322.819 332.265L299.476 348.062L299.832 321.458L299.83 321.456ZM299.841 320.713L300.215 292.691L324.51 277.399L323.654 305.149L299.841 320.713ZM348.22 261.746L325.159 276.26L326.044 247.568L349.559 233.359L348.218 261.746H348.22ZM274.063 192.688L297.514 205.118L273.959 218.182L250.513 205.232L274.063 192.688ZM201.59 291.022L224.054 305.685L225.133 332.011L203.082 317.103L201.59 291.022ZM345.619 316.836L323.448 331.84L324.26 305.493L346.852 290.727L345.619 316.836Z" stroke="url(#paint11_linear_4425_1062)" stroke-width="4.4" stroke-linejoin="round" mask="url(#path-4-outside-1_4425_1062)"/>
</g>
<rect x="4.5" y="148.5" width="111" height="66" rx="33" fill="#010915"/>
<rect x="4.5" y="148.5" width="111" height="66" rx="33" stroke="black" stroke-width="3"/>
<rect x="4.5" y="148.5" width="111" height="66" rx="33" stroke="url(#paint12_linear_4425_1062)" stroke-width="3"/>
<path d="M68.5697 173.001V176.556C68.5553 177.884 68.0394 179.156 67.1303 180.102C66.2213 181.049 64.99 181.597 63.6952 181.631H55.9015C54.8622 181.652 53.8722 182.09 53.1432 182.85C52.4141 183.61 52.0038 184.633 52 185.699V193.322C52 195.491 53.8388 196.767 55.9015 197.389C58.4388 198.204 61.1579 198.204 63.6952 197.389C65.6596 196.806 67.5967 195.632 67.5967 193.322V190.27H59.8028V189.253H71.498C73.7658 189.253 74.6108 187.63 75.3995 185.194C76.2002 182.544 76.2002 179.708 75.3995 177.059C74.8388 174.742 73.7687 173 71.498 173L68.5697 173.001ZM64.1863 192.304C64.4815 192.299 64.7715 192.385 65.0192 192.55C65.2668 192.715 65.461 192.952 65.577 193.23C65.6929 193.509 65.7254 193.817 65.6702 194.114C65.6151 194.412 65.4748 194.686 65.2673 194.902C65.0598 195.117 64.7944 195.264 64.505 195.325C64.2156 195.385 63.9153 195.355 63.6423 195.24C63.3693 195.124 63.136 194.928 62.9721 194.676C62.8083 194.424 62.7213 194.128 62.7222 193.825C62.7209 193.626 62.7578 193.429 62.8307 193.246C62.9036 193.062 63.0111 192.894 63.147 192.753C63.283 192.612 63.4448 192.5 63.6231 192.422C63.8014 192.345 63.9928 192.305 64.1863 192.304Z" fill="white"/>
<path d="M59.0164 165C57.7641 165.002 56.5142 165.107 55.2798 165.316C51.9708 165.895 51.37 167.107 51.37 169.342V172.293H59.1896V173.278H48.4354C47.2845 173.257 46.1631 173.639 45.2693 174.358C44.3755 175.076 43.7667 176.084 43.5505 177.204C42.8165 179.777 42.8165 182.501 43.5505 185.074C44.1063 187.366 45.4338 189 47.7061 189H50.3948V185.462C50.4233 184.19 50.948 182.979 51.8587 182.082C52.7694 181.185 53.9955 180.672 55.2797 180.651H63.09C63.6078 180.647 64.1196 180.542 64.5964 180.342C65.0731 180.142 65.5054 179.851 65.8685 179.486C66.2317 179.12 66.5185 178.687 66.7126 178.212C66.9067 177.737 67.0043 177.228 66.9999 176.716V169.342C66.9342 168.321 66.5053 167.357 65.7895 166.62C65.0737 165.883 64.1172 165.421 63.09 165.317C61.7435 165.098 60.3808 164.993 59.0164 165ZM54.7876 167.374C55.0831 167.37 55.3733 167.452 55.6213 167.612C55.8693 167.771 56.0639 167.999 56.1803 168.268C56.2968 168.537 56.3299 168.835 56.2753 169.122C56.2208 169.41 56.0812 169.675 55.8741 169.884C55.6671 170.093 55.402 170.236 55.1126 170.295C54.8232 170.355 54.5225 170.327 54.2488 170.217C53.975 170.107 53.7406 169.918 53.5753 169.676C53.41 169.433 53.3212 169.147 53.3203 168.855C53.3174 168.466 53.4702 168.092 53.7452 167.814C54.0202 167.537 54.395 167.379 54.7876 167.374Z" fill="white"/>
<path d="M366.5 99C366.5 63.3776 395.378 34.5 431 34.5C466.622 34.5 495.5 63.3776 495.5 99C495.5 134.622 466.622 163.5 431 163.5C395.378 163.5 366.5 134.622 366.5 99Z" fill="#020509" stroke="url(#paint13_linear_4425_1062)" stroke-width="3"/>
<mask id="path-9-inside-2_4425_1062" fill="white">
<path d="M433.904 97.539C448.854 112.489 452.304 115.939 453.768 117.403C453.981 117.616 454.239 117.779 454.522 117.881C454.806 117.984 455.108 118.023 455.408 117.996C455.708 117.969 455.999 117.877 456.26 117.726C456.521 117.575 456.745 117.368 456.918 117.121C460.001 112.732 461.926 107.636 462.515 102.304C463.104 96.9727 462.338 91.5788 460.288 86.6223C458.237 81.6658 454.969 77.3071 450.786 73.95C446.602 70.5929 441.639 68.346 436.356 67.4176C436.058 67.3629 435.751 67.3742 435.457 67.4508C435.163 67.5274 434.89 67.6674 434.656 67.861C434.423 68.0545 434.234 68.297 434.104 68.5712C433.974 68.8455 433.906 69.1448 433.904 69.4483V97.539Z"/>
</mask>
<path d="M433.904 97.539C448.854 112.489 452.304 115.939 453.768 117.403C453.981 117.616 454.239 117.779 454.522 117.881C454.806 117.984 455.108 118.023 455.408 117.996C455.708 117.969 455.999 117.877 456.26 117.726C456.521 117.575 456.745 117.368 456.918 117.121C460.001 112.732 461.926 107.636 462.515 102.304C463.104 96.9727 462.338 91.5788 460.288 86.6223C458.237 81.6658 454.969 77.3071 450.786 73.95C446.602 70.5929 441.639 68.346 436.356 67.4176C436.058 67.3629 435.751 67.3742 435.457 67.4508C435.163 67.5274 434.89 67.6674 434.656 67.861C434.423 68.0545 434.234 68.297 434.104 68.5712C433.974 68.8455 433.906 69.1448 433.904 69.4483V97.539Z" fill="url(#paint14_linear_4425_1062)"/>
<path d="M433.904 97.539H425.904V100.853L428.247 103.196L433.904 97.539ZM453.768 117.403L448.11 123.059L448.118 123.067L448.125 123.074L453.768 117.403ZM456.918 117.121L450.371 112.523L450.365 112.532L450.359 112.541L456.918 117.121ZM436.356 67.4176L434.913 75.2863L434.942 75.2917L434.971 75.2969L436.356 67.4176ZM433.904 69.4483L425.904 69.4011L425.904 69.4247V69.4483H433.904ZM428.247 103.196C443.197 118.146 446.646 121.595 448.11 123.059L459.425 111.747C457.961 110.282 454.511 106.832 439.561 91.8821L428.247 103.196ZM448.125 123.074C449.166 124.11 450.422 124.906 451.803 125.405L457.242 110.358C458.056 110.652 458.796 111.121 459.41 111.732L448.125 123.074ZM451.803 125.405C453.184 125.904 454.658 126.095 456.121 125.964L454.696 110.028C455.558 109.951 456.427 110.063 457.242 110.358L451.803 125.405ZM456.121 125.964C457.584 125.833 459 125.384 460.271 124.648L452.249 110.804C452.998 110.37 453.833 110.105 454.696 110.028L456.121 125.964ZM460.271 124.648C461.542 123.911 462.636 122.906 463.477 121.702L450.359 112.541C450.854 111.831 451.5 111.238 452.249 110.804L460.271 124.648ZM463.464 121.72C467.321 116.229 469.73 109.853 470.467 103.183L454.564 101.426C454.122 105.419 452.68 109.236 450.371 112.523L463.464 121.72ZM470.467 103.183C471.204 96.5129 470.245 89.765 467.68 83.5642L452.895 89.6805C454.431 93.3927 455.005 97.4325 454.564 101.426L470.467 103.183ZM467.68 83.5642C465.115 77.3634 461.026 71.9105 455.793 67.7106L445.779 80.1894C448.912 82.7037 451.36 85.9682 452.895 89.6805L467.68 83.5642ZM455.793 67.7106C450.559 63.5107 444.35 60.6998 437.741 59.5384L434.971 75.2969C438.928 75.9922 442.645 77.675 445.779 80.1894L455.793 67.7106ZM437.8 59.5489C436.351 59.2833 434.863 59.3382 433.438 59.7098L437.476 75.1918C436.639 75.4102 435.764 75.4425 434.913 75.2863L437.8 59.5489ZM433.438 59.7098C432.013 60.0814 430.687 60.7607 429.553 61.6998L439.759 74.0221C439.093 74.5741 438.314 74.9734 437.476 75.1918L433.438 59.7098ZM429.553 61.6998C428.42 62.639 427.505 63.8152 426.875 65.1457L441.334 71.9967C440.963 72.7788 440.426 73.4701 439.759 74.0221L429.553 61.6998ZM426.875 65.1457C426.244 66.4762 425.913 67.9288 425.904 69.4011L441.904 69.4955C441.899 70.3609 441.704 71.2147 441.334 71.9967L426.875 65.1457ZM425.904 69.4483V97.539H441.904V69.4483H425.904Z" fill="url(#paint15_linear_4425_1062)" mask="url(#path-9-inside-2_4425_1062)"/>
<mask id="path-11-inside-3_4425_1062" fill="white">
<path d="M429.539 101.904H401.448C401.144 101.906 400.845 101.974 400.57 102.104C400.296 102.234 400.054 102.422 399.86 102.656C399.667 102.89 399.527 103.163 399.45 103.457C399.373 103.75 399.362 104.057 399.417 104.356C400.345 109.639 402.592 114.602 405.949 118.785C409.306 122.969 413.665 126.237 418.622 128.287C423.578 130.338 428.972 131.104 434.304 130.515C439.635 129.926 444.732 128 449.121 124.917C449.368 124.744 449.574 124.518 449.724 124.257C449.875 123.995 449.967 123.704 449.993 123.404C450.019 123.103 449.98 122.8 449.877 122.517C449.774 122.233 449.61 121.975 449.397 121.762L429.539 101.904Z"/>
</mask>
<path d="M429.539 101.904H401.448C401.144 101.906 400.845 101.974 400.57 102.104C400.296 102.234 400.054 102.422 399.86 102.656C399.667 102.89 399.527 103.163 399.45 103.457C399.373 103.75 399.362 104.057 399.417 104.356C400.345 109.639 402.592 114.602 405.949 118.785C409.306 122.969 413.665 126.237 418.622 128.287C423.578 130.338 428.972 131.104 434.304 130.515C439.635 129.926 444.732 128 449.121 124.917C449.368 124.744 449.574 124.518 449.724 124.257C449.875 123.995 449.967 123.704 449.993 123.404C450.019 123.103 449.98 122.8 449.877 122.517C449.774 122.233 449.61 121.975 449.397 121.762L429.539 101.904Z" fill="url(#paint16_linear_4425_1062)"/>
<path d="M429.539 101.904L435.196 96.247L432.853 93.9038H429.539V101.904ZM401.448 101.904V93.9038H401.424L401.4 93.9039L401.448 101.904ZM399.417 104.356L407.296 102.971L407.291 102.942L407.286 102.912L399.417 104.356ZM449.121 124.917L453.719 131.463L453.721 131.462L449.121 124.917ZM449.397 121.762L455.065 116.116L455.06 116.11L455.054 116.105L449.397 121.762ZM429.539 93.9038H401.448V109.904H429.539V93.9038ZM401.4 93.9039C399.928 93.9127 398.475 94.2439 397.145 94.8743L403.996 109.333C403.214 109.704 402.36 109.899 401.495 109.904L401.4 93.9039ZM397.145 94.8743C395.814 95.5047 394.638 96.4191 393.699 97.553L406.021 107.759C405.469 108.425 404.778 108.963 403.996 109.333L397.145 94.8743ZM393.699 97.553C392.76 98.6868 392.081 100.013 391.709 101.437L407.191 105.476C406.973 106.313 406.573 107.092 406.021 107.759L393.699 97.553ZM391.709 101.437C391.337 102.862 391.283 104.351 391.548 105.799L407.286 102.912C407.442 103.763 407.409 104.638 407.191 105.476L391.709 101.437ZM391.538 105.74C392.699 112.349 395.51 118.558 399.71 123.792L412.189 113.778C409.674 110.645 407.991 106.928 407.296 102.971L391.538 105.74ZM399.71 123.792C403.91 129.026 409.363 133.115 415.564 135.68L421.68 120.895C417.968 119.359 414.703 116.911 412.189 113.778L399.71 123.792ZM415.564 135.68C421.764 138.245 428.512 139.203 435.182 138.466L433.425 122.563C429.432 123.004 425.392 122.431 421.68 120.895L415.564 135.68ZM435.182 138.466C441.852 137.729 448.228 135.321 453.719 131.463L444.523 118.371C441.235 120.68 437.418 122.122 433.425 122.563L435.182 138.466ZM453.721 131.462C454.922 130.618 455.923 129.522 456.656 128.251L442.793 120.263C443.224 119.514 443.814 118.869 444.52 118.372L453.721 131.462ZM456.656 128.251C457.389 126.979 457.834 125.563 457.962 124.102L442.023 122.706C442.099 121.845 442.361 121.011 442.793 120.263L456.656 128.251ZM457.962 124.102C458.09 122.64 457.897 121.168 457.397 119.788L442.356 125.245C442.062 124.433 441.948 123.566 442.023 122.706L457.962 124.102ZM457.397 119.788C456.897 118.409 456.101 117.156 455.065 116.116L443.729 127.407C443.12 126.795 442.651 126.057 442.356 125.245L457.397 119.788ZM455.054 116.105L435.196 96.247L423.883 107.561L443.74 127.418L455.054 116.105Z" fill="url(#paint17_linear_4425_1062)" mask="url(#path-11-inside-3_4425_1062)"/>
<mask id="path-13-inside-4_4425_1062" fill="white">
<path d="M427.731 95.7317V69.449C427.73 69.1463 427.663 68.8476 427.534 68.5738C427.405 68.3 427.217 68.0577 426.985 67.864C426.752 67.6702 426.48 67.5297 426.188 67.4522C425.895 67.3747 425.589 67.3622 425.291 67.4155C418.848 68.5606 412.911 71.6562 408.284 76.2838C403.656 80.9115 400.56 86.8482 399.415 93.2917C399.362 93.5896 399.374 93.8956 399.452 94.1882C399.529 94.4807 399.67 94.7528 399.864 94.9853C400.057 95.2178 400.3 95.4051 400.574 95.534C400.847 95.663 401.146 95.7304 401.449 95.7317H427.731Z"/>
</mask>
<path d="M427.731 95.7317V69.449C427.73 69.1463 427.663 68.8476 427.534 68.5738C427.405 68.3 427.217 68.0577 426.985 67.864C426.752 67.6702 426.48 67.5297 426.188 67.4522C425.895 67.3747 425.589 67.3622 425.291 67.4155C418.848 68.5606 412.911 71.6562 408.284 76.2838C403.656 80.9115 400.56 86.8482 399.415 93.2917C399.362 93.5896 399.374 93.8956 399.452 94.1882C399.529 94.4807 399.67 94.7528 399.864 94.9853C400.057 95.2178 400.3 95.4051 400.574 95.534C400.847 95.663 401.146 95.7304 401.449 95.7317H427.731Z" fill="url(#paint18_linear_4425_1062)"/>
<path d="M427.731 95.7317V103.732H435.731V95.7317H427.731ZM427.731 69.449H435.731V69.4322L435.731 69.4154L427.731 69.449ZM425.291 67.4155L426.691 75.2921L426.7 75.2904L425.291 67.4155ZM399.415 93.2917L407.29 94.7008L407.292 94.6915L399.415 93.2917ZM401.449 95.7317L401.415 103.732L401.432 103.732H401.449V95.7317ZM435.731 95.7317V69.449H419.731V95.7317H435.731ZM435.731 69.4154C435.725 67.9457 435.397 66.4952 434.771 65.1655L420.296 71.9821C419.928 71.2001 419.735 70.3469 419.731 69.4825L435.731 69.4154ZM434.771 65.1655C434.145 63.8359 433.236 62.6593 432.107 61.7184L421.863 74.0095C421.199 73.4561 420.664 72.7641 420.296 71.9821L434.771 65.1655ZM432.107 61.7184C430.978 60.7775 429.657 60.095 428.236 59.7187L424.14 75.1856C423.304 74.9643 422.527 74.5629 421.863 74.0095L432.107 61.7184ZM428.236 59.7187C426.815 59.3425 425.329 59.2817 423.882 59.5405L426.7 75.2904C425.849 75.4427 424.976 75.4069 424.14 75.1856L428.236 59.7187ZM423.892 59.5389C415.835 60.9707 408.413 64.841 402.627 70.627L413.94 81.9407C417.41 78.4713 421.861 76.1506 426.691 75.2921L423.892 59.5389ZM402.627 70.627C396.841 76.413 392.97 83.8356 391.539 91.8919L407.292 94.6915C408.15 89.8608 410.471 85.41 413.94 81.9407L402.627 70.627ZM391.54 91.8827C391.281 93.3294 391.342 94.8153 391.718 96.236L407.185 92.1404C407.407 92.976 407.442 93.8499 407.29 94.7008L391.54 91.8827ZM391.718 96.236C392.095 97.6567 392.777 98.9779 393.718 100.107L406.009 89.8636C406.563 90.5277 406.964 91.3047 407.185 92.1404L391.718 96.236ZM393.718 100.107C394.659 101.236 395.835 102.145 397.165 102.772L403.982 88.2964C404.764 88.6647 405.456 89.1996 406.009 89.8636L393.718 100.107ZM397.165 102.772C398.495 103.398 399.945 103.725 401.415 103.732L401.482 87.7318C402.347 87.7354 403.2 87.9281 403.982 88.2964L397.165 102.772ZM401.449 103.732H427.731V87.7317H401.449V103.732Z" fill="url(#paint19_linear_4425_1062)" mask="url(#path-13-inside-4_4425_1062)"/>
<rect x="65.5" y="400.5" width="103" height="103" rx="51.5" fill="#03060A"/>
<rect x="65.5" y="400.5" width="103" height="103" rx="51.5" stroke="url(#paint20_linear_4425_1062)" stroke-width="3"/>
<path d="M135.868 434.835C129.354 431.348 122.236 433.406 116.999 440.027C111.767 433.406 104.647 431.348 98.1315 434.835C95.5344 436.269 93.3756 438.382 91.8856 440.947C90.3955 443.512 89.6303 446.434 89.6715 449.4V451.578C89.6715 463.149 101.07 475.823 116.187 481.058C116.713 481.241 117.286 481.241 117.812 481.058C132.929 475.824 144.328 463.15 144.328 451.578V449.4C144.369 446.434 143.604 443.512 142.114 440.947C140.624 438.382 138.465 436.269 135.868 434.835ZM117.897 476.618C117.593 476.736 117.269 476.792 116.942 476.785C116.616 476.777 116.295 476.705 115.996 476.573C115.394 476.307 114.921 475.812 114.683 475.198C114.446 474.583 114.462 473.899 114.728 473.297C114.994 472.694 115.489 472.222 116.104 471.984C126.822 467.833 135.218 458.87 135.218 451.578C135.218 450.919 135.48 450.287 135.946 449.822C136.412 449.356 137.044 449.094 137.703 449.094C138.362 449.094 138.994 449.356 139.459 449.822C139.925 450.287 140.187 450.919 140.187 451.578C140.187 460.933 130.605 471.697 117.897 476.618Z" fill="url(#paint21_linear_4425_1062)"/>
<rect x="405.5" y="353.5" width="109" height="81" rx="40.5" fill="#03070D" stroke="url(#paint22_linear_4425_1062)" stroke-width="3"/>
<g clip-path="url(#clip0_4425_1062)">
<rect width="52.3279" height="52.3279" transform="translate(434.688 368.524)" fill="#03070D"/>
<path d="M467.02 396.921C467.023 394.048 468.166 391.294 470.197 389.263C472.229 387.231 474.983 386.089 477.856 386.085C478.45 386.085 479.02 385.849 479.441 385.429C479.861 385.008 480.097 384.438 480.097 383.844C480.097 383.249 479.861 382.679 479.441 382.258C479.02 381.838 478.45 381.602 477.856 381.602C474.983 381.599 472.229 380.456 470.197 378.425C468.166 376.393 467.023 373.639 467.02 370.766C467.02 370.172 466.784 369.601 466.363 369.181C465.943 368.761 465.373 368.524 464.778 368.524C464.184 368.524 463.613 368.761 463.193 369.181C462.773 369.601 462.536 370.172 462.536 370.766C462.533 373.639 461.391 376.393 459.359 378.425C457.328 380.456 454.574 381.599 451.701 381.602C451.106 381.602 450.536 381.838 450.116 382.258C449.695 382.679 449.459 383.249 449.459 383.844C449.459 384.438 449.695 385.008 450.116 385.429C450.536 385.849 451.106 386.085 451.701 386.085C454.574 386.089 457.328 387.231 459.359 389.263C461.391 391.294 462.533 394.048 462.536 396.921C462.536 397.516 462.773 398.086 463.193 398.506C463.613 398.927 464.184 399.163 464.778 399.163C465.373 399.163 465.943 398.927 466.363 398.506C466.784 398.086 467.02 397.516 467.02 396.921Z" fill="url(#paint23_linear_4425_1062)"/>
<path d="M467.02 396.921C467.023 394.048 468.166 391.294 470.197 389.263C472.229 387.231 474.983 386.089 477.856 386.085C478.45 386.085 479.02 385.849 479.441 385.429C479.861 385.008 480.097 384.438 480.097 383.844C480.097 383.249 479.861 382.679 479.441 382.258C479.02 381.838 478.45 381.602 477.856 381.602C474.983 381.599 472.229 380.456 470.197 378.425C468.166 376.393 467.023 373.639 467.02 370.766C467.02 370.172 466.784 369.601 466.363 369.181C465.943 368.761 465.373 368.524 464.778 368.524C464.184 368.524 463.613 368.761 463.193 369.181C462.773 369.601 462.536 370.172 462.536 370.766C462.533 373.639 461.391 376.393 459.359 378.425C457.328 380.456 454.574 381.599 451.701 381.602C451.106 381.602 450.536 381.838 450.116 382.258C449.695 382.679 449.459 383.249 449.459 383.844C449.459 384.438 449.695 385.008 450.116 385.429C450.536 385.849 451.106 386.085 451.701 386.085C454.574 386.089 457.328 387.231 459.359 389.263C461.391 391.294 462.533 394.048 462.536 396.921C462.536 397.516 462.773 398.086 463.193 398.506C463.613 398.927 464.184 399.163 464.778 399.163C465.373 399.163 465.943 398.927 466.363 398.506C466.784 398.086 467.02 397.516 467.02 396.921Z" fill="white"/>
<path d="M481.592 405.888C480.205 405.887 478.875 405.335 477.895 404.354C476.914 403.374 476.362 402.044 476.361 400.657C476.361 400.063 476.125 399.493 475.704 399.072C475.284 398.652 474.714 398.416 474.119 398.416C473.524 398.416 472.954 398.652 472.534 399.072C472.113 399.493 471.877 400.063 471.877 400.657C471.875 402.044 471.324 403.374 470.343 404.354C469.362 405.335 468.033 405.887 466.646 405.888C466.052 405.888 465.481 406.125 465.061 406.545C464.64 406.965 464.404 407.536 464.404 408.13C464.404 408.725 464.64 409.295 465.061 409.715C465.481 410.136 466.052 410.372 466.646 410.372C468.033 410.374 469.362 410.925 470.343 411.906C471.324 412.887 471.875 414.216 471.877 415.603C471.877 416.198 472.113 416.768 472.534 417.188C472.954 417.609 473.524 417.845 474.119 417.845C474.714 417.845 475.284 417.609 475.704 417.188C476.125 416.768 476.361 416.198 476.361 415.603C476.362 414.216 476.914 412.887 477.895 411.906C478.875 410.925 480.205 410.374 481.592 410.372C482.186 410.372 482.757 410.136 483.177 409.715C483.597 409.295 483.834 408.725 483.834 408.13C483.834 407.536 483.597 406.965 483.177 406.545C482.757 406.125 482.186 405.888 481.592 405.888Z" fill="url(#paint24_linear_4425_1062)"/>
<path d="M481.592 405.888C480.205 405.887 478.875 405.335 477.895 404.354C476.914 403.374 476.362 402.044 476.361 400.657C476.361 400.063 476.125 399.493 475.704 399.072C475.284 398.652 474.714 398.416 474.119 398.416C473.524 398.416 472.954 398.652 472.534 399.072C472.113 399.493 471.877 400.063 471.877 400.657C471.875 402.044 471.324 403.374 470.343 404.354C469.362 405.335 468.033 405.887 466.646 405.888C466.052 405.888 465.481 406.125 465.061 406.545C464.64 406.965 464.404 407.536 464.404 408.13C464.404 408.725 464.64 409.295 465.061 409.715C465.481 410.136 466.052 410.372 466.646 410.372C468.033 410.374 469.362 410.925 470.343 411.906C471.324 412.887 471.875 414.216 471.877 415.603C471.877 416.198 472.113 416.768 472.534 417.188C472.954 417.609 473.524 417.845 474.119 417.845C474.714 417.845 475.284 417.609 475.704 417.188C476.125 416.768 476.361 416.198 476.361 415.603C476.362 414.216 476.914 412.887 477.895 411.906C478.875 410.925 480.205 410.374 481.592 410.372C482.186 410.372 482.757 410.136 483.177 409.715C483.597 409.295 483.834 408.725 483.834 408.13C483.834 407.536 483.597 406.965 483.177 406.545C482.757 406.125 482.186 405.888 481.592 405.888Z" fill="white"/>
<path d="M459.92 402.526C457.84 402.523 455.846 401.696 454.375 400.225C452.904 398.754 452.076 396.76 452.074 394.68C452.074 394.085 451.838 393.515 451.417 393.095C450.997 392.674 450.427 392.438 449.832 392.438C449.237 392.438 448.667 392.674 448.247 393.095C447.826 393.515 447.59 394.085 447.59 394.68C447.588 396.76 446.76 398.754 445.289 400.225C443.818 401.696 441.824 402.523 439.744 402.526C439.149 402.526 438.579 402.762 438.159 403.182C437.738 403.603 437.502 404.173 437.502 404.767C437.502 405.362 437.738 405.932 438.159 406.353C438.579 406.773 439.149 407.009 439.744 407.009C441.824 407.012 443.818 407.839 445.289 409.31C446.76 410.781 447.588 412.775 447.59 414.856C447.59 415.45 447.826 416.02 448.247 416.441C448.667 416.861 449.237 417.097 449.832 417.097C450.427 417.097 450.997 416.861 451.417 416.441C451.838 416.02 452.074 415.45 452.074 414.856C452.076 412.775 452.904 410.781 454.375 409.31C455.846 407.839 457.84 407.012 459.92 407.009C460.515 407.009 461.085 406.773 461.506 406.353C461.926 405.932 462.162 405.362 462.162 404.767C462.162 404.173 461.926 403.603 461.506 403.182C461.085 402.762 460.515 402.526 459.92 402.526Z" fill="url(#paint25_linear_4425_1062)"/>
<path d="M459.92 402.526C457.84 402.523 455.846 401.696 454.375 400.225C452.904 398.754 452.076 396.76 452.074 394.68C452.074 394.085 451.838 393.515 451.417 393.095C450.997 392.674 450.427 392.438 449.832 392.438C449.237 392.438 448.667 392.674 448.247 393.095C447.826 393.515 447.59 394.085 447.59 394.68C447.588 396.76 446.76 398.754 445.289 400.225C443.818 401.696 441.824 402.523 439.744 402.526C439.149 402.526 438.579 402.762 438.159 403.182C437.738 403.603 437.502 404.173 437.502 404.767C437.502 405.362 437.738 405.932 438.159 406.353C438.579 406.773 439.149 407.009 439.744 407.009C441.824 407.012 443.818 407.839 445.289 409.31C446.76 410.781 447.588 412.775 447.59 414.856C447.59 415.45 447.826 416.02 448.247 416.441C448.667 416.861 449.237 417.097 449.832 417.097C450.427 417.097 450.997 416.861 451.417 416.441C451.838 416.02 452.074 415.45 452.074 414.856C452.076 412.775 452.904 410.781 454.375 409.31C455.846 407.839 457.84 407.012 459.92 407.009C460.515 407.009 461.085 406.773 461.506 406.353C461.926 405.932 462.162 405.362 462.162 404.767C462.162 404.173 461.926 403.603 461.506 403.182C461.085 402.762 460.515 402.526 459.92 402.526Z" fill="white"/>
</g>
<defs>
<filter id="filter0_d_4425_1062" x="125" y="125.904" width="298" height="315" filterUnits="userSpaceOnUse" color-interpolation-filters="sRGB">
<feFlood flood-opacity="0" result="BackgroundImageFix"/>
<feColorMatrix in="SourceAlpha" type="matrix" values="0 0 0 0 0 0 0 0 0 0 0 0 0 0 0 0 0 0 127 0" result="hardAlpha"/>
<feOffset dy="4"/>
<feGaussianBlur stdDeviation="2"/>
<feComposite in2="hardAlpha" operator="out"/>
<feColorMatrix type="matrix" values="0 0 0 0 0 0 0 0 0 0 0 0 0 0 0 0 0 0 0.25 0"/>
<feBlend mode="normal" in2="BackgroundImageFix" result="effect1_dropShadow_4425_1062"/>
<feBlend mode="normal" in="SourceGraphic" in2="effect1_dropShadow_4425_1062" result="shape"/>
</filter>
<linearGradient id="paint0_linear_4425_1062" x1="446" y1="281.343" x2="-38.031" y2="-46.6744" gradientUnits="userSpaceOnUse">
<stop stop-color="#95AAC7"/>
<stop offset="1" stop-color="#495361"/>
</linearGradient>
<linearGradient id="paint1_linear_4425_1062" x1="20.6263" y1="130.262" x2="223.183" y2="223.183" gradientUnits="userSpaceOnUse">
<stop stop-color="#0072FC"/>
<stop offset="1" stop-color="#004496" stop-opacity="0"/>
</linearGradient>
<linearGradient id="paint2_linear_4425_1062" x1="427.849" y1="314.188" x2="223.183" y2="223.183" gradientUnits="userSpaceOnUse">
<stop stop-color="#0072FC"/>
<stop offset="1" stop-color="#004496" stop-opacity="0"/>
</linearGradient>
<linearGradient id="paint3_linear_4425_1062" x1="302.522" y1="190.835" x2="-25.7965" y2="-31.6593" gradientUnits="userSpaceOnUse">
<stop stop-color="#95AAC7"/>
<stop offset="1" stop-color="#495361"/>
</linearGradient>
<linearGradient id="paint4_linear_4425_1062" x1="13.9908" y1="88.3568" x2="151.385" y2="151.385" gradientUnits="userSpaceOnUse">
<stop stop-color="#0072FC"/>
<stop offset="1" stop-color="#004496" stop-opacity="0"/>
</linearGradient>
<linearGradient id="paint5_linear_4425_1062" x1="290.21" y1="213.114" x2="151.385" y2="151.385" gradientUnits="userSpaceOnUse">
<stop stop-color="#0072FC"/>
<stop offset="1" stop-color="#004496" stop-opacity="0"/>
</linearGradient>
<linearGradient id="paint6_linear_4425_1062" x1="251.482" y1="158.638" x2="-21.4442" y2="-26.3179" gradientUnits="userSpaceOnUse">
<stop stop-color="#95AAC7"/>
<stop offset="1" stop-color="#495361" stop-opacity="0.6"/>
</linearGradient>
<linearGradient id="paint7_linear_4425_1062" x1="11.6304" y1="73.4497" x2="125.844" y2="125.844" gradientUnits="userSpaceOnUse">
<stop stop-color="#0072FC"/>
<stop offset="1" stop-color="#004496" stop-opacity="0"/>
</linearGradient>
<linearGradient id="paint8_linear_4425_1062" x1="241.247" y1="177.158" x2="125.844" y2="125.844" gradientUnits="userSpaceOnUse">
<stop stop-color="#0072FC"/>
<stop offset="1" stop-color="#004496" stop-opacity="0"/>
</linearGradient>
<radialGradient id="paint9_radial_4425_1062" cx="0" cy="0" r="1" gradientUnits="userSpaceOnUse" gradientTransform="translate(145 153.5) rotate(90) scale(121.799 115.054)">
<stop stop-color="#0A1B3B"/>
<stop offset="0.129808" stop-color="#0B1D3E" stop-opacity="0.916923"/>
<stop offset="0.423077" stop-color="#0E2245" stop-opacity="0.729231"/>
<stop offset="0.533654" stop-color="#0F2447" stop-opacity="0.658462"/>
<stop offset="0.625" stop-color="#102549" stop-opacity="0.6"/>
<stop offset="0.802885" stop-color="#19355F" stop-opacity="0.230769"/>
<stop offset="1" stop-color="#1F3E6D" stop-opacity="0"/>
</radialGradient>
<linearGradient id="paint10_linear_4425_1062" x1="197.214" y1="191.522" x2="346.652" y2="285.329" gradientUnits="userSpaceOnUse">
<stop stop-color="#A6BCFB"/>
<stop offset="0.480769" stop-color="#77B6FF"/>
<stop offset="1" stop-color="#3D99F6"/>
</linearGradient>
<linearGradient id="paint11_linear_4425_1062" x1="197.214" y1="191.522" x2="346.652" y2="285.329" gradientUnits="userSpaceOnUse">
<stop stop-color="#A6BCFB"/>
<stop offset="0.480769" stop-color="#77B6FF"/>
<stop offset="1" stop-color="#3D99F6"/>
</linearGradient>
<linearGradient id="paint12_linear_4425_1062" x1="3" y1="181.5" x2="117" y2="181.5" gradientUnits="userSpaceOnUse">
<stop stop-color="#A6BCFB"/>
<stop offset="0.480769" stop-color="#77B6FF"/>
<stop offset="1" stop-color="#3D99F6"/>
</linearGradient>
<linearGradient id="paint13_linear_4425_1062" x1="365" y1="99" x2="497" y2="99" gradientUnits="userSpaceOnUse">
<stop stop-color="#A6BCFB"/>
<stop offset="0.480769" stop-color="#77B6FF"/>
<stop offset="1" stop-color="#3D99F6"/>
</linearGradient>
<linearGradient id="paint14_linear_4425_1062" x1="433.904" y1="92.6939" x2="462.708" y2="92.6939" gradientUnits="userSpaceOnUse">
<stop stop-color="#A6BCFB"/>
<stop offset="0.480769" stop-color="#77B6FF"/>
<stop offset="1" stop-color="#3D99F6"/>
</linearGradient>
<linearGradient id="paint15_linear_4425_1062" x1="433.904" y1="92.6939" x2="462.708" y2="92.6939" gradientUnits="userSpaceOnUse">
<stop stop-color="#A6BCFB"/>
<stop offset="0.480769" stop-color="#77B6FF"/>
<stop offset="1" stop-color="#3D99F6"/>
</linearGradient>
<linearGradient id="paint16_linear_4425_1062" x1="399.383" y1="116.306" x2="450.001" y2="116.306" gradientUnits="userSpaceOnUse">
<stop stop-color="#A6BCFB"/>
<stop offset="0.480769" stop-color="#77B6FF"/>
<stop offset="1" stop-color="#3D99F6"/>
</linearGradient>
<linearGradient id="paint17_linear_4425_1062" x1="399.383" y1="116.306" x2="450.001" y2="116.306" gradientUnits="userSpaceOnUse">
<stop stop-color="#A6BCFB"/>
<stop offset="0.480769" stop-color="#77B6FF"/>
<stop offset="1" stop-color="#3D99F6"/>
</linearGradient>
<linearGradient id="paint18_linear_4425_1062" x1="399.383" y1="81.5574" x2="427.731" y2="81.5574" gradientUnits="userSpaceOnUse">
<stop stop-color="#A6BCFB"/>
<stop offset="0.480769" stop-color="#77B6FF"/>
<stop offset="1" stop-color="#3D99F6"/>
</linearGradient>
<linearGradient id="paint19_linear_4425_1062" x1="399.383" y1="81.5574" x2="427.731" y2="81.5574" gradientUnits="userSpaceOnUse">
<stop stop-color="#A6BCFB"/>
<stop offset="0.480769" stop-color="#77B6FF"/>
<stop offset="1" stop-color="#3D99F6"/>
</linearGradient>
<linearGradient id="paint20_linear_4425_1062" x1="64" y1="452" x2="170" y2="452" gradientUnits="userSpaceOnUse">
<stop stop-color="#A6BCFB"/>
<stop offset="0.480769" stop-color="#77B6FF"/>
<stop offset="1" stop-color="#3D99F6"/>
</linearGradient>
<linearGradient id="paint21_linear_4425_1062" x1="89.6699" y1="457.177" x2="144.329" y2="457.177" gradientUnits="userSpaceOnUse">
<stop stop-color="#A6BCFB"/>
<stop offset="0.480769" stop-color="#77B6FF"/>
<stop offset="1" stop-color="#3D99F6"/>
</linearGradient>
<linearGradient id="paint22_linear_4425_1062" x1="404" y1="394" x2="516" y2="394" gradientUnits="userSpaceOnUse">
<stop stop-color="#A6BCFB"/>
<stop offset="0.480769" stop-color="#77B6FF"/>
<stop offset="1" stop-color="#3D99F6"/>
</linearGradient>
<linearGradient id="paint23_linear_4425_1062" x1="449.459" y1="383.844" x2="480.097" y2="383.844" gradientUnits="userSpaceOnUse">
<stop stop-color="#A6BCFB"/>
<stop offset="0.480769" stop-color="#77B6FF"/>
<stop offset="1" stop-color="#3D99F6"/>
</linearGradient>
<linearGradient id="paint24_linear_4425_1062" x1="464.404" y1="408.13" x2="483.834" y2="408.13" gradientUnits="userSpaceOnUse">
<stop stop-color="#A6BCFB"/>
<stop offset="0.480769" stop-color="#77B6FF"/>
<stop offset="1" stop-color="#3D99F6"/>
</linearGradient>
<linearGradient id="paint25_linear_4425_1062" x1="437.502" y1="404.768" x2="462.162" y2="404.768" gradientUnits="userSpaceOnUse">
<stop stop-color="#A6BCFB"/>
<stop offset="0.480769" stop-color="#77B6FF"/>
<stop offset="1" stop-color="#3D99F6"/>
</linearGradient>
<clipPath id="clip0_4425_1062">
<rect width="52.3279" height="52.3279" fill="white" transform="translate(434.688 368.524)"/>
</clipPath>
</defs>
</svg>
