<svg width="130" height="42" viewBox="0 0 130 42" fill="none" xmlns="http://www.w3.org/2000/svg">
<g clip-path="url(#clip0_4497_494)">
<mask id="mask0_4497_494" style="mask-type:luminance" maskUnits="userSpaceOnUse" x="0" y="0" width="130" height="42">
<path d="M130 0.5H0V41.5H130V0.5Z" fill="white"/>
</mask>
<g mask="url(#mask0_4497_494)">
<path fill-rule="evenodd" clip-rule="evenodd" d="M1.49071 0.5H42.6469H42.649C43.4719 0.5 44.1397 1.16212 44.1397 1.97903V17.4959C44.1397 18.3128 43.4719 18.9749 42.649 18.9749H27.3843C27.1603 18.9749 26.9405 19.0244 26.738 19.1211L22.7161 21.0408C22.309 21.2365 21.8329 21.2365 21.4236 21.0408L17.4017 19.1211C17.1992 19.0244 16.9795 18.9749 16.7554 18.9749H1.49071C0.667805 18.9749 0 18.3128 0 17.4959V10.8123V1.97903C0 1.16212 0.667805 0.5 1.49071 0.5ZM37.0485 12.6138L37.1972 12.4397V12.4376L38.4703 13.4006L38.3174 13.5963C37.7336 14.3379 36.9925 14.9205 36.1179 15.3268C35.2476 15.7331 34.261 15.9373 33.1882 15.9373C31.1438 15.9373 29.5066 15.2473 28.3197 13.8822C27.3266 12.7299 26.8225 11.324 26.8225 9.70092C26.8225 7.98972 27.4343 6.5279 28.6385 5.35628C29.8427 4.18897 31.3679 3.59564 33.1731 3.59564C34.261 3.59564 35.2605 3.81276 36.1416 4.24486C37.0248 4.67696 37.7594 5.29394 38.3238 6.0743L38.4617 6.26563L37.1885 7.24161L37.0399 7.04813C36.5746 6.44191 36.0059 5.97756 35.3553 5.66585C34.7026 5.35413 33.9723 5.19505 33.1882 5.19505C32.333 5.19505 31.5294 5.40143 30.8013 5.81203C30.0732 6.22048 29.5023 6.77512 29.1038 7.46304C28.7053 8.15311 28.5028 8.93991 28.5028 9.80196C28.5028 11.1219 28.9422 12.1925 29.847 13.0739C30.741 13.9445 31.8892 14.3852 33.2571 14.3852C34.7801 14.3852 36.021 13.8069 37.0485 12.6138ZM25.4998 10.8317C25.3081 10.4189 25.0388 10.0621 24.6963 9.77401C24.4464 9.56334 24.1211 9.37201 23.7226 9.20218C24.0328 8.97001 24.2827 8.69484 24.4701 8.38098C24.7372 7.93383 24.8729 7.43079 24.8729 6.8869C24.8729 6.30647 24.72 5.76903 24.4162 5.28964C24.1125 4.81024 23.6903 4.45124 23.1668 4.21906C22.6498 3.99119 21.9411 3.8794 20.9997 3.8794H14.4229L15.1661 5.47237H21.1849C21.9152 5.47237 22.4451 5.6035 22.7618 5.85932C23.0677 6.10869 23.2142 6.44405 23.2142 6.8869C23.2142 7.22226 23.1216 7.52108 22.9342 7.79624C22.7446 8.07141 22.4947 8.26919 22.1673 8.39817C21.8269 8.53146 21.2733 8.60025 20.5214 8.60025H16.6266L17.3871 10.2233H20.515C21.4478 10.2233 22.1048 10.2663 22.4688 10.3544C22.9902 10.4813 23.4038 10.7135 23.6989 11.0467C23.9897 11.3777 24.1319 11.7539 24.1319 12.1989C24.1319 12.5515 24.0306 12.8697 23.8238 13.1749C23.6149 13.4802 23.3478 13.6995 23.0031 13.8435C22.6498 13.9918 22.0703 14.0671 21.2797 14.0671H19.1837L19.9269 15.66H21.8764C23.0526 15.66 24.0091 15.3204 24.7157 14.6539C25.4266 13.9832 25.7885 13.1491 25.7885 12.1796C25.7885 11.7002 25.6915 11.2487 25.502 10.8381L25.4998 10.8317ZM11.3723 3.74612H12.1327L17.7617 15.7912H15.7044L13.8216 11.8614L11.745 7.41359L7.77044 15.7912H5.66793L11.3723 3.74612Z" fill="white"/>
<path d="M12.7058 38.3677C12.4279 39.0169 12.0423 39.563 11.5468 40.0058C11.0513 40.4487 10.4611 40.7819 9.77603 41.0055C9.09099 41.2312 8.33917 41.343 7.52272 41.343H0.0239258V22.8401H7.23622C8.97251 22.8401 10.3383 23.2915 11.3378 24.1923C12.3352 25.093 12.835 26.3313 12.835 27.9092C12.835 28.4122 12.7618 28.8744 12.6131 29.3001C12.4645 29.7257 12.2749 30.1062 12.0401 30.4437C11.8053 30.7813 11.5403 31.0672 11.2452 31.3015C10.9501 31.5358 10.6463 31.7121 10.334 31.8346C10.698 31.9744 11.0449 32.1678 11.3766 32.4194C11.7062 32.6709 12.0013 32.9697 12.262 33.3158C12.5226 33.6619 12.7316 34.0704 12.8867 34.5369C13.044 35.0055 13.1215 35.5344 13.1215 36.1212C13.1215 36.9704 12.9815 37.7185 12.7058 38.3699V38.3677ZM9.19008 26.0368C8.6343 25.5875 7.90617 25.3617 7.00356 25.3617H2.83517V30.663H7.00141C7.90402 30.663 8.63214 30.4373 9.18793 29.988C9.74371 29.5387 10.0216 28.8787 10.0216 28.0124C10.0216 27.146 9.74371 26.4882 9.18793 26.0368H9.19008ZM9.52829 33.9629C9.00697 33.4426 8.253 33.1825 7.26207 33.1825H2.83517V38.8213H7.26207C8.25085 38.8213 9.00697 38.5569 9.52829 38.0281C10.0496 37.4992 10.3103 36.8199 10.3103 35.9879C10.3103 35.156 10.0496 34.481 9.52829 33.9607V33.9629Z" fill="white"/>
<path d="M28.6168 34.4963C28.5996 35.2143 28.5393 35.87 28.4337 36.459C28.3303 37.0481 28.1558 37.594 27.9124 38.097C27.669 38.6001 27.3221 39.0752 26.8697 39.5266C26.2278 40.1673 25.4975 40.6574 24.6832 40.9949C23.8668 41.3324 22.9642 41.5023 21.9754 41.5023C20.9866 41.5023 20.0883 41.3324 19.2805 40.9949C18.4726 40.6574 17.7488 40.1673 17.1069 39.5266C16.6545 39.0773 16.3077 38.6001 16.0642 38.097C15.8208 37.594 15.642 37.0502 15.53 36.459C15.418 35.87 15.3512 35.2165 15.334 34.4963C15.3167 33.7783 15.3081 32.9763 15.3081 32.0928C15.3081 31.2093 15.3167 30.4074 15.334 29.6894C15.3512 28.9714 15.4158 28.3157 15.53 27.7267C15.642 27.1376 15.8208 26.5916 16.0642 26.0886C16.3077 25.5855 16.6545 25.1104 17.1069 24.659C17.7488 24.0184 18.4748 23.5283 19.2805 23.1908C20.0883 22.8533 20.9866 22.6833 21.9754 22.6833C22.9642 22.6833 23.8668 22.8533 24.6832 23.1908C25.4997 23.5283 26.2278 24.0184 26.8697 24.659C27.32 25.1104 27.669 25.5855 27.9124 26.0886C28.1558 26.5916 28.3281 27.1376 28.4337 27.7267C28.5371 28.3157 28.5974 28.9692 28.6168 29.6894C28.634 30.4074 28.6427 31.2093 28.6427 32.0928C28.6427 32.9763 28.634 33.7783 28.6168 34.4963ZM25.7905 29.7668C25.7646 29.1519 25.7129 28.6318 25.6332 28.2083C25.5557 27.7848 25.4415 27.4278 25.295 27.1419C25.1464 26.856 24.9611 26.5916 24.7349 26.3487C24.4053 26.0026 24.0003 25.7253 23.5243 25.5168C23.046 25.3083 22.5312 25.205 21.9754 25.205C21.4196 25.205 20.9026 25.3083 20.4265 25.5168C19.9483 25.7253 19.5454 26.0026 19.2158 26.3487C18.9896 26.5916 18.8022 26.856 18.6557 27.1419C18.5071 27.4278 18.3951 27.7827 18.3175 28.2083C18.24 28.634 18.1883 29.1519 18.1603 29.7668C18.1344 30.3816 18.1215 31.1577 18.1215 32.0928C18.1215 33.0279 18.1344 33.804 18.1603 34.4188C18.1861 35.0337 18.2378 35.554 18.3175 35.9775C18.3951 36.4031 18.5093 36.7579 18.6557 37.0438C18.8022 37.3297 18.9896 37.594 19.2158 37.8369C19.5454 38.183 19.9483 38.4604 20.4265 38.6689C20.9047 38.8774 21.4196 38.9806 21.9754 38.9806C22.5312 38.9806 23.046 38.8774 23.5243 38.6689C24.0025 38.4604 24.4053 38.183 24.7349 37.8369C24.9611 37.594 25.1464 37.3297 25.295 37.0438C25.4415 36.7579 25.5557 36.4031 25.6332 35.9775C25.7108 35.554 25.7625 35.0337 25.7905 34.4188C25.8163 33.804 25.8293 33.0279 25.8293 32.0928C25.8293 31.1577 25.8163 30.3816 25.7905 29.7668Z" fill="white"/>
<path d="M44.1358 34.4963C44.1186 35.2143 44.0583 35.87 43.9527 36.459C43.8493 37.0481 43.6748 37.594 43.4314 38.097C43.188 38.6001 42.8412 39.0752 42.3888 39.5266C41.7468 40.1673 41.0166 40.6574 40.2023 40.9949C39.3858 41.3324 38.4832 41.5023 37.4944 41.5023C36.5056 41.5023 35.6073 41.3324 34.7995 40.9949C33.9917 40.6574 33.2679 40.1673 32.6259 39.5266C32.1735 39.0773 31.8267 38.6001 31.5833 38.097C31.3398 37.594 31.1632 37.0502 31.049 36.459C30.9349 35.87 30.8702 35.2165 30.853 34.4963C30.8358 33.7783 30.8271 32.9763 30.8271 32.0928C30.8271 31.2093 30.8358 30.4074 30.853 29.6894C30.8702 28.9714 30.9349 28.3157 31.049 27.7267C31.1611 27.1376 31.3398 26.5916 31.5833 26.0886C31.8267 25.5855 32.1735 25.1104 32.6259 24.659C33.2679 24.0184 33.9938 23.5283 34.7995 23.1908C35.6073 22.8533 36.5056 22.6833 37.4944 22.6833C38.4832 22.6833 39.3858 22.8533 40.2023 23.1908C41.0187 23.5283 41.7468 24.0184 42.3888 24.659C42.839 25.1104 43.188 25.5855 43.4314 26.0886C43.6748 26.5916 43.8472 27.1376 43.9527 27.7267C44.0561 28.3157 44.1165 28.9692 44.1358 29.6894C44.1531 30.4074 44.1617 31.2093 44.1617 32.0928C44.1617 32.9763 44.1531 33.7783 44.1358 34.4963ZM41.3095 29.7668C41.2837 29.1519 41.232 28.6318 41.1523 28.2083C41.0747 27.7848 40.9605 27.4278 40.8141 27.1419C40.6654 26.856 40.4802 26.5916 40.254 26.3487C39.9244 26.0026 39.5194 25.7253 39.0433 25.5168C38.5651 25.3083 38.0502 25.205 37.4944 25.205C36.9386 25.205 36.4216 25.3083 35.9455 25.5168C35.4673 25.7253 35.0645 26.0026 34.7349 26.3487C34.5087 26.5916 34.3213 26.856 34.1748 27.1419C34.0261 27.4278 33.9141 27.7827 33.8366 28.2083C33.759 28.634 33.7073 29.1519 33.6793 29.7668C33.6535 30.3816 33.6405 31.1577 33.6405 32.0928C33.6405 33.0279 33.6535 33.804 33.6793 34.4188C33.7052 35.0337 33.7569 35.554 33.8366 35.9775C33.9141 36.4031 34.0283 36.7579 34.1748 37.0438C34.3213 37.3297 34.5087 37.594 34.7349 37.8369C35.0645 38.183 35.4673 38.4604 35.9455 38.6689C36.4238 38.8774 36.9386 38.9806 37.4944 38.9806C38.0502 38.9806 38.5672 38.8774 39.0433 38.6689C39.5215 38.4604 39.9244 38.183 40.254 37.8369C40.4802 37.594 40.6654 37.3297 40.8141 37.0438C40.9605 36.7579 41.0747 36.4031 41.1523 35.9775C41.2298 35.554 41.2815 35.0337 41.3095 34.4188C41.3354 33.804 41.3483 33.0279 41.3483 32.0928C41.3483 31.1577 41.3354 30.3816 41.3095 29.7668Z" fill="white"/>
<path d="M52.7798 25.3617V41.343H49.9686V25.3617H44.8652V22.8401H57.8853V25.3617H52.782H52.7798Z" fill="white"/>
<path d="M71.049 38.2518C70.6591 38.9633 70.1723 39.561 69.5906 40.0447C69.009 40.5305 68.3498 40.8938 67.6109 41.1367C66.872 41.3797 66.0879 41.5 65.2542 41.5C64.2826 41.5 63.3886 41.3302 62.5722 40.9927C61.7558 40.6552 61.0276 40.1651 60.3857 39.5244C59.9333 39.0751 59.5865 38.5979 59.343 38.0948C59.0996 37.5918 58.9208 37.0479 58.8088 36.4567C58.6968 35.8677 58.63 35.2142 58.6128 34.494C58.5955 33.776 58.5869 32.9741 58.5869 32.0906C58.5869 31.2071 58.5955 30.4052 58.6128 29.6872C58.63 28.9692 58.6946 28.3135 58.8088 27.7245C58.9208 27.1354 59.0996 26.5894 59.343 26.0864C59.5865 25.5833 59.9333 25.1082 60.3857 24.6568C61.0276 24.0161 61.7579 23.526 62.5722 23.1885C63.3886 22.851 64.2826 22.6812 65.2542 22.6812C66.9733 22.6812 68.423 23.167 69.6035 24.1365C70.784 25.1061 71.538 26.5185 71.8698 28.3715H69.0047C68.7785 27.4364 68.3584 26.6732 67.7423 26.0842C67.1262 25.4952 66.2968 25.2007 65.2564 25.2007C64.7006 25.2007 64.1879 25.2995 63.7204 25.4995C63.2508 25.6994 62.8523 25.9724 62.5227 26.3185C62.2965 26.5614 62.109 26.8259 61.9626 27.1118C61.8139 27.3977 61.7019 27.7524 61.6244 28.1781C61.5468 28.6037 61.4886 29.1261 61.4542 29.7495C61.4197 30.373 61.4025 31.1533 61.4025 32.0885C61.4025 33.0236 61.4197 33.804 61.4542 34.4274C61.4886 35.0508 61.5446 35.5753 61.6244 35.9988C61.7019 36.4245 61.8161 36.7792 61.9626 37.0651C62.109 37.351 62.2965 37.6155 62.5227 37.8584C62.8523 38.2045 63.2508 38.4775 63.7204 38.6774C64.19 38.8774 64.7006 38.9762 65.2564 38.9762C66.299 38.9762 67.1305 38.6817 67.7552 38.0927C68.3799 37.5037 68.8043 36.7405 69.0305 35.8054H71.8698C71.7125 36.7233 71.4411 37.5381 71.049 38.2475V38.2518Z" fill="white"/>
<path d="M110.702 41.343V28.9733L106.433 37.9915H104.35L99.9745 28.9733V41.343H97.1611V22.8401H99.9745L105.39 34.352L110.702 22.8401H113.516V41.343H110.702Z" fill="white"/>
<path d="M129.582 30.7017C129.304 31.3853 128.905 31.9744 128.384 32.4688C127.863 32.9633 127.238 33.3524 126.51 33.6383C125.782 33.9242 124.965 34.0661 124.063 34.0661H119.845V41.343H117.031V22.8401H124.063C124.965 22.8401 125.782 22.982 126.51 23.2679C127.238 23.5538 127.865 23.9429 128.384 24.4374C128.905 24.9318 129.304 25.5251 129.582 26.2173C129.86 26.9096 129.997 27.6555 129.997 28.4531C129.997 29.2506 129.857 30.0159 129.582 30.7017ZM126.288 26.1679C125.689 25.6305 124.894 25.3617 123.905 25.3617H119.842V31.5208H123.905C124.894 31.5208 125.689 31.2564 126.288 30.7275C126.887 30.1987 127.186 29.442 127.186 28.4531C127.186 27.4642 126.887 26.7032 126.288 26.1657V26.1679Z" fill="white"/>
<path d="M84.5978 17.8326L86.8123 13.3525L85.6899 12.8L83.8976 16.4224L82.142 12.8688L81.0175 13.4235L83.1997 17.8348L71.582 41.2864H76.5389L83.8998 26.4338L91.2586 41.2864H96.2176L84.5978 17.8326Z" fill="white"/>
</g>
</g>
<defs>
<clipPath id="clip0_4497_494">
<rect width="130" height="42" fill="white"/>
</clipPath>
</defs>
</svg>
