<svg width="130" height="42" viewBox="0 0 130 42" fill="none" xmlns="http://www.w3.org/2000/svg">
<g clip-path="url(#clip0_4497_540)">
<mask id="mask0_4497_540" style="mask-type:luminance" maskUnits="userSpaceOnUse" x="0" y="0" width="130" height="42">
<path d="M130 0.5H0V41.5H130V0.5Z" fill="white"/>
</mask>
<g mask="url(#mask0_4497_540)">
<path fill-rule="evenodd" clip-rule="evenodd" d="M1.49059 0.5H42.6468H42.6489C43.4718 0.5 44.1396 1.16212 44.1396 1.97903V17.4959C44.1396 18.3128 43.4718 18.9749 42.6489 18.9749H27.3842C27.1602 18.9749 26.9404 19.0244 26.738 19.1211L22.716 21.0408C22.3089 21.2365 21.8328 21.2365 21.4235 21.0408L17.4016 19.1211C17.1991 19.0244 16.9794 18.9749 16.7553 18.9749H1.49059C0.667682 18.9749 -0.00012207 18.3128 -0.00012207 17.4959V10.8123V1.97903C-0.00012207 1.16212 0.667682 0.5 1.49059 0.5ZM37.0484 12.6138L37.1971 12.4397V12.4376L38.4702 13.4006L38.3173 13.5963C37.7335 14.3379 36.9924 14.9205 36.1178 15.3268C35.2475 15.7331 34.2609 15.9373 33.1881 15.9373C31.1438 15.9373 29.5066 15.2473 28.3196 13.8822C27.3265 12.7299 26.8224 11.324 26.8224 9.70092C26.8224 7.98972 27.4342 6.5279 28.6384 5.35628C29.8426 4.18897 31.3678 3.59564 33.173 3.59564C34.2609 3.59564 35.2604 3.81276 36.1415 4.24486C37.0247 4.67696 37.7593 5.29394 38.3237 6.0743L38.4616 6.26563L37.1885 7.24161L37.0398 7.04813C36.5745 6.44191 36.0058 5.97756 35.3552 5.66585C34.7025 5.35413 33.9722 5.19505 33.1881 5.19505C32.3329 5.19505 31.5294 5.40143 30.8012 5.81203C30.0731 6.22048 29.5023 6.77512 29.1037 7.46304C28.7052 8.15311 28.5027 8.93991 28.5027 9.80196C28.5027 11.1219 28.9422 12.1925 29.8469 13.0739C30.7409 13.9445 31.8891 14.3852 33.257 14.3852C34.7801 14.3852 36.0209 13.8069 37.0484 12.6138ZM25.4997 10.8317C25.308 10.4189 25.0387 10.0621 24.6962 9.77401C24.4463 9.56334 24.121 9.37201 23.7225 9.20218C24.0327 8.97001 24.2826 8.69484 24.47 8.38098C24.7371 7.93383 24.8729 7.43079 24.8729 6.8869C24.8729 6.30647 24.7199 5.76903 24.4162 5.28964C24.1124 4.81024 23.6902 4.45124 23.1667 4.21906C22.6497 3.99119 21.941 3.8794 20.9996 3.8794H14.4228L15.166 5.47237H21.1849C21.9151 5.47237 22.4451 5.6035 22.7617 5.85932C23.0676 6.10869 23.2141 6.44405 23.2141 6.8869C23.2141 7.22226 23.1215 7.52108 22.9341 7.79624C22.7445 8.07141 22.4946 8.26919 22.1672 8.39817C21.8268 8.53146 21.2732 8.60025 20.5214 8.60025H16.6265L17.387 10.2233H20.5149C21.4477 10.2233 22.1047 10.2663 22.4688 10.3544C22.9901 10.4813 23.4037 10.7135 23.6988 11.0467C23.9896 11.3777 24.1318 11.7539 24.1318 12.1989C24.1318 12.5515 24.0306 12.8696 23.8238 13.1749C23.6148 13.4802 23.3477 13.6995 23.003 13.8435C22.6497 13.9918 22.0702 14.0671 21.2796 14.0671H19.1836L19.9268 15.66H21.8764C23.0526 15.66 24.009 15.3204 24.7156 14.6539C25.4265 13.9832 25.7884 13.1491 25.7884 12.1796C25.7884 11.7002 25.6915 11.2487 25.5019 10.8381L25.4997 10.8317ZM11.3722 3.74612H12.1326L17.7616 15.7912H15.7043L13.8215 11.8614L11.7449 7.41359L7.77032 15.7912H5.66781L11.3722 3.74612Z" fill="#315146"/>
<path d="M37.1971 12.4396L37.0484 12.6138C36.0209 13.8069 34.7801 14.3852 33.257 14.3852C31.8891 14.3852 30.7409 13.9445 29.8469 13.0738C28.9422 12.1924 28.5027 11.1219 28.5027 9.8019C28.5027 8.93986 28.7052 8.15305 29.1037 7.46298C29.5023 6.77506 30.0731 6.22042 30.8012 5.81197C31.5294 5.40137 32.3329 5.19499 33.1881 5.19499C33.9722 5.19499 34.7025 5.35408 35.3552 5.66579C36.0058 5.9775 36.5745 6.44185 37.0398 7.04808L37.1885 7.24155L38.4616 6.26557L38.3237 6.07424C37.7593 5.29388 37.0248 4.6769 36.1415 4.24481C35.2605 3.81271 34.2609 3.59558 33.173 3.59558C31.3678 3.59558 29.8426 4.18891 28.6384 5.35623C27.4342 6.52784 26.8224 7.98967 26.8224 9.70087C26.8224 11.3239 27.3265 12.7299 28.3196 13.8821C29.5066 15.2472 31.1438 15.9373 33.1881 15.9373C34.2609 15.9373 35.2475 15.7331 36.1178 15.3268C36.9924 14.9205 37.7335 14.3379 38.3173 13.5962L38.4702 13.4006L37.1971 12.4375V12.4396Z" fill="#F8E7B7"/>
<path d="M25.4996 10.8317C25.3079 10.4189 25.0386 10.0621 24.6961 9.774C24.4462 9.56333 24.1209 9.37201 23.7224 9.20218C24.0326 8.97001 24.2825 8.69483 24.4699 8.38097C24.737 7.93382 24.8727 7.43078 24.8727 6.88689C24.8727 6.30646 24.7198 5.76902 24.416 5.28963C24.1123 4.81024 23.6901 4.45123 23.1666 4.21905C22.6496 3.99118 21.9409 3.87939 20.9995 3.87939H14.4227L15.1659 5.47236H21.1847C21.915 5.47236 22.4449 5.60349 22.7616 5.85931C23.0675 6.10868 23.214 6.44404 23.214 6.88689C23.214 7.22225 23.1214 7.52107 22.9339 7.79624C22.7444 8.0714 22.4945 8.26919 22.167 8.39818C21.8267 8.53146 21.2731 8.60024 20.5212 8.60024H16.6264L17.3869 10.2233H20.5148C21.4475 10.2233 22.1046 10.2663 22.4686 10.3544C22.99 10.4813 23.4036 10.7134 23.6987 11.0467C23.9895 11.3777 24.1317 11.7539 24.1317 12.1989C24.1317 12.5515 24.0304 12.8696 23.8236 13.1749C23.6147 13.4802 23.3476 13.6994 23.0029 13.8435C22.6496 13.9918 22.0701 14.0671 21.2795 14.0671H19.1835L19.9267 15.66H21.8762C23.0524 15.66 24.0089 15.3204 24.7155 14.6539C25.4264 13.9832 25.7883 13.1491 25.7883 12.1796C25.7883 11.7002 25.6913 11.2487 25.5018 10.8381L25.4996 10.8317Z" fill="#F8E7B7"/>
<path d="M12.1325 3.74609H11.3721L5.66772 15.7911H7.77023L11.7447 7.41356L13.8214 11.8614L15.7042 15.7911H17.7614L12.1325 3.74609Z" fill="#EA9224"/>
<path d="M12.706 38.3678C12.4281 39.0171 12.0425 39.5631 11.5471 40.006C11.0516 40.4488 10.4613 40.782 9.77627 41.0056C9.09123 41.2313 8.33941 41.3431 7.52297 41.3431H0.0241699V22.8402H7.23646C8.97275 22.8402 10.3386 23.2917 11.3381 24.1924C12.3355 25.0931 12.8353 26.3314 12.8353 27.9093C12.8353 28.4124 12.762 28.8746 12.6134 29.3002C12.4648 29.7259 12.2752 30.1064 12.0404 30.4439C11.8056 30.7814 11.5406 31.0673 11.2455 31.3016C10.9504 31.5359 10.6466 31.7122 10.3343 31.8348C10.6983 31.9745 11.0451 32.168 11.3769 32.4195C11.7065 32.671 12.0016 32.9698 12.2623 33.3159C12.5229 33.662 12.7319 34.0705 12.887 34.537C13.0442 35.0056 13.1218 35.5345 13.1218 36.1214C13.1218 36.9705 12.9818 37.7186 12.706 38.37V38.3678ZM9.19033 26.0369C8.63454 25.5876 7.90642 25.3619 7.0038 25.3619H2.83541V30.6631H7.00165C7.90426 30.6631 8.63239 30.4374 9.18817 29.9881C9.74396 29.5388 10.0219 28.8789 10.0219 28.0125C10.0219 27.1462 9.74396 26.4883 9.18817 26.0369H9.19033ZM9.52854 33.963C9.00722 33.4428 8.25324 33.1826 7.26231 33.1826H2.83541V38.8214H7.26231C8.25109 38.8214 9.00722 38.557 9.52854 38.0282C10.0499 37.4993 10.3106 36.82 10.3106 35.9881C10.3106 35.1561 10.0499 34.4811 9.52854 33.9609V33.963Z" fill="white"/>
<path d="M28.6171 34.4961C28.5999 35.2141 28.5395 35.8698 28.434 36.4588C28.3306 37.0478 28.156 37.5939 27.9126 38.0969C27.6691 38.6 27.3223 39.0751 26.8699 39.5265C26.228 40.1671 25.4977 40.6573 24.6834 40.9948C23.867 41.3323 22.9643 41.5021 21.9756 41.5021C20.9868 41.5021 20.0885 41.3323 19.2806 40.9948C18.4728 40.6573 17.749 40.1671 17.1071 39.5265C16.6547 39.0772 16.3078 38.6 16.0644 38.0969C15.821 37.5939 15.6422 37.05 15.5302 36.4588C15.4182 35.8698 15.3514 35.2163 15.3341 34.4961C15.3169 33.7781 15.3083 32.9762 15.3083 32.0927C15.3083 31.2091 15.3169 30.4073 15.3341 29.6893C15.3514 28.9712 15.416 28.3156 15.5302 27.7265C15.6422 27.1375 15.821 26.5915 16.0644 26.0884C16.3078 25.5854 16.6547 25.1103 17.1071 24.6588C17.749 24.0182 18.475 23.5281 19.2806 23.1906C20.0885 22.8531 20.9868 22.6832 21.9756 22.6832C22.9643 22.6832 23.867 22.8531 24.6834 23.1906C25.4998 23.5281 26.228 24.0182 26.8699 24.6588C27.3202 25.1103 27.6691 25.5854 27.9126 26.0884C28.156 26.5915 28.3284 27.1375 28.434 27.7265C28.5374 28.3156 28.5977 28.9691 28.6171 29.6893C28.6343 30.4073 28.6428 31.2091 28.6428 32.0927C28.6428 32.9762 28.6343 33.7781 28.6171 34.4961ZM25.7908 29.7666C25.7649 29.1518 25.7131 28.6316 25.6334 28.2081C25.5559 27.7846 25.4417 27.4277 25.2952 27.1418C25.1466 26.8559 24.9613 26.5915 24.7351 26.3485C24.4055 26.0024 24.0006 25.7251 23.5245 25.5166C23.0463 25.3081 22.5313 25.2049 21.9756 25.2049C21.4198 25.2049 20.9029 25.3081 20.4268 25.5166C19.9486 25.7251 19.5456 26.0024 19.216 26.3485C18.9898 26.5915 18.8024 26.8559 18.6559 27.1418C18.5073 27.4277 18.3953 27.7824 18.3177 28.2081C18.2402 28.6337 18.1885 29.1518 18.1605 29.7666C18.1346 30.3815 18.1217 31.1575 18.1217 32.0927C18.1217 33.0278 18.1346 33.8039 18.1605 34.4187C18.1863 35.0335 18.238 35.5538 18.3177 35.9773C18.3953 36.4029 18.5094 36.7576 18.6559 37.0435C18.8024 37.3295 18.9898 37.5939 19.216 37.8368C19.5456 38.1829 19.9486 38.4602 20.4268 38.6688C20.905 38.8773 21.4198 38.9805 21.9756 38.9805C22.5313 38.9805 23.0463 38.8773 23.5245 38.6688C24.0028 38.4602 24.4055 38.1829 24.7351 37.8368C24.9613 37.5939 25.1466 37.3295 25.2952 37.0435C25.4417 36.7576 25.5559 36.4029 25.6334 35.9773C25.711 35.5538 25.7628 35.0335 25.7908 34.4187C25.8166 33.8039 25.8294 33.0278 25.8294 32.0927C25.8294 31.1575 25.8166 30.3815 25.7908 29.7666Z" fill="white"/>
<path d="M44.1358 34.4961C44.1186 35.2141 44.0582 35.8698 43.9527 36.4588C43.8493 37.0478 43.6748 37.5939 43.4314 38.0969C43.1879 38.6 42.8411 39.0751 42.3887 39.5265C41.7468 40.1671 41.0165 40.6573 40.2022 40.9948C39.3858 41.3323 38.4831 41.5021 37.4944 41.5021C36.5056 41.5021 35.6073 41.3323 34.7994 40.9948C33.9916 40.6573 33.2678 40.1671 32.6258 39.5265C32.1735 39.0772 31.8266 38.6 31.5832 38.0969C31.3398 37.5939 31.1631 37.05 31.049 36.4588C30.9348 35.8698 30.8702 35.2163 30.8529 34.4961C30.8357 33.7781 30.8271 32.9762 30.8271 32.0927C30.8271 31.2091 30.8357 30.4073 30.8529 29.6893C30.8702 28.9712 30.9348 28.3156 31.049 27.7265C31.161 27.1375 31.3398 26.5915 31.5832 26.0884C31.8266 25.5854 32.1735 25.1103 32.6258 24.6588C33.2678 24.0182 33.9938 23.5281 34.7994 23.1906C35.6073 22.8531 36.5056 22.6832 37.4944 22.6832C38.4831 22.6832 39.3858 22.8531 40.2022 23.1906C41.0186 23.5281 41.7468 24.0182 42.3887 24.6588C42.839 25.1103 43.1879 25.5854 43.4314 26.0884C43.6748 26.5915 43.8471 27.1375 43.9527 27.7265C44.0561 28.3156 44.1164 28.9691 44.1358 29.6893C44.153 30.4073 44.1616 31.2091 44.1616 32.0927C44.1616 32.9762 44.153 33.7781 44.1358 34.4961ZM41.3095 29.7666C41.2836 29.1518 41.2319 28.6316 41.1522 28.2081C41.0747 27.7846 40.9605 27.4277 40.814 27.1418C40.6654 26.8559 40.4801 26.5915 40.2539 26.3485C39.9243 26.0024 39.5193 25.7251 39.0432 25.5166C38.565 25.3081 38.0501 25.2049 37.4944 25.2049C36.9386 25.2049 36.4216 25.3081 35.9455 25.5166C35.4673 25.7251 35.0644 26.0024 34.7348 26.3485C34.5086 26.5915 34.3212 26.8559 34.1747 27.1418C34.0261 27.4277 33.9141 27.7824 33.8365 28.2081C33.759 28.6337 33.7073 29.1518 33.6793 29.7666C33.6534 30.3815 33.6405 31.1575 33.6405 32.0927C33.6405 33.0278 33.6534 33.8039 33.6793 34.4187C33.7051 35.0335 33.7568 35.5538 33.8365 35.9773C33.9141 36.4029 34.0282 36.7576 34.1747 37.0435C34.3212 37.3295 34.5086 37.5939 34.7348 37.8368C35.0644 38.1829 35.4673 38.4602 35.9455 38.6688C36.4237 38.8773 36.9386 38.9805 37.4944 38.9805C38.0501 38.9805 38.5672 38.8773 39.0432 38.6688C39.5215 38.4602 39.9243 38.1829 40.2539 37.8368C40.4801 37.5939 40.6654 37.3295 40.814 37.0435C40.9605 36.7576 41.0747 36.4029 41.1522 35.9773C41.2298 35.5538 41.2815 35.0335 41.3095 34.4187C41.3353 33.8039 41.3482 33.0278 41.3482 32.0927C41.3482 31.1575 41.3353 30.3815 41.3095 29.7666Z" fill="white"/>
<path d="M52.7803 25.3619V41.3431H49.969V25.3619H44.8657V22.8402H57.8858V25.3619H52.7824H52.7803Z" fill="white"/>
<path d="M71.0488 38.2517C70.6589 38.9632 70.172 39.5609 69.5904 40.0445C69.0088 40.5304 68.3496 40.8937 67.6107 41.1366C66.8718 41.3795 66.0877 41.4999 65.254 41.4999C64.2824 41.4999 63.3884 41.3301 62.572 40.9926C61.7556 40.6551 61.0274 40.1649 60.3855 39.5243C59.9331 39.075 59.5863 38.5978 59.3428 38.0947C59.0994 37.5917 58.9206 37.0478 58.8086 36.4566C58.6966 35.8676 58.6298 35.2141 58.6126 34.4939C58.5953 33.7759 58.5867 32.974 58.5867 32.0905C58.5867 31.2069 58.5953 30.4051 58.6126 29.6871C58.6298 28.969 58.6944 28.3134 58.8086 27.7243C58.9206 27.1353 59.0994 26.5893 59.3428 26.0862C59.5863 25.5832 59.9331 25.1081 60.3855 24.6566C61.0274 24.016 61.7577 23.5259 62.572 23.1884C63.3884 22.8509 64.2824 22.681 65.254 22.681C66.973 22.681 68.4228 23.1669 69.6033 24.1364C70.7838 25.1059 71.5378 26.5183 71.8696 28.3714H69.0045C68.7783 27.4363 68.3582 26.6731 67.7421 26.0841C67.126 25.4951 66.2966 25.2005 65.2561 25.2005C64.7004 25.2005 64.1877 25.2994 63.7202 25.4994C63.2506 25.6993 62.852 25.9723 62.5225 26.3184C62.2963 26.5613 62.1088 26.8257 61.9624 27.1117C61.8137 27.3976 61.7017 27.7523 61.6241 28.1779C61.5466 28.6036 61.4884 29.126 61.454 29.7494C61.4195 30.3728 61.4023 31.1532 61.4023 32.0883C61.4023 33.0235 61.4195 33.8038 61.454 34.4273C61.4884 35.0507 61.5444 35.5752 61.6241 35.9987C61.7017 36.4244 61.8159 36.7791 61.9624 37.065C62.1088 37.3509 62.2963 37.6153 62.5225 37.8583C62.852 38.2044 63.2506 38.4774 63.7202 38.6773C64.1898 38.8772 64.7004 38.9761 65.2561 38.9761C66.2988 38.9761 67.1303 38.6816 67.755 38.0926C68.3797 37.5035 68.8041 36.7404 69.0303 35.8052H71.8696C71.7123 36.7232 71.4409 37.5379 71.0488 38.2474V38.2517Z" fill="white"/>
<path d="M110.702 41.3431V28.9734L106.433 37.9916H104.349L99.9744 28.9734V41.3431H97.161V22.8402H99.9744L105.39 34.3521L110.702 22.8402H113.516V41.3431H110.702Z" fill="white"/>
<path d="M129.55 30.8616C129.273 31.5453 128.874 32.1343 128.353 32.6287C127.831 33.1232 127.207 33.5123 126.479 33.7982C125.75 34.0841 124.934 34.226 124.031 34.226H119.813V41.5029H117V23H124.031C124.934 23 125.75 23.1419 126.479 23.4278C127.207 23.7137 127.834 24.1028 128.353 24.5973C128.874 25.0917 129.273 25.685 129.55 26.3773C129.828 27.0695 129.966 27.8154 129.966 28.613C129.966 29.4105 129.826 30.1759 129.55 30.8616ZM126.257 26.3278C125.658 25.7904 124.863 25.5217 123.874 25.5217H119.811V31.6807H123.874C124.863 31.6807 125.658 31.4163 126.257 30.8874C126.855 30.3586 127.155 29.6019 127.155 28.613C127.155 27.6241 126.855 26.8631 126.257 26.3257V26.3278Z" fill="white"/>
<path d="M84.5981 17.8326L86.8126 13.3525L85.6903 12.8L83.898 16.4224L82.1423 12.8688L81.0178 13.4235L83.2 17.8348L71.5824 41.2864H76.5392L83.9001 26.4338L91.2589 41.2864H96.2179L84.5981 17.8326Z" fill="#F3981E"/>
</g>
</g>
<defs>
<clipPath id="clip0_4497_540">
<rect width="130" height="42" fill="white"/>
</clipPath>
</defs>
</svg>
