<svg width="23" height="21" viewBox="0 0 23 21" fill="none" xmlns="http://www.w3.org/2000/svg">
<path d="M5.02167 7.67871C4.58464 7.67871 4.23047 8.02419 4.23047 8.45049C4.23047 8.87679 4.58464 9.22385 5.02167 9.22385C5.4587 9.22385 5.81287 8.87838 5.81287 8.45049C5.81287 8.0226 5.4587 7.67871 5.02167 7.67871Z" fill="#909090"/>
<path d="M12.8451 7.59766C12.374 7.59766 11.9922 7.97008 11.9922 8.42966C11.9922 8.88924 12.374 9.26166 12.8451 9.26166C13.3163 9.26166 13.6981 8.88924 13.6981 8.42966C13.6981 7.97008 13.3163 7.59766 12.8451 7.59766Z" fill="#909090"/>
<path d="M19.9229 0H3.07706C1.37769 0 0 1.34388 0 3.00154V12.7542C0 14.4118 1.37769 15.7557 3.07706 15.7557H9.02649L11.0508 20.407C11.0508 20.407 11.1905 20.8095 11.5268 20.8095C11.8647 20.8095 12.0028 20.407 12.0028 20.407L14.0271 15.7557H19.9229C21.6223 15.7557 23 14.4118 23 12.7542V3.00154C23 1.34388 21.6223 0 19.9229 0ZM7.22477 8.62111C7.21502 10.404 5.32556 10.4547 5.32556 10.4547C4.59448 10.4547 4.18182 9.98242 4.18182 9.98242V10.3041H2.80575V4.76697C2.80575 4.76697 2.79925 4.76538 2.80575 4.7638V4.76697C2.89186 4.77965 4.18182 4.7638 4.18182 4.7638V6.88104C4.50512 6.34222 5.44091 6.35173 5.44091 6.35173C7.47821 6.53715 7.22314 8.62111 7.22314 8.62111H7.22477ZM9.64872 6.52288V10.3136H8.3019V6.56092C8.3019 6.05063 7.65204 5.908 7.65204 5.908V4.58472C9.80307 4.6703 9.64872 6.52288 9.64872 6.52288ZM12.8411 10.4579C11.5934 10.4579 10.5829 9.54978 10.5829 8.43094C10.5829 7.3121 11.5934 6.40403 12.8411 6.40403C14.0889 6.40403 15.0994 7.3121 15.0994 8.43094C15.0994 9.54978 14.0889 10.4579 12.8411 10.4579ZM20.2202 10.4579C20.2202 10.4579 20.2397 12.3833 18.2333 12.3833H17.6224V11.1361H17.9912C17.9912 11.1361 18.8344 11.2122 18.8247 9.94439C18.8247 9.94439 18.6606 10.4579 17.4779 10.4579C17.4779 10.4579 15.8012 10.3406 15.8012 8.74472V8.13934C15.8012 8.13934 15.8402 6.48485 17.6809 6.35332C17.6809 6.35332 18.4071 6.27725 18.8539 6.86361V6.45791H20.2202V10.4594V10.4579Z" fill="#909090"/>
<path d="M18.0795 7.61719C17.6198 7.61719 17.2461 7.98168 17.2461 8.43017C17.2461 8.87866 17.6198 9.24315 18.0795 9.24315C18.5393 9.24315 18.913 8.87866 18.913 8.43017C18.913 7.98168 18.5393 7.61719 18.0795 7.61719Z" fill="#909090"/>
</svg>
