<svg width="84" height="21" viewBox="0 0 84 21" fill="none" xmlns="http://www.w3.org/2000/svg">
<g clip-path="url(#clip0_4454_247)">
<path d="M51.8378 4.52415C53.0071 4.52415 53.9549 3.59882 53.9549 2.45739C53.9549 1.31595 53.0071 0.390625 51.8378 0.390625C50.6686 0.390625 49.7207 1.31595 49.7207 2.45739C49.7207 3.59882 50.6686 4.52415 51.8378 4.52415Z" fill="#909090"/>
<path d="M28.36 2.12109H20.1291C19.9408 2.12109 19.7852 2.273 19.7852 2.45689C19.7852 2.64078 19.9367 2.79269 20.1291 2.79269H28.36C28.5484 2.79269 28.704 2.64078 28.704 2.45689C28.704 2.273 28.5484 2.12109 28.36 2.12109Z" fill="#909090"/>
<path d="M48.4101 2.45689C48.4101 2.273 48.2545 2.12109 48.0661 2.12109H36.3381C36.1498 2.12109 35.9941 2.273 35.9941 2.45689C35.9941 2.64078 36.1498 2.79269 36.3381 2.79269H48.0661C48.2545 2.79269 48.4101 2.64078 48.4101 2.45689Z" fill="#909090"/>
<path d="M33.9657 12.4434C33.9657 10.8603 35.2843 9.57311 36.9059 9.57311H38.1918C38.7855 9.57311 39.2728 10.0448 39.2728 10.6285V16.6049C39.2728 18.6956 41.0132 20.3946 43.1549 20.3946H45.272C46.308 20.3946 47.2826 19.9989 48.0156 19.2833H48.0197C50.4521 20.8424 53.7445 20.7504 56.0745 18.9875C57.7944 17.6842 58.7813 15.7254 58.7813 13.6187C58.7813 12.8631 58.1548 12.2515 57.3808 12.2515C56.6069 12.2515 55.9804 12.8631 55.9804 13.6187C55.9804 14.8779 55.3907 16.0492 54.3587 16.8288C53.1303 17.7602 51.4472 17.9081 50.0754 17.2765L56.7502 10.7604C57.2989 10.2247 57.2989 9.36124 56.7502 8.82556C55.4398 7.54633 53.6954 6.84275 51.8444 6.84275C49.9935 6.84275 48.249 7.54633 46.9345 8.82556C45.5382 10.1887 44.8011 12.0716 44.9116 13.9985C44.9812 15.2017 45.3785 16.353 46.0459 17.3405L46.0377 17.3484C45.833 17.5483 45.5627 17.6563 45.2761 17.6563H43.159C42.5652 17.6563 42.0779 17.1845 42.0779 16.6009V10.6245C42.0779 8.53374 40.3375 6.83476 38.1959 6.83476H36.91C35.4522 6.83476 34.1214 7.37443 33.1099 8.24991C32.3974 7.38643 31.3081 6.83476 30.0878 6.83476H28.802C27.725 6.83476 26.7217 7.13058 25.8618 7.63428V6.83476H21.6849V9.56912H23.0608V14.782C23.0608 16.365 21.7422 17.6523 20.1206 17.6523H18.8348C18.241 17.6523 17.7537 17.1806 17.7537 16.5969V6.83476H13.5768V9.56912H14.9527V14.782C14.9527 16.365 13.6342 17.6523 12.0125 17.6523H5.50972C4.91595 17.6523 4.42864 17.1806 4.42864 16.5969V0.390625H0.255859V3.12498H1.63177V16.6009C1.63177 18.6916 3.37214 20.3906 5.51381 20.3906H12.0166C13.4745 20.3906 14.8053 19.8509 15.8168 18.9755C16.5293 19.839 17.6186 20.3906 18.8389 20.3906H20.1247C21.2017 20.3906 22.205 20.0948 23.0649 19.5911V20.3906H25.8659V12.4434C25.8659 10.8603 27.1845 9.57311 28.8061 9.57311H30.0919C30.6857 9.57311 31.173 10.0448 31.173 10.6285V20.3906H33.9739V12.4434H33.9657ZM47.7044 13.8426C47.6389 12.6952 48.077 11.5679 48.9083 10.7564C49.6905 9.99286 50.7306 9.57311 51.8362 9.57311C52.4587 9.57311 53.0565 9.70504 53.6012 9.95688L48.0852 15.3417C47.86 14.8779 47.729 14.3742 47.7003 13.8426H47.7044Z" fill="#909090"/>
<path d="M18.4705 2.45739C18.4705 3.5967 17.5246 4.52415 16.3534 4.52415C15.1823 4.52415 14.2363 3.6007 14.2363 2.45739C14.2363 1.31407 15.1823 0.390625 16.3534 0.390625C17.5246 0.390625 18.4705 1.31407 18.4705 2.45739Z" fill="#909090"/>
<path d="M34.6834 2.45739C34.6834 3.5967 33.7375 4.52415 32.5663 4.52415C31.3952 4.52415 30.4492 3.6007 30.4492 2.45739C30.4492 1.31407 31.3952 0.390625 32.5663 0.390625C33.7375 0.390625 34.6834 1.31407 34.6834 2.45739Z" fill="#909090"/>
<path d="M61.6133 20.0386V10.9121H67.5879V12.1554H63.0342V14.8218H66.9204V16.053H63.0342V18.7954H67.5879V20.0386H61.6133Z" fill="#909090"/>
<path d="M74.7 19.1791C74.1103 19.7548 73.2545 20.0386 72.284 20.0386H69.0039V10.9121H72.284C73.2545 10.9121 74.1103 11.1959 74.7 11.7716C75.7115 12.759 75.646 14.0902 75.646 15.4094C75.646 16.7286 75.7115 18.1917 74.7 19.1791ZM73.7295 12.771C73.3364 12.3472 72.8122 12.1554 72.1407 12.1554H70.4208V18.7954H72.1407C72.8081 18.7954 73.3364 18.6035 73.7295 18.1797C74.2168 17.6561 74.2291 16.6687 74.2291 15.4134C74.2291 14.1582 74.2168 13.2987 73.7295 12.775V12.771Z" fill="#909090"/>
<path d="M80.4257 20.1146C78.5215 20.1146 77.0801 18.8473 77.0801 16.9605V10.9121H78.4969V16.8965C78.4969 18.1158 79.2586 18.8713 80.4257 18.8713C81.5927 18.8713 82.3667 18.1158 82.3667 16.8965V10.9121H83.7836V16.9605C83.7836 18.8434 82.3257 20.1146 80.4216 20.1146H80.4257Z" fill="#909090"/>
</g>
<defs>
<clipPath id="clip0_4454_247">
<rect width="83.5294" height="20" fill="white" transform="translate(0.255859 0.390625)"/>
</clipPath>
</defs>
</svg>
