<svg width="22" height="17" viewBox="0 0 22 17" fill="none" xmlns="http://www.w3.org/2000/svg">
<g clip-path="url(#clip0_4454_244)">
<path d="M20.8172 2.88967C20.5769 1.90682 19.8652 1.13221 18.9599 0.868085C17.3219 0.390625 10.7559 0.390625 10.7559 0.390625C10.7559 0.390625 4.18986 0.390625 2.55186 0.868085C1.64886 1.13221 0.937193 1.90428 0.694526 2.88967C0.255859 4.67253 0.255859 8.39062 0.255859 8.39062C0.255859 8.39062 0.255859 12.1087 0.694526 13.8916C0.934859 14.8744 1.64653 15.649 2.55186 15.9132C4.18986 16.3906 10.7559 16.3906 10.7559 16.3906C10.7559 16.3906 17.3219 16.3906 18.9599 15.9132C19.8629 15.649 20.5745 14.877 20.8172 13.8916C21.2559 12.1087 21.2559 8.39062 21.2559 8.39062C21.2559 8.39062 21.2559 4.67253 20.8172 2.88967ZM8.65586 11.8192V4.96205L14.1112 8.39062L8.65586 11.8192Z" fill="#909090"/>
</g>
<defs>
<clipPath id="clip0_4454_244">
<rect width="21" height="16" fill="white" transform="translate(0.255859 0.390625)"/>
</clipPath>
</defs>
</svg>
