<svg width="46" height="46" viewBox="0 0 46 46" fill="none" xmlns="http://www.w3.org/2000/svg">
<mask id="mask0_4568_222" style="mask-type:luminance" maskUnits="userSpaceOnUse" x="5" y="4" width="36" height="38">
<path d="M41 4H5V42H41V4Z" fill="white"/>
</mask>
<g mask="url(#mask0_4568_222)">
<path fill-rule="evenodd" clip-rule="evenodd" d="M33.6723 33.1326V12.734C33.6723 9.71556 31.1855 7.24512 28.145 7.24512H12.6708C9.63025 7.24512 7.14355 9.71556 7.14355 12.734V33.1326C7.14355 36.1533 9.63025 38.6238 12.6708 38.6238H28.145C31.1856 38.6238 33.6723 36.1533 33.6723 33.1326ZM13.061 16.1537C12.5148 16.1537 12.0721 16.5936 12.0721 17.1361C12.0721 17.6787 12.5148 18.1186 13.061 18.1186H27.7526C28.2988 18.1186 28.7415 17.6787 28.7415 17.1361C28.7415 16.5936 28.2988 16.1537 27.7526 16.1537H13.061ZM13.061 21.9523H27.7525C28.2987 21.9523 28.7414 22.3921 28.7415 22.9348C28.7415 23.4773 28.2988 23.9172 27.7526 23.9172H13.061C12.5148 23.9172 12.0721 23.4773 12.0721 22.9348C12.0721 22.3922 12.5148 21.9523 13.061 21.9523ZM13.061 27.7509H21.4136C21.9597 27.7509 22.4025 28.1908 22.4025 28.7333C22.4025 29.2759 21.9598 29.7158 21.4136 29.7158H13.061C12.5148 29.7158 12.0721 29.2759 12.0721 28.7333C12.0721 28.1908 12.5148 27.7509 13.061 27.7509Z" fill="white"/>
<path d="M40.6068 34.5783C40.6068 38.3668 37.4949 41.463 33.6735 41.463C29.8521 41.463 26.7402 38.3668 26.7402 34.5783C26.7402 30.7897 29.8523 27.6914 33.6735 27.6914C37.4947 27.6914 40.6068 30.7897 40.6068 34.5783Z" fill="url(#paint0_linear_4568_222)"/>
<path d="M40.6068 34.5783C40.6068 38.3668 37.4949 41.463 33.6735 41.463C29.8521 41.463 26.7402 38.3668 26.7402 34.5783C26.7402 30.7897 29.8523 27.6914 33.6735 27.6914C37.4947 27.6914 40.6068 30.7897 40.6068 34.5783Z" fill="#E94E58"/>
<path d="M40.6068 34.5783C40.6068 38.3668 37.4949 41.463 33.6735 41.463C29.8521 41.463 26.7402 38.3668 26.7402 34.5783C26.7402 30.7897 29.8523 27.6914 33.6735 27.6914C37.4947 27.6914 40.6068 30.7897 40.6068 34.5783Z" stroke="white"/>
<path d="M37.4035 33.1139L32.4077 38.0794C32.2217 38.2643 31.9699 38.3673 31.7084 38.3673C31.6886 38.3673 31.6689 38.3667 31.6491 38.3655C31.3667 38.3486 31.105 38.2125 30.9303 37.9913L29.1006 35.6745C28.7634 35.2477 28.8385 34.6301 29.2681 34.2952C29.6979 33.9602 30.3195 34.0348 30.6566 34.4617L31.7977 35.9065L36.0048 31.7249C36.3909 31.3412 37.017 31.341 37.4032 31.7246C37.7895 32.1082 37.7896 32.7302 37.4035 33.1139Z" fill="white"/>
</g>
<defs>
<linearGradient id="paint0_linear_4568_222" x1="33.6735" y1="27.1915" x2="33.6735" y2="41.963" gradientUnits="userSpaceOnUse">
<stop stop-color="#3B77FF"/>
<stop offset="1" stop-color="#09B4FF"/>
</linearGradient>
</defs>
</svg>
