<svg width="188" height="33" viewBox="0 0 188 33" fill="none" xmlns="http://www.w3.org/2000/svg">
<g clip-path="url(#clip0_0_66)">
<path d="M64.5223 14.0487L63.0234 14.0409V14.0095V8.55005H59.9852V18.2767H53.1148L53.131 12.6525L58.4701 12.629V9.86001H50.2224V21.0849H59.9852V25.6266H63.0234V16.7863V16.7785L64.5223 16.7942V25.6266H67.5281V8.55005H64.5223V14.0487Z" fill="#222222"/>
<path d="M85.9113 10.9268V8.57358H82.865V18.7866H85.9113C85.9113 18.7866 85.9113 13.735 85.9113 13.7271H89.0791V10.9268C89.0791 10.9268 85.9518 10.9346 85.9113 10.9268Z" fill="#222222"/>
<path d="M124.266 16.0568V8.57358H113.19V11.319H121.284V16.0568H118.684V13.2722H115.629V16.0568H109.861V18.9199H114.754C114.398 19.5867 114.211 20.324 114.211 21.1241C114.211 22.4497 114.705 23.6028 115.694 24.5519C116.674 25.5011 117.865 25.9874 119.234 25.9874C120.604 25.9874 121.811 25.5011 122.791 24.5519C123.763 23.6028 124.258 22.4497 124.258 21.1241C124.258 20.324 124.079 19.5867 123.723 18.9199H127.685V16.0568H124.258H124.266ZM120.831 22.6694C120.385 23.0929 119.866 23.3047 119.243 23.3047C118.619 23.3047 118.092 23.0929 117.655 22.6694C117.217 22.2379 116.998 21.7359 116.998 21.1319C116.998 20.5279 117.217 20.0181 117.655 19.5788C118.1 19.1474 118.619 18.9356 119.243 18.9356C119.866 18.9356 120.385 19.1474 120.831 19.5788C121.276 20.0181 121.487 20.5201 121.487 21.1319C121.487 21.7438 121.268 22.2379 120.831 22.6694Z" fill="#222222"/>
<path d="M142.957 12.7309V19.1787H138.209V18.3237C139.076 18.0257 139.797 17.5158 140.364 16.802C140.964 16.049 141.263 15.1626 141.263 14.1899C141.263 13.8134 141.223 13.4526 141.126 13.1153C141.077 12.9192 140.988 12.7388 140.907 12.5505H142.082V9.85215H138.306V7.9931H135.26V9.85215H131.225V12.5505C131.225 12.5505 132.408 12.5505 132.522 12.5505C132.449 12.7388 132.359 12.9113 132.303 13.1074C132.214 13.4447 132.173 13.7977 132.173 14.1821C132.173 15.1783 132.481 16.0647 133.081 16.8177C133.656 17.5393 134.401 18.057 135.276 18.3473V19.1709H130.626V21.9399H142.949V25.6187H145.987V8.57356H142.949C142.949 8.57356 142.932 11.923 142.949 12.7309H142.957ZM136.726 15.8764C136.265 15.8764 135.884 15.7195 135.552 15.3979C135.219 15.0763 135.057 14.7076 135.057 14.2605C135.057 13.8134 135.219 13.4447 135.552 13.1231C135.884 12.8015 136.265 12.6446 136.726 12.6446C137.188 12.6446 137.569 12.8015 137.901 13.1231C138.233 13.4447 138.395 13.8134 138.395 14.2605C138.395 14.7076 138.233 15.0763 137.901 15.3979C137.569 15.7195 137.188 15.8764 136.726 15.8764Z" fill="#222222"/>
<path d="M155.887 18.3865C157.346 18.3865 158.602 17.8766 159.63 16.8726C160.659 15.8686 161.178 14.6527 161.178 13.2643C161.178 11.8759 160.659 10.6366 159.63 9.64037C158.602 8.64417 157.346 8.14215 155.887 8.14215C154.429 8.14215 153.198 8.64417 152.161 9.64037C151.123 10.6366 150.597 11.8524 150.597 13.2643C150.597 14.6763 151.123 15.8686 152.152 16.8726C153.189 17.8766 154.445 18.3787 155.879 18.3787L155.887 18.3865ZM154.21 11.6328C154.672 11.17 155.223 10.9503 155.879 10.9503C156.536 10.9503 157.086 11.17 157.548 11.6328C158.018 12.0956 158.245 12.629 158.245 13.2643C158.245 13.8997 158.018 14.4331 157.556 14.8802C157.095 15.3273 156.544 15.547 155.887 15.547C155.231 15.547 154.68 15.3273 154.21 14.8802C153.749 14.4331 153.522 13.8997 153.522 13.2643C153.522 12.629 153.749 12.0877 154.21 11.6328Z" fill="#222222"/>
<path d="M163.228 19.2023H150.362V22.0654H163.228V25.6815H166.331V8.55005H163.228V19.2023Z" fill="#222222"/>
<path d="M180.46 20.8339V17.861H177.406V20.8339H169.985V23.6342H187.817V20.8339C187.817 20.8339 180.501 20.8339 180.469 20.8339H180.46Z" fill="#222222"/>
<path d="M78.7978 17.4923C79.6809 16.6373 80.1346 15.5783 80.1346 14.3625C80.1346 13.8762 80.0617 13.4212 79.924 12.9898C79.8268 12.7074 79.6971 12.4407 79.5513 12.1897H80.6045V9.68743H76.9182V7.90683H74.2202C74.2202 7.90683 74.2202 9.6639 74.2202 9.68743C74.1716 9.68743 70.4366 9.68743 70.4366 9.68743V12.2132H71.579C71.4413 12.4564 71.3198 12.7152 71.2225 12.9898C71.0686 13.4212 70.9957 13.884 70.9957 14.3703C70.9957 15.5862 71.4413 16.6451 72.3325 17.5001C73.2237 18.363 74.3094 18.7944 75.5652 18.7944C76.8209 18.7944 77.9066 18.3551 78.7978 17.5001V17.4923ZM73.7989 14.3939C73.7989 13.4369 74.601 12.6525 75.5976 12.6525C76.5941 12.6525 77.3962 13.4291 77.3962 14.3939C77.3962 15.3587 76.5941 16.1353 75.5976 16.1353C74.601 16.1353 73.7989 15.3587 73.7989 14.3939Z" fill="#222222"/>
<path d="M78.3846 22.8341V19.7357H75.4436V25.6266H85.9275V22.8341C85.9275 22.8341 78.417 22.8576 78.3846 22.8341Z" fill="#222222"/>
<path d="M105.639 11.5622V8.57358H102.601V16.3078L102.131 15.9548C102.131 15.9548 100.041 14.2056 99.2794 13.531C98.5178 12.8564 97.8778 12.1583 97.8778 12.1426C97.9264 11.8289 98.0803 11.1543 98.0803 10.3071V8.56573H94.8072V10.3071C94.8072 12.5427 93.1301 13.8919 92.4657 14.5194C91.7933 15.1469 89.784 16.4726 89.784 16.4726L91.6879 18.5277C91.6879 18.5277 93.2921 17.5472 94.1347 16.8491C94.9368 16.1902 95.6336 15.4999 96.225 14.7939C96.7192 15.2332 97.659 16.0019 98.5178 16.6922C97.9912 16.9275 97.5051 17.2491 97.0676 17.6805C96.0873 18.6218 95.585 19.7828 95.585 21.1241C95.585 22.4654 96.0792 23.6028 97.0676 24.5519C98.0479 25.5011 99.247 25.9874 100.608 25.9874C101.969 25.9874 103.185 25.5011 104.165 24.5519C105.137 23.6028 105.631 22.4497 105.631 21.1241V14.339H108.791V11.5543H105.631L105.639 11.5622ZM102.204 22.6694C101.759 23.0929 101.24 23.3047 100.616 23.3047C99.9924 23.3047 99.4658 23.0929 99.0283 22.6694C98.5827 22.2379 98.372 21.7359 98.372 21.1319C98.372 20.5279 98.5908 20.0181 99.0283 19.5788C99.4739 19.1474 99.9924 18.9356 100.616 18.9356C101.24 18.9356 101.759 19.1474 102.204 19.5788C102.65 20.0181 102.86 20.5201 102.86 21.1319C102.86 21.7438 102.642 22.2379 102.204 22.6694Z" fill="#222222"/>
<path d="M178.783 14.1272C180.906 16.2529 184.657 18.1983 184.657 18.1983L186.513 15.9313C182.794 13.9154 181.044 12.2525 180.355 11.4837C180.541 10.9268 180.647 10.3385 180.647 9.73451V8.49515H177.422V9.65607C177.422 10.2052 177.479 12.6996 171.435 15.947L173.444 18.0414C173.444 18.0414 176.644 16.5902 178.783 14.1272Z" fill="#222222"/>
<path d="M47.3462 0.015686H16.802V32.9686H47.3462V0.015686Z" fill="url(#paint0_linear_0_66)"/>
<path d="M25.9005 2.05514C26.2002 2.05514 26.4514 1.80413 26.4514 1.49821C26.4514 1.19229 26.2084 0.941284 25.9005 0.941284C25.5926 0.941284 25.3495 1.19229 25.3495 1.49821C25.3495 1.80413 25.5926 2.05514 25.9005 2.05514Z" fill="white"/>
<path d="M32.3658 18.6767C32.3658 18.8101 32.4711 18.9199 32.6007 18.9199C32.7223 18.9199 32.8357 18.8101 32.8357 18.6767C32.8357 18.5434 32.7304 18.4336 32.6007 18.4336C32.4711 18.4336 32.3658 18.5434 32.3658 18.6767Z" fill="white"/>
<path d="M32.6331 23.4851C32.4873 23.4851 32.3577 23.6106 32.3577 23.7675C32.3577 23.9244 32.4792 24.0421 32.6331 24.0421C32.7871 24.0421 32.9086 23.9166 32.9086 23.7675C32.9086 23.6185 32.7871 23.4851 32.6331 23.4851Z" fill="white"/>
<path d="M27.5533 6.14191C27.3345 6.14191 27.1644 6.31448 27.1644 6.53411C27.1644 6.75374 27.3345 6.93416 27.5533 6.93416C27.7477 6.93416 27.9421 6.75374 27.9421 6.53411C27.9421 6.31448 27.772 6.14191 27.5533 6.14191Z" fill="white"/>
<path d="M31.3368 15.0998C31.3368 14.8724 31.1586 14.692 30.9398 14.692C30.7211 14.692 30.5428 14.8724 30.5428 15.0998C30.5428 15.3273 30.7211 15.5077 30.9398 15.5077C31.1343 15.5077 31.3368 15.3273 31.3368 15.0998Z" fill="white"/>
<path d="M30.9317 19.265C31.1829 19.265 31.4259 19.0375 31.4259 18.7552C31.4259 18.4728 31.2072 18.2531 30.9317 18.2531C30.6562 18.2531 30.4375 18.4806 30.4375 18.7552C30.4375 19.0297 30.6562 19.265 30.9317 19.265Z" fill="white"/>
<path d="M30.7616 16.9667C30.7616 17.0765 30.8507 17.1707 30.9641 17.1707C31.0614 17.1707 31.1586 17.0765 31.1586 16.9667C31.1586 16.8569 31.0695 16.7628 30.9641 16.7628C30.8588 16.7628 30.7616 16.8569 30.7616 16.9667Z" fill="white"/>
<path d="M29.2061 16.5039C28.963 16.5039 28.7686 16.7 28.7686 16.9432C28.7686 17.1864 28.963 17.3903 29.2061 17.3903C29.4248 17.3903 29.6355 17.1864 29.6355 16.9432C29.6355 16.7 29.441 16.5039 29.2061 16.5039Z" fill="white"/>
<path d="M32.8195 15.1704C32.8195 15.0685 32.7385 14.99 32.6413 14.99C32.544 14.99 32.463 15.0685 32.463 15.1704C32.463 15.2724 32.544 15.3508 32.6413 15.3508C32.7304 15.3508 32.8195 15.2724 32.8195 15.1704Z" fill="white"/>
<path d="M32.5845 10.3777C32.7466 10.3777 32.9005 10.2287 32.9005 10.0561C32.9005 9.88353 32.7547 9.7345 32.5845 9.7345C32.4144 9.7345 32.2686 9.88353 32.2686 10.0561C32.2686 10.2287 32.4144 10.3856 32.5845 10.3777Z" fill="white"/>
<path d="M32.5845 12.2132C32.8114 12.2132 33.0301 12.0014 33.0301 11.7504C33.0301 11.4994 32.8276 11.2876 32.5845 11.2876C32.3415 11.2876 32.1389 11.4916 32.1389 11.7504C32.1389 12.0093 32.3415 12.2132 32.5845 12.2132Z" fill="white"/>
<path d="M32.9815 13.4055C32.9815 13.1859 32.8114 13.0133 32.6007 13.0133C32.3901 13.0133 32.2119 13.1937 32.2119 13.4055C32.2119 13.6173 32.382 13.8056 32.6007 13.7977C32.7952 13.7977 32.9815 13.6173 32.9815 13.4055Z" fill="white"/>
<path d="M20.7963 1.79631C21.0069 1.79631 21.177 1.62374 21.177 1.4041C21.177 1.18447 21.0069 1.01974 20.7963 1.01974C20.5856 1.01974 20.4155 1.19231 20.4155 1.4041C20.4155 1.61589 20.5856 1.79631 20.7963 1.79631Z" fill="white"/>
<path d="M22.5868 1.79629C22.765 1.79629 22.9028 1.64725 22.9028 1.46684C22.9028 1.28643 22.765 1.14523 22.5868 1.14523C22.4085 1.14523 22.2708 1.29427 22.2708 1.46684C22.2708 1.63941 22.4166 1.79629 22.5868 1.79629Z" fill="white"/>
<path d="M27.5695 7.9931C27.3831 7.9931 27.2373 8.14214 27.2373 8.3304C27.2373 8.51866 27.3831 8.67554 27.5695 8.66769C27.7315 8.66769 27.9017 8.51866 27.9017 8.3304C27.9017 8.14214 27.7558 7.9931 27.5695 7.9931Z" fill="white"/>
<path d="M29.3195 8.64416C29.4734 8.64416 29.6193 8.50296 29.6193 8.33824C29.6193 8.17351 29.4815 8.03232 29.3195 8.03232C29.1574 8.03232 29.0197 8.16567 29.0197 8.33824C29.0197 8.51081 29.1574 8.64416 29.3195 8.64416Z" fill="white"/>
<path d="M30.9803 8.59712C31.11 8.59712 31.2315 8.47945 31.2315 8.33826C31.2315 8.19707 31.1181 8.07941 30.9803 8.07941C30.8426 8.07941 30.7292 8.19707 30.7292 8.33826C30.7292 8.47945 30.8426 8.59712 30.9803 8.59712Z" fill="white"/>
<path d="M29.2709 3.31805C29.3762 3.31805 29.4653 3.22392 29.4653 3.12194C29.4653 3.01997 29.3762 2.92584 29.2709 2.92584C29.1655 2.92584 29.0764 3.01213 29.0764 3.12194C29.0764 3.23176 29.1574 3.31805 29.2709 3.31805Z" fill="white"/>
<path d="M29.2709 5.02804C29.3762 5.02804 29.4653 4.94175 29.4653 4.83194C29.4653 4.72212 29.3762 4.63583 29.2709 4.63583C29.1655 4.63583 29.0764 4.72212 29.0764 4.83194C29.0764 4.94175 29.1574 5.02804 29.2709 5.02804Z" fill="white"/>
<path d="M27.5695 1.79629C27.7477 1.79629 27.8854 1.64725 27.8854 1.46684C27.8854 1.28643 27.7477 1.14523 27.5695 1.14523C27.3912 1.14523 27.2535 1.29427 27.2535 1.46684C27.2535 1.63941 27.3912 1.79629 27.5695 1.79629Z" fill="white"/>
<path d="M24.2882 2.01592C24.5637 2.01592 24.7986 1.7806 24.7986 1.49821C24.7986 1.21582 24.5718 0.972656 24.2882 0.972656C24.0046 0.972656 23.7778 1.20798 23.7778 1.49821C23.7778 1.78844 24.0046 2.01592 24.2882 2.01592Z" fill="white"/>
<path d="M32.5764 20.8025C32.8033 20.8025 32.9896 20.6142 32.9896 20.3789C32.9896 20.1436 32.8033 19.9553 32.5764 19.9553C32.3496 19.9553 32.1632 20.1436 32.1632 20.3789C32.1632 20.6142 32.3496 20.8025 32.5764 20.8025Z" fill="white"/>
<path d="M32.6007 21.6261C32.3577 21.6261 32.1632 21.8222 32.1632 22.0732C32.1632 22.3242 32.3577 22.5125 32.6007 22.5125C32.8438 22.5125 33.0301 22.3164 33.0301 22.0732C33.0301 21.83 32.8357 21.6261 32.6007 21.6261Z" fill="white"/>
<path d="M20.8368 30.1134C20.5451 30.1134 20.3182 30.3487 20.3182 30.6468C20.3182 30.9448 20.5532 31.1802 20.8368 31.1802C21.1203 31.1802 21.3553 30.9448 21.3553 30.6468C21.3553 30.3487 21.1203 30.1134 20.8368 30.1134Z" fill="white"/>
<path d="M30.9398 23.2106C30.6644 23.2106 30.4456 23.4381 30.4456 23.7205C30.4456 24.0029 30.6644 24.2303 30.9398 24.2303C31.2153 24.2303 31.4341 24.0029 31.4341 23.7205C31.4341 23.4381 31.2153 23.2106 30.9398 23.2106Z" fill="white"/>
<path d="M27.853 25.5089C27.853 25.3364 27.7153 25.1873 27.5452 25.1873C27.375 25.1873 27.2373 25.3285 27.2373 25.5089C27.2373 25.6893 27.375 25.8227 27.5452 25.8227C27.7153 25.8227 27.853 25.6815 27.853 25.5089Z" fill="white"/>
<path d="M27.0914 27.3287C27.0914 27.5719 27.2859 27.768 27.5208 27.768C27.7558 27.768 27.9502 27.5719 27.9502 27.3287C27.9502 27.0856 27.7558 26.8895 27.5208 26.8895C27.2859 26.8895 27.0914 27.0856 27.0914 27.3287Z" fill="white"/>
<path d="M27.5046 30.1605C27.2373 30.1605 27.0266 30.3801 27.0266 30.6546C27.0266 30.9292 27.2373 31.141 27.5046 31.141C27.772 31.141 27.9826 30.9213 27.9826 30.6546C27.9826 30.3879 27.772 30.1605 27.5046 30.1605Z" fill="white"/>
<path d="M29.2627 30.5134C29.1574 30.5134 29.0683 30.5997 29.0683 30.7095C29.0683 30.8193 29.1574 30.9056 29.2627 30.9056C29.3681 30.9056 29.4572 30.8193 29.4572 30.7095C29.4572 30.5997 29.3681 30.5134 29.2627 30.5134Z" fill="white"/>
<path d="M29.2465 28.7877C29.125 28.7877 29.0359 28.8818 29.0359 29.0074C29.0359 29.1329 29.1331 29.227 29.2465 29.227C29.36 29.227 29.4572 29.1329 29.4572 29.0074C29.4572 28.8818 29.36 28.7877 29.2465 28.7877Z" fill="white"/>
<path d="M29.3195 25.2657C29.2061 25.2657 29.1088 25.3599 29.1088 25.4854C29.1088 25.6109 29.2061 25.705 29.3195 25.705C29.4329 25.705 29.5301 25.6109 29.5301 25.4854C29.5301 25.3599 29.4329 25.2657 29.3195 25.2657Z" fill="white"/>
<path d="M31.0127 25.3128C30.9155 25.3128 30.8426 25.3912 30.8426 25.4854C30.8426 25.5795 30.9155 25.6579 31.0127 25.6579C31.11 25.6579 31.1748 25.5795 31.1748 25.4854C31.1748 25.3912 31.1019 25.3128 31.0127 25.3128Z" fill="white"/>
<path d="M31.1343 10.8954C31.1343 10.8954 31.1343 10.864 31.1343 10.8483C31.1343 10.5032 31.4179 10.4875 31.4746 10.1345C31.5394 9.75018 31.1586 9.33444 30.6887 9.57761C30.5104 9.67174 30.4132 9.82862 30.4132 10.0483C30.4132 10.4012 30.6968 10.4483 30.6968 10.7856C30.6968 11.068 30.4861 11.3425 30.1945 11.3425C29.8137 11.3425 29.6273 11.0837 29.6273 10.7542C29.6273 10.4718 29.9595 10.3306 29.9595 10.0169C29.9595 9.67174 29.7327 9.43642 29.3762 9.43642C28.9792 9.43642 28.8577 9.94628 28.4526 9.94628C28.0961 9.94628 27.9826 9.45211 27.61 9.45211C27.1806 9.45211 27.2616 9.7188 26.7998 9.85215C26.7512 9.86784 26.6377 9.92275 26.4514 9.83646C26.0706 9.66389 26.0463 9.31091 26.0463 9.17756C26.0463 9.09128 26.1516 8.82458 26.2164 8.77751C26.4271 8.65201 26.5162 8.41669 26.5162 8.26765C26.5162 7.92251 26.2812 7.66366 25.941 7.66366C25.5359 7.66366 25.5602 7.89898 25.2766 7.97742C24.9444 8.0637 24.6204 7.83623 24.6204 7.43618C24.6204 7.13026 24.8796 6.91063 25.1308 6.91063C25.4792 6.91063 25.5035 7.17732 25.8599 7.17732C26.0382 7.17732 26.1678 7.13026 26.3137 6.99691C26.5081 6.8165 26.5891 6.51058 26.4433 6.22819C26.3866 6.11053 26.2893 6.00071 26.2164 5.8909C26.1111 5.67911 26.1435 5.4281 26.2164 5.29475C26.2975 5.1614 26.4838 4.99667 26.7674 5.02805C26.8889 5.04374 27.0185 5.10649 27.0833 5.1614C27.3264 5.34966 27.6181 5.43594 27.9016 5.20062C28.0394 5.0908 28.088 4.91039 28.0637 4.73782C28.0475 4.58878 27.9664 4.43974 27.8206 4.35346C27.375 4.09461 27.1887 4.47896 26.9213 4.55741C26.7593 4.60447 26.5891 4.57309 26.5081 4.52603C26.2569 4.36915 26.103 4.18089 26.1921 3.81222C26.2975 3.49846 26.6701 3.19254 27.1806 3.52199C27.3021 3.61612 27.4398 3.68671 27.5532 3.68671C27.8125 3.68671 28.0718 3.45139 28.0718 3.15332C28.0718 2.85524 27.8368 2.61992 27.5532 2.61992C27.3831 2.61992 27.2778 2.69052 27.1482 2.80818C27.0185 2.92584 26.8646 3.00428 26.6296 2.93368C26.4514 2.86309 26.3947 2.76896 26.3218 2.6513C26.2326 2.35322 26.0949 2.25909 25.9167 2.25909C25.6655 2.25909 25.6088 2.40029 25.4792 2.61992C25.3576 2.78465 25.1713 2.80033 25.0579 2.80033C24.9039 2.80033 24.7257 2.72189 24.5312 2.53364C24.434 2.43951 24.3611 2.36107 24.2558 2.36107C24.0613 2.36107 23.9236 2.55717 23.7859 2.69052C23.6724 2.80033 23.5428 2.89446 23.3484 2.89446C23.2187 2.89446 23.081 2.83955 23 2.73758C22.7974 2.48657 22.4247 2.46304 22.2465 2.59639C21.809 2.91799 21.9548 3.31804 22.1493 3.5769C22.287 3.75731 22.3275 4.02401 22.1412 4.24364C22.0359 4.36915 21.8981 4.43974 21.7523 4.44759C21.5902 4.46328 21.4282 4.39268 21.3067 4.25149C21.1527 4.08676 21.1527 3.76515 21.2581 3.62396C21.3796 3.45139 21.4606 3.32589 21.412 3.09841C21.3229 2.64345 20.8611 2.47873 20.5289 2.67483C20.4722 2.71405 20.4236 2.75327 20.3912 2.80033C20.2858 2.91015 20.1724 2.98859 19.9537 2.98859C19.8078 2.98859 19.6053 2.86309 19.5648 2.81602C19.103 2.14928 19.8159 1.92964 19.7592 1.32565C19.7349 1.05111 19.5162 0.902069 19.3784 0.666747C19.3622 0.611839 19.3541 0.55693 19.3379 0.494177C19.3541 0.321608 19.5486 0.172571 19.6458 -0.00784302H16.405V7.96173C11.8761 8.0088 8.22211 11.7818 8.22211 16.4333C8.22211 21.0849 11.8761 24.8579 16.405 24.9049V32.9922H19.4838C19.5972 32.8431 19.743 32.6784 19.7592 32.4901C19.7916 32.0587 19.3865 31.9332 19.3541 31.5959C19.3541 31.5253 19.3703 31.4547 19.4108 31.392C19.5324 31.188 19.7916 31.0233 19.8402 30.7958C19.9213 30.3722 19.3136 30.1683 19.5729 29.6192C19.6944 29.3604 19.9861 29.2662 20.2291 29.3447C20.6261 29.4859 20.5208 29.8388 20.8854 29.8388C21.25 29.8388 21.2014 29.5643 21.3958 29.431C21.7361 29.2035 22.0926 29.3368 22.2465 29.5957C22.368 29.7996 22.3356 30.0585 22.2546 30.1761C22.1736 30.3016 22.0602 30.4115 22.0602 30.6232C22.0602 30.9292 22.3032 31.1723 22.5949 31.1723C22.8865 31.1723 23.1296 30.9292 23.1296 30.6232C23.1296 30.4507 23.0486 30.3016 22.9271 30.1997C22.8541 30.1212 22.8217 29.98 22.8217 29.8467C22.8217 29.5486 23.0405 29.3447 23.3646 29.3054C23.4861 29.2898 23.6643 29.3682 23.7372 29.4466C23.8183 29.5329 23.8507 29.6192 23.8831 29.6976C23.9641 29.9565 23.8183 30.1604 23.6886 30.3801C23.6157 30.4821 23.5671 30.5997 23.5671 30.7409C23.5671 31.0704 23.8345 31.3449 24.1585 31.3449C24.2963 31.3449 24.4259 31.29 24.5312 31.2037C24.7419 31.0704 24.9525 30.8743 25.2361 30.9527C25.3576 30.9841 25.4305 31.0547 25.5197 31.1331C25.6331 31.2586 25.7951 31.3371 25.9734 31.3371C26.3137 31.3371 26.5891 31.0547 26.5891 30.7095C26.5891 30.6232 26.5729 30.537 26.5324 30.4585C26.5243 30.435 26.5162 30.4193 26.5 30.3958C26.4676 30.333 26.419 30.2781 26.3704 30.231C26.2974 30.1526 26.2245 30.0663 26.2002 29.9173C26.1597 29.7212 26.2245 29.5643 26.2893 29.4466C26.3947 29.2584 26.7025 29.1643 26.9213 29.2113C26.9942 29.227 27.059 29.2741 27.1238 29.3211C27.2211 29.4545 27.375 29.5329 27.5451 29.5329C27.8368 29.5329 28.0718 29.2898 28.0718 28.9917C28.0718 28.6936 27.8368 28.4504 27.5451 28.4504C27.1887 28.4504 27.1968 28.7877 26.7755 28.7877C26.5729 28.7877 26.4109 28.7093 26.2893 28.521C26.1354 28.2857 26.2002 28.0112 26.2731 27.87C26.3299 27.768 26.4109 27.6739 26.4757 27.5719C26.5729 27.4542 26.6296 27.3131 26.6296 27.1483C26.6296 26.7875 26.3461 26.4894 25.9896 26.4894C25.8437 26.4894 25.706 26.5443 25.6007 26.6228C25.5926 26.6228 25.5845 26.6385 25.5764 26.6463C25.5764 26.6463 25.5521 26.6777 25.5359 26.6855C25.5278 26.6855 25.5197 26.7012 25.5116 26.7091C25.4711 26.7483 25.4386 26.7718 25.3576 26.811C24.9687 26.9914 24.5312 26.5443 24.7257 26.1443C24.7905 26.0031 24.8877 25.8854 25.0336 25.8541C25.4143 25.7756 25.4711 25.956 25.625 26.0658C25.706 26.1208 25.8032 26.1364 25.9005 26.1364C26.2245 26.1364 26.4838 25.8697 26.4838 25.5403C26.4838 25.3207 26.3704 25.1402 26.2083 25.0304C26.1921 25.0147 26.1759 25.0069 26.1597 25.0069C26.0868 24.9677 25.9977 24.9441 25.9086 24.9441C25.6088 24.9441 25.5683 25.1246 25.3657 25.1952C25.0822 25.305 24.7986 25.1559 24.6933 24.9049C24.515 24.497 24.8634 24.0107 25.3495 24.1519C25.5359 24.2068 25.6412 24.3558 25.7546 24.4186C25.8518 24.4735 25.9167 24.4892 26.022 24.4892C26.3542 24.4892 26.6296 24.2146 26.6296 23.8695C26.6296 23.8146 26.6215 23.7597 26.6053 23.7126C26.6053 23.7126 26.6053 23.6969 26.6053 23.6891C26.5891 23.5401 26.4271 23.4145 26.3461 23.289C26.184 23.0302 26.3056 22.7007 26.5648 22.536C26.6863 22.4576 26.8889 22.4419 27.0266 22.4889C27.2616 22.5674 27.4884 22.9361 27.3507 23.1871C27.213 23.4459 27.0995 23.493 27.0995 23.6969C27.0995 24.0185 27.4074 24.2382 27.5938 24.2382C27.6991 24.2382 27.8935 24.2146 28.007 24.0813C28.2743 23.7675 28.1609 23.5322 28.007 23.2655C27.9097 23.1008 27.8935 22.889 28.007 22.7007C28.088 22.5674 28.2176 22.4497 28.3796 22.4184C28.7199 22.3556 29.0845 22.6458 29.0521 23.0302C29.0359 23.242 28.9468 23.2969 28.8495 23.4538C28.6875 23.7126 28.8739 24.0735 29.125 24.1911C29.4977 24.3637 29.9595 24.0342 29.8704 23.5714C29.8137 23.2969 29.6435 23.2812 29.603 23.0851C29.5787 22.9439 29.5382 22.8419 29.7002 22.5831C29.8704 22.3007 30.2512 22.285 30.559 22.5125C30.6644 22.5909 30.7454 22.6929 30.8588 22.7321C31.0614 22.7949 31.2882 22.7478 31.4341 22.6066C31.6933 22.3634 31.6771 22.0811 31.6123 21.9085C31.5313 21.6889 31.2801 21.5477 31.272 21.2182C31.2639 20.8809 31.5232 20.6848 31.6285 20.4416C31.7014 20.2848 31.7257 20.0965 31.5556 19.8455C31.4746 19.7357 31.353 19.6572 31.2315 19.6416C31.0533 19.618 30.9074 19.6651 30.7697 19.7435C30.5834 19.8612 30.3727 20.0416 30.1215 19.9788C30.0567 19.9632 29.8947 19.9475 29.8056 19.8377C29.5058 19.4768 29.7002 19.1944 29.838 18.8964C29.9514 18.6532 30.0081 18.3787 29.7408 18.1276C29.5382 17.9394 29.1979 17.9708 28.9792 18.1276C28.8739 18.1982 28.7928 18.2375 28.6956 18.3159C28.4201 18.4179 28.2095 18.3551 28.0556 18.2061C27.9502 18.1041 27.8854 17.9159 27.8854 17.7825C27.9016 17.4452 28.2581 17.3511 28.2581 16.8961C28.2581 16.3784 27.8044 16.402 27.8044 15.8293C27.8044 15.7038 27.8935 15.5156 27.9988 15.4214C28.1366 15.3116 28.2419 15.2646 28.331 15.2646C28.9063 15.2646 28.7604 15.6254 29.2465 15.6254C29.4005 15.6254 29.5625 15.5391 29.6678 15.4293C29.9109 15.1783 29.8299 14.7861 29.7084 14.6527C29.5625 14.4958 29.4491 14.2213 29.6192 13.9154C29.7489 13.6801 30.0405 13.5624 30.2998 13.6644C30.4861 13.735 30.4699 13.8369 30.6887 13.9468C31.0209 14.135 31.4016 13.9468 31.5313 13.6644C31.7824 13.1074 31.272 12.9898 31.2558 12.6133C31.2396 12.2054 31.6609 12.0799 31.7014 11.7426C31.75 11.3817 31.2477 11.1778 31.1829 10.8405L31.1343 10.8954ZM25.1065 3.58474C25.3009 3.58474 25.4549 3.74947 25.4549 3.94557C25.4549 4.14167 25.2766 4.3064 25.1065 4.3064C24.912 4.3064 24.75 4.14167 24.75 3.94557C24.75 3.74947 24.912 3.58474 25.1065 3.58474ZM25.147 5.34966C25.3657 5.34966 25.544 5.53007 25.544 5.7497C25.544 5.96934 25.3495 6.14975 25.147 6.1576C24.9282 6.1576 24.75 5.97718 24.75 5.7497C24.75 5.52223 24.9282 5.34966 25.147 5.34966ZM25.147 27.768C25.3414 27.768 25.4954 27.9249 25.4954 28.1288C25.4954 28.3328 25.3414 28.4897 25.147 28.4897C24.9525 28.4897 24.7986 28.3249 24.7986 28.1288C24.7986 27.9327 24.9525 27.768 25.147 27.768ZM25.1065 29.4859C25.3414 29.4859 25.5359 29.682 25.5359 29.9251C25.5359 30.1683 25.3414 30.3644 25.1065 30.3644C24.8715 30.3644 24.6771 30.1683 24.6771 29.9251C24.6771 29.682 24.8715 29.4859 25.1065 29.4859ZM23.3889 7.22439C23.5023 7.22439 23.5914 7.31852 23.5914 7.42834C23.5914 7.53815 23.4942 7.63228 23.3889 7.63228C23.2754 7.63228 23.1863 7.53815 23.1863 7.42834C23.1863 7.31852 23.2754 7.22439 23.3889 7.22439ZM23.1863 5.65558C23.1863 5.54576 23.2754 5.45163 23.3889 5.45163C23.5023 5.45163 23.5914 5.54576 23.5914 5.65558C23.5914 5.76539 23.4942 5.85952 23.3889 5.85952C23.2754 5.85952 23.1863 5.76539 23.1863 5.65558ZM23.3565 3.4357C23.6076 3.4357 23.8021 3.63965 23.8021 3.89066C23.8021 4.14167 23.5752 4.34562 23.3565 4.35346C23.1134 4.35346 22.9109 4.14951 22.9109 3.89066C22.9109 3.63181 23.1134 3.4357 23.3565 3.4357ZM18.1145 3.95341C18.1145 3.79653 18.2442 3.66318 18.3981 3.66318C18.552 3.66318 18.6817 3.78869 18.6817 3.95341C18.6817 4.11814 18.5601 4.24364 18.3981 4.24364C18.2361 4.24364 18.1145 4.11814 18.1145 3.95341ZM19.7916 5.65558C19.7916 5.51438 19.905 5.40456 20.0428 5.40456C20.1805 5.40456 20.2939 5.51438 20.2939 5.65558C20.2939 5.79677 20.1724 5.90659 20.0428 5.91443C19.905 5.91443 19.7916 5.79677 19.7916 5.65558ZM21.728 5.34181C21.8981 5.34181 22.0358 5.48301 22.0358 5.65558C22.0358 5.82815 21.8819 5.96934 21.728 5.96934C21.5578 5.96934 21.4201 5.82815 21.4201 5.65558C21.4201 5.48301 21.5578 5.34181 21.728 5.34181ZM20.059 3.38864C20.3426 3.38864 20.5694 3.62396 20.5694 3.90635C20.5694 4.18873 20.3426 4.4319 20.059 4.4319C19.7754 4.4319 19.5486 4.19658 19.5486 3.90635C19.5486 3.61612 19.7754 3.38864 20.059 3.38864ZM18.4467 0.0784417C18.6979 0.0784417 18.9004 0.290232 18.9004 0.541242C18.9004 0.792252 18.6979 1.00404 18.4467 1.00404C18.1955 1.00404 17.993 0.792252 17.993 0.541242C17.993 0.290232 18.1955 0.0784417 18.4467 0.0784417ZM18.4143 1.79629C18.6493 1.79629 18.8356 1.99239 18.8356 2.22772C18.8356 2.46304 18.6412 2.65914 18.4143 2.65914C18.1874 2.65914 17.993 2.46304 17.993 2.22772C17.993 1.99239 18.1793 1.79629 18.4143 1.79629ZM18.4143 29.5643C18.5925 29.5643 18.7384 29.7133 18.7384 29.8937C18.7384 30.0742 18.5925 30.2232 18.4143 30.2232C18.2361 30.2232 18.0902 30.0742 18.0902 29.8937C18.0902 29.7133 18.2361 29.5643 18.4143 29.5643ZM18.1631 28.1602C18.1631 28.0661 18.2361 27.9876 18.3333 27.9876C18.4305 27.9876 18.5034 28.0661 18.5034 28.1602C18.5034 28.2543 18.4305 28.3328 18.3333 28.3328C18.2361 28.3328 18.1631 28.2543 18.1631 28.1602ZM18.4629 32.0195C18.228 32.0195 18.0335 31.8234 18.0335 31.5802C18.0335 31.3371 18.228 31.141 18.4629 31.141C18.6979 31.141 18.8923 31.3371 18.8923 31.5802C18.8923 31.8234 18.6979 32.0195 18.4629 32.0195ZM20.0428 28.4504C19.8969 28.4504 19.7835 28.3328 19.7835 28.1837C19.7835 28.0347 19.8969 27.917 20.0428 27.917C20.1886 27.917 20.302 28.0347 20.302 28.1837C20.302 28.3328 20.1886 28.4504 20.0428 28.4504ZM21.6794 28.5289C21.5011 28.5289 21.3553 28.3798 21.3553 28.1916C21.3553 28.0033 21.5011 27.8543 21.6794 27.8543C21.8576 27.8543 22.0034 28.0112 22.0034 28.1916C22.0034 28.372 21.8576 28.5289 21.6794 28.5289ZM23.397 28.3798C23.2754 28.3798 23.1863 28.2779 23.1863 28.1602C23.1863 28.0425 23.2835 27.9406 23.397 27.9406C23.5104 27.9406 23.6076 28.0425 23.6076 28.1602C23.6076 28.2779 23.5104 28.3798 23.397 28.3798ZM23.2268 26.3953C23.2268 26.2933 23.3078 26.207 23.4132 26.207C23.5185 26.207 23.5995 26.2933 23.5995 26.3953C23.5995 26.4973 23.5185 26.5836 23.4132 26.5836C23.3078 26.5836 23.2268 26.4973 23.2268 26.3953ZM23.4375 24.9128C23.316 24.9128 23.2268 24.8186 23.2268 24.6931C23.2268 24.5676 23.3241 24.4735 23.4375 24.4735C23.5509 24.4735 23.6481 24.5676 23.6481 24.6931C23.6481 24.8186 23.5509 24.9128 23.4375 24.9128ZM25.1065 23.3675C24.8958 23.3675 24.7257 23.1949 24.7257 22.9753C24.7257 22.7556 24.8958 22.5831 25.1065 22.5831C25.3171 22.5831 25.4873 22.7556 25.4873 22.9753C25.4873 23.1949 25.3171 23.3675 25.1065 23.3675ZM24.8391 10.8327C24.8391 10.6679 24.9768 10.5267 25.1389 10.5267C25.3009 10.5267 25.4386 10.6601 25.4386 10.8327C25.4386 11.0052 25.2928 11.1386 25.1389 11.1386C24.9768 11.1386 24.8391 11.0052 24.8391 10.8327ZM25.1551 9.64821C24.8715 9.64821 24.6366 9.41288 24.6366 9.12265C24.6366 8.83242 24.8634 8.5971 25.1551 8.5971C25.4468 8.5971 25.6655 8.83242 25.6655 9.12265C25.6655 9.41288 25.4143 9.64821 25.1551 9.64821ZM26.8079 10.315C27.0671 10.315 27.2778 10.5267 27.2778 10.7934C27.2778 11.0601 27.0428 11.2719 26.8079 11.2719C26.5486 11.2719 26.338 11.0601 26.338 10.7934C26.338 10.5267 26.5486 10.315 26.8079 10.315ZM26.7917 14.0644C26.9618 14.0644 27.0995 14.2056 27.0995 14.3782C27.0995 14.5508 26.9456 14.6919 26.7917 14.6919C26.6215 14.6919 26.4838 14.5508 26.4838 14.3782C26.4838 14.2056 26.6215 14.0644 26.7917 14.0644ZM26.581 12.5897C26.581 12.4956 26.6539 12.425 26.7431 12.425C26.8322 12.425 26.9051 12.4956 26.9051 12.5897C26.9051 12.6839 26.8241 12.7545 26.7431 12.7545C26.6539 12.7545 26.581 12.6839 26.581 12.5897ZM26.7755 21.4849C26.6539 21.4849 26.5486 21.3829 26.5486 21.2574C26.5486 21.1319 26.6539 21.03 26.7755 21.03C26.897 21.03 27.0023 21.1319 27.0023 21.2574C27.0023 21.3829 26.9051 21.4849 26.7755 21.4849ZM26.7755 19.72C26.6539 19.72 26.5486 19.618 26.5486 19.4925C26.5486 19.367 26.6539 19.2572 26.7755 19.2572C26.897 19.2572 27.0023 19.3592 27.0023 19.4925C27.0023 19.6259 26.9051 19.72 26.7755 19.72ZM26.8565 18.1669C26.6377 18.1669 26.4514 17.9786 26.4514 17.7511C26.4514 17.5237 26.6377 17.3354 26.8565 17.3354C27.0752 17.3354 27.2616 17.5237 27.2616 17.7511C27.2616 17.9786 27.0752 18.1669 26.8565 18.1669ZM26.8727 16.5039C26.6296 16.5039 26.4352 16.3 26.4352 16.0568C26.4352 15.8136 26.6296 15.6097 26.8727 15.6097C27.1157 15.6097 27.3102 15.8136 27.3102 16.0568C27.3102 16.3 27.0914 16.5039 26.8727 16.5039ZM30.1783 20.8025C30.4132 20.8025 30.6077 20.9986 30.6077 21.2417C30.6077 21.4849 30.4132 21.681 30.1783 21.681C29.9433 21.681 29.7489 21.4849 29.7489 21.2417C29.7489 20.9986 29.9433 20.8025 30.1783 20.8025ZM28.4688 21.5163C28.3229 21.5163 28.2095 21.3908 28.2095 21.2417C28.2095 21.0927 28.3229 20.975 28.4688 20.975C28.6146 20.975 28.7361 21.0927 28.7361 21.2417C28.7361 21.3908 28.6146 21.5163 28.4688 21.5163ZM28.5174 18.9983C28.7442 18.9983 28.9306 19.1866 28.9306 19.4219C28.9306 19.6572 28.7442 19.8455 28.5174 19.8455C28.2905 19.8455 28.1042 19.6572 28.1042 19.4219C28.1042 19.1866 28.2905 18.9983 28.5174 18.9983ZM28.5012 12.323C28.647 12.323 28.7685 12.4485 28.7685 12.5976C28.7685 12.7466 28.6389 12.8721 28.5012 12.8721C28.3553 12.8721 28.2338 12.7466 28.2338 12.5976C28.2338 12.4485 28.3553 12.323 28.5012 12.323ZM28.5093 14.943C28.2257 14.943 27.9988 14.7076 27.9988 14.4174C27.9988 14.1272 28.2257 13.8918 28.5093 13.8918C28.7928 13.8918 29.0197 14.1272 29.0197 14.4174C29.0197 14.7076 28.7685 14.9351 28.5093 14.943ZM30.1702 13.0918C29.9271 13.0918 29.7327 12.8957 29.7327 12.6446C29.7327 12.3936 29.9271 12.1975 30.1702 12.1975C30.4132 12.1975 30.6077 12.3936 30.6077 12.6446C30.6077 12.8957 30.3889 13.0918 30.1702 13.0918Z" fill="white"/>
<path d="M27.5857 32.1136C27.4398 32.1136 27.3264 32.2313 27.3264 32.3803C27.3264 32.5294 27.4398 32.647 27.5857 32.647C27.7315 32.647 27.8449 32.5294 27.8449 32.3803C27.8449 32.2313 27.7315 32.1136 27.5857 32.1136Z" fill="white"/>
<path d="M25.9086 31.9332C25.6817 31.9332 25.5035 32.1215 25.5035 32.3489C25.5035 32.5764 25.6817 32.7647 25.9086 32.7647C26.1354 32.7647 26.3137 32.5764 26.3137 32.3489C26.3137 32.1215 26.1273 31.9332 25.9086 31.9332Z" fill="white"/>
<path d="M24.2882 31.9332C24.0613 31.9332 23.8831 32.1215 23.8831 32.3489C23.8831 32.5764 24.0694 32.7647 24.2882 32.7647C24.5069 32.7647 24.6932 32.5764 24.6932 32.3489C24.6932 32.1215 24.515 31.9332 24.2882 31.9332Z" fill="white"/>
<path d="M22.5787 32.1371C22.4491 32.1371 22.3438 32.247 22.3438 32.3803C22.3438 32.5137 22.4491 32.6235 22.5787 32.6235C22.7083 32.6235 22.8218 32.5137 22.8218 32.3803C22.8218 32.247 22.7164 32.1371 22.5787 32.1371Z" fill="white"/>
<path d="M20.8125 32.043C20.618 32.043 20.4641 32.1999 20.4641 32.396C20.4641 32.5921 20.618 32.749 20.8125 32.749C21.0069 32.749 21.1528 32.5921 21.1528 32.396C21.1528 32.1999 20.9988 32.043 20.8125 32.043Z" fill="white"/>
<path d="M11.0011 16.3627C11.0011 13.0133 13.6504 10.2914 16.9236 10.2914V0.015686H15.9675C15.5381 0.015686 15.2222 0.345137 15.1735 0.745184L14.7846 3.11409C14.6874 3.56121 14.1203 3.73377 14.1203 3.73377C13.7557 3.81222 13.3992 3.90634 13.0508 4.02401C12.9698 4.03969 12.4675 4.13382 12.192 3.8279L10.7013 1.9767C10.4582 1.6551 10.0207 1.52959 9.65615 1.74923L8.05197 2.69836C7.68738 2.91799 7.56585 3.3651 7.71979 3.74162L8.53808 5.99287C8.66771 6.42429 8.26262 6.86356 8.26262 6.86356H8.27072C8.00336 7.11457 7.73599 7.38127 7.49294 7.65581C7.49294 7.65581 7.06354 8.07154 6.64224 7.9382L4.44662 7.09888C4.08204 6.942 3.63643 7.05966 3.42578 7.43617L2.49406 9.08343C2.28341 9.45994 2.40494 9.90706 2.71281 10.1581L4.51954 11.6877C4.81931 11.97 4.72209 12.4878 4.70588 12.5662C4.59246 12.927 4.50333 13.2879 4.42232 13.6644C4.42232 13.6644 4.25218 14.237 3.82278 14.339L1.50563 14.7312C1.10864 14.7861 0.792664 15.1077 0.792664 15.5469V17.4452C0.792664 17.8766 1.11674 18.2061 1.50563 18.261L3.82278 18.661C4.25218 18.763 4.42232 19.3435 4.42232 19.3435C4.50333 19.7043 4.59246 20.073 4.70588 20.4338C4.72209 20.5201 4.81931 21.0299 4.51954 21.3123L2.71281 22.8419C2.39684 23.0929 2.27531 23.54 2.49406 23.9166L3.42578 25.5638C3.63643 25.9403 4.07393 26.058 4.44662 25.9011L6.64224 25.0618C7.06354 24.9284 7.49294 25.3442 7.49294 25.3442C7.7441 25.6109 8.00336 25.8776 8.27072 26.1364H8.26262C8.26262 26.1364 8.66771 26.5679 8.53808 27.0071L7.71979 29.2584C7.56585 29.6349 7.67928 30.082 8.05197 30.3016L9.65615 31.2508C10.0207 31.4704 10.4663 31.3449 10.7013 31.0233L12.192 29.1721C12.4756 28.8583 12.9941 28.9681 13.0589 28.9838C13.4073 29.1015 13.7638 29.1956 14.1284 29.2741H14.1203C14.1203 29.2741 14.6874 29.4466 14.7846 29.8859L15.1735 32.2548C15.2303 32.6549 15.5462 32.9922 15.9675 32.9922H16.9236V22.4576C13.6504 22.4576 11.0011 19.7435 11.0011 16.3941V16.3627Z" fill="url(#paint1_linear_0_66)"/>
</g>
<defs>
<linearGradient id="paint0_linear_0_66" x1="45.8859" y1="14.8124" x2="7.27092" y2="14.8124" gradientUnits="userSpaceOnUse">
<stop stop-color="white"/>
<stop offset="0.02" stop-color="#EFFAFE"/>
<stop offset="0.1" stop-color="#B1E6FA"/>
<stop offset="0.19" stop-color="#7BD5F6"/>
<stop offset="0.27" stop-color="#4EC7F3"/>
<stop offset="0.35" stop-color="#2CBCF1"/>
<stop offset="0.42" stop-color="#14B4F0"/>
<stop offset="0.49" stop-color="#05AFEF"/>
<stop offset="0.54" stop-color="#00AEEF"/>
<stop offset="0.62" stop-color="#04A1E5"/>
<stop offset="0.75" stop-color="#117FCC"/>
<stop offset="0.93" stop-color="#2549A3"/>
<stop offset="1" stop-color="#2E3192"/>
</linearGradient>
<linearGradient id="paint1_linear_0_66" x1="53.6851" y1="14.8127" x2="5.28824" y2="14.8127" gradientUnits="userSpaceOnUse">
<stop stop-color="white"/>
<stop offset="0.02" stop-color="#EFFAFE"/>
<stop offset="0.1" stop-color="#B1E6FA"/>
<stop offset="0.19" stop-color="#7BD5F6"/>
<stop offset="0.27" stop-color="#4EC7F3"/>
<stop offset="0.35" stop-color="#2CBCF1"/>
<stop offset="0.42" stop-color="#14B4F0"/>
<stop offset="0.49" stop-color="#05AFEF"/>
<stop offset="0.54" stop-color="#00AEEF"/>
<stop offset="0.62" stop-color="#04A1E5"/>
<stop offset="0.75" stop-color="#117FCC"/>
<stop offset="0.93" stop-color="#2549A3"/>
<stop offset="1" stop-color="#2E3192"/>
</linearGradient>
<clipPath id="clip0_0_66">
<rect width="187" height="33" fill="white" transform="translate(0.800781)"/>
</clipPath>
</defs>
</svg>
