<svg width="110" height="33" viewBox="0 0 110 33" fill="none" xmlns="http://www.w3.org/2000/svg">
<g clip-path="url(#clip0_0_131)">
<path d="M36.5585 0H2.05069C1.36071 0 0.800781 0.532928 0.800781 1.19044V8.30018V13.6796C0.800781 14.3371 1.36071 14.8701 2.05069 14.8701H14.8496C15.0374 14.8701 15.2216 14.9099 15.3914 14.9877L18.7636 16.5329C19.1068 16.6903 19.506 16.6903 19.8474 16.5329L23.2196 14.9877C23.3894 14.9099 23.5736 14.8701 23.7615 14.8701H36.5603C37.2503 14.8701 37.8102 14.3371 37.8102 13.6796V1.19044C37.8102 0.532928 37.2503 0 36.5603 0H36.5585Z" fill="#315146"/>
<path d="M31.9888 9.61L31.8642 9.75015C31.0026 10.7105 29.9622 11.1759 28.6852 11.1759C27.5383 11.1759 26.5756 10.8212 25.826 10.1204C25.0674 9.41102 24.6989 8.54934 24.6989 7.48694C24.6989 6.7931 24.8687 6.15981 25.2028 5.60439C25.537 5.0507 26.0156 4.60429 26.6261 4.27553C27.2366 3.94505 27.9104 3.77894 28.6274 3.77894C29.2849 3.77894 29.8972 3.90698 30.4445 4.15787C30.99 4.40876 31.4668 4.78251 31.8569 5.27045L31.9816 5.42617L33.049 4.64062L32.9334 4.48663C32.4602 3.85853 31.8443 3.36194 31.1037 3.01415C30.365 2.66637 29.5269 2.49161 28.6148 2.49161C27.1012 2.49161 25.8224 2.96917 24.8127 3.90871C23.803 4.85172 23.29 6.02831 23.29 7.40562C23.29 8.71198 23.7127 9.84359 24.5454 10.771C25.5406 11.8698 26.9133 12.4252 28.6274 12.4252C29.5269 12.4252 30.3542 12.2608 31.0839 11.9338C31.8172 11.6067 32.4385 11.1378 32.928 10.5409L33.0563 10.3834L31.9888 9.60827V9.61Z" fill="#F8E7B7"/>
<path d="M22.181 8.31574C22.0203 7.98353 21.7945 7.6963 21.5073 7.46444C21.2978 7.29488 21.025 7.14088 20.6909 7.00419C20.951 6.81732 21.1605 6.59584 21.3176 6.34322C21.5416 5.98332 21.6554 5.57843 21.6554 5.14067C21.6554 4.67349 21.5272 4.24092 21.2725 3.85507C21.0178 3.46921 20.6638 3.18026 20.2249 2.99339C19.7914 2.80998 19.1971 2.72 18.4078 2.72H12.8934L13.5166 4.00214H18.5632C19.1755 4.00214 19.6198 4.10769 19.8853 4.31359C20.1418 4.51431 20.2646 4.78423 20.2646 5.14067C20.2646 5.41059 20.187 5.6511 20.0298 5.87258C19.8709 6.09406 19.6613 6.25324 19.3868 6.35706C19.1014 6.46434 18.6372 6.51971 18.0068 6.51971H14.7412L15.3788 7.82607H18.0014C18.7835 7.82607 19.3344 7.86068 19.6397 7.93162C20.0768 8.03371 20.4236 8.22058 20.671 8.48877C20.9149 8.75524 21.0341 9.05804 21.0341 9.4162C21.0341 9.69997 20.9492 9.95605 20.7758 10.2018C20.6006 10.4475 20.3766 10.6239 20.0876 10.7399C19.7914 10.8593 19.3055 10.9198 18.6426 10.9198H16.8852L17.5083 12.202H19.143C20.1292 12.202 20.9311 11.9286 21.5236 11.3922C22.1196 10.8523 22.4231 10.181 22.4231 9.40063C22.4231 9.01478 22.3418 8.65142 22.1828 8.32093L22.181 8.31574Z" fill="#F8E7B7"/>
<path d="M10.9734 2.61273H10.3359L5.55298 12.3075H7.31585L10.6483 5.5646L12.3895 9.14456L13.9682 12.3075H15.6931L10.9734 2.61273Z" fill="#EA9224"/>
<path d="M11.4539 30.479C11.2209 31.0015 10.8976 31.441 10.4822 31.7974C10.0667 32.1539 9.57182 32.4221 8.99744 32.602C8.42306 32.7837 7.79269 32.8737 7.10813 32.8737H0.820679V17.9811H6.86791C8.32372 17.9811 9.46887 18.3445 10.307 19.0695C11.1432 19.7944 11.5623 20.7911 11.5623 22.0611C11.5623 22.466 11.5009 22.838 11.3762 23.1806C11.2516 23.5232 11.0927 23.8295 10.8958 24.1011C10.6989 24.3728 10.4767 24.6029 10.2293 24.7915C9.98183 24.9801 9.72715 25.122 9.46525 25.2206C9.7705 25.3331 10.0613 25.4888 10.3395 25.6913C10.6158 25.8937 10.8633 26.1342 11.0818 26.4128C11.3004 26.6914 11.4756 27.0201 11.6056 27.3956C11.7375 27.7728 11.8025 28.1984 11.8025 28.6708C11.8025 29.3543 11.6851 29.9564 11.4539 30.4807V30.479ZM8.50615 20.554C8.04014 20.1924 7.42964 20.0107 6.67283 20.0107H3.1778V24.2776H6.67103C7.42783 24.2776 8.03834 24.0959 8.50434 23.7343C8.97035 23.3727 9.20335 22.8415 9.20335 22.1442C9.20335 21.4469 8.97035 20.9174 8.50434 20.554H8.50615ZM8.78973 26.9336C8.35262 26.5149 7.72044 26.3055 6.88958 26.3055H3.1778V30.844H6.88958C7.71864 30.844 8.35262 30.6312 8.78973 30.2056C9.22683 29.7799 9.44538 29.2332 9.44538 28.5635C9.44538 27.8939 9.22683 27.3506 8.78973 26.9319V26.9336Z" fill="#315146"/>
<path d="M24.7946 27.3627C24.7801 27.9407 24.7296 28.4684 24.641 28.9425C24.5543 29.4166 24.408 29.8561 24.2039 30.261C23.9998 30.6659 23.709 31.0483 23.3297 31.4116C22.7915 31.9272 22.1792 32.3217 21.4964 32.5934C20.8119 32.8651 20.0551 33.0017 19.226 33.0017C18.3969 33.0017 17.6437 32.8651 16.9664 32.5934C16.2891 32.3217 15.6822 31.9272 15.1439 31.4116C14.7646 31.05 14.4738 30.6659 14.2697 30.261C14.0656 29.8561 13.9157 29.4183 13.8218 28.9425C13.7279 28.4684 13.6719 27.9424 13.6574 27.3627C13.643 26.7848 13.6357 26.1394 13.6357 25.4283C13.6357 24.7171 13.643 24.0717 13.6574 23.4938C13.6719 22.9159 13.7261 22.3882 13.8218 21.9141C13.9157 21.44 14.0656 21.0005 14.2697 20.5956C14.4738 20.1907 14.7646 19.8083 15.1439 19.445C15.6822 18.9293 16.2909 18.5348 16.9664 18.2632C17.6437 17.9915 18.3969 17.8548 19.226 17.8548C20.0551 17.8548 20.8119 17.9915 21.4964 18.2632C22.181 18.5348 22.7915 18.9293 23.3297 19.445C23.7072 19.8083 23.9998 20.1907 24.2039 20.5956C24.408 21.0005 24.5525 21.44 24.641 21.9141C24.7277 22.3882 24.7783 22.9142 24.7946 23.4938C24.809 24.0717 24.8163 24.7171 24.8163 25.4283C24.8163 26.1394 24.809 26.7848 24.7946 27.3627ZM22.4248 23.5561C22.4031 23.0613 22.3598 22.6425 22.293 22.3017C22.2279 21.9608 22.1322 21.6736 22.0094 21.4434C21.8848 21.2133 21.7294 21.0005 21.5398 20.805C21.2634 20.5264 20.9238 20.3032 20.5247 20.1353C20.1237 19.9675 19.692 19.8845 19.226 19.8845C18.76 19.8845 18.3265 19.9675 17.9273 20.1353C17.5263 20.3032 17.1886 20.5264 16.9122 20.805C16.7226 21.0005 16.5654 21.2133 16.4426 21.4434C16.318 21.6736 16.2241 21.9591 16.159 22.3017C16.094 22.6443 16.0507 23.0613 16.0272 23.5561C16.0055 24.051 15.9947 24.6756 15.9947 25.4283C15.9947 26.181 16.0055 26.8056 16.0272 27.3005C16.0489 27.7953 16.0922 28.214 16.159 28.5549C16.2241 28.8975 16.3198 29.183 16.4426 29.4131C16.5654 29.6433 16.7226 29.8561 16.9122 30.0516C17.1886 30.3302 17.5263 30.5534 17.9273 30.7212C18.3283 30.8891 18.76 30.9721 19.226 30.9721C19.692 30.9721 20.1237 30.8891 20.5247 30.7212C20.9256 30.5534 21.2634 30.3302 21.5398 30.0516C21.7294 29.8561 21.8848 29.6433 22.0094 29.4131C22.1322 29.183 22.2279 28.8975 22.293 28.5549C22.358 28.214 22.4013 27.7953 22.4248 27.3005C22.4465 26.8056 22.4573 26.181 22.4573 25.4283C22.4573 24.6756 22.4465 24.051 22.4248 23.5561Z" fill="#315146"/>
<path d="M37.8067 27.3627C37.7922 27.9407 37.7416 28.4684 37.6531 28.9425C37.5664 29.4166 37.4201 29.8561 37.216 30.261C37.0119 30.6659 36.7211 31.0483 36.3418 31.4116C35.8036 31.9272 35.1912 32.3217 34.5085 32.5934C33.8239 32.8651 33.0671 33.0017 32.2381 33.0017C31.409 33.0017 30.6558 32.8651 29.9785 32.5934C29.3012 32.3217 28.6943 31.9272 28.156 31.4116C27.7767 31.05 27.4859 30.6659 27.2818 30.261C27.0777 29.8561 26.9296 29.4183 26.8339 28.9425C26.7381 28.4684 26.684 27.9424 26.6695 27.3627C26.6551 26.7848 26.6478 26.1394 26.6478 25.4283C26.6478 24.7171 26.6551 24.0717 26.6695 23.4938C26.684 22.9159 26.7381 22.3882 26.8339 21.9141C26.9278 21.44 27.0777 21.0005 27.2818 20.5956C27.4859 20.1907 27.7767 19.8083 28.156 19.445C28.6943 18.9293 29.303 18.5348 29.9785 18.2632C30.6558 17.9915 31.409 17.8548 32.2381 17.8548C33.0671 17.8548 33.8239 17.9915 34.5085 18.2632C35.1931 18.5348 35.8036 18.9293 36.3418 19.445C36.7193 19.8083 37.0119 20.1907 37.216 20.5956C37.4201 21.0005 37.5646 21.44 37.6531 21.9141C37.7398 22.3882 37.7904 22.9142 37.8067 23.4938C37.8211 24.0717 37.8283 24.7171 37.8283 25.4283C37.8283 26.1394 37.8211 26.7848 37.8067 27.3627ZM35.4369 23.5561C35.4152 23.0613 35.3719 22.6425 35.305 22.3017C35.24 21.9608 35.1443 21.6736 35.0215 21.4434C34.8968 21.2133 34.7415 21.0005 34.5518 20.805C34.2755 20.5264 33.9359 20.3032 33.5368 20.1353C33.1358 19.9675 32.7041 19.8845 32.2381 19.8845C31.7721 19.8845 31.3386 19.9675 30.9394 20.1353C30.5384 20.3032 30.2007 20.5264 29.9243 20.805C29.7347 21.0005 29.5775 21.2133 29.4547 21.4434C29.3301 21.6736 29.2361 21.9591 29.1711 22.3017C29.1061 22.6443 29.0627 23.0613 29.0393 23.5561C29.0176 24.051 29.0068 24.6756 29.0068 25.4283C29.0068 26.181 29.0176 26.8056 29.0393 27.3005C29.0609 27.7953 29.1043 28.214 29.1711 28.5549C29.2361 28.8975 29.3319 29.183 29.4547 29.4131C29.5775 29.6433 29.7347 29.8561 29.9243 30.0516C30.2007 30.3302 30.5384 30.5534 30.9394 30.7212C31.3404 30.8891 31.7721 30.9721 32.2381 30.9721C32.7041 30.9721 33.1376 30.8891 33.5368 30.7212C33.9377 30.5534 34.2755 30.3302 34.5518 30.0516C34.7415 29.8561 34.8968 29.6433 35.0215 29.4131C35.1443 29.183 35.24 28.8975 35.305 28.5549C35.3701 28.214 35.4134 27.7953 35.4369 27.3005C35.4586 26.8056 35.4694 26.181 35.4694 25.4283C35.4694 24.6756 35.4586 24.051 35.4369 23.5561Z" fill="#315146"/>
<path d="M45.055 20.0107V32.8737H42.6979V20.0107H38.4189V17.9811H49.3357V20.0107H45.0568H45.055Z" fill="#315146"/>
<path d="M60.3717 30.3855C60.0448 30.9583 59.6366 31.4393 59.1489 31.8286C58.6612 32.2196 58.1085 32.5121 57.489 32.7076C56.8695 32.9031 56.212 33 55.513 33C54.6984 33 53.9488 32.8633 53.2642 32.5917C52.5797 32.32 51.9692 31.9255 51.4309 31.4099C51.0516 31.0482 50.7608 30.6641 50.5567 30.2592C50.3526 29.8543 50.2027 29.4166 50.1088 28.9408C50.0148 28.4667 49.9589 27.9407 49.9444 27.361C49.93 26.7831 49.9227 26.1377 49.9227 25.4265C49.9227 24.7154 49.93 24.07 49.9444 23.4921C49.9589 22.9142 50.013 22.3864 50.1088 21.9123C50.2027 21.4382 50.3526 20.9987 50.5567 20.5939C50.7608 20.189 51.0516 19.8066 51.4309 19.4432C51.9692 18.9276 52.5815 18.5331 53.2642 18.2614C53.9488 17.9898 54.6984 17.8531 55.513 17.8531C56.9543 17.8531 58.1699 18.2441 59.1597 19.0245C60.1496 19.8048 60.7817 20.9416 61.0599 22.4332H58.6576C58.468 21.6805 58.1157 21.0662 57.5992 20.5921C57.0826 20.118 56.3872 19.881 55.5148 19.881C55.0488 19.881 54.6189 19.9606 54.227 20.1215C53.8332 20.2824 53.4991 20.5022 53.2227 20.7807C53.033 20.9763 52.8759 21.1891 52.7531 21.4192C52.6285 21.6493 52.5345 21.9348 52.4695 22.2774C52.4045 22.62 52.3557 23.0405 52.3268 23.5423C52.2979 24.044 52.2835 24.6721 52.2835 25.4248C52.2835 26.1775 52.2979 26.8056 52.3268 27.3074C52.3557 27.8092 52.4027 28.2313 52.4695 28.5722C52.5345 28.9148 52.6303 29.2003 52.7531 29.4304C52.8759 29.6606 53.033 29.8734 53.2227 30.0689C53.4991 30.3475 53.8332 30.5672 54.227 30.7281C54.6207 30.8891 55.0488 30.9686 55.5148 30.9686C56.389 30.9686 57.0862 30.7316 57.61 30.2575C58.1338 29.7834 58.4896 29.1692 58.6793 28.4165H61.0599C60.928 29.1553 60.7005 29.8111 60.3717 30.3821V30.3855Z" fill="#315146"/>
<path d="M93.6206 32.8737V22.9176L90.0407 30.1762H88.2941L84.6256 22.9176V32.8737H82.2667V17.9811H84.6256L89.1665 27.2468L93.6206 17.9811H95.9796V32.8737H93.6206Z" fill="#315146"/>
<path d="M109.45 24.3088C109.217 24.859 108.883 25.3331 108.446 25.7311C108.009 26.129 107.485 26.4422 106.875 26.6723C106.264 26.9025 105.58 27.0167 104.823 27.0167H101.286V32.8737H98.9274V17.9811H104.823C105.58 17.9811 106.264 18.0953 106.875 18.3254C107.485 18.5556 108.011 18.8687 108.446 19.2667C108.883 19.6647 109.217 20.1422 109.45 20.6994C109.683 21.2565 109.799 21.8569 109.799 22.4989C109.799 23.1408 109.682 23.7568 109.45 24.3088ZM106.689 20.6596C106.187 20.227 105.52 20.0107 104.691 20.0107H101.284V24.968H104.691C105.52 24.968 106.187 24.7552 106.689 24.3295C107.191 23.9039 107.442 23.2948 107.442 22.4989C107.442 21.703 107.191 21.0904 106.689 20.6579V20.6596Z" fill="#315146"/>
<path d="M71.5251 13.9963L73.3819 10.3904L72.4409 9.94568L70.9381 12.8612L69.466 10.001L68.5232 10.4475L70.3529 13.998L60.6119 32.8737H64.768L70.9399 20.9191L77.11 32.8737H81.2679L71.5251 13.9963Z" fill="#F3981D"/>
</g>
<defs>
<clipPath id="clip0_0_131">
<rect width="109" height="33" fill="white" transform="translate(0.800781)"/>
</clipPath>
</defs>
</svg>
