<svg width="119" height="33" viewBox="0 0 119 33" fill="none" xmlns="http://www.w3.org/2000/svg">
<g clip-path="url(#clip0_0_121)">
<path d="M51.0624 21.8935V17.6745H52.8161V21.8935H59.1932V23.3708H45.89V21.8935H51.066H51.0624ZM56.32 19.5045V12.9831H46.9599V11.4758H58.1232V19.5045H56.3235H56.32Z" fill="#222222"/>
<path d="M63.5756 17.1122V15.8478H65.2301V17.1122H69.2193V15.8478H70.8737V17.1122H73.8745V18.5429H60.5713V17.1122H63.572H63.5756ZM70.6647 22.0333C70.6647 22.4392 70.5726 22.8252 70.3884 23.1845C70.2042 23.5438 69.9562 23.8566 69.6409 24.1228C69.3397 24.3956 68.9783 24.6152 68.5638 24.7783C68.1458 24.9413 67.7065 25.0212 67.2424 25.0212C66.7783 25.0212 66.3354 24.938 65.9103 24.7783C65.4887 24.6152 65.1202 24.3956 64.8085 24.1228C64.5073 23.8599 64.2629 23.5472 64.0787 23.1845C63.8944 22.8252 63.8023 22.4392 63.8023 22.0333C63.8023 21.6273 63.8944 21.2447 64.0787 20.882C64.2629 20.5227 64.5073 20.2033 64.8085 19.9304C65.1238 19.6576 65.4887 19.4413 65.9103 19.2816C66.3319 19.1252 66.7747 19.0454 67.2424 19.0454C67.71 19.0454 68.1493 19.1252 68.5638 19.2816C68.9783 19.438 69.3397 19.6543 69.6409 19.9304C69.9526 20.2033 70.2042 20.5227 70.3884 20.882C70.5726 21.2414 70.6647 21.6273 70.6647 22.0333ZM70.6328 13.0596C70.6328 13.4655 70.5407 13.8481 70.3565 14.2008C70.1723 14.5569 69.9243 14.873 69.609 15.1458C69.3185 15.4086 68.9642 15.6249 68.5532 15.7846C68.1422 15.9477 67.7065 16.0275 67.2388 16.0275C66.7712 16.0275 66.3319 15.9477 65.9174 15.7846C65.4993 15.6216 65.145 15.4086 64.8545 15.1458C64.5428 14.873 64.2912 14.5569 64.107 14.2008C63.9228 13.8448 63.8307 13.4655 63.8307 13.0596C63.8307 12.6537 63.9228 12.2843 64.107 11.925C64.2912 11.5656 64.5392 11.2462 64.8545 10.9734C65.145 10.7105 65.5029 10.4976 65.9174 10.3345C66.3319 10.1715 66.7747 10.0916 67.2388 10.0916C67.7029 10.0916 68.1422 10.1748 68.5532 10.3345C68.9642 10.4976 69.3149 10.7105 69.609 10.9734C69.9243 11.2462 70.1723 11.5656 70.3565 11.925C70.5407 12.2843 70.6328 12.6636 70.6328 13.0596ZM68.911 22.0033C68.911 21.5774 68.7481 21.2114 68.4186 20.9153C68.0891 20.6158 67.6923 20.4661 67.2247 20.4661C66.757 20.4661 66.3638 20.6158 66.0414 20.9153C65.7154 21.2148 65.556 21.5774 65.556 22.0033C65.556 22.4292 65.719 22.7952 66.0414 23.1013C66.3673 23.4074 66.7606 23.5572 67.2247 23.5572C67.6888 23.5572 68.0856 23.4041 68.4186 23.1013C68.7481 22.7952 68.911 22.4325 68.911 22.0033ZM68.8792 13.0596C68.8792 12.6537 68.7162 12.2976 68.3938 11.9915C68.0714 11.6854 67.6781 11.5357 67.2247 11.5357C66.7712 11.5357 66.385 11.6887 66.0662 11.9915C65.7473 12.2976 65.5879 12.6537 65.5879 13.0596C65.5879 13.4655 65.7473 13.8382 66.0662 14.1409C66.385 14.4471 66.7712 14.5968 67.2247 14.5968C67.6781 14.5968 68.0678 14.4437 68.3938 14.1409C68.7197 13.8382 68.8792 13.4755 68.8792 13.0596Z" fill="#222222"/>
<path d="M88.6657 21.8802V23.3742H75.3625V21.8802H81.1054V18.6062H76.4324V11.3693H78.2322V17.1122H87.8048V18.6062H82.9051V21.8802H88.6657Z" fill="#222222"/>
<path d="M96.0878 16.836V15.5717H91.4149V10.9401H102.592V12.3708H93.2005V14.1542H102.628V15.5717H97.8911V16.836H103.652V18.2668H90.3485V16.836H96.0914H96.0878ZM100.552 21.8037C100.552 22.2296 100.456 22.6355 100.268 23.0148C100.077 23.3941 99.8255 23.7235 99.5137 23.9964C99.1772 24.2792 98.7981 24.5054 98.3694 24.6751C97.9407 24.8415 97.4837 24.928 96.9983 24.928C96.513 24.928 96.056 24.8448 95.6273 24.6751C95.1986 24.5088 94.8195 24.2825 94.483 23.9964C94.1712 23.7235 93.9161 23.3941 93.7283 23.0148C93.537 22.6355 93.4449 22.2296 93.4449 21.8037C93.4449 21.3778 93.5406 20.9719 93.7283 20.5925C93.9161 20.2132 94.1676 19.8838 94.483 19.611C94.8195 19.3282 95.1986 19.1019 95.6273 18.9322C96.056 18.7659 96.5094 18.6794 96.9983 18.6794C97.4873 18.6794 97.9407 18.7625 98.3694 18.9322C98.7981 19.0986 99.1772 19.3248 99.5137 19.611C99.829 19.8838 100.081 20.2132 100.268 20.5925C100.456 20.9719 100.552 21.3778 100.552 21.8037ZM98.8158 21.7737C98.8158 21.3079 98.6387 20.9086 98.2808 20.5792C97.923 20.2498 97.4979 20.0835 96.9983 20.0835C96.4988 20.0835 96.0737 20.2498 95.7159 20.5792C95.358 20.9086 95.1809 21.3079 95.1809 21.7737C95.1809 22.2395 95.358 22.6388 95.7159 22.9616C96.0737 23.2843 96.4988 23.4474 96.9983 23.4474C97.4979 23.4474 97.923 23.2843 98.2808 22.9616C98.6387 22.6355 98.8158 22.2395 98.8158 21.7737Z" fill="#222222"/>
<path d="M105.501 19.3714H118.804V20.8654H113.044V24.369H111.244V20.8654H105.501V19.3714ZM108.339 12.7302H115.949V11.01H117.734V17.5481H106.571V11.01H108.339V12.7302ZM115.949 14.1909H108.339V16.0641H115.949V14.1909Z" fill="#222222"/>
<path d="M27.928 15.748C24.8776 13.7982 20.9664 14.5935 18.9151 17.5248C17.2004 19.9737 14.6142 20.2765 13.6115 20.2765C10.3486 20.2765 8.11312 18.1204 7.45062 15.8878C7.44353 15.8645 7.43999 15.8479 7.4329 15.8246C7.42582 15.7979 7.41873 15.7747 7.41164 15.748C7.15302 14.8164 7.08925 14.3705 7.08925 13.3823C7.08925 8.04537 12.9172 2.10284 21.3171 2.10284C29.7171 2.10284 34.8365 8.25166 36.1048 11.6688C36.0835 11.6089 36.0623 11.549 36.041 11.4858C33.6 4.8046 26.851 0 18.908 0C8.91025 0 0.800781 7.61283 0.800781 17.0057C0.800781 25.4005 7.24868 32.5874 16.1907 32.5874C23.3224 32.5874 28.1158 28.8309 30.3158 23.6537C31.5204 20.8221 30.6666 17.4949 27.928 15.748Z" fill="#003863"/>
<path d="M36.2181 12.0015C35.1624 8.66757 30.2024 2.10617 21.3207 2.10617C12.9207 2.10617 7.09277 8.0487 7.09277 13.3857C7.09277 14.3739 7.15654 14.8197 7.41517 15.7514C7.30534 15.3454 7.24866 14.9362 7.24866 14.5369C7.24866 8.98034 13.1758 5.12734 19.2658 5.12734C27.5135 5.12734 34.1952 11.4059 34.1952 19.1485C34.1952 25.2208 30.4752 30.4713 25.0725 32.9967C32.0376 30.631 37.0153 24.3657 37.0153 17.0057C37.0153 15.2656 36.7673 13.7284 36.2181 12.0015Z" fill="#E4032E"/>
</g>
<defs>
<clipPath id="clip0_0_121">
<rect width="118" height="33" fill="white" transform="translate(0.800781)"/>
</clipPath>
</defs>
</svg>
