<svg width="125" height="18" viewBox="0 0 125 18" fill="none" xmlns="http://www.w3.org/2000/svg">
<g clip-path="url(#clip0_0_148)">
<path d="M0.800781 0.148224V17.8518H12.0235V13.9728H4.85876V10.8637H10.9786V6.98638H4.85876V4.02727H12.0235V0.148224H0.800781Z" fill="url(#paint0_linear_0_148)"/>
<path d="M22.1553 0.148224V11.5366C22.1553 12.3646 21.9532 13.0017 21.5523 13.4498C21.1498 13.8978 20.6093 14.1227 19.9292 14.1227C19.249 14.1227 18.697 13.8944 18.3175 13.4395C17.938 12.9847 17.749 12.3492 17.749 11.5366V0.148224H13.691V11.6354C13.691 13.5418 14.3006 15.0903 15.5229 16.2845C16.6959 17.4276 18.1663 18 19.9275 18C21.6887 18 23.1772 17.4123 24.3913 16.2351C25.6038 15.0579 26.2116 13.5264 26.2116 11.6354V0.148224H22.1537H22.1553Z" fill="url(#paint1_linear_0_148)"/>
<path d="M34.073 0C33.1447 0 32.3003 0.170358 31.5347 0.50937C30.7691 0.850085 30.0856 1.34242 29.4827 1.98978C28.6924 2.83646 28.1913 3.9046 27.9761 5.19762C27.8677 5.84497 27.8135 7.11244 27.8135 9.0017C27.8135 10.891 27.8759 12.0784 27.9991 12.8075C28.2143 14.1175 28.7089 15.1857 29.4827 16.0153C30.7181 17.3407 32.2493 18.0034 34.073 18.0034C35.7109 18.0034 37.0713 17.5315 38.1539 16.586C39.3138 15.5758 40.0383 14.1244 40.3324 12.2351H36.2054C36.051 12.8143 35.8341 13.2555 35.5565 13.552C35.2016 13.9336 34.7137 14.1244 34.096 14.1244C33.3846 14.1244 32.8506 13.8756 32.4974 13.3782C32.2641 13.046 32.1031 12.6116 32.0095 12.0733C31.9175 11.5349 31.8715 10.5128 31.8715 9.0017C31.8715 7.49063 31.9257 6.51959 32.0341 5.93186C32.1425 5.34412 32.2904 4.91652 32.4744 4.65077C32.66 4.38671 32.8835 4.1908 33.1464 4.06814C33.4092 3.94378 33.7263 3.88075 34.0976 3.88075C34.7318 3.88075 35.2246 4.07155 35.5811 4.45315C35.844 4.73424 36.0527 5.17376 36.2071 5.77002H40.3341C40.04 3.88075 39.3155 2.4293 38.1556 1.41908C37.0581 0.475298 35.6978 0.00170358 34.0746 0.00170358L34.073 0Z" fill="url(#paint2_linear_0_148)"/>
<path d="M45.5979 0.148224H41.5399V17.8518H52.5293V13.9728H45.5979V0.148224Z" fill="url(#paint3_linear_0_148)"/>
<path d="M58.0265 0.148224H53.9685V17.8501H58.0265V0.148224Z" fill="url(#paint4_linear_0_148)"/>
<path d="M72.2968 3.99149C72.0093 3.20274 71.5855 2.50768 71.0203 1.90291C70.4568 1.29814 69.7996 0.853505 69.0488 0.572415C68.298 0.289621 67.4683 0.148224 66.5565 0.148224H60.4351V17.8501H66.5565C67.4371 17.8501 68.2651 17.7053 69.039 17.4157C69.8111 17.1244 70.4683 16.69 71.0088 16.109C71.7662 15.2964 72.2607 14.385 72.494 13.3731C72.6468 12.7121 72.724 11.6831 72.724 10.2913V7.72914C72.724 6.02216 72.5827 4.77514 72.2968 3.98809V3.99149ZM68.5872 11.8722C68.5329 12.3271 68.4097 12.7053 68.2159 13.0017C68.022 13.3015 67.7706 13.5366 67.4634 13.7104C67.1529 13.8842 66.7586 13.9711 66.2805 13.9711H64.4947V4.02727H66.2805C66.775 4.02727 67.1743 4.11074 67.4749 4.27599C67.7756 4.44294 68.0204 4.67292 68.206 4.97105C68.3917 5.26918 68.5149 5.65589 68.5757 6.12608C68.6381 6.59967 68.6693 7.55538 68.6693 8.99831C68.6693 10.4412 68.643 11.4157 68.5888 11.8722H68.5872Z" fill="url(#paint5_linear_0_148)"/>
<path d="M84.6679 9.4719C84.313 9.14141 83.9105 8.87906 83.462 8.68996C83.0135 8.50086 82.4122 8.34584 81.6532 8.22999L79.8443 7.93357C79.4106 7.8501 78.9949 7.72062 78.5924 7.54856C78.1899 7.37309 77.8646 7.17889 77.6182 6.96253C77.122 6.49916 76.8772 5.81943 76.8772 4.92505C76.8772 3.91483 77.1828 3.11415 77.794 2.52642C78.4051 1.93698 79.2578 1.64396 80.3553 1.64396C81.1899 1.64396 81.9127 1.77173 82.5239 2.02897C83.1334 2.28621 83.6953 2.6627 84.2062 3.16015L85.3415 1.94209C84.6153 1.24533 83.8777 0.749585 83.1268 0.451459C82.3777 0.153333 81.4774 0.00341797 80.4259 0.00341797C78.8027 0.00341797 77.5163 0.458273 76.5651 1.36969C75.6138 2.2811 75.139 3.49234 75.139 5.00001C75.139 6.41057 75.5563 7.51108 76.3909 8.30665C77.1023 8.97105 78.1143 9.41739 79.4287 9.64907L81.3525 9.97275C81.9407 10.0716 82.3843 10.1806 82.6865 10.2964C82.9872 10.4123 83.2616 10.586 83.5096 10.8177C84.0337 11.3152 84.2982 12.0528 84.2982 13.0307C84.2982 14.0579 83.9499 14.862 83.255 15.4412C82.56 16.0222 81.6088 16.3118 80.4013 16.3118C79.4434 16.3118 78.6203 16.167 77.9336 15.8774C77.2452 15.5877 76.5684 15.0852 75.9046 14.3731L74.6987 15.6661C75.5021 16.5281 76.3285 17.1329 77.1795 17.4804C78.0289 17.8279 79.0886 18.0017 80.3553 18.0017C82.1017 18.0017 83.4883 17.5503 84.5167 16.6474C85.5452 15.7445 86.0594 14.5213 86.0594 12.9796C86.0594 11.4378 85.5961 10.3186 84.6679 9.47361V9.4719Z" fill="#414042"/>
<path d="M97.4054 1.83986C96.2603 0.613288 94.8556 0 93.1864 0C91.5172 0 90.1092 0.613288 88.9658 1.83986C88.1164 2.75128 87.6202 3.98807 87.4822 5.54514C87.4362 6.09199 87.4132 7.24361 87.4132 9.0017C87.4132 11.1227 87.4937 12.6559 87.6564 13.6014C87.819 14.5468 88.256 15.4003 88.9658 16.1618C90.1092 17.3884 91.5172 18.0017 93.1864 18.0017C94.8556 18.0017 96.2619 17.3884 97.4054 16.1618C98.2547 15.2504 98.7493 14.0153 98.8889 12.4566C98.9365 11.9097 98.9579 10.7581 98.9579 9.0017C98.9579 6.88075 98.8889 5.42078 98.7493 4.62692C98.5636 3.53322 98.1151 2.60477 97.4054 1.84157V1.83986ZM96.9996 13.0647C96.8681 13.8194 96.5478 14.4787 96.0368 15.0426C95.2794 15.8876 94.3282 16.3083 93.1847 16.3083C92.0413 16.3083 91.0884 15.8876 90.3327 15.0426C89.8217 14.4957 89.5013 13.8365 89.3699 13.0647C89.2385 12.293 89.1728 10.9387 89.1728 9C89.1728 7.06133 89.2385 5.68995 89.3699 4.93526C89.5013 4.18228 89.8234 3.523 90.3327 2.95911C91.0884 2.11414 92.0396 1.69165 93.1847 1.69165C94.3298 1.69165 95.2794 2.11414 96.0368 2.95911C96.5478 3.50596 96.8681 4.16525 96.9996 4.93526C97.131 5.70698 97.1967 7.06133 97.1967 9C97.1967 10.9387 97.131 12.3101 96.9996 13.0647Z" fill="#414042"/>
<path d="M101.401 17.8518H103.164V10.0443H110.399V8.35434H103.164V1.81431H111.651V0.124359H101.401V17.8518Z" fill="#414042"/>
<path d="M113.486 0.124359V1.81431H118.262V17.8518H120.025V1.81431H124.801V0.124359H113.486Z" fill="#414042"/>
</g>
<defs>
<linearGradient id="paint0_linear_0_148" x1="0.74604" y1="9.21204" x2="72.7085" y2="9.21204" gradientUnits="userSpaceOnUse">
<stop stop-color="#2E3192"/>
<stop offset="1" stop-color="#00AEEF"/>
</linearGradient>
<linearGradient id="paint1_linear_0_148" x1="0.736196" y1="9.18989" x2="72.5637" y2="9.18989" gradientUnits="userSpaceOnUse">
<stop stop-color="#2E3192"/>
<stop offset="1" stop-color="#00AEEF"/>
</linearGradient>
<linearGradient id="paint2_linear_0_148" x1="0.736207" y1="9.17796" x2="72.5637" y2="9.17796" gradientUnits="userSpaceOnUse">
<stop stop-color="#2E3192"/>
<stop offset="1" stop-color="#00AEEF"/>
</linearGradient>
<linearGradient id="paint3_linear_0_148" x1="0.714824" y1="9.16604" x2="72.6773" y2="9.16604" gradientUnits="userSpaceOnUse">
<stop stop-color="#2E3192"/>
<stop offset="1" stop-color="#00AEEF"/>
</linearGradient>
<linearGradient id="paint4_linear_0_148" x1="0.881025" y1="9.11153" x2="72.5735" y2="9.11153" gradientUnits="userSpaceOnUse">
<stop stop-color="#2E3192"/>
<stop offset="1" stop-color="#00AEEF"/>
</linearGradient>
<linearGradient id="paint5_linear_0_148" x1="0.749926" y1="9.00001" x2="72.655" y2="9.00001" gradientUnits="userSpaceOnUse">
<stop stop-color="#2E3192"/>
<stop offset="1" stop-color="#00AEEF"/>
</linearGradient>
<clipPath id="clip0_0_148">
<rect width="124" height="18" fill="white" transform="translate(0.800781)"/>
</clipPath>
</defs>
</svg>
