<svg width="103" height="106" viewBox="0 0 103 106" fill="none" xmlns="http://www.w3.org/2000/svg">
<g clip-path="url(#clip0_0_784)">
<g style="mix-blend-mode:multiply" opacity="0.15">
<path d="M71.5362 15.6919H44.8982C27.2813 15.6919 13 29.9533 13 47.5456V74.1464C13 91.7387 27.2813 106 44.8982 106H71.5362C89.1531 106 103.434 91.7387 103.434 74.1464V47.5456C103.434 29.9533 89.1531 15.6919 71.5362 15.6919Z" fill="black"/>
</g>
<path d="M58.5362 0H31.8983C14.2813 0 0 14.2614 0 31.8537V58.4545C0 76.0468 14.2813 90.3082 31.8983 90.3082H58.5362C76.1531 90.3082 90.4344 76.0468 90.4344 58.4545V31.8537C90.4344 14.2614 76.1531 0 58.5362 0Z" fill="#63B6FF"/>
<path d="M16.6012 45.9736L31.4943 51.2132V58.5217L9 48.9964V42.8433L31.4943 33.3181V40.6266L16.6012 45.9736Z" fill="white"/>
<path d="M40.1045 65.3733H34.4809L48.486 24.1152H54.1096L40.1045 65.3733Z" fill="white"/>
<path d="M73.1329 45.893L57.9438 40.5997V33.345L80.7072 42.8702V48.9964L57.9438 58.5485V51.2669L73.1329 45.893Z" fill="white"/>
</g>
<defs>
<clipPath id="clip0_0_784">
<rect width="103" height="106" fill="white"/>
</clipPath>
</defs>
</svg>
