<svg width="64" height="72" viewBox="0 0 64 72" fill="none" xmlns="http://www.w3.org/2000/svg">
<g clip-path="url(#clip0_0_764)">
<path d="M32.0039 1.55468C48.7892 1.55468 62.4409 15.1004 62.4409 31.7554C62.4409 46.2555 52.0315 58.7314 37.6895 61.4251C37.069 61.5406 36.5803 62.0177 36.4484 62.6258C36.4329 62.7104 36.4174 62.7874 36.4174 62.872V62.9028C36.0528 65.3118 36.3709 67.513 37.3017 69.4063C34.9126 68.4135 32.0116 66.4817 29.8786 62.7104C29.6536 62.3179 29.2735 62.0408 28.8237 61.9485C28.7538 61.9331 21.9125 60.5169 15.1177 56.053C6.12774 50.1345 1.56684 41.9609 1.56684 31.7554C1.56684 15.1004 15.2185 1.55468 32.0039 1.55468ZM32.0039 0C14.3265 0 0 14.2153 0 31.7554C0 57.7077 28.5134 63.4724 28.5134 63.4724C33.2449 71.8538 41.5756 72 41.5756 72C36.588 68.5212 38.0385 62.9952 37.9765 62.949C52.7917 60.1706 64.0078 47.2637 64.0078 31.7554C64 14.2153 49.6735 0 32.0039 0Z" fill="#745CFF"/>
<path d="M19.0891 35.8654C20.7255 35.8654 22.0521 34.5491 22.0521 32.9254C22.0521 31.3016 20.7255 29.9854 19.0891 29.9854C17.4526 29.9854 16.126 31.3016 16.126 32.9254C16.126 34.5491 17.4526 35.8654 19.0891 35.8654Z" fill="white"/>
<path d="M30.9412 35.8654C32.5777 35.8654 33.9042 34.5491 33.9042 32.9254C33.9042 31.3016 32.5777 29.9854 30.9412 29.9854C29.3048 29.9854 27.9782 31.3016 27.9782 32.9254C27.9782 34.5491 29.3048 35.8654 30.9412 35.8654Z" fill="white"/>
<path d="M45.7634 33.0901C45.8576 31.469 44.6096 30.0792 42.9759 29.9857C41.3422 29.8922 39.9414 31.1306 39.8472 32.7516C39.753 34.3727 41.001 35.7625 42.6348 35.856C44.2685 35.9495 45.6692 34.7111 45.7634 33.0901Z" fill="white"/>
</g>
<defs>
<clipPath id="clip0_0_764">
<rect width="64" height="72" fill="white"/>
</clipPath>
</defs>
</svg>
