<svg width="52" height="136" viewBox="0 0 52 136" fill="none" xmlns="http://www.w3.org/2000/svg">
<path d="M0.860207 75.4008C2.14021 76.1108 3.39021 76.9808 4.56021 77.9608C5.14021 78.4508 5.70021 78.9608 6.23021 79.5008C6.77021 80.0408 7.34021 80.5908 7.85021 81.1608C8.42021 81.8008 8.95021 82.4908 9.43021 83.1908C9.43021 83.1908 9.32021 82.6108 9.15021 81.7308C9.07021 81.2908 8.97021 80.7808 8.86021 80.2308C8.81021 79.9608 8.75021 79.6708 8.70021 79.3808C8.67021 79.0908 8.63021 78.7908 8.60021 78.5008C8.47021 77.3208 8.33021 76.1308 8.23021 75.2508C8.18021 74.8108 8.14021 74.4408 8.11021 74.1808C8.08021 73.9208 8.08021 73.7708 8.08021 73.7708C6.01021 72.5508 4.20021 70.7708 2.79021 68.5308C2.15021 67.4108 1.62021 66.1808 1.19021 64.8508C0.980208 64.1908 0.790208 63.5008 0.630208 62.8008C0.500208 62.1008 0.430208 61.3808 0.380208 60.6408C0.330208 59.9208 0.980207 59.4108 1.45021 59.8208C2.50021 60.7308 3.49021 61.7708 4.36021 62.9108C5.31021 64.0508 6.17021 65.2709 6.88021 66.5408C7.26021 67.2309 7.59021 67.9308 7.89021 68.6608C7.89021 68.6608 7.98021 66.2408 8.07021 63.8208C8.07021 63.2108 8.17021 62.6108 8.23021 62.0508C8.29021 61.4908 8.35021 60.9608 8.41021 60.5108C8.51021 59.6108 8.58021 59.0108 8.58021 59.0108C8.14021 58.6208 7.72021 58.2008 7.33021 57.7608C6.96021 57.3208 6.62021 56.8508 6.30021 56.3508C5.66021 55.3608 5.13021 54.2708 4.70021 53.0908C4.49021 52.5008 4.29021 51.8908 4.16021 51.2608C4.04021 50.6408 3.95021 50.0008 3.89021 49.3508C3.78021 48.0408 3.76021 46.6708 3.91021 45.2708C4.01021 44.6008 4.72021 44.2408 5.08021 44.7208C5.48021 45.2408 5.84021 45.7908 6.21021 46.3708C6.59021 46.9508 6.94021 47.5608 7.27021 48.1808C7.92021 49.4208 8.46021 50.7208 8.86021 52.0508C9.04021 52.7208 9.29021 53.4408 9.44021 54.1408C9.44021 54.1408 9.55021 53.5308 9.74021 52.6308C9.98021 51.7408 10.3002 50.5508 10.6202 49.3608C10.7802 48.7708 10.9302 48.1708 11.1002 47.6208C11.2902 47.0808 11.4702 46.5708 11.6202 46.1308C11.9302 45.2608 12.1302 44.6808 12.1302 44.6808C11.4802 43.7808 10.9202 42.7908 10.5002 41.7408C10.1102 40.7008 9.84021 39.5908 9.69021 38.4108C9.61021 37.8208 9.57021 37.2308 9.55021 36.6108C9.55021 36.3008 9.55021 36.0008 9.55021 35.6908C9.57021 35.3808 9.60021 35.0808 9.64021 34.7708C9.80021 33.5408 10.0702 32.2808 10.4802 31.0208C10.6802 30.4008 11.3802 30.2008 11.6402 30.7108C12.8002 33.0008 13.5102 35.6408 13.7702 38.2708C13.8502 38.9308 13.9002 39.5908 13.9102 40.2608C13.9102 40.2608 14.1602 39.6908 14.5402 38.8208C14.6402 38.6008 14.7402 38.3708 14.8502 38.1308C14.9802 37.8908 15.1102 37.6408 15.2402 37.3808C15.5102 36.8608 15.8102 36.3008 16.1002 35.7508C16.6902 34.6408 17.2502 33.5208 17.7802 32.7408C18.2802 31.9408 18.6102 31.4108 18.6102 31.4108C18.1902 30.4508 17.8902 29.4308 17.7002 28.3608C17.5102 27.2908 17.5102 26.2408 17.6002 25.1208C17.6902 24.0108 17.9102 22.8808 18.2402 21.7408C18.6102 20.6308 19.1302 19.5408 19.7502 18.4508C20.0602 17.9208 20.7602 17.8708 20.9002 18.3908C21.2102 19.5508 21.4102 20.7908 21.5002 22.0308C21.5402 22.6508 21.5502 23.2808 21.5302 23.9008C21.5102 24.5308 21.5102 25.1808 21.4402 25.8108C21.3902 26.4108 21.2902 27.0008 21.1802 27.5908C21.1802 27.5908 21.5602 27.0708 22.1202 26.3008C22.4102 25.9208 22.7102 25.4508 23.1002 24.9908C23.4902 24.5308 23.9002 24.0408 24.3102 23.5608C24.7202 23.0708 25.1302 22.5808 25.5202 22.1308C25.9002 21.6708 26.2602 21.2408 26.6102 20.9108C27.2802 20.2208 27.7202 19.7708 27.7202 19.7708C27.3502 17.8508 27.3602 15.7308 28.0102 13.7708C28.6202 11.7908 29.6502 9.73084 31.2502 8.04084C31.6402 7.61084 32.3002 7.70084 32.3302 8.21084C32.4702 10.4808 32.1002 12.8708 31.4302 15.2008C31.2702 15.7108 31.0802 16.2208 30.8602 16.7108C30.8602 16.7108 31.3502 16.2808 32.0802 15.6308C32.4402 15.3108 32.8702 14.9308 33.3302 14.5208C33.8002 14.1308 34.3202 13.7508 34.8402 13.3408C35.8802 12.5508 36.8902 11.7408 37.6902 11.1708C38.5002 10.6308 39.0502 10.2708 39.0502 10.2708C39.0702 9.34084 39.2002 8.41084 39.4302 7.49084C39.6702 6.57084 40.0002 5.63084 40.4802 4.80084C40.9502 3.95084 41.5302 3.12084 42.2102 2.33084C42.8802 1.54084 43.6502 0.770843 44.5502 0.150843C44.9902 -0.169157 45.5902 0.0508429 45.5202 0.520843C45.3702 1.58084 45.0902 2.63084 44.7202 3.69084C44.3702 4.78084 43.9102 5.83084 43.3602 6.82084C43.1302 7.23084 42.8602 7.63084 42.5902 8.02084C42.5902 8.02084 44.4202 6.99084 46.2602 5.97084C48.1602 5.08084 50.0602 4.19084 50.0602 4.19084C51.0702 3.72084 51.6702 5.15084 50.6802 5.61084L46.9302 7.37084C45.1202 8.38084 43.3102 9.40084 43.3102 9.40084C43.7802 9.37084 44.2602 9.35084 44.7202 9.38084C45.8202 9.44084 46.8902 9.64084 47.8902 9.97084C48.8902 10.3108 49.8602 10.8308 50.6902 11.4108C51.0602 11.6708 50.9302 12.2408 50.4902 12.3308C49.5802 12.5008 48.7202 12.6908 47.8302 12.7708C46.9402 12.8508 46.0402 12.8608 45.1402 12.7708C44.2202 12.6708 43.3602 12.5908 42.4802 12.4008C41.6002 12.2108 40.7202 11.9408 39.8602 11.6008C39.8602 11.6008 39.3302 11.9508 38.5302 12.4808C37.7602 13.0408 36.7602 13.8308 35.7502 14.6108C35.2502 15.0008 34.7302 15.3708 34.2802 15.7608C33.8302 16.1608 33.4202 16.5308 33.0602 16.8408C32.3502 17.4808 31.8702 17.9008 31.8702 17.9008C32.3802 17.7508 32.8902 17.6208 33.4102 17.5408C33.9802 17.4508 34.5502 17.3908 35.1202 17.3808C35.4002 17.3808 35.6802 17.3808 35.9602 17.3808C36.2502 17.4008 36.5402 17.4408 36.8202 17.4808C37.9502 17.6408 39.0302 17.9508 40.0202 18.3808C40.4602 18.5708 40.4502 19.1908 40.0202 19.3808C38.2302 20.1408 36.4802 20.7608 34.5702 20.9808C34.0902 21.0408 33.6102 21.0808 33.1302 21.1008C32.6502 21.1208 32.1902 21.1508 31.7102 21.1508C30.7602 21.1508 29.7902 21.0608 28.8202 20.8908C28.8202 20.8908 28.3802 21.3408 27.7302 22.0108C27.0702 22.6708 26.3002 23.6708 25.4802 24.6108C25.0802 25.0908 24.6702 25.5708 24.3002 26.0108C23.9302 26.4608 23.6302 26.9208 23.3402 27.3008C22.7902 28.0608 22.4202 28.5608 22.4202 28.5608C22.9402 28.2808 23.4602 28.0208 24.0002 27.8108C24.5702 27.5908 25.1302 27.4108 25.7202 27.2808C26.3202 27.1608 26.9302 27.0908 27.5202 27.0508C28.7202 26.9808 29.8902 27.0508 30.9902 27.2908C31.4802 27.3908 31.6002 28.0408 31.2102 28.3308C30.4102 28.9408 29.5302 29.4508 28.6402 29.9108C27.7802 30.4008 26.8702 30.8108 25.9202 31.1408C24.9802 31.4808 23.9402 31.7008 22.9702 31.9208C21.9902 32.1208 20.9702 32.2508 19.9302 32.2808C19.9302 32.2808 19.6102 32.8008 19.1202 33.5808C18.6002 34.3408 18.0702 35.4508 17.4902 36.5308C17.2002 37.0708 16.9202 37.6208 16.6502 38.1208C16.5202 38.3708 16.3902 38.6208 16.2702 38.8508C16.1602 39.0908 16.0602 39.3208 15.9702 39.5308C15.6002 40.3708 15.3602 40.9408 15.3602 40.9408C15.8502 40.5108 16.3502 40.1208 16.8702 39.7708C17.3802 39.4108 17.9802 39.1208 18.5702 38.8708C19.1602 38.6208 19.7602 38.4108 20.3602 38.2408C21.5602 37.9108 22.7802 37.7408 23.9502 37.7508C24.4802 37.7508 24.7402 38.3908 24.4002 38.7808C23.7102 39.5808 22.9502 40.3108 22.1102 40.9608C21.6802 41.2908 21.2702 41.6108 20.8602 41.9208C20.4402 42.2308 20.0102 42.5208 19.5502 42.7908C18.6502 43.3408 17.6802 43.8108 16.6702 44.2208C15.6902 44.6408 14.6802 44.9908 13.6202 45.2608C13.6202 45.2608 13.4202 45.8308 13.1202 46.6808C12.9702 47.1108 12.8002 47.6008 12.6102 48.1408C12.4602 48.6808 12.3002 49.2708 12.1502 49.8508C11.8402 51.0108 11.5202 52.1708 11.2902 53.0508C11.1202 53.9408 11.0002 54.5308 11.0002 54.5308C11.4202 53.9608 11.8202 53.4208 12.3602 52.9408C13.3602 52.0108 14.4602 51.2308 15.6102 50.6308C16.1802 50.3308 16.7702 50.0708 17.3602 49.8608C17.9502 49.6508 18.6002 49.5008 19.2102 49.3808C19.7702 49.2808 20.1502 49.8708 19.8502 50.3208C19.3202 51.2908 18.7102 52.2008 18.0102 53.0508C17.6602 53.4808 17.2802 53.8908 16.8902 54.2908C16.5202 54.6908 16.1502 55.0908 15.7502 55.4708C14.9502 56.2308 14.0702 56.9308 13.1302 57.5708C12.6602 57.8908 12.1602 58.1908 11.6702 58.4808C11.1902 58.7708 10.6902 59.0408 10.1802 59.2908C10.1802 59.2908 10.1102 59.8808 10.0102 60.7608C9.96021 61.2008 9.90021 61.7208 9.84021 62.2708C9.78021 62.8208 9.70021 63.4108 9.69021 64.0008C9.65021 65.1808 9.60021 66.3708 9.57021 67.2608C9.55021 67.7008 9.54021 68.0708 9.53021 68.3308C9.52021 68.5908 9.53021 68.7408 9.53021 68.7408C9.86021 68.0308 10.2602 67.3608 10.6902 66.7308C11.4902 65.5608 12.4302 64.5308 13.4602 63.6708C14.5602 62.8208 15.7502 62.1408 16.9502 61.6408C17.4902 61.4208 18.0202 61.9408 17.8302 62.4708C17.6402 63.0208 17.3902 63.5508 17.1702 64.0808C16.9702 64.6108 16.7302 65.1309 16.4802 65.6508C15.9602 66.6808 15.3402 67.6609 14.6302 68.6108C13.3602 70.5008 11.6902 72.2408 9.72021 73.7308C9.72021 73.7308 9.72021 73.8808 9.75021 74.1308C9.78021 74.3808 9.82021 74.7408 9.87021 75.1808C9.97021 76.0508 10.1002 77.2108 10.2302 78.3608C10.2802 78.9408 10.3902 79.5108 10.5002 80.0508C10.6002 80.5908 10.7002 81.0908 10.7802 81.5208C10.9402 82.3808 11.0502 82.9508 11.0502 82.9508C11.2402 82.1208 11.4802 81.3208 11.7902 80.5608C12.0702 79.8808 12.3702 79.2309 12.7402 78.6108C13.1402 77.9908 13.5702 77.4008 14.0302 76.8508C14.9602 75.7508 16.0002 74.8208 17.1202 74.0708C17.6202 73.7408 18.2802 74.1608 18.2102 74.7308C18.0802 75.9208 17.7802 77.1108 17.4502 78.2608C17.1602 79.4108 16.7602 80.5408 16.2502 81.6608C16.0002 82.2208 15.7002 82.7708 15.4202 83.3108C15.1502 83.8508 14.8502 84.3809 14.5302 84.9008C13.8902 85.9509 13.1402 86.9708 12.3002 87.9408C12.3002 87.9408 12.3402 88.0808 12.4002 88.3208C12.4702 88.5608 12.5402 88.9108 12.6902 89.3208C12.9802 90.1308 13.3602 91.2108 13.7402 92.2908C13.9302 92.8308 14.1202 93.3708 14.3002 93.8808C14.5202 94.3708 14.7202 94.8308 14.8902 95.2208C15.2302 96.0108 15.4602 96.5308 15.4602 96.5308C15.4602 95.6208 15.5202 94.7208 15.6602 93.8508C15.7602 93.1108 16.0202 92.3508 16.2702 91.6408C16.5302 90.9208 16.8402 90.2408 17.1902 89.5808C17.8902 88.2708 18.7102 87.1208 19.7602 86.1008C20.2202 85.6508 20.9402 85.9508 20.9802 86.5508C21.1202 87.7908 21.1202 89.0308 21.0002 90.2908C20.9702 90.6008 20.9302 90.9208 20.8902 91.2308C20.8702 91.5408 20.8402 91.8409 20.8002 92.1508C20.7202 92.7709 20.6202 93.3808 20.4802 94.0008C19.8902 96.5008 19.0902 98.9308 17.8002 101.281C17.8002 101.281 18.0602 101.781 18.4502 102.521C18.8502 103.261 19.4802 104.191 20.0602 105.151C20.6602 106.101 21.2202 107.071 21.7402 107.731C22.2302 108.411 22.5602 108.861 22.5602 108.861C22.3602 107.911 22.2002 106.991 22.1902 106.041C22.1902 104.421 22.4202 102.851 22.8402 101.381C23.2302 99.9308 23.9602 98.5008 24.7702 97.2808C25.1402 96.7308 25.9602 96.8708 26.1102 97.4808C26.1902 97.8008 26.2602 98.1208 26.3302 98.4408C26.4202 98.7508 26.5002 99.0608 26.5702 99.3708C26.7102 100.001 26.8202 100.641 26.9002 101.281C26.9802 101.921 27.0202 102.591 27.0602 103.241C27.1202 103.881 27.1502 104.531 27.1502 105.191C27.1502 106.501 27.0202 107.861 26.8202 109.201C26.6502 110.521 26.3702 111.851 25.9702 113.191C25.9702 113.191 26.3202 113.611 26.8602 114.241C27.3702 114.891 28.1802 115.641 28.9302 116.441C29.7102 117.221 30.4502 118.031 31.0602 118.591C31.6802 119.141 32.0902 119.501 32.0902 119.501C31.6502 118.571 31.2902 117.631 31.1002 116.621C30.7502 114.981 30.6402 113.341 30.7502 111.781C30.9202 110.161 31.3102 108.611 31.8802 107.191C32.1402 106.561 33.0102 106.521 33.3002 107.101C33.6102 107.701 33.8602 108.341 34.1302 108.951C34.4102 109.551 34.6602 110.171 34.8802 110.811C35.3202 112.081 35.6302 113.441 35.9402 114.741C36.2202 116.071 36.4002 117.461 36.4602 118.891C36.5502 120.291 36.5702 121.691 36.4502 123.141C36.4502 123.141 37.0202 123.581 37.8802 124.241C38.3002 124.581 38.8202 124.931 39.3902 125.301C39.9502 125.671 40.5502 126.071 41.1502 126.461C41.7602 126.851 42.3402 127.281 42.9302 127.601C43.5202 127.931 44.0702 128.241 44.5402 128.501C45.4802 129.031 46.1102 129.381 46.1102 129.381C45.4702 128.561 44.9102 127.701 44.4502 126.821C43.6602 125.411 43.2102 123.751 42.9402 122.181C42.8102 121.391 42.7402 120.601 42.7302 119.831C42.7102 119.061 42.7602 118.291 42.8802 117.511C42.9902 116.811 43.7902 116.611 44.2302 117.081C45.1502 118.061 45.9902 119.141 46.7302 120.321C47.5202 121.431 48.2302 122.601 48.8302 123.871C49.4202 125.171 49.9902 126.391 50.4002 127.751C50.8202 129.101 51.1102 130.521 51.2502 131.981C51.3702 133.221 49.8802 134.161 48.0402 134.791C47.1202 135.101 46.1202 135.341 45.2402 135.511C44.3502 135.691 43.5802 135.781 43.1402 135.811C41.4102 135.961 39.5802 135.881 37.7202 135.601C35.9002 135.231 34.0702 134.621 32.2602 133.841C31.4702 133.481 31.3302 132.481 32.0202 132.251C33.5402 131.761 35.2602 131.281 36.9602 131.011C38.6802 130.711 40.3702 130.641 42.1402 130.561C43.2002 130.531 44.2502 130.581 45.2902 130.701C45.2902 130.701 44.6502 130.341 43.6902 129.801C43.2102 129.531 42.6502 129.211 42.0502 128.881C41.4502 128.541 40.8502 128.111 40.2302 127.711C39.6202 127.301 39.0002 126.901 38.4302 126.521C38.1402 126.331 37.8602 126.151 37.6002 125.971C37.3402 125.791 37.1102 125.601 36.8902 125.431C36.0102 124.761 35.4302 124.311 35.4302 124.311C34.0602 124.771 32.5802 125.101 31.0902 125.181C29.6202 125.241 28.1002 125.121 26.5402 124.821C24.9602 124.551 23.4702 123.951 21.9502 123.231C21.1902 122.861 20.4402 122.451 19.6902 122.001C18.9702 121.531 18.2802 120.981 17.5802 120.421C16.9102 119.871 16.9902 118.891 17.7302 118.831C19.3702 118.691 21.0902 118.711 22.7802 118.881C24.5302 119.001 26.2802 119.271 27.9402 119.691C28.4502 119.811 28.9302 119.981 29.4502 120.121C29.9602 120.261 30.4702 120.421 30.9702 120.591C30.9702 120.591 30.5502 120.221 29.9202 119.661C29.3102 119.081 28.5402 118.261 27.7502 117.461C26.9702 116.651 26.1602 115.871 25.6402 115.201C25.1002 114.561 24.7302 114.131 24.7302 114.131C23.3402 114.291 21.9202 114.281 20.4802 114.081C19.0802 113.851 17.6902 113.431 16.3002 112.831C15.6102 112.531 14.9102 112.191 14.2302 111.811C13.5802 111.401 12.9402 110.951 12.3102 110.461C11.6802 109.971 11.0602 109.431 10.4502 108.861C10.1502 108.571 9.85021 108.281 9.55021 107.971C9.28021 107.651 9.01021 107.321 8.75021 106.991C8.24021 106.341 8.51021 105.431 9.21021 105.521C9.99021 105.611 10.7802 105.751 11.5702 105.921C11.9602 106.011 12.3602 106.101 12.7502 106.211C13.1602 106.311 13.5602 106.411 13.9702 106.531C15.5902 106.991 17.1702 107.581 18.6402 108.321C19.5102 108.751 20.4302 109.191 21.2702 109.701C21.2702 109.701 20.9302 109.241 20.4302 108.541C19.8902 107.871 19.3402 106.861 18.7202 105.901C18.1302 104.921 17.4802 103.971 17.0802 103.211C16.6802 102.451 16.4102 101.941 16.4102 101.941C15.0802 101.811 13.7602 101.511 12.4502 101.041C12.1302 100.921 11.7902 100.801 11.4802 100.651C11.1702 100.501 10.8702 100.351 10.5602 100.181C9.95021 99.8409 9.36021 99.4708 8.77021 99.0508C8.18021 98.6308 7.61021 98.1708 7.05021 97.6808C6.77021 97.4308 6.49021 97.1808 6.22021 96.9108C5.97021 96.6308 5.72021 96.3508 5.48021 96.0608C4.51021 94.8908 3.61021 93.5708 2.80021 92.1308C2.45021 91.4208 2.90021 90.6208 3.53021 90.8408C4.93021 91.3208 6.43021 91.9408 7.84021 92.6908C9.27021 93.4308 10.5802 94.3208 11.8602 95.2808C12.6202 95.8308 13.3302 96.4408 14.0102 97.0708C14.0102 97.0708 13.7802 96.5308 13.4202 95.7308C13.2502 95.3308 13.0402 94.8608 12.8202 94.3508C12.6402 93.8308 12.4402 93.2808 12.2502 92.7308C11.8602 91.6308 11.4702 90.5208 11.1802 89.6908C11.0402 89.2708 10.9602 88.9208 10.8902 88.6708C10.8202 88.4208 10.7902 88.2808 10.7902 88.2808C9.58021 87.8908 8.41021 87.3408 7.30021 86.6308C6.74021 86.2808 6.20021 85.8908 5.67021 85.4608C5.17021 85.0308 4.70021 84.5508 4.24021 84.0508C3.32021 83.0408 2.48021 81.8808 1.73021 80.6108C1.04021 79.3308 0.500208 77.9208 0.0502075 76.4308C-0.169792 75.7008 0.370207 75.0408 0.950207 75.3708L0.860207 75.4008Z" fill="url(#paint0_linear_0_851)"/>
<g style="mix-blend-mode:multiply" opacity="0.75">
<path d="M0.860207 75.4008C2.14021 76.1108 3.39021 76.9808 4.56021 77.9608C5.14021 78.4508 5.70021 78.9608 6.23021 79.5008C6.77021 80.0408 7.34021 80.5908 7.85021 81.1608C8.42021 81.8008 8.95021 82.4908 9.43021 83.1908C9.43021 83.1908 9.32021 82.6108 9.15021 81.7308C9.07021 81.2908 8.97021 80.7808 8.86021 80.2308C8.81021 79.9608 8.75021 79.6708 8.70021 79.3808C8.67021 79.0908 8.63021 78.7908 8.60021 78.5008C8.47021 77.3208 8.33021 76.1308 8.23021 75.2508C8.18021 74.8108 8.14021 74.4408 8.11021 74.1808C8.08021 73.9208 8.08021 73.7708 8.08021 73.7708C6.01021 72.5508 4.20021 70.7708 2.79021 68.5308C2.15021 67.4108 1.62021 66.1808 1.19021 64.8508C0.980208 64.1908 0.790208 63.5008 0.630208 62.8008C0.500208 62.1008 0.430208 61.3808 0.380208 60.6408C0.330208 59.9208 0.980207 59.4108 1.45021 59.8208C2.50021 60.7308 3.49021 61.7708 4.36021 62.9108C5.31021 64.0508 6.17021 65.2709 6.88021 66.5408C7.26021 67.2309 7.59021 67.9308 7.89021 68.6608C7.89021 68.6608 7.98021 66.2408 8.07021 63.8208C8.07021 63.2108 8.17021 62.6108 8.23021 62.0508C8.29021 61.4908 8.35021 60.9608 8.41021 60.5108C8.51021 59.6108 8.58021 59.0108 8.58021 59.0108C8.14021 58.6208 7.72021 58.2008 7.33021 57.7608C6.96021 57.3208 6.62021 56.8508 6.30021 56.3508C5.66021 55.3608 5.13021 54.2708 4.70021 53.0908C4.49021 52.5008 4.29021 51.8908 4.16021 51.2608C4.04021 50.6408 3.95021 50.0008 3.89021 49.3508C3.78021 48.0408 3.76021 46.6708 3.91021 45.2708C4.01021 44.6008 4.72021 44.2408 5.08021 44.7208C5.48021 45.2408 5.84021 45.7908 6.21021 46.3708C6.59021 46.9508 6.94021 47.5608 7.27021 48.1808C7.92021 49.4208 8.46021 50.7208 8.86021 52.0508C9.04021 52.7208 9.29021 53.4408 9.44021 54.1408C9.44021 54.1408 9.55021 53.5308 9.74021 52.6308C9.98021 51.7408 10.3002 50.5508 10.6202 49.3608C10.7802 48.7708 10.9302 48.1708 11.1002 47.6208C11.2902 47.0808 11.4702 46.5708 11.6202 46.1308C11.9302 45.2608 12.1302 44.6808 12.1302 44.6808C11.4802 43.7808 10.9202 42.7908 10.5002 41.7408C10.1102 40.7008 9.84021 39.5908 9.69021 38.4108C9.61021 37.8208 9.57021 37.2308 9.55021 36.6108C9.55021 36.3008 9.55021 36.0008 9.55021 35.6908C9.57021 35.3808 9.60021 35.0808 9.64021 34.7708C9.80021 33.5408 10.0702 32.2808 10.4802 31.0208C10.6802 30.4008 11.3802 30.2008 11.6402 30.7108C12.8002 33.0008 13.5102 35.6408 13.7702 38.2708C13.8502 38.9308 13.9002 39.5908 13.9102 40.2608C13.9102 40.2608 14.1602 39.6908 14.5402 38.8208C14.6402 38.6008 14.7402 38.3708 14.8502 38.1308C14.9802 37.8908 15.1102 37.6408 15.2402 37.3808C15.5102 36.8608 15.8102 36.3008 16.1002 35.7508C16.6902 34.6408 17.2502 33.5208 17.7802 32.7408C18.2802 31.9408 18.6102 31.4108 18.6102 31.4108C18.1902 30.4508 17.8902 29.4308 17.7002 28.3608C17.5102 27.2908 17.5102 26.2408 17.6002 25.1208C17.6902 24.0108 17.9102 22.8808 18.2402 21.7408C18.6102 20.6308 19.1302 19.5408 19.7502 18.4508C20.0602 17.9208 20.7602 17.8708 20.9002 18.3908C21.2102 19.5508 21.4102 20.7908 21.5002 22.0308C21.5402 22.6508 21.5502 23.2808 21.5302 23.9008C21.5102 24.5308 21.5102 25.1808 21.4402 25.8108C21.3902 26.4108 21.2902 27.0008 21.1802 27.5908C21.1802 27.5908 21.5602 27.0708 22.1202 26.3008C22.4102 25.9208 22.7102 25.4508 23.1002 24.9908C23.4902 24.5308 23.9002 24.0408 24.3102 23.5608C24.7202 23.0708 25.1302 22.5808 25.5202 22.1308C25.9002 21.6708 26.2602 21.2408 26.6102 20.9108C27.2802 20.2208 27.7202 19.7708 27.7202 19.7708C27.3502 17.8508 27.3602 15.7308 28.0102 13.7708C28.6202 11.7908 29.6502 9.73084 31.2502 8.04084C31.6402 7.61084 32.3002 7.70084 32.3302 8.21084C32.4702 10.4808 32.1002 12.8708 31.4302 15.2008C31.2702 15.7108 31.0802 16.2208 30.8602 16.7108C30.8602 16.7108 31.3502 16.2808 32.0802 15.6308C32.4402 15.3108 32.8702 14.9308 33.3302 14.5208C33.8002 14.1308 34.3202 13.7508 34.8402 13.3408C35.8802 12.5508 36.8902 11.7408 37.6902 11.1708C38.5002 10.6308 39.0502 10.2708 39.0502 10.2708C39.0702 9.34084 39.2002 8.41084 39.4302 7.49084C39.6702 6.57084 40.0002 5.63084 40.4802 4.80084C40.9502 3.95084 41.5302 3.12084 42.2102 2.33084C42.8802 1.54084 43.6502 0.770843 44.5502 0.150843C44.9902 -0.169157 45.5902 0.0508429 45.5202 0.520843C45.3702 1.58084 45.0902 2.63084 44.7202 3.69084C44.3702 4.78084 43.9102 5.83084 43.3602 6.82084C43.1302 7.23084 42.8602 7.63084 42.5902 8.02084C42.5902 8.02084 44.4202 6.99084 46.2602 5.97084C48.1602 5.08084 50.0602 4.19084 50.0602 4.19084C51.0702 3.72084 51.6702 5.15084 50.6802 5.61084L46.9302 7.37084C45.1202 8.38084 43.3102 9.40084 43.3102 9.40084C43.7802 9.37084 44.2602 9.35084 44.7202 9.38084C45.8202 9.44084 46.8902 9.64084 47.8902 9.97084C48.8902 10.3108 49.8602 10.8308 50.6902 11.4108C51.0602 11.6708 50.9302 12.2408 50.4902 12.3308C49.5802 12.5008 48.7202 12.6908 47.8302 12.7708C46.9402 12.8508 46.0402 12.8608 45.1402 12.7708C44.2202 12.6708 43.3602 12.5908 42.4802 12.4008C41.6002 12.2108 40.7202 11.9408 39.8602 11.6008C39.8602 11.6008 39.3302 11.9508 38.5302 12.4808C37.7602 13.0408 36.7602 13.8308 35.7502 14.6108C35.2502 15.0008 34.7302 15.3708 34.2802 15.7608C33.8302 16.1608 33.4202 16.5308 33.0602 16.8408C32.3502 17.4808 31.8702 17.9008 31.8702 17.9008C32.3802 17.7508 32.8902 17.6208 33.4102 17.5408C33.9802 17.4508 34.5502 17.3908 35.1202 17.3808C35.4002 17.3808 35.6802 17.3808 35.9602 17.3808C36.2502 17.4008 36.5402 17.4408 36.8202 17.4808C37.9502 17.6408 39.0302 17.9508 40.0202 18.3808C40.4602 18.5708 40.4502 19.1908 40.0202 19.3808C38.2302 20.1408 36.4802 20.7608 34.5702 20.9808C34.0902 21.0408 33.6102 21.0808 33.1302 21.1008C32.6502 21.1208 32.1902 21.1508 31.7102 21.1508C30.7602 21.1508 29.7902 21.0608 28.8202 20.8908C28.8202 20.8908 28.3802 21.3408 27.7302 22.0108C27.0702 22.6708 26.3002 23.6708 25.4802 24.6108C25.0802 25.0908 24.6702 25.5708 24.3002 26.0108C23.9302 26.4608 23.6302 26.9208 23.3402 27.3008C22.7902 28.0608 22.4202 28.5608 22.4202 28.5608C22.9402 28.2808 23.4602 28.0208 24.0002 27.8108C24.5702 27.5908 25.1302 27.4108 25.7202 27.2808C26.3202 27.1608 26.9302 27.0908 27.5202 27.0508C28.7202 26.9808 29.8902 27.0508 30.9902 27.2908C31.4802 27.3908 31.6002 28.0408 31.2102 28.3308C30.4102 28.9408 29.5302 29.4508 28.6402 29.9108C27.7802 30.4008 26.8702 30.8108 25.9202 31.1408C24.9802 31.4808 23.9402 31.7008 22.9702 31.9208C21.9902 32.1208 20.9702 32.2508 19.9302 32.2808C19.9302 32.2808 19.6102 32.8008 19.1202 33.5808C18.6002 34.3408 18.0702 35.4508 17.4902 36.5308C17.2002 37.0708 16.9202 37.6208 16.6502 38.1208C16.5202 38.3708 16.3902 38.6208 16.2702 38.8508C16.1602 39.0908 16.0602 39.3208 15.9702 39.5308C15.6002 40.3708 15.3602 40.9408 15.3602 40.9408C15.8502 40.5108 16.3502 40.1208 16.8702 39.7708C17.3802 39.4108 17.9802 39.1208 18.5702 38.8708C19.1602 38.6208 19.7602 38.4108 20.3602 38.2408C21.5602 37.9108 22.7802 37.7408 23.9502 37.7508C24.4802 37.7508 24.7402 38.3908 24.4002 38.7808C23.7102 39.5808 22.9502 40.3108 22.1102 40.9608C21.6802 41.2908 21.2702 41.6108 20.8602 41.9208C20.4402 42.2308 20.0102 42.5208 19.5502 42.7908C18.6502 43.3408 17.6802 43.8108 16.6702 44.2208C15.6902 44.6408 14.6802 44.9908 13.6202 45.2608C13.6202 45.2608 13.4202 45.8308 13.1202 46.6808C12.9702 47.1108 12.8002 47.6008 12.6102 48.1408C12.4602 48.6808 12.3002 49.2708 12.1502 49.8508C11.8402 51.0108 11.5202 52.1708 11.2902 53.0508C11.1202 53.9408 11.0002 54.5308 11.0002 54.5308C11.4202 53.9608 11.8202 53.4208 12.3602 52.9408C13.3602 52.0108 14.4602 51.2308 15.6102 50.6308C16.1802 50.3308 16.7702 50.0708 17.3602 49.8608C17.9502 49.6508 18.6002 49.5008 19.2102 49.3808C19.7702 49.2808 20.1502 49.8708 19.8502 50.3208C19.3202 51.2908 18.7102 52.2008 18.0102 53.0508C17.6602 53.4808 17.2802 53.8908 16.8902 54.2908C16.5202 54.6908 16.1502 55.0908 15.7502 55.4708C14.9502 56.2308 14.0702 56.9308 13.1302 57.5708C12.6602 57.8908 12.1602 58.1908 11.6702 58.4808C11.1902 58.7708 10.6902 59.0408 10.1802 59.2908C10.1802 59.2908 10.1102 59.8808 10.0102 60.7608C9.96021 61.2008 9.90021 61.7208 9.84021 62.2708C9.78021 62.8208 9.70021 63.4108 9.69021 64.0008C9.65021 65.1808 9.60021 66.3708 9.57021 67.2608C9.55021 67.7008 9.54021 68.0708 9.53021 68.3308C9.52021 68.5908 9.53021 68.7408 9.53021 68.7408C9.86021 68.0308 10.2602 67.3608 10.6902 66.7308C11.4902 65.5608 12.4302 64.5308 13.4602 63.6708C14.5602 62.8208 15.7502 62.1408 16.9502 61.6408C17.4902 61.4208 18.0202 61.9408 17.8302 62.4708C17.6402 63.0208 17.3902 63.5508 17.1702 64.0808C16.9702 64.6108 16.7302 65.1309 16.4802 65.6508C15.9602 66.6808 15.3402 67.6609 14.6302 68.6108C13.3602 70.5008 11.6902 72.2408 9.72021 73.7308C9.72021 73.7308 9.72021 73.8808 9.75021 74.1308C9.78021 74.3808 9.82021 74.7408 9.87021 75.1808C9.97021 76.0508 10.1002 77.2108 10.2302 78.3608C10.2802 78.9408 10.3902 79.5108 10.5002 80.0508C10.6002 80.5908 10.7002 81.0908 10.7802 81.5208C10.9402 82.3808 11.0502 82.9508 11.0502 82.9508C11.2402 82.1208 11.4802 81.3208 11.7902 80.5608C12.0702 79.8808 12.3702 79.2309 12.7402 78.6108C13.1402 77.9908 13.5702 77.4008 14.0302 76.8508C14.9602 75.7508 16.0002 74.8208 17.1202 74.0708C17.6202 73.7408 18.2802 74.1608 18.2102 74.7308C18.0802 75.9208 17.7802 77.1108 17.4502 78.2608C17.1602 79.4108 16.7602 80.5408 16.2502 81.6608C16.0002 82.2208 15.7002 82.7708 15.4202 83.3108C15.1502 83.8508 14.8502 84.3809 14.5302 84.9008C13.8902 85.9509 13.1402 86.9708 12.3002 87.9408C12.3002 87.9408 12.3402 88.0808 12.4002 88.3208C12.4702 88.5608 12.5402 88.9108 12.6902 89.3208C12.9802 90.1308 13.3602 91.2108 13.7402 92.2908C13.9302 92.8308 14.1202 93.3708 14.3002 93.8808C14.5202 94.3708 14.7202 94.8308 14.8902 95.2208C15.2302 96.0108 15.4602 96.5308 15.4602 96.5308C15.4602 95.6208 15.5202 94.7208 15.6602 93.8508C15.7602 93.1108 16.0202 92.3508 16.2702 91.6408C16.5302 90.9208 16.8402 90.2408 17.1902 89.5808C17.8902 88.2708 18.7102 87.1208 19.7602 86.1008C20.2202 85.6508 20.9402 85.9508 20.9802 86.5508C21.1202 87.7908 21.1202 89.0308 21.0002 90.2908C20.9702 90.6008 20.9302 90.9208 20.8902 91.2308C20.8702 91.5408 20.8402 91.8409 20.8002 92.1508C20.7202 92.7709 20.6202 93.3808 20.4802 94.0008C19.8902 96.5008 19.0902 98.9308 17.8002 101.281C17.8002 101.281 18.0602 101.781 18.4502 102.521C18.8502 103.261 19.4802 104.191 20.0602 105.151C20.6602 106.101 21.2202 107.071 21.7402 107.731C22.2302 108.411 22.5602 108.861 22.5602 108.861C22.3602 107.911 22.2002 106.991 22.1902 106.041C22.1902 104.421 22.4202 102.851 22.8402 101.381C23.2302 99.9308 23.9602 98.5008 24.7702 97.2808C25.1402 96.7308 25.9602 96.8708 26.1102 97.4808C26.1902 97.8008 26.2602 98.1208 26.3302 98.4408C26.4202 98.7508 26.5002 99.0608 26.5702 99.3708C26.7102 100.001 26.8202 100.641 26.9002 101.281C26.9802 101.921 27.0202 102.591 27.0602 103.241C27.1202 103.881 27.1502 104.531 27.1502 105.191C27.1502 106.501 27.0202 107.861 26.8202 109.201C26.6502 110.521 26.3702 111.851 25.9702 113.191C25.9702 113.191 26.3202 113.611 26.8602 114.241C27.3702 114.891 28.1802 115.641 28.9302 116.441C29.7102 117.221 30.4502 118.031 31.0602 118.591C31.6802 119.141 32.0902 119.501 32.0902 119.501C31.6502 118.571 31.2902 117.631 31.1002 116.621C30.7502 114.981 30.6402 113.341 30.7502 111.781C30.9202 110.161 31.3102 108.611 31.8802 107.191C32.1402 106.561 33.0102 106.521 33.3002 107.101C33.6102 107.701 33.8602 108.341 34.1302 108.951C34.4102 109.551 34.6602 110.171 34.8802 110.811C35.3202 112.081 35.6302 113.441 35.9402 114.741C36.2202 116.071 36.4002 117.461 36.4602 118.891C36.5502 120.291 36.5702 121.691 36.4502 123.141C36.4502 123.141 37.0202 123.581 37.8802 124.241C38.3002 124.581 38.8202 124.931 39.3902 125.301C39.9502 125.671 40.5502 126.071 41.1502 126.461C41.7602 126.851 42.3402 127.281 42.9302 127.601C43.5202 127.931 44.0702 128.241 44.5402 128.501C45.4802 129.031 46.1102 129.381 46.1102 129.381C45.4702 128.561 44.9102 127.701 44.4502 126.821C43.6602 125.411 43.2102 123.751 42.9402 122.181C42.8102 121.391 42.7402 120.601 42.7302 119.831C42.7102 119.061 42.7602 118.291 42.8802 117.511C42.9902 116.811 43.7902 116.611 44.2302 117.081C45.1502 118.061 45.9902 119.141 46.7302 120.321C47.5202 121.431 48.2302 122.601 48.8302 123.871C49.4202 125.171 49.9902 126.391 50.4002 127.751C50.8202 129.101 51.1102 130.521 51.2502 131.981C51.3702 133.221 49.8802 134.161 48.0402 134.791C47.1202 135.101 46.1202 135.341 45.2402 135.511C44.3502 135.691 43.5802 135.781 43.1402 135.811C41.4102 135.961 39.5802 135.881 37.7202 135.601C35.9002 135.231 34.0702 134.621 32.2602 133.841C31.4702 133.481 31.3302 132.481 32.0202 132.251C33.5402 131.761 35.2602 131.281 36.9602 131.011C38.6802 130.711 40.3702 130.641 42.1402 130.561C43.2002 130.531 44.2502 130.581 45.2902 130.701C45.2902 130.701 44.6502 130.341 43.6902 129.801C43.2102 129.531 42.6502 129.211 42.0502 128.881C41.4502 128.541 40.8502 128.111 40.2302 127.711C39.6202 127.301 39.0002 126.901 38.4302 126.521C38.1402 126.331 37.8602 126.151 37.6002 125.971C37.3402 125.791 37.1102 125.601 36.8902 125.431C36.0102 124.761 35.4302 124.311 35.4302 124.311C34.0602 124.771 32.5802 125.101 31.0902 125.181C29.6202 125.241 28.1002 125.121 26.5402 124.821C24.9602 124.551 23.4702 123.951 21.9502 123.231C21.1902 122.861 20.4402 122.451 19.6902 122.001C18.9702 121.531 18.2802 120.981 17.5802 120.421C16.9102 119.871 16.9902 118.891 17.7302 118.831C19.3702 118.691 21.0902 118.711 22.7802 118.881C24.5302 119.001 26.2802 119.271 27.9402 119.691C28.4502 119.811 28.9302 119.981 29.4502 120.121C29.9602 120.261 30.4702 120.421 30.9702 120.591C30.9702 120.591 30.5502 120.221 29.9202 119.661C29.3102 119.081 28.5402 118.261 27.7502 117.461C26.9702 116.651 26.1602 115.871 25.6402 115.201C25.1002 114.561 24.7302 114.131 24.7302 114.131C23.3402 114.291 21.9202 114.281 20.4802 114.081C19.0802 113.851 17.6902 113.431 16.3002 112.831C15.6102 112.531 14.9102 112.191 14.2302 111.811C13.5802 111.401 12.9402 110.951 12.3102 110.461C11.6802 109.971 11.0602 109.431 10.4502 108.861C10.1502 108.571 9.85021 108.281 9.55021 107.971C9.28021 107.651 9.01021 107.321 8.75021 106.991C8.24021 106.341 8.51021 105.431 9.21021 105.521C9.99021 105.611 10.7802 105.751 11.5702 105.921C11.9602 106.011 12.3602 106.101 12.7502 106.211C13.1602 106.311 13.5602 106.411 13.9702 106.531C15.5902 106.991 17.1702 107.581 18.6402 108.321C19.5102 108.751 20.4302 109.191 21.2702 109.701C21.2702 109.701 20.9302 109.241 20.4302 108.541C19.8902 107.871 19.3402 106.861 18.7202 105.901C18.1302 104.921 17.4802 103.971 17.0802 103.211C16.6802 102.451 16.4102 101.941 16.4102 101.941C15.0802 101.811 13.7602 101.511 12.4502 101.041C12.1302 100.921 11.7902 100.801 11.4802 100.651C11.1702 100.501 10.8702 100.351 10.5602 100.181C9.95021 99.8409 9.36021 99.4708 8.77021 99.0508C8.18021 98.6308 7.61021 98.1708 7.05021 97.6808C6.77021 97.4308 6.49021 97.1808 6.22021 96.9108C5.97021 96.6308 5.72021 96.3508 5.48021 96.0608C4.51021 94.8908 3.61021 93.5708 2.80021 92.1308C2.45021 91.4208 2.90021 90.6208 3.53021 90.8408C4.93021 91.3208 6.43021 91.9408 7.84021 92.6908C9.27021 93.4308 10.5802 94.3208 11.8602 95.2808C12.6202 95.8308 13.3302 96.4408 14.0102 97.0708C14.0102 97.0708 13.7802 96.5308 13.4202 95.7308C13.2502 95.3308 13.0402 94.8608 12.8202 94.3508C12.6402 93.8308 12.4402 93.2808 12.2502 92.7308C11.8602 91.6308 11.4702 90.5208 11.1802 89.6908C11.0402 89.2708 10.9602 88.9208 10.8902 88.6708C10.8202 88.4208 10.7902 88.2808 10.7902 88.2808C9.58021 87.8908 8.41021 87.3408 7.30021 86.6308C6.74021 86.2808 6.20021 85.8908 5.67021 85.4608C5.17021 85.0308 4.70021 84.5508 4.24021 84.0508C3.32021 83.0408 2.48021 81.8808 1.73021 80.6108C1.04021 79.3308 0.500208 77.9208 0.0502075 76.4308C-0.169792 75.7008 0.370207 75.0408 0.950207 75.3708L0.860207 75.4008Z" fill="#E5AD3E"/>
</g>
<defs>
<linearGradient id="paint0_linear_0_851" x1="-41.2298" y1="32.9308" x2="380.88" y2="212.741" gradientUnits="userSpaceOnUse">
<stop stop-color="#6E4121"/>
<stop offset="0.22" stop-color="#E2C967"/>
<stop offset="0.45" stop-color="#6E4121"/>
<stop offset="0.76" stop-color="#BA8F47"/>
<stop offset="0.86" stop-color="#986C36"/>
<stop offset="0.99" stop-color="#6E4121"/>
</linearGradient>
</defs>
</svg>
